<svg id="Calque_1" data-name="Calque 1" xmlns="http://www.w3.org/2000/svg" viewBox="0 0 1365 300.51"><defs><style>.cls-1{fill:none;}.cls-2{fill:#517bbd;}.cls-3{fill:#199e58;}.cls-4{fill:#db4537;}.cls-5{fill:#f3b312;}.cls-6{fill:#fff;}</style></defs><g id="Groupe_22929" data-name="Groupe 22929"><path id="Tracé_24205" data-name="Tracé 24205" class="cls-1" d="M131,175a76.51,76.51,0,0,1-1.26-13.42h0A76.51,76.51,0,0,0,131,175Z"/><path id="Tracé_24209" data-name="Tracé 24209" class="cls-2" d="M101,89.37a129,129,0,0,0,36.9-26.67V44.1c-12.74,13.5-28.32,27.67-41.8,33.14-10.67,4.34-25,15.48-38.34,29.85A210.81,210.81,0,0,0,29,146.44h15.2C63.89,114.67,89.09,94.22,101,89.37Z"/><path id="Tracé_24210" data-name="Tracé 24210" class="cls-3" d="M162.63,36l1.47,27.34L213.63,106l3.55,20.77L230,146.44h15.65l-16-24.57-3.89-22.71L176.85,57,173.77,0,163,14.51a380.61,380.61,0,0,1-25.1,29.58V62.7A352,352,0,0,0,162.63,36Z"/><path id="Tracé_24211" data-name="Tracé 24211" class="cls-2" d="M44.24,146.44H29a199.58,199.58,0,0,0-10.71,21.89,187,187,0,0,0-7.59,22.1,14.41,14.41,0,0,0,3.69,28.35h0a14.43,14.43,0,0,0,14.42-14.42h0a14.37,14.37,0,0,0-5.33-11.2,182.81,182.81,0,0,1,6.88-19.82A189.76,189.76,0,0,1,44.24,146.44Z"/><path id="Tracé_24212" data-name="Tracé 24212" class="cls-4" d="M137.88,146.44v32.82h0q1.5,2.16,3.24,4.32V146.46Z"/><path id="Tracé_24213" data-name="Tracé 24213" class="cls-4" d="M137.88,179.26Z"/><path id="Tracé_24214" data-name="Tracé 24214" class="cls-5" d="M245.67,146.44H230l24,36.82v18.8L241.93,212l-22.69-22.12-2.91.18s-4.2.27-10.38.27c-25.58,0-44.81-4.18-51.39-11.19a41.89,41.89,0,0,1-13.45-32.7v37.11c1.23,1.51,2.54,3,3.95,4.52,11.89,12.63,39.69,15.3,60.93,15.3,3.46,0,6.29-.07,8.27-.14l27,26.29,25.92-21.32V179.32Z"/><path id="Tracé_24215" data-name="Tracé 24215" class="cls-4" d="M129.7,161.6h0a52.43,52.43,0,0,0,8.18,17.66V146.44h3.24a113,113,0,0,1,3.58-23.9l6.05-25.17-12.87,14.32h0l-4.4,4.89a66,66,0,0,0-4.52,5.64,63.08,63.08,0,0,0-10.78,24.22c-4.76,22.56,1.86,49.77,19.7,80.47,1.83,3.14,3.73,6.32,5.79,9.53a364.9,364.9,0,0,0,34.9,45.33,14.46,14.46,0,0,1,9.23-9.36c-16.09-18-38.15-45.93-49.92-74.52-.5-1.23-1-2.46-1.44-3.69A109.82,109.82,0,0,1,131,175,76.54,76.54,0,0,1,129.7,161.6Z"/><path id="Tracé_24216" data-name="Tracé 24216" class="cls-4" d="M129.7,161.6a52.24,52.24,0,0,0,8.18,17.66h0A52.24,52.24,0,0,1,129.7,161.6Z"/><path id="Tracé_24217" data-name="Tracé 24217" class="cls-4" d="M136.43,194.2A109.17,109.17,0,0,1,131,175,109.17,109.17,0,0,0,136.43,194.2Z"/><path id="Tracé_24218" data-name="Tracé 24218" class="cls-4" d="M137.88,111.69h0l-4.4,4.89a68.15,68.15,0,0,0-4.53,5.64,68.15,68.15,0,0,1,4.53-5.64Z"/><path id="Tracé_24219" data-name="Tracé 24219" class="cls-4" d="M205.78,291.29a14.46,14.46,0,0,0-13.47-19.62h0a14.3,14.3,0,0,0-4.54.74C196.18,281.82,203,288.55,205.78,291.29Z"/><path id="Tracé_24220" data-name="Tracé 24220" class="cls-4" d="M178.57,281.78a14.42,14.42,0,0,0,13.76,18.73h0a14.42,14.42,0,0,0,12.74-7.66H188.89C185.94,289.82,182.42,286.07,178.57,281.78Z"/><path id="Tracé_24221" data-name="Tracé 24221" class="cls-4" d="M178.57,281.77c3.84,4.31,7.37,8.05,10.32,11.1h16.18a14.93,14.93,0,0,0,.71-1.58c-2.83-2.74-9.58-9.47-18-18.88A14.46,14.46,0,0,0,178.57,281.77Z"/></g><path id="Tracé_17079" data-name="Tracé 17079" class="cls-2" d="M388.19,101.67h45.74c25.2,0,36.93,13.16,36.93,29.54A25.94,25.94,0,0,1,453.75,157a29.23,29.23,0,0,1,21,28.32c0,22.29-17.14,34.64-39.74,34.64H388.18Zm42.73,49.18c17.26,0,24-6.75,24-18.28,0-10.47-7.56-17.94-21.57-17.94H403.7v36.22ZM403.71,207h29.44c15,0,25.4-7,25.4-21.71,0-12.84-8.31-21.46-28.4-21.46H403.73Z"/><path id="Tracé_17080" data-name="Tracé 17080" class="cls-2" d="M505.5,179.54c.11,17.53,9,30,23.75,30a20,20,0,0,0,21-13.32h15.11c-3.42,11-12.74,25.76-36.55,25.76-27.32,0-38.46-22-38.46-44.21,0-25.63,13-46.05,39.42-46.05,28,0,37.21,22.3,37.21,40.69a68.32,68.32,0,0,1-.23,7.15Zm46.24-10.49c-.17-14.18-7.36-25.57-22.21-25.57-15.28,0-22,10.54-23.52,25.57Z"/><path id="Tracé_17081" data-name="Tracé 17081" class="cls-6" d="M586.62,95.14h15V146c3.93-7.35,11.9-14.33,27.72-14.33,21.8,0,35.55,17.81,35.55,43.38,0,26.19-13.24,46.88-37.86,46.88-13.9,0-21.16-5.06-25.56-13.42a105.51,105.51,0,0,1-.58,11.38H586.43c.17-9.63.17-19.32.17-28.94Zm62.82,80.23c0-18.6-8.56-31.05-23.62-31.05-18.45,0-25,12.28-25,32.8,0,17.95,5.75,32.28,24.23,32.28,15.38,0,24.36-13,24.36-34Z"/><path id="Tracé_17082" data-name="Tracé 17082" class="cls-6" d="M684.47,219.92V95.14h15V219.92Z"/><path id="Tracé_17083" data-name="Tracé 17083" class="cls-6" d="M725.06,95.14h15v18.6h-15Zm0,38.59h15v86.19h-15Z"/><path id="Tracé_17084" data-name="Tracé 17084" class="cls-6" d="M840.35,176.66c0,24.83-14.34,45.3-40.91,45.3-24.89,0-40-19.1-40-45,0-25.45,14.75-45.25,40.93-45.25C824.55,131.7,840.35,149.62,840.35,176.66Zm-65.41.17c0,18.9,9.51,32.69,25.13,32.69,15.89,0,24.83-13.08,24.83-32.63,0-19.39-8.89-32.75-25.18-32.75s-24.78,13-24.78,32.69Z"/><path id="Tracé_17085" data-name="Tracé 17085" class="cls-6" d="M848.58,133.74h15V108.31h15v25.43h19.17v12.14H878.61v50.48c0,8.38,2,12.67,9.91,12.67a33.82,33.82,0,0,0,7.58-.71v11.21a41,41,0,0,1-13,1.59c-13.51,0-19.5-7-19.5-21.27v-54h-15Z"/><path id="Tracé_17086" data-name="Tracé 17086" class="cls-6" d="M928.72,95.14v51.31a29.14,29.14,0,0,1,27.12-14.75c13.92,0,29.26,7.56,29.26,33.21v55H970.16V167.39c0-14.66-6.25-22.8-18.89-22.8-15.63,0-22.53,10.25-22.53,28.21v47.12h-15V95.14Z"/><path id="Tracé_17087" data-name="Tracé 17087" class="cls-6" d="M1019.65,179.54c.11,17.53,9,30,23.76,30a20,20,0,0,0,21-13.32h15.11c-3.42,11-12.74,25.76-36.55,25.76-27.32,0-38.46-22-38.46-44.21,0-25.63,13-46.05,39.43-46.05,28,0,37.21,22.3,37.21,40.69a71.16,71.16,0,0,1-.23,7.15Zm11.82-86.1,21.89,26.08h-14.22l-26.31-26.08Zm34.43,75.61c-.17-14.18-7.36-25.57-22.21-25.57-15.28,0-22,10.54-23.52,25.57Z"/><path id="Tracé_17088" data-name="Tracé 17088" class="cls-6" d="M1158.68,207.52c-4.48,9-12.46,14.44-27.48,14.44-19.71,0-36.08-15.54-36.08-44.17,0-29,17.35-46.09,38.25-46.09,16.14,0,23.25,7.35,25.31,13,0-3.14.29-7.43.52-11h14.24c-.11,9-.18,15.93-.18,23.81v96.25h-14.58Zm-48-30.36c0,17.38,7.63,32.18,24.11,32.18,18.76,0,24.22-12.78,24.22-32.9,0-20.27-4.85-32-23.65-32C1119.16,144.43,1110.68,158,1110.68,177.16Z"/><path id="Tracé_17089" data-name="Tracé 17089" class="cls-6" d="M1268.68,194.81c0,8.39.11,20,.18,25.11h-14.6a127,127,0,0,1-.57-12.94c-4.27,9.55-12.64,15-26.31,15-14.64,0-28.71-7.23-28.71-31.55V133.72h14.89v53.49c0,11.33,3.57,21.77,18,21.77,16,0,22.14-8.78,22.14-30.32V133.72h15Z"/><path id="Tracé_17090" data-name="Tracé 17090" class="cls-6" d="M1303.54,179.54c.11,17.53,9,30,23.75,30a20,20,0,0,0,21-13.32h15.1c-3.42,11-12.74,25.76-36.55,25.76-27.32,0-38.46-22-38.46-44.21,0-25.63,13-46.05,39.43-46.05,28,0,37.21,22.3,37.21,40.69a71.16,71.16,0,0,1-.23,7.15Zm46.25-10.49c-.18-14.18-7.36-25.57-22.22-25.57-15.28,0-22,10.54-23.52,25.57Z"/></svg>