<svg id="Calque_1" data-name="Calque 1" xmlns="http://www.w3.org/2000/svg" viewBox="0 0 794.86 174.99"><defs><style>.cls-1{fill:none;}.cls-2{fill:#517bbd;}.cls-3{fill:#199e58;}.cls-4{fill:#db4537;}.cls-5{fill:#f3b312;}.cls-6{fill:#fff;}</style></defs><g id="Groupe_25018" data-name="Groupe 25018"><g id="Groupe_22929" data-name="Groupe 22929"><path id="Tracé_24205" data-name="Tracé 24205" class="cls-1" d="M384.26,610.39a44.62,44.62,0,0,1-.73-7.82h0A44.62,44.62,0,0,0,384.26,610.39Z" transform="translate(-308 -508.47)"/><path id="Tracé_24206" data-name="Tracé 24206" class="cls-1" d="M383.53,602.57a44.62,44.62,0,0,0,.73,7.82,63.74,63.74,0,0,0,3.19,11.16c.28.71.56,1.43.83,2.15V612.85h0A30.59,30.59,0,0,1,383.53,602.57Z" transform="translate(-308 -508.47)"/><path id="Tracé_24207" data-name="Tracé 24207" class="cls-1" d="M427.93,619.3c3.6,0,6-.16,6.05-.16l1.69-.11,13.21,12.88,7.06-5.78v-11l-14-21.44H390.17a24.4,24.4,0,0,0,7.84,19C401.84,616.86,413,619.3,427.93,619.3Z" transform="translate(-308 -508.47)"/><path id="Tracé_24208" data-name="Tracé 24208" class="cls-1" d="M388.29,573.5h0V545a75.11,75.11,0,0,1-21.49,15.53c-6.93,2.82-21.6,14.74-33.05,33.24h43.06a36.56,36.56,0,0,1,6.27-14.11,41.48,41.48,0,0,1,2.63-3.28Z" transform="translate(-308 -508.47)"/><path id="Tracé_24209" data-name="Tracé 24209" class="cls-2" d="M366.81,560.51A75.25,75.25,0,0,0,388.3,545V534.14c-7.43,7.86-16.5,16.12-24.35,19.3-6.21,2.53-14.55,9-22.32,17.38a122.91,122.91,0,0,0-16.72,22.92h8.85C345.2,575.24,359.88,563.33,366.81,560.51Z" transform="translate(-308 -508.47)"/><path id="Tracé_24210" data-name="Tracé 24210" class="cls-3" d="M402.7,529.4l.86,15.92,28.84,24.87,2.07,12.09,7.47,11.46h9.12l-9.35-14.31-2.26-13.22L411,541.68l-1.79-33.21-6.29,8.45a224.16,224.16,0,0,1-14.62,17.22V545A202.26,202.26,0,0,0,402.7,529.4Z" transform="translate(-308 -508.47)"/><path id="Tracé_24211" data-name="Tracé 24211" class="cls-2" d="M333.76,593.74h-8.85a115.64,115.64,0,0,0-6.24,12.75,110.23,110.23,0,0,0-4.42,12.86,8.4,8.4,0,0,0,2.15,16.52h0a8.4,8.4,0,0,0,8.4-8.4h0a8.38,8.38,0,0,0-3.11-6.52,106.53,106.53,0,0,1,4-11.55A111.33,111.33,0,0,1,333.76,593.74Z" transform="translate(-308 -508.47)"/><path id="Tracé_24212" data-name="Tracé 24212" class="cls-4" d="M388.29,593.74v19.11h0c.58.84,1.21,1.68,1.88,2.52V593.75Z" transform="translate(-308 -508.47)"/><path id="Tracé_24213" data-name="Tracé 24213" class="cls-4" d="M388.29,612.85Z" transform="translate(-308 -508.47)"/><path id="Tracé_24214" data-name="Tracé 24214" class="cls-5" d="M451.06,593.74h-9.12l14,21.44v11l-7.05,5.78L435.67,619l-1.7.11s-2.44.16-6,.16c-14.9,0-26.09-2.44-29.93-6.52a24.39,24.39,0,0,1-7.83-19v21.61c.72.88,1.48,1.75,2.3,2.63,6.92,7.36,23.11,8.91,35.48,8.91,2,0,3.67,0,4.82-.08l15.7,15.31,15.09-12.42V612.88Z" transform="translate(-308 -508.47)"/><path id="Tracé_24215" data-name="Tracé 24215" class="cls-4" d="M383.53,602.57h0a30.34,30.34,0,0,0,4.76,10.28V593.74h1.89a65.49,65.49,0,0,1,2.08-13.92l3.53-14.65-7.5,8.33h0l-2.56,2.85a39.59,39.59,0,0,0-2.64,3.29,36.82,36.82,0,0,0-6.27,14.1c-2.77,13.14,1.08,29,11.47,46.86,1.06,1.83,2.17,3.68,3.37,5.55A213,213,0,0,0,412,672.55a8.43,8.43,0,0,1,5.37-5.46c-9.37-10.5-22.22-26.74-29.07-43.39-.29-.72-.56-1.43-.84-2.15a63.46,63.46,0,0,1-3.18-11.16A43.69,43.69,0,0,1,383.53,602.57Z" transform="translate(-308 -508.47)"/><path id="Tracé_24216" data-name="Tracé 24216" class="cls-4" d="M383.53,602.57a30.42,30.42,0,0,0,4.76,10.28h0A30.34,30.34,0,0,1,383.53,602.57Z" transform="translate(-308 -508.47)"/><path id="Tracé_24217" data-name="Tracé 24217" class="cls-4" d="M387.45,621.55a63.49,63.49,0,0,1-3.19-11.16A63.49,63.49,0,0,0,387.45,621.55Z" transform="translate(-308 -508.47)"/><path id="Tracé_24218" data-name="Tracé 24218" class="cls-4" d="M388.29,573.5h0l-2.56,2.85a39.59,39.59,0,0,0-2.64,3.29,39.59,39.59,0,0,1,2.64-3.29Z" transform="translate(-308 -508.47)"/><path id="Tracé_24219" data-name="Tracé 24219" class="cls-4" d="M427.83,678.09a8.2,8.2,0,0,0,.55-3,8.41,8.41,0,0,0-8.4-8.41h0a8.79,8.79,0,0,0-2.64.43C422.24,672.57,426.18,676.49,427.83,678.09Z" transform="translate(-308 -508.47)"/><path id="Tracé_24220" data-name="Tracé 24220" class="cls-4" d="M412,672.55a8.53,8.53,0,0,0-.38,2.51,8.4,8.4,0,0,0,8.4,8.4h0a8.37,8.37,0,0,0,7.41-4.47H418C416.28,677.23,414.23,675.05,412,672.55Z" transform="translate(-308 -508.47)"/><path id="Tracé_24221" data-name="Tracé 24221" class="cls-4" d="M412,672.55c2.23,2.51,4.29,4.68,6,6.46h9.42a7.64,7.64,0,0,0,.42-.92c-1.65-1.6-5.58-5.52-10.47-11A8.41,8.41,0,0,0,412,672.55Z" transform="translate(-308 -508.47)"/></g><g id="Groupe_23464" data-name="Groupe 23464"><g id="Groupe_8295" data-name="Groupe 8295"><path id="Tracé_17079" data-name="Tracé 17079" class="cls-6" d="M534.05,567.67h26.63c14.68,0,21.51,7.66,21.51,17.2a15.11,15.11,0,0,1-10,15,17,17,0,0,1,12.24,16.49c0,13-10,20.17-23.14,20.17H534Zm24.88,28.64c10.05,0,14-3.93,14-10.65,0-6.09-4.4-10.44-12.56-10.44H543.08v21.09ZM543.08,629h17.15C569,629,575,624.93,575,616.34c0-7.47-4.84-12.49-16.54-12.49H543.1Z" transform="translate(-308 -508.47)"/><path id="Tracé_17080" data-name="Tracé 17080" class="cls-6" d="M602.36,613c.06,10.21,5.24,17.46,13.83,17.46a11.65,11.65,0,0,0,12.21-7.76h8.8c-2,6.42-7.42,15-21.28,15-15.91,0-22.4-12.84-22.4-25.75,0-14.92,7.58-26.81,23-26.81,16.32,0,21.67,13,21.67,23.69A41.2,41.2,0,0,1,638,613Zm26.93-6.1c-.1-8.26-4.29-14.89-12.93-14.89-8.9,0-12.82,6.13-13.7,14.89Z" transform="translate(-308 -508.47)"/><path id="Tracé_17081" data-name="Tracé 17081" class="cls-6" d="M649.6,563.87h8.73V593.5c2.29-4.28,6.93-8.34,16.15-8.34,12.69,0,20.7,10.37,20.7,25.26,0,15.25-7.71,27.3-22,27.3-8.09,0-12.32-3-14.88-7.82a63.72,63.72,0,0,1-.34,6.63h-8.43c.11-5.61.11-11.25.11-16.86Zm36.58,46.72c0-10.83-5-18.08-13.76-18.08-10.74,0-14.53,7.15-14.53,19.1,0,10.45,3.35,18.79,14.11,18.79,9,0,14.19-7.57,14.19-19.81Z" transform="translate(-308 -508.47)"/><path id="Tracé_17082" data-name="Tracé 17082" class="cls-6" d="M706.58,636.53V563.87h8.73v72.66Z" transform="translate(-308 -508.47)"/><path id="Tracé_17083" data-name="Tracé 17083" class="cls-6" d="M730.22,563.87H739V574.7h-8.73Zm0,22.47H739v50.19h-8.73Z" transform="translate(-308 -508.47)"/><path id="Tracé_17084" data-name="Tracé 17084" class="cls-6" d="M797.35,611.34c0,14.46-8.35,26.38-23.82,26.38-14.5,0-23.27-11.13-23.27-26.21,0-14.82,8.59-26.35,23.84-26.35C788.15,585.16,797.35,595.59,797.35,611.34Zm-38.09.1c0,11,5.54,19,14.63,19,9.26,0,14.46-7.61,14.46-19s-5.17-19.07-14.66-19.07-14.43,7.58-14.43,19Z" transform="translate(-308 -508.47)"/><path id="Tracé_17085" data-name="Tracé 17085" class="cls-6" d="M802.14,586.34h8.75V571.53h8.74v14.81h11.16v7.07H819.63v29.4c0,4.88,1.19,7.38,5.77,7.38a19.23,19.23,0,0,0,4.41-.42v6.53a23.85,23.85,0,0,1-7.56.93c-7.87,0-11.36-4.05-11.36-12.39V593.41h-8.75Z" transform="translate(-308 -508.47)"/><path id="Tracé_17086" data-name="Tracé 17086" class="cls-6" d="M848.81,563.87v29.88a17,17,0,0,1,15.79-8.59c8.11,0,17,4.4,17,19.34v32h-8.7V605.94c0-8.54-3.64-13.27-11-13.27-9.1,0-13.12,6-13.12,16.42v27.44h-8.74V563.86Z" transform="translate(-308 -508.47)"/><path id="Tracé_17087" data-name="Tracé 17087" class="cls-6" d="M901.76,613c.06,10.21,5.24,17.46,13.83,17.46a11.64,11.64,0,0,0,12.21-7.76h8.8c-2,6.42-7.41,15-21.28,15-15.91,0-22.39-12.84-22.39-25.75,0-14.92,7.57-26.81,23-26.81,16.33,0,21.67,13,21.67,23.69a41.2,41.2,0,0,1-.13,4.16Zm6.88-50.13,12.75,15.19h-8.28l-15.33-15.19Zm20.05,44c-.1-8.26-4.29-14.89-12.93-14.89-8.9,0-12.81,6.13-13.7,14.89Z" transform="translate(-308 -508.47)"/><path id="Tracé_17088" data-name="Tracé 17088" class="cls-6" d="M982.72,629.31c-2.61,5.26-7.26,8.41-16,8.41-11.48,0-21-9.05-21-25.72,0-16.88,10.11-26.84,22.28-26.84,9.4,0,13.54,4.28,14.74,7.55,0-1.82.17-4.32.3-6.37h8.29c-.06,5.21-.1,9.28-.1,13.86v56h-8.49Zm-28-17.68c0,10.12,4.44,18.74,14,18.74,10.92,0,14.1-7.44,14.1-19.16s-2.83-18.64-13.77-18.64C959.71,592.57,954.77,600.49,954.77,611.63Z" transform="translate(-308 -508.47)"/><path id="Tracé_17089" data-name="Tracé 17089" class="cls-6" d="M1046.77,621.91c0,4.88.07,11.65.1,14.62h-8.49c-.24-2.5-.35-5-.34-7.53-2.48,5.55-7.36,8.71-15.32,8.71-8.53,0-16.72-4.21-16.72-18.37v-33h8.67v31.15c0,6.6,2.09,12.68,10.48,12.68,9.3,0,12.89-5.11,12.89-17.66V586.33h8.74Z" transform="translate(-308 -508.47)"/><path id="Tracé_17090" data-name="Tracé 17090" class="cls-6" d="M1067.07,613c.07,10.21,5.24,17.46,13.83,17.46a11.64,11.64,0,0,0,12.21-7.76h8.8c-2,6.42-7.42,15-21.29,15-15.9,0-22.39-12.84-22.39-25.75,0-14.92,7.58-26.81,23-26.81,16.32,0,21.66,13,21.66,23.69a41.2,41.2,0,0,1-.13,4.16Zm26.93-6.1c-.1-8.26-4.28-14.89-12.93-14.89-8.9,0-12.82,6.13-13.7,14.89Z" transform="translate(-308 -508.47)"/></g></g></g></svg>