<svg id="Calque_1" data-name="Calque 1" xmlns="http://www.w3.org/2000/svg" viewBox="0 0 64.24 72.26"><defs><style>.cls-1{fill:#fff;}</style></defs><g id="Groupe_35068" data-name="Groupe 35068"><path id="Tracé_24205" data-name="Tracé 24205" class="cls-1" d="M31.49,42.09a17.57,17.57,0,0,1-.3-3.23h0A17.57,17.57,0,0,0,31.49,42.09Z"/><path id="Tracé_24209" data-name="Tracé 24209" class="cls-1" d="M24.28,21.49c2.91-1.18,6.06-3.7,8.87-6.41V10.6c-3.06,3.25-6.81,6.66-10,8-2.56,1.05-6,3.73-9.21,7.18A50.38,50.38,0,0,0,7,35.21h3.65C15.36,27.57,21.42,22.65,24.28,21.49Z"/><path id="Union_171" data-name="Union 171" class="cls-1" d="M51.52,48.87c-.47,0-1.16,0-2,0-5.1,0-11.79-.64-14.65-3.68-.34-.36-.65-.72-1-1.08V35.78a10.13,10.13,0,0,0,3.23,7.3c1.59,1.68,6.21,2.69,12.36,2.69,1.49,0,2.49-.07,2.5-.07l.7,0L58.18,51l2.91-2.39V44.06l-5.78-8.85h3.77l5.16,7.91v6.94L58,55.19ZM33.15,43.1V35.21h.78v8.92C33.65,43.79,33.39,43.45,33.15,43.1Zm22.16-7.89-3.09-4.74-.85-5L39.45,15.22l-.34-6.58a84.45,84.45,0,0,1-6,6.44V10.6a92.93,92.93,0,0,0,6-7.11L41.79,0l.74,13.71L54.28,23.84l.93,5.46,3.86,5.91Z"/><path id="Tracé_24211" data-name="Tracé 24211" class="cls-1" d="M10.64,35.21H7a49.16,49.16,0,0,0-2.57,5.26,45.75,45.75,0,0,0-1.83,5.32,3.46,3.46,0,0,0,.89,6.81h0a3.46,3.46,0,0,0,3.47-3.46h0a3.42,3.42,0,0,0-1.29-2.69,44.85,44.85,0,0,1,1.66-4.77A46,46,0,0,1,10.64,35.21Z"/><path id="Tracé_24215" data-name="Tracé 24215" class="cls-1" d="M31.19,38.86h0a12.61,12.61,0,0,0,2,4.24V35.21h.78a27.27,27.27,0,0,1,.86-5.75l1.46-6.05-3.1,3.45h0L32.09,28c-.39.44-.75.89-1.09,1.36a15.21,15.21,0,0,0-2.59,5.82c-1.14,5.43.45,12,4.74,19.35.44.76.9,1.52,1.39,2.29a87.94,87.94,0,0,0,8.39,10.9,3.51,3.51,0,0,1,2.22-2.25c-3.87-4.34-9.17-11-12-17.92-.12-.29-.23-.59-.34-.88a26.63,26.63,0,0,1-1.32-4.61A17.57,17.57,0,0,1,31.19,38.86Z"/><path id="Tracé_24216" data-name="Tracé 24216" class="cls-1" d="M31.19,38.86a12.61,12.61,0,0,0,2,4.24h0A12.61,12.61,0,0,1,31.19,38.86Z"/><path id="Tracé_24217" data-name="Tracé 24217" class="cls-1" d="M32.81,46.7a26.63,26.63,0,0,1-1.32-4.61A26.63,26.63,0,0,0,32.81,46.7Z"/><path id="Tracé_24218" data-name="Tracé 24218" class="cls-1" d="M33.15,26.86h0L32.09,28c-.38.44-.75.89-1.08,1.36.33-.47.7-.92,1.08-1.36Z"/><path id="Tracé_24219" data-name="Tracé 24219" class="cls-1" d="M49.48,70a3.35,3.35,0,0,0,.24-1.25,3.48,3.48,0,0,0-3.47-3.47,3.37,3.37,0,0,0-1.09.18C47.17,67.76,48.8,69.38,49.48,70Z"/><path id="Tracé_24220" data-name="Tracé 24220" class="cls-1" d="M42.94,67.75a3.37,3.37,0,0,0-.16,1,3.47,3.47,0,0,0,6.53,1.63H45.42C44.71,69.69,43.86,68.79,42.94,67.75Z"/><path id="Tracé_24221" data-name="Tracé 24221" class="cls-1" d="M42.94,67.75c.92,1,1.77,1.94,2.48,2.67h3.89c.06-.12.12-.25.17-.38-.68-.66-2.31-2.27-4.33-4.54A3.47,3.47,0,0,0,42.94,67.75Z"/></g></svg>