<?xml version="1.0" encoding="utf-8"?>
<!-- Generator: Adobe Illustrator 25.4.1, SVG Export Plug-In . SVG Version: 6.00 Build 0)  -->
<svg version="1.1" id="Calque_1" xmlns="http://www.w3.org/2000/svg" xmlns:xlink="http://www.w3.org/1999/xlink" x="0px" y="0px"
	 viewBox="0 0 176.37 66.98" style="enable-background:new 0 0 176.37 66.98;" xml:space="preserve">
<style type="text/css">
	.st0{fill:#191F31;}
	.st1{fill-rule:evenodd;clip-rule:evenodd;fill:#191F31;}
	.st2{fill:#C8CBD3;}
	.st3{fill:#838BA6;}
	.st4{fill:#FFFFFF;}
	.st5{fill:#7C8DC6;}
	.st6{fill:#5F6CB1;}
	.st7{fill:#4C57A3;}
</style>
<g id="Groupe_35303" transform="translate(4145.108 -50.157)">
	<path id="Tracé_37075" class="st1" d="M-4085.22,63.53c-5.45,3.19-7.13,3.44-13.01,6.99c2.49-2.61,4.75-5.43,6.76-8.43
		c-6.39,0.27-12.75,1-19.03,2.19c6.29-2.98,12.97-5.08,19.83-6.24c-1.19-1.64-10.85-6.89-13.26-7.88
		c7.64,0.59,16.99,3.43,21.51,6.22c1.83-0.55,3.65-0.6,6.96-0.88c-0.84,1.45-0.85,2.3-4.12,4.44c0.91,2.41-1.25,15.68-3.02,19.21
		C-4082.67,73.58-4083.17,66.57-4085.22,63.53L-4085.22,63.53z"/>
	<path id="Tracé_37076" class="st1" d="M-4125.01,111.12c-2.94-1.02-5.62-2.66-7.86-4.82c0.73-2.02,1.73-3.93,2.98-5.68
		c-2.56,0.37-4.41,0.64-6.6,1.07c-1.79-3.13-2.58-6.12-3.5-10.29c-0.49,4.41-0.67,7.57-0.04,11.1c-1.74,0.45-3.44,1.05-5.08,1.78
		c2.17,1.39,4.44,2.64,6.78,3.72c1.21,2.74,2.96,5.21,5.13,7.27c-0.54-1.79-0.7-3.68-0.48-5.54
		C-4130.87,110.59-4127.95,111.05-4125.01,111.12L-4125.01,111.12z"/>
	<path id="Tracé_37077" class="st1" d="M-4116.88,66.99L-4116.88,66.99c-1.04,1.44-1.85,3.03-2.41,4.71
		c5.13,0.8,10.05,2.58,14.51,5.23c-7.07-1.25-10.76-1.09-13.38-0.86c-1.07,0.02-2.14,0.22-3.15,0.57
		c-1.9,4.12-3.02,11.28-3.02,11.29c-1.28-3.08-3.14-9.26-3.14-9.27c-3.55,1.91-11.7,9.58-11.71,9.59
		c4.49-8.99,9.03-13.11,9.04-13.11c-1.57-1.56-5.67-2.35-8.67-2.49c2.8-0.89,5.7-1.4,8.64-1.52c1.64-0.07,3.29-0.04,4.93,0.09
		C-4122.75,69.29-4119.91,67.85-4116.88,66.99L-4116.88,66.99z"/>
	<path id="Tracé_37078" class="st1" d="M-4108.36,105.55c-1.43,1.91-2.64,3.44-4.22,5.2c-2.44,0.69-4.96,1.03-7.5,1.03
		c1.53,0.79,3.17,1.36,4.87,1.68c-1.47,1.37-3.06,2.6-4.75,3.68c3.16-0.72,6.21-1.87,9.07-3.41c1.23,0.05,2.46-0.03,3.68-0.22
		c-0.23-0.84-0.41-1.44-0.61-2.51c2.3-1.8,4.46-3.76,6.48-5.87c-2.13,1.52-4.39,2.85-6.75,3.97
		C-4108.22,107.9-4108.3,106.89-4108.36,105.55L-4108.36,105.55z"/>
	<path id="Tracé_37079" class="st1" d="M-4111.91,88.1c0.11,1.18,0.18,4.1,0.18,5.18c0,0.99-0.01,4.29-0.2,5.72l-0.02,0.12h6.46
		c3.16,0,6.52-0.8,6.52-3.05c0-1.41-1.27-2.45-3.67-3.03c1.75-0.37,2.95-1.35,2.95-2.47c0-1.83-2.64-2.53-5.11-2.57l-7.13-0.01
		L-4111.91,88.1L-4111.91,88.1z M-4106.92,89.23c2.7,0.01,3.7,0.46,3.7,1.63c0,0.31-0.13,0.61-0.36,0.82
		c-0.82,0.58-1.83,0.83-2.82,0.7h-0.06l-0.74,1.56h0.75c1.23-0.12,2.46,0.23,3.44,0.98c0.29,0.25,0.45,0.62,0.46,1
		c0,1.24-1.35,1.87-4.01,1.87c-0.45,0-1.17,0-1.63-0.03c-0.1-1.63-0.1-3.85-0.1-4.5c0-0.77,0.04-2.5,0.11-3.98
		C-4107.77,89.25-4107.34,89.23-4106.92,89.23L-4106.92,89.23z"/>
	<path id="Tracé_37080" class="st1" d="M-4084.07,87.98h-3.13l0.13,2.8c0.05,1.4,0.11,2.82,0.23,4.2
		c-0.37-0.64-0.81-1.23-1.33-1.76c-0.03-0.04-3.28-4.07-4.42-5.2l-0.03-0.04h-3.65l0.01,0.11c0.11,1.17,0.18,4.1,0.18,5.19
		c0,0.98-0.01,4.29-0.2,5.71l-0.01,0.11h3.24l-0.01-0.11c-0.19-2.73-0.19-5.46-0.19-8.11v-0.01c0.18,0.45,0.44,0.86,0.77,1.21
		c0.06,0.07,5.63,6.58,5.91,6.97l0.03,0.04h2.61l-0.01-0.11c-0.2-1.43-0.21-4.73-0.21-5.71c0-1.08,0.08-4.02,0.18-5.19l0.01-0.11
		L-4084.07,87.98z"/>
	<path id="Tracé_37081" class="st1" d="M-4080.3,88.09c0.1,1.18,0.18,4.11,0.18,5.19c0,0.98-0.01,4.29-0.21,5.71l-0.01,0.11h3.87
		l-0.01-0.11c-0.14-1.02-0.19-2.97-0.2-4.48c0.16,0.01,0.71,0.03,0.71,0.03l0.54,0.02c5.1,0,7.58-1.1,7.58-3.35
		c0-2.57-3.47-3.17-6.38-3.23h-6.07L-4080.3,88.09L-4080.3,88.09z M-4075.56,89.33c1.81-0.03,3.09,0.27,3.7,0.88
		c0.27,0.26,0.42,0.63,0.41,1.01c0,1.61-2.25,1.95-4.14,1.95l-0.76-0.02c0,0-0.19-0.02-0.31-0.04c-0.01-0.37-0.02-0.85-0.02-1.41
		c0-0.71,0.01-1.52,0.05-2.3C-4076.4,89.37-4075.98,89.34-4075.56,89.33L-4075.56,89.33z"/>
	<path id="Tracé_37082" class="st1" d="M-4060.46,88.09c0.11,1.18,0.19,4.11,0.19,5.19c0,0.98-0.01,4.29-0.2,5.71l-0.02,0.11h3.87
		l-0.02-0.11c-0.13-1.02-0.18-2.97-0.2-4.48c0.16,0.01,0.7,0.03,0.7,0.03l0.55,0.02c5.1,0,7.57-1.1,7.57-3.35
		c0-2.57-3.47-3.17-6.38-3.23h-6.07L-4060.46,88.09L-4060.46,88.09z M-4055.72,89.33c1.81-0.03,3.09,0.27,3.7,0.88
		c0.27,0.26,0.42,0.63,0.42,1.01c0,1.61-2.25,1.95-4.15,1.95l-0.76-0.02c0,0-0.19-0.02-0.31-0.04c-0.01-0.37-0.02-0.86-0.02-1.41
		c0-0.71,0.01-1.52,0.05-2.3C-4056.56,89.37-4056.13,89.34-4055.72,89.33L-4055.72,89.33z"/>
	<path id="Tracé_37083" class="st1" d="M-4042.83,87.99h-0.06l-0.03,0.06c-0.72,1.58-5.35,9.67-6.07,10.9l-0.09,0.16h3.32
		l0.02-0.07c0.29-0.75,0.66-1.62,1.1-2.55l2.75-0.03l2.26,0.02c0,0,0.4,0.01,0.49,0.01c0.6,1.2,1.04,2.1,1.24,2.55l0.02,0.07h3.84
		l-6.19-11.12L-4042.83,87.99z M-4041.89,91.27c0.31,0.53,1.1,2.01,2,3.77l-0.3,0.01l-1.7,0.02c0,0-1.76-0.03-2.03-0.03
		C-4043.21,93.62-4042.5,92.35-4041.89,91.27L-4041.89,91.27z"/>
	<path id="Tracé_37084" class="st1" d="M-4032.51,88.1c0.1,1.17,0.19,4.1,0.19,5.19c0,0.98-0.02,4.29-0.21,5.71l-0.01,0.12h3.87
		l-0.01-0.11c-0.2-1.43-0.21-4.73-0.21-5.71c0-0.77,0.04-2.5,0.11-3.89c0.32-0.03,0.75-0.06,1.05-0.06
		c1.81-0.03,3.08,0.27,3.69,0.87c0.28,0.26,0.43,0.62,0.43,1c0,1.29-1.51,1.93-2.91,1.99c-0.28,0.01-0.55,0-0.83-0.03l-0.26-0.04
		l0.17,0.2c1.35,1.6,3.42,4.4,4.28,5.73l0.04,0.05h4.14l-0.12-0.17c-0.14-0.18-2.86-3.36-4.01-4.72c0,0-0.04-0.05-0.07-0.08
		c2.1-0.51,3.14-1.46,3.14-2.93c0-2.57-3.48-3.17-6.39-3.22l-6.07-0.01L-4032.51,88.1L-4032.51,88.1z"/>
	<path id="Tracé_37085" class="st1" d="M-4013.5,87.98h-3.71l0.01,0.11c0.11,1.18,0.18,4.11,0.18,5.18c0,0.98-0.01,4.28-0.2,5.71
		l-0.01,0.12h3.87l-0.02-0.12c-0.19-1.43-0.2-4.73-0.2-5.71c0-1.08,0.08-4.02,0.19-5.18l0.01-0.11H-4013.5z"/>
	<path id="Tracé_37086" class="st1" d="M-4009.89,88.1c0.1,1.17,0.18,4.1,0.18,5.18c0,0.99-0.01,4.29-0.2,5.72l-0.01,0.12h6.46
		c3.16,0,6.53-0.8,6.53-3.05c0-1.41-1.28-2.45-3.68-3.03c1.75-0.37,2.95-1.35,2.95-2.47c0-1.83-2.64-2.53-5.11-2.57l-7.12-0.01
		L-4009.89,88.1L-4009.89,88.1z M-4004.9,89.23L-4004.9,89.23c2.7,0.01,3.7,0.46,3.7,1.63c0,0.31-0.13,0.62-0.37,0.82
		c-0.82,0.58-1.82,0.83-2.82,0.7h-0.07l-0.74,1.56h0.75c1.23-0.12,2.46,0.23,3.44,0.98c0.28,0.26,0.45,0.62,0.46,1
		c0,1.24-1.34,1.87-4,1.87c-0.45,0-1.18,0-1.64-0.03c-0.09-1.63-0.1-3.85-0.1-4.5c0-0.78,0.04-2.5,0.11-3.98
		C-4005.75,89.25-4005.32,89.23-4004.9,89.23L-4004.9,89.23z"/>
	<path id="Tracé_37087" class="st1" d="M-3987.31,87.98h-2.6l-0.03,0.06c-0.76,1.68-5.66,10.21-6.07,10.91l-0.09,0.15h3.32
		l0.02-0.07c0.28-0.75,0.66-1.61,1.1-2.55c0.12,0,2.74-0.04,2.74-0.04l2.26,0.03c0,0,0.4,0.01,0.5,0.01c0.6,1.19,1.04,2.1,1.23,2.55
		l0.03,0.07h3.84l-6.19-11.12L-3987.31,87.98z M-3988.91,91.26c0.31,0.52,1.1,2.01,2,3.76c-0.14,0-0.29,0.01-0.29,0.01l-1.71,0.02
		l-2.03-0.03C-3990.23,93.61-3989.52,92.34-3988.91,91.26L-3988.91,91.26z"/>
	<path id="Tracé_37088" class="st1" d="M-3980.1,90.87c0,1.95,2.46,2.75,4.63,3.45c1.69,0.54,3.42,1.11,3.42,2.04
		c0.01,0.26-0.09,0.51-0.27,0.69c-0.75,0.47-1.66,0.65-2.53,0.5c-1.49-0.1-2.96-0.43-4.35-0.98l-0.68-0.25v2.43l0.44,0.08l0.27,0.04
		c1.29,0.27,2.6,0.42,3.92,0.45c4.08,0,6.51-1.29,6.51-3.45c0-2-2.51-2.81-4.73-3.51c-1.64-0.53-3.33-1.06-3.33-1.92
		c0-0.24,0-0.99,2.09-0.99c1.34,0.05,2.67,0.32,3.93,0.79l0.8,0.26l-0.01-0.42v-2.02l-0.79-0.11c-1.14-0.2-2.3-0.3-3.46-0.32
		C-3977.75,87.6-3980.1,88.92-3980.1,90.87L-3980.1,90.87z"/>
</g>
</svg>
