<svg id="Calque_1" data-name="Calque 1" xmlns="http://www.w3.org/2000/svg" viewBox="0 0 247.5 171.81"><defs><style>.cls-1{fill:#db4537;}.cls-2{fill:#191f31;}.cls-3{fill:#fff;}.cls-4{fill:#ff8a80;}</style></defs><g id="Groupe_34970" data-name="Groupe 34970"><g id="Groupe_20854" data-name="Groupe 20854"><g id="Groupe_20853" data-name="Groupe 20853"><g id="Groupe_20788" data-name="Groupe 20788"><path id="Tracé_21855" data-name="Tracé 21855" class="cls-1" d="M52.78,57.63,34.87,68,14.72,56.34,32.63,46Z"/><path id="Tracé_21856" data-name="Tracé 21856" class="cls-2" d="M34.87,69.06l-22-12.73L32.64,44.89l22,12.73ZM16.63,56.33,34.87,66.87l16-9.25L32.64,47.09Z"/></g><g id="Groupe_20789" data-name="Groupe 20789"><path id="Tracé_21857" data-name="Tracé 21857" class="cls-3" d="M44.72,45.77,64.87,57.4,47,67.75,26.81,56.11Z"/><path id="Tracé_21858" data-name="Tracé 21858" class="cls-2" d="M47,68.83,26.33,56.93l1-1.65L47,66.64l16-9.25L44.25,46.59l1-1.65L66.78,57.39Z"/></g><g id="Groupe_20839" data-name="Groupe 20839"><g id="Groupe_20790" data-name="Groupe 20790"><path id="Tracé_21859" data-name="Tracé 21859" class="cls-3" d="M246.76,110.77a5.39,5.39,0,0,0-2.41-4.2L179.81,69.32l-.78.18c-5.76,1.34-10.14-5.17-10.6-5.88l-.86-1.37L103,25a1.68,1.68,0,0,0-1.74-.15L2.79,82.59l70.92,44.76,71.91,43.58,100.2-58.49A1.55,1.55,0,0,0,246.76,110.77Z"/><path id="Tracé_21860" data-name="Tracé 21860" class="cls-2" d="M145.62,171.77l-.38-.23L73.33,128,1.38,82.56l99.55-58.34a2.4,2.4,0,0,1,2.48.14L168.1,61.71l1,1.52c.44.7,4.54,6.79,9.8,5.57l1.07-.25L244.71,106a6.09,6.09,0,0,1,2.78,4.83,2.29,2.29,0,0,1-1.37,2.32ZM4.19,82.6l69.9,44.11,71.53,43.36,99.89-58.32.08,0c.4-.13.43-.72.43-1a4.63,4.63,0,0,0-2.05-3.56L179.69,70.1l-.5.12c-6.25,1.45-10.87-5.42-11.38-6.21L167,62.79,102.67,25.62a1,1,0,0,0-1-.16Z"/></g><g id="Groupe_20791" data-name="Groupe 20791"><path id="Tracé_21861" data-name="Tracé 21861" class="cls-2" d="M142.56,169.07l3.06,1.85,100.2-58.46a1.55,1.55,0,0,0,.94-1.65c0-1.54.42-1.52-.92-2.29l-100.5,58.59Z"/></g><g id="Groupe_20792" data-name="Groupe 20792"><path id="Tracé_21862" data-name="Tracé 21862" class="cls-3" d="M173.14,63.88c-3-6.19-12.83-24.09-28.84-33.24-21.24-12.12-22.19-3.2-37.92-14.28h0L11,71.75v0L77,120.47h0l95.42-55.4C173.18,65.49,173.58,64.78,173.14,63.88Z"/><path id="Tracé_21863" data-name="Tracé 21863" class="cls-2" d="M77.08,121.56l-.62-.31L10,72.25l0-1,.44-.27,95.85-55.65.48.23a31.31,31.31,0,0,0,16.48,6.64c5,.69,10.62,1.46,21.48,7.67,16,9.13,25.77,26.56,29.22,33.64h0a1.94,1.94,0,0,1-.2,2.31,1.39,1.39,0,0,1-1.23.35ZM12.67,71.85l64.42,47.5,95.1-55.22c-2.75-5.6-12.56-23.63-28.37-32.65-10.55-6-16-6.78-20.8-7.44a32.13,32.13,0,0,1-16.7-6.56Z"/></g><g id="Groupe_20793" data-name="Groupe 20793"><path id="Tracé_21864" data-name="Tracé 21864" class="cls-1" d="M113,20.48a44.47,44.47,0,0,1-6.7-4h0L10.9,71.87v0L27.3,84l1.59-.93L17.33,76.62v0Z"/><path id="Tracé_21865" data-name="Tracé 21865" class="cls-2" d="M27.23,85.11,9.92,72.35l.05-1,.46-.27,96-55.72.53.43a44.52,44.52,0,0,0,6.5,3.89l-.82,1.71a46,46,0,0,1-6.35-3.75L12.62,72l5.18,3.83h0l13,7.24Z"/></g><g id="Groupe_20799" data-name="Groupe 20799"><g id="Groupe_20794" data-name="Groupe 20794"><path id="Tracé_21866" data-name="Tracé 21866" class="cls-1" d="M8.73,81h0L77,120.49c.71.41,1.11-.3.67-1.2-3-6.19-12.82-24.09-28.84-33.23C27.62,73.93,26.67,82.85,11,71.77h0Z"/><path id="Tracé_21867" data-name="Tracé 21867" class="cls-2" d="M77.42,121.56a1.65,1.65,0,0,1-.86-.25L7.66,81.53l.15-.72,2.33-9.72.95-.41.45.33a31,31,0,0,0,16.33,6.55c5,.69,10.62,1.46,21.48,7.67,16,9.13,25.76,26.57,29.23,33.64a2,2,0,0,1-.2,2.32A1.42,1.42,0,0,1,77.42,121.56Zm-67.61-41,66.75,38.54c-3.62-7.26-13.06-23.61-28.17-32.23-10.54-6-16-6.78-20.79-7.44a31.84,31.84,0,0,1-16-6.11Z"/></g><g id="Groupe_20795" data-name="Groupe 20795"><path id="Tracé_21868" data-name="Tracé 21868" class="cls-2" d="M74.55,119.79c-19.11-33.24-38-34.95-46.12-35.68A35.57,35.57,0,0,1,9.67,75.55l1-1.07a34.63,34.63,0,0,0,17.9,8.16c8.31.75,27.77,2.52,47.26,36.41Z"/></g><g id="Groupe_20796" data-name="Groupe 20796"><path id="Tracé_21869" data-name="Tracé 21869" class="cls-2" d="M69.83,117.07c-15.47-25-28.87-27-38.65-28.43-1.39-.22-2.7-.41-3.94-.66-10-2-17.76-10.09-18.09-10.43l1.06-1c.08.08,7.78,8.08,17.32,10,1.2.24,2.5.42,3.87.64,10.06,1.5,23.84,3.56,39.67,29.11Z"/></g><g id="Groupe_20797" data-name="Groupe 20797"><path id="Tracé_21870" data-name="Tracé 21870" class="cls-2" d="M64,113.69c-6.2-10.18-13.83-16.78-22.06-19.06-8-2.24-18.5-4.34-18.6-4.36l.29-1.44c.1,0,10.6,2.13,18.7,4.39,8.6,2.38,16.53,9.2,22.92,19.71Z"/></g><g id="Groupe_20798" data-name="Groupe 20798"><path id="Tracé_21871" data-name="Tracé 21871" class="cls-2" d="M57.85,110.16a36.46,36.46,0,0,0-10.06-9.43,41.75,41.75,0,0,0-14.62-4.8l.16-1.46a42.59,42.59,0,0,1,15.23,5,37.27,37.27,0,0,1,10.51,9.86Z"/></g></g><g id="Groupe_20801" data-name="Groupe 20801"><g id="Groupe_20800" data-name="Groupe 20800"><path id="Tracé_21872" data-name="Tracé 21872" class="cls-1" d="M73.85,132.48A27.9,27.9,0,0,1,65.76,125L3.4,89A5.32,5.32,0,0,1,1,84.76H1c0-1.55,1.09-2.17,2.43-1.4l64.53,37.26.85,1.36c.46.72,4.85,7.22,10.6,5.88l.79-.18,64.53,37.26a5.34,5.34,0,0,1,2.42,4.19h0c0,1.54-1.08,2.17-2.42,1.4L82,134.35A12.61,12.61,0,0,1,73.85,132.48Z"/><path id="Tracé_21873" data-name="Tracé 21873" class="cls-2" d="M145.78,171.81a3.17,3.17,0,0,1-1.56-.45l-62.39-36a13.69,13.69,0,0,1-8.46-2h0a29.33,29.33,0,0,1-8.26-7.63L2.92,89.78a6.35,6.35,0,0,1-2.9-5,2.4,2.4,0,0,1,3.85-2.22l64.74,37.37,1,1.57c.43.67,4.46,6.63,9.58,5.46l1.14-.27.33.19,64.54,37.26a6.32,6.32,0,0,1,2.9,5,2.64,2.64,0,0,1-1.19,2.39A2.07,2.07,0,0,1,145.78,171.81ZM82.21,133.36l63,36.35c.39.21.64.23.76.17s.23-.3.23-.74a4.44,4.44,0,0,0-1.94-3.37L80,128.7l-.42.09c-6.38,1.5-11.09-5.49-11.61-6.28l-.74-1.18L2.92,84.18C2.53,84,2.27,84,2.16,84s-.24.29-.24.74a4.48,4.48,0,0,0,2,3.37l62.54,36.1.12.16a27.28,27.28,0,0,0,7.79,7.27h0a11.67,11.67,0,0,0,7.57,1.75Z"/></g></g><g id="Groupe_20802" data-name="Groupe 20802"><path id="Tracé_21874" data-name="Tracé 21874" class="cls-1" d="M78.08,119.5a13.08,13.08,0,0,1,5.5-6.94Z"/><path id="Tracé_21875" data-name="Tracé 21875" class="cls-2" d="M79,119.77l-1.83-.53a14,14,0,0,1,5.94-7.49l1,1.64A12.15,12.15,0,0,0,79,119.77Z"/></g><g id="Groupe_20803" data-name="Groupe 20803"><path id="Tracé_21876" data-name="Tracé 21876" class="cls-1" d="M240.27,93.67v0L238,92.56c-13.61-7-15.49-16.63-35.66-28.4-15.79-9.22-25.54-2.95-28.71-.19l-.5-.09L82.48,113.31h0s-4.46,3.46-4.2,7.17h0l60,27.36h0l8.81,13.05h0l95.41-55.4h0Z"/><path id="Tracé_21877" data-name="Tracé 21877" class="cls-2" d="M146.83,162.16l-.53-.69-8.7-12.87L77.32,121.1v-.63c-.28-4.1,4.38-7.77,4.58-7.91l.13-.09,91-49.58.39.07c3.85-3.19,13.8-8.75,29.46.39a92.29,92.29,0,0,1,21.34,17,52.53,52.53,0,0,0,14.27,11.37l2.79,1.34v.52L243.56,106l-.56.36ZM79.21,119.87l59.72,27.25.15.31,8.27,12.22L241.43,105l-2-10.71-1.84-.89A54.38,54.38,0,0,1,222.8,81.69,90.31,90.31,0,0,0,201.86,65c-15.1-8.82-24.34-3.15-27.6-.3l-.35.3-.62-.12L83,114.1a10.28,10.28,0,0,0-3.78,5.77Z"/></g><g id="Groupe_20804" data-name="Groupe 20804"><path id="Tracé_21878" data-name="Tracé 21878" class="cls-3" d="M138.18,145.83h0l-.4,2.19.17.08,1.32,2h0l5.28-.73h0L240,93.92v0l-6.6-4.12h0Z"/><path id="Tracé_21879" data-name="Tracé 21879" class="cls-2" d="M138.73,151.1l-.32-.62-1.1-1.62-.6-.27.6-3.32.34-.23,1.06,1.58-.53-.79.89.31-.27,1.54.92,1.36,4.52-.64,93.89-54.52-5.28-3.3.5-.8-.54-.8h1.07l7,4.39v1.09l-.49.29L144.8,150.27h-.26Z"/></g><g id="Groupe_20805" data-name="Groupe 20805"><path id="Tracé_21880" data-name="Tracé 21880" class="cls-2" d="M144.85,149.06l95.39-55.39h0l2.21,11.82h0l-95.4,55.39h0l-2.22-11.81Z"/><path id="Tracé_21881" data-name="Tracé 21881" class="cls-2" d="M147.12,162l-.92-.44-.08-.51-2.34-12.48.61-.32,95.82-55.64.92.45.08.51L243.54,106l-.56.36Zm-1.22-12.42,1.85,9.86L241.43,105l-1.85-9.86Z"/></g><g id="Groupe_20809" data-name="Groupe 20809"><g id="Groupe_20806" data-name="Groupe 20806"><rect id="Rectangle_7831" data-name="Rectangle 7831" class="cls-1" x="140.82" y="127.43" width="105.53" height="0.73" transform="translate(-37.95 113.71) rotate(-29.95)"/></g><g id="Groupe_20807" data-name="Groupe 20807"><rect id="Rectangle_7832" data-name="Rectangle 7832" class="cls-1" x="141.13" y="131.16" width="105.53" height="0.73" transform="translate(-39.77 114.37) rotate(-29.95)"/></g><g id="Groupe_20808" data-name="Groupe 20808"><rect id="Rectangle_7833" data-name="Rectangle 7833" class="cls-1" x="140.02" y="124.14" width="105.53" height="0.73" transform="translate(-36.41 112.88) rotate(-29.95)"/></g></g><g id="Groupe_20812" data-name="Groupe 20812"><g id="Groupe_20810" data-name="Groupe 20810"><path id="Tracé_21882" data-name="Tracé 21882" class="cls-3" d="M47,92.76l-6.54,3.72a9.3,9.3,0,0,0-4.1,4.83,12.44,12.44,0,0,1-5.59,6.51l-13.32,7.71a.33.33,0,0,0-.12.45.35.35,0,0,0,.28.17l6.54,0a.38.38,0,0,1,.37.31l.82,4.31a.33.33,0,0,0,.4.26.16.16,0,0,0,.09,0l13.4-7.58a12.46,12.46,0,0,0,5.84-6.79l.13-.37a9.22,9.22,0,0,1,4.34-5l5.46-3a.21.21,0,0,0,.08-.29l0-.06-1.53-1.1a58.21,58.21,0,0,0-5.11-3.27Z"/><path id="Tracé_21883" data-name="Tracé 21883" class="cls-2" d="M25.66,122.05a1.27,1.27,0,0,1-1.26-1l-.74-3.85-6.06,0a1.28,1.28,0,0,1-.62-2.4l13.3-7.7a11.5,11.5,0,0,0,5.18-6A10.32,10.32,0,0,1,40,95.66l7-4,1.86,1.06A56.35,56.35,0,0,1,54,96.06l1.53,1.1a1.17,1.17,0,0,1,.27,1.62,1.12,1.12,0,0,1-.38.34l-5.47,3a8.33,8.33,0,0,0-3.91,4.53L46,107a13.42,13.42,0,0,1-6.29,7.31l-13.38,7.58A1.26,1.26,0,0,1,25.66,122.05Zm-5.78-6.83,4.28,0a1.32,1.32,0,0,1,1.28,1.07l.66,3.46,12.64-7.15a11.49,11.49,0,0,0,5.42-6.29l.13-.37a10.15,10.15,0,0,1,4.79-5.56L53.49,98l-.56-.41a56.31,56.31,0,0,0-5-3.21L47,93.86l-6.06,3.45a8.32,8.32,0,0,0-3.68,4.33,13.39,13.39,0,0,1-6,7Z"/></g><g id="Groupe_20811" data-name="Groupe 20811"><path id="Tracé_21884" data-name="Tracé 21884" class="cls-2" d="M34.44,114.93l-2.51-1.5,1-1.63,2.51,1.5Zm-3.77-2.25-2.51-1.5,1-1.63,2.51,1.5Z"/></g></g><g id="Groupe_20813" data-name="Groupe 20813"><rect id="Rectangle_7834" data-name="Rectangle 7834" class="cls-2" x="67.57" y="118.54" width="5.4" height="1.46" transform="translate(-50.07 50.85) rotate(-29.87)"/></g><g id="Groupe_20814" data-name="Groupe 20814"><rect id="Rectangle_7835" data-name="Rectangle 7835" class="cls-2" x="79.82" y="125.72" width="5.05" height="1.46" transform="translate(-52.5 58.71) rotate(-30.26)"/></g><g id="Groupe_20815" data-name="Groupe 20815"><path id="Tracé_21885" data-name="Tracé 21885" class="cls-2" d="M71.56,118.54a14.18,14.18,0,0,0,12.2,7.1l1.59-1-12.67-7Z"/></g><g id="Groupe_20816" data-name="Groupe 20816"><path id="Tracé_21886" data-name="Tracé 21886" class="cls-2" d="M227.37,84.78c-6.14-5.83-11.44-12.78-25-20.69-15.79-9.22-25.53-3-28.7-.19l-.5-.09L82.48,113.24s-4.47,3.45-4.2,7.18l39.41,18,6.44-6s9,7.1,18.75,1.41Z"/><path id="Tracé_21887" data-name="Tracé 21887" class="cls-2" d="M117.87,139.53,77.37,121l0-.56c-.3-4.18,4.37-7.85,4.56-8l.13-.09,91-49.58.4.07c3.85-3.19,13.8-8.75,29.45.39a92.35,92.35,0,0,1,21.35,17c1.3,1.33,2.55,2.6,3.85,3.82L229,85l-85.59,49.7a18.23,18.23,0,0,1-19.14-1ZM79.22,119.8l38.28,17.47,6.57-6.09.64.5c.35.27,8.59,6.63,17.68,1.34l83.4-48.43c-1-1-2-2-3-3a90.52,90.52,0,0,0-20.94-16.69c-15.1-8.82-24.34-3.14-27.6-.3l-.35.3-.62-.12L83,114A10.32,10.32,0,0,0,79.22,119.8Z"/></g><g id="Groupe_20817" data-name="Groupe 20817"><path id="Tracé_21888" data-name="Tracé 21888" class="cls-3" d="M197.9,56.84c-9.11-3.88-15.27-2.21-19.16.48l-93.5,54.27a16.15,16.15,0,0,0-1.8,1l.13-.07-.13.08,4.84-2.16h0a22,22,0,0,1,14.19,1.78c18.45,7.86,27.83,24.72,40.38,21.67h0L238.2,78.57v0C225.69,81.49,216.32,64.69,197.9,56.84Z"/><path id="Tracé_21889" data-name="Tracé 21889" class="cls-2" d="M139.86,135.24c-6.39,0-12.13-4.57-18.64-9.74a83.2,83.2,0,0,0-19.12-12.38,21.33,21.33,0,0,0-13.48-1.75l-.13,0-4.65,2.08-.92-1.66a15,15,0,0,1,1.91-1.1L178.27,56.5c3.66-2.53,10.17-4.72,20-.53a84.83,84.83,0,0,1,19.56,12.64c7.45,5.93,13.35,10.61,20.15,9l.8-.19L239.4,79l-.7.43-95.48,55.43-.14,0A14.47,14.47,0,0,1,139.86,135.24ZM92.48,109a26.52,26.52,0,0,1,10.37,2.36A84.83,84.83,0,0,1,122.41,124c7.43,5.91,13.31,10.59,20.1,9L234.2,79.78c-5.95-.47-11.41-4.81-17.54-9.69a83.75,83.75,0,0,0-19.12-12.38c-7.26-3.09-13.4-3-18.25.39L91.56,109h.92Z"/></g><g id="Groupe_20818" data-name="Groupe 20818"><path id="Tracé_21890" data-name="Tracé 21890" class="cls-1" d="M196.09,56.16c-8.21-3-13.85-1.38-17.5,1.14l-93.5,54.27a15.3,15.3,0,0,0-1.8,1l.12-.07-.12.07,4.84-2.16h0a21.91,21.91,0,0,1,14.18,1.78,67,67,0,0,1,13.76,8.17l.08-.05a66.31,66.31,0,0,0-13.68-8.13c-.73-.32-1.44-.59-2.14-.83h0Z"/><path id="Tracé_21891" data-name="Tracé 21891" class="cls-2" d="M116.09,121.49l-.59-.33A67.15,67.15,0,0,0,102,113.1a21.39,21.39,0,0,0-13.5-1.75l-4.76,2.13-.92-1.66a15.63,15.63,0,0,1,1.9-1.1l93.44-54.24c3.39-2.34,9.37-4.49,18.31-1.21l-.66,1.79c-6.56-2.41-12.16-2.07-16.63,1L91.4,109a24.46,24.46,0,0,1,9.24,1.53l0-.05c.71.25,1.44.53,2.2.86a68.56,68.56,0,0,1,13.87,8.23l1.17.86Z"/></g><g id="Groupe_20832" data-name="Groupe 20832"><g id="Groupe_20819" data-name="Groupe 20819"><path id="Tracé_21892" data-name="Tracé 21892" class="cls-2" d="M119.43,83.3c0-.07-2.53-7-15.67-18.9A59.15,59.15,0,0,0,73.2,50.69l.13-1.46a60.72,60.72,0,0,1,31.41,14.09c13.48,12.23,16,19.21,16.08,19.5Z"/></g><g id="Groupe_20820" data-name="Groupe 20820"><path id="Tracé_21893" data-name="Tracé 21893" class="cls-2" d="M126.15,79.87c0-.06-2.53-7-15.68-18.89A59.12,59.12,0,0,0,79.92,47.27l.13-1.45a60.69,60.69,0,0,1,31.41,14.07c13.48,12.24,16,19.22,16.08,19.5Z"/></g><g id="Groupe_20821" data-name="Groupe 20821"><path id="Tracé_21894" data-name="Tracé 21894" class="cls-2" d="M131.68,76.37c0-.07-2.53-7-15.68-18.9a39.72,39.72,0,0,0-7.42-5.54l.73-1.27A41.72,41.72,0,0,1,117,56.39c13.48,12.24,16,19.21,16.07,19.5Z"/></g><g id="Groupe_20822" data-name="Groupe 20822"><path id="Tracé_21895" data-name="Tracé 21895" class="cls-2" d="M137.28,72.89c0-.06-2.54-7-15.68-18.89a49.66,49.66,0,0,0-6.67-5.07l.79-1.24a50.43,50.43,0,0,1,6.86,5.22c13.49,12.24,16,19.22,16.08,19.5Z"/></g><g id="Groupe_20823" data-name="Groupe 20823"><path id="Tracé_21896" data-name="Tracé 21896" class="cls-2" d="M142.81,69.39c0-.07-2.54-7-15.68-18.9a49.87,49.87,0,0,0-6.83-5.18l.78-1.23a50.59,50.59,0,0,1,7,5.32c13.48,12.24,16,19.21,16.08,19.5Z"/></g><g id="Groupe_20824" data-name="Groupe 20824"><path id="Tracé_21897" data-name="Tracé 21897" class="cls-2" d="M149.53,66c0-.06-2.54-7-15.68-18.89a50.65,50.65,0,0,0-6.46-4.94l.79-1.23A51.27,51.27,0,0,1,134.83,46c13.48,12.24,16,19.22,16.08,19.5Z"/></g><g id="Groupe_20825" data-name="Groupe 20825"><path id="Tracé_21898" data-name="Tracé 21898" class="cls-2" d="M155.06,62.45c0-.06-2.54-7-15.68-18.89a50.47,50.47,0,0,0-6.77-5.14l.78-1.24a51.14,51.14,0,0,1,7,5.29c13.48,12.24,16,19.22,16.08,19.5Z"/></g><g id="Groupe_20826" data-name="Groupe 20826"><path id="Tracé_21899" data-name="Tracé 21899" class="cls-2" d="M143.54,124.48c-5.06,0-11.43-5-17.61-10.16a72.2,72.2,0,0,0-6.67-5l.82-1.22a77,77,0,0,1,6.8,5.12c6.86,5.78,13.94,11.26,18.54,9.49l.53,1.36A6.63,6.63,0,0,1,143.54,124.48Z"/></g><g id="Groupe_20827" data-name="Groupe 20827"><path id="Tracé_21900" data-name="Tracé 21900" class="cls-2" d="M149.92,120.77c-5.06,0-11.43-5-17.6-10.16a76,76,0,0,0-6.91-5.19l.8-1.22a75.78,75.78,0,0,1,7,5.29c6.86,5.78,13.93,11.27,18.54,9.48l.53,1.37A6.63,6.63,0,0,1,149.92,120.77Z"/></g><g id="Groupe_20828" data-name="Groupe 20828"><path id="Tracé_21901" data-name="Tracé 21901" class="cls-2" d="M156.3,117.06c-5.05,0-11.43-5-17.6-10.17a77.4,77.4,0,0,0-6.43-4.86l.82-1.22a75.17,75.17,0,0,1,6.55,5c6.86,5.77,13.94,11.26,18.54,9.48l.53,1.37A6.8,6.8,0,0,1,156.3,117.06Z"/></g><g id="Groupe_20829" data-name="Groupe 20829"><path id="Tracé_21902" data-name="Tracé 21902" class="cls-2" d="M162.33,113.13c-5.05,0-11.43-5-17.6-10.16a53.72,53.72,0,0,0-17.19-10.46l.4-1.41c.31.09,7.65,2.26,17.73,10.75,6.85,5.78,13.94,11.27,18.54,9.48l.52,1.37A6.54,6.54,0,0,1,162.33,113.13Z"/></g><g id="Groupe_20830" data-name="Groupe 20830"><path id="Tracé_21903" data-name="Tracé 21903" class="cls-2" d="M168.72,109.41c-5.06,0-11.44-5-17.61-10.16a53.72,53.72,0,0,0-17.19-10.46l.4-1.41c.31.09,7.65,2.26,17.73,10.75,6.86,5.78,13.94,11.27,18.54,9.49l.53,1.36A6.57,6.57,0,0,1,168.72,109.41Z"/></g><g id="Groupe_20831" data-name="Groupe 20831"><path id="Tracé_21904" data-name="Tracé 21904" class="cls-2" d="M175.42,105.71c-5,0-11.43-5-17.61-10.17-9.82-8.26-17.12-10.43-17.19-10.45l.41-1.41c.3.09,7.64,2.25,17.73,10.74,6.86,5.78,14,11.28,18.53,9.49l.53,1.36A6.34,6.34,0,0,1,175.42,105.71Z"/></g></g><g id="Groupe_20838" data-name="Groupe 20838"><g id="Groupe_20833" data-name="Groupe 20833"><path id="Tracé_21905" data-name="Tracé 21905" class="cls-1" d="M147.05,160.88l0,0L78.75,121.48c-.72-.41-1.12-1.59-.68-2,3-2.7,12.84-9.27,28.85.07,21.24,12.4,22.19,22.42,37.91,29.5h0Z"/><path id="Tracé_21906" data-name="Tracé 21906" class="cls-2" d="M147.08,162l-.55-.33L78.26,122.3a2.85,2.85,0,0,1-1.32-2.08,1.66,1.66,0,0,1,.49-1.43c2.78-2.48,13.19-9.82,30,0a91.81,91.81,0,0,1,21.33,17,50.44,50.44,0,0,0,16.49,12.44l.39.17.14.41,2.37,12.52ZM78.86,120.09a1,1,0,0,0,.37.57l66.52,38.4L144,149.73a52.18,52.18,0,0,1-16.62-12.63,90.62,90.62,0,0,0-20.94-16.7c-15-8.76-24.2-3.26-27.58-.32Z"/></g><g id="Groupe_20834" data-name="Groupe 20834"><path id="Tracé_21907" data-name="Tracé 21907" class="cls-2" d="M145.45,153.93c-.33-.07-8.37-2-18.7-13-8.07-8.6-27-28.72-45.79-17.75l-.73-1.26c19.81-11.57,39.28,9.16,47.6,18,10,10.62,17.88,12.57,18,12.59Z"/></g><g id="Groupe_20835" data-name="Groupe 20835"><path id="Tracé_21908" data-name="Tracé 21908" class="cls-2" d="M146,156.55c-.33,0-8.18-.94-18.13-10.42-1.23-1.17-2.54-2.49-3.92-3.88-9.77-9.82-23.14-23.28-38.34-16.3L85,124.63c16.12-7.41,29.91,6.46,40,16.59,1.38,1.39,2.68,2.69,3.89,3.85,9.55,9.1,17.2,10,17.27,10Z"/></g><g id="Groupe_20836" data-name="Groupe 20836"><path id="Tracé_21909" data-name="Tracé 21909" class="cls-2" d="M131.83,152.94c-.11-.1-10.57-10.08-18.64-17.15s-15.67-9.4-21.69-6.48L90.86,128c6.59-3.21,14.64-.9,23.3,6.68,8.09,7.09,18.58,17.1,18.68,17.2Z"/></g><g id="Groupe_20837" data-name="Groupe 20837"><path id="Tracé_21910" data-name="Tracé 21910" class="cls-2" d="M122,147.27c-.09-.08-8.47-8.77-14.76-12.18-6-3.29-9.67-2.2-9.7-2.19l-.46-1.39c.17,0,4.21-1.34,10.87,2.29,6.48,3.53,14.76,12.1,15.1,12.45Z"/></g></g></g><g id="Groupe_20840" data-name="Groupe 20840"><path id="Tracé_21911" data-name="Tracé 21911" class="cls-3" d="M206.55,120.57l-17.91,10.35L176,123.59l17.73-10.44Z"/><path id="Tracé_21912" data-name="Tracé 21912" class="cls-2" d="M188.63,132l-14.57-8.41L193.68,112l14.77,8.53Zm-10.8-8.43,10.8,6.23,16-9.24-10.95-6.33Z"/></g><g id="Groupe_20841" data-name="Groupe 20841"><path id="Tracé_21913" data-name="Tracé 21913" class="cls-1" d="M190.27,123.46l-7.06-4.1,17.73-10.44,7.25,4.19Z"/><path id="Tracé_21914" data-name="Tracé 21914" class="cls-2" d="M189.79,124.28l-8.48-4.91,19.62-11.55,7.73,4.47-1,1.65L200.94,110l-15.85,9.34,5.66,3.27Z"/></g><g id="Groupe_20852" data-name="Groupe 20852"><g id="Groupe_20842" data-name="Groupe 20842"><path id="Tracé_21915" data-name="Tracé 21915" class="cls-3" d="M73.75,81.05l-6.21,3.58a5.85,5.85,0,0,1-5.28-.22l-5.44-3.13c-1.56-.91-1.73-2.27-.38-3l6.21-3.58a5.88,5.88,0,0,1,5.28.21L73.37,78C74.93,78.9,75.09,80.26,73.75,81.05Z"/><path id="Tracé_21916" data-name="Tracé 21916" class="cls-2" d="M65.25,85.88A6.67,6.67,0,0,1,61.9,85L56.47,81.9a2.85,2.85,0,0,1-1.66-2.35,2.24,2.24,0,0,1,1.28-2L62.29,74a6.6,6.6,0,0,1,6,.21l5.44,3.14a2.88,2.88,0,0,1,1.66,2.35,2.27,2.27,0,0,1-1.28,2l-6.21,3.58A5.35,5.35,0,0,1,65.25,85.88Zm-.32-11a3.86,3.86,0,0,0-1.92.43l-6.2,3.58c-.2.11-.55.36-.55.68s.36.76.92,1.09l5.44,3.14a5.13,5.13,0,0,0,4.55.22l6.2-3.58c.2-.11.55-.37.55-.69S73.56,79,73,78.63l-5.44-3.14a5.46,5.46,0,0,0-2.62-.64Z"/></g><g id="Groupe_20845" data-name="Groupe 20845"><g id="Groupe_20843" data-name="Groupe 20843"><path id="Tracé_21917" data-name="Tracé 21917" class="cls-3" d="M113.54,38.12l-4.14,2.39a3.89,3.89,0,0,1-3.53-.14l-3.63-2.1c-1-.6-1.16-1.52-.25-2l4.13-2.39a3.92,3.92,0,0,1,3.53.15l3.64,2.1C114.33,36.69,114.44,37.6,113.54,38.12Z"/><path id="Tracé_21918" data-name="Tracé 21918" class="cls-2" d="M107.86,41.6a4.83,4.83,0,0,1-2.35-.6l-3.64-2.1a2.15,2.15,0,0,1-1.23-1.78,1.76,1.76,0,0,1,1-1.52l4.14-2.39a4.68,4.68,0,0,1,4.26.14l3.64,2.1a2.2,2.2,0,0,1,1.23,1.78,1.8,1.8,0,0,1-1,1.53l-4.14,2.38A3.85,3.85,0,0,1,107.86,41.6Zm-.21-7.38a2.46,2.46,0,0,0-1.16.26l-4.14,2.38c-.17.1-.25.2-.25.26s.14.31.5.51l3.64,2.1a3.19,3.19,0,0,0,2.78.15l4.14-2.39.37.64-.37-.64c.17-.1.25-.2.25-.25s-.14-.31-.5-.52l-3.64-2.1a3.53,3.53,0,0,0-1.62-.4Z"/></g><g id="Groupe_20844" data-name="Groupe 20844"><path id="Tracé_21919" data-name="Tracé 21919" class="cls-1" d="M104.05,38l-1.93,1.1a1.8,1.8,0,0,1-1.63-.06l-1.68-1c-.48-.28-.54-.7-.12-.94L100.62,36a1.8,1.8,0,0,1,1.63.06l1.68,1C104.41,37.31,104.46,37.73,104.05,38Z"/><path id="Tracé_21920" data-name="Tracé 21920" class="cls-2" d="M101.42,40a2.55,2.55,0,0,1-1.29-.32l-1.68-1a1.39,1.39,0,0,1-.77-1.17,1.24,1.24,0,0,1,.64-1l1.92-1.1a2.58,2.58,0,0,1,2.37.07l1.68,1a1.39,1.39,0,0,1,.77,1.17,1.21,1.21,0,0,1-.64,1h0l-1.93,1.11A2.11,2.11,0,0,1,101.42,40Zm-2-2.44,1.45.85a1.13,1.13,0,0,0,.9.07l1.57-.9-1.45-.86a1.17,1.17,0,0,0-.9-.07Zm4.64.44-.36-.64h0l.36.64-.36-.64Z"/></g></g><g id="Groupe_20846" data-name="Groupe 20846"><ellipse id="Ellipse_220" data-name="Ellipse 220" class="cls-3" cx="186.68" cy="72.12" rx="8.44" ry="4.87"/><path id="Tracé_21921" data-name="Tracé 21921" class="cls-2" d="M186.68,77.74a12.87,12.87,0,0,1-6.34-1.54,4.36,4.36,0,0,1,0-8.16A13.88,13.88,0,0,1,193,68h0a4.35,4.35,0,0,1,0,8.16A12.81,12.81,0,0,1,186.68,77.74Zm0-9.77a11.5,11.5,0,0,0-5.6,1.35,2.93,2.93,0,0,0,0,5.62,12.41,12.41,0,0,0,11.2,0,2.93,2.93,0,0,0,0-5.62h0A11.5,11.5,0,0,0,186.68,68Z"/></g><g id="Groupe_20847" data-name="Groupe 20847"><path id="Tracé_21922" data-name="Tracé 21922" class="cls-3" d="M214.18,79.08a1.42,1.42,0,0,1,.9,1.8,1.39,1.39,0,0,1-.9.9,5.13,5.13,0,0,1-4.67,0,1.42,1.42,0,0,1,0-2.7A5.19,5.19,0,0,1,214.18,79.08Z"/><path id="Tracé_21923" data-name="Tracé 21923" class="cls-2" d="M211.85,83.07a5.5,5.5,0,0,1-2.7-.65A2.14,2.14,0,0,1,208,79.63a2.11,2.11,0,0,1,1.18-1.18,5.87,5.87,0,0,1,5.41,0h0a2.15,2.15,0,0,1,1.18,2.79,2.2,2.2,0,0,1-1.18,1.18A5.59,5.59,0,0,1,211.85,83.07Zm0-3.81a4,4,0,0,0-2,.46c-.37.21-.6.48-.6.71s.23.5.6.72a4.43,4.43,0,0,0,3.95,0c.38-.21.6-.48.6-.72s-.21-.5-.6-.71a4.12,4.12,0,0,0-2-.47Z"/></g><g id="Groupe_20848" data-name="Groupe 20848"><path id="Tracé_21924" data-name="Tracé 21924" class="cls-3" d="M67.44,83.84a1.44,1.44,0,0,1,.89,1.81,1.41,1.41,0,0,1-.89.89,5.15,5.15,0,0,1-4.68,0,1.41,1.41,0,0,1-.9-1.79,1.45,1.45,0,0,1,.9-.91A5.21,5.21,0,0,1,67.44,83.84Z"/><path id="Tracé_21925" data-name="Tracé 21925" class="cls-2" d="M65.1,87.84a5.53,5.53,0,0,1-2.7-.66,2.14,2.14,0,0,1-1.19-2.78,2.11,2.11,0,0,1,1.19-1.19,5.87,5.87,0,0,1,5.41,0h0A2.14,2.14,0,0,1,69,86a2.17,2.17,0,0,1-1.19,1.19A5.57,5.57,0,0,1,65.1,87.84Zm0-3.83a4.06,4.06,0,0,0-2,.47c-.38.21-.6.48-.6.71s.22.5.6.72a4.41,4.41,0,0,0,3.94,0c.38-.21.6-.48.6-.71s-.22-.5-.6-.72h0a4.06,4.06,0,0,0-2-.47Z"/></g><g id="Groupe_20851" data-name="Groupe 20851"><g id="Groupe_20849" data-name="Groupe 20849"><path id="Tracé_21926" data-name="Tracé 21926" class="cls-1" d="M99.48,80.85a2.48,2.48,0,0,1-1.13,4.57,9,9,0,0,1-7.92-2A2.5,2.5,0,0,1,89.68,80a2.52,2.52,0,0,1,1.88-1.14A9,9,0,0,1,99.48,80.85Z"/><path id="Tracé_21927" data-name="Tracé 21927" class="cls-2" d="M96.41,86.41A9.78,9.78,0,0,1,89.92,84a3.21,3.21,0,0,1,1.43-5.81A9.69,9.69,0,0,1,100,80.32a3.21,3.21,0,0,1-1.44,5.81A8.17,8.17,0,0,1,96.41,86.41Zm-3-7a6.58,6.58,0,0,0-1.71.22,1.78,1.78,0,0,0-.83,3.34,8.37,8.37,0,0,0,7.21,1.79,1.78,1.78,0,0,0,1.75-1.82A1.76,1.76,0,0,0,99,81.38a8.34,8.34,0,0,0-5.5-2Z"/></g><g id="Groupe_20850" data-name="Groupe 20850"><path id="Tracé_21928" data-name="Tracé 21928" class="cls-3" d="M97.42,85.27a1.38,1.38,0,0,1-.62,2.53,5,5,0,0,1-4.37-1.08,1.38,1.38,0,0,1-.42-1.9,1.39,1.39,0,0,1,1-.63A5,5,0,0,1,97.42,85.27Z"/><path id="Tracé_21929" data-name="Tracé 21929" class="cls-2" d="M95.74,88.67a5.76,5.76,0,0,1-3.82-1.42,2.09,2.09,0,0,1,.93-3.76,5.76,5.76,0,0,1,5.08,1.26,2.09,2.09,0,0,1,.45,2.92A2.07,2.07,0,0,1,97,88.5,4.5,4.5,0,0,1,95.74,88.67Zm-1.62-3.89a3.13,3.13,0,0,0-.86.12c-.39.11-.66.3-.71.51s.1.5.39.78a4.25,4.25,0,0,0,3.66.91c.39-.12.66-.31.71-.51a1,1,0,0,0-.39-.79,4.35,4.35,0,0,0-2.8-1Z"/></g></g></g></g></g><g id="Groupe_20878" data-name="Groupe 20878"><g id="Groupe_20863" data-name="Groupe 20863"><g id="Groupe_20861" data-name="Groupe 20861"><g id="Groupe_20855" data-name="Groupe 20855"><path id="Tracé_21930" data-name="Tracé 21930" class="cls-4" d="M158.33,19.32,127.27,1.4a4.77,4.77,0,0,0-4.56-.55h0l-5,3.21a.1.1,0,0,0,0,.14h0c.45.94,4.65,9.74,5,11.37.16.68,1.48,7.41,3,15.25v3.94a13.84,13.84,0,0,0,2.09,6.81c1.6,8.29,3,15.35,3,15.35l4.64,11,4-2.43a.63.63,0,0,0,.28-.77L139,62.88l6.21-3.53a24.73,24.73,0,0,1-.43-3.43l13.44,15L163,67.81l.15-.09h0A4.79,4.79,0,0,0,165,63.45V30.93A14.87,14.87,0,0,0,158.33,19.32Z"/><path id="Tracé_21931" data-name="Tracé 21931" class="cls-2" d="M158.16,71.53,145.46,57.4c.08.61.18,1.23.29,1.85l.07.36-6.15,3.5.49,1.4a1.18,1.18,0,0,1-.5,1.39l-4.53,2.72L130.23,57l-3-15.26a14.33,14.33,0,0,1-2.12-7V30.86c-1.84-9.5-2.85-14.61-3-15.18-.3-1.28-3.28-7.68-5-11.27a.62.62,0,0,1,.24-.79l5.33-3.4,0,0a5.5,5.5,0,0,1,4.76.7l31.05,17.92a15.43,15.43,0,0,1,7,12.05V63.45a5.29,5.29,0,0,1-2.1,4.7l-.18.11Zm-13.93-17L158.34,70.2l4.51-2.89a4.28,4.28,0,0,0,1.66-3.86V30.94a14.26,14.26,0,0,0-6.44-11.17L127,1.85a4.35,4.35,0,0,0-4.08-.54l-.06,0-4.64,3c1,2.19,4.55,9.6,4.92,11.14.14.6,1.12,5.6,3,15.27v4a13.42,13.42,0,0,0,2,6.54l.06.17c1.53,7.87,2.84,14.64,3,15.29l4.39,10.38L139.13,65a.16.16,0,0,0,.06-.17l-.78-2.21,6.26-3.56a25.37,25.37,0,0,1-.37-3.14Z"/></g><g id="Groupe_20856" data-name="Groupe 20856"><path id="Tracé_21932" data-name="Tracé 21932" class="cls-3" d="M158.24,19.29,128.25,2l-9.52,6.14,32.05,17,6.53,1,5-2.95A13,13,0,0,0,158.24,19.29Z"/><path id="Tracé_21933" data-name="Tracé 21933" class="cls-2" d="M157.41,26.66l-6.88-1.12L117.72,8.14l10.51-6.78L158.5,18.85a13.69,13.69,0,0,1,4.19,4l.32.45Zm-6.47-2.06,6.26,1L161.52,23A12.21,12.21,0,0,0,158,19.73L128.26,2.55l-8.53,5.5Z"/></g><g id="Groupe_20857" data-name="Groupe 20857"><path id="Tracé_21934" data-name="Tracé 21934" class="cls-2" d="M159.82,31.46s-12.55,3-13.36,3.26-13,10.17-17.16,14.81c.84,4.37,1.43,7.37,1.43,7.39l4.64,11,4.2-2.42a.66.66,0,0,0,.29-.78l-.64-1.8,6-3.54c-.2-1.06-6.39,1.29-6.45.1l19.46,11.43L163,67.81l.15-.1h0A4.75,4.75,0,0,0,165,63.44V31a10.23,10.23,0,0,0-.3-2.46Z"/></g><g id="Groupe_20858" data-name="Groupe 20858"><rect id="Rectangle_7836" data-name="Rectangle 7836" class="cls-4" x="161.48" y="33.96" width="2.77" height="1.03" transform="translate(6.74 92.25) rotate(-32.26)"/></g><g id="Groupe_20859" data-name="Groupe 20859"><rect id="Rectangle_7837" data-name="Rectangle 7837" class="cls-4" x="161.48" y="63.93" width="2.77" height="1.03" transform="translate(-9.26 96.88) rotate(-32.26)"/></g><g id="Groupe_20860" data-name="Groupe 20860"><rect id="Rectangle_7838" data-name="Rectangle 7838" class="cls-4" x="135.88" y="63.48" width="2.77" height="1.03" transform="translate(-12.97 83.15) rotate(-32.26)"/></g></g><g id="Groupe_20862" data-name="Groupe 20862"><path id="Tracé_21935" data-name="Tracé 21935" class="cls-4" d="M153.45,22.45l-31-17.93c-3.7-2.14-6.7-.4-6.7,3.87V40.9a14.79,14.79,0,0,0,6.7,11.61l3.53,2.05a2.94,2.94,0,0,1,1.31,2,17.55,17.55,0,0,0,6.81,11.28c1,.73,1.76.1,1.47-1.15a26.45,26.45,0,0,1-.72-5.46c0-.85.6-1.19,1.35-.76l17.29,10c3.7,2.14,6.7.4,6.7-3.87V34.06A14.81,14.81,0,0,0,153.45,22.45Z"/><path id="Tracé_21936" data-name="Tracé 21936" class="cls-2" d="M156.45,71.87a6.58,6.58,0,0,1-3.25-1l-17.29-10a.55.55,0,0,0-.45-.1.53.53,0,0,0-.13.42,26,26,0,0,0,.7,5.34,1.69,1.69,0,0,1-.53,1.9,1.53,1.53,0,0,1-1.75-.21,18,18,0,0,1-7-11.62A2.49,2.49,0,0,0,125.68,55l-3.53-2a15.4,15.4,0,0,1-7-12.05V8.39a4.58,4.58,0,0,1,7.47-4.31L153.7,22a15.38,15.38,0,0,1,7,12.05V66.57a5.16,5.16,0,0,1-2.22,4.78A3.84,3.84,0,0,1,156.45,71.87Zm-20.9-12.11a1.75,1.75,0,0,1,.86.25L153.7,70a3.6,3.6,0,0,0,5.94-3.43V34.06a14.3,14.3,0,0,0-6.45-11.17L122.15,5a3.59,3.59,0,0,0-5.93,3.42V40.91a14.27,14.27,0,0,0,6.44,11.16l3.54,2a3.51,3.51,0,0,1,1.56,2.36,16.94,16.94,0,0,0,6.61,11c.28.21.49.25.58.19s.2-.33.09-.81a25.63,25.63,0,0,1-.73-5.57,1.43,1.43,0,0,1,.64-1.3,1.17,1.17,0,0,1,.61-.17Z"/></g></g><g id="Tracé_18660" data-name="Tracé 18660"><g id="Groupe_20877" data-name="Groupe 20877"><g id="Groupe_20864" data-name="Groupe 20864"><path id="Tracé_21937" data-name="Tracé 21937" class="cls-3" d="M133.89,39.46l-2.14,4.39,0,0a18.3,18.3,0,0,1-3.27-7.24V36.5l0,.09,4.6,1.12.44.27a1.38,1.38,0,0,1,.33,1.44v0Zm-5.38-2.82a18.05,18.05,0,0,0,3.23,7.15l2.1-4.36v0a1.31,1.31,0,0,0-.31-1.39l-.42-.26-4.59-1.13"/></g><g id="Groupe_20865" data-name="Groupe 20865"><path id="Tracé_21938" data-name="Tracé 21938" class="cls-3" d="M136.57,41.74a.84.84,0,0,1,.61.19,1.61,1.61,0,0,1,.43.69l1.93,6h0a9.64,9.64,0,0,1-5.9-2.7v0h0l2.57-3.9.14-.13v0h0Zm1,.87a1.4,1.4,0,0,0-.42-.63.81.81,0,0,0-.59-.22l-.22.12v0l-.12.12-2.57,3.89a9.63,9.63,0,0,0,5.84,2.66l-1.9-5.92"/></g><g id="Groupe_20866" data-name="Groupe 20866"><path id="Tracé_21939" data-name="Tracé 21939" class="cls-3" d="M137.17,38.74l-1.23-1.33-.21-1.81,1-1,1.42.65.8,1.73h0l-.42,1.55,0,0Zm-1.4-3.11.2,1.76,1.21,1.31,1.3-.16.43-1.51-.8-1.72-1.38-.61-1,.93"/></g><g id="Groupe_20867" data-name="Groupe 20867"><path id="Tracé_21940" data-name="Tracé 21940" class="cls-3" d="M140.37,41.37a.57.57,0,0,1,.74,0l4.48,3v0a7.63,7.63,0,0,1-1.67,2.49,5.83,5.83,0,0,1-1.55,1.1,6,6,0,0,1-.8.3h0l-1.4-6h0a.94.94,0,0,1,.16-.91l0,0,0,0Zm3.55,5.48a7.41,7.41,0,0,0,1.65-2.45l-4.48-3a.57.57,0,0,0-.72,0h0a1,1,0,0,0-.17.89h0l1.39,5.95a4.84,4.84,0,0,0,.79-.32,5.77,5.77,0,0,0,1.56-1.09"/></g><g id="Groupe_20868" data-name="Groupe 20868"><path id="Tracé_21941" data-name="Tracé 21941" class="cls-3" d="M152.44,48.13a.51.51,0,0,1-.12.23Z"/></g><g id="Groupe_20876" data-name="Groupe 20876"><g id="Groupe_20869" data-name="Groupe 20869"><path id="Tracé_21942" data-name="Tracé 21942" class="cls-3" d="M133.16,34.12a.54.54,0,0,1-.46.13l-4.55-.48h0a10.35,10.35,0,0,1,1.78-6.34h0v0l3.18,5.29.22.63a.89.89,0,0,1-.15.69ZM130,27.48a10.46,10.46,0,0,0-1.77,6.26l4.51.46a.5.5,0,0,0,.44-.13.86.86,0,0,0,.2-.71l-.21-.62L130,27.47"/></g><g id="Groupe_20870" data-name="Groupe 20870"><path id="Tracé_21943" data-name="Tracé 21943" class="cls-3" d="M135,31v0L131.45,26v0h0v0c.24-.16.49-.32.73-.45a6.45,6.45,0,0,1,4.75-.24h0v0l-.64,5.49-.18.46,0,0a.48.48,0,0,1-.52.12A1.09,1.09,0,0,1,135,31Zm-3.51-5L135,30.9h0l0,0a1.12,1.12,0,0,0,.54.42.5.5,0,0,0,.51-.12l0,0,.19-.43.63-5.47a6.42,6.42,0,0,0-4.7.25c-.24.14-.49.29-.73.46"/></g><g id="Groupe_20871" data-name="Groupe 20871"><path id="Tracé_21944" data-name="Tracé 21944" class="cls-3" d="M139,32v0l.12-5.72,0,0h.05a14.91,14.91,0,0,1,5.06,5.52v0h0l-4,1.53v0h-.42a1.36,1.36,0,0,1-.56-.5A1.54,1.54,0,0,1,139,32Zm0,0,0,0a1.3,1.3,0,0,0,.2.75,1.14,1.14,0,0,0,.53.49h.43v0l4-1.53a14.8,14.8,0,0,0-5-5.46L139,32"/></g><g id="Groupe_20872" data-name="Groupe 20872"><path id="Tracé_21945" data-name="Tracé 21945" class="cls-3" d="M152.29,48.43l0-.07a.84.84,0,0,0,.12-.23l0-.07A.75.75,0,0,1,152.29,48.43Z"/></g><g id="Groupe_20873" data-name="Groupe 20873"><path id="Tracé_21946" data-name="Tracé 21946" class="cls-3" d="M149.21,29.75c.4-.25.94,0,1.23.58a1.2,1.2,0,0,1,0,1.39l-.08.08-.14.06L150,32a4.5,4.5,0,0,1-.74.21,4.91,4.91,0,0,0-1.38.52.87.87,0,0,0-.22.53l-.33.18a19.17,19.17,0,0,1,1.15,10.4l.37.3.31.62a11.34,11.34,0,0,0,1.59,1.07,9.13,9.13,0,0,1,.86.47l.24.18a1.4,1.4,0,0,1,.53.67,1.51,1.51,0,0,1,.13.86.42.42,0,0,1,0,.12l-.12.24-.06.07a.64.64,0,0,1-.82,0l-.15-.11-.24-.18a7.33,7.33,0,0,1-.76-.71,10,10,0,0,0-1.63-1.33l-.4.05-.4-.25a9.79,9.79,0,0,1-2.28,3.56,7.33,7.33,0,0,1-3.29,1.85l.12.48a1,1,0,0,0-.12.62,16.51,16.51,0,0,0,.67,2.06,9.57,9.57,0,0,1,.42,1l.09.32a1.13,1.13,0,0,1-.15,1.16.51.51,0,0,1-.26.14c-.42.12-.94-.28-1.15-.9l-.07-.19-.08-.33a7.61,7.61,0,0,1-.18-1.08,13.65,13.65,0,0,0-.49-2.08,1.08,1.08,0,0,0-.45-.54l-.14-.48a12.15,12.15,0,0,1-8.13-3.72l-.22.31a.48.48,0,0,0-.46.1,8.91,8.91,0,0,0-.76,1.55,8.63,8.63,0,0,1-.3.86l-.08.1,0,.11a1.08,1.08,0,0,1-.18.24.54.54,0,0,1-.34.16.87.87,0,0,1-.65-.25,2.09,2.09,0,0,1-.42-.64,1.18,1.18,0,0,1,.08-1.11l.12-.25a5.32,5.32,0,0,1,.55-.61,7.48,7.48,0,0,0,.9-1.34l0-.68.16-.37a22.17,22.17,0,0,1-4.51-10l-.43-.12a1.08,1.08,0,0,0-.48-.44,5.94,5.94,0,0,0-1.57-.15,5.61,5.61,0,0,1-.82,0l-.24,0c-.46,0-1-.53-1.07-1.15a1.29,1.29,0,0,1,.05-.7.67.67,0,0,1,.16-.25.57.57,0,0,1,.61-.12l.24,0a8.51,8.51,0,0,1,.85.29,5.78,5.78,0,0,0,1.59.44.65.65,0,0,0,.32-.16l.09-.11.39,0a13.15,13.15,0,0,1,2.47-8.77l-.18-.3-.09-.17a1.32,1.32,0,0,0-.13-.68l-.14-.22a16.27,16.27,0,0,0-1.09-1.49,8,8,0,0,1-.69-.85l-.17-.27a1.4,1.4,0,0,1-.12-1.64c.36-.31.93-.09,1.26.48l.19.29a9.48,9.48,0,0,1,.52,1,14.82,14.82,0,0,0,1.12,1.82,1,1,0,0,0,.53.33l.28.4c.36-.24.72-.48,1.08-.68l.21-.1a8,8,0,0,1,6.33-.17l.08-.45.16-.1a.79.79,0,0,0,.17-.31,14.54,14.54,0,0,0,0-2c0-.38-.05-.73-.05-1.08l0-.3a1.27,1.27,0,0,1,.25-.65.58.58,0,0,1,.7-.1,1.65,1.65,0,0,1,.79,1.56l0,.27c-.05.34-.12.65-.19,1a10.29,10.29,0,0,0-.24,1.91,1.92,1.92,0,0,0,.24.67v.46a18.76,18.76,0,0,1,7,7.65l.34-.11.55.16a5,5,0,0,0,1.28-.76,2.92,2.92,0,0,1,.63-.48Zm-11.6,12.87a1.52,1.52,0,0,0-.43-.68.81.81,0,0,0-.61-.2l-.22.09h0l0,0-.13.13-2.57,3.9h0v0a9.59,9.59,0,0,0,5.9,2.7h0l-1.93-6m7.84-8.1v0l-3.7,2.16-.11.1h0a1.17,1.17,0,0,0,0,1.4l.26.28,0,0L146.26,42v0h0a15.4,15.4,0,0,0-.83-7.49m.15,9.89v0l-4.48-3a.59.59,0,0,0-.75,0h0l0,0a1,1,0,0,0-.16.91h0l1.41,6h0a5.48,5.48,0,0,0,.8-.3,5.88,5.88,0,0,0,1.56-1.1,7.79,7.79,0,0,0,1.67-2.49m-1.38-12.63a15,15,0,0,0-5.05-5.52h0l0,0L139,32v0a1.65,1.65,0,0,0,.2.78,1.35,1.35,0,0,0,.56.5h.43l4-1.52,0,0,0,0m-15.76,4.81a18.36,18.36,0,0,0,3.28,7.25h0l2.14-4.39v0l0,0a1.35,1.35,0,0,0-.32-1.44l-.44-.26-4.6-1.13,0-.09v.09m3-10.6h0L135,31v0h0a1,1,0,0,0,.57.42.5.5,0,0,0,.52-.12l0,0,.18-.46.64-5.49v0h0a6.42,6.42,0,0,0-4.74.24c-.25.14-.5.29-.74.45v0h0m-3.3,7.78h0l4.56.49a.6.6,0,0,0,.46-.13l0-.08a.93.93,0,0,0,.16-.68l-.22-.64L130,27.45v0h0a10.35,10.35,0,0,0-1.78,6.34m7.57,1.84.22,1.8,1.22,1.34,1.33-.18v0l.43-1.55h0l-.81-1.73-1.42-.65-1,1"/></g><g id="Groupe_20874" data-name="Groupe 20874"><path id="Tracé_21947" data-name="Tracé 21947" class="cls-3" d="M145.45,34.52a15.56,15.56,0,0,1,.83,7.5h0l0,0L142,38.46h0l-.26-.28a1.19,1.19,0,0,1,0-1.4v0l.11-.1,3.7-2.16Zm.81,7.46a15.74,15.74,0,0,0-.82-7.45l-3.67,2.16-.1.1h0a1.17,1.17,0,0,0,.06,1.36l.26.28v0L146.25,42"/></g><g id="Groupe_20875" data-name="Groupe 20875"><path id="Tracé_21948" data-name="Tracé 21948" class="cls-3" d="M149.19,29.72c.4-.27,1,0,1.29.6a1.27,1.27,0,0,1,0,1.43l-.09.08-.13.07L150,32a4.05,4.05,0,0,1-.76.2,4.87,4.87,0,0,0-1.37.53.85.85,0,0,0-.2.51l-.33.19a19.36,19.36,0,0,1,1.15,10.4l.36.25.29.6a10.14,10.14,0,0,0,1.6,1.07,7,7,0,0,1,.84.48l.26.19a1.49,1.49,0,0,1,.55.69,1.56,1.56,0,0,1,.11.88c0,.07,0,0,0,0a1.5,1.5,0,0,0-.12-.86,1.32,1.32,0,0,0-.54-.67l-.24-.19c-.28-.16-.56-.33-.85-.46a11.34,11.34,0,0,1-1.59-1.07l-.31-.62-.37-.27a19.28,19.28,0,0,0-1.13-10.41l.31-.21a.84.84,0,0,1,.22-.52,4.64,4.64,0,0,1,1.38-.53A4.5,4.5,0,0,0,150,32l.2-.13.13-.07.09-.08a1.2,1.2,0,0,0,0-1.39c-.3-.56-.84-.83-1.2-.6l-.22.12a3.74,3.74,0,0,0-.63.48,5,5,0,0,1-1.28.76l-.55-.16-.34.11a18.49,18.49,0,0,0-7-7.62l0-.48a1.82,1.82,0,0,1-.25-.67,9.52,9.52,0,0,1,.25-1.91c.06-.31.13-.63.18-1l0-.27a1.68,1.68,0,0,0-.79-1.57.59.59,0,0,0-.67.08,1.21,1.21,0,0,0-.28.68l0,.3c0,.35,0,.71.05,1.08a13.09,13.09,0,0,1,0,2,.79.79,0,0,1-.17.31l-.16.1-.05.45a8.12,8.12,0,0,0-6.36.17l-.21.1a10.61,10.61,0,0,0-1.06.68l-.3-.4a1.06,1.06,0,0,1-.53-.33,16.15,16.15,0,0,1-1.12-1.82,8.66,8.66,0,0,0-.52-1l-.19-.29c-.33-.56-.9-.79-1.26-.5a1.45,1.45,0,0,0,.12,1.67l.17.27a7,7,0,0,0,.69.84c.39.48.75,1,1.09,1.49l.14.22a1.36,1.36,0,0,1,.14.69l.08.16.18.27a13.23,13.23,0,0,0-2.46,8.79l-.4,0a.31.31,0,0,1-.09.11.65.65,0,0,1-.32.16,5.78,5.78,0,0,1-1.59-.44c-.28-.1-.57-.21-.85-.28l-.24,0a.6.6,0,0,0-.61.12.63.63,0,0,0-.16.26,1.19,1.19,0,0,0,0,.7c.11.61.6,1.15,1.06,1.14l.24,0a5.61,5.61,0,0,0,.82,0,6.33,6.33,0,0,1,1.57.14,1.1,1.1,0,0,1,.48.45l.43.12a22.18,22.18,0,0,0,4.51,10l-.16.38,0,.67a8.26,8.26,0,0,1-.9,1.34,4.6,4.6,0,0,0-.55.62l-.13.25a1.21,1.21,0,0,0-.07,1.11,1.9,1.9,0,0,0,.4.61.82.82,0,0,0,.67.27.54.54,0,0,0,.34-.16.71.71,0,0,0,.15-.22l.07-.13.07-.1c.1-.25.22-.55.31-.86a8.5,8.5,0,0,1,.73-1.52.45.45,0,0,1,.48-.12l.21-.33a12.13,12.13,0,0,0,8.11,3.73l.17.49a1.13,1.13,0,0,1,.45.54,14.92,14.92,0,0,1,.48,2.08,7.87,7.87,0,0,0,.19,1.08l.08.33.06.19c.21.62.74,1,1.16.9a.6.6,0,0,0,.26-.14,1.15,1.15,0,0,0,.15-1.17l-.1-.32c-.12-.35-.26-.7-.41-1a16.51,16.51,0,0,1-.67-2.06,1,1,0,0,1,.12-.62l-.13-.5a7,7,0,0,0,3.3-1.83,9.52,9.52,0,0,0,2.27-3.55l.41.24.4,0a9.81,9.81,0,0,1,1.63,1.32,6.47,6.47,0,0,0,.76.72l.24.18.14.11a.65.65,0,0,0,.83,0l.06-.07a.65.65,0,0,1-.9.12h0l-.12-.1-.25-.17-.77-.73a8.05,8.05,0,0,0-1.61-1.3l-.38,0-.41-.27a9.23,9.23,0,0,1-2.25,3.54,7.13,7.13,0,0,1-3.3,1.85l.14.5a.76.76,0,0,0-.12.59,16.66,16.66,0,0,0,.65,2c.14.33.29.7.42,1.07l.09.32a1.14,1.14,0,0,1-.16,1.2.46.46,0,0,1-.26.15c-.44.11-1-.31-1.2-.94l0-.18-.1-.34c-.07-.37-.14-.74-.18-1.11a16.19,16.19,0,0,0-.48-2.06l-.44-.52-.15-.48a12.09,12.09,0,0,1-8.1-3.71l-.21.33-.45.08a7.56,7.56,0,0,0-.75,1.54,7.25,7.25,0,0,1-.32.87l-.06.09-.06.12a.81.81,0,0,1-.17.24.62.62,0,0,1-.35.18.91.91,0,0,1-.68-.29,1.52,1.52,0,0,1-.42-.64,1.18,1.18,0,0,1,.06-1.15l.14-.23a4.69,4.69,0,0,1,.54-.64,6.64,6.64,0,0,0,.89-1.34l0-.66.17-.35a22.24,22.24,0,0,1-4.5-10l-.42-.1a1.07,1.07,0,0,0-.47-.45,6,6,0,0,0-1.58-.15,5.35,5.35,0,0,1-.8,0l-.24-.05a1.43,1.43,0,0,1-1.12-1.19,1.4,1.4,0,0,1,0-.73.81.81,0,0,1,.17-.24.63.63,0,0,1,.64-.13l.25,0q.42.14.84.3a8.64,8.64,0,0,0,1.58.45.56.56,0,0,0,.29-.16l.12-.14.4,0a12.85,12.85,0,0,1,2.45-8.75l-.18-.27-.09-.16a1.4,1.4,0,0,0-.12-.7,15.61,15.61,0,0,0-1.23-1.7c-.25-.27-.47-.55-.69-.84l-.18-.27a1.49,1.49,0,0,1-.13-1.69c.38-.34,1-.1,1.32.48l.19.29a10.57,10.57,0,0,1,.52,1,18.87,18.87,0,0,0,1.1,1.83l.53.3.28.39a7.71,7.71,0,0,1,1.27-.75,8,8,0,0,1,6.35-.18l0-.46a.59.59,0,0,0,.17-.1.57.57,0,0,0,.15-.3,11.67,11.67,0,0,0,0-2c0-.38-.05-.73-.06-1.07l0-.31a1,1,0,0,1,.26-.67.59.59,0,0,1,.72-.12,1.54,1.54,0,0,1,.62.69,1.47,1.47,0,0,1,.18.92v.27c-.05.33-.12.66-.2,1a11.92,11.92,0,0,0-.23,1.88,1.51,1.51,0,0,0,.24.65l0,.49a18.35,18.35,0,0,1,7,7.6l.34-.11.52.16a5,5,0,0,0,1.27-.76,5.82,5.82,0,0,1,.63-.48Z"/></g></g></g></g></g></g></svg>