<?xml version="1.0" encoding="utf-8"?>
<!-- Generator: Adobe Illustrator 25.4.1, SVG Export Plug-In . SVG Version: 6.00 Build 0)  -->
<svg version="1.1" id="Calque_1" xmlns="http://www.w3.org/2000/svg" xmlns:xlink="http://www.w3.org/1999/xlink" x="0px" y="0px"
	 viewBox="0 0 311.1 311.1" style="enable-background:new 0 0 311.1 311.1;" xml:space="preserve">
<style type="text/css">
	.st0{fill:#FFFFFF;}
</style>
<g id="Groupe_34448" transform="translate(0 0)">
	<path id="Tracé_19621" class="st0" d="M231.9,226.6c-3.7,1.9-7.7,3.1-11.8,3.5c-1.8,0.2-3.2,1.8-3,3.6c0,0.1,0,0.1,0,0.2
		c0.2,1.1,0.3,2.2,0.3,3.3c0,13.8-13.1,25.1-29.3,25.1c-11.1,0.4-21.5-5.5-26.9-15.3c-0.5-1-1.3-1.9-2.3-2.5v-41.9l0.8,0
		c6.5-0.2,14.6-0.5,19,3.8c2.6,2.8,4,6.5,4,10.4c-5.2,1.9-7.8,7.6-5.9,12.8s7.6,7.8,12.8,5.9c5.2-1.9,7.8-7.6,5.9-12.8
		c-1-2.8-3.3-5-6.1-6c0-5.6-2.2-11-6.1-15.1c-6.5-6.3-16.6-5.9-23.9-5.7h-0.5V175c33.9,0.1,50.9,1.5,52.4,19.7
		c-5.2,1.9-7.8,7.6-5.9,12.8s7.6,7.8,12.8,5.9c5.2-1.9,7.8-7.6,5.9-12.8c-1-2.8-3.3-5-6.1-6c-0.2-11-8-20.5-18.8-22.9
		c-10.2-3.2-24.2-3.4-40.3-3.4v-20.7c16.2,0,30.1-0.2,40.3-3.4c10.8-2.4,18.5-11.9,18.8-22.9c5.2-1.8,8-7.5,6.2-12.7
		c-1.8-5.2-7.5-8-12.7-6.2c-5.2,1.8-8,7.5-6.2,12.7c1,2.8,3.2,5.1,6,6.1c-1.5,18.2-18.6,19.6-52.4,19.7v-20.2h0.5
		c1.6,0.1,3.2,0.1,5,0.1c6.8,0.6,13.6-1.5,18.9-5.8c3.8-4.1,6-9.5,6.1-15.1c5.2-1.8,8-7.4,6.2-12.7c-1.8-5.2-7.4-8-12.7-6.2
		c-5.2,1.8-8,7.4-6.2,12.7c1,2.8,3.2,5.1,6,6.1c0,3.8-1.5,7.5-4,10.4c-4.5,4.3-12.6,4-19,3.8l-0.8,0V99.7c0-1.8-1.5-3.3-3.3-3.3
		c-1.8,0-3.3,1.5-3.3,3.3l0,0v144.7c-1,0.6-1.8,1.5-2.3,2.5c-5.4,9.7-15.8,15.6-26.9,15.3c-16.1,0-29.3-11.2-29.3-25.1
		c0-1.1,0.1-2.2,0.3-3.3c0.6-3.5,2.2-6.7,4.6-9.2c1.3-1.3,1.4-3.4,0.1-4.7c-1.3-1.3-3.4-1.4-4.7-0.1l0,0c-2.7,2.7-4.7,6.1-5.8,9.8
		c-7.5-1.3-14.2-5.4-18.8-11.5c-1.1-1.5-3.1-1.8-4.6-0.8c-1.5,1.1-1.8,3.1-0.8,4.6c5.5,7.6,13.8,12.7,23.1,14.2c0,0.3,0,0.6,0,0.9
		c0,17.5,16.1,31.7,35.9,31.7c13.4,0.3,25.9-6.7,32.6-18.4c6.7,11.6,19.2,18.7,32.6,18.4c19.8,0,35.9-14.2,35.9-31.7
		c0-0.3,0-0.6,0-0.9c3.8-0.7,7.5-2,10.9-3.8c1.6-0.9,2.3-2.9,1.4-4.5C235.5,226.3,233.5,225.7,231.9,226.6L231.9,226.6z
		 M186.1,222.7c1.8,0,3.3,1.5,3.3,3.3c0,1.8-1.5,3.3-3.3,3.3c-1.8,0-3.3-1.5-3.3-3.3C182.8,224.2,184.3,222.7,186.1,222.7z
		 M214.7,200.7c1.8,0,3.3,1.5,3.3,3.3c0,1.8-1.5,3.3-3.3,3.3c-1.8,0-3.3-1.5-3.3-3.3C211.4,202.2,212.9,200.7,214.7,200.7
		L214.7,200.7z M214.7,108.6c1.8,0,3.3,1.5,3.3,3.3c0,1.8-1.5,3.3-3.3,3.3c-1.8,0-3.3-1.5-3.3-3.3
		C211.4,110.1,212.9,108.6,214.7,108.6L214.7,108.6z M186.1,87.3c1.8,0,3.3,1.5,3.3,3.3c0,1.8-1.5,3.3-3.3,3.3
		c-1.8,0-3.3-1.5-3.3-3.3C182.8,88.8,184.3,87.3,186.1,87.3z"/>
	<path id="Tracé_19622" class="st0" d="M65.2,205.2c0.1-6.2,2.6-12.1,6.9-16.4c1.3-1.3,1.3-3.4,0-4.7c-0.4-0.4-1-0.8-1.6-0.9
		c-11.9-2-20.9-12-21.6-24.1c0.1-7.3,3.5-14.2,9.2-18.7c1.4-1.2,1.6-3.3,0.4-4.7c-0.1-0.1-0.1-0.2-0.2-0.2
		c-3.3-3.1-5.2-7.3-5.2-11.8c0-9.7,9-17.6,20.5-17.9c3.2,0.1,6.2,1.3,8.7,3.2c1.4,1.2,3.5,1.1,4.7-0.3c1.2-1.4,1.1-3.5-0.3-4.7l0,0
		c-3.2-2.7-7.1-4.3-11.2-4.8c-1.3-2.3-2-4.9-2-7.5c0.1-5.7,3.1-11,8-14c1.5-1,1.9-3.1,0.9-4.6c-1-1.5-3.1-1.9-4.6-0.9c0,0,0,0,0,0
		c-6.7,4.3-10.8,11.6-10.9,19.5c0,2.7,0.5,5.4,1.5,7.9c-12.1,1.7-21.3,11.8-21.8,24c0,5.1,1.8,10,4.9,14c-5.7,5.7-9,13.4-9,21.4
		c0.5,13.3,9.1,24.9,21.8,29.1c-3.5,5-5.4,10.9-5.4,17c0,1.8,1.5,3.3,3.3,3.3C63.7,208.5,65.2,207,65.2,205.2
		C65.2,205.2,65.2,205.2,65.2,205.2L65.2,205.2z"/>
	<path id="Tracé_19623" class="st0" d="M268.8,159.1c-0.1-8.1-3.3-15.8-9-21.4c3.2-4,4.9-8.9,4.9-14c-0.5-12.2-9.7-22.3-21.8-24
		c1-2.5,1.5-5.2,1.5-7.9c0-13.6-12.5-24.6-27.8-24.6c-0.3,0-0.6,0-1,0c-1-6.5-4.3-12.5-9.4-16.7c-6.1-5.2-13.8-8.1-21.8-8.2h-0.4
		c-11.6-0.3-22.5,5.7-28.5,15.6c-6-9.9-16.9-15.9-28.5-15.6h-0.4c-8,0.1-15.7,3-21.8,8.2c-5.1,4.2-8.4,10.2-9.4,16.7
		c-0.3,0-0.7,0-1,0c-1.8,0-3.3,1.5-3.3,3.3c0,1.8,1.5,3.3,3.3,3.3c1.2,0,2.5,0.1,3.7,0.3c1.8,0.2,3.5-1.1,3.7-2.9c0-0.2,0-0.5,0-0.7
		v-0.2c0-0.1,0-0.1,0-0.1c0.2-11.3,11.6-21,24.8-21.2c9.5-0.4,18.4,4.5,23.3,12.6c0.5,1,1.3,1.8,2.2,2.3v20.6c0,1.8,1.5,3.3,3.3,3.3
		c1.8,0,3.3-1.5,3.3-3.3V63.9c0.9-0.6,1.7-1.4,2.2-2.3c4.8-8.1,13.6-12.9,22.9-12.6h0.4c13.2,0.2,24.6,9.9,24.8,21.1
		c-0.2,3.9-1.4,7.7-3.7,10.9c-1.2,1.4-1,3.5,0.4,4.7c1.4,1.2,3.5,1,4.7-0.4l0,0c2.6-3.3,4.3-7.3,4.9-11.5c0.4,0,0.8,0,1.1,0
		c11.7,0,21.1,8.1,21.1,18c0,3.2-1,6.2-2.8,8.9c-1,1.5-0.6,3.6,0.9,4.6c0.5,0.3,1.1,0.5,1.8,0.6c11.5,0.3,20.5,8.2,20.5,17.9
		c-0.1,4.5-2,8.8-5.2,11.8c-2.3,2.1-5.1,3.5-8.2,3.9c-1.8,0.1-3.2,1.7-3.1,3.6c0.1,1.7,1.6,3.1,3.3,3.1h0.3c3.6-0.4,7-1.7,9.8-3.8
		c4.5,4.5,7.1,10.5,7.2,16.8c-0.7,12.1-9.7,22.1-21.6,24.1c-1.8,0.4-2.9,2.2-2.5,4c0.1,0.6,0.5,1.2,0.9,1.6
		c4.4,4.4,6.9,10.2,6.9,16.4c0,4.3-1.3,8.4-3.6,12c-1,1.5-0.5,3.6,1,4.6c1.5,1,3.6,0.5,4.6-1c3-4.6,4.6-10.1,4.6-15.6
		c0-6.1-1.9-12-5.5-17C259.7,184,268.4,172.4,268.8,159.1L268.8,159.1z"/>
	<path id="Tracé_19624" class="st0" d="M79.7,155.8c-0.1,1.8,1.3,3.4,3.1,3.5c0,0,0,0,0,0H83c1.8,0,3.2-1.4,3.3-3.1
		c0.9-10,8.1-18.4,17.9-20.8c1.8-0.4,2.9-2.2,2.4-4c-0.4-1.8-2.2-2.9-4-2.4l0,0c-8.5,1.9-15.8,7.6-19.6,15.4
		C81.2,147.9,80.1,151.8,79.7,155.8L79.7,155.8z"/>
	<path id="Tracé_19625" class="st0" d="M131.1,79.1c-1.8-0.2-3.4,1.2-3.6,3c-1.2,6.7-5.8,12.3-12.2,14.6c-1.7,0.6-2.6,2.5-2,4.3
		c0.6,1.7,2.5,2.6,4.2,2c0.6-0.2,15.3-5.5,16.6-20.2C134.3,80.8,133,79.2,131.1,79.1C131.1,79.1,131.1,79.1,131.1,79.1z"/>
	<path id="Tracé_19626" class="st0" d="M128.5,226.9c1.7,0.8,3.6,0.1,4.4-1.6c0.8-1.7,0.1-3.6-1.6-4.4
		c-7.8-4.1-12.3-12.4-11.6-21.2c0.2-1.8-1.2-3.4-3-3.6c-1.8-0.2-3.4,1.2-3.6,3C113,200,111.4,218.8,128.5,226.9L128.5,226.9z"/>
	<path id="Tracé_19627" class="st0" d="M120.6,165.3c-1.7,0.8-2.4,2.8-1.6,4.4c0.8,1.7,2.8,2.4,4.4,1.6l0,0
		c6.5-3.3,10.3-10.2,9.7-17.5c-0.2-1.8-1.8-3.2-3.6-3c-1.8,0.2-3.2,1.8-3,3.6C126.9,158.9,124.5,163.2,120.6,165.3z"/>
	<path id="Tracé_19628" class="st0" d="M199.5,158.3c0,1.8,1.5,3.3,3.3,3.3c1.8,0,3.3-1.5,3.3-3.3c0-1.8-1.5-3.3-3.3-3.3
		C201,155,199.5,156.5,199.5,158.3C199.5,158.3,199.5,158.3,199.5,158.3z"/>
	<path id="Tracé_19629" class="st0" d="M225.4,161.6c1.8,0,3.3-1.5,3.3-3.3c0-1.8-1.5-3.3-3.3-3.3c-1.8,0-3.3,1.5-3.3,3.3
		C222.1,160.1,223.5,161.6,225.4,161.6L225.4,161.6z"/>
	<path id="Tracé_19630" class="st0" d="M182.8,249.7c0,1.8,1.5,3.3,3.3,3.3c1.8,0,3.3-1.5,3.3-3.3c0-1.8-1.5-3.3-3.3-3.3
		C184.3,246.4,182.8,247.8,182.8,249.7L182.8,249.7z"/>
	<path id="Tracé_19631" class="st0" d="M189.4,66.9c0-1.8-1.5-3.3-3.3-3.3c-1.8,0-3.3,1.5-3.3,3.3c0,1.8,1.5,3.3,3.3,3.3
		C188,70.2,189.4,68.7,189.4,66.9C189.4,66.9,189.4,66.9,189.4,66.9z"/>
</g>
</svg>
