<?xml version="1.0" encoding="utf-8"?>
<!-- Generator: Adobe Illustrator 25.4.1, SVG Export Plug-In . SVG Version: 6.00 Build 0)  -->
<svg version="1.1" id="Calque_1" xmlns="http://www.w3.org/2000/svg" xmlns:xlink="http://www.w3.org/1999/xlink" x="0px" y="0px"
	 viewBox="0 0 311.1 311.1" style="enable-background:new 0 0 311.1 311.1;" xml:space="preserve">
<style type="text/css">
	.st0{fill:#FFFFFF;}
	.st1{fill:#199E58;}
	.st2{fill:#167141;}
</style>
<g id="Groupe_12978" transform="translate(9 5.618)">
	<g transform="matrix(1, 0, 0, 1, -9, -5.62)">
		<circle id="Ellipse_118-2" class="st0" cx="155.5" cy="155.5" r="155.5"/>
	</g>
	<g transform="matrix(1, 0, 0, 1, -9, -5.62)">
		<circle id="Ellipse_119-2" class="st1" cx="157.3" cy="153.8" r="150.2"/>
	</g>
	<g id="Groupe_12977" transform="translate(20.377 19.524)">
		<path id="Tracé_19674" class="st2" d="M125.5,45.3c-1.9,0-3.7,0.1-5.5,0.2c44.1,3.2,77.3,41.6,74.1,85.7c0,0,0,0,0,0
			c-3,41.8-37.8,74.2-79.7,74.3h11.1c44.3,0,80.1-35.9,80.1-80.1C205.7,81.2,169.8,45.3,125.5,45.3z"/>
		<g id="Groupe_12976" transform="translate(0 0)">
			<path id="Tracé_19675" class="st0" d="M125.5,208.3H45.4c-1.5,0-2.8-1.2-2.8-2.8c0-0.8,0.3-1.5,0.9-2l21.9-21.1
				c-31.5-33.2-30.2-85.7,3-117.2c33.2-31.5,85.7-30.2,117.2,3c31.5,33.2,30.2,85.7-3,117.2C167.2,200.2,146.8,208.3,125.5,208.3z
				 M52.3,202.8h73.3c42.7,0,77.4-34.6,77.4-77.4c0,0,0,0,0,0c0-42.7-34.6-77.4-77.4-77.4c0,0,0,0,0,0c-42.7,0-77.4,34.6-77.4,77.4
				c0,0,0,0,0,0c0,20.7,8.3,40.6,23.1,55.2c1.1,1.1,1.1,2.8,0,3.9c0,0,0,0,0,0l-0.1,0.1L52.3,202.8z"/>
			<path id="Tracé_19676" class="st0" d="M125.5,136.5c-6.1,0-11.1-4.9-11.1-11.1s4.9-11.1,11.1-11.1c6.1,0,11.1,4.9,11.1,11
				c0,0,0,0,0,0C136.6,131.5,131.7,136.5,125.5,136.5C125.5,136.5,125.5,136.5,125.5,136.5z M125.5,119.9c-3.1,0-5.5,2.5-5.5,5.5
				c0,3.1,2.5,5.5,5.5,5.5c3.1,0,5.5-2.5,5.5-5.5c0,0,0,0,0,0C131.1,122.4,128.6,119.9,125.5,119.9
				C125.5,119.9,125.5,119.9,125.5,119.9L125.5,119.9z"/>
			<path id="Tracé_19677" class="st0" d="M92.4,136.5c-6.1,0-11.1-4.9-11.1-11.1s4.9-11.1,11.1-11.1c6.1,0,11.1,4.9,11.1,11.1
				C103.4,131.5,98.5,136.5,92.4,136.5z M92.4,119.9c-3.1,0-5.5,2.5-5.5,5.5c0,3.1,2.5,5.5,5.5,5.5c3.1,0,5.5-2.5,5.5-5.5
				C97.9,122.4,95.4,119.9,92.4,119.9C92.4,119.9,92.4,119.9,92.4,119.9L92.4,119.9z"/>
			<path id="Tracé_19678" class="st0" d="M158.7,136.5c-6.1,0-11.1-4.9-11.1-11.1c0-6.1,5-11.1,11.1-11.1c6.1,0,11.1,4.9,11.1,11.1
				S164.8,136.5,158.7,136.5z M158.7,119.9c-3.1,0-5.5,2.5-5.5,5.5c0,3.1,2.5,5.5,5.5,5.5c3.1,0,5.5-2.5,5.5-5.5
				C164.2,122.4,161.8,119.9,158.7,119.9C158.7,119.9,158.7,119.9,158.7,119.9L158.7,119.9z"/>
		</g>
	</g>
</g>
</svg>
