<svg id="Calque_1" data-name="Calque 1" xmlns="http://www.w3.org/2000/svg" viewBox="0 0 541.57 126.4"><defs><style>.cls-1{fill:#fff;}</style></defs><g id="Groupe_8297" data-name="Groupe 8297"><g id="Groupe_6999" data-name="Groupe 6999"><g id="Groupe_6998" data-name="Groupe 6998"><path id="Tracé_15786" data-name="Tracé 15786" class="cls-1" d="M30,126.39H30a1.17,1.17,0,0,1-1-.43,1.18,1.18,0,0,1-.27-.49l0,0a36.61,36.61,0,0,1-.83-6.17c-.25-2.87-.54-6.53-.8-10.92-.58-9.51-.94-19.11-1.35-28.66a16.82,16.82,0,0,0-2.33-3.6,33.11,33.11,0,0,0-2.82-2.86l-.12-.12A16.54,16.54,0,0,0,7.57,68.56l-.64.18a32,32,0,0,1-4.83,1,6.55,6.55,0,0,1-1,0,1.17,1.17,0,0,1-1-.72A.9.9,0,0,1,0,68.8a1.67,1.67,0,0,1,.51-1.19c1-.89,3.16-1.49,6.5-1.8,1-.09,2.1,0,3-.11,1.27-.1,3.15-.58,5.23-1,2.6-.45,5.82-1,9.64-1.71q-1.1-26.8-2.62-53.58a5.08,5.08,0,0,1-1.56-2.58c-.05-.3-.08-.58-.11-.87a7.42,7.42,0,0,1,.15-2.1,8.43,8.43,0,0,1,.65-2,3.31,3.31,0,0,1,.57-1A1.59,1.59,0,0,1,23.24,0c.66-.06,1,.21,1.06.81.1,2.92.14,4.38.24,7.29.31,8.24.75,16.48,1.19,24.71.52,9.93,1,19.86,1.43,29.79q8.5-1.55,17-3,11.31-2,22.6-3.84c-.39-14.31-.89-28.66-.52-43,0-1.76.15-2.94.2-3.46a2.89,2.89,0,0,1,.68-1.91,3.11,3.11,0,0,1,1-.33.72.72,0,0,1,.41.08.87.87,0,0,1,.39.72,6.62,6.62,0,0,1-.1,1.48c-.43,4.86-.37,9.76-.32,14.63,0,3.28,0,4.92,0,8.2,0,7.75,0,15.49.2,23.24q7.59-1.26,15.18-2.46a.74.74,0,0,1,.68.33,1.05,1.05,0,0,1,.22.57,2.22,2.22,0,0,1-.06.51c0,.23-.31.47-.79.7a1,1,0,0,1-.33.07,1.33,1.33,0,0,1-.55-.09,3.42,3.42,0,0,0-1.15-.12l-.49.05c-2.12.34-4.6.73-7.47,1.16q-3.07.47-5.2.82c.08,6.49.14,13,.28,19.45.2,10,.6,20,1.3,29.93a20.88,20.88,0,0,0,1.31,5.88,9.73,9.73,0,0,1,.35,1.2,1.33,1.33,0,0,1-.4,1.18,1.27,1.27,0,0,1-.7.28,1.9,1.9,0,0,1-.58-.09c-.26-.07-.46-.4-.58-1a83.94,83.94,0,0,1-.85-8.36q-.34-5-.71-12c-.61-12.06-1-24.12-1.43-36.19-3.09.41-7.1,1-12,1.94-2.61.48-6,1.11-10.27,1.84-3.86.66-6.94,1.18-9.22,1.54s-4.94.79-8.18,1.37q.07,1.71.15,2.88c0,.79.09,1.73.14,2.84.21,4.21.32,6.31.53,10.52,3.31,7.12,4.71,14.68,5.49,22.28,0,.16.09,1.25.23,3.25a69,69,0,0,1,0,7.88c-.22,5-.8,8.63-1.78,10.86a3.6,3.6,0,0,1-1.38,1.77A1.25,1.25,0,0,1,30,126.39ZM25.6,76.49c-.05-.8-.11-1.63-.18-2.48-.06-.68-.09-1-.14-1.7-.08-.86-.15-1.71-.19-2.54S25,67,24.84,64.44c-1.39.22-3,.5-4.73.83s-3.37.66-4.82,1a25,25,0,0,0-2.83.73,19.31,19.31,0,0,1,4.83,2,25.53,25.53,0,0,1,4.14,3,25.3,25.3,0,0,1,4.17,4.54Zm5.26,45.73c.16,0,.31-.17.42-.46a19.13,19.13,0,0,0,.83-3.67c.21-1.51.33-3.06.4-4.63a96.61,96.61,0,0,0-.26-11.54,64.16,64.16,0,0,0-3-14.9A34.64,34.64,0,0,0,28,83.45q.24,4.81.64,12c.43,7.69.86,15.39,1.47,23.06.08,1,.12,1.47.21,2.44s.27,1.26.59,1.24Z"/><path id="Tracé_15787" data-name="Tracé 15787" class="cls-1" d="M84.49,78.67a2.93,2.93,0,0,1-1.24-.18q-1.64-.94-1.87-4.49A86,86,0,0,1,82,63.85a1.23,1.23,0,0,1-.14-.47,1.67,1.67,0,0,1,.57-1.33l.19-.18a1.67,1.67,0,0,1,.91-.45,1.21,1.21,0,0,1,1,.37.78.78,0,0,1,.25.5c-.21,1.5-.31,2.25-.52,3.76a39.59,39.59,0,0,0-.54,7.53c.14,2.16.66,3.2,1.56,3.15.66,0,1.54-.72,2.64-2a58.65,58.65,0,0,0,5.65-12.09q.64-3.49,2.67-3.62a1.64,1.64,0,0,1,.73.1c.22.08.35.37.38.81a6,6,0,0,1-.18,1.46,28.58,28.58,0,0,0-.26,3.57,18.89,18.89,0,0,0,0,2.18c.22,3.78,1.62,5.59,4.18,5.43h.18c1.19-.07,2.76-.89,4.63-2.47a23,23,0,0,0,3.85-4.21.72.72,0,0,1,.51-.33h.19c.11,0,.21.08.29.24a.3.3,0,0,1,.05.16.69.69,0,0,1-.16.45l-.47.63a22,22,0,0,1-3.49,3.6l-.64.55a10.2,10.2,0,0,1-6,3,4.78,4.78,0,0,1-2-.34,6.22,6.22,0,0,1-3.26-4.33,21.69,21.69,0,0,1-.45-3.4c0-.39,0-.85,0-1.38v-.27c0-.12,0-.18-.06-.17a4.82,4.82,0,0,0-.63,1.6,55.89,55.89,0,0,1-3.86,7.84Q87.06,78.51,84.49,78.67Z"/><path id="Tracé_15788" data-name="Tracé 15788" class="cls-1" d="M112.08,77.86a1.65,1.65,0,0,1-1.27-.44,4.22,4.22,0,0,1-1.26-2.26,12.44,12.44,0,0,1-.26-1.93c0-.35,0-.7,0-1.07a59.4,59.4,0,0,1,1-7.63c.36-2.1.63-3.71.86-4.79a2.55,2.55,0,0,1-.43-1.3,5.18,5.18,0,0,1,.52-2.36,11.42,11.42,0,0,1,.81-1.55,2.21,2.21,0,0,1,1.64-1.24,1.2,1.2,0,0,1,.38,0,.84.84,0,0,1,.67.85v.25c-.26,1.07-.39,1.6-.66,2.68-.44,1.78-.88,3.89-1.3,6.31-.06.43-.15.92-.25,1.46a46.53,46.53,0,0,0-.94,7.54c0,.2,0,.49.07.87a5.38,5.38,0,0,0,.22,1.13c.12.38.29.56.5.54h0c.49-.19,1-.87,1.42-2s.86-2.34,1.22-3.54c.74-2.31,1.6-4.74,2.6-7.29A9.06,9.06,0,0,1,119,59.61a3.24,3.24,0,0,1,2.23-1.22h.08a2.06,2.06,0,0,1,1,.2,2.64,2.64,0,0,1,.78.59c.81,1,1.44,2.92,1.94,5.78A23,23,0,0,0,126,69.37l.12.26a.49.49,0,0,0,.37.2.65.65,0,0,0,.35-.2A6.74,6.74,0,0,0,128,67.39a20.41,20.41,0,0,1,1.3-2.76,7.68,7.68,0,0,1,1-1.5,2.08,2.08,0,0,1,1.38-.68,1.75,1.75,0,0,1,1.19.33,10.75,10.75,0,0,1,2.54,3.41l.1.18c.56.95,1.11,1.8,1.64,2.55q1.65,2.49,3.56,2.41a5.44,5.44,0,0,0,3.5-2.11A32.45,32.45,0,0,0,147.36,65L148,64a.54.54,0,0,1,.37-.21c.23,0,.39.12.49.4l0,.14a.75.75,0,0,1-.16.45l-.63.93q-.63.93-1.59,2.16a23.36,23.36,0,0,1-2,2.23,9.66,9.66,0,0,1-2.95,2,4.68,4.68,0,0,1-1.61.38,5,5,0,0,1-1.83-.28,6,6,0,0,1-2.7-2,23.27,23.27,0,0,1-1.77-2.74c-.54-1-1.09-1.79-1.49-2.4s-.73-.92-1-.91c-.58,0-1.24,1-2,3l-.23.53c-.18.47-.34.93-.47,1.37a9.68,9.68,0,0,1-1,2.43,1.56,1.56,0,0,1-1.26.74A1.59,1.59,0,0,1,125,71.9a4.57,4.57,0,0,1-1.27-2.35c-.33-1.21-.65-2.6-.93-4.15a25.28,25.28,0,0,0-.93-3.84c-.33-.93-.74-1.39-1.2-1.36l-.4,0c-.25,0-.75.75-1.41,2.14a31.27,31.27,0,0,0-1.6,4.3c-.18.56-.36,1.1-.53,1.61-.26.75-.56,1.65-.89,2.69-.75,2.39-1.26,3.91-1.54,4.58C113.73,77,113,77.76,112.08,77.86Z"/><path id="Tracé_15789" data-name="Tracé 15789" class="cls-1" d="M167.51,71.54A4.11,4.11,0,0,1,163.66,69a10.84,10.84,0,0,1-.77-3.77c0-.11,0-.57,0-1.41a14.71,14.71,0,0,1,.07-2,9.9,9.9,0,0,1,.28-1.42,3,3,0,0,0,.15-.73s0-.05,0-.05-.07.05-.14.16a20.64,20.64,0,0,1-1.15,1.8c-.24.34-.55.81-.94,1.39q-4.83,7.4-9.14,7.58a4.91,4.91,0,0,1-2.65-.64,3.76,3.76,0,0,1-1.71-2,3.52,3.52,0,0,1-.21-1.11,6.76,6.76,0,0,1,.43-2.36,10.6,10.6,0,0,1,2.33-3.47,12.86,12.86,0,0,1,3.51-2.7,14,14,0,0,1,5.9-1.77,4.3,4.3,0,0,1,2.77.64,2.05,2.05,0,0,1,.45.85,6.8,6.8,0,0,1,.73-1.25,2,2,0,0,1,.47-.57,1.12,1.12,0,0,1,.89-.39,5.11,5.11,0,0,1,.55.05c.34.07.52.43.54,1.07a23.62,23.62,0,0,1-.42,3.93,25.1,25.1,0,0,0-.27,4.9,7.59,7.59,0,0,0,.18,1.5q.67,3.06,2.91,3,2.87-.1,6.58-4a35.71,35.71,0,0,0,2.53-3.34.74.74,0,0,1,.52-.25q.57,0,.57.36a1.25,1.25,0,0,1-.42.86q-4,5.33-8.25,7.21A7.27,7.27,0,0,1,167.51,71.54Zm-15.13-2.47a4.84,4.84,0,0,0,2.18-.71,12.22,12.22,0,0,0,2-1.5,25.81,25.81,0,0,0,5.3-7.06l.34-.6a4,4,0,0,1-1,.21,1.42,1.42,0,0,1-.29,0,.78.78,0,0,1-.43-.2,1.53,1.53,0,0,1-.39-.45,1.76,1.76,0,0,0-.48-.5,1.51,1.51,0,0,0-.91-.2h-.09q-2.85.75-6.17,4.27-2.29,2.43-2.2,4.65a2.24,2.24,0,0,0,.7,1.67,1.79,1.79,0,0,0,1.4.44Z"/><path id="Tracé_15790" data-name="Tracé 15790" class="cls-1" d="M179.43,72.47a1.43,1.43,0,0,1-.92-.27,2.14,2.14,0,0,1-.74-1.06,12.06,12.06,0,0,1-.45-3.27,40,40,0,0,1,1.43-11.25,2.9,2.9,0,0,1-.74-1.76Q178,53,181,50.6a2.62,2.62,0,0,1,1.24-.48.59.59,0,0,1,.47.16,1.12,1.12,0,0,1,.39.86,1.36,1.36,0,0,1,0,.4,33.23,33.23,0,0,0-2.32,6.56,36.83,36.83,0,0,0-1.13,9.63,8.47,8.47,0,0,0,.07,1.13c.08.44.27.7.44.7a.62.62,0,0,0,.28-.17,9,9,0,0,0,1.3-2.78c.23-.58.41-1,.54-1.31a31,31,0,0,1,2.83-5.3,3,3,0,0,1,2.15-1.5,1.41,1.41,0,0,1,1.15.51,3.9,3.9,0,0,1,.83,1.5,23.54,23.54,0,0,1,.62,3c0,.28.08.42.13.71q.72,4.71,2.45,5.71a3.19,3.19,0,0,0,1.36.28,5.71,5.71,0,0,0,2.24-.71,19.94,19.94,0,0,0,3.32-2.13,28.74,28.74,0,0,0,4.51-4.84,1.28,1.28,0,0,1,.61-.26.59.59,0,0,1,.32.09.34.34,0,0,1,.16.29,1.08,1.08,0,0,1-.24.57q-5,5.72-8.65,7.5a8.08,8.08,0,0,1-3.12.86,4.18,4.18,0,0,1-4.15-2.91,18.6,18.6,0,0,1-1-4.09c-.22-1.37-.48-2.53-.68-3.36-.11-.47-.32-.7-.6-.7s-.5.24-.81.68a30.83,30.83,0,0,0-2.42,4.58c-.59,1.33-1.11,2.62-1.56,3.88l-.2.52a4.5,4.5,0,0,1-1.18,2A1.2,1.2,0,0,1,179.43,72.47Z"/><path id="Tracé_15791" data-name="Tracé 15791" class="cls-1" d="M235.73,72.94a4.69,4.69,0,0,1-3.84-1.58,7.2,7.2,0,0,1-1.41-4.43v-.62a19.6,19.6,0,0,1,.9-5.88c.91-2.77,2.2-4.71,3.89-5.81a3.71,3.71,0,0,1,2.3-.71A2.51,2.51,0,0,1,239.46,55a2.81,2.81,0,0,1,.56,1.55,4.16,4.16,0,0,1-1.46,3.14,5.31,5.31,0,0,1-3.65,1.5,10.77,10.77,0,0,1-1.09-.11c-.14,0-.23.09-.27.25a20.22,20.22,0,0,0-.79,4.5v.55c0,.3,0,.6,0,.88a6.35,6.35,0,0,0,.71,3.17,2.76,2.76,0,0,0,2.43,1.07l.61,0c2.25,0,5.56-1.76,9.73-5.22a55.22,55.22,0,0,0,5.26-4.64.44.44,0,0,1,.31-.13.46.46,0,0,1,.43.25.46.46,0,0,1,.11.3,1.18,1.18,0,0,1-.46.78c-1.86,1.65-2.78,2.48-4.63,4.14a52.44,52.44,0,0,1-5.66,4.16,12.68,12.68,0,0,1-5.21,1.81A4.48,4.48,0,0,1,235.73,72.94Zm-.6-12.87a3.63,3.63,0,0,0,2.57-1.22,2.82,2.82,0,0,0,.92-2.05c0-.57-.31-.88-.81-.88a2.07,2.07,0,0,0-1.26.55,9.48,9.48,0,0,0-1.21,1.32,11.94,11.94,0,0,0-1.07,1.65.55.55,0,0,0-.09.3.29.29,0,0,0,.07.18.55.55,0,0,0,.35.12,4.58,4.58,0,0,0,.53,0Z"/><path id="Tracé_15792" data-name="Tracé 15792" class="cls-1" d="M253,73.55a1.65,1.65,0,0,1-1.24-.51,4.17,4.17,0,0,1-1.15-2.31,11.57,11.57,0,0,1-.16-2c0-.34,0-.7,0-1.06a59.31,59.31,0,0,1,1.36-7.58c.46-2.07.81-3.67,1.09-4.73a2.59,2.59,0,0,1-.37-1.33,5.28,5.28,0,0,1,.64-2.33,12.64,12.64,0,0,1,.88-1.51,2.25,2.25,0,0,1,1.7-1.16,1.58,1.58,0,0,1,.38.05.85.85,0,0,1,.63.89l0,.24c-.32,1.06-.47,1.59-.79,2.65q-.8,2.64-1.61,6.24c-.09.43-.19.91-.32,1.44a46.41,46.41,0,0,0-1.31,7.49c0,.2,0,.49,0,.87A5,5,0,0,0,253,70.1c.1.37.25.56.47.56h0c.5-.17,1-.82,1.52-2s1-2.29,1.39-3.48c.85-2.27,1.83-4.65,3-7.15a8.76,8.76,0,0,1,1.47-2.41,3.24,3.24,0,0,1,2.29-1.11h.07a2,2,0,0,1,1,.26,2.49,2.49,0,0,1,.75.62c.76,1,1.29,3,1.66,5.87a23.37,23.37,0,0,0,.83,4.46l.11.27a.49.49,0,0,0,.36.21.62.62,0,0,0,.36-.18,6.71,6.71,0,0,0,1.23-2.18,21,21,0,0,1,1.43-2.69,7.73,7.73,0,0,1,1.1-1.44,2,2,0,0,1,1.41-.61,1.74,1.74,0,0,1,1.18.39,10.43,10.43,0,0,1,2.36,3.53l.09.18c.51,1,1,1.85,1.51,2.62,1,1.72,2.16,2.58,3.44,2.59a5.39,5.39,0,0,0,3.6-1.94,32.67,32.67,0,0,0,3.33-4.09l.64-.9a.54.54,0,0,1,.38-.19c.23,0,.38.14.47.43v.14a.7.7,0,0,1-.18.44l-.68.9c-.45.6-1,1.3-1.69,2.08a23.46,23.46,0,0,1-2.09,2.14,9.86,9.86,0,0,1-3,1.88,4.74,4.74,0,0,1-1.63.29,5.17,5.17,0,0,1-1.82-.36,6.1,6.1,0,0,1-2.59-2.13A23.4,23.4,0,0,1,275,64.31c-.49-1-1-1.83-1.36-2.46s-.68-1-1-1c-.58,0-1.28,1-2.11,2.94l-.26.51c-.2.47-.38.91-.54,1.35a9.69,9.69,0,0,1-1.15,2.38,1.58,1.58,0,0,1-1.3.67,1.56,1.56,0,0,1-1.14-.5,4.51,4.51,0,0,1-1.16-2.4c-.27-1.23-.52-2.63-.72-4.19a27,27,0,0,0-.74-3.89c-.28-.94-.67-1.42-1.13-1.42l-.4,0c-.24,0-.78.72-1.51,2.07a33.29,33.29,0,0,0-1.81,4.22c-.2.55-.4,1.08-.61,1.58-.3.74-.64,1.62-1,2.65q-1.31,3.51-1.76,4.49C254.73,72.71,253.92,73.49,253,73.55Z"/><path id="Tracé_15793" data-name="Tracé 15793" class="cls-1" d="M291.8,110.18h-.1q-.75,0-1.26-1.23a35.06,35.06,0,0,1-1.26-6.34c-.31-2.56-.48-4.83-.61-6.67-.27-3.82-.51-8.27-.48-13.11,0-1.62.06-4.6.23-8.88a187.12,187.12,0,0,1,2.34-20.84L290.5,53a1.48,1.48,0,0,1-.63-1.15,3.31,3.31,0,0,1,.22-1,10,10,0,0,1,1.25-2.12,1.43,1.43,0,0,1,1.15-.77,1,1,0,0,1,.79.32.93.93,0,0,1,.31.7V49c-.94,6-1.84,12.05-2.44,18-.61,6.14-.9,12.4-1.14,18.65a117.44,117.44,0,0,1,2.38-16c1.43-5.87,4-12.17,9-16a2.32,2.32,0,0,1,1.26-.45,2.84,2.84,0,0,1,.7.16,1.91,1.91,0,0,1,.92,1,3.91,3.91,0,0,1,.49,1.8c0,.57,0,1.19,0,1.84,0,1.4-.07,3-.2,4.66-.11,1.36-.2,2.63-.21,3.79,0,2.42.14,3.94.52,4.49a1.82,1.82,0,0,0,1.5.89q1.6,0,4-2.2A27,27,0,0,0,313,66.9a19.83,19.83,0,0,0,2.63-4.23l.42-.84a.81.81,0,0,1,.59-.31.67.67,0,0,1,.41.13.45.45,0,0,1,.14.38v.15l-.48.81a33.5,33.5,0,0,1-3.18,4.47q-4,4.92-8.1,5.77a3,3,0,0,1-.42,0,2.44,2.44,0,0,1-1.12-.31,2.41,2.41,0,0,1-.95-.87,6.06,6.06,0,0,1-.73-2.63c-.08-1-.12-2.14-.11-3.3s.08-2.37.19-3.63c.14-1.6.21-3.11.23-4.53,0-.62,0-1.19,0-1.69a.82.82,0,0,0-.77-.86h-.13a2.8,2.8,0,0,0-1.63.88,13.18,13.18,0,0,0-2.28,3,44.38,44.38,0,0,0-5.59,16.92c-.28,2-.47,3.8-.61,5.37-.07.69-.17,1.39-.22,2-.12,1.56-.1,3.19-.1,4.69q0,3,.11,6.61c.09,2.41.24,4.71.47,6.88s.44,3.84.63,5l.3,1.76C292.63,109.58,292.35,110.11,291.8,110.18Z"/><path id="Tracé_15794" data-name="Tracé 15794" class="cls-1" d="M318.86,74.3h-.09A3.09,3.09,0,0,1,316.56,73,8.55,8.55,0,0,1,315,67.41a22.87,22.87,0,0,1,1.15-6.18,5.74,5.74,0,0,1-.91-3.12,4.06,4.06,0,0,1,1.63-3.27,5.12,5.12,0,0,1,3.3-1.13l1,0c.62,0,1.34.59,2.16,1.7A6.77,6.77,0,0,1,324.5,58a12.15,12.15,0,0,1,.21,2.82c0,1.09-.06,2.18-.12,3.28l1.6.06a29.08,29.08,0,0,0,5.35-.39,11.51,11.51,0,0,0,4.56-1.66,1.51,1.51,0,0,1,.59-.15.47.47,0,0,1,.43.26.46.46,0,0,1,.05.23c0,.25-.2.51-.6.77a24.89,24.89,0,0,1-10.87,2.05l-1.23,0c-.16,1.08-.37,2.13-.62,3.13a10,10,0,0,1-2.58,4.95A3.55,3.55,0,0,1,318.86,74.3Zm.75-1.76c.79,0,1.43-.68,2-1.9a21,21,0,0,0,1.49-5.45,11,11,0,0,1-5.18-1.93,19.42,19.42,0,0,0-.64,4.3,8.54,8.54,0,0,0,.2,2.14,5.44,5.44,0,0,0,.92,2.07,2.13,2.13,0,0,0,.76.7A2.34,2.34,0,0,0,319.61,72.54Zm3.6-8.53c.07-.71.1-1.38.11-2a16.24,16.24,0,0,0-.2-3.48,7.25,7.25,0,0,0-.71-1.73,2.59,2.59,0,0,0-2.2-1.58l-.53,0a2.24,2.24,0,0,0-1.12.65,3.49,3.49,0,0,0-.85,1.51,3.24,3.24,0,0,0-.17,1,8.14,8.14,0,0,0,.21,1.55q1.23,3.41,5.47,4.1Z"/><path id="Tracé_15795" data-name="Tracé 15795" class="cls-1" d="M353.35,77.69h-.11c-1.52,0-2.71-1-3.54-2.76a25.72,25.72,0,0,1-1.64-5.1c-.56-2.55-1-4.18-1.17-4.83a1.09,1.09,0,0,1-.05-.17,3.27,3.27,0,0,0-.46-1.11h0c-.16,0-.42.26-.78.69a32.68,32.68,0,0,0-2.29,3.2l0,0q-2.1,3.27-3.35,3.9a2,2,0,0,1-1,.19,1.65,1.65,0,0,1-.93-.29,3.55,3.55,0,0,1-1.29-1.82,18.8,18.8,0,0,1-.63-6,27.91,27.91,0,0,1,1.43-8.69,9.13,9.13,0,0,1,1.12-2.2,3.24,3.24,0,0,1,1.92-1.3c.82.13,1.31.45,1.45,1a2,2,0,0,1,.08.59,3.53,3.53,0,0,1-.35,1.24,5,5,0,0,1-1,1.45,2.5,2.5,0,0,1-1.21.81,22.4,22.4,0,0,0-1.18,7.26c-.06,2.71.23,4.58.88,5.58a.9.9,0,0,0,.62.32,1.2,1.2,0,0,0,.53-.15,5.67,5.67,0,0,0,1.71-1.9,2.75,2.75,0,0,1,.19-.28,30.37,30.37,0,0,0,2.87-4.61,3.67,3.67,0,0,1,.53-.92,1.07,1.07,0,0,1,.93-.4c1.11,0,1.94,1,2.49,3,.32,1.17.72,2.83,1.2,5A21.65,21.65,0,0,0,351.75,74c.51,1.05,1.14,1.68,1.66,1.71,1.28.08,2.56-1,3.57-3a46.31,46.31,0,0,0,3.1-8.71,69.1,69.1,0,0,0,2.33-16.11c0-1.5,0-2.93,0-4.24v-.11c0-.5.26-.75.73-.74s.75.24.78.61a24.51,24.51,0,0,1,0,3.09,93.68,93.68,0,0,1-2.83,17.92,35.39,35.39,0,0,1-1.45,4.94,23.32,23.32,0,0,1-3.72,7A3.54,3.54,0,0,1,353.35,77.69Z"/><path id="Tracé_15796" data-name="Tracé 15796" class="cls-1" d="M399.54,79.23a3.23,3.23,0,0,1-3.07-2.62c-.45-1.56-.7-4.87-.82-9.76,0-1-.06-1.91-.08-2.59a1.19,1.19,0,0,0-.56-1.1,8.41,8.41,0,0,0-2.09-.57c-.6-.12-1.39-.32-2.3-.51-.73-.15-1.29-.26-1.6-.35-2.19,3-4.19,5.64-6,7.75a24.68,24.68,0,0,1-6.32,5.38,8.15,8.15,0,0,1-4.34,1.28,5.54,5.54,0,0,1-4.08-1.94,8,8,0,0,1-1.7-5.75c0-.21,0-.32,0-.53a20.64,20.64,0,0,1,1.13-5.21,12.92,12.92,0,0,1,1.93-3.58,9,9,0,0,1,2.26-2.05,3.58,3.58,0,0,1,2.05-.62l.26,0a2.57,2.57,0,0,1,1.84,1.15,2.84,2.84,0,0,1,.45,1.56v.26A4.1,4.1,0,0,1,375,62.28a5.31,5.31,0,0,1-3.75,1.33,3.83,3.83,0,0,1-1-.14l-.14,0c-.12,0-.2.07-.25.22a20.26,20.26,0,0,0-1,4.47c0,.22,0,.33,0,.55-.07,2.12.28,3.66,1.05,4.61a4.11,4.11,0,0,0,1.26,1,3.39,3.39,0,0,0,1.43.32q3.1.12,6.91-3.41a41.36,41.36,0,0,0,5.89-6.65c1.14-1.63,1.91-2.8,2.31-3.5a3.19,3.19,0,0,1-.57-.59,3.06,3.06,0,0,1-.59-1.94,7.17,7.17,0,0,1,.34-1.51,3.49,3.49,0,0,1,1.92-1.87,2.27,2.27,0,0,1,1.08-.24,1.89,1.89,0,0,1,1.72,1.1,2.29,2.29,0,0,1,.21,1.09,4.5,4.5,0,0,1-.41,1.58,2.88,2.88,0,0,0-.32,1c0,.75.84,1.16,2.55,1.3a14,14,0,0,1,1.6.23,2.7,2.7,0,0,1,2.34,2.13,14,14,0,0,1,.23,2.51.14.14,0,0,1,0,.09,50.77,50.77,0,0,0,.88,10.22,1.55,1.55,0,0,0,1.44,1.25l.73,0a3.45,3.45,0,0,0,1.81-1.18A35.41,35.41,0,0,0,409.9,65.7c.34-.6.69-.89,1-.87s.39.25.36.71v.23q-2,3.54-4,6.55a27.34,27.34,0,0,1-4.86,5.81A4.2,4.2,0,0,1,399.54,79.23Zm-28-16.71a3.68,3.68,0,0,0,2.67-1.11,3.29,3.29,0,0,0,.78-1.1,2.47,2.47,0,0,0,.21-.85c0-.61-.24-.93-.78-1a1.94,1.94,0,0,0-1.22.46,9.33,9.33,0,0,0-1.3,1.29,12,12,0,0,0-1.15,1.6.56.56,0,0,0-.12.3.27.27,0,0,0,.06.17.47.47,0,0,0,.33.14,3.05,3.05,0,0,0,.52.05Z"/><path id="Tracé_15797" data-name="Tracé 15797" class="cls-1" d="M411.21,77a1.66,1.66,0,0,1-1.21-.57,4.22,4.22,0,0,1-1-2.38,11.55,11.55,0,0,1-.05-1.95c0-.34,0-.7.09-1.06a58.64,58.64,0,0,1,1.78-7.49c.57-2,1-3.62,1.35-4.67a2.61,2.61,0,0,1-.3-1.34,5.2,5.2,0,0,1,.77-2.29,11.86,11.86,0,0,1,1-1.46,2.26,2.26,0,0,1,1.77-1.06,1.27,1.27,0,0,1,.38.07.83.83,0,0,1,.57.92l0,.24-.93,2.6c-.64,1.74-1.29,3.78-2,6.15-.1.42-.24.89-.4,1.42a46.75,46.75,0,0,0-1.72,7.4q0,.3,0,.87a4.93,4.93,0,0,0,.11,1.15c.07.38.22.58.44.59h0c.52-.14,1.06-.76,1.63-1.87s1.1-2.24,1.58-3.4q1.45-3.33,3.35-7a9.23,9.23,0,0,1,1.6-2.32,3.26,3.26,0,0,1,2.35-1h.07a1.89,1.89,0,0,1,1,.31,2.49,2.49,0,0,1,.71.66c.71,1.05,1.13,3.06,1.33,6A23.51,23.51,0,0,0,426,70l.09.27a.49.49,0,0,0,.35.23.61.61,0,0,0,.37-.15,6.73,6.73,0,0,0,1.35-2.11,20.36,20.36,0,0,1,1.58-2.61,7.42,7.42,0,0,1,1.18-1.38,2,2,0,0,1,1.44-.53,1.73,1.73,0,0,1,1.16.46,10.39,10.39,0,0,1,2.16,3.65l.08.18c.46,1,.92,1.92,1.36,2.71q1.38,2.66,3.29,2.77a5.38,5.38,0,0,0,3.7-1.73,32.11,32.11,0,0,0,3.56-3.9l.69-.86a.52.52,0,0,1,.39-.17c.23,0,.38.17.44.45,0,.06,0,.09,0,.15a.73.73,0,0,1-.21.43l-.72.86c-.48.57-1.09,1.23-1.81,2a22.14,22.14,0,0,1-2.21,2,9.6,9.6,0,0,1-3.14,1.71,4.54,4.54,0,0,1-1.64.2,5.14,5.14,0,0,1-1.8-.46,6.2,6.2,0,0,1-2.46-2.25A22.79,22.79,0,0,1,433.71,69c-.44-1-.9-1.89-1.23-2.54s-.63-1-.94-1q-.87,0-2.28,2.82l-.28.5c-.23.45-.44.88-.62,1.31a9.36,9.36,0,0,1-1.29,2.31,1.55,1.55,0,0,1-1.33.6,1.6,1.6,0,0,1-1.11-.56,4.49,4.49,0,0,1-1-2.47c-.2-1.23-.37-2.65-.49-4.22a25.81,25.81,0,0,0-.52-3.92c-.23-1-.59-1.45-1.05-1.48h-.4c-.24,0-.82.67-1.63,2a33.43,33.43,0,0,0-2,4.11c-.23.54-.47,1.05-.7,1.55q-.51,1.06-1.17,2.58-1.5,3.43-2,4.39C413,76.28,412.1,77,411.21,77Z"/><path id="Tracé_15798" data-name="Tracé 15798" class="cls-1" d="M452.16,78.59a4.68,4.68,0,0,1-3.71-1.87,7.11,7.11,0,0,1-1.07-4.52l.06-.62a19.53,19.53,0,0,1,1.34-5.79c1.11-2.69,2.55-4.53,4.32-5.5a3.67,3.67,0,0,1,2.35-.54,2.49,2.49,0,0,1,1.79,1.2,2.72,2.72,0,0,1,.44,1.59,4.15,4.15,0,0,1-1.7,3,5.22,5.22,0,0,1-3.75,1.22,9.33,9.33,0,0,1-1.08-.19.26.26,0,0,0-.28.23,20,20,0,0,0-1.14,4.42c0,.22,0,.33,0,.55s-.07.6-.09.88a6.3,6.3,0,0,0,.46,3.21,2.75,2.75,0,0,0,2.35,1.25l.61,0c2.24.15,5.67-1.33,10.1-4.46a57.46,57.46,0,0,0,5.6-4.23.47.47,0,0,1,.67.08.24.24,0,0,1,.06.09.56.56,0,0,1,.09.31,1.15,1.15,0,0,1-.53.74l-4.93,3.78a50.29,50.29,0,0,1-6,3.72,12.78,12.78,0,0,1-5.34,1.41Zm.38-12.88a3.65,3.65,0,0,0,2.66-1,2.76,2.76,0,0,0,1.07-2c0-.58-.24-.9-.74-.94a2.11,2.11,0,0,0-1.3.45,9.46,9.46,0,0,0-1.3,1.23,12.93,12.93,0,0,0-1.2,1.56.79.79,0,0,0-.11.29.24.24,0,0,0,.07.18.53.53,0,0,0,.33.15,4.34,4.34,0,0,0,.52.07Z"/><path id="Tracé_15799" data-name="Tracé 15799" class="cls-1" d="M503.8,106q-1.35-.11-2.9-9.76a106.15,106.15,0,0,1-1.15-13.56,129,129,0,0,1,.43-14c.25-3.18.63-6.54,1.1-10.05.25-1.91.67-4.6,1.25-8.05A147.84,147.84,0,0,1,491.7,69a33.69,33.69,0,0,1-6.05,6.73,5.71,5.71,0,0,1-4,1.47c-1.07-.08-1.94-1-2.44-2.76a18.35,18.35,0,0,1-.62-4.17c-.08-1.4-.22-2.57-.33-3.42a.89.89,0,0,0-.33-.66.4.4,0,0,0-.2-.09c-.23,0-.52.18-.88.6A31.86,31.86,0,0,0,474,71c-.72,1.26-1.38,2.5-1.94,3.7l-.26.5A4.59,4.59,0,0,1,470.46,77a1.3,1.3,0,0,1-.87.26,1.44,1.44,0,0,1-.9-.36,2.08,2.08,0,0,1-.62-1.13,12.11,12.11,0,0,1-.12-3.29,40,40,0,0,1,2.57-11,3,3,0,0,1-.55-1.81q.13-1.84,3.38-4a2.73,2.73,0,0,1,1.28-.35.62.62,0,0,1,.46.21,1.09,1.09,0,0,1,.3.89,1.77,1.77,0,0,1-.08.4,31.76,31.76,0,0,0-3,6.29,37.09,37.09,0,0,0-2.08,9.36c-.09,1.29,0,2,.3,2a.64.64,0,0,0,.3-.14,9.81,9.81,0,0,0,1.6-2.65c.26-.52.47-.93.65-1.24a31.5,31.5,0,0,1,3.36-5,3,3,0,0,1,2.3-1.27,1.43,1.43,0,0,1,1.09.63,3.86,3.86,0,0,1,.66,1.56,24,24,0,0,1,.34,3l0,.72a14.84,14.84,0,0,0,.85,4.57c.34.83.7,1.27,1.07,1.29h.07A5.26,5.26,0,0,0,485,74.92a33,33,0,0,0,5.83-6.54,135.37,135.37,0,0,0,12.46-21.83c.26-1.09.48-2.23.66-3.41-5.08-.1-10.2-.11-15.27,0a53.3,53.3,0,0,0-8.28.62l.2.21a.65.65,0,0,1,.13.38.4.4,0,0,1-.24.32,3.79,3.79,0,0,1-2.05.24,8.28,8.28,0,0,1-2.73-.62c-.7-.3-1-.63-1-1s.33-.58.94-.78a11.76,11.76,0,0,1,2.12-.45c.81-.1,1.51-.16,2.11-.19,8.13-.28,22.32,1.48,24.35-.15,1.29-1,1.84-7.88,2.41-10.11a9.48,9.48,0,0,1,1.1-2.86c.46-.68.94-1,1.35-1s.92.62,1.1,1.62a2.73,2.73,0,0,1,.17.85,19,19,0,0,1-.1,2.5,34.86,34.86,0,0,1-2.11,9.12c11,.44,23.75-.21,32.84,2a.69.69,0,0,1,.6.66.86.86,0,0,1-.33.57l-.33.26c-2-.25-4.09-.47-6.33-.68-9-.83-18-1.19-27-1.45v0a30.82,30.82,0,0,1-2,4.06l-.15.27-.57,2.57c-.34,1.38-.68,3.06-1,5s-.8,5-1.31,9.15c-.44,3.58-.77,6.83-1,9.73s-.39,6.28-.43,9.71a63.88,63.88,0,0,0,1.06,11.55,17.07,17.07,0,0,0,.92,3.38c.38,1,.76,1.81,1.13,2.54a7,7,0,0,1,1,3.14,2.85,2.85,0,0,1-.12.58C504.78,105.73,504.36,106.09,503.8,106Z"/></g></g></g></svg>