<svg id="Layer_1" data-name="Layer 1" xmlns="http://www.w3.org/2000/svg" viewBox="0 0 122.9 114.5"><defs><style>.cls-1{fill:#181e2f;}</style></defs><g id="Groupe_27514" data-name="Groupe 27514"><path id="Tracé_29564" data-name="Tracé 29564" class="cls-1" d="M122.9,48.82a1.94,1.94,0,0,0-.22.4c-1.76,6.65-8.73,9.21-14.4,5.27l-.91-.6V83.51c0,1.73-.62,2.6-1.8,2.6s-1.81-.9-1.81-2.61c0-10.31,0-20.63,0-30.94a2.34,2.34,0,0,0-1.09-2.17Q82.46,35.71,62.27,21a1.24,1.24,0,0,0-1.74-.05v0Q40.19,35.78,19.81,50.57A1.83,1.83,0,0,0,19,52.25q0,28.55,0,57.07c0,1.52,0,1.56,1.54,1.56H30.86c.35,0,.7,0,1.18-.06V106a4.27,4.27,0,0,1,3.89-4.6,3.64,3.64,0,0,1,.66,0c1.08,0,2.15,0,3.38,0V69.31a8,8,0,0,1,0-1.2A1.78,1.78,0,0,1,43.52,68a5.31,5.31,0,0,1,0,1.32v32H79.15V51.21c0-1.66,0-1.66-1.65-1.66H45.19c-1.6,0-1.6,0-1.6,1.59v8.79c0,1.48-.71,2.35-1.84,2.33S40,61.4,40,60c0-3.21,0-6.42,0-9.63A4.16,4.16,0,0,1,43.91,46H78.36c2.71,0,4.41,1.79,4.41,4.61v50.82h3.29c2.93,0,4.62,1.73,4.64,4.64,0,1.57,0,3.13,0,4.87h11.43c1.61,0,1.63,0,1.63-1.59v-16c0-.32,0-.64,0-1a1.87,1.87,0,0,1,1.73-2h.08a1.8,1.8,0,0,1,1.79,1.82,1.37,1.37,0,0,1,0,.19c0,3.45,0,6.9,0,10.35v6.86c0,3.35-1.6,4.94-5,4.94q-26.79,0-53.59,0H20.59c-3.73,0-5.21-1.5-5.21-5.27V53.9c-.52.34-.85.54-1.16.76A9.07,9.07,0,0,1,3.61,40c5-3.76,10.16-7.42,15.24-11.12l8.75-6.37c.26-.19.51-.39.77-.56a1.83,1.83,0,0,1,2.58.27l.08.09a1.78,1.78,0,0,1-.43,2.47l-.1.07c-2,1.51-4.07,3-6.11,4.47L5.92,42.71a5.37,5.37,0,0,0-2.4,5.41,5.18,5.18,0,0,0,3.8,4.39,5.62,5.62,0,0,0,5.2-1.06q10.86-8,21.76-15.85L59.74,17.07C61.2,16,61.56,16,63,17.09Q86.26,34,109.5,50.88A9.74,9.74,0,0,0,113,52.62a5.17,5.17,0,0,0,5.85-3.16,5.38,5.38,0,0,0-1.77-6.56c-1.81-1.38-3.68-2.7-5.52-4L65.38,5.26c-3-2.18-5-2.17-8.07,0q-9.86,7.2-19.72,14.36c-.19.14-.38.3-.58.43a1.85,1.85,0,0,1-2.59-.26.61.61,0,0,1-.07-.1,1.74,1.74,0,0,1,.38-2.44l.13-.09c.91-.71,1.87-1.38,2.81-2.06L55.45,2.19c4-2.91,7.85-2.92,11.83,0l50.93,37a11.24,11.24,0,0,1,4.68,6.71Zm-87.24,62H87.1v-3.93c0-1.87,0-1.88-1.82-1.88H36.64c-.71,0-1,.32-1,1,0,1.56,0,3.13,0,4.78Z"/><path id="Tracé_29565" data-name="Tracé 29565" class="cls-1" d="M61.31,73.2c-2.44,0-4.88,0-7.32,0a4.13,4.13,0,0,1-4.4-3.87,4,4,0,0,1,0-.6q0-4.34,0-8.67a4.2,4.2,0,0,1,3.86-4.5,4.85,4.85,0,0,1,.66,0q7.26,0,14.53,0a4.18,4.18,0,0,1,4.51,3.84,4.85,4.85,0,0,1,0,.66c0,2.92,0,5.85,0,8.78a4.13,4.13,0,0,1-3.89,4.35,2.54,2.54,0,0,1-.39,0C66.36,73.23,63.84,73.2,61.31,73.2Zm.09-3.62c2.36,0,4.72,0,7.08,0,.75,0,1.09-.23,1.08-1,0-2.77,0-5.53,0-8.3,0-.85-.33-1.11-1.14-1.11q-7,0-14,0c-.86,0-1.22.26-1.2,1.17,0,2.72,0,5.45,0,8.17,0,.86.34,1.12,1.14,1.1,2.36,0,4.72,0,7.08,0Z"/><path id="Tracé_29566" data-name="Tracé 29566" class="cls-1" d="M51.4,83.23a1.82,1.82,0,0,1-1.8-1.84h0a1.79,1.79,0,0,1,1.76-1.75,1.82,1.82,0,0,1,1.82,1.7A1.86,1.86,0,0,1,51.4,83.23Z"/></g></svg>