<svg id="Layer_1" data-name="Layer 1" xmlns="http://www.w3.org/2000/svg" viewBox="0 0 115.31 115.32"><defs><style>.cls-1{fill:#ffffff;}</style> </defs><g id="Groupe_27515" data-name="Groupe 27515"><path id="Tracé_29570" data-name="Tracé 29570" class="cls-1" d="M46.83,99.29H61.58c2.51,0,3.19-.69,3.19-3.22V67.7c0-.56,0-1.13,0-1.69a6.79,6.79,0,0,1,13.56.73c0,9.87,0,19.74,0,29.61,0,2.15.77,2.93,2.9,2.94h15c2.5,0,3.17-.7,3.18-3.23V75.68c0-4.8.13-9.62-.12-14.41-.7-13.4-14-23-27-19.68a23.58,23.58,0,0,0-8.25,4c-.34-3.24-.68-3.54-3.81-3.54H46.71c-2.32,0-3,.69-3,3V96.22C43.71,98.58,44.43,99.29,46.83,99.29Zm1.46-52.61H59.44v4c0,1.66.42,2.42,1.54,2.8s1.83,0,2.85-1.23c4.55-5.47,10.37-7.8,17.33-6.32S92.69,52,94.49,59a16.82,16.82,0,0,1,.43,4.12c0,10.17,0,20.35,0,30.52,0,.33,0,.66-.06,1.06h-12V93.4c0-8.9,0-17.79,0-26.69a11.3,11.3,0,0,0-22.55-1.08c-.1,1.42-.08,2.85-.08,4.27V94.72h-12Z"/><path id="Tracé_29571" data-name="Tracé 29571" class="cls-1" d="M35.33,42.09q-7.54,0-15.09,0c-2.27,0-3,.7-3,2.93q0,25.68,0,51.35c0,2.15.78,2.92,2.92,2.92H35.26c2.31,0,3-.73,3-3V45C38.3,42.79,37.59,42.09,35.33,42.09Zm-1.6,52.64H21.83V46.68h11.9Z"/><path id="Tracé_29572" data-name="Tracé 29572" class="cls-1" d="M27.66,39.83a11.89,11.89,0,1,0-11.75-12A11.89,11.89,0,0,0,27.66,39.83Zm.08-19.28A7.39,7.39,0,1,1,20.42,28v0a7.41,7.41,0,0,1,7.32-7.42Z"/><path id="Tracé_29573" data-name="Tracé 29573" class="cls-1" d="M49.9,4.5h0Z"/><path id="Tracé_29574" data-name="Tracé 29574" class="cls-1" d="M49.9,0h0Z"/><path id="Tracé_29575" data-name="Tracé 29575" class="cls-1" d="M12.13,0h0Z"/><path id="Tracé_29576" data-name="Tracé 29576" class="cls-1" d="M6.61,4.5h0Z"/><path id="Tracé_29577" data-name="Tracé 29577" class="cls-1" d="M83.07,110.82H6.81a2.32,2.32,0,0,1-2.33-2.32V6.81A2.33,2.33,0,0,1,6.61,4.5h5.72a2.25,2.25,0,0,0,0-4.49h-10A2.32,2.32,0,0,0,0,2.33V113a2.32,2.32,0,0,0,2.32,2.32h61.2l0,0H82.72a2.25,2.25,0,0,0,.36-4.47Z"/><path id="Tracé_29578" data-name="Tracé 29578" class="cls-1" d="M113,0H29.21a2.25,2.25,0,0,0,0,4.49h79.3a2.32,2.32,0,0,1,2.32,2.32V108.51a2.31,2.31,0,0,1-2,2.29h.06l-.11,0h-5.89a2.25,2.25,0,0,0-.19,4.5H113a2.32,2.32,0,0,0,2.32-2.32V2.33A2.32,2.32,0,0,0,113,0Zm-4.06,110.8h0Z"/><circle id="Ellipse_870" data-name="Ellipse 870" class="cls-1" cx="20.3" cy="2.26" r="2.25"/><circle id="Ellipse_871" data-name="Ellipse 871" class="cls-1" cx="92.7" cy="113.07" r="2.25"/></g></svg>