<svg id="Layer_1" data-name="Layer 1" xmlns="http://www.w3.org/2000/svg" viewBox="0 0 116 106.62"><defs><style>.cls-1{fill:#ffffff;}</style> </defs><g id="Groupe_27513" data-name="Groupe 27513"><path id="Tracé_29563" data-name="Tracé 29563" class="cls-1" d="M116,72.61v2.27c-.81,2.67-2.43,4.5-5.3,4.91a12.27,12.27,0,0,1-2.71,0c-.84-.08-1.17.29-1.43,1a17.89,17.89,0,0,0-.35,11.45c.65,2.15.64,2.19,2.86,2.15,2.6,0,4.75.75,6.12,3.09A17.71,17.71,0,0,1,116,99.4v2.27c-1.65,4-3.11,5-7.47,5H11c-.46,0-.91,0-1.36,0A9.93,9.93,0,0,1,0,96.57Q0,87.17,0,77.74A9.74,9.74,0,0,1,5.15,69c.28-.16.55-.33.82-.5a6.1,6.1,0,0,1,4.58-9.41,17.35,17.35,0,0,1,2.6,0c.7.05,1-.25,1.2-.87a18,18,0,0,0,.55-11.24c-.69-2.53-.7-2.52-3.28-2.53h-.45a6.06,6.06,0,0,1-.24-12.12L12,32.2a1.76,1.76,0,0,0-.14-.23l-.68-.59C6.11,26.76,4,21.05,5.37,14.31A17.64,17.64,0,0,1,23,0Q51.28,0,79.59,0c.26,0,.53,0,.79,0a6.14,6.14,0,0,1,1.38,12.05,9.23,9.23,0,0,1-2.46.25,1.09,1.09,0,0,0-1.2.89,14.15,14.15,0,0,0-.26,8.47c.33,1.22.76,1.76,2.18,1.73a6,6,0,0,1,6.19,5.73v.05a17.63,17.63,0,0,1-.37,3.08H90c6.23,0,10.42,4.24,10.43,10.5,0,5.41-.06,10.82,0,16.23,0,3.08-.17,6-2.48,8.73h1.47c3.4,0,6.8,0,10.19,0A6.06,6.06,0,0,1,115.3,71,15.84,15.84,0,0,1,116,72.61Zm-12.67,7.25H80.24a7.08,7.08,0,0,1-1.13,0,1.61,1.61,0,0,1-1.47-1.73,1.58,1.58,0,0,1,1.5-1.63h0c.38,0,.76,0,1.13,0H109c.38,0,.76,0,1.13,0a2.69,2.69,0,0,0,2.49-2.62,2.61,2.61,0,0,0-2.45-2.63c-.42,0-.83,0-1.25,0H47.15v5.3H69.94c.38,0,.76,0,1.13,0A1.57,1.57,0,0,1,72.59,78a1.59,1.59,0,0,1-1.38,1.79,5.26,5.26,0,0,1-1.12,0h-23v5.6A2.29,2.29,0,0,1,43,87.31c-.63-.55-1.21-1.14-1.81-1.72l-3-2.82-1.48,1.41c-1.21,1.14-2.36,2.35-3.65,3.39-1.55,1.27-3.41.55-3.64-1.31a12.36,12.36,0,0,1,0-1.36v-5c-.44,0-.74,0-1,0-5,0-10,0-15.07,0-1,0-1.29.34-1.28,1.31,0,4,.07,8,0,11.92,0,1.19.39,1.44,1.5,1.44q44.22,0,88.45,0h1.34a21.07,21.07,0,0,1,0-14.62ZM74.8,12.36h-25a7.66,7.66,0,0,1-1.35-.09,1.52,1.52,0,0,1-1.32-1.59c0-1.07.65-1.7,1.94-1.72,2.64,0,5.28,0,7.92,0H79.63c2,0,3.21-1.12,3.21-2.76A2.8,2.8,0,0,0,80,3.41l-.26,0c-19.07,0-38.13-.08-57.2,0A14.38,14.38,0,0,0,8.38,18a13.92,13.92,0,0,0,.5,3.57,14.61,14.61,0,0,0,14.4,10.72c18.69-.08,37.38,0,56.06,0a8.47,8.47,0,0,0,1.13-.05,2.67,2.67,0,0,0,2.34-2.4A2.61,2.61,0,0,0,81,27a6,6,0,0,0-1.78-.21q-27.69,0-55.38,0c-.56,0-1.13,0-1.7,0a8.94,8.94,0,0,1-8.24-9.58c0-.15,0-.3,0-.44A8.82,8.82,0,0,1,23,9c4.38,0,8.76,0,13.14,0,1.47,0,2.94,0,4.41,0a1.55,1.55,0,0,1,1.59,1.49v.11a1.56,1.56,0,0,1-1.41,1.71h-.06a8.51,8.51,0,0,1-1.24.06H26.26a41.79,41.79,0,0,0-4.19.08,5.42,5.42,0,0,0-4.74,6c0,.14,0,.28.07.42a5.48,5.48,0,0,0,5.7,4.49H73.84c.29,0,.57-.05.94-.08a17.53,17.53,0,0,1,0-10.93ZM47.14,67.69c.43,0,.76,0,1.1,0H90c4.3,0,7-2.72,7-7V42.87c0-4.52-2.66-7.18-7.19-7.18H11.88a7.66,7.66,0,0,0-1.35.09,2.6,2.6,0,0,0-.1,5.1,9.1,9.1,0,0,0,1.8.14c24.88,0,49.76,0,74.64,0,3.56,0,5,2.12,4.92,5-.15,3.85,0,7.71,0,11.57,0,3.53-1.34,4.89-4.84,4.89H47.14ZM29.38,71.26a4,4,0,0,0-.59-.1c-6.34,0-12.68-.06-19,0a6.36,6.36,0,0,0-6.35,6.36,2,2,0,0,0,0,.25c0,6.13,0,12.26,0,18.38,0,4.28,2.74,7,7,7h98.85a5.53,5.53,0,0,0,1.45-.17,2.6,2.6,0,0,0-.23-5,9.79,9.79,0,0,0-1.8-.11H13.26c-3.11,0-4.57-1.46-4.57-4.58,0-4.16,0-8.32,0-12.48,0-2.81,1.55-4.36,4.33-4.37H28.2c.4,0,.79,0,1.18,0ZM47.15,59c.33,0,.59.05.85.05l39.18,0c.89,0,1.19-.28,1.18-1.18,0-4-.06-8,0-12,0-1.18-.35-1.45-1.48-1.45q-34,0-67.95,0H17.79L19,50H58.36c1.5,0,2.32.65,2.3,1.74s-.82,1.65-2.26,1.66c-2.38,0-4.76,0-7.14,0H47.15ZM32.92,53.5V83.14l3.74-3.56c1.24-1.18,1.91-1.18,3.18,0l1.56,1.48,2.24,2.15V53.5Zm-3.54,8.94H11.73a5.42,5.42,0,0,0-1.45.16,2.55,2.55,0,0,0-1.87,2.64,2.59,2.59,0,0,0,2.14,2.42,4.56,4.56,0,0,0,.9.08H28.53a8.2,8.2,0,0,0,.85-.1Zm0-9H19L17.8,59H29.37Z"/></g></svg>