<svg xmlns="http://www.w3.org/2000/svg" width="32.383" height="32.383" viewBox="0 0 32.383 32.383">
  <g id="email" transform="translate(32.383 32.383) rotate(180)">
    <path id="Tracé_42" data-name="Tracé 42" d="M146.69,144H133.625l6.533,5.6Zm0,0" transform="translate(-123.966 -133.591)" fill="#fff"/>
    <path id="Tracé_43" data-name="Tracé 43" d="M127.517,159.651a.577.577,0,0,1-.376-.139L120,153.391v10.887h15.035V153.391l-7.141,6.121A.577.577,0,0,1,127.517,159.651Zm0,0" transform="translate(-111.326 -142.303)" fill="#fff"/>
    <path id="Tracé_44" data-name="Tracé 44" d="M16.191,0A16.191,16.191,0,1,0,32.383,16.191,16.191,16.191,0,0,0,16.191,0Zm8.674,22.552a.578.578,0,0,1-.578.578H8.1a.578.578,0,0,1-.578-.578V9.83A.578.578,0,0,1,8.1,9.252H24.287a.578.578,0,0,1,.578.578Zm0,0" fill="#fff"/>
  </g>
</svg>
