<?xml version="1.0" encoding="utf-8"?>
<!-- Generator: Adobe Illustrator 25.4.1, SVG Export Plug-In . SVG Version: 6.00 Build 0)  -->
<svg version="1.1" id="Calque_1" xmlns="http://www.w3.org/2000/svg" xmlns:xlink="http://www.w3.org/1999/xlink" x="0px" y="0px"
	 viewBox="0 0 102.59 77.6" style="enable-background:new 0 0 102.59 77.6;" xml:space="preserve">
<style type="text/css">
	.st0{fill:#191F31;}
	.st1{fill-rule:evenodd;clip-rule:evenodd;fill:#191F31;}
	.st2{fill:#C8CBD3;}
	.st3{fill:#838BA6;}
	.st4{fill:#FFFFFF;}
	.st5{fill:#7C8DC6;}
	.st6{fill:#5F6CB1;}
	.st7{fill:#4C57A3;}
</style>
<g id="Groupe_35304" transform="translate(1376.524 -529.344)">
	<path id="Tracé_37089" class="st0" d="M-1363.7,563.29h5.73l1.87,7.68h0.03l1.86-7.68h5.73v13.07h-3.8v-8.39h-0.04l-2.27,8.39h-3
		l-2.27-8.39h-0.03v8.39h-3.81L-1363.7,563.29z"/>
	<path id="Tracé_37090" class="st0" d="M-1346.4,563.3h10.82v3.35h-6.79v1.63h6.17v3.11h-6.17v1.63h6.99v3.35h-11.02V563.3z
		 M-1340.4,562.38h-2.49l1.81-2.73h3.83L-1340.4,562.38z"/>
	<path id="Tracé_37091" class="st0" d="M-1333.52,563.29h6.61c4.36,0,5.9,3.22,5.9,6.52c0,4-2.12,6.56-6.68,6.56h-5.83V563.29z
		 M-1329.49,573.01h1.58c2.51,0,2.87-2.03,2.87-3.26c0.14-1.59-1.04-2.98-2.63-3.12c-0.18-0.02-0.36-0.01-0.54,0h-1.28
		L-1329.49,573.01L-1329.49,573.01z"/>
	<rect id="Rectangle_11343" x="-1319.27" y="563.29" class="st0" width="4.03" height="13.07"/>
	<path id="Tracé_37092" class="st0" d="M-1309.54,563.29h3.93l4.76,13.07h-4.17l-0.56-1.87h-4.15l-0.59,1.87h-4.04L-1309.54,563.29
		z M-1306.37,571.69l-1.17-4.03h-0.04l-1.26,4.03L-1306.37,571.69z"/>
	<path id="Tracé_37093" class="st0" d="M-1296.75,571.96c-0.01,0.29,0.04,0.59,0.15,0.86c0.37,0.69,1.14,1.08,1.92,0.95
		c0.66,0,1.66-0.22,1.66-1.19c0-0.68-0.56-0.86-2.81-1.5c-2.07-0.59-4.44-1.15-4.44-3.79c0-3.02,2.59-4.32,5.27-4.32
		c2.84,0,5.35,1.08,5.46,4.27h-3.8c0.08-0.41-0.11-0.83-0.47-1.05c-0.36-0.22-0.77-0.34-1.19-0.33c-0.55,0-1.45,0.15-1.45,0.88
		c0.08,0.92,1.95,1.14,3.79,1.65c1.85,0.51,3.68,1.37,3.68,3.77c0,3.4-3.13,4.5-6.04,4.5c-1.49,0-5.72-0.53-5.76-4.71
		L-1296.75,571.96z"/>
	<path id="Tracé_37094" class="st0" d="M-1363.7,593.57h5.73l1.87,7.69h0.04l1.86-7.69h5.73v13.07h-3.8v-8.38h-0.04l-2.27,8.38h-3
		l-2.27-8.38h-0.03v8.38h-3.81V593.57z"/>
	<path id="Tracé_37095" class="st0" d="M-1340.16,593.26c3.98,0,6.62,2.85,6.62,6.84s-2.65,6.85-6.62,6.85s-6.63-2.86-6.63-6.85
		S-1344.13,593.26-1340.16,593.26 M-1340.16,603.69c1.03,0,2.59-0.67,2.59-3.59s-1.57-3.59-2.59-3.59s-2.6,0.68-2.6,3.59
		S-1341.18,603.69-1340.16,603.69"/>
	<path id="Tracé_37096" class="st0" d="M-1331.81,593.57h4.12l3.81,7h0.04v-7h3.81v13.07h-3.93l-4-7.14h-0.04v7.14h-3.81
		L-1331.81,593.57z"/>
	<path id="Tracé_37097" class="st0" d="M-1317.93,593.57h6.61c4.36,0,5.9,3.22,5.9,6.52c0,4-2.12,6.55-6.68,6.55h-5.83
		L-1317.93,593.57L-1317.93,593.57z M-1313.9,603.29h1.58c2.51,0,2.87-2.03,2.87-3.26c0.13-1.59-1.05-2.98-2.64-3.11
		c-0.18-0.01-0.35-0.01-0.53,0h-1.28L-1313.9,603.29L-1313.9,603.29z"/>
	<path id="Tracé_37098" class="st0" d="M-1303.69,593.57h10.82v3.35h-6.79v1.62h6.18v3.11h-6.18v1.64h6.99v3.35h-11.02V593.57z"/>
	<rect id="Rectangle_11344" x="-1376.52" y="550.69" class="st0" width="102.59" height="0.73"/>
	<rect id="Rectangle_11345" x="-1376.52" y="584.9" class="st0" width="102.59" height="0.73"/>
	<path id="Tracé_37099" class="st0" d="M-1363.7,529.65h10.11V533h-6.08v1.63h5.22v3.11h-5.22v4.98h-4.02V529.65z"/>
	<path id="Tracé_37100" class="st0" d="M-1352.17,529.65h7.67c2.3,0,4.27,1.26,4.27,3.73c0.09,1.39-0.69,2.7-1.96,3.28
		c1.1,0.43,1.78,1.63,1.93,3.26c-0.01,0.95,0.14,1.9,0.44,2.8h-4.03c-0.18-0.66-0.29-1.33-0.32-2.02c-0.11-1.24-0.22-2.54-1.81-2.54
		h-2.15v4.55h-4.03V529.65z M-1348.14,535.36h2.11c0.76,0,1.78-0.13,1.78-1.3c0-0.82-0.45-1.3-1.99-1.3h-1.89V535.36z"/>
	<path id="Tracé_37101" class="st0" d="M-1334.97,529.65h3.94l4.75,13.07h-4.17l-0.54-1.87h-4.17l-0.58,1.87h-4.05L-1334.97,529.65
		z M-1331.81,538.05l-1.17-4.03h-0.04l-1.26,4.03H-1331.81z"/>
	<path id="Tracé_37102" class="st0" d="M-1325.35,529.65h4.12l3.81,6.99h0.03v-6.99h3.81v13.07h-3.91l-4.01-7.14h-0.04v7.14h-3.8
		V529.65z"/>
	<path id="Tracé_37103" class="st0" d="M-1303.24,534.52c-0.1-1.09-1.02-1.93-2.12-1.92c-1.88,0-2.49,1.83-2.49,3.59
		s0.61,3.59,2.49,3.59c1.36,0,1.89-0.95,2.13-2.17h3.95c-0.09,3.1-2.68,5.54-5.78,5.44c-0.06,0-0.12,0-0.18-0.01
		c-4.23,0-6.63-2.98-6.63-6.85c0-4.12,2.59-6.84,6.63-6.84c3.59,0.01,5.56,1.9,5.91,5.18L-1303.24,534.52z"/>
	<path id="Tracé_37104" class="st0" d="M-1297.58,529.65h10.81V533h-6.79v1.63h6.17v3.11h-6.17v1.63h7v3.35h-11.02V529.65z"/>
</g>
</svg>
