<svg id="Calque_1" data-name="Calque 1" xmlns="http://www.w3.org/2000/svg" xmlns:xlink="http://www.w3.org/1999/xlink" viewBox="0 0 1465.73 815.8"><defs><style>.cls-1{isolation:isolate;opacity:0.33;fill:url(#Dégradé_sans_nom_2);}</style><radialGradient id="Dégradé_sans_nom_2" cx="1.25" cy="1080.46" r="0.44" gradientTransform="matrix(1026.01, 582.48, 1021.61, -557.19, -1104127.89, 601805.11)" gradientUnits="userSpaceOnUse"><stop offset="0" stop-color="#e5e5e5" stop-opacity="0.6"/><stop offset="0.11" stop-color="#e4e4e4"/><stop offset="1" stop-color="#5f7ab8" stop-opacity="0"/></radialGradient></defs><path id="Tracé_26263" data-name="Tracé 26263" class="cls-1" d="M1692.18,132.86v-.76H960.34v.76h-.68v-.76H227.82v.76h-.68V947.14h.68v.76H959.66v-.76h.68v.76h731.84v-.76h.68V132.86ZM250.74,946.38H228.5V921.63h22.24Zm0-26.26H228.5V895.37h22.24Zm0-26.27H228.5V869.1h22.24Zm0-26.27H228.5V842.83h22.24Zm0-26.27H228.5V816.56h22.24Zm0-26.26H228.5V790.3h22.24Zm0-26.27H228.5V764h22.24Zm0-26.27H228.5V737.76h22.24Zm0-26.26H228.5V711.5h22.24Zm0-26.27H228.5V685.23h22.24Zm0-26.27H228.5V659h22.24Zm0-26.26H228.5V632.7h22.24Zm0-26.27H228.5V606.43h22.24Zm0-26.27H228.5V580.16h22.24Zm0-26.27H228.5V553.89h22.24Zm0-26.26H228.5V527.63h22.24Zm0-26.27H228.5V501.36h22.24Zm0-26.27H228.5V475.09h22.24Zm0-26.26H228.5V448.83h22.24Zm0-26.27H228.5V422.56h22.24Zm0-26.27H228.5V396.29h22.24Zm0-26.26H228.5V370h22.24Zm0-26.27H228.5V343.76h22.24Zm0-26.27H228.5V317.49h22.24Zm0-26.27H228.5V291.22h22.24Zm0-26.26H228.5V265h22.24Zm0-26.27H228.5V238.69h22.24Zm0-26.27H228.5V212.42h22.24Zm0-26.26H228.5V186.15h22.24Zm0-26.27H228.5V159.89h22.24Zm0-26.27H228.5V133.62h22.24Zm23.61,788H252.11V921.63h22.24Zm0-26.27H252.11V895.37h22.24Zm0-26.27H252.11V869.1h22.24Zm0-26.26H252.11V842.83h22.24Zm0-26.27H252.11V816.56h22.24Zm0-26.27H252.11V790.3h22.24Zm0-26.26H252.11V764h22.24Zm0-26.27H252.11V737.76h22.24Zm0-26.27H252.11V711.5h22.24Zm0-26.27H252.11V685.23h22.24Zm0-26.26H252.11V659h22.24Zm0-26.27H252.11V632.7h22.24Zm0-26.27H252.11V606.43h22.24Zm0-26.26H252.11V580.16h22.24Zm0-26.27H252.11V553.89h22.24Zm0-26.27H252.11V527.63h22.24Zm0-26.26H252.11V501.36h22.24Zm0-26.27H252.11V475.09h22.24Zm0-26.27H252.11V448.83h22.24Zm0-26.27H252.11V422.56h22.24Zm0-26.26H252.11V396.29h22.24Zm0-26.27H252.11V370h22.24Zm0-26.27H252.11V343.76h22.24Zm0-26.26H252.11V317.49h22.24Zm0-26.27H252.11V291.22h22.24Zm0-26.27H252.11V265h22.24Zm0-26.26H252.11V238.69h22.24Zm0-26.27H252.11V212.42h22.24Zm0-26.27H252.11V186.15h22.24Zm0-26.27H252.11V159.89h22.24Zm0-26.26H252.11V133.62h22.24Zm23.61,788H275.72V921.63H298Zm0-26.26H275.72V895.37H298Zm0-26.27H275.72V869.1H298Zm0-26.27H275.72V842.83H298Zm0-26.27H275.72V816.56H298Zm0-26.26H275.72V790.3H298Zm0-26.27H275.72V764H298Zm0-26.27H275.72V737.76H298Zm0-26.26H275.72V711.5H298ZM298,710H275.72V685.23H298Zm0-26.27H275.72V659H298Zm0-26.26H275.72V632.7H298Zm0-26.27H275.72V606.43H298Zm0-26.27H275.72V580.16H298Zm0-26.27H275.72V553.89H298Zm0-26.26H275.72V527.63H298Zm0-26.27H275.72V501.36H298Zm0-26.27H275.72V475.09H298Zm0-26.26H275.72V448.83H298Zm0-26.27H275.72V422.56H298Zm0-26.27H275.72V396.29H298Zm0-26.26H275.72V370H298Zm0-26.27H275.72V343.76H298Zm0-26.27H275.72V317.49H298ZM298,316H275.72V291.22H298Zm0-26.26H275.72V265H298Zm0-26.27H275.72V238.69H298Zm0-26.27H275.72V212.42H298Zm0-26.26H275.72V186.15H298Zm0-26.27H275.72V159.89H298Zm0-26.27H275.72V133.62H298Zm23.61,788H299.32V921.63h22.25Zm0-26.27H299.32V895.37h22.25Zm0-26.27H299.32V869.1h22.25Zm0-26.26H299.32V842.83h22.25Zm0-26.27H299.32V816.56h22.25Zm0-26.27H299.32V790.3h22.25Zm0-26.27H299.32V764h22.25Zm0-26.26H299.32V737.76h22.25Zm0-26.27H299.32V711.5h22.25Zm0-26.27H299.32V685.23h22.25Zm0-26.26H299.32V659h22.25Zm0-26.27H299.32V632.7h22.25Zm0-26.27H299.32V606.43h22.25Zm0-26.26H299.32V580.16h22.25Zm0-26.27H299.32V553.89h22.25Zm0-26.27H299.32V527.63h22.25Zm0-26.27H299.32V501.36h22.25Zm0-26.26H299.32V475.09h22.25Zm0-26.27H299.32V448.83h22.25Zm0-26.27H299.32V422.56h22.25Zm0-26.26H299.32V396.29h22.25Zm0-26.27H299.32V370h22.25Zm0-26.27H299.32V343.76h22.25Zm0-26.26H299.32V317.49h22.25Zm0-26.27H299.32V291.22h22.25Zm0-26.27H299.32V265h22.25Zm0-26.27H299.32V238.69h22.25Zm0-26.26H299.32V212.42h22.25Zm0-26.27H299.32V186.15h22.25Zm0-26.27H299.32V159.89h22.25Zm0-26.26H299.32V133.62h22.25Zm23.61,788H322.93V921.63h22.25Zm0-26.27H322.93V895.37h22.25Zm0-26.26H322.93V869.1h22.25Zm0-26.27H322.93V842.83h22.25Zm0-26.27H322.93V816.56h22.25Zm0-26.26H322.93V790.3h22.25Zm0-26.27H322.93V764h22.25Zm0-26.27H322.93V737.76h22.25Zm0-26.26H322.93V711.5h22.25Zm0-26.27H322.93V685.23h22.25Zm0-26.27H322.93V659h22.25Zm0-26.27H322.93V632.7h22.25Zm0-26.26H322.93V606.43h22.25Zm0-26.27H322.93V580.16h22.25Zm0-26.27H322.93V553.89h22.25Zm0-26.26H322.93V527.63h22.25Zm0-26.27H322.93V501.36h22.25Zm0-26.27H322.93V475.09h22.25Zm0-26.26H322.93V448.83h22.25Zm0-26.27H322.93V422.56h22.25Zm0-26.27H322.93V396.29h22.25Zm0-26.27H322.93V370h22.25Zm0-26.26H322.93V343.76h22.25Zm0-26.27H322.93V317.49h22.25Zm0-26.27H322.93V291.22h22.25Zm0-26.26H322.93V265h22.25Zm0-26.27H322.93V238.69h22.25Zm0-26.27H322.93V212.42h22.25Zm0-26.26H322.93V186.15h22.25Zm0-26.27H322.93V159.89h22.25Zm0-26.27H322.93V133.62h22.25Zm23.6,788H346.54V921.63h22.24Zm0-26.27H346.54V895.37h22.24Zm0-26.27H346.54V869.1h22.24Zm0-26.26H346.54V842.83h22.24Zm0-26.27H346.54V816.56h22.24Zm0-26.27H346.54V790.3h22.24Zm0-26.27H346.54V764h22.24Zm0-26.26H346.54V737.76h22.24Zm0-26.27H346.54V711.5h22.24Zm0-26.27H346.54V685.23h22.24Zm0-26.26H346.54V659h22.24Zm0-26.27H346.54V632.7h22.24Zm0-26.27H346.54V606.43h22.24Zm0-26.26H346.54V580.16h22.24Zm0-26.27H346.54V553.89h22.24Zm0-26.27H346.54V527.63h22.24Zm0-26.27H346.54V501.36h22.24Zm0-26.26H346.54V475.09h22.24Zm0-26.27H346.54V448.83h22.24Zm0-26.27H346.54V422.56h22.24Zm0-26.26H346.54V396.29h22.24Zm0-26.27H346.54V370h22.24Zm0-26.27H346.54V343.76h22.24Zm0-26.26H346.54V317.49h22.24Zm0-26.27H346.54V291.22h22.24Zm0-26.27H346.54V265h22.24Zm0-26.27H346.54V238.69h22.24Zm0-26.26H346.54V212.42h22.24Zm0-26.27H346.54V186.15h22.24Zm0-26.27H346.54V159.89h22.24Zm0-26.26H346.54V133.62h22.24Zm23.61,788H370.15V921.63h22.24Zm0-26.27H370.15V895.37h22.24Zm0-26.26H370.15V869.1h22.24Zm0-26.27H370.15V842.83h22.24Zm0-26.27H370.15V816.56h22.24Zm0-26.26H370.15V790.3h22.24Zm0-26.27H370.15V764h22.24Zm0-26.27H370.15V737.76h22.24Zm0-26.27H370.15V711.5h22.24Zm0-26.26H370.15V685.23h22.24Zm0-26.27H370.15V659h22.24Zm0-26.27H370.15V632.7h22.24Zm0-26.26H370.15V606.43h22.24Zm0-26.27H370.15V580.16h22.24Zm0-26.27H370.15V553.89h22.24Zm0-26.26H370.15V527.63h22.24Zm0-26.27H370.15V501.36h22.24Zm0-26.27H370.15V475.09h22.24Zm0-26.27H370.15V448.83h22.24Zm0-26.26H370.15V422.56h22.24Zm0-26.27H370.15V396.29h22.24Zm0-26.27H370.15V370h22.24Zm0-26.26H370.15V343.76h22.24Zm0-26.27H370.15V317.49h22.24Zm0-26.27H370.15V291.22h22.24Zm0-26.26H370.15V265h22.24Zm0-26.27H370.15V238.69h22.24Zm0-26.27H370.15V212.42h22.24Zm0-26.27H370.15V186.15h22.24Zm0-26.26H370.15V159.89h22.24Zm0-26.27H370.15V133.62h22.24Zm23.61,788H393.76V921.63H416Zm0-26.27H393.76V895.37H416Zm0-26.27H393.76V869.1H416Zm0-26.27H393.76V842.83H416Zm0-26.26H393.76V816.56H416Zm0-26.27H393.76V790.3H416Zm0-26.27H393.76V764H416Zm0-26.26H393.76V737.76H416Zm0-26.27H393.76V711.5H416ZM416,710H393.76V685.23H416Zm0-26.26H393.76V659H416Zm0-26.27H393.76V632.7H416Zm0-26.27H393.76V606.43H416Zm0-26.27H393.76V580.16H416Zm0-26.26H393.76V553.89H416Zm0-26.27H393.76V527.63H416Zm0-26.27H393.76V501.36H416Zm0-26.26H393.76V475.09H416Zm0-26.27H393.76V448.83H416Zm0-26.27H393.76V422.56H416Zm0-26.26H393.76V396.29H416Zm0-26.27H393.76V370H416Zm0-26.27H393.76V343.76H416Zm0-26.27H393.76V317.49H416ZM416,316H393.76V291.22H416Zm0-26.27H393.76V265H416Zm0-26.27H393.76V238.69H416Zm0-26.26H393.76V212.42H416Zm0-26.27H393.76V186.15H416Zm0-26.27H393.76V159.89H416Zm0-26.26H393.76V133.62H416Zm23.61,788H417.36V921.63h22.25Zm0-26.27H417.36V895.37h22.25Zm0-26.26H417.36V869.1h22.25Zm0-26.27H417.36V842.83h22.25Zm0-26.27H417.36V816.56h22.25Zm0-26.26H417.36V790.3h22.25Zm0-26.27H417.36V764h22.25Zm0-26.27H417.36V737.76h22.25Zm0-26.27H417.36V711.5h22.25Zm0-26.26H417.36V685.23h22.25Zm0-26.27H417.36V659h22.25Zm0-26.27H417.36V632.7h22.25Zm0-26.26H417.36V606.43h22.25Zm0-26.27H417.36V580.16h22.25Zm0-26.27H417.36V553.89h22.25Zm0-26.26H417.36V527.63h22.25Zm0-26.27H417.36V501.36h22.25Zm0-26.27H417.36V475.09h22.25Zm0-26.27H417.36V448.83h22.25Zm0-26.26H417.36V422.56h22.25Zm0-26.27H417.36V396.29h22.25Zm0-26.27H417.36V370h22.25Zm0-26.26H417.36V343.76h22.25Zm0-26.27H417.36V317.49h22.25Zm0-26.27H417.36V291.22h22.25Zm0-26.26H417.36V265h22.25Zm0-26.27H417.36V238.69h22.25Zm0-26.27H417.36V212.42h22.25Zm0-26.27H417.36V186.15h22.25Zm0-26.26H417.36V159.89h22.25Zm0-26.27H417.36V133.62h22.25Zm23.6,788H441v-24.8h22.24Zm0-26.27H441V895.37h22.24Zm0-26.27H441V869.1h22.24Zm0-26.27H441V842.83h22.24Zm0-26.26H441v-24.8h22.24Zm0-26.27H441V790.3h22.24Zm0-26.27H441V764h22.24Zm0-26.26H441v-24.8h22.24Zm0-26.27H441V711.5h22.24Zm0-26.27H441V685.23h22.24Zm0-26.27H441V659h22.24Zm0-26.26H441V632.7h22.24Zm0-26.27H441V606.43h22.24Zm0-26.27H441V580.16h22.24Zm0-26.26H441v-24.8h22.24Zm0-26.27H441V527.63h22.24Zm0-26.27H441V501.36h22.24Zm0-26.26H441v-24.8h22.24Zm0-26.27H441V448.83h22.24Zm0-26.27H441V422.56h22.24Zm0-26.27H441V396.29h22.24Zm0-26.26H441V370h22.24Zm0-26.27H441V343.76h22.24Zm0-26.27H441V317.49h22.24Zm0-26.26H441v-24.8h22.24Zm0-26.27H441V265h22.24Zm0-26.27H441V238.69h22.24Zm0-26.26H441v-24.8h22.24Zm0-26.27H441v-24.8h22.24Zm0-26.27H441V159.89h22.24Zm0-26.27H441V133.62h22.24Zm23.61,788H464.58v-24.8h22.24Zm0-26.27H464.58V895.37h22.24Zm0-26.26H464.58V869.1h22.24Zm0-26.27H464.58v-24.8h22.24Zm0-26.27H464.58v-24.8h22.24Zm0-26.27H464.58V790.3h22.24Zm0-26.26H464.58V764h22.24Zm0-26.27H464.58v-24.8h22.24Zm0-26.27H464.58V711.5h22.24Zm0-26.26H464.58v-24.8h22.24Zm0-26.27H464.58V659h22.24Zm0-26.27H464.58V632.7h22.24Zm0-26.26H464.58v-24.8h22.24Zm0-26.27H464.58v-24.8h22.24Zm0-26.27H464.58v-24.8h22.24Zm0-26.27H464.58V527.63h22.24Zm0-26.26H464.58v-24.8h22.24Zm0-26.27H464.58v-24.8h22.24Zm0-26.27H464.58V448.83h22.24Zm0-26.26H464.58v-24.8h22.24Zm0-26.27H464.58v-24.8h22.24Zm0-26.27H464.58V370h22.24Zm0-26.26H464.58v-24.8h22.24Zm0-26.27H464.58v-24.8h22.24Zm0-26.27H464.58v-24.8h22.24Zm0-26.27H464.58V265h22.24Zm0-26.26H464.58v-24.8h22.24Zm0-26.27H464.58v-24.8h22.24Zm0-26.27H464.58v-24.8h22.24Zm0-26.26H464.58v-24.8h22.24Zm0-26.27H464.58v-24.8h22.24Zm23.61,788H488.19V921.63h22.24Zm0-26.26H488.19V895.37h22.24Zm0-26.27H488.19V869.1h22.24Zm0-26.27H488.19V842.83h22.24Zm0-26.27H488.19V816.56h22.24Zm0-26.26H488.19V790.3h22.24Zm0-26.27H488.19V764h22.24Zm0-26.27H488.19V737.76h22.24Zm0-26.26H488.19V711.5h22.24Zm0-26.27H488.19V685.23h22.24Zm0-26.27H488.19V659h22.24Zm0-26.26H488.19V632.7h22.24Zm0-26.27H488.19V606.43h22.24Zm0-26.27H488.19V580.16h22.24Zm0-26.27H488.19V553.89h22.24Zm0-26.26H488.19V527.63h22.24Zm0-26.27H488.19V501.36h22.24Zm0-26.27H488.19V475.09h22.24Zm0-26.26H488.19V448.83h22.24Zm0-26.27H488.19V422.56h22.24Zm0-26.27H488.19V396.29h22.24Zm0-26.26H488.19V370h22.24Zm0-26.27H488.19V343.76h22.24Zm0-26.27H488.19V317.49h22.24Zm0-26.27H488.19V291.22h22.24Zm0-26.26H488.19V265h22.24Zm0-26.27H488.19V238.69h22.24Zm0-26.27H488.19V212.42h22.24Zm0-26.26H488.19V186.15h22.24Zm0-26.27H488.19V159.89h22.24Zm0-26.27H488.19V133.62h22.24Zm23.6,788H511.79V921.63H534Zm0-26.26H511.79V895.37H534Zm0-26.27H511.79V869.1H534Zm0-26.27H511.79V842.83H534Zm0-26.27H511.79V816.56H534Zm0-26.26H511.79V790.3H534Zm0-26.27H511.79V764H534Zm0-26.27H511.79V737.76H534Zm0-26.26H511.79V711.5H534ZM534,710H511.79V685.23H534Zm0-26.27H511.79V659H534Zm0-26.26H511.79V632.7H534Zm0-26.27H511.79V606.43H534Zm0-26.27H511.79V580.16H534Zm0-26.27H511.79V553.89H534Zm0-26.26H511.79V527.63H534Zm0-26.27H511.79V501.36H534Zm0-26.27H511.79V475.09H534Zm0-26.26H511.79V448.83H534Zm0-26.27H511.79V422.56H534ZM534,421H511.79V396.29H534Zm0-26.26H511.79V370H534Zm0-26.27H511.79V343.76H534Zm0-26.27H511.79V317.49H534ZM534,316H511.79V291.22H534Zm0-26.26H511.79V265H534Zm0-26.27H511.79V238.69H534Zm0-26.27H511.79V212.42H534Zm0-26.27H511.79V186.15H534Zm0-26.27H511.79V159.89H534Zm0-26.26H511.79V133.62H534Zm23.61,788H535.4V921.63h22.24Zm0-26.26H535.4V895.37h22.24Zm0-26.27H535.4V869.1h22.24Zm0-26.27H535.4V842.83h22.24Zm0-26.27H535.4V816.56h22.24Zm0-26.26H535.4V790.3h22.24Zm0-26.27H535.4V764h22.24Zm0-26.27H535.4V737.76h22.24Zm0-26.26H535.4V711.5h22.24Zm0-26.27H535.4V685.23h22.24Zm0-26.27H535.4V659h22.24Zm0-26.26H535.4V632.7h22.24Zm0-26.27H535.4V606.43h22.24Zm0-26.27H535.4V580.16h22.24Zm0-26.27H535.4V553.89h22.24Zm0-26.26H535.4V527.63h22.24Zm0-26.27H535.4V501.36h22.24Zm0-26.27H535.4V475.09h22.24Zm0-26.26H535.4V448.83h22.24Zm0-26.27H535.4V422.56h22.24Zm0-26.27H535.4V396.29h22.24Zm0-26.26H535.4V370h22.24Zm0-26.27H535.4V343.76h22.24Zm0-26.27H535.4V317.49h22.24Zm0-26.27H535.4V291.22h22.24Zm0-26.26H535.4V265h22.24Zm0-26.27H535.4V238.69h22.24Zm0-26.27H535.4V212.42h22.24Zm0-26.27H535.4V186.15h22.24Zm0-26.27H535.4V159.89h22.24Zm0-26.26H535.4V133.62h22.24Zm23.61,788H559V921.63h22.24Zm0-26.26H559V895.37h22.24Zm0-26.27H559V869.1h22.24Zm0-26.27H559V842.83h22.24Zm0-26.27H559V816.56h22.24Zm0-26.26H559V790.3h22.24Zm0-26.27H559V764h22.24Zm0-26.27H559V737.76h22.24Zm0-26.26H559V711.5h22.24Zm0-26.27H559V685.23h22.24Zm0-26.27H559V659h22.24Zm0-26.26H559V632.7h22.24Zm0-26.27H559V606.43h22.24Zm0-26.27H559V580.16h22.24Zm0-26.27H559V553.89h22.24Zm0-26.26H559V527.63h22.24Zm0-26.27H559V501.36h22.24Zm0-26.27H559V475.09h22.24Zm0-26.26H559V448.83h22.24Zm0-26.27H559V422.56h22.24Zm0-26.27H559V396.29h22.24Zm0-26.26H559V370h22.24Zm0-26.27H559V343.76h22.24Zm0-26.27H559V317.49h22.24Zm0-26.27H559V291.22h22.24Zm0-26.26H559V265h22.24Zm0-26.27H559V238.69h22.24Zm0-26.27H559V212.42h22.24Zm0-26.26H559V186.15h22.24Zm0-26.27H559V159.89h22.24Zm0-26.27H559V133.62h22.24Zm23.61,788H582.62V921.63h22.24Zm0-26.27H582.62V895.37h22.24Zm0-26.27H582.62V869.1h22.24Zm0-26.26H582.62V842.83h22.24Zm0-26.27H582.62V816.56h22.24Zm0-26.27H582.62V790.3h22.24Zm0-26.26H582.62V764h22.24Zm0-26.27H582.62V737.76h22.24Zm0-26.27H582.62V711.5h22.24Zm0-26.27H582.62V685.23h22.24Zm0-26.26H582.62V659h22.24Zm0-26.27H582.62V632.7h22.24Zm0-26.27H582.62V606.43h22.24Zm0-26.26H582.62V580.16h22.24Zm0-26.27H582.62V553.89h22.24Zm0-26.27H582.62V527.63h22.24Zm0-26.26H582.62V501.36h22.24Zm0-26.27H582.62V475.09h22.24Zm0-26.27H582.62V448.83h22.24Zm0-26.27H582.62V422.56h22.24Zm0-26.26H582.62V396.29h22.24Zm0-26.27H582.62V370h22.24Zm0-26.27H582.62V343.76h22.24Zm0-26.26H582.62V317.49h22.24Zm0-26.27H582.62V291.22h22.24Zm0-26.27H582.62V265h22.24Zm0-26.26H582.62V238.69h22.24Zm0-26.27H582.62V212.42h22.24Zm0-26.27H582.62V186.15h22.24Zm0-26.27H582.62V159.89h22.24Zm0-26.26H582.62V133.62h22.24Zm23.61,788H606.22V921.63h22.25Zm0-26.26H606.22V895.37h22.25Zm0-26.27H606.22V869.1h22.25Zm0-26.27H606.22V842.83h22.25Zm0-26.27H606.22V816.56h22.25Zm0-26.26H606.22V790.3h22.25Zm0-26.27H606.22V764h22.25Zm0-26.27H606.22V737.76h22.25Zm0-26.26H606.22V711.5h22.25Zm0-26.27H606.22V685.23h22.25Zm0-26.27H606.22V659h22.25Zm0-26.26H606.22V632.7h22.25Zm0-26.27H606.22V606.43h22.25Zm0-26.27H606.22V580.16h22.25Zm0-26.27H606.22V553.89h22.25Zm0-26.26H606.22V527.63h22.25Zm0-26.27H606.22V501.36h22.25Zm0-26.27H606.22V475.09h22.25Zm0-26.26H606.22V448.83h22.25Zm0-26.27H606.22V422.56h22.25Zm0-26.27H606.22V396.29h22.25Zm0-26.26H606.22V370h22.25Zm0-26.27H606.22V343.76h22.25Zm0-26.27H606.22V317.49h22.25Zm0-26.27H606.22V291.22h22.25Zm0-26.26H606.22V265h22.25Zm0-26.27H606.22V238.69h22.25Zm0-26.27H606.22V212.42h22.25Zm0-26.26H606.22V186.15h22.25Zm0-26.27H606.22V159.89h22.25Zm0-26.27H606.22V133.62h22.25Zm23.61,788H629.83V921.63h22.25Zm0-26.27H629.83V895.37h22.25Zm0-26.27H629.83V869.1h22.25Zm0-26.26H629.83V842.83h22.25Zm0-26.27H629.83V816.56h22.25Zm0-26.27H629.83V790.3h22.25Zm0-26.27H629.83V764h22.25Zm0-26.26H629.83V737.76h22.25Zm0-26.27H629.83V711.5h22.25Zm0-26.27H629.83V685.23h22.25Zm0-26.26H629.83V659h22.25Zm0-26.27H629.83V632.7h22.25Zm0-26.27H629.83V606.43h22.25Zm0-26.26H629.83V580.16h22.25Zm0-26.27H629.83V553.89h22.25Zm0-26.27H629.83V527.63h22.25Zm0-26.27H629.83V501.36h22.25Zm0-26.26H629.83V475.09h22.25Zm0-26.27H629.83V448.83h22.25Zm0-26.27H629.83V422.56h22.25Zm0-26.26H629.83V396.29h22.25Zm0-26.27H629.83V370h22.25Zm0-26.27H629.83V343.76h22.25Zm0-26.26H629.83V317.49h22.25Zm0-26.27H629.83V291.22h22.25Zm0-26.27H629.83V265h22.25Zm0-26.27H629.83V238.69h22.25Zm0-26.26H629.83V212.42h22.25Zm0-26.27H629.83V186.15h22.25Zm0-26.27H629.83V159.89h22.25Zm0-26.26H629.83V133.62h22.25Zm23.6,788H653.44V921.63h22.24Zm0-26.27H653.44V895.37h22.24Zm0-26.26H653.44V869.1h22.24Zm0-26.27H653.44V842.83h22.24Zm0-26.27H653.44V816.56h22.24Zm0-26.26H653.44V790.3h22.24Zm0-26.27H653.44V764h22.24Zm0-26.27H653.44V737.76h22.24Zm0-26.26H653.44V711.5h22.24Zm0-26.27H653.44V685.23h22.24Zm0-26.27H653.44V659h22.24Zm0-26.27H653.44V632.7h22.24Zm0-26.26H653.44V606.43h22.24Zm0-26.27H653.44V580.16h22.24Zm0-26.27H653.44V553.89h22.24Zm0-26.26H653.44V527.63h22.24Zm0-26.27H653.44V501.36h22.24Zm0-26.27H653.44V475.09h22.24Zm0-26.26H653.44V448.83h22.24Zm0-26.27H653.44V422.56h22.24Zm0-26.27H653.44V396.29h22.24Zm0-26.27H653.44V370h22.24Zm0-26.26H653.44V343.76h22.24Zm0-26.27H653.44V317.49h22.24Zm0-26.27H653.44V291.22h22.24Zm0-26.26H653.44V265h22.24Zm0-26.27H653.44V238.69h22.24Zm0-26.27H653.44V212.42h22.24Zm0-26.26H653.44V186.15h22.24Zm0-26.27H653.44V159.89h22.24Zm0-26.27H653.44V133.62h22.24Zm23.61,788H677.05V921.63h22.24Zm0-26.27H677.05V895.37h22.24Zm0-26.27H677.05V869.1h22.24Zm0-26.26H677.05V842.83h22.24Zm0-26.27H677.05V816.56h22.24Zm0-26.27H677.05V790.3h22.24Zm0-26.27H677.05V764h22.24Zm0-26.26H677.05V737.76h22.24Zm0-26.27H677.05V711.5h22.24Zm0-26.27H677.05V685.23h22.24Zm0-26.26H677.05V659h22.24Zm0-26.27H677.05V632.7h22.24Zm0-26.27H677.05V606.43h22.24Zm0-26.26H677.05V580.16h22.24Zm0-26.27H677.05V553.89h22.24Zm0-26.27H677.05V527.63h22.24Zm0-26.27H677.05V501.36h22.24Zm0-26.26H677.05V475.09h22.24Zm0-26.27H677.05V448.83h22.24Zm0-26.27H677.05V422.56h22.24Zm0-26.26H677.05V396.29h22.24Zm0-26.27H677.05V370h22.24Zm0-26.27H677.05V343.76h22.24Zm0-26.26H677.05V317.49h22.24Zm0-26.27H677.05V291.22h22.24Zm0-26.27H677.05V265h22.24Zm0-26.27H677.05V238.69h22.24Zm0-26.26H677.05V212.42h22.24Zm0-26.27H677.05V186.15h22.24Zm0-26.27H677.05V159.89h22.24Zm0-26.26H677.05V133.62h22.24Zm23.61,788H700.66V921.63H722.9Zm0-26.27H700.66V895.37H722.9Zm0-26.26H700.66V869.1H722.9Zm0-26.27H700.66V842.83H722.9Zm0-26.27H700.66V816.56H722.9Zm0-26.26H700.66V790.3H722.9Zm0-26.27H700.66V764H722.9Zm0-26.27H700.66V737.76H722.9Zm0-26.27H700.66V711.5H722.9Zm0-26.26H700.66V685.23H722.9Zm0-26.27H700.66V659H722.9Zm0-26.27H700.66V632.7H722.9Zm0-26.26H700.66V606.43H722.9Zm0-26.27H700.66V580.16H722.9Zm0-26.27H700.66V553.89H722.9Zm0-26.26H700.66V527.63H722.9Zm0-26.27H700.66V501.36H722.9Zm0-26.27H700.66V475.09H722.9Zm0-26.27H700.66V448.83H722.9Zm0-26.26H700.66V422.56H722.9Zm0-26.27H700.66V396.29H722.9Zm0-26.27H700.66V370H722.9Zm0-26.26H700.66V343.76H722.9Zm0-26.27H700.66V317.49H722.9Zm0-26.27H700.66V291.22H722.9Zm0-26.26H700.66V265H722.9Zm0-26.27H700.66V238.69H722.9Zm0-26.27H700.66V212.42H722.9Zm0-26.27H700.66V186.15H722.9Zm0-26.26H700.66V159.89H722.9Zm0-26.27H700.66V133.62H722.9Zm23.61,788H724.26V921.63h22.25Zm0-26.27H724.26V895.37h22.25Zm0-26.27H724.26V869.1h22.25Zm0-26.27H724.26V842.83h22.25Zm0-26.26H724.26V816.56h22.25Zm0-26.27H724.26V790.3h22.25Zm0-26.27H724.26V764h22.25Zm0-26.26H724.26V737.76h22.25Zm0-26.27H724.26V711.5h22.25Zm0-26.27H724.26V685.23h22.25Zm0-26.26H724.26V659h22.25Zm0-26.27H724.26V632.7h22.25Zm0-26.27H724.26V606.43h22.25Zm0-26.27H724.26V580.16h22.25Zm0-26.26H724.26V553.89h22.25Zm0-26.27H724.26V527.63h22.25Zm0-26.27H724.26V501.36h22.25Zm0-26.26H724.26V475.09h22.25Zm0-26.27H724.26V448.83h22.25Zm0-26.27H724.26V422.56h22.25Zm0-26.26H724.26V396.29h22.25Zm0-26.27H724.26V370h22.25Zm0-26.27H724.26V343.76h22.25Zm0-26.27H724.26V317.49h22.25Zm0-26.26H724.26V291.22h22.25Zm0-26.27H724.26V265h22.25Zm0-26.27H724.26V238.69h22.25Zm0-26.26H724.26V212.42h22.25Zm0-26.27H724.26V186.15h22.25Zm0-26.27H724.26V159.89h22.25Zm0-26.26H724.26V133.62h22.25Zm23.6,788H747.87V921.63h22.24Zm0-26.27H747.87V895.37h22.24Zm0-26.26H747.87V869.1h22.24Zm0-26.27H747.87V842.83h22.24Zm0-26.27H747.87V816.56h22.24Zm0-26.26H747.87V790.3h22.24Zm0-26.27H747.87V764h22.24Zm0-26.27H747.87V737.76h22.24Zm0-26.27H747.87V711.5h22.24Zm0-26.26H747.87V685.23h22.24Zm0-26.27H747.87V659h22.24Zm0-26.27H747.87V632.7h22.24Zm0-26.26H747.87V606.43h22.24Zm0-26.27H747.87V580.16h22.24Zm0-26.27H747.87V553.89h22.24Zm0-26.26H747.87V527.63h22.24Zm0-26.27H747.87V501.36h22.24Zm0-26.27H747.87V475.09h22.24Zm0-26.27H747.87V448.83h22.24Zm0-26.26H747.87V422.56h22.24Zm0-26.27H747.87V396.29h22.24Zm0-26.27H747.87V370h22.24Zm0-26.26H747.87V343.76h22.24Zm0-26.27H747.87V317.49h22.24Zm0-26.27H747.87V291.22h22.24Zm0-26.26H747.87V265h22.24Zm0-26.27H747.87V238.69h22.24Zm0-26.27H747.87V212.42h22.24Zm0-26.27H747.87V186.15h22.24Zm0-26.26H747.87V159.89h22.24Zm0-26.27H747.87V133.62h22.24Zm23.61,788H771.48v-24.8h22.24Zm0-26.27H771.48V895.37h22.24Zm0-26.27H771.48V869.1h22.24Zm0-26.27H771.48V842.83h22.24Zm0-26.26H771.48v-24.8h22.24Zm0-26.27H771.48V790.3h22.24Zm0-26.27H771.48V764h22.24Zm0-26.26H771.48v-24.8h22.24Zm0-26.27H771.48V711.5h22.24Zm0-26.27H771.48V685.23h22.24Zm0-26.27H771.48V659h22.24Zm0-26.26H771.48V632.7h22.24Zm0-26.27H771.48V606.43h22.24Zm0-26.27H771.48V580.16h22.24Zm0-26.26H771.48v-24.8h22.24Zm0-26.27H771.48V527.63h22.24Zm0-26.27H771.48V501.36h22.24Zm0-26.26H771.48v-24.8h22.24Zm0-26.27H771.48V448.83h22.24Zm0-26.27H771.48V422.56h22.24Zm0-26.27H771.48V396.29h22.24Zm0-26.26H771.48V370h22.24Zm0-26.27H771.48V343.76h22.24Zm0-26.27H771.48V317.49h22.24Zm0-26.26H771.48v-24.8h22.24Zm0-26.27H771.48V265h22.24Zm0-26.27H771.48V238.69h22.24Zm0-26.26H771.48v-24.8h22.24Zm0-26.27H771.48v-24.8h22.24Zm0-26.27H771.48V159.89h22.24Zm0-26.27H771.48V133.62h22.24Zm23.61,788H795.09v-24.8h22.24Zm0-26.27H795.09V895.37h22.24Zm0-26.26H795.09V869.1h22.24Zm0-26.27H795.09v-24.8h22.24Zm0-26.27H795.09v-24.8h22.24Zm0-26.27H795.09V790.3h22.24Zm0-26.26H795.09V764h22.24Zm0-26.27H795.09v-24.8h22.24Zm0-26.27H795.09V711.5h22.24Zm0-26.26H795.09v-24.8h22.24Zm0-26.27H795.09V659h22.24Zm0-26.27H795.09V632.7h22.24Zm0-26.26H795.09v-24.8h22.24Zm0-26.27H795.09v-24.8h22.24Zm0-26.27H795.09v-24.8h22.24Zm0-26.27H795.09V527.63h22.24Zm0-26.26H795.09v-24.8h22.24Zm0-26.27H795.09v-24.8h22.24Zm0-26.27H795.09V448.83h22.24Zm0-26.26H795.09v-24.8h22.24Zm0-26.27H795.09v-24.8h22.24Zm0-26.27H795.09V370h22.24Zm0-26.26H795.09v-24.8h22.24Zm0-26.27H795.09v-24.8h22.24Zm0-26.27H795.09v-24.8h22.24Zm0-26.27H795.09V265h22.24Zm0-26.26H795.09v-24.8h22.24Zm0-26.27H795.09v-24.8h22.24Zm0-26.27H795.09v-24.8h22.24Zm0-26.26H795.09v-24.8h22.24Zm0-26.27H795.09v-24.8h22.24Zm23.6,788H818.69V921.63h22.24Zm0-26.26H818.69V895.37h22.24Zm0-26.27H818.69V869.1h22.24Zm0-26.27H818.69V842.83h22.24Zm0-26.27H818.69V816.56h22.24Zm0-26.26H818.69V790.3h22.24Zm0-26.27H818.69V764h22.24Zm0-26.27H818.69V737.76h22.24Zm0-26.26H818.69V711.5h22.24Zm0-26.27H818.69V685.23h22.24Zm0-26.27H818.69V659h22.24Zm0-26.26H818.69V632.7h22.24Zm0-26.27H818.69V606.43h22.24Zm0-26.27H818.69V580.16h22.24Zm0-26.27H818.69V553.89h22.24Zm0-26.26H818.69V527.63h22.24Zm0-26.27H818.69V501.36h22.24Zm0-26.27H818.69V475.09h22.24Zm0-26.26H818.69V448.83h22.24Zm0-26.27H818.69V422.56h22.24Zm0-26.27H818.69V396.29h22.24Zm0-26.26H818.69V370h22.24Zm0-26.27H818.69V343.76h22.24Zm0-26.27H818.69V317.49h22.24Zm0-26.27H818.69V291.22h22.24Zm0-26.26H818.69V265h22.24Zm0-26.27H818.69V238.69h22.24Zm0-26.27H818.69V212.42h22.24Zm0-26.27H818.69V186.15h22.24Zm0-26.27H818.69V159.89h22.24Zm0-26.26H818.69V133.62h22.24Zm23.61,788H842.3V921.63h22.24Zm0-26.26H842.3V895.37h22.24Zm0-26.27H842.3V869.1h22.24Zm0-26.27H842.3V842.83h22.24Zm0-26.27H842.3V816.56h22.24Zm0-26.26H842.3V790.3h22.24Zm0-26.27H842.3V764h22.24Zm0-26.27H842.3V737.76h22.24Zm0-26.26H842.3V711.5h22.24Zm0-26.27H842.3V685.23h22.24Zm0-26.27H842.3V659h22.24Zm0-26.26H842.3V632.7h22.24Zm0-26.27H842.3V606.43h22.24Zm0-26.27H842.3V580.16h22.24Zm0-26.27H842.3V553.89h22.24Zm0-26.26H842.3V527.63h22.24Zm0-26.27H842.3V501.36h22.24Zm0-26.27H842.3V475.09h22.24Zm0-26.26H842.3V448.83h22.24Zm0-26.27H842.3V422.56h22.24Zm0-26.27H842.3V396.29h22.24Zm0-26.26H842.3V370h22.24Zm0-26.27H842.3V343.76h22.24Zm0-26.27H842.3V317.49h22.24Zm0-26.27H842.3V291.22h22.24Zm0-26.26H842.3V265h22.24Zm0-26.27H842.3V238.69h22.24Zm0-26.27H842.3V212.42h22.24Zm0-26.26H842.3V186.15h22.24Zm0-26.27H842.3V159.89h22.24Zm0-26.27H842.3V133.62h22.24Zm23.61,788H865.91V921.63h22.24Zm0-26.27H865.91V895.37h22.24Zm0-26.27H865.91V869.1h22.24Zm0-26.26H865.91V842.83h22.24Zm0-26.27H865.91V816.56h22.24Zm0-26.27H865.91V790.3h22.24Zm0-26.26H865.91V764h22.24Zm0-26.27H865.91V737.76h22.24Zm0-26.27H865.91V711.5h22.24Zm0-26.27H865.91V685.23h22.24Zm0-26.26H865.91V659h22.24Zm0-26.27H865.91V632.7h22.24Zm0-26.27H865.91V606.43h22.24Zm0-26.26H865.91V580.16h22.24Zm0-26.27H865.91V553.89h22.24Zm0-26.27H865.91V527.63h22.24Zm0-26.26H865.91V501.36h22.24Zm0-26.27H865.91V475.09h22.24Zm0-26.27H865.91V448.83h22.24Zm0-26.27H865.91V422.56h22.24Zm0-26.26H865.91V396.29h22.24Zm0-26.27H865.91V370h22.24Zm0-26.27H865.91V343.76h22.24Zm0-26.26H865.91V317.49h22.24Zm0-26.27H865.91V291.22h22.24Zm0-26.27H865.91V265h22.24Zm0-26.26H865.91V238.69h22.24Zm0-26.27H865.91V212.42h22.24Zm0-26.27H865.91V186.15h22.24Zm0-26.27H865.91V159.89h22.24Zm0-26.26H865.91V133.62h22.24Zm23.61,788H889.52V921.63h22.24Zm0-26.26H889.52V895.37h22.24Zm0-26.27H889.52V869.1h22.24Zm0-26.27H889.52V842.83h22.24Zm0-26.27H889.52V816.56h22.24Zm0-26.26H889.52V790.3h22.24Zm0-26.27H889.52V764h22.24Zm0-26.27H889.52V737.76h22.24Zm0-26.26H889.52V711.5h22.24Zm0-26.27H889.52V685.23h22.24Zm0-26.27H889.52V659h22.24Zm0-26.26H889.52V632.7h22.24Zm0-26.27H889.52V606.43h22.24Zm0-26.27H889.52V580.16h22.24Zm0-26.27H889.52V553.89h22.24Zm0-26.26H889.52V527.63h22.24Zm0-26.27H889.52V501.36h22.24Zm0-26.27H889.52V475.09h22.24Zm0-26.26H889.52V448.83h22.24Zm0-26.27H889.52V422.56h22.24Zm0-26.27H889.52V396.29h22.24Zm0-26.26H889.52V370h22.24Zm0-26.27H889.52V343.76h22.24Zm0-26.27H889.52V317.49h22.24Zm0-26.27H889.52V291.22h22.24Zm0-26.26H889.52V265h22.24Zm0-26.27H889.52V238.69h22.24Zm0-26.27H889.52V212.42h22.24Zm0-26.26H889.52V186.15h22.24Zm0-26.27H889.52V159.89h22.24Zm0-26.27H889.52V133.62h22.24Zm23.61,788H913.12V921.63h22.25Zm0-26.27H913.12V895.37h22.25Zm0-26.27H913.12V869.1h22.25Zm0-26.26H913.12V842.83h22.25Zm0-26.27H913.12V816.56h22.25Zm0-26.27H913.12V790.3h22.25Zm0-26.27H913.12V764h22.25Zm0-26.26H913.12V737.76h22.25Zm0-26.27H913.12V711.5h22.25Zm0-26.27H913.12V685.23h22.25Zm0-26.26H913.12V659h22.25Zm0-26.27H913.12V632.7h22.25Zm0-26.27H913.12V606.43h22.25Zm0-26.26H913.12V580.16h22.25Zm0-26.27H913.12V553.89h22.25Zm0-26.27H913.12V527.63h22.25Zm0-26.27H913.12V501.36h22.25Zm0-26.26H913.12V475.09h22.25Zm0-26.27H913.12V448.83h22.25Zm0-26.27H913.12V422.56h22.25Zm0-26.26H913.12V396.29h22.25Zm0-26.27H913.12V370h22.25Zm0-26.27H913.12V343.76h22.25Zm0-26.26H913.12V317.49h22.25Zm0-26.27H913.12V291.22h22.25Zm0-26.27H913.12V265h22.25Zm0-26.27H913.12V238.69h22.25Zm0-26.26H913.12V212.42h22.25Zm0-26.27H913.12V186.15h22.25Zm0-26.27H913.12V159.89h22.25Zm0-26.26H913.12V133.62h22.25Zm23.6,788H936.73V921.63H959Zm0-26.26H936.73V895.37H959Zm0-26.27H936.73V869.1H959Zm0-26.27H936.73V842.83H959Zm0-26.27H936.73V816.56H959Zm0-26.26H936.73V790.3H959Zm0-26.27H936.73V764H959Zm0-26.27H936.73V737.76H959Zm0-26.26H936.73V711.5H959ZM959,710H936.73V685.23H959Zm0-26.27H936.73V659H959Zm0-26.26H936.73V632.7H959Zm0-26.27H936.73V606.43H959Zm0-26.27H936.73V580.16H959Zm0-26.27H936.73V553.89H959Zm0-26.26H936.73V527.63H959Zm0-26.27H936.73V501.36H959Zm0-26.27H936.73V475.09H959Zm0-26.26H936.73V448.83H959Zm0-26.27H936.73V422.56H959ZM959,421H936.73V396.29H959Zm0-26.26H936.73V370H959Zm0-26.27H936.73V343.76H959Zm0-26.27H936.73V317.49H959ZM959,316H936.73V291.22H959Zm0-26.26H936.73V265H959Zm0-26.27H936.73V238.69H959Zm0-26.27H936.73V212.42H959Zm0-26.26H936.73V186.15H959Zm0-26.27H936.73V159.89H959Zm0-26.27H936.73V133.62H959Zm24.3,788H961V921.63h22.24Zm0-26.27H961V895.37h22.24Zm0-26.27H961V869.1h22.24Zm0-26.26H961V842.83h22.24Zm0-26.27H961V816.56h22.24Zm0-26.27H961V790.3h22.24Zm0-26.26H961V764h22.24Zm0-26.27H961V737.76h22.24Zm0-26.27H961V711.5h22.24Zm0-26.27H961V685.23h22.24Zm0-26.26H961V659h22.24Zm0-26.27H961V632.7h22.24Zm0-26.27H961V606.43h22.24Zm0-26.26H961V580.16h22.24Zm0-26.27H961V553.89h22.24Zm0-26.27H961V527.63h22.24Zm0-26.26H961V501.36h22.24Zm0-26.27H961V475.09h22.24Zm0-26.27H961V448.83h22.24Zm0-26.27H961V422.56h22.24Zm0-26.26H961V396.29h22.24Zm0-26.27H961V370h22.24Zm0-26.27H961V343.76h22.24Zm0-26.26H961V317.49h22.24Zm0-26.27H961V291.22h22.24Zm0-26.27H961V265h22.24Zm0-26.26H961V238.69h22.24Zm0-26.27H961V212.42h22.24Zm0-26.27H961V186.15h22.24Zm0-26.27H961V159.89h22.24Zm0-26.26H961V133.62h22.24Zm23.61,788H984.63V921.63h22.25Zm0-26.26H984.63V895.37h22.25Zm0-26.27H984.63V869.1h22.25Zm0-26.27H984.63V842.83h22.25Zm0-26.27H984.63V816.56h22.25Zm0-26.26H984.63V790.3h22.25Zm0-26.27H984.63V764h22.25Zm0-26.27H984.63V737.76h22.25Zm0-26.26H984.63V711.5h22.25Zm0-26.27H984.63V685.23h22.25Zm0-26.27H984.63V659h22.25Zm0-26.26H984.63V632.7h22.25Zm0-26.27H984.63V606.43h22.25Zm0-26.27H984.63V580.16h22.25Zm0-26.27H984.63V553.89h22.25Zm0-26.26H984.63V527.63h22.25Zm0-26.27H984.63V501.36h22.25Zm0-26.27H984.63V475.09h22.25Zm0-26.26H984.63V448.83h22.25Zm0-26.27H984.63V422.56h22.25Zm0-26.27H984.63V396.29h22.25Zm0-26.26H984.63V370h22.25Zm0-26.27H984.63V343.76h22.25Zm0-26.27H984.63V317.49h22.25Zm0-26.27H984.63V291.22h22.25Zm0-26.26H984.63V265h22.25Zm0-26.27H984.63V238.69h22.25Zm0-26.27H984.63V212.42h22.25Zm0-26.26H984.63V186.15h22.25Zm0-26.27H984.63V159.89h22.25Zm0-26.27H984.63V133.62h22.25Zm23.6,788h-22.24V921.63h22.24Zm0-26.26h-22.24V895.37h22.24Zm0-26.27h-22.24V869.1h22.24Zm0-26.27h-22.24V842.83h22.24Zm0-26.27h-22.24V816.56h22.24Zm0-26.26h-22.24V790.3h22.24Zm0-26.27h-22.24V764h22.24Zm0-26.27h-22.24V737.76h22.24Zm0-26.26h-22.24V711.5h22.24Zm0-26.27h-22.24V685.23h22.24Zm0-26.27h-22.24V659h22.24Zm0-26.26h-22.24V632.7h22.24Zm0-26.27h-22.24V606.43h22.24Zm0-26.27h-22.24V580.16h22.24Zm0-26.27h-22.24V553.89h22.24Zm0-26.26h-22.24V527.63h22.24Zm0-26.27h-22.24V501.36h22.24Zm0-26.27h-22.24V475.09h22.24Zm0-26.26h-22.24V448.83h22.24Zm0-26.27h-22.24V422.56h22.24Zm0-26.27h-22.24V396.29h22.24Zm0-26.26h-22.24V370h22.24Zm0-26.27h-22.24V343.76h22.24Zm0-26.27h-22.24V317.49h22.24Zm0-26.27h-22.24V291.22h22.24Zm0-26.26h-22.24V265h22.24Zm0-26.27h-22.24V238.69h22.24Zm0-26.27h-22.24V212.42h22.24Zm0-26.26h-22.24V186.15h22.24Zm0-26.27h-22.24V159.89h22.24Zm0-26.27h-22.24V133.62h22.24Zm23.61,788h-22.24V921.63h22.24Zm0-26.27h-22.24V895.37h22.24Zm0-26.27h-22.24V869.1h22.24Zm0-26.26h-22.24V842.83h22.24Zm0-26.27h-22.24V816.56h22.24Zm0-26.27h-22.24V790.3h22.24Zm0-26.26h-22.24V764h22.24Zm0-26.27h-22.24V737.76h22.24Zm0-26.27h-22.24V711.5h22.24Zm0-26.27h-22.24V685.23h22.24Zm0-26.26h-22.24V659h22.24Zm0-26.27h-22.24V632.7h22.24Zm0-26.27h-22.24V606.43h22.24Zm0-26.26h-22.24V580.16h22.24Zm0-26.27h-22.24V553.89h22.24Zm0-26.27h-22.24V527.63h22.24Zm0-26.26h-22.24V501.36h22.24Zm0-26.27h-22.24V475.09h22.24Zm0-26.27h-22.24V448.83h22.24Zm0-26.27h-22.24V422.56h22.24Zm0-26.26h-22.24V396.29h22.24Zm0-26.27h-22.24V370h22.24Zm0-26.27h-22.24V343.76h22.24Zm0-26.26h-22.24V317.49h22.24Zm0-26.27h-22.24V291.22h22.24Zm0-26.27h-22.24V265h22.24Zm0-26.26h-22.24V238.69h22.24Zm0-26.27h-22.24V212.42h22.24Zm0-26.27h-22.24V186.15h22.24Zm0-26.27h-22.24V159.89h22.24Zm0-26.26h-22.24V133.62h22.24Zm23.61,788h-22.24V921.63h22.24Zm0-26.26h-22.24V895.37h22.24Zm0-26.27h-22.24V869.1h22.24Zm0-26.27h-22.24V842.83h22.24Zm0-26.27h-22.24V816.56h22.24Zm0-26.26h-22.24V790.3h22.24Zm0-26.27h-22.24V764h22.24Zm0-26.27h-22.24V737.76h22.24Zm0-26.26h-22.24V711.5h22.24Zm0-26.27h-22.24V685.23h22.24Zm0-26.27h-22.24V659h22.24Zm0-26.26h-22.24V632.7h22.24Zm0-26.27h-22.24V606.43h22.24Zm0-26.27h-22.24V580.16h22.24Zm0-26.27h-22.24V553.89h22.24Zm0-26.26h-22.24V527.63h22.24Zm0-26.27h-22.24V501.36h22.24Zm0-26.27h-22.24V475.09h22.24Zm0-26.26h-22.24V448.83h22.24Zm0-26.27h-22.24V422.56h22.24Zm0-26.27h-22.24V396.29h22.24Zm0-26.26h-22.24V370h22.24Zm0-26.27h-22.24V343.76h22.24Zm0-26.27h-22.24V317.49h22.24Zm0-26.27h-22.24V291.22h22.24Zm0-26.26h-22.24V265h22.24Zm0-26.27h-22.24V238.69h22.24Zm0-26.27h-22.24V212.42h22.24Zm0-26.26h-22.24V186.15h22.24Zm0-26.27h-22.24V159.89h22.24Zm0-26.27h-22.24V133.62h22.24Zm23.61,788h-22.24V921.63h22.24Zm0-26.27h-22.24V895.37h22.24Zm0-26.27h-22.24V869.1h22.24Zm0-26.26h-22.24V842.83h22.24Zm0-26.27h-22.24V816.56h22.24Zm0-26.27h-22.24V790.3h22.24Zm0-26.27h-22.24V764h22.24Zm0-26.26h-22.24V737.76h22.24Zm0-26.27h-22.24V711.5h22.24Zm0-26.27h-22.24V685.23h22.24Zm0-26.26h-22.24V659h22.24Zm0-26.27h-22.24V632.7h22.24Zm0-26.27h-22.24V606.43h22.24Zm0-26.26h-22.24V580.16h22.24Zm0-26.27h-22.24V553.89h22.24Zm0-26.27h-22.24V527.63h22.24Zm0-26.27h-22.24V501.36h22.24Zm0-26.26h-22.24V475.09h22.24Zm0-26.27h-22.24V448.83h22.24Zm0-26.27h-22.24V422.56h22.24Zm0-26.26h-22.24V396.29h22.24Zm0-26.27h-22.24V370h22.24Zm0-26.27h-22.24V343.76h22.24Zm0-26.26h-22.24V317.49h22.24Zm0-26.27h-22.24V291.22h22.24Zm0-26.27h-22.24V265h22.24Zm0-26.27h-22.24V238.69h22.24Zm0-26.26h-22.24V212.42h22.24Zm0-26.27h-22.24V186.15h22.24Zm0-26.27h-22.24V159.89h22.24Zm0-26.26h-22.24V133.62h22.24Zm23.6,788h-22.24V921.63h22.24Zm0-26.27h-22.24V895.37h22.24Zm0-26.26h-22.24V869.1h22.24Zm0-26.27h-22.24V842.83h22.24Zm0-26.27h-22.24V816.56h22.24Zm0-26.26h-22.24V790.3h22.24Zm0-26.27h-22.24V764h22.24Zm0-26.27h-22.24V737.76h22.24Zm0-26.26h-22.24V711.5h22.24Zm0-26.27h-22.24V685.23h22.24Zm0-26.27h-22.24V659h22.24Zm0-26.27h-22.24V632.7h22.24Zm0-26.26h-22.24V606.43h22.24Zm0-26.27h-22.24V580.16h22.24Zm0-26.27h-22.24V553.89h22.24Zm0-26.26h-22.24V527.63h22.24Zm0-26.27h-22.24V501.36h22.24Zm0-26.27h-22.24V475.09h22.24Zm0-26.26h-22.24V448.83h22.24Zm0-26.27h-22.24V422.56h22.24Zm0-26.27h-22.24V396.29h22.24Zm0-26.27h-22.24V370h22.24Zm0-26.26h-22.24V343.76h22.24Zm0-26.27h-22.24V317.49h22.24Zm0-26.27h-22.24V291.22h22.24Zm0-26.26h-22.24V265h22.24Zm0-26.27h-22.24V238.69h22.24Zm0-26.27h-22.24V212.42h22.24Zm0-26.26h-22.24V186.15h22.24Zm0-26.27h-22.24V159.89h22.24Zm0-26.27h-22.24V133.62h22.24Zm23.61,788h-22.24V921.63h22.24Zm0-26.27h-22.24V895.37h22.24Zm0-26.27h-22.24V869.1h22.24Zm0-26.26h-22.24V842.83h22.24Zm0-26.27h-22.24V816.56h22.24Zm0-26.27h-22.24V790.3h22.24Zm0-26.27h-22.24V764h22.24Zm0-26.26h-22.24V737.76h22.24Zm0-26.27h-22.24V711.5h22.24Zm0-26.27h-22.24V685.23h22.24Zm0-26.26h-22.24V659h22.24Zm0-26.27h-22.24V632.7h22.24Zm0-26.27h-22.24V606.43h22.24Zm0-26.26h-22.24V580.16h22.24Zm0-26.27h-22.24V553.89h22.24Zm0-26.27h-22.24V527.63h22.24Zm0-26.27h-22.24V501.36h22.24Zm0-26.26h-22.24V475.09h22.24Zm0-26.27h-22.24V448.83h22.24Zm0-26.27h-22.24V422.56h22.24Zm0-26.26h-22.24V396.29h22.24Zm0-26.27h-22.24V370h22.24Zm0-26.27h-22.24V343.76h22.24Zm0-26.26h-22.24V317.49h22.24Zm0-26.27h-22.24V291.22h22.24Zm0-26.27h-22.24V265h22.24Zm0-26.27h-22.24V238.69h22.24Zm0-26.26h-22.24V212.42h22.24Zm0-26.27h-22.24V186.15h22.24Zm0-26.27h-22.24V159.89h22.24Zm0-26.26h-22.24V133.62h22.24Zm23.61,788h-22.24V921.63h22.24Zm0-26.26h-22.24V895.37h22.24Zm0-26.27h-22.24V869.1h22.24Zm0-26.27h-22.24V842.83h22.24Zm0-26.27h-22.24V816.56h22.24Zm0-26.26h-22.24V790.3h22.24Zm0-26.27h-22.24V764h22.24Zm0-26.27h-22.24V737.76h22.24Zm0-26.26h-22.24V711.5h22.24Zm0-26.27h-22.24V685.23h22.24Zm0-26.27h-22.24V659h22.24Zm0-26.26h-22.24V632.7h22.24Zm0-26.27h-22.24V606.43h22.24Zm0-26.27h-22.24V580.16h22.24Zm0-26.27h-22.24V553.89h22.24Zm0-26.26h-22.24V527.63h22.24Zm0-26.27h-22.24V501.36h22.24Zm0-26.27h-22.24V475.09h22.24Zm0-26.26h-22.24V448.83h22.24Zm0-26.27h-22.24V422.56h22.24Zm0-26.27h-22.24V396.29h22.24Zm0-26.26h-22.24V370h22.24Zm0-26.27h-22.24V343.76h22.24Zm0-26.27h-22.24V317.49h22.24Zm0-26.27h-22.24V291.22h22.24Zm0-26.26h-22.24V265h22.24Zm0-26.27h-22.24V238.69h22.24Zm0-26.27h-22.24V212.42h22.24Zm0-26.27h-22.24V186.15h22.24Zm0-26.27h-22.24V159.89h22.24Zm0-26.26h-22.24V133.62h22.24Zm23.6,788h-22.24V921.63h22.24Zm0-26.26h-22.24V895.37h22.24Zm0-26.27h-22.24V869.1h22.24Zm0-26.27h-22.24V842.83h22.24Zm0-26.27h-22.24V816.56h22.24Zm0-26.26h-22.24V790.3h22.24Zm0-26.27h-22.24V764h22.24Zm0-26.27h-22.24V737.76h22.24Zm0-26.26h-22.24V711.5h22.24Zm0-26.27h-22.24V685.23h22.24Zm0-26.27h-22.24V659h22.24Zm0-26.26h-22.24V632.7h22.24Zm0-26.27h-22.24V606.43h22.24Zm0-26.27h-22.24V580.16h22.24Zm0-26.27h-22.24V553.89h22.24Zm0-26.26h-22.24V527.63h22.24Zm0-26.27h-22.24V501.36h22.24Zm0-26.27h-22.24V475.09h22.24Zm0-26.26h-22.24V448.83h22.24Zm0-26.27h-22.24V422.56h22.24Zm0-26.27h-22.24V396.29h22.24Zm0-26.26h-22.24V370h22.24Zm0-26.27h-22.24V343.76h22.24Zm0-26.27h-22.24V317.49h22.24Zm0-26.27h-22.24V291.22h22.24Zm0-26.26h-22.24V265h22.24Zm0-26.27h-22.24V238.69h22.24Zm0-26.27h-22.24V212.42h22.24Zm0-26.27h-22.24V186.15h22.24Zm0-26.27h-22.24V159.89h22.24Zm0-26.26h-22.24V133.62h22.24Zm23.61,788H1197.1V921.63h22.25Zm0-26.27H1197.1V895.37h22.25Zm0-26.26H1197.1V869.1h22.25Zm0-26.27H1197.1V842.83h22.25Zm0-26.27H1197.1V816.56h22.25Zm0-26.26H1197.1V790.3h22.25Zm0-26.27H1197.1V764h22.25Zm0-26.27H1197.1V737.76h22.25Zm0-26.27H1197.1V711.5h22.25Zm0-26.26H1197.1V685.23h22.25Zm0-26.27H1197.1V659h22.25Zm0-26.27H1197.1V632.7h22.25Zm0-26.26H1197.1V606.43h22.25Zm0-26.27H1197.1V580.16h22.25Zm0-26.27H1197.1V553.89h22.25Zm0-26.26H1197.1V527.63h22.25Zm0-26.27H1197.1V501.36h22.25Zm0-26.27H1197.1V475.09h22.25Zm0-26.27H1197.1V448.83h22.25Zm0-26.26H1197.1V422.56h22.25Zm0-26.27H1197.1V396.29h22.25Zm0-26.27H1197.1V370h22.25Zm0-26.26H1197.1V343.76h22.25Zm0-26.27H1197.1V317.49h22.25Zm0-26.27H1197.1V291.22h22.25Zm0-26.26H1197.1V265h22.25Zm0-26.27H1197.1V238.69h22.25Zm0-26.27H1197.1V212.42h22.25Zm0-26.27H1197.1V186.15h22.25Zm0-26.26H1197.1V159.89h22.25Zm0-26.27H1197.1V133.62h22.25Zm23.61,788h-22.24V921.63H1243Zm0-26.27h-22.24V895.37H1243Zm0-26.27h-22.24V869.1H1243Zm0-26.27h-22.24V842.83H1243Zm0-26.26h-22.24V816.56H1243Zm0-26.27h-22.24V790.3H1243Zm0-26.27h-22.24V764H1243Zm0-26.26h-22.24V737.76H1243Zm0-26.27h-22.24V711.5H1243Zm0-26.27h-22.24V685.23H1243Zm0-26.26h-22.24V659H1243Zm0-26.27h-22.24V632.7H1243Zm0-26.27h-22.24V606.43H1243Zm0-26.27h-22.24V580.16H1243Zm0-26.26h-22.24V553.89H1243Zm0-26.27h-22.24V527.63H1243Zm0-26.27h-22.24V501.36H1243Zm0-26.26h-22.24V475.09H1243Zm0-26.27h-22.24V448.83H1243Zm0-26.27h-22.24V422.56H1243Zm0-26.26h-22.24V396.29H1243Zm0-26.27h-22.24V370H1243Zm0-26.27h-22.24V343.76H1243Zm0-26.27h-22.24V317.49H1243Zm0-26.26h-22.24V291.22H1243Zm0-26.27h-22.24V265H1243Zm0-26.27h-22.24V238.69H1243Zm0-26.26h-22.24V212.42H1243Zm0-26.27h-22.24V186.15H1243Zm0-26.27h-22.24V159.89H1243Zm0-26.26h-22.24V133.62H1243Zm23.61,788h-22.24V921.63h22.24Zm0-26.27h-22.24V895.37h22.24Zm0-26.26h-22.24V869.1h22.24Zm0-26.27h-22.24V842.83h22.24Zm0-26.27h-22.24V816.56h22.24Zm0-26.26h-22.24V790.3h22.24Zm0-26.27h-22.24V764h22.24Zm0-26.27h-22.24V737.76h22.24Zm0-26.27h-22.24V711.5h22.24Zm0-26.26h-22.24V685.23h22.24Zm0-26.27h-22.24V659h22.24Zm0-26.27h-22.24V632.7h22.24Zm0-26.26h-22.24V606.43h22.24Zm0-26.27h-22.24V580.16h22.24Zm0-26.27h-22.24V553.89h22.24Zm0-26.26h-22.24V527.63h22.24Zm0-26.27h-22.24V501.36h22.24Zm0-26.27h-22.24V475.09h22.24Zm0-26.27h-22.24V448.83h22.24Zm0-26.26h-22.24V422.56h22.24Zm0-26.27h-22.24V396.29h22.24Zm0-26.27h-22.24V370h22.24Zm0-26.26h-22.24V343.76h22.24Zm0-26.27h-22.24V317.49h22.24Zm0-26.27h-22.24V291.22h22.24Zm0-26.26h-22.24V265h22.24Zm0-26.27h-22.24V238.69h22.24Zm0-26.27h-22.24V212.42h22.24Zm0-26.27h-22.24V186.15h22.24Zm0-26.26h-22.24V159.89h22.24Zm0-26.27h-22.24V133.62h22.24Zm23.6,788h-22.23V921.63h22.24Zm0-26.27h-22.23V895.37h22.24Zm0-26.27h-22.23V869.1h22.24Zm0-26.27h-22.23V842.83h22.24Zm0-26.26h-22.23V816.56h22.24Zm0-26.27h-22.23V790.3h22.24Zm0-26.27h-22.23V764h22.24Zm0-26.26h-22.23V737.76h22.24Zm0-26.27h-22.23V711.5h22.24Zm0-26.27h-22.23V685.23h22.24Zm0-26.27h-22.23V659h22.24Zm0-26.26h-22.23V632.7h22.24Zm0-26.27h-22.23V606.43h22.24Zm0-26.27h-22.23V580.16h22.24Zm0-26.26h-22.23V553.89h22.24Zm0-26.27h-22.23V527.63h22.24Zm0-26.27h-22.23V501.36h22.24Zm0-26.26h-22.23V475.09h22.24Zm0-26.27h-22.23V448.83h22.24Zm0-26.27h-22.23V422.56h22.24Zm0-26.27h-22.23V396.29h22.24Zm0-26.26h-22.23V370h22.24Zm0-26.27h-22.23V343.76h22.24Zm0-26.27h-22.23V317.49h22.24Zm0-26.26h-22.23V291.22h22.24Zm0-26.27h-22.23V265h22.24Zm0-26.27h-22.23V238.69h22.24Zm0-26.26h-22.23V212.42h22.24Zm0-26.27h-22.23V186.15h22.24Zm0-26.27h-22.23V159.89h22.24Zm0-26.27h-22.23V133.62h22.24Zm23.61,788h-22.24V921.63h22.25Zm0-26.27h-22.24V895.37h22.25Zm0-26.26h-22.24V869.1h22.25Zm0-26.27h-22.24V842.83h22.25Zm0-26.27h-22.24V816.56h22.25Zm0-26.27h-22.24V790.3h22.25Zm0-26.26h-22.24V764h22.25Zm0-26.27h-22.24V737.76h22.25Zm0-26.27h-22.24V711.5h22.25Zm0-26.26h-22.24V685.23h22.25Zm0-26.27h-22.24V659h22.25Zm0-26.27h-22.24V632.7h22.25Zm0-26.26h-22.24V606.43h22.25Zm0-26.27h-22.24V580.16h22.25Zm0-26.27h-22.24V553.89h22.25Zm0-26.27h-22.24V527.63h22.25Zm0-26.26h-22.24V501.36h22.25Zm0-26.27h-22.24V475.09h22.25Zm0-26.27h-22.24V448.83h22.25Zm0-26.26h-22.24V422.56h22.25Zm0-26.27h-22.24V396.29h22.25Zm0-26.27h-22.24V370h22.25Zm0-26.26h-22.24V343.76h22.25Zm0-26.27h-22.24V317.49h22.25Zm0-26.27h-22.24V291.22h22.25Zm0-26.27h-22.24V265h22.25Zm0-26.26h-22.24V238.69h22.25Zm0-26.27h-22.24V212.42h22.25Zm0-26.27h-22.24V186.15h22.25Zm0-26.26h-22.24V159.89h22.25Zm0-26.27h-22.24V133.62h22.25Zm23.61,788h-22.24V921.63h22.24Zm0-26.26h-22.24V895.37h22.24Zm0-26.27h-22.24V869.1h22.24Zm0-26.27h-22.24V842.83h22.24Zm0-26.27h-22.24V816.56h22.24Zm0-26.26h-22.24V790.3h22.24Zm0-26.27h-22.24V764h22.24Zm0-26.27h-22.24V737.76h22.24Zm0-26.26h-22.24V711.5h22.24Zm0-26.27h-22.24V685.23h22.24Zm0-26.27h-22.24V659h22.24Zm0-26.26h-22.24V632.7h22.24Zm0-26.27h-22.24V606.43h22.24Zm0-26.27h-22.24V580.16h22.24Zm0-26.27h-22.24V553.89h22.24Zm0-26.26h-22.24V527.63h22.24Zm0-26.27h-22.24V501.36h22.24Zm0-26.27h-22.24V475.09h22.24Zm0-26.26h-22.24V448.83h22.24Zm0-26.27h-22.24V422.56h22.24Zm0-26.27h-22.24V396.29h22.24Zm0-26.26h-22.24V370h22.24Zm0-26.27h-22.24V343.76h22.24Zm0-26.27h-22.24V317.49h22.24Zm0-26.27h-22.24V291.22h22.24Zm0-26.26h-22.24V265h22.24Zm0-26.27h-22.24V238.69h22.24Zm0-26.27h-22.24V212.42h22.24Zm0-26.26h-22.24V186.15h22.24Zm0-26.27h-22.24V159.89h22.24Zm0-26.27h-22.24V133.62h22.24Zm23.61,788h-22.24V921.63H1361Zm0-26.27h-22.24V895.37H1361Zm0-26.27h-22.24V869.1H1361Zm0-26.26h-22.24V842.83H1361Zm0-26.27h-22.24V816.56H1361Zm0-26.27h-22.24V790.3H1361Zm0-26.26h-22.24V764H1361Zm0-26.27h-22.24V737.76H1361Zm0-26.27h-22.24V711.5H1361Zm0-26.27h-22.24V685.23H1361Zm0-26.26h-22.24V659H1361Zm0-26.27h-22.24V632.7H1361Zm0-26.27h-22.24V606.43H1361Zm0-26.26h-22.24V580.16H1361Zm0-26.27h-22.24V553.89H1361Zm0-26.27h-22.24V527.63H1361Zm0-26.26h-22.24V501.36H1361Zm0-26.27h-22.24V475.09H1361Zm0-26.27h-22.24V448.83H1361Zm0-26.27h-22.24V422.56H1361Zm0-26.26h-22.24V396.29H1361Zm0-26.27h-22.24V370H1361Zm0-26.27h-22.24V343.76H1361Zm0-26.26h-22.24V317.49H1361Zm0-26.27h-22.24V291.22H1361Zm0-26.27h-22.24V265H1361Zm0-26.26h-22.24V238.69H1361Zm0-26.27h-22.24V212.42H1361Zm0-26.27h-22.24V186.15H1361Zm0-26.27h-22.24V159.89H1361Zm0-26.26h-22.24V133.62H1361Zm23.61,788h-22.24V921.63h22.24Zm0-26.26h-22.24V895.37h22.24Zm0-26.27h-22.24V869.1h22.24Zm0-26.27h-22.24V842.83h22.24Zm0-26.27h-22.24V816.56h22.24Zm0-26.26h-22.24V790.3h22.24Zm0-26.27h-22.24V764h22.24Zm0-26.27h-22.24V737.76h22.24Zm0-26.26h-22.24V711.5h22.24Zm0-26.27h-22.24V685.23h22.24Zm0-26.27h-22.24V659h22.24Zm0-26.26h-22.24V632.7h22.24Zm0-26.27h-22.24V606.43h22.24Zm0-26.27h-22.24V580.16h22.24Zm0-26.27h-22.24V553.89h22.24Zm0-26.26h-22.24V527.63h22.24Zm0-26.27h-22.24V501.36h22.24Zm0-26.27h-22.24V475.09h22.24Zm0-26.26h-22.24V448.83h22.24Zm0-26.27h-22.24V422.56h22.24Zm0-26.27h-22.24V396.29h22.24Zm0-26.26h-22.24V370h22.24Zm0-26.27h-22.24V343.76h22.24Zm0-26.27h-22.24V317.49h22.24Zm0-26.27h-22.24V291.22h22.24Zm0-26.26h-22.24V265h22.24Zm0-26.27h-22.24V238.69h22.24Zm0-26.27h-22.24V212.42h22.24Zm0-26.26h-22.24V186.15h22.24Zm0-26.27h-22.24V159.89h22.24Zm0-26.27h-22.24V133.62h22.24Zm23.61,788H1386V921.63h22.24Zm0-26.27H1386V895.37h22.24Zm0-26.27H1386V869.1h22.24Zm0-26.26H1386V842.83h22.24Zm0-26.27H1386V816.56h22.24Zm0-26.27H1386V790.3h22.24Zm0-26.27H1386V764h22.24Zm0-26.26H1386V737.76h22.24Zm0-26.27H1386V711.5h22.24Zm0-26.27H1386V685.23h22.24Zm0-26.26H1386V659h22.24Zm0-26.27H1386V632.7h22.24Zm0-26.27H1386V606.43h22.24Zm0-26.26H1386V580.16h22.24Zm0-26.27H1386V553.89h22.24Zm0-26.27H1386V527.63h22.24Zm0-26.27H1386V501.36h22.24Zm0-26.26H1386V475.09h22.24Zm0-26.27H1386V448.83h22.24Zm0-26.27H1386V422.56h22.24Zm0-26.26H1386V396.29h22.24Zm0-26.27H1386V370h22.24Zm0-26.27H1386V343.76h22.24Zm0-26.26H1386V317.49h22.24Zm0-26.27H1386V291.22h22.24Zm0-26.27H1386V265h22.24Zm0-26.27H1386V238.69h22.24Zm0-26.26H1386V212.42h22.24Zm0-26.27H1386V186.15h22.24Zm0-26.27H1386V159.89h22.24Zm0-26.26H1386V133.62h22.24Zm23.6,788h-22.24V921.63h22.24Zm0-26.26h-22.24V895.37h22.24Zm0-26.27h-22.24V869.1h22.24Zm0-26.27h-22.24V842.83h22.24Zm0-26.27h-22.24V816.56h22.24Zm0-26.26h-22.24V790.3h22.24Zm0-26.27h-22.24V764h22.24Zm0-26.27h-22.24V737.76h22.24Zm0-26.26h-22.24V711.5h22.24Zm0-26.27h-22.24V685.23h22.24Zm0-26.27h-22.24V659h22.24Zm0-26.26h-22.24V632.7h22.24Zm0-26.27h-22.24V606.43h22.24Zm0-26.27h-22.24V580.16h22.24Zm0-26.27h-22.24V553.89h22.24Zm0-26.26h-22.24V527.63h22.24Zm0-26.27h-22.24V501.36h22.24Zm0-26.27h-22.24V475.09h22.24Zm0-26.26h-22.24V448.83h22.24Zm0-26.27h-22.24V422.56h22.24Zm0-26.27h-22.24V396.29h22.24Zm0-26.26h-22.24V370h22.24Zm0-26.27h-22.24V343.76h22.24Zm0-26.27h-22.24V317.49h22.24Zm0-26.27h-22.24V291.22h22.24Zm0-26.26h-22.24V265h22.24Zm0-26.27h-22.24V238.69h22.24Zm0-26.27h-22.24V212.42h22.24Zm0-26.26h-22.24V186.15h22.24Zm0-26.27h-22.24V159.89h22.24Zm0-26.27h-22.24V133.62h22.24Zm23.61,788h-22.24V921.63h22.24Zm0-26.27h-22.24V895.37h22.24Zm0-26.27h-22.24V869.1h22.24Zm0-26.26h-22.24V842.83h22.24Zm0-26.27h-22.24V816.56h22.24Zm0-26.27h-22.24V790.3h22.24Zm0-26.26h-22.24V764h22.24Zm0-26.27h-22.24V737.76h22.24Zm0-26.27h-22.24V711.5h22.24Zm0-26.27h-22.24V685.23h22.24Zm0-26.26h-22.24V659h22.24Zm0-26.27h-22.24V632.7h22.24Zm0-26.27h-22.24V606.43h22.24Zm0-26.26h-22.24V580.16h22.24Zm0-26.27h-22.24V553.89h22.24Zm0-26.27h-22.24V527.63h22.24Zm0-26.26h-22.24V501.36h22.24Zm0-26.27h-22.24V475.09h22.24Zm0-26.27h-22.24V448.83h22.24Zm0-26.27h-22.24V422.56h22.24Zm0-26.26h-22.24V396.29h22.24Zm0-26.27h-22.24V370h22.24Zm0-26.27h-22.24V343.76h22.24Zm0-26.26h-22.24V317.49h22.24Zm0-26.27h-22.24V291.22h22.24Zm0-26.27h-22.24V265h22.24Zm0-26.26h-22.24V238.69h22.24Zm0-26.27h-22.24V212.42h22.24Zm0-26.27h-22.24V186.15h22.24Zm0-26.27h-22.24V159.89h22.24Zm0-26.26h-22.24V133.62h22.24Zm23.61,788h-22.24V921.63H1479Zm0-26.26h-22.24V895.37H1479Zm0-26.27h-22.24V869.1H1479Zm0-26.27h-22.24V842.83H1479Zm0-26.27h-22.24V816.56H1479Zm0-26.26h-22.24V790.3H1479Zm0-26.27h-22.24V764H1479Zm0-26.27h-22.24V737.76H1479Zm0-26.26h-22.24V711.5H1479Zm0-26.27h-22.24V685.23H1479Zm0-26.27h-22.24V659H1479Zm0-26.26h-22.24V632.7H1479Zm0-26.27h-22.24V606.43H1479Zm0-26.27h-22.24V580.16H1479Zm0-26.27h-22.24V553.89H1479Zm0-26.26h-22.24V527.63H1479Zm0-26.27h-22.24V501.36H1479Zm0-26.27h-22.24V475.09H1479Zm0-26.26h-22.24V448.83H1479Zm0-26.27h-22.24V422.56H1479Zm0-26.27h-22.24V396.29H1479Zm0-26.26h-22.24V370H1479Zm0-26.27h-22.24V343.76H1479Zm0-26.27h-22.24V317.49H1479Zm0-26.27h-22.24V291.22H1479Zm0-26.26h-22.24V265H1479Zm0-26.27h-22.24V238.69H1479Zm0-26.27h-22.24V212.42H1479Zm0-26.27h-22.24V186.15H1479Zm0-26.27h-22.24V159.89H1479Zm0-26.26h-22.24V133.62H1479Zm23.6,788H1480.4V921.63h22.23Zm0-26.26H1480.4V895.37h22.23Zm0-26.27H1480.4V869.1h22.23Zm0-26.27H1480.4V842.83h22.23Zm0-26.27H1480.4V816.56h22.23Zm0-26.26H1480.4V790.3h22.23Zm0-26.27H1480.4V764h22.23Zm0-26.27H1480.4V737.76h22.23Zm0-26.26H1480.4V711.5h22.23Zm0-26.27H1480.4V685.23h22.23Zm0-26.27H1480.4V659h22.23Zm0-26.26H1480.4V632.7h22.23Zm0-26.27H1480.4V606.43h22.23Zm0-26.27H1480.4V580.16h22.23Zm0-26.27H1480.4V553.89h22.23Zm0-26.26H1480.4V527.63h22.23Zm0-26.27H1480.4V501.36h22.23Zm0-26.27H1480.4V475.09h22.23Zm0-26.26H1480.4V448.83h22.23Zm0-26.27H1480.4V422.56h22.23Zm0-26.27H1480.4V396.29h22.23Zm0-26.26H1480.4V370h22.23Zm0-26.27H1480.4V343.76h22.23Zm0-26.27H1480.4V317.49h22.23Zm0-26.27H1480.4V291.22h22.23Zm0-26.26H1480.4V265h22.23Zm0-26.27H1480.4V238.69h22.23Zm0-26.27H1480.4V212.42h22.23Zm0-26.26H1480.4V186.15h22.23Zm0-26.27H1480.4V159.89h22.23Zm0-26.27H1480.4V133.62h22.23Zm23.61,788H1504V921.63h22.24Zm0-26.27H1504V895.37h22.24Zm0-26.27H1504V869.1h22.24Zm0-26.26H1504V842.83h22.24Zm0-26.27H1504V816.56h22.24Zm0-26.27H1504V790.3h22.24Zm0-26.26H1504V764h22.24Zm0-26.27H1504V737.76h22.24Zm0-26.27H1504V711.5h22.24Zm0-26.27H1504V685.23h22.24Zm0-26.26H1504V659h22.24Zm0-26.27H1504V632.7h22.24Zm0-26.27H1504V606.43h22.24Zm0-26.26H1504V580.16h22.24Zm0-26.27H1504V553.89h22.24Zm0-26.27H1504V527.63h22.24Zm0-26.26H1504V501.36h22.24Zm0-26.27H1504V475.09h22.24Zm0-26.27H1504V448.83h22.24Zm0-26.27H1504V422.56h22.24Zm0-26.26H1504V396.29h22.24Zm0-26.27H1504V370h22.24Zm0-26.27H1504V343.76h22.24Zm0-26.26H1504V317.49h22.24Zm0-26.27H1504V291.22h22.24Zm0-26.27H1504V265h22.24Zm0-26.26H1504V238.69h22.24Zm0-26.27H1504V212.42h22.24Zm0-26.27H1504V186.15h22.24Zm0-26.27H1504V159.89h22.24Zm0-26.26H1504V133.62h22.24Zm23.61,788h-22.24V921.63h22.24Zm0-26.26h-22.24V895.37h22.24Zm0-26.27h-22.24V869.1h22.24Zm0-26.27h-22.24V842.83h22.24Zm0-26.27h-22.24V816.56h22.24Zm0-26.26h-22.24V790.3h22.24Zm0-26.27h-22.24V764h22.24Zm0-26.27h-22.24V737.76h22.24Zm0-26.26h-22.24V711.5h22.24Zm0-26.27h-22.24V685.23h22.24Zm0-26.27h-22.24V659h22.24Zm0-26.26h-22.24V632.7h22.24Zm0-26.27h-22.24V606.43h22.24Zm0-26.27h-22.24V580.16h22.24Zm0-26.27h-22.24V553.89h22.24Zm0-26.26h-22.24V527.63h22.24Zm0-26.27h-22.24V501.36h22.24Zm0-26.27h-22.24V475.09h22.24Zm0-26.26h-22.24V448.83h22.24Zm0-26.27h-22.24V422.56h22.24Zm0-26.27h-22.24V396.29h22.24Zm0-26.26h-22.24V370h22.24Zm0-26.27h-22.24V343.76h22.24Zm0-26.27h-22.24V317.49h22.24Zm0-26.27h-22.24V291.22h22.24Zm0-26.26h-22.24V265h22.24Zm0-26.27h-22.24V238.69h22.24Zm0-26.27h-22.24V212.42h22.24Zm0-26.26h-22.24V186.15h22.24Zm0-26.27h-22.24V159.89h22.24Zm0-26.27h-22.24V133.62h22.24Zm23.61,788h-22.25V921.63h22.25Zm0-26.27h-22.25V895.37h22.25Zm0-26.27h-22.25V869.1h22.25Zm0-26.26h-22.25V842.83h22.25Zm0-26.27h-22.25V816.56h22.25Zm0-26.27h-22.25V790.3h22.25Zm0-26.27h-22.25V764h22.25Zm0-26.26h-22.25V737.76h22.25Zm0-26.27h-22.25V711.5h22.25Zm0-26.27h-22.25V685.23h22.25Zm0-26.26h-22.25V659h22.25Zm0-26.27h-22.25V632.7h22.25Zm0-26.27h-22.25V606.43h22.25Zm0-26.26h-22.25V580.16h22.25Zm0-26.27h-22.25V553.89h22.25Zm0-26.27h-22.25V527.63h22.25Zm0-26.27h-22.25V501.36h22.25Zm0-26.26h-22.25V475.09h22.25Zm0-26.27h-22.25V448.83h22.25Zm0-26.27h-22.25V422.56h22.25Zm0-26.26h-22.25V396.29h22.25Zm0-26.27h-22.25V370h22.25Zm0-26.27h-22.25V343.76h22.25Zm0-26.26h-22.25V317.49h22.25Zm0-26.27h-22.25V291.22h22.25Zm0-26.27h-22.25V265h22.25Zm0-26.27h-22.25V238.69h22.25Zm0-26.26h-22.25V212.42h22.25Zm0-26.27h-22.25V186.15h22.25Zm0-26.27h-22.25V159.89h22.25Zm0-26.26h-22.25V133.62h22.25Zm23.6,788h-22.24V921.63h22.24Zm0-26.27h-22.24V895.37h22.24Zm0-26.26h-22.24V869.1h22.24Zm0-26.27h-22.24V842.83h22.24Zm0-26.27h-22.24V816.56h22.24Zm0-26.26h-22.24V790.3h22.24Zm0-26.27h-22.24V764h22.24Zm0-26.27h-22.24V737.76h22.24Zm0-26.26h-22.24V711.5h22.24Zm0-26.27h-22.24V685.23h22.24Zm0-26.27h-22.24V659h22.24Zm0-26.27h-22.24V632.7h22.24Zm0-26.26h-22.24V606.43h22.24Zm0-26.27h-22.24V580.16h22.24Zm0-26.27h-22.24V553.89h22.24Zm0-26.26h-22.24V527.63h22.24Zm0-26.27h-22.24V501.36h22.24Zm0-26.27h-22.24V475.09h22.24Zm0-26.26h-22.24V448.83h22.24Zm0-26.27h-22.24V422.56h22.24Zm0-26.27h-22.24V396.29h22.24Zm0-26.27h-22.24V370h22.24Zm0-26.26h-22.24V343.76h22.24Zm0-26.27h-22.24V317.49h22.24Zm0-26.27h-22.24V291.22h22.24Zm0-26.26h-22.24V265h22.24Zm0-26.27h-22.24V238.69h22.24Zm0-26.27h-22.24V212.42h22.24Zm0-26.26h-22.24V186.15h22.24Zm0-26.27h-22.24V159.89h22.24Zm0-26.27h-22.24V133.62h22.24Zm23.61,788h-22.24V921.63h22.25Zm0-26.27h-22.24V895.37h22.25Zm0-26.27h-22.24V869.1h22.25Zm0-26.26h-22.24V842.83h22.25Zm0-26.27h-22.24V816.56h22.25Zm0-26.27h-22.24V790.3h22.25Zm0-26.27h-22.24V764h22.25Zm0-26.26h-22.24V737.76h22.25Zm0-26.27h-22.24V711.5h22.25Zm0-26.27h-22.24V685.23h22.25Zm0-26.26h-22.24V659h22.25Zm0-26.27h-22.24V632.7h22.25Zm0-26.27h-22.24V606.43h22.25Zm0-26.26h-22.24V580.16h22.25Zm0-26.27h-22.24V553.89h22.25Zm0-26.27h-22.24V527.63h22.25Zm0-26.27h-22.24V501.36h22.25Zm0-26.26h-22.24V475.09h22.25Zm0-26.27h-22.24V448.83h22.25Zm0-26.27h-22.24V422.56h22.25Zm0-26.26h-22.24V396.29h22.25Zm0-26.27h-22.24V370h22.25Zm0-26.27h-22.24V343.76h22.25Zm0-26.26h-22.24V317.49h22.25Zm0-26.27h-22.24V291.22h22.25Zm0-26.27h-22.24V265h22.25Zm0-26.27h-22.24V238.69h22.25Zm0-26.26h-22.24V212.42h22.25Zm0-26.27h-22.24V186.15h22.25Zm0-26.27h-22.24V159.89h22.25Zm0-26.26h-22.24V133.62h22.25Zm23.61,788H1622V921.63h22.24Zm0-26.27H1622V895.37h22.24Zm0-26.26H1622V869.1h22.24Zm0-26.27H1622V842.83h22.24Zm0-26.27H1622V816.56h22.24Zm0-26.26H1622V790.3h22.24Zm0-26.27H1622V764h22.24Zm0-26.27H1622V737.76h22.24Zm0-26.27H1622V711.5h22.24Zm0-26.26H1622V685.23h22.24Zm0-26.27H1622V659h22.24Zm0-26.27H1622V632.7h22.24Zm0-26.26H1622V606.43h22.24Zm0-26.27H1622V580.16h22.24Zm0-26.27H1622V553.89h22.24Zm0-26.26H1622V527.63h22.24Zm0-26.27H1622V501.36h22.24Zm0-26.27H1622V475.09h22.24Zm0-26.27H1622V448.83h22.24Zm0-26.26H1622V422.56h22.24Zm0-26.27H1622V396.29h22.24Zm0-26.27H1622V370h22.24Zm0-26.26H1622V343.76h22.24Zm0-26.27H1622V317.49h22.24Zm0-26.27H1622V291.22h22.24Zm0-26.26H1622V265h22.24Zm0-26.27H1622V238.69h22.24Zm0-26.27H1622V212.42h22.24Zm0-26.27H1622V186.15h22.24Zm0-26.26H1622V159.89h22.24Zm0-26.27H1622V133.62h22.24Zm23.61,788h-22.24V921.63h22.24Zm0-26.27h-22.24V895.37h22.24Zm0-26.27h-22.24V869.1h22.24Zm0-26.27h-22.24V842.83h22.24Zm0-26.26h-22.24V816.56h22.24Zm0-26.27h-22.24V790.3h22.24Zm0-26.27h-22.24V764h22.24Zm0-26.26h-22.24V737.76h22.24Zm0-26.27h-22.24V711.5h22.24Zm0-26.27h-22.24V685.23h22.24Zm0-26.26h-22.24V659h22.24Zm0-26.27h-22.24V632.7h22.24Zm0-26.27h-22.24V606.43h22.24Zm0-26.27h-22.24V580.16h22.24Zm0-26.26h-22.24V553.89h22.24Zm0-26.27h-22.24V527.63h22.24Zm0-26.27h-22.24V501.36h22.24Zm0-26.26h-22.24V475.09h22.24Zm0-26.27h-22.24V448.83h22.24Zm0-26.27h-22.24V422.56h22.24Zm0-26.26h-22.24V396.29h22.24Zm0-26.27h-22.24V370h22.24Zm0-26.27h-22.24V343.76h22.24Zm0-26.27h-22.24V317.49h22.24Zm0-26.26h-22.24V291.22h22.24Zm0-26.27h-22.24V265h22.24Zm0-26.27h-22.24V238.69h22.24Zm0-26.26h-22.24V212.42h22.24Zm0-26.27h-22.24V186.15h22.24Zm0-26.27h-22.24V159.89h22.24Zm0-26.26h-22.24V133.62h22.24Zm23.61,788h-22.25V921.63h22.25Zm0-26.27h-22.25V895.37h22.25Zm0-26.26h-22.25V869.1h22.25Zm0-26.27h-22.25V842.83h22.25Zm0-26.27h-22.25V816.56h22.25Zm0-26.26h-22.25V790.3h22.25Zm0-26.27h-22.25V764h22.25Zm0-26.27h-22.25V737.76h22.25Zm0-26.27h-22.25V711.5h22.25Zm0-26.26h-22.25V685.23h22.25Zm0-26.27h-22.25V659h22.25Zm0-26.27h-22.25V632.7h22.25Zm0-26.26h-22.25V606.43h22.25Zm0-26.27h-22.25V580.16h22.25Zm0-26.27h-22.25V553.89h22.25Zm0-26.26h-22.25V527.63h22.25Zm0-26.27h-22.25V501.36h22.25Zm0-26.27h-22.25V475.09h22.25Zm0-26.27h-22.25V448.83h22.25Zm0-26.26h-22.25V422.56h22.25Zm0-26.27h-22.25V396.29h22.25Zm0-26.27h-22.25V370h22.25Zm0-26.26h-22.25V343.76h22.25Zm0-26.27h-22.25V317.49h22.25Zm0-26.27h-22.25V291.22h22.25Zm0-26.26h-22.25V265h22.25Zm0-26.27h-22.25V238.69h22.25Zm0-26.27h-22.25V212.42h22.25Zm0-26.27h-22.25V186.15h22.25Zm0-26.26h-22.25V159.89h22.25Zm0-26.27h-22.25V133.62h22.25Z" transform="translate(-227.14 -132.1)"/></svg>