<?xml version="1.0" encoding="utf-8"?>
<!-- Generator: Adobe Illustrator 25.4.1, SVG Export Plug-In . SVG Version: 6.00 Build 0)  -->
<svg version="1.1" id="Calque_1" xmlns="http://www.w3.org/2000/svg" xmlns:xlink="http://www.w3.org/1999/xlink" x="0px" y="0px"
	 viewBox="0 0 129.07 74.79" style="enable-background:new 0 0 129.07 74.79;" xml:space="preserve">
<style type="text/css">
	.st0{fill:#191F31;}
	.st1{fill-rule:evenodd;clip-rule:evenodd;fill:#191F31;}
	.st2{fill:#C8CBD3;}
	.st3{fill:#838BA6;}
	.st4{fill:#FFFFFF;}
	.st5{fill:#7C8DC6;}
	.st6{fill:#5F6CB1;}
	.st7{fill:#4C57A3;}
</style>
<g id="Groupe_35299" transform="translate(1812.486 -590.352)">
	<path id="Tracé_36920" class="st1" d="M-1812.49,627.54h7.76v2.82h-2.4v4.72h8.75v-4.72h-2.47v-2.82h7.9v2.82h-2.54v13.89h2.54
		v2.75h-7.9v-2.75h2.47v-6.42h-8.75v6.42h2.4v2.75h-7.76v-2.75h2.47v-13.89h-2.47V627.54z M-1719.67,627.54h15.94v5.43h-2.68v-2.61
		h-7.76v4.66h6.63v2.75h-6.63v6.49h7.69v-3.74h2.82v6.49h-16.01v-2.75h2.61v-13.89h-2.61L-1719.67,627.54z M-1789.35,627.54h16.01
		v5.43h-2.75v-2.61h-7.76v4.66h6.63v2.75h-6.63v6.49h7.69v-3.74h2.82v6.49h-16.01v-2.75h2.61v-13.89h-2.61V627.54z M-1715.01,624.93
		h5.71l1.41,1.69h-5.57L-1715.01,624.93z M-1688.07,635.86c-1.98-0.49-3.31-0.42-5.36-1.06c-1.76-0.64-2.11-1.69-2.11-2.4
		c0-0.78,0.78-2.68,3.6-2.68s4.73,1.9,4.8,3.53h2.75v-5.71h-2.68v1.27l0.14,0.35l0,0c-0.07,0-0.14-0.21-0.43-0.42v-0.07
		c-1.36-1.08-3.07-1.63-4.8-1.55c-2.89,0-6.28,1.83-6.28,5.29c0,3.39,2.4,4.51,4.51,5.08c2.05,0.57,3.1,0.57,4.87,1.06
		c1.69,0.42,2.82,1.48,2.82,3.03c0,1.41-0.92,3.32-4.58,3.32c-3.6,0-5.08-1.97-5.5-4.72h-2.61v6.84h2.68v-1.27l-0.07-0.35
		c0.09,0.18,0.24,0.33,0.42,0.42v0.07c1.56,1.19,3.47,1.81,5.43,1.76c2.61,0,7.05-1.34,7.05-5.99
		C-1683.41,638.26-1685.18,636.71-1688.07,635.86L-1688.07,635.86z M-1725.95,644.26v-13.89h2.61v-2.82h-7.05l-4.73,11.43
		l-0.07,0.56l-0.14-0.56l-4.66-11.43h-7.12v2.82h2.61v13.89h-2.61v2.75h7.97v-2.75h-2.47v-13.61l0.21,0.64l5.43,12.98h1.55
		l5.43-12.98l0.14-0.71l0.07,0.78v12.91h-2.47v2.75h7.9v-2.75H-1725.95z M-1782.79,620.07h-2.68v-0.71h1.98
		C-1783.28,619.61-1783.05,619.85-1782.79,620.07L-1782.79,620.07z M-1715.44,620.07c0-0.28,0.28-0.56,0.64-0.71h1.41v0.71H-1715.44
		z M-1759.73,620.56c-1.24,0.53-2.64,0.53-3.88,0h-14.04c-1.35,0.56-2.88,0.56-4.23,0h-3.6v1.34h72.08v-1.34H-1759.73z
		 M-1776.8,620.07c0.27-0.22,0.53-0.45,0.78-0.71h10.86c0.2,0.27,0.44,0.51,0.71,0.71H-1776.8z M-1761.63,619.64
		c1.86-0.03,3.36-1.53,3.39-3.39c0.01-1.88-1.5-3.42-3.39-3.46c-1.91,0-3.45,1.55-3.45,3.46
		C-1765.05,618.14-1763.52,619.65-1761.63,619.64v0.7c-2.27,0.03-4.13-1.79-4.16-4.06c0-0.01,0-0.02,0-0.03
		c-0.02-2.28,1.81-4.14,4.09-4.16c0.02,0,0.05,0,0.07,0c2.27,0.01,4.1,1.86,4.09,4.13c0,0.01,0,0.02,0,0.03
		c0,2.26-1.83,4.09-4.09,4.09V619.64z M-1775.1,615.69c-0.02-2.56-2.09-4.63-4.66-4.66c-2.57,0-4.65,2.08-4.66,4.64
		c0,0,0,0.01,0,0.01c-0.03,2.54,2.01,4.63,4.56,4.66c0.03,0,0.07,0,0.1,0C-1777.19,620.35-1775.11,618.27-1775.1,615.69
		C-1775.1,615.7-1775.1,615.7-1775.1,615.69h-0.78c0.01,2.16-1.72,3.92-3.88,3.95c-2.18,0-3.95-1.76-3.95-3.94c0,0,0,0,0,0v-0.01
		c0-2.15,1.74-3.88,3.89-3.88c0.02,0,0.04,0,0.06,0c2.14-0.01,3.87,1.72,3.88,3.86v0.02L-1775.1,615.69z"/>
	<path id="Tracé_36921" class="st1" d="M-1759.45,618.59l-1.41-1.62v-0.07c0.07-0.07,0.07-0.14,0.14-0.21l2.12,0.57
		c0.07,0,0.21,0.07,0.21,0.14c0.02-0.17,0.07-0.34,0.14-0.49c-0.11,0.06-0.23,0.09-0.35,0.07l-1.97-0.56
		c-0.04,0-0.07-0.03-0.07-0.07c0,0,0,0,0,0v-0.35l2.05-0.78c0,0,0.21,0,0.21,0.07c0-0.07-0.14-0.42-0.14-0.49
		c-0.03,0.1-0.11,0.18-0.21,0.21l0.14-0.07l-2.12,0.78c0,0.07,0,0-0.07,0c0-0.08-0.07-0.14-0.14-0.14c0-0.07-0.07-0.14,0-0.14
		l1.13-1.76c0.08-0.07,0.18-0.12,0.28-0.14c-0.17-0.08-0.34-0.18-0.49-0.28c0.07,0,0.07,0.21,0,0.28l-1.13,1.76h-0.14
		c-0.07-0.03-0.14-0.06-0.21-0.07c-0.04,0-0.07-0.03-0.07-0.07c0,0,0,0,0,0l-0.07-2.04c0-0.14,0-0.28,0.14-0.28h-0.56
		c0.07,0,0.14,0.21,0.14,0.28l0.07,2.04c0,0.04-0.03,0.07-0.07,0.07c0,0,0,0,0,0c-0.08,0.04-0.15,0.09-0.21,0.14
		c-0.04,0-0.07-0.03-0.07-0.07c0,0,0,0,0,0l-1.34-1.62c-0.06-0.08-0.08-0.18-0.07-0.28c-0.07,0.07-0.35,0.28-0.42,0.35
		c0.11,0.02,0.2,0.07,0.28,0.14l1.34,1.62v0.07c-0.07,0-0.14,0.14-0.14,0.21c-0.04,0.04-0.09,0.06-0.14,0.07l-1.97-0.56
		c-0.14-0.07-0.21-0.14-0.21-0.21c0,0.07-0.14,0.42-0.14,0.49c0,0,0.21-0.07,0.28,0l1.97,0.49c0.04,0,0.07,0.03,0.07,0.07
		c0,0,0,0,0,0v0.35l-1.97,0.85c-0.07,0-0.21,0.07-0.21,0c0.02,0.17,0.07,0.34,0.14,0.49c0.03-0.1,0.11-0.18,0.21-0.21l1.91-0.85
		c0.04,0,0.07,0.03,0.07,0.07c0,0,0,0,0,0c0.08,0.01,0.14,0.07,0.14,0.14c0.04,0,0.07,0.03,0.07,0.07c0,0,0,0,0,0l-1.2,1.76
		c-0.07,0.07-0.14,0.14-0.21,0.14c0.12,0.12,0.27,0.21,0.42,0.28c-0.07,0,0-0.21,0-0.28l1.2-1.69c0-0.04,0.03-0.07,0.07-0.07
		c0,0,0,0,0,0c0.06,0.05,0.13,0.08,0.21,0.07c0.07,0,0.07,0,0.07,0.07l0.14,2.12c0,0.07-0.07,0.21-0.14,0.21h0.56
		c-0.14,0-0.14-0.14-0.14-0.28l-0.14-2.05c0-0.04,0.03-0.07,0.07-0.07c0,0,0,0,0,0c0.11-0.02,0.2-0.07,0.28-0.14
		c0.04,0,0.07,0.03,0.07,0.07c0,0,0,0,0,0l1.41,1.55c0,0.07,0.07,0.21,0.07,0.28l0.35-0.35
		C-1759.31,618.72-1759.45,618.58-1759.45,618.59L-1759.45,618.59z M-1779.9,613.01c1.71-0.04,3.42,0.15,5.08,0.56
		c0.14,0,0.14,0.14,0,0.21c-1.65,0.34-3.33,0.5-5.01,0.49c-1.7,0.1-3.4,0-5.08-0.28c-0.14,0-0.14-0.14,0-0.14
		C-1783.29,613.34-1781.6,613.05-1779.9,613.01v-0.35c-2.05,0.09-4.07,0.5-5.99,1.2c-0.21,0.07-0.21,0.21,0,0.21
		c1.99,0.45,4.03,0.61,6.06,0.49c2.02-0.01,4.04-0.27,5.99-0.78c0.28-0.07,0.21-0.21,0.07-0.21c-1.99-0.61-4.06-0.92-6.14-0.92
		V613.01z"/>
	<path id="Tracé_36922" class="st1" d="M-1758.95,611.74c-0.57,0.2-1.16,0.34-1.76,0.42c-0.35,0-2.11-0.07-3.31,0
		c-1.62,0.07-1.76,0.28-1.83,0.14c-0.31-0.69-0.71-1.33-1.2-1.91c-3.21,0.5-6.49,0.16-9.52-0.99v-0.42
		c0.16,0.05,0.33,0.08,0.49,0.07c-0.49-0.71-1.34-0.92-1.83-1.69c-0.28-0.21-0.35-0.64-0.64-0.85c0.07,0.78-0.56,1.34-0.64,1.97
		c0.39,0.12,0.8,0.15,1.2,0.07c0.28-0.09,0.58,0,0.78,0.21c0.2,0.11,0.41,0.18,0.64,0.21v0.42c-0.25-0.05-0.49-0.15-0.7-0.28
		c-0.25,0.13-0.55,0.1-0.78-0.07c-0.35-0.07-0.7-0.09-1.06-0.07c-0.94-0.05-1.84,0.38-2.4,1.13c-0.19,0.41-0.16,0.88,0.07,1.27
		c0.33,0.52,0.74,1,1.2,1.41l-0.56,0.14c-0.85-0.78-1.48-1.48-1.34-2.4c0.42-1.97,2.26-1.69,2.75-2.54
		c0.41-1.18,0.43-2.47,0.07-3.67c-1.2-0.49-2.68-1.13-2.96-2.54c-0.11-0.35,0.08-0.72,0.42-0.85c0.63-0.14,1.06,0.21,1.55,0.42
		c0.21-0.14-0.21-0.64,0.28-0.64c0.64,0,1.06,1.27,1.27,1.34l-0.07,0.49c-0.42-0.14-1.97-0.99-2.12-1.06
		c-0.28-0.14-0.64-0.35-0.85-0.07c-0.28,0.35,0.07,0.78,0.28,1.13c3.31,3.46,8.82-0.21,12.41,2.26c0.07-0.21,0-0.28-0.14-0.35
		c-2.47-2.33-6.42-1.13-9.59-1.9l0.07-0.49c3.95,0.99,9.17-0.64,11.21,3.88c1.34,1.9,2.75,4.94,5.64,5.01
		c2.01,0.17,3.95-0.82,5.01-2.54c1.55-2.82,2.47-6.07,5.22-7.97c0.28-0.14,0.42,0,0.28,0.07c-1.32,1.33-2.4,2.88-3.18,4.58
		c1.06,4.02,3.39,3.17,3.95,3.1c-0.14-1.48,0-5.85,3.17-6.91c1.88-1.45,4.4-1.74,6.56-0.78c-2.21,2.18-3.75,4.94-4.44,7.97
		l-2.75,0.78c0.2-0.61,0.25-1.26,0.14-1.9c-0.28,0.14-0.56,0.35-1.2,0.71c-0.28,0.07-0.07-0.35-0.07-0.35c0-0.14,0.7-0.42,1.27-0.78
		c-0.21-1.62-0.35-3.74,0.99-5.08c-2.75,0.92-1.97,6.7-1.69,7.41c-0.58,0.23-1.21,0.35-1.83,0.35l-0.14-0.99
		c-1.2,0.42-3.24,0.14-4.16-3.03C-1755.78,607.65-1756.63,610.9-1758.95,611.74L-1758.95,611.74z M-1715.93,603.14
		c-0.14-0.14-0.21-0.21-0.35-0.21c-0.07-0.07,0-0.14,0.07-0.14c0.07-0.07,0.21,0,0.28,0.14
		C-1715.86,603-1715.86,603.14-1715.93,603.14z"/>
	<path id="Tracé_36923" class="st1" d="M-1779.05,616.75l1.48,1.69c0.12,0.11,0.15,0.28,0.07,0.42c0.21-0.07,0.49-0.42,0.64-0.56
		c-0.14,0.08-0.32,0.05-0.42-0.07l-1.55-1.69v-0.14l0.07-0.07c0-0.04,0.03-0.07,0.07-0.07c0,0,0,0,0,0l2.19,0.78
		c0.21,0.14,0.28,0.28,0.28,0.35c0.07-0.14,0.21-0.56,0.28-0.71c-0.12,0.1-0.28,0.12-0.42,0.07l-2.19-0.78c-0.07,0-0.07,0-0.07-0.07
		v-0.14c0-0.04,0.03-0.07,0.06-0.07c0,0,0,0,0.01,0l2.26-0.35c0.28-0.07,0.42,0.07,0.42,0.14c0-0.14-0.07-0.64-0.07-0.78
		c-0.07,0.18-0.23,0.32-0.42,0.35l-2.19,0.35c-0.04,0-0.07-0.03-0.07-0.07c0,0,0,0,0,0c-0.07-0.07-0.07-0.14-0.14-0.21v-0.07
		l1.76-1.48c0.21-0.14,0.42-0.14,0.49-0.07c-0.14-0.14-0.42-0.49-0.56-0.64c0.07,0.07,0,0.28-0.14,0.49l-1.69,1.41
		c-0.07,0.07-0.07,0.07-0.07,0c-0.08,0.01-0.16-0.02-0.21-0.07c0,0-0.07-0.07,0-0.07l0.78-2.19c0.05-0.15,0.19-0.26,0.35-0.28
		c-0.25-0.12-0.51-0.22-0.78-0.28c0.07,0,0.21,0.28,0.14,0.49l-0.78,2.12c0,0.04-0.03,0.07-0.07,0.07c0,0,0,0,0,0h-0.21l-0.07-0.07
		l-0.42-2.26c-0.01-0.15,0.04-0.3,0.14-0.42c-0.26,0.02-0.52,0.07-0.78,0.14c0.17,0.06,0.3,0.19,0.35,0.35l0.42,2.19
		c0,0.07,0,0.07-0.07,0.14c-0.07,0-0.14,0.07-0.21,0.07h-0.07l-1.55-1.69c-0.14-0.21-0.14-0.42-0.07-0.42
		c-0.22,0.13-0.41,0.29-0.56,0.49c0.15-0.01,0.31,0.04,0.42,0.14l1.55,1.69v0.07l-0.14,0.14h-0.07l-2.12-0.78
		c-0.21-0.07-0.35-0.28-0.28-0.35c-0.11,0.25-0.21,0.51-0.28,0.78c0.14-0.1,0.33-0.13,0.49-0.07l2.12,0.7v0.35l-2.26,0.42
		c-0.21,0-0.42-0.14-0.42-0.21c0.01,0.29,0.05,0.57,0.14,0.85c0.03-0.18,0.17-0.33,0.35-0.35l2.19-0.42c0.04,0,0.07,0.03,0.07,0.07
		c0,0,0,0,0,0c0,0.07,0,0.07,0.07,0.14v0.07l-1.76,1.41c-0.21,0.21-0.42,0.14-0.42,0.07c0,0.21,0.35,0.57,0.42,0.64
		c-0.01-0.15,0.04-0.31,0.14-0.42l1.83-1.41c0-0.07,0-0.07,0.07,0l0.14,0.14c0.07,0,0.07,0,0.07,0.07l-0.78,2.12
		c-0.07,0.21-0.28,0.35-0.35,0.28c0.24,0.14,0.5,0.23,0.78,0.28c-0.14,0-0.21-0.21-0.14-0.42l0.78-2.19c0-0.04,0.03-0.07,0.07-0.07
		c0,0,0,0,0,0c0.06,0.05,0.13,0.08,0.21,0.07c0.04,0,0.07,0.03,0.07,0.07c0,0,0,0,0,0l0.42,2.19c0,0.19-0.07,0.37-0.21,0.49
		c0.27-0.03,0.53-0.1,0.78-0.21c-0.07,0.07-0.28-0.14-0.28-0.28l-0.42-2.26v-0.07c0.07,0,0.14-0.07,0.21-0.07
		C-1779.12,616.68-1779.12,616.68-1779.05,616.75L-1779.05,616.75z M-1716.92,603.42c-0.07-0.07,0-0.14,0-0.21
		c0.07-0.21,0.14-0.21,0.14-0.42c-0.35-0.28-0.42-0.85-0.21-0.99c0.21-0.21,0.92,0.07,0.92,0.07c0.64-0.49,0.85-0.85,1.2-1.06
		c0.72,0.19,1.29,0.76,1.48,1.48c-0.14,0.21-0.49,0.56-1.06,1.27c0.21,0.49,0.21,0.85-0.14,1.13c-0.13,0.01-0.26-0.04-0.35-0.14
		c0.07,0.7,0.85,1.13,1.13,1.69c0,1.13,1.2,2.54-0.14,3.46c-0.29,0.13-0.54,0.35-0.7,0.63c0.21,1.13,0.64,2.33,0.85,3.53l-1.34,0.07
		c-0.14,0.42-0.56,1.2-0.42,1.62c0,0-0.07-0.07,0.07,0c0.21,0.92,0.28,1.88,0.21,2.82c0,0.28,0.21,0.28,0.07,0.78
		c-0.14,0.07-0.7,0.42-0.78,0.64c-0.35,0.35-1.34,0.42-1.34,0.28c0-0.35,0.7-0.78,0.85-1.2c0.25-1.63-0.08-3.3-0.92-4.72
		c-0.35-0.21-0.64,0.35-0.85,0.64c0.52,1.06,0.83,2.21,0.92,3.39c0,0.35,0.42,0.85,0.21,1.34l-1.13,0.56h-4.09
		c-0.14-0.21-0.42-0.42-0.35-0.71h3.67c0-0.14,0.35-0.07,0.71-0.63c0-1.69-1.76-4.16-1.48-5.01c0.35-1.06,0.85-1.9,1.41-3.32
		l0.28-0.07c-0.64,2.12-1.55,3.17-1.41,3.81c0.09,0.37,0.23,0.73,0.42,1.06l0.14,0.42c0.1,0.3,0.24,0.59,0.42,0.85
		c0.18-0.03,0.35-0.1,0.49-0.21c-0.04-0.31-0.16-0.6-0.35-0.85l-0.56,0.21l-0.14-0.42c0.42,0,0.7-0.28,0.35-0.49
		c0.99-0.49-0.21-0.35,0.14-0.56c0.56-0.28,0.85-1.34,0.92-1.98c-0.01-0.1,0.06-0.2,0.16-0.21c0.02,0,0.04,0,0.05,0
		c0.42,1.13,0.42,2.61,1.13,3.67v0.35c-0.06,0.29-0.01,0.59,0.14,0.85c0.64,0.07,0.56-0.07,0.42-0.85c-0.14,0-0.42-0.07-0.56,0
		v-0.35c0.07-0.07,0.35,0,0.43-0.07c-0.17-0.3-0.25-0.64-0.21-0.99c0-0.21,0.14-0.64,0.28,0.28c0.21,0.07,0.56-1.62,0.63-2.19
		c-1.34,0.28,0-1.27-0.99-1.34l0.49-0.85c0.02-0.2-0.13-0.39-0.33-0.41c-0.08-0.01-0.16,0.01-0.23,0.05l-0.28-0.35
		c-0.21-0.07-0.42-0.42-0.7-0.64c-0.27,0.26-0.49,0.57-0.64,0.92c-0.07,0.07,0.14,0.14,0.21,0.07c0.21-0.21,0.35,0.21,0.7,0.14
		c0.14-0.14,0.56-0.21,0.42-0.49l0.28,0.35c-0.28,0.14-0.28,0.63-0.28,0.99c-0.49,0.92-0.28-0.49-0.85-0.49
		c-0.35,0.21-0.49-0.35-0.7-0.28l-0.28,0.07c0.04-0.54,0.04-1.08,0-1.62c0.42-2.4,0.92-2.33,0.99-3.03c0-0.28,1.06-0.85,0.99-1.13
		c0.07,0,0.21,0.21,0.21,0.28c-0.07,0.35-0.78,0.35-0.7,1.13c0.42-0.78,1.62-0.71,1.69-1.62c-0.21-0.56,0.28-0.21,0.28-0.78
		c-0.25-0.23-0.46-0.49-0.64-0.78c-0.07-0.07,0.21-0.49-0.78-0.49c-0.07,0.07-0.14,0.49-0.28,0.71c-0.07,0.07-0.21,0.21-0.14,0.28
		c0,0.07,0.14,0.14,0.14,0.42c-0.08,0.2-0.02,0.42,0.14,0.57c0.56,0.28,0.99,0,0.35,0.35c0.01,0.08-0.02,0.16-0.07,0.21
		c-0.07-0.16-0.16-0.3-0.28-0.42c-0.07,0-0.42-0.21-0.35-0.49s0.07-0.42-0.07-0.56L-1716.92,603.42z M-1735.89,600.74
		c0.07,0.49-0.21,0.85-0.21,1.34c0.49,1.2,0,2.12,0.14,3.24c-0.56-0.35-0.7-1.27-0.92-2.26c-0.06-0.68-0.01-1.37,0.14-2.04
		L-1735.89,600.74z M-1737.37,601.09c-0.24,1.55,0.03,3.13,0.78,4.51c-2.62,1.11-5.3,2.05-8.04,2.82c0.35-2.26,2.54-6.56,4.37-7.76
		C-1739.32,600.92-1738.35,601.06-1737.37,601.09L-1737.37,601.09z"/>
	<path id="Tracé_36924" class="st1" d="M-1744.29,617.67c-0.7,0.21-0.7,0.64-0.28,1.06c0.23,0.17,0.42,0.38,0.56,0.64h-4.51
		c0,0.21,0.21,0.35,0.35,0.71h24.97c0.14-0.35-0.28-0.78-0.42-1.2c-1.76-0.64-1.76-2.26-1.83-4.09c-0.08-0.2-0.13-0.42-0.14-0.64
		c-0.84-1.7-1.14-3.62-0.85-5.5l0.42-0.78c0.35-0.49-0.07-0.78,0.21-1.34l5.22-0.99c0.08-0.11,0.05-0.26-0.06-0.34
		c0,0-0.01-0.01-0.01-0.01c0-0.07,0.07,0,0,0l-5.08,0.92c0.28-1.27-0.85-1.69-0.35-2.75c1.02,1.03,2.24,1.82,3.6,2.33l0.49-0.07
		c-1.87-0.82-3.51-2.08-4.8-3.67c-0.14,0-0.28-0.14-0.42-0.21c0,0.14,0.35,0.56,0.28,0.64c-0.77,0.36-1.67,0.3-2.4-0.14
		c-0.49,0.99-5.99,3.46-5.99,3.46c0.18,1.28,0.78,2.47,1.69,3.39c0.07,0.14-0.21-0.14,0,0c1.16,0.87,2.52,1.42,3.95,1.62
		c0.28,0.85,1.34,3.6,1.41,4.02c0.14,0.42,0.35,0.42,0.35,0.42c0.31,0.42,0.52,0.9,0.64,1.41l0.14,1.48
		c0.07,0.35,0.49,0.07,0.56,0.42l-0.21,0.92h1.06c-0.56-0.49-0.21-1.34-0.92-1.69c0.04-0.65-0.13-1.29-0.49-1.83
		c-0.28-0.85-1.2-3.1-1.76-5.15l0.35-0.49c-1.55,0.42-2.75-0.14-4.16-0.92c-1.06-0.49-0.42-0.07-0.07-0.28
		c1.18,0.57,2.53,0.72,3.81,0.42c0.14,0.21,0.42,0.42,0.42,0.78l-0.35,0.49c0.35-0.35,0.64-0.14,0.85,0.85
		c0.28,0.85,0.56,1.48,0.78,2.19c0.28,0.71,0.49,1.62,0.7,2.12c0.16,0.02,0.3,0.13,0.35,0.28c0.49,1.55,0.64,1.76,0.56,2.47
		c0.14,0.56,0.92,0.07,0.85,0.78h-18.55c0.28-1.13-0.35-2.12,0-3.17c-0.71-1.13-2.47-1.97-2.19-3.53c0.85-1.2,3.6-2.4,2.96-3.81
		c2.54-1.27,3.81,0.85,6.14,0.64c0.86-0.01,1.71-0.13,2.54-0.35c-0.99-0.83-1.78-1.86-2.33-3.03c-4.84,2.07-9.87,3.65-15.02,4.72
		l-0.42-0.14c-0.49,0.07-8.53,1.9-8.25,2.26c-2.53,0.24-5.01,0.88-7.33,1.9c-0.35,0.21-0.42,0.35,0,0.49
		c3.24,0.85,5.93,0.21,10.93-1.69l-0.35-0.28c-1.93,0.8-3.94,1.42-5.99,1.83c-1.29,0.21-2.6,0.18-3.88-0.07
		c-0.21-0.07-0.21-0.07-0.07-0.14c3.18-1.27,9.31-2.4,10.16-1.34c0.45,0.13,0.85,0.4,1.13,0.78c0.28,0.35,0.85,0.21,1.27,0.14
		c0.56-0.14,0.64-0.64,0.64-1.13l-0.64-0.07c-0.53,0.01-1.05,0.11-1.55,0.28c-0.4-0.39-0.88-0.68-1.41-0.85
		c1.26-0.51,2.59-0.84,3.95-0.99c-0.92,0.64-0.49,1.41-0.99,1.55l0.64,0.07c0-0.28,0-0.49,0.14-0.64c0.64-1.55,3.31-1.76,4.65-2.12
		c-0.33,0.44-0.74,0.83-1.2,1.13c-0.14,2.19-0.92,4.09-1.06,6.28c0.64,0,0.64,0.71,0.78,1.13c-0.21,0.35-0.49,0-0.78,0.07
		c-0.99-0.49,0.21-1.34-0.56-2.04c0.56-1.74,0.92-3.54,1.06-5.36c-0.28,0-0.35,0.28-0.49,0.49c-0.26,1.69-0.64,3.37-1.13,5.01
		c0.14,0.14,0.49,0.28,0.49,0.56c-0.56,0.35,0,0.99-0.21,1.41h-6.42l-0.64,0.71h9.73l0.07-0.35c-1.41-1.55-0.92-3.81-0.21-5.5
		l1.69-2.26c1.41-0.57,2.26-2.26,3.74-2.82c0,0.78-0.92,1.06-1.41,1.48c-0.56,1.2-2.19,1.34-2.4,2.68c0.73,0.67,1.51,1.28,2.33,1.83
		c0.78,0.49,0.56,1.55,1.13,2.04C-1744.01,617.31-1744.15,617.59-1744.29,617.67L-1744.29,617.67z"/>
	<path id="Tracé_36925" class="st1" d="M-1733.49,592.21c-0.28,0.42-0.85,0.71-0.49,1.48c-0.45,0.25-0.62,0.82-0.38,1.27
		c0.03,0.05,0.06,0.1,0.09,0.14c-0.43,0.37-0.47,1.01-0.11,1.44c0.01,0.01,0.02,0.03,0.04,0.04c-0.56,0.64,0.14,1.2,0.35,1.41
		c-0.17,0.36-0.17,0.77,0,1.13c-0.07,0.42-0.85,1.13-1.13,1.34c-0.42,1.06-0.28,3.24-0.21,4.72c1.96-0.85,3.81-1.94,5.5-3.24
		c-1.34-0.92-2.4-3.1-3.88-2.96c-0.14-1.55-0.78-4.3,1.41-7.12c0.28-0.14,0.7-0.21,0.92-0.35c-0.92-0.14-2.11,0.42-2.96-0.07
		C-1734.34,591.43-1733.92,592.14-1733.49,592.21z"/>
	<path id="Tracé_36926" class="st1" d="M-1728.77,591.5c0,0.07,0.28,0.21,0.28,0.21s0.28-0.07,0.28-0.14s0.07-0.28,0-0.35
		c-0.07,0-0.28-0.07-0.42-0.07C-1728.68,591.26-1728.73,591.38-1728.77,591.5l-0.14,0.14l-0.99-0.71l0.14-0.14
		c0,0,0.42-0.42,0.64-0.42c0.55-0.06,1.11,0.01,1.62,0.21c0.26,0.24,0.47,0.53,0.64,0.85c0.78,0.56,2.05,0.56,2.82,1.2
		c-0.14,0.21,0.21,0.56-0.07,0.71c-0.21,0.07-0.71-0.07-0.78,0.07l-0.07,0.42l-0.28-0.07c0,0,0.14-0.49,0-0.49
		c-0.14-0.07-0.42-0.21-0.56-0.14c-0.07,0.07,0,0.14,0.07,0.28c0,0.14,0.35,0.21,0.56,0.14l0.28,0.07l0.35,0.07
		c-0.14,0.35-0.21,0.49-0.7,0.35c-0.14,0.35,0.63,0.64,0.7,0.78c-0.07,0.14-0.21,0.28-0.7,0c-0.98,0.97-2.07,1.82-3.24,2.54
		c-1.27,0.57-0.07-0.28-0.07-0.28c1.12-0.7,2.14-1.56,3.03-2.54c-0.11-0.2-0.18-0.41-0.21-0.64c-0.47-0.09-0.95,0.02-1.34,0.28
		c0.82,2.79,0.96,5.74,0.42,8.6l-0.14-0.14c0.46-2.8,0.3-5.67-0.49-8.39c-0.5,0.14-1.03,0.19-1.55,0.14
		c-0.14,2.89,2.19,3.32,1.34,7.12c-2.47-0.42-4.23-3.46-5.64-3.17c-0.07-0.49-0.56-1.34-0.07-1.62c-0.14-0.42-0.28-0.99,0.35-1.34
		c-0.21-0.56-0.28-1.06,0.35-1.48c-0.19-0.48,0.04-1.03,0.52-1.22c0.06-0.02,0.12-0.04,0.18-0.05c0.01-0.59,0.37-1.12,0.92-1.34
		c-0.38-0.18-0.67-0.51-0.78-0.92c0.55,0.4,1.24,0.55,1.9,0.42L-1728.77,591.5L-1728.77,591.5z M-1752.75,644.26l-0.07-3.95
		c-0.07-1.29-0.75-2.47-1.83-3.17c-0.27-0.11-0.56-0.18-0.85-0.21c0.34,0.02,0.67-0.03,0.99-0.14c1.52-0.81,2.43-2.44,2.33-4.16
		c0.06-1.59-0.68-3.1-1.97-4.02c-1.17-0.76-2.55-1.13-3.95-1.06h-10.86v2.82h2.47v13.9h-2.47v2.75h7.76v-2.75h-2.47v-6.14h5.36
		c1.29-0.11,2.42,0.84,2.53,2.13c0,0.04,0.01,0.09,0.01,0.13l0.21,6.63h5.29v-2.75L-1752.75,644.26L-1752.75,644.26z
		 M-1757.75,635.44h-5.93v-5.08h5.57c0.64-0.04,1.28,0.03,1.9,0.21c0.86,0.45,1.38,1.36,1.34,2.33c-0.09,1.49-1.38,2.63-2.87,2.54
		C-1757.74,635.44-1757.75,635.44-1757.75,635.44z M-1769.95,653.92c2.54,0,3.67,1.41,3.67,3.17s-1.2,3.1-3.88,3.1h-1.83v4.87h-1.62
		v-11.14L-1769.95,653.92L-1769.95,653.92z M-1772,658.79h1.97c1.2,0,2.05-0.64,2.05-1.76c0-0.85-0.49-1.69-1.98-1.69h-2.05
		L-1772,658.79L-1772,658.79z M-1753.66,665.06h-1.76l-1.41-3.32h-4.87l-1.34,3.32h-1.76l4.94-11.22h1.13L-1753.66,665.06z
		 M-1761.07,660.26h3.6l-1.9-4.37L-1761.07,660.26L-1761.07,660.26z M-1735.11,665.06h-1.62v-11.14h1.62V665.06z M-1723.47,656.32
		c-0.8-0.7-1.83-1.1-2.89-1.13c-1.06,0-1.91,0.49-1.91,1.27c0,2.19,5.22,2.11,5.22,5.71c-0.07,1.71-1.51,3.04-3.22,2.97
		c-0.05,0-0.11-0.01-0.16-0.01c-1.2,0.04-2.39-0.3-3.39-0.99v-2.04c0.79,0.99,1.98,1.59,3.24,1.62c1.34,0,1.97-0.78,1.97-1.41
		c0-2.26-5.29-2.54-5.29-5.57c0-1.83,1.48-2.96,3.67-2.96c0.97-0.02,1.93,0.25,2.75,0.78L-1723.47,656.32L-1723.47,656.32z
		 M-1741.95,663.72c-0.23-0.29-0.44-0.6-0.64-0.92c-0.6-1.21-1.5-2.26-2.61-3.03c1.19-0.38,1.99-1.5,1.97-2.75
		c0-1.9-1.48-3.1-3.88-3.1h-2.89v11.14h1.69v-4.87h0.71c0.84,0,1.55,0.28,3.03,2.54l1.55,2.33h1.9L-1741.95,663.72L-1741.95,663.72z
		 M-1747.24,658.79h-1.06v-3.53h1.06c1.62,0,2.26,0.64,2.26,1.69C-1744.92,657.87-1745.41,658.79-1747.24,658.79L-1747.24,658.79z"
		/>
</g>
</svg>
