<svg width="276" height="200" viewBox="0 0 276 200" fill="none" xmlns="http://www.w3.org/2000/svg">
<path d="M31.12 139.06H24.87V133.48H44.57V139.06H38.32V154.82H31.12V139.06Z" fill="white"/>
<path d="M51.12 153.87C45.75 151.1 43.64 144.5 46.41 139.13C47.45 137.11 49.1 135.46 51.12 134.42C55.03 132.51 59.59 132.51 63.5 134.42C68.87 137.19 70.98 143.79 68.21 149.16C67.17 151.18 65.52 152.83 63.5 153.87C59.59 155.78 55.02 155.78 51.12 153.87ZM59.73 148.83C60.46 148.38 61.06 147.74 61.45 146.97C62.3 145.19 62.3 143.11 61.45 141.33C61.06 140.56 60.46 139.92 59.73 139.47C58.23 138.6 56.38 138.6 54.88 139.47C54.15 139.92 53.55 140.56 53.16 141.33C52.31 143.11 52.31 145.19 53.16 146.97C53.55 147.74 54.15 148.38 54.88 148.83C56.38 149.7 58.23 149.7 59.73 148.83Z" fill="white"/>
<path d="M96.5429 134.449C100.453 136.109 102.273 140.629 100.613 144.529C99.8329 146.359 98.3729 147.819 96.5429 148.599C94.9129 149.279 93.1529 149.619 91.3929 149.579H88.3129V154.819H81.1129V133.479H91.3929C93.1629 133.439 94.9129 133.769 96.5429 134.449ZM93.1329 143.369C94.1129 142.329 94.1129 140.719 93.1329 139.679C92.5029 139.199 91.7229 138.959 90.9429 139.019H88.3229V144.019H90.9429C91.7229 144.079 92.5029 143.849 93.1329 143.369Z" fill="white"/>
<path d="M108.773 153.879C103.403 151.109 101.293 144.509 104.053 139.139C105.093 137.119 106.743 135.469 108.763 134.429C112.673 132.519 117.233 132.519 121.143 134.429C126.513 137.199 128.623 143.799 125.853 149.169C124.813 151.189 123.163 152.839 121.143 153.879C117.243 155.789 112.673 155.789 108.773 153.879ZM117.383 148.829C118.113 148.379 118.713 147.739 119.103 146.969C119.953 145.189 119.953 143.109 119.103 141.329C118.713 140.559 118.113 139.919 117.383 139.469C115.883 138.599 114.033 138.599 112.533 139.469C111.803 139.919 111.203 140.559 110.813 141.329C109.963 143.109 109.963 145.189 110.813 146.969C111.203 147.739 111.803 148.379 112.533 148.829C114.033 149.699 115.883 149.699 117.383 148.829Z" fill="white"/>
<path d="M163.593 133.479L156.763 154.819H149.053L145.603 143.419L141.973 154.819H134.253L127.423 133.479H134.833L138.553 145.609L142.483 133.479H149.093L152.813 145.769L156.743 133.479H163.593V133.479Z" fill="white"/>
<path d="M182.923 149.389V154.819H165.173V133.479H182.523V138.909H172.253V141.409H181.283V146.589H172.253V149.399L182.923 149.389Z" fill="white"/>
<path d="M194.843 149.449H192.893V154.819H185.703V133.479H195.973C197.743 133.439 199.493 133.769 201.123 134.459C205.073 136.289 206.793 140.979 204.963 144.939C204.873 145.139 204.773 145.339 204.663 145.529C203.943 146.699 202.903 147.639 201.673 148.239L206.153 154.829H198.473L194.843 149.449ZM197.703 139.679C197.073 139.199 196.293 138.959 195.503 139.019H192.883V144.019H195.503C196.293 144.079 197.073 143.849 197.703 143.359C198.683 142.329 198.683 140.719 197.703 139.679Z" fill="white"/>
<path d="M215.603 138.909V142.569H224.503V147.999H215.603V154.829H208.413V133.479H225.763V138.909H215.603Z" fill="white"/>
<path d="M230.603 152.649C228.693 150.659 227.693 147.969 227.863 145.209V133.479H235.063V144.999C234.963 146.199 235.263 147.399 235.903 148.409C237.133 149.749 239.203 149.839 240.543 148.609C240.613 148.539 240.683 148.479 240.743 148.409C241.383 147.389 241.683 146.199 241.583 144.999V133.479H248.653V145.219C248.823 147.969 247.823 150.669 245.913 152.659C241.423 156.189 235.093 156.189 230.603 152.649Z" fill="white"/>
<path d="M251.953 133.479H259.153V149.239H268.793V154.819H251.963L251.953 133.479Z" fill="white"/>
<path d="M27.822 179.165C26.842 178.665 26.022 177.895 25.452 176.955C24.302 174.955 24.302 172.505 25.452 170.505C26.022 169.565 26.842 168.795 27.822 168.295C28.872 167.755 30.042 167.485 31.222 167.505C32.282 167.485 33.342 167.695 34.312 168.115C35.202 168.505 35.972 169.115 36.562 169.885L34.032 172.145C33.442 171.295 32.472 170.775 31.432 170.755C30.672 170.725 29.932 171.015 29.402 171.565C28.382 172.835 28.382 174.635 29.402 175.905C29.932 176.455 30.672 176.745 31.432 176.715C32.472 176.695 33.442 176.175 34.032 175.325L36.562 177.585C35.972 178.355 35.202 178.965 34.312 179.355C33.332 179.775 32.282 179.985 31.222 179.965C30.042 179.975 28.872 179.705 27.822 179.165Z" fill="white"/>
<path d="M37.7219 167.775H41.7419V176.575H47.1219V179.685H37.7319L37.7219 167.775Z" fill="white"/>
<path d="M50.832 179.155C47.832 177.615 46.662 173.935 48.202 170.935C48.782 169.805 49.702 168.885 50.832 168.305C53.012 167.235 55.562 167.235 57.742 168.305C60.742 169.845 61.912 173.525 60.372 176.525C59.792 177.655 58.872 178.575 57.742 179.155C55.562 180.225 53.012 180.225 50.832 179.155ZM55.642 176.345C56.052 176.095 56.382 175.735 56.602 175.305C57.082 174.315 57.082 173.155 56.602 172.155C56.382 171.725 56.052 171.365 55.642 171.115C54.802 170.625 53.772 170.625 52.942 171.115C52.532 171.365 52.202 171.725 51.982 172.155C51.502 173.145 51.502 174.305 51.982 175.305C52.202 175.735 52.532 176.095 52.942 176.345C53.772 176.825 54.802 176.825 55.642 176.345Z" fill="white"/>
<path d="M63.902 178.475C62.832 177.365 62.282 175.865 62.372 174.325V167.775H66.382V174.205C66.332 174.875 66.492 175.545 66.852 176.115C67.542 176.865 68.702 176.915 69.442 176.225C69.482 176.185 69.522 176.155 69.552 176.115C69.912 175.545 70.072 174.875 70.022 174.205V167.775H73.972V174.325C74.062 175.865 73.512 177.365 72.442 178.475C69.932 180.455 66.402 180.455 63.902 178.475Z" fill="white"/>
<path d="M75.802 167.775H81.672C82.882 167.755 84.082 167.995 85.182 168.495C86.152 168.935 86.972 169.655 87.542 170.565C88.662 172.525 88.662 174.935 87.542 176.895C86.972 177.795 86.152 178.515 85.182 178.965C84.082 179.465 82.882 179.715 81.672 179.685H75.802V167.775ZM81.502 176.555C82.262 176.595 83.002 176.325 83.572 175.815C84.602 174.615 84.602 172.845 83.572 171.645C83.012 171.135 82.262 170.865 81.502 170.905H79.822V176.555H81.502Z" fill="white"/>
<path d="M97.542 170.885H94.052V167.775H105.032V170.885H101.542V179.675H97.522L97.542 170.885Z" fill="white"/>
<path d="M111.192 176.695H110.102V179.685H106.082V167.775H111.812C112.802 167.755 113.782 167.935 114.692 168.315C116.902 169.335 117.862 171.955 116.832 174.155C116.782 174.265 116.722 174.375 116.662 174.485C116.262 175.135 115.682 175.665 114.992 175.995L117.492 179.665H113.202L111.192 176.695ZM112.792 171.235C112.442 170.965 112.002 170.835 111.572 170.865H110.112V173.655H111.572C112.012 173.685 112.452 173.555 112.792 173.285C113.332 172.715 113.332 171.815 112.792 171.235Z" fill="white"/>
<path d="M126.872 177.605H122.352L121.552 179.685H117.472L122.682 167.775H126.632L131.842 179.685H127.692L126.872 177.605ZM125.762 174.715L124.602 171.725L123.442 174.715H125.762Z" fill="white"/>
<path d="M144.202 167.775V179.685H140.902L136.382 174.275V179.685H132.472V167.775H135.772L140.292 173.185V167.775H144.202Z" fill="white"/>
<path d="M147.702 179.625C146.892 179.455 146.112 179.155 145.392 178.735L146.682 175.805C147.282 176.145 147.922 176.415 148.582 176.595C149.242 176.785 149.922 176.885 150.612 176.895C151.012 176.915 151.422 176.865 151.802 176.735C152.012 176.665 152.152 176.475 152.162 176.245C152.162 175.995 152.002 175.805 151.692 175.685C151.192 175.505 150.672 175.375 150.152 175.275C149.372 175.125 148.602 174.915 147.852 174.655C147.232 174.435 146.682 174.055 146.252 173.565C145.772 172.995 145.532 172.255 145.572 171.515C145.562 170.785 145.782 170.075 146.202 169.475C146.672 168.825 147.332 168.315 148.082 168.025C149.052 167.645 150.082 167.465 151.122 167.495C151.932 167.495 152.742 167.585 153.532 167.755C154.262 167.905 154.962 168.165 155.612 168.525L154.402 171.435C153.382 170.885 152.242 170.585 151.082 170.545C150.052 170.545 149.532 170.795 149.532 171.295C149.532 171.535 149.682 171.715 149.992 171.825C150.482 171.995 150.992 172.125 151.502 172.205C152.282 172.345 153.052 172.535 153.802 172.795C154.422 173.015 154.982 173.385 155.422 173.875C155.902 174.445 156.152 175.175 156.112 175.915C156.122 176.645 155.902 177.355 155.482 177.945C155.002 178.595 154.352 179.095 153.602 179.395C152.632 179.775 151.602 179.955 150.562 179.925C149.612 179.955 148.642 179.845 147.702 179.625Z" fill="white"/>
<path d="M161.332 170.805V172.845H166.302V175.875H161.332V179.685H157.312V167.775H166.992V170.805H161.332Z" fill="white"/>
<path d="M170.982 179.155C167.982 177.615 166.812 173.935 168.352 170.935C168.932 169.805 169.852 168.885 170.982 168.305C173.162 167.235 175.712 167.235 177.892 168.305C180.892 169.845 182.062 173.525 180.522 176.525C179.942 177.655 179.022 178.575 177.892 179.155C175.712 180.225 173.162 180.225 170.982 179.155ZM175.782 176.345C176.192 176.095 176.522 175.735 176.742 175.305C177.222 174.315 177.222 173.155 176.742 172.155C176.522 171.725 176.192 171.365 175.782 171.115C174.942 170.625 173.912 170.625 173.082 171.115C172.672 171.365 172.342 171.725 172.122 172.155C171.642 173.145 171.642 174.305 172.122 175.305C172.342 175.735 172.672 176.095 173.082 176.345C173.922 176.825 174.952 176.825 175.782 176.345Z" fill="white"/>
<path d="M187.722 176.695H186.632V179.685H182.612V167.775H188.342C189.332 167.755 190.312 167.935 191.222 168.315C193.432 169.335 194.392 171.955 193.362 174.155C193.312 174.265 193.252 174.375 193.192 174.485C192.792 175.135 192.212 175.665 191.522 175.995L194.022 179.665H189.732L187.722 176.695ZM189.322 171.235C188.972 170.965 188.532 170.835 188.092 170.865H186.632V173.655H188.092C188.532 173.685 188.972 173.555 189.322 173.285C189.862 172.715 189.862 171.815 189.322 171.235Z" fill="white"/>
<path d="M205.922 179.685L205.892 174.255L203.302 178.615H201.532L198.942 174.445V179.685H195.282V167.775H198.592L202.472 174.125L206.252 167.775H209.552L209.582 179.685H205.922Z" fill="white"/>
<path d="M219.632 177.605H215.112L214.312 179.685H210.232L215.442 167.775H219.392L224.602 179.685H220.452L219.632 177.605ZM218.522 174.715L217.362 171.725L216.202 174.715H218.522Z" fill="white"/>
<path d="M227.222 170.885H223.732V167.775H234.722V170.885H231.232V179.675H227.212V170.885H227.222Z" fill="white"/>
<path d="M235.762 167.775H239.782V179.685H235.762V167.775Z" fill="white"/>
<path d="M244.502 179.155C241.502 177.615 240.332 173.935 241.872 170.935C242.452 169.805 243.372 168.885 244.502 168.305C246.682 167.235 249.232 167.235 251.412 168.305C254.412 169.855 255.582 173.535 254.042 176.525C253.462 177.655 252.542 178.575 251.412 179.155C249.232 180.225 246.682 180.225 244.502 179.155ZM249.302 176.345C249.712 176.095 250.042 175.735 250.262 175.305C250.742 174.315 250.742 173.155 250.262 172.155C250.042 171.725 249.712 171.365 249.302 171.115C248.462 170.625 247.432 170.625 246.602 171.115C246.192 171.365 245.862 171.725 245.642 172.155C245.162 173.145 245.162 174.305 245.642 175.305C245.862 175.735 246.192 176.095 246.602 176.345C247.442 176.825 248.472 176.825 249.302 176.345Z" fill="white"/>
<path d="M267.872 167.775V179.685H264.572L260.052 174.275V179.685H256.142V167.775H259.442L263.962 173.185V167.775H267.872Z" fill="white"/>
<path d="M83.083 109.523V112.553H73.183V100.643H82.863V103.673H77.133V105.073H82.173V107.963H77.133V109.523H83.083Z" fill="white"/>
<path d="M95.2629 112.553L95.2329 107.123L92.6429 111.483H90.8729L88.2829 107.313V112.553H84.6229V100.643H87.9229L91.8029 106.993L95.5829 100.643H98.8829L98.9129 112.553H95.2629Z" fill="white"/>
<path d="M109.473 101.183C111.653 102.113 112.663 104.633 111.733 106.813C111.303 107.833 110.483 108.643 109.473 109.073C108.563 109.453 107.583 109.643 106.593 109.613H104.873V112.543H100.853V100.643H106.583C107.573 100.623 108.553 100.803 109.473 101.183ZM107.563 106.163C108.103 105.583 108.103 104.683 107.563 104.103C107.213 103.833 106.773 103.703 106.333 103.733H104.873V106.523H106.333C106.773 106.563 107.213 106.433 107.563 106.163Z" fill="white"/>
<path d="M116.293 112.023C113.293 110.483 112.123 106.803 113.663 103.803C114.243 102.673 115.163 101.753 116.293 101.173C118.473 100.103 121.023 100.103 123.203 101.173C126.203 102.713 127.373 106.393 125.833 109.393C125.253 110.523 124.333 111.443 123.203 112.023C121.023 113.093 118.473 113.093 116.293 112.023ZM121.093 109.213C121.503 108.963 121.833 108.603 122.053 108.173C122.533 107.183 122.533 106.023 122.053 105.023C121.833 104.593 121.503 104.233 121.093 103.983C120.253 103.493 119.223 103.493 118.393 103.983C117.983 104.233 117.653 104.593 117.433 105.023C116.953 106.013 116.953 107.173 117.433 108.173C117.653 108.603 117.983 108.963 118.393 109.213C119.223 109.693 120.263 109.693 121.093 109.213Z" fill="white"/>
<path d="M146.873 100.643L143.063 112.553H138.763L136.843 106.193L134.813 112.553H130.513L126.703 100.643H130.833L132.913 107.413L135.103 100.643H138.793L140.873 107.503L143.063 100.643H146.873V100.643Z" fill="white"/>
<path d="M157.663 109.523V112.553H147.763V100.643H157.433V103.673H151.703V105.073H156.743V107.963H151.703V109.523H157.663Z" fill="white"/>
<path d="M164.313 109.553H163.223V112.543H159.203V100.643H164.933C165.923 100.623 166.903 100.803 167.813 101.183C170.023 102.203 170.983 104.823 169.953 107.023C169.903 107.133 169.843 107.243 169.783 107.353C169.383 108.003 168.803 108.533 168.113 108.863L170.613 112.533H166.323L164.313 109.553ZM165.913 104.103C165.563 103.833 165.123 103.703 164.693 103.733H163.233V106.523H164.693C165.133 106.553 165.573 106.423 165.913 106.153C166.453 105.583 166.453 104.683 165.913 104.103Z" fill="white"/>
<path d="M182.513 112.553L182.483 107.123L179.893 111.483H178.123L175.543 107.313V112.553H171.883V100.643H175.183L179.063 106.993L182.843 100.643H186.143L186.173 112.553H182.513V112.553Z" fill="white"/>
<path d="M198.013 109.523V112.553H188.113V100.643H197.793V103.673H192.063V105.073H197.103V107.963H192.063V109.523H198.013Z" fill="white"/>
<path d="M211.293 100.643V112.553H207.993L203.473 107.143V112.553H199.563V100.643H202.863L207.383 106.053V100.643H211.293Z" fill="white"/>
<path d="M215.823 103.753H212.333V100.643H223.313V103.753H219.823V112.543H215.803L215.823 103.753Z" fill="white"/>
<path d="M26.57 120.3H26.51C26.21 120.29 25.92 120.14 25.75 119.89C25.66 119.77 25.6 119.63 25.57 119.48L25.56 119.44C25.34 117.81 25.26 116.16 25.32 114.51C25.32 112.23 25.36 109.33 25.43 105.83C25.54 101.84 25.8299 94.27 26.2999 83.11C25.8999 82.05 25.3799 81.04 24.7299 80.11C24.1199 79.25 23.45 78.44 22.74 77.66L22.66 77.56C20.26 74.75 16.77 73.11 13.07 73.07L12.56 73.17C11.31 73.43 10.03 73.58 8.74995 73.63C8.49995 73.63 8.23995 73.61 7.98995 73.57C7.63995 73.52 7.33995 73.27 7.23995 72.92C7.20995 72.85 7.19995 72.77 7.19995 72.7C7.22995 72.35 7.40995 72.03 7.67995 71.8C8.50995 71.17 10.23 70.86 12.82 70.86C13.58 70.86 14.35 70.9 15.11 70.99C16.21 70.89 17.57 70.76 19.21 70.61C21.25 70.44 23.76 70.21 26.75 69.92C27.34 56.6 27.84 42.44 28.24 27.44C27.7 26.84 27.3499 26.09 27.2299 25.29C27.2099 25.06 27.2 24.83 27.2 24.6C27.21 24.04 27.29 23.49 27.45 22.95C27.59 22.41 27.8 21.89 28.07 21.4C28.19 21.13 28.36 20.88 28.57 20.66C28.78 20.27 29.18 20.03 29.62 20.03C30.12 20.03 30.37 20.27 30.37 20.75L30.09 26.52C29.91 30.36 29.69 36.89 29.41 46.11C29.13 55.33 28.85 63.21 28.57 69.73L41.88 68.42L59.52 66.72C60.18 50.44 60.82 39.1 61.43 32.71C61.56 31.32 61.67 30.42 61.77 29.99C61.78 29.44 61.9999 28.91 62.3899 28.52C62.6399 28.41 62.9099 28.34 63.1899 28.32C63.2999 28.31 63.41 28.34 63.5 28.4C63.67 28.54 63.77 28.76 63.75 28.99C63.74 29.38 63.6899 29.77 63.5999 30.16C63.0699 33.99 62.73 37.84 62.59 41.7L62.1399 48.19C61.7199 53.86 61.35 59.99 61.04 66.57L72.86 65.43C73.07 65.43 73.26 65.54 73.37 65.73C73.46 65.87 73.51 66.03 73.51 66.19C73.5 66.33 73.48 66.46 73.44 66.59C73.39 66.77 73.18 66.94 72.79 67.1C72.71 67.13 72.62 67.14 72.54 67.14C72.4 67.13 72.25 67.1 72.12 67.04C71.84 66.93 71.54 66.88 71.23 66.89L70.8499 66.9C69.1999 67.06 67.26 67.23 65.04 67.42C63.44 67.55 62.0899 67.67 60.9799 67.79C60.6199 74.06 60.3399 79.19 60.1399 83.18C59.7199 91.46 59.5099 99.37 59.5099 106.91C59.5199 108.51 59.7599 110.1 60.2099 111.63C60.3099 111.95 60.3799 112.27 60.4199 112.6C60.4599 112.95 60.31 113.29 60.04 113.51C59.87 113.62 59.6799 113.69 59.4799 113.69C59.3199 113.68 59.17 113.64 59.02 113.58C58.82 113.51 58.6899 113.24 58.6199 112.79C58.4899 111.71 58.4199 109.49 58.4199 106.13C58.4199 103.48 58.4599 100.31 58.5299 96.62C58.7099 87.95 58.9999 78.39 59.4199 67.93C57.0099 68.08 53.9 68.36 50.08 68.77C48.03 69 45.3499 69.28 42.0499 69.6C39.0399 69.88 36.6299 70.1 34.8499 70.23C33.1299 70.35 30.9999 70.53 28.4599 70.78C28.4199 71.68 28.4 72.44 28.38 73.06C28.37 73.68 28.3399 74.43 28.2999 75.31L28.02 83.65C30 89.43 30.95 95.51 30.83 101.61C30.83 101.74 30.8199 102.6 30.7999 104.19C30.7399 106.27 30.56 108.35 30.27 110.41C29.77 114.35 29.07 117.17 28.15 118.86C27.9 119.41 27.47 119.87 26.94 120.17C26.83 120.27 26.71 120.3 26.57 120.3ZM26.4599 80.6C26.4799 79.96 26.49 79.3 26.49 78.63V77.28C26.49 76.6 26.5 75.92 26.52 75.25C26.56 74.47 26.61 73.06 26.67 71.02C25.58 71.1 24.35 71.22 22.97 71.36C21.59 71.5 20.33 71.65 19.19 71.8C18.44 71.88 17.69 72.01 16.95 72.18C18.23 72.66 19.44 73.31 20.54 74.11C22.94 75.85 24.9599 78.05 26.4599 80.6ZM27.52 117.07C27.65 117.07 27.77 116.96 27.88 116.73C28.27 115.81 28.57 114.86 28.77 113.89C29.04 112.69 29.2499 111.48 29.3899 110.26C29.7799 107.23 29.97 104.18 29.95 101.13C29.95 97.1 29.49 93.09 28.6 89.16C28.39 88.18 28.13 87.21 27.81 86.25C27.73 88.8 27.63 91.98 27.52 95.8C27.26 105.15 27.13 111.26 27.13 114.11V116.05C27.14 116.74 27.26 117.07 27.52 117.07Z" fill="white"/>
<path d="M72.03 85.84C71.7 85.84 71.37 85.76 71.07 85.63C70.26 85.08 69.85 83.86 69.85 81.98C70.03 79.3 70.36 76.63 70.85 73.99C70.8 73.87 70.77 73.74 70.77 73.61C70.77 73.21 70.96 72.83 71.28 72.59L71.43 72.46C71.63 72.28 71.89 72.17 72.16 72.15C72.45 72.14 72.72 72.26 72.91 72.49C73.01 72.6 73.07 72.75 73.08 72.9L72.49 75.85C72.04 77.8 71.77 79.78 71.69 81.78C71.69 83.49 72.04 84.35 72.74 84.35C73.25 84.35 73.97 83.86 74.89 82.89C76.9 80 78.56 76.88 79.86 73.61C80.3 71.78 81.04 70.87 82.09 70.87C82.28 70.87 82.47 70.91 82.65 70.98C82.82 71.07 82.9 71.29 82.9 71.64C82.89 72.03 82.82 72.42 82.69 72.79C82.59 73.31 82.47 74.25 82.33 75.6C82.26 76.35 82.23 76.93 82.23 77.33C82.23 80.33 83.23 81.82 85.22 81.82H85.36C86.74 81.62 88.03 81.02 89.07 80.08C90.25 79.16 91.32 78.1 92.24 76.92C92.33 76.78 92.48 76.69 92.65 76.68L92.8 76.69C92.89 76.69 92.96 76.76 93.01 76.89C93.03 76.93 93.04 76.97 93.04 77.02C93.04 77.15 92.99 77.27 92.9 77.37L92.51 77.85C91.66 78.85 90.7 79.76 89.64 80.55L89.12 80.96C87.8 82.19 86.09 82.93 84.29 83.05C83.76 83.04 83.25 82.92 82.77 82.68C81.49 81.9 80.64 80.58 80.44 79.1C80.31 78.2 80.25 77.3 80.26 76.39C80.26 76.08 80.27 75.72 80.29 75.29L80.3 75.08C80.3 74.99 80.29 74.94 80.26 74.94C80 75.32 79.81 75.74 79.7 76.18C78.74 78.27 77.61 80.28 76.33 82.19C74.79 84.62 73.36 85.84 72.03 85.84Z" fill="white"/>
<path d="M93.5299 86.51C93.1599 86.51 92.8099 86.37 92.5599 86.1C92.0799 85.59 91.7699 84.95 91.6699 84.26C91.5899 83.75 91.5599 83.23 91.5599 82.71C91.5599 82.44 91.5699 82.16 91.5899 81.87C91.8199 79.85 92.1799 77.84 92.6899 75.87C93.0499 74.21 93.3399 72.96 93.5599 72.12C93.3699 71.8 93.2799 71.44 93.2799 71.07C93.2999 70.43 93.4799 69.8 93.7899 69.23C93.9899 68.81 94.2199 68.42 94.4799 68.04C94.7399 67.54 95.2399 67.2 95.7999 67.13C95.8999 67.13 95.9999 67.14 96.0999 67.17C96.4099 67.26 96.6099 67.55 96.5799 67.87L96.5699 68.07L95.9499 70.16C95.5299 71.55 95.0999 73.2 94.6699 75.1C94.5999 75.44 94.5199 75.82 94.4199 76.24C93.9099 78.18 93.5599 80.17 93.3699 82.17C93.3699 82.33 93.3699 82.56 93.3799 82.87C93.3899 83.18 93.4299 83.48 93.5099 83.78C93.5799 84.08 93.7099 84.23 93.8699 84.23H93.8799C94.2699 84.1 94.6699 83.58 95.0699 82.68C95.4699 81.78 95.8399 80.86 96.1699 79.93C96.8299 78.13 97.6099 76.25 98.4899 74.27C98.7699 73.58 99.1599 72.94 99.6299 72.37C100.08 71.84 100.72 71.53 101.41 71.49H101.47C101.74 71.49 102 71.56 102.24 71.69C102.47 71.81 102.66 71.98 102.82 72.19C103.6 73.62 104.04 75.21 104.1 76.84C104.21 78.04 104.43 79.22 104.75 80.38L104.83 80.59C104.89 80.69 105 80.75 105.11 80.76C105.22 80.75 105.32 80.7 105.39 80.62C105.82 80.11 106.14 79.52 106.35 78.89C106.67 78.15 107.04 77.44 107.46 76.76C107.7 76.35 107.99 75.96 108.31 75.61C108.6 75.32 108.99 75.14 109.41 75.13C109.74 75.12 110.07 75.23 110.32 75.44C111.12 76.24 111.74 77.19 112.16 78.23L112.23 78.37C112.63 79.15 113.03 79.84 113.41 80.45C114.21 81.81 115.1 82.49 116.09 82.49C117.19 82.37 118.2 81.81 118.88 80.94C119.82 79.93 120.68 78.84 121.45 77.68L121.94 76.96C122.01 76.87 122.12 76.82 122.24 76.81C122.42 76.81 122.54 76.92 122.6 77.15L122.61 77.26C122.6 77.39 122.55 77.51 122.47 77.61L121.95 78.33C121.6 78.81 121.17 79.36 120.64 79.99C120.14 80.59 119.6 81.16 119.02 81.69C118.34 82.34 117.54 82.85 116.66 83.19C116.26 83.35 115.83 83.43 115.4 83.43C114.91 83.43 114.43 83.33 113.98 83.15C113.16 82.79 112.46 82.21 111.95 81.47C111.47 80.76 111.04 80.01 110.67 79.23C110.27 78.43 109.91 77.78 109.6 77.28C109.33 76.77 109.07 76.52 108.83 76.52C108.38 76.52 107.83 77.3 107.19 78.85L106.99 79.26C106.83 79.62 106.69 79.98 106.56 80.33C106.36 81 106.05 81.63 105.66 82.21C105.44 82.55 105.06 82.76 104.65 82.74C104.31 82.74 103.99 82.59 103.76 82.35C103.27 81.82 102.96 81.15 102.86 80.44C102.65 79.47 102.46 78.36 102.31 77.12C102.19 76.08 102 75.05 101.74 74.04C101.52 73.29 101.23 72.92 100.87 72.92C100.85 72.92 100.75 72.93 100.56 72.94C100.37 72.95 99.9799 73.5 99.3799 74.58C98.8399 75.66 98.3699 76.78 97.9599 77.92C97.7999 78.35 97.6399 78.77 97.4799 79.17C97.2499 79.75 96.9799 80.45 96.6799 81.26C95.9999 83.11 95.5299 84.3 95.2899 84.81C94.8499 85.86 94.2599 86.43 93.5299 86.51Z" fill="white"/>
<path d="M136.9 83.51C135.58 83.46 134.43 82.62 133.98 81.38C133.64 80.42 133.47 79.4 133.49 78.37C133.49 78.29 133.5 77.91 133.51 77.25C133.51 76.72 133.55 76.2 133.62 75.68C133.68 75.3 133.77 74.93 133.88 74.56C133.95 74.37 133.99 74.18 134.02 73.98C134.02 73.95 134.01 73.94 133.99 73.94C133.97 73.94 133.93 73.98 133.88 74.07C133.68 74.41 133.37 74.87 132.94 75.46C132.74 75.72 132.49 76.08 132.17 76.53C129.53 80.34 127.09 82.25 124.84 82.25C124.12 82.26 123.41 82.05 122.8 81.66C122.19 81.27 121.74 80.67 121.54 79.98C121.45 79.69 121.41 79.39 121.41 79.09C121.44 78.45 121.58 77.83 121.82 77.24C122.28 76.24 122.93 75.33 123.74 74.57C124.55 73.74 125.5 73.05 126.55 72.54C127.98 71.79 129.56 71.37 131.17 71.32C131.92 71.27 132.67 71.48 133.29 71.91C133.45 72.11 133.56 72.35 133.61 72.6C133.78 72.26 133.98 71.93 134.21 71.63C134.31 71.46 134.44 71.32 134.59 71.19C134.77 70.99 135.03 70.89 135.29 70.91C135.43 70.92 135.58 70.94 135.72 70.97C135.98 71.04 136.11 71.32 136.11 71.82C136.04 72.86 135.89 73.9 135.67 74.92C135.42 76.2 135.3 77.5 135.32 78.8C135.32 79.2 135.35 79.6 135.42 79.99C135.71 81.62 136.44 82.43 137.6 82.43C139.09 82.43 140.83 81.44 142.83 79.45C143.56 78.63 144.25 77.77 144.88 76.87C144.98 76.75 145.13 76.69 145.29 76.69C145.58 76.69 145.73 76.79 145.73 76.99C145.71 77.25 145.58 77.49 145.38 77.66C143.7 80.04 141.42 81.93 138.78 83.15C138.17 83.36 137.54 83.48 136.9 83.51ZM125.2 81.09C125.8 81.06 126.39 80.89 126.92 80.6C127.49 80.28 128.03 79.9 128.53 79.48C130.28 77.93 131.74 76.09 132.86 74.04L133.14 73.58C132.9 73.66 132.64 73.71 132.38 73.72C132.31 73.72 132.23 73.71 132.16 73.7C132.03 73.68 131.92 73.62 131.83 73.53C131.71 73.42 131.62 73.3 131.54 73.16C131.45 73 131.33 72.86 131.18 72.75C130.97 72.61 130.73 72.55 130.48 72.57H130.41C128.51 73.16 126.81 74.26 125.49 75.76C124.42 76.67 123.75 77.97 123.64 79.37C123.62 79.87 123.79 80.35 124.13 80.72C124.42 80.97 124.81 81.11 125.2 81.09Z" fill="white"/>
<path d="M146.15 84.56C145.89 84.57 145.64 84.49 145.43 84.32C145.16 84.1 144.97 83.8 144.88 83.47C144.68 82.62 144.59 81.75 144.61 80.87C144.66 77.86 145.12 74.87 146 72C145.67 71.6 145.48 71.1 145.47 70.58C145.47 69.63 146.27 68.53 147.87 67.28C148.16 67.08 148.49 66.96 148.84 66.93C148.98 66.92 149.11 66.98 149.21 67.07C149.4 67.25 149.5 67.5 149.49 67.76C149.49 67.87 149.47 67.98 149.45 68.08C148.62 69.72 147.97 71.44 147.5 73.22C146.8 75.69 146.43 78.25 146.39 80.82C146.39 81.15 146.4 81.45 146.42 81.72C146.5 82.09 146.61 82.28 146.74 82.28C146.82 82.26 146.9 82.21 146.97 82.15C147.45 81.49 147.82 80.76 148.05 79.97C148.24 79.52 148.39 79.18 148.5 78.95C149.14 77.5 149.92 76.12 150.82 74.82C151.18 74.2 151.81 73.78 152.52 73.68C152.87 73.68 153.2 73.84 153.41 74.12C153.7 74.47 153.91 74.88 154.01 75.33C154.21 76.11 154.35 76.9 154.44 77.7L154.52 78.26C154.83 80.76 155.42 82.29 156.3 82.84C156.63 83 156.99 83.09 157.35 83.09C157.97 83.05 158.56 82.87 159.11 82.57C160.04 82.13 160.92 81.59 161.74 80.95C163.08 79.84 164.28 78.58 165.33 77.2C165.47 77.09 165.63 77.02 165.81 77C165.9 77 165.98 77.03 166.06 77.08C166.14 77.13 166.18 77.22 166.18 77.31C166.16 77.48 166.09 77.63 165.98 77.76C163.34 80.72 161.05 82.64 159.11 83.53C158.35 83.9 157.51 84.11 156.67 84.15C156.34 84.15 156.01 84.1 155.69 84.01C154.65 83.63 153.84 82.8 153.5 81.75C153.14 80.7 152.9 79.6 152.78 78.49C152.61 77.38 152.46 76.48 152.33 75.81C152.25 75.44 152.1 75.25 151.88 75.25C151.7 75.25 151.49 75.42 151.23 75.77C150.47 76.9 149.81 78.09 149.25 79.34C148.75 80.38 148.32 81.39 147.94 82.37L147.77 82.78C147.58 83.36 147.25 83.89 146.8 84.31C146.62 84.47 146.39 84.56 146.15 84.56Z" fill="white"/>
</svg>
