<svg id="Calque_1" data-name="Calque 1" xmlns="http://www.w3.org/2000/svg" viewBox="0 0 153.55 149.03"><defs><style>.cls-1{fill:none;}.cls-2{fill:#427af4;}.cls-3{fill:#fff;}.cls-4{fill:#3e76f8;}</style></defs><g id="Groupe_28088" data-name="Groupe 28088"><path id="Tracé_29590" data-name="Tracé 29590" class="cls-1" d="M109.44,86.89c-.22.07-.44.11-.69.18l-.79.11a5.81,5.81,0,0,1-.83,0h0a6.33,6.33,0,0,0,.87,0l.79-.11a3.88,3.88,0,0,0,.69-.18c.22-.07.36-.15.5-.18l-.32-1.92s0,0-.07,0l.29,1.88C109.8,86.74,109.62,86.82,109.44,86.89Zm-7.8-2,.32,1.8A5.11,5.11,0,0,1,101,87a5.28,5.28,0,0,1-1.19.11h0A3.94,3.94,0,0,0,101.1,87c.32-.11.65-.18.93-.29l-.32-1.84c0,.07-.07.07-.07.07Zm-2.71-6.28V76.2h-.07v2.46ZM90.73,34a.86.86,0,0,0,.32,0,.44.44,0,0,1-.32,0Zm8.13,49.58a2.25,2.25,0,0,0,.25,1.19,1.07,1.07,0,0,0,1,.43h0a1.07,1.07,0,0,1-1-.43,2.25,2.25,0,0,1-.26-1.19v-3h-.07v3Zm7,1.19a2.5,2.5,0,0,0,1.55.43h0a2.52,2.52,0,0,1-1.55-.43,1.54,1.54,0,0,1-.65-1.16h-.07a1.68,1.68,0,0,0,.69,1.16Zm4.54-2.06v.47c0,.18,0,.33,0,.43h.07c0-.14,0-.29,0-.43V82.7a4.6,4.6,0,0,0-1-3.21,3.52,3.52,0,0,0-2.71-1.08h0a3.39,3.39,0,0,1,2.67,1.08,4.56,4.56,0,0,1,1,3.21Zm-8.77-4h.07v2h-.07ZM55.32,53.24a11.54,11.54,0,0,1-1.27.5,1,1,0,0,1-.36.07h-.07a.7.7,0,0,1-.29,0,1.11,1.11,0,0,0,.36,0h.07a1.53,1.53,0,0,1,.36-.07,11.54,11.54,0,0,0,1.27-.5,14,14,0,0,1,2.45-.72h-.07A13.79,13.79,0,0,0,55.32,53.24ZM95,52.77h0a1.26,1.26,0,0,1,.76-.29,1.25,1.25,0,0,0-.8.29ZM78.21,23v.4c0,.5-.15.9-.19,1.33a13,13,0,0,0-.14,2.57,1.21,1.21,0,0,0,.47.72c0,.11,0,.43,0,.65a18.57,18.57,0,0,1,11.8,5.7l0,0a18.63,18.63,0,0,0-11.77-5.67c0-.18,0-.54,0-.65a1.22,1.22,0,0,1-.47-.72,13.7,13.7,0,0,1,.15-2.56,7.57,7.57,0,0,0,.18-1.34V23a1.54,1.54,0,0,0-1.41-1.59h0A1.54,1.54,0,0,1,78.21,23Zm18.63,8.05a1.5,1.5,0,0,1-.34,2.08h0c-.1.07-.21.18-.32.26A10.75,10.75,0,0,1,95,34.1a16.52,16.52,0,0,0-2.13,1.48,1.06,1.06,0,0,0-.25.8c-.08.07-.37.32-.51.46a18.27,18.27,0,0,1,3,12.79l.58.18c.11.14.32.5.61.61a13.94,13.94,0,0,0,2.57.43,8.94,8.94,0,0,1,1.37.11l.4.11a1.51,1.51,0,0,1,1.19,1.73,1.46,1.46,0,0,1-1.48,1.09,1.42,1.42,0,0,0,.36-2.82l-.4-.11a8.94,8.94,0,0,0-1.37-.11,11.61,11.61,0,0,1-2.56-.43c-.29-.11-.51-.47-.62-.61l-.58-.18A18.59,18.59,0,0,0,94.81,43a17.8,17.8,0,0,0-2.67-6.14l.51-.46a1.27,1.27,0,0,1,.25-.8A10.41,10.41,0,0,1,95,34.1c.4-.25.76-.4,1.19-.68.11-.08.22-.19.33-.26a1.52,1.52,0,0,0,.36-2.09,1.49,1.49,0,0,0-1-.51A1.39,1.39,0,0,1,96.84,31.07ZM63.4,34.35,62.93,34h0a2,2,0,0,0,.5.32s0,0,0,0ZM58.67,52.8l.58-.07ZM86.18,63a2.94,2.94,0,0,0,.26.57,1.26,1.26,0,0,0-.11.83,13.28,13.28,0,0,0,1.26,2.24,11.62,11.62,0,0,1,.76,1.12,1.44,1.44,0,0,1,.18.4,1.49,1.49,0,0,1-.61,2h0a1.72,1.72,0,0,1-.51.11,1.62,1.62,0,0,0,.58-.11,1.52,1.52,0,0,0,.62-2,2.09,2.09,0,0,1-.19-.4c-.25-.44-.5-.76-.75-1.12a15,15,0,0,1-1.27-2.24,1.25,1.25,0,0,1,.11-.83c0-.07-.18-.4-.25-.58a18.51,18.51,0,0,0,8.2-10.29h-.07A18.55,18.55,0,0,1,86.19,63Zm-27-31.78a12.39,12.39,0,0,1,.94,1A11.62,11.62,0,0,0,62,33.92a.71.71,0,0,0,.51.11,1.05,1.05,0,0,1-.43-.11,11.69,11.69,0,0,1-1.92-1.73,10.82,10.82,0,0,0-.94-1,3.92,3.92,0,0,0-.32-.25,1.52,1.52,0,0,0-1-.36h0a1.72,1.72,0,0,1,1,.36ZM80.91,65.08a18,18,0,0,1-4.08.47A18.24,18.24,0,0,0,81,65.08a16.7,16.7,0,0,0,2.38-.72v0a18.92,18.92,0,0,1-2.46.76Zm-11-.18a1.32,1.32,0,0,0-.62.29,10,10,0,0,0-1.08,2.56c-.14.44-.22.83-.4,1.3a2.07,2.07,0,0,1-1.55,1.3,1.53,1.53,0,0,0,1.44-.94c0-.1.15-.25.18-.36a9.76,9.76,0,0,0,.4-1.3,10,10,0,0,1,1.09-2.56A1.06,1.06,0,0,1,70,64.9l.32-.58a0,0,0,0,1,0,0h0l-.36.61ZM60.52,79.67A4.74,4.74,0,0,1,61.2,81a5.28,5.28,0,0,1,.22,1.77,5.8,5.8,0,0,1-.29,1.8A3.43,3.43,0,0,1,60.3,86a3,3,0,0,1-1.33.86,5.16,5.16,0,0,1-1.74.33h0A4.45,4.45,0,0,0,59,86.85,4.17,4.17,0,0,0,60.37,86a3.62,3.62,0,0,0,.83-1.38,5.52,5.52,0,0,0,.29-1.8A6.6,6.6,0,0,0,61.28,81a3.85,3.85,0,0,0-.69-1.37,2.4,2.4,0,0,0-1.12-.87A3.29,3.29,0,0,0,58,78.48h0a3.29,3.29,0,0,1,1.48.32A2.4,2.4,0,0,1,60.52,79.67Zm9.89,3v.47c0,.18,0,.33,0,.43h.07c0-.14,0-.29,0-.43V82.7a4.5,4.5,0,0,0-1-3.21,3.49,3.49,0,0,0-2.71-1.08h0a3.4,3.4,0,0,1,2.67,1.08,4.71,4.71,0,0,1,1,3.21Zm47.16-3.83-.4,1.81s0,0,.07,0l.4-1.85a4.48,4.48,0,0,0-1.09-.28,8.21,8.21,0,0,0-1.4-.15h0a5.28,5.28,0,0,1,1.37.15,5,5,0,0,1,1.08.28ZM56.26,78.8V74.69h-.07v4.15s.06,0,.06,0ZM114.17,81a.55.55,0,0,0,0,.25,1,1,0,0,0,.18.22,3.13,3.13,0,0,0,.36.22,4.6,4.6,0,0,0,.61.25,7.68,7.68,0,0,1,1.23.58,2.5,2.5,0,0,1,.76.61,2,2,0,0,1,.4.72,3.47,3.47,0,0,1,.11.9,2.17,2.17,0,0,1-.9,1.88,4.5,4.5,0,0,1-2.53.65h0A4.15,4.15,0,0,0,117,86.6a2.12,2.12,0,0,0,.9-1.88,3.45,3.45,0,0,0-.1-.9,2.22,2.22,0,0,0-.4-.72,2.62,2.62,0,0,0-.76-.61c-.33-.18-.76-.36-1.23-.58l-.61-.25a1.72,1.72,0,0,1-.37-.22.49.49,0,0,1-.18-.22.54.54,0,0,1,0-.25c0-.4.36-.62,1-.62h0c-.69,0-1,.18-1,.62Z"/><path id="Tracé_29591" data-name="Tracé 29591" class="cls-1" d="M19.43,47.89l3-12.89L76.8,9l0,0L22.31,35l-3,12.89L8.88,93.42l37.66,46.87h.07L9,93.42ZM114.49,85.3h0a4.35,4.35,0,0,1-1.19-.14,7.8,7.8,0,0,1-1.19-.36v0a11.22,11.22,0,0,0,1.12.36,6.22,6.22,0,0,0,1.22.11ZM69.43,86.89c-.21.07-.43.11-.68.18l-.8.11a5.71,5.71,0,0,1-.83,0h0a6.33,6.33,0,0,0,.87,0l.79-.11a4.39,4.39,0,0,0,.69-.18c.21-.07.36-.14.5-.18l-.32-1.92s0,0-.08,0l.29,1.88a3.84,3.84,0,0,0-.47.18ZM90.3,84.76a2.52,2.52,0,0,0,1.55.43h0a2.5,2.5,0,0,1-1.55-.43,1.54,1.54,0,0,1-.65-1.16h0a1.67,1.67,0,0,0,.65,1.16Zm4.59-2.06v.47c0,.18,0,.33,0,.43h.07c0-.14,0-.29,0-.43V82.7a4.6,4.6,0,0,0-1-3.21,3.5,3.5,0,0,0-2.71-1.08h0a3.42,3.42,0,0,1,2.68,1.08,4.6,4.6,0,0,1,1,3.21ZM81.42,80.5a3,3,0,0,0-.51.07V87H81V80.57c.14,0,.32,0,.5-.07s.33,0,.47,0h0c-.14,0-.32,0-.5,0Zm12.49,6.39c-.21.07-.43.11-.68.18l-.8.11a7.56,7.56,0,0,1-.83,0h0a8.44,8.44,0,0,0,.87,0l.79-.11a4.39,4.39,0,0,0,.69-.18c.21-.07.36-.14.5-.18l-.32-1.91s0,0-.08,0l.29,1.88a3.8,3.8,0,0,1-.47.18Zm-9-7.36a3.28,3.28,0,0,1,.57,1.19,6.78,6.78,0,0,1,.19,1.55V87h.07V82.27a6.77,6.77,0,0,0-.18-1.55A2.65,2.65,0,0,0,85,79.53a2.51,2.51,0,0,0-1.08-.8,4.71,4.71,0,0,0-1.7-.29h0a4.47,4.47,0,0,1,1.66.29,3.06,3.06,0,0,1,1.09.79ZM65.82,84.76a2.53,2.53,0,0,0,1.56.43h0a2.52,2.52,0,0,1-1.55-.43,1.52,1.52,0,0,1-.65-1.15h-.07a1.67,1.67,0,0,0,.68,1.15Zm10.62-6.21.5.11a1.41,1.41,0,0,1,.44.14l-.4,2h.07l.4-2L77,78.66l-.5-.11c-.18,0-.36,0-.51-.07s-.32,0-.43,0h0a2.09,2.09,0,0,1,.43,0,1.84,1.84,0,0,0,.47.07Zm-1.56,2a3.65,3.65,0,0,1-.46.07V87h.07V80.61a1.25,1.25,0,0,1,.47-.07,2.42,2.42,0,0,1,.47,0h0a4.36,4.36,0,0,0-.51,0Z"/><path id="Tracé_29592" data-name="Tracé 29592" class="cls-1" d="M38.42,87h.07V83.38l-.07-.07Zm2-4.69a8.15,8.15,0,0,1,.94,1,14.26,14.26,0,0,1,.94,1.23,11.91,11.91,0,0,1,.83,1.26c.25.44.47.8.65,1.16h.07c-.18-.36-.4-.72-.65-1.16s-.54-.83-.83-1.26-.61-.83-.94-1.23a12.64,12.64,0,0,0-.93-1c.61-.61,1.19-1.23,1.7-1.81s1-1.19,1.58-1.84h-.07c-.54.65-1.08,1.27-1.59,1.84S41,81.69,40.41,82.3Zm7,2.35a1.14,1.14,0,0,0,1.08.5h0a1.24,1.24,0,0,1-1.08-.5A3.67,3.67,0,0,1,47.12,83V78.62h-.07V83a3.52,3.52,0,0,0,.32,1.66ZM50.26,87a11.09,11.09,0,0,1-1.91.14h0A11.56,11.56,0,0,0,50.33,87c.62-.11,1.12-.22,1.52-.33v-8h-.07v8c-.4.11-.91.21-1.52.32ZM76.76,6.55l56.36,26.9L147.06,94l-39,48.49-62.57,0,62.57,0,39-48.49L133.12,33.45Zm-38.27,75v-6.9h-.07v7a.07.07,0,0,1,.07-.07Z"/><path id="Tracé_29593" data-name="Tracé 29593" class="cls-2" d="M92.32,80.9a1.53,1.53,0,0,0-.43-.37,1.26,1.26,0,0,0-.69-.14,1.34,1.34,0,0,0-.65.14,1.47,1.47,0,0,0-.46.37,1.92,1.92,0,0,0-.29.5,2.91,2.91,0,0,0-.15.58h3a1.62,1.62,0,0,0-.11-.58A1.33,1.33,0,0,0,92.32,80.9Zm-24.51,0a1.58,1.58,0,0,0-.44-.37,1.23,1.23,0,0,0-.68-.14,1.32,1.32,0,0,0-.65.14,1.4,1.4,0,0,0-.47.37,2.25,2.25,0,0,0-.29.5,3.77,3.77,0,0,0-.14.58h3a1.43,1.43,0,0,0-.11-.58A.92.92,0,0,0,67.81,80.9Zm40.26.5a2.16,2.16,0,0,0-.26-.5,1.53,1.53,0,0,0-.43-.37,1.26,1.26,0,0,0-.69-.14,1.34,1.34,0,0,0-.65.14,1.51,1.51,0,0,0-.47.37,2.22,2.22,0,0,0-.28.5,2.91,2.91,0,0,0-.15.58h3a1.61,1.61,0,0,0-.1-.58ZM77.88,54.5A1.38,1.38,0,0,0,77.3,54a.81.81,0,0,0-.57-.11,1.2,1.2,0,0,0-1,.65L72.07,61a14.38,14.38,0,0,0,8,.4c.51-.11,1-.26,1.45-.4L77.88,54.5ZM79,39.91a1.15,1.15,0,0,0,.29.73,1.26,1.26,0,0,0,1.73.21h0l6.06-4.3a14.67,14.67,0,0,0-8.52-4.11Zm4.26,10.9c-.11,0-.18,0-.29,0a1.12,1.12,0,0,0-.47.11,1.26,1.26,0,0,0-.61,1.62l2.89,6.93A14.66,14.66,0,0,0,90.7,52l-7.44-1.19Zm-11.52,1a1.27,1.27,0,0,0-1.19-1,.73.73,0,0,0-.25,0l-7.37,1.23a14.76,14.76,0,0,0,5.92,7.4l2.86-6.86,0,0a1.16,1.16,0,0,0,.07-.8Zm3-3.07,2.06,1,2-1,.54-2.24-1.44-1.77H75.64L74.2,46.48Zm-2.16-7.84a1.34,1.34,0,0,0,.72.26A1.26,1.26,0,0,0,74.56,40h0L75,32.51c-.5.07-1,.14-1.51.25a14.43,14.43,0,0,0-7,3.83Zm11.19,3.43a1.58,1.58,0,0,0-.4.65,1.25,1.25,0,0,0,.9,1.48v0l7.18,2.06a14.92,14.92,0,0,0-2.16-9.24l-5.53,5ZM69.29,46.55a1.6,1.6,0,0,0,.65-.47,1.24,1.24,0,0,0-.14-1.73v0l-5.6-5a14.69,14.69,0,0,0-2.1,9.28l7.19-2.06Z"/><path id="Tracé_29594" data-name="Tracé 29594" class="cls-3" d="M53.33,53.89a.92.92,0,0,0,.29,0h.07a1.53,1.53,0,0,1,.36-.07c.43-.15.85-.32,1.27-.51a15.12,15.12,0,0,1,2.49-.72h.07a1.91,1.91,0,0,1,.76.29h0l.58-.11A18.56,18.56,0,0,0,67.45,63l-.25.62a1.26,1.26,0,0,1,.11.79A14.56,14.56,0,0,1,66,66.67a10.5,10.5,0,0,0-.76,1.12,1.2,1.2,0,0,0-.18.4,1.48,1.48,0,0,0,.6,2h0a.84.84,0,0,0,.58.11,1.59,1.59,0,0,0,1.37-.94c0-.11.14-.25.18-.36a9.76,9.76,0,0,0,.4-1.3,10.31,10.31,0,0,1,1.08-2.56,1.05,1.05,0,0,1,.62-.29l.32-.58s0,0,0,0h0a18.2,18.2,0,0,0,10.61.73,18.81,18.81,0,0,0,2.46-.73v0c.11.18.25.47.29.54a1.06,1.06,0,0,1,.72.44,12.41,12.41,0,0,1,1,2.38c.14.43.21.83.4,1.3a1.22,1.22,0,0,0,.18.36,1.59,1.59,0,0,0,1.44.94,1.3,1.3,0,0,0,.51-.11,1.53,1.53,0,0,0,.61-2,1.59,1.59,0,0,1-.18-.4c-.25-.43-.51-.76-.76-1.12a14.11,14.11,0,0,1-1.26-2.24,1.2,1.2,0,0,1,.1-.83c0-.07-.18-.4-.25-.58a18.51,18.51,0,0,0,8.2-10.29h.07a4.86,4.86,0,0,1,.55.11,1.05,1.05,0,0,1,.79-.29,14.67,14.67,0,0,1,2.45.72c.42.19.84.36,1.27.51.11,0,.25,0,.36.07h.07a1.47,1.47,0,0,0,.36,0,1.45,1.45,0,0,0,1.48-1.09,1.51,1.51,0,0,0-1.19-1.73l-.4-.11a10.4,10.4,0,0,0-1.37-.11,11.61,11.61,0,0,1-2.56-.43c-.29-.11-.51-.47-.62-.61L95,49.63A18.59,18.59,0,0,0,94.71,43,17.67,17.67,0,0,0,92,36.85c.15-.15.44-.4.51-.47a1.27,1.27,0,0,1,.25-.8,10.82,10.82,0,0,1,2.13-1.48c.4-.25.76-.4,1.19-.68l.33-.26a1.41,1.41,0,0,0,.49-1.92,1.44,1.44,0,0,0-1.11-.68,1.77,1.77,0,0,0-1.15.36c-.11.08-.22.19-.33.26a12.32,12.32,0,0,0-.94,1,11.68,11.68,0,0,1-1.91,1.74A1,1,0,0,1,91,34H90.6l-.51.36,0,0a18.7,18.7,0,0,0-11.81-5.7c0-.18,0-.54,0-.65a1.21,1.21,0,0,1-.46-.72,12.86,12.86,0,0,1,.14-2.56,7.57,7.57,0,0,0,.18-1.34V23a1.52,1.52,0,0,0-1.37-1.59h0A1.5,1.5,0,0,0,75.25,23h0v.4c0,.5.14.9.18,1.34a13.65,13.65,0,0,1,.15,2.56,1.84,1.84,0,0,1-.47.72l0,.61a22,22,0,0,0-2.56.4,18.12,18.12,0,0,0-9.25,5.27l0,0-.5-.36c-.11,0-.22,0-.36,0a1.45,1.45,0,0,1-.51-.11,11.62,11.62,0,0,1-1.91-1.73c-.3-.34-.61-.67-.94-1a2.85,2.85,0,0,0-.33-.25,1.72,1.72,0,0,0-1-.36h0a1.32,1.32,0,0,0-1.12.5,1.49,1.49,0,0,0,.34,2.08l0,0h0a2.26,2.26,0,0,1,.29.25,8.21,8.21,0,0,0,1.19.69,15.58,15.58,0,0,1,2.13,1.48,1.63,1.63,0,0,1,.29.83l.47.4a18.15,18.15,0,0,0-2.89,12.82l-.58.18a1.78,1.78,0,0,1-.61.61,13.94,13.94,0,0,1-2.57.43,8.94,8.94,0,0,0-1.37.11,1.09,1.09,0,0,1-.4.07h0a1.51,1.51,0,0,0-1.19,1.74,1.82,1.82,0,0,0,1.66,1.08Zm18.38-1.3-2.85,6.86a14.77,14.77,0,0,1-5.93-7.4l7.33-1.23c.07,0,.18,0,.25,0a1.21,1.21,0,0,1,1.19,1,1.31,1.31,0,0,1,0,.83Zm8.37,8.84a15,15,0,0,1-8-.4l3.61-6.53a1.22,1.22,0,0,1,1-.65,1.66,1.66,0,0,1,.58.11,1.35,1.35,0,0,1,.57.54h0L81.53,61c-.47.15-.94.29-1.44.4Zm4.66-2-2.89-6.93a1.25,1.25,0,0,1,.62-1.62,1.12,1.12,0,0,1,.47-.11.72.72,0,0,1,.29,0l7.4,1.27a14.51,14.51,0,0,1-5.89,7.36Zm6.39-15.67a15.31,15.31,0,0,1,.33,4.77l-7.19-2.06v0a1.27,1.27,0,0,1-.9-1.48,1.33,1.33,0,0,1,.4-.65l5.56-5a15.05,15.05,0,0,1,1.81,4.44Zm-4-7.25L81,40.86h0a1.29,1.29,0,0,1-1.73-.22,1.47,1.47,0,0,1-.29-.72l-.43-7.44a14.82,14.82,0,0,1,8.59,4.08ZM75.64,44.72h2.28l1.41,1.77-.51,2.2-2.06,1-2.05-1-.51-2.2,1.44-1.77Zm-2.16-12A11.06,11.06,0,0,1,75,32.48l-.43,7.43h0a1.28,1.28,0,0,1-1.26,1.2,1,1,0,0,1-.72-.26l-6.1-4.33a14.88,14.88,0,0,1,7-3.79Zm-9.25,6.61,5.6,5v0A1.23,1.23,0,0,1,70,46.09a1.29,1.29,0,0,1-.65.43v0l-7.15,2.06a14.46,14.46,0,0,1,2.06-9.28Zm4.73,69H67.12v2.42H69c.9,0,1.41-.47,1.41-1.19v0c0-.79-.54-1.19-1.44-1.19Zm34.16,0h-1.84v2.42h1.88c.9,0,1.41-.47,1.41-1.19v0c0-.79-.55-1.19-1.45-1.19ZM65.86,99.92H68.1L67,97.18Zm-7.51,11.59h2.24l-1.12-2.74Zm-5.49-3a1.85,1.85,0,0,0-1-.29H50.37v2.57h1.48a1.31,1.31,0,0,0,1.48-1.27v0a1.24,1.24,0,0,0-.47-1Z"/><path id="Tracé_29595" data-name="Tracé 29595" class="cls-3" d="M35.49,90.28v29.43h82.72V90.28ZM86.44,95h1.84v8.45H86.44Zm-10,0h1.7l4,5.2V95H84v8.45H82.36l-4.08-5.38v5.38H76.44ZM54.52,95h3.86a3.23,3.23,0,0,1,2.46.87,2.85,2.85,0,0,1,.58.94,2.89,2.89,0,0,1,.14,1v0a3.16,3.16,0,0,1-.43,1.59,2.88,2.88,0,0,1-1.38,1l2.06,3H59.65l-1.81-2.71H56.36v2.71H54.52V95Zm-8.41,0h7v1.7H50.54v6.71H48.7V96.71H46.14V95Zm5.7,17.51H50.4v2.53H48.56V106.6H52c2,0,3.25,1.19,3.25,2.93v0c-.07,2-1.59,3-3.47,3ZM62,115.05l-.76-1.88H57.69l-.75,1.88H55.06l3.61-8.52h1.7L64,115.05Zm2.38-11.59H62.53L64.45,99l.25-.58L66.14,95h1.7l3.61,8.52h-2l-.75-1.88H65.17Zm6,11.59-1.8-2.71H67.12v2.71H65.28V106.6h3.87a3.22,3.22,0,0,1,2.45.87,2.6,2.6,0,0,1,.72,1.91v0a2.65,2.65,0,0,1-1.8,2.64l2.06,3H70.41Zm2.46-20H74.7v8.45H72.86Zm7.51,13.32H77.8v6.72H76v-6.72H73.4V106.6h7v1.74Zm8.92,6.72H87.7l-4.08-5.38v5.38H81.78v-8.41h1.7l2.64,3.46.65.87.65.87V106.6h1.84v8.45Zm8.48,0H91.34V106.6H97.7v1.66H93.19V110h4v1.66h-4v1.77h4.58v1.66Zm.11-11.59H96.29l-4.08-5.38v5.38H90.37V95h1.7l4,5.2V95h1.84Zm6.64,11.59-1.8-2.71h-1.48v2.71H99.4V106.6h3.86a3.22,3.22,0,0,1,2.45.87,2.57,2.57,0,0,1,.73,1.91v0a2.68,2.68,0,0,1-1.81,2.64l2.06,3h-2.17Zm3.07-12.78s-.07,0-.11.07a5.57,5.57,0,0,1-3.5,1.27,4.22,4.22,0,0,1-4.43-4c0-.11,0-.22,0-.34v0a4.36,4.36,0,0,1,4.34-4.37h.1A4.67,4.67,0,0,1,107.31,96l-1.16,1.41a3.11,3.11,0,0,0-2.2-.87,2.55,2.55,0,0,0-2.42,2.64v0a2.51,2.51,0,0,0,2.35,2.66h.22a3,3,0,0,0,1.73-.51v-1.19H104V98.62h3.68v3.65Z"/><path id="Tracé_29596" data-name="Tracé 29596" class="cls-3" d="M59.68,97.9c0-.83-.54-1.23-1.44-1.23H56.4V99.1h1.88c.86,0,1.4-.47,1.4-1.19Zm55.68-12.75a2.35,2.35,0,0,1-.83.11h0a5.16,5.16,0,0,1-1.23-.14,7.19,7.19,0,0,1-1.11-.36s0,0-.08,0l-.4,1.91c.18.08.51.18,1,.33a6.84,6.84,0,0,0,1.8.18h0a4.34,4.34,0,0,0,2.53-.65,2.17,2.17,0,0,0,.9-1.88,3.41,3.41,0,0,0-.11-.9,2,2,0,0,0-.4-.72,2.5,2.5,0,0,0-.76-.61,13.36,13.36,0,0,0-1.23-.58l-.61-.26a1.31,1.31,0,0,1-.36-.21.48.48,0,0,1-.18-.22.44.44,0,0,1,0-.25c0-.4.36-.62,1.08-.62h0a4.88,4.88,0,0,1,1,.11,5.11,5.11,0,0,1,.87.25v0l.4-1.81a5,5,0,0,0-1.09-.29,9,9,0,0,0-1.37-.14h0a3.42,3.42,0,0,0-2.31.69,2.19,2.19,0,0,0-.83,1.84,2.65,2.65,0,0,0,.18,1,2,2,0,0,0,.47.73,2.87,2.87,0,0,0,.75.54c.29.14.62.29,1,.43a8.21,8.21,0,0,1,1.05.47.62.62,0,0,1,.32.51c-.14.36-.22.5-.4.57ZM103.84,86a3.49,3.49,0,0,0,1.34.9,5.19,5.19,0,0,0,1.91.33h0a7.81,7.81,0,0,0,.83,0c.29,0,.54-.07.79-.11a4.39,4.39,0,0,0,.69-.18c.21-.07.36-.14.5-.18l-.29-1.88v0a4.71,4.71,0,0,1-1,.29,6.83,6.83,0,0,1-1.19.1h0a2.44,2.44,0,0,1-1.55-.43,1.52,1.52,0,0,1-.65-1.15h5.2c0-.15,0-.29,0-.44V82.7a4.54,4.54,0,0,0-1-3.22,3.44,3.44,0,0,0-2.67-1.08h0a4,4,0,0,0-1.45.29,3.53,3.53,0,0,0-1.22.83,4,4,0,0,0-.87,1.37,5.44,5.44,0,0,0-.33,2,5.16,5.16,0,0,0,.26,1.7,2.64,2.64,0,0,0,.68,1.45Zm1.44-4.58a1.61,1.61,0,0,1,.29-.51,1.79,1.79,0,0,1,.47-.36,1.65,1.65,0,0,1,.65-.14,1.29,1.29,0,0,1,1.12.5,1.22,1.22,0,0,1,.25.51,2.83,2.83,0,0,1,.11.58h-3c0-.19.11-.4.14-.58Zm-30.83-.8a1.49,1.49,0,0,1,.47-.07,2.13,2.13,0,0,1,.5,0h0a6.38,6.38,0,0,1,.87.07c.29.07.5.11.72.18l.4-2L77,78.65l-.51-.1c-.18,0-.36,0-.5-.08s-.29,0-.44,0h0a9.9,9.9,0,0,0-1.88.18c-.54.14-1,.29-1.44.43V87h2.31V80.6Zm-4.08,2.57V82.7a4.64,4.64,0,0,0-1-3.22,3.45,3.45,0,0,0-2.67-1.08h0a4,4,0,0,0-1.44.29,3.57,3.57,0,0,0-1.23.83,4.1,4.1,0,0,0-.87,1.37,5.22,5.22,0,0,0-.32,2,4.9,4.9,0,0,0,.25,1.7,3.62,3.62,0,0,0,.79,1.37,3.49,3.49,0,0,0,1.34.9,4.81,4.81,0,0,0,1.91.33h0a5.7,5.7,0,0,0,.83,0l.79-.1a3.2,3.2,0,0,0,.69-.19c.22-.07.36-.14.51-.18l-.29-1.87v0a4.8,4.8,0,0,1-1,.29,6.75,6.75,0,0,1-1.19.11h0a2.46,2.46,0,0,1-1.55-.44,1.52,1.52,0,0,1-.65-1.15h5.2a.57.57,0,0,1-.07-.36ZM65.14,82a2.34,2.34,0,0,1,.14-.58,1.44,1.44,0,0,1,.29-.51,1.68,1.68,0,0,1,.47-.36,1.58,1.58,0,0,1,.65-.14,1.46,1.46,0,0,1,.68.14,1.54,1.54,0,0,1,.44.36,1.35,1.35,0,0,1,.25.51,3.71,3.71,0,0,1,.11.58Zm29.75,1.19V82.7a4.64,4.64,0,0,0-1-3.22A3.46,3.46,0,0,0,91.2,78.4h0a4,4,0,0,0-1.45.29,3.53,3.53,0,0,0-1.22.83,4,4,0,0,0-.87,1.37,5.44,5.44,0,0,0-.33,2,5.16,5.16,0,0,0,.26,1.7,3.62,3.62,0,0,0,.79,1.37,3.49,3.49,0,0,0,1.34.9,4.81,4.81,0,0,0,1.91.33h0a5.84,5.84,0,0,0,.83,0l.79-.1a3.2,3.2,0,0,0,.69-.19c.21-.07.36-.14.5-.18l-.29-1.87v0a4.71,4.71,0,0,1-1,.29,6.75,6.75,0,0,1-1.19.11h0a2.45,2.45,0,0,1-1.55-.44,1.52,1.52,0,0,1-.65-1.15H95c-.11-.07-.11-.22-.07-.36ZM89.65,82a2.91,2.91,0,0,1,.15-.58,1.41,1.41,0,0,1,.28-.51,2,2,0,0,1,.47-.36,1.65,1.65,0,0,1,.65-.14,1.47,1.47,0,0,1,.69.14,1.5,1.5,0,0,1,.43.36,1.37,1.37,0,0,1,.26.51,2.82,2.82,0,0,1,.1.58ZM38.42,87V83.35s0,0,.07.07c.22.22.47.44.72.72s.51.62.76,1a5.61,5.61,0,0,1,.65,1c.22.33.4.65.58.9h2.63c-.18-.36-.4-.72-.65-1.15s-.54-.83-.83-1.27-.61-.83-.94-1.23a12.64,12.64,0,0,0-.93-1c.61-.61,1.19-1.23,1.7-1.8s1-1.19,1.58-1.84H41l-.5.61c-.22.25-.4.51-.65.76s-.47.54-.69.83l-.65.72-.07.07v-7l-2.28.4V87.07h2.24Z"/><path id="Tracé_29597" data-name="Tracé 29597" class="cls-2" d="M56.18,85.12c.11,0,.25,0,.43.07s.37,0,.58,0a1.67,1.67,0,0,0,1.41-.65,2.94,2.94,0,0,0,.47-1.77c0-1.52-.54-2.28-1.63-2.28a2.25,2.25,0,0,0-.68.11,2.31,2.31,0,0,0-.58.25Z"/><path id="Tracé_29598" data-name="Tracé 29598" class="cls-3" d="M53.91,75.08V86.74c.21.08.43.11.72.19a7.56,7.56,0,0,0,.83.14l.9.11a6.33,6.33,0,0,0,.87,0h0A4.4,4.4,0,0,0,59,86.89,4.24,4.24,0,0,0,60.33,86a3.71,3.71,0,0,0,.83-1.37,5.81,5.81,0,0,0,.29-1.81,6.53,6.53,0,0,0-.22-1.76,3.79,3.79,0,0,0-.68-1.38,2.44,2.44,0,0,0-1.12-.86A3.8,3.8,0,0,0,58,78.51h0a4,4,0,0,0-.9.11,4.37,4.37,0,0,0-.72.25s0,0-.07,0V74.76Zm2.85,5.49a2.25,2.25,0,0,1,.68-.11c1.09,0,1.63.76,1.63,2.28a3,3,0,0,1-.47,1.77,1.67,1.67,0,0,1-1.41.65,3.86,3.86,0,0,1-.58,0,1.29,1.29,0,0,1-.43-.07v-4.3l.58-.18Zm45.17,6.17-.33-1.8v0a3.45,3.45,0,0,1-.72.18,4.41,4.41,0,0,1-.72.08h0a1,1,0,0,1-1-.44,2.21,2.21,0,0,1-.25-1.19V80.61h2.74v-2H98.86V76.2l-2.27.4v7a6.19,6.19,0,0,0,.14,1.48,2.65,2.65,0,0,0,.51,1.12,2.57,2.57,0,0,0,1,.72,3.91,3.91,0,0,0,1.55.25h0a5.28,5.28,0,0,0,1.19-.11,4.53,4.53,0,0,0,.94-.32Zm-56.4-.65a2.26,2.26,0,0,0,1.08.8,4.68,4.68,0,0,0,1.7.29h0A11.1,11.1,0,0,0,50.26,87c.61-.11,1.12-.21,1.52-.32v-8H49.46v6.42c-.14,0-.32,0-.5.08s-.33,0-.47,0h0a1.12,1.12,0,0,1-1.08-.5A3.81,3.81,0,0,1,47.08,83V78.66H44.77v4.65A6.79,6.79,0,0,0,45,84.87a2.85,2.85,0,0,0,.58,1.23ZM83.4,87h2.24V82.3a6.77,6.77,0,0,0-.18-1.55,2.65,2.65,0,0,0-.58-1.19,2.46,2.46,0,0,0-1.08-.8,4.5,4.5,0,0,0-1.66-.29h0a10.68,10.68,0,0,0-1.95.15c-.61.11-1.12.21-1.51.32V87H81V80.57c.14,0,.32,0,.5-.07a2.92,2.92,0,0,1,.51,0h0a1.24,1.24,0,0,1,1.09.47,3.49,3.49,0,0,1,.28,1.63V87Z"/><path id="Tracé_29599" data-name="Tracé 29599" class="cls-4" d="M153.31,90.68l-13.18-57.3a10.28,10.28,0,0,0-5.53-6.86L81.2,1a10,10,0,0,0-4.94-1,10.14,10.14,0,0,0-3.9,1L19,26.52a10.28,10.28,0,0,0-5.53,6.86L.25,90.68a10.15,10.15,0,0,0,1.38,7.76,6.44,6.44,0,0,0,.57.8l36.94,46a10.38,10.38,0,0,0,8,3.83h59.25a10.45,10.45,0,0,0,8-3.79l36.93-46a10.12,10.12,0,0,0,2-8.59ZM147.06,94l-39,48.49H45.5L6.5,94,17.22,47.39l3.22-13.9L76.8,6.55l56.36,26.9Z"/><path id="Tracé_29600" data-name="Tracé 29600" class="cls-2" d="M131.24,35,76.8,9,22.39,35l-3,12.89L9,93.42l37.69,46.87H107L144.7,93.42Zm-16,49.18a6.13,6.13,0,0,0-1.05-.47c-.36-.14-.69-.29-1-.43a2.87,2.87,0,0,1-.75-.54A2.18,2.18,0,0,1,112,82a2.65,2.65,0,0,1-.18-1,2.19,2.19,0,0,1,.83-1.84,3.47,3.47,0,0,1,2.31-.69h.07a8.09,8.09,0,0,1,2.49.43l-.4,1.84s0,0-.07,0v0a5.11,5.11,0,0,0-.87-.25,4.88,4.88,0,0,0-1-.11c-.69,0-1,.22-1,.62a.55.55,0,0,0,0,.25,1.24,1.24,0,0,0,.18.22l.36.21a3.61,3.61,0,0,0,.61.26,6.91,6.91,0,0,1,1.23.58,2.5,2.5,0,0,1,.76.61,2,2,0,0,1,.4.72,3.47,3.47,0,0,1,.11.9,2.15,2.15,0,0,1-.9,1.88,4.34,4.34,0,0,1-2.53.65h-.08a9.08,9.08,0,0,1-1.8-.18,6,6,0,0,1-1-.33l.4-1.91s0,0,.08,0v0a7.8,7.8,0,0,0,1.19.36,6.78,6.78,0,0,0,1.19.14,2.13,2.13,0,0,0,.83-.1c.18-.08.25-.26.25-.51s0-.4-.22-.54Zm-59-9.5V78.8a6.93,6.93,0,0,1,.72-.26,3.45,3.45,0,0,1,.9-.1H58a3.16,3.16,0,0,1,1.51.32,3.67,3.67,0,0,1,1.12.87A5,5,0,0,1,61.27,81a5.28,5.28,0,0,1,.21,1.77,5.51,5.51,0,0,1-.28,1.8A3.67,3.67,0,0,1,60.37,86a3.1,3.1,0,0,1-1.34.86,4.45,4.45,0,0,1-1.77.33h-.07a8.44,8.44,0,0,1-.87,0l-.9-.11c-.28,0-.58-.1-.83-.14s-.5-.11-.72-.18V75l2.27-.4.11.07Zm9.64,10.07a2.6,2.6,0,0,0,1.56.44,6.84,6.84,0,0,0,1.19-.11,4.71,4.71,0,0,0,1-.29v0s0,0,.07,0L70,86.7a1.37,1.37,0,0,1-.51.19c-.21.07-.43.1-.68.18l-.8.1a6.12,6.12,0,0,1-.86,0h-.08a5.4,5.4,0,0,1-1.91-.32,4.21,4.21,0,0,1-1.34-.9A3.74,3.74,0,0,1,63,84.61a5.15,5.15,0,0,1-.25-1.7,5.22,5.22,0,0,1,.32-2A4.2,4.2,0,0,1,64,79.59a3.57,3.57,0,0,1,1.23-.83,4.2,4.2,0,0,1,1.44-.29h.07a3.46,3.46,0,0,1,2.71,1.09,4.61,4.61,0,0,1,1,3.21v.47c0,.18,0,.33,0,.43h-5.2a1.72,1.72,0,0,0,.68,1.09ZM72.14,87v-7.9c.4-.15.9-.29,1.44-.44a7.45,7.45,0,0,1,1.88-.18h.07a2.18,2.18,0,0,1,.44,0,2.08,2.08,0,0,1,.5.07l.51.11a1.36,1.36,0,0,1,.43.14l-.4,2h-.07c-.21,0-.43-.11-.72-.18a3.1,3.1,0,0,0-.86-.07,1.83,1.83,0,0,0-.47,0l-.47.07V87H72.14ZM83,81A1.12,1.12,0,0,0,82,80.49a2.42,2.42,0,0,0-.47,0,2.24,2.24,0,0,0-.51.07V87H78.6V79c.4-.11.9-.22,1.51-.33a11.63,11.63,0,0,1,2-.14h.08a4.32,4.32,0,0,1,1.7.29,2.25,2.25,0,0,1,1.08.79,3.38,3.38,0,0,1,.58,1.19,6.79,6.79,0,0,1,.18,1.56V87H83.3V82.59A3,3,0,0,0,83,81Zm7.33,3.79a2.57,2.57,0,0,0,1.55.44,6.75,6.75,0,0,0,1.19-.11,4.8,4.8,0,0,0,1-.29v0s0,0,.07,0l.32,1.91a1.27,1.27,0,0,1-.5.19,4.39,4.39,0,0,0-.69.18l-.79.1a6.33,6.33,0,0,1-.87,0h-.07a5.4,5.4,0,0,1-1.91-.32,4.11,4.11,0,0,1-1.34-.9,3.74,3.74,0,0,1-.79-1.38,5.16,5.16,0,0,1-.26-1.7,5.44,5.44,0,0,1,.33-2,3.78,3.78,0,0,1,.86-1.37,3.66,3.66,0,0,1,1.23-.83,4.21,4.21,0,0,1,1.45-.29h.07a3.46,3.46,0,0,1,2.71,1.09,4.69,4.69,0,0,1,1,3.21v.47c0,.18,0,.32,0,.43h-5.2a1.68,1.68,0,0,0,.69,1.08Zm12.74-3.82a4.1,4.1,0,0,1,.87-1.37,3.31,3.31,0,0,1,1.23-.83,3.78,3.78,0,0,1,1.44-.29h.07a3.45,3.45,0,0,1,2.71,1.08,4.64,4.64,0,0,1,1,3.22v.47c0,.18,0,.32,0,.43h-5.2a1.6,1.6,0,0,0,.65,1.15,2.59,2.59,0,0,0,1.55.44,6.75,6.75,0,0,0,1.19-.11,4.8,4.8,0,0,0,1-.29v0s0,0,.07,0l.32,1.91a1.12,1.12,0,0,1-.5.18,5.91,5.91,0,0,0-.69.19l-.79.1a6.33,6.33,0,0,1-.87,0h-.07a5.19,5.19,0,0,1-1.91-.33,3.82,3.82,0,0,1-1.34-.9,3.62,3.62,0,0,1-.79-1.37,5.16,5.16,0,0,1-.26-1.7,6.92,6.92,0,0,1,.36-2Zm-2,6.14a5.59,5.59,0,0,1-1.23.14h-.07A3.89,3.89,0,0,1,98.24,87a2.83,2.83,0,0,1-1-.73,2.39,2.39,0,0,1-.5-1.11,6.2,6.2,0,0,1-.15-1.48v-7l2.28-.4H99v2.45h2.74v2H99v2.93a2.25,2.25,0,0,0,.25,1.19,1.1,1.1,0,0,0,1,.43,5.82,5.82,0,0,0,.73-.07,4.74,4.74,0,0,0,.72-.18v0s0,0,.07,0l.33,1.84c-.33.11-.65.18-1,.29ZM53,51.07l.4-.11a8.94,8.94,0,0,1,1.37-.11,12.23,12.23,0,0,0,2.56-.43A2,2,0,0,0,58,49.8l.58-.18A18.54,18.54,0,0,1,61.41,36.8l-.47-.4a1.79,1.79,0,0,0-.28-.83,11.12,11.12,0,0,0-2.13-1.48c-.4-.25-.76-.4-1.2-.68a1.73,1.73,0,0,1-.28-.26h0a1.51,1.51,0,0,1-.36-2.09,1.35,1.35,0,0,1,1.12-.5h.07a1.66,1.66,0,0,1,1,.36c.11.07.22.18.32.25a10.72,10.72,0,0,1,.94,1A12.18,12.18,0,0,0,62,33.88a.71.71,0,0,0,.43.11c.11,0,.25,0,.36,0h0a5.27,5.27,0,0,0,.47.32A18.27,18.27,0,0,1,72.54,29a24.75,24.75,0,0,1,2.56-.4l0-.61a1.7,1.7,0,0,0,.47-.72,12.29,12.29,0,0,0-.15-2.57,9.89,9.89,0,0,1-.18-1.33V23a1.53,1.53,0,0,1,1.41-1.59h.07A1.5,1.5,0,0,1,78.17,23h0v.4c0,.5-.14.9-.18,1.33a13,13,0,0,0-.14,2.57,1.21,1.21,0,0,0,.47.72c0,.11,0,.43,0,.65a18.58,18.58,0,0,1,11.77,5.67l.51-.36H91a1.12,1.12,0,0,0,.47-.11,12.09,12.09,0,0,0,1.91-1.73,10.88,10.88,0,0,1,.94-1,2.51,2.51,0,0,1,.32-.25,1.58,1.58,0,0,1,1.16-.36,1.34,1.34,0,0,1,1,.5,1.5,1.5,0,0,1-.34,2.08l0,0c-.1.07-.21.18-.32.25a12.71,12.71,0,0,1-1.19.69,17.42,17.42,0,0,0-2.14,1.49,1,1,0,0,0-.25.79l-.5.47a18.3,18.3,0,0,1,3,12.78l.58.18a1.56,1.56,0,0,0,.61.62,14.88,14.88,0,0,0,2.56.43,9.17,9.17,0,0,1,1.38.11l.4.11a1.49,1.49,0,0,1,1.19,1.73,1.44,1.44,0,0,1-1.56,1.08,1.1,1.1,0,0,1-.36,0H99.8c-.11,0-.25,0-.36-.08a11.38,11.38,0,0,1-1.26-.5,13.32,13.32,0,0,0-2.46-.72,1.18,1.18,0,0,0-.76.29h0a4.08,4.08,0,0,0-.55-.11A18.47,18.47,0,0,1,86.18,63a3.33,3.33,0,0,0,.26.58,1.25,1.25,0,0,0-.11.83,14.11,14.11,0,0,0,1.26,2.24,10.37,10.37,0,0,1,.76,1.11,1.59,1.59,0,0,1,.18.4,1.49,1.49,0,0,1-.6,2h0a.83.83,0,0,1-.58.1,1.52,1.52,0,0,1-1.44-.93c0-.11-.15-.26-.18-.37a5.76,5.76,0,0,1-.4-1.3,13,13,0,0,0-1-2.38,1,1,0,0,0-.72-.43,4.8,4.8,0,0,1-.29-.54,16.7,16.7,0,0,1-2.38.72,18.56,18.56,0,0,1-10.69-.72l-.33.57a1.56,1.56,0,0,0-.61.29,10,10,0,0,0-1.08,2.56c-.14.43-.21.83-.4,1.3a1.22,1.22,0,0,1-.18.36,1.59,1.59,0,0,1-1.44.94,1.65,1.65,0,0,1-.58-.1,1.53,1.53,0,0,1-.61-2,2.43,2.43,0,0,1,.18-.4c.25-.44.51-.76.76-1.12a13.81,13.81,0,0,0,1.3-2.31,1.46,1.46,0,0,0-.11-.8l.25-.61a18.59,18.59,0,0,1-8.2-10.22l-.54.11h0a1.91,1.91,0,0,0-.76-.29,13.32,13.32,0,0,0-2.46.72q-.62.28-1.26.51a1.53,1.53,0,0,1-.36.07h-.07a1.1,1.1,0,0,1-.36,0A1.44,1.44,0,0,1,53,51.07ZM44.77,78.65h2.38V83a3.83,3.83,0,0,0,.29,1.67,1.15,1.15,0,0,0,1.09.5,1.89,1.89,0,0,0,.47,0,2.09,2.09,0,0,0,.5-.08V78.66h2.38v8c-.4.11-.9.21-1.51.32a10.68,10.68,0,0,1-1.95.15h-.08a4.71,4.71,0,0,1-1.7-.29,2.51,2.51,0,0,1-1.08-.8A3.43,3.43,0,0,1,45,84.87a8.11,8.11,0,0,1-.18-1.56V78.66ZM36.1,75.08l2.28-.4h.07v6.9c.21-.22.43-.47.65-.73a10.3,10.3,0,0,0,.68-.83l.65-.75c.22-.26.36-.47.51-.62h2.81c-.54.65-1.08,1.27-1.58,1.84s-1.09,1.19-1.7,1.81a8.07,8.07,0,0,1,.93,1,14.26,14.26,0,0,1,.94,1.23,10.54,10.54,0,0,1,.83,1.26c.26.43.47.8.65,1.16H41.16c-.18-.29-.36-.58-.58-.9s-.43-.65-.65-1-.47-.65-.76-1a6.12,6.12,0,0,0-.72-.72V87H36.07V75.08Zm82.1,44.62H35.49V90.28h82.72v29.43Z"/><path id="Tracé_29601" data-name="Tracé 29601" class="cls-3" d="M147.06,94,133.12,33.49,76.76,6.55,20.4,33.49l-3.18,13.9L6.5,94l39,48.49h62.57ZM46.61,140.29h-.07L8.88,93.42,19.35,47.89l3-12.89L76.76,9h0l54.45,26,13.46,58.42L107,140.29Z"/><path id="Tracé_29602" data-name="Tracé 29602" class="cls-2" d="M48.67,103.46h1.84V96.71h2.57V95h-7v1.7h2.56Zm7.69-2.71h1.48l1.81,2.71h2.16l-2.05-3a2.7,2.7,0,0,0,1.37-1.05,2.78,2.78,0,0,0,.43-1.59v0a4.07,4.07,0,0,0-.14-1,2.29,2.29,0,0,0-.58-.94A3.41,3.41,0,0,0,58.38,95H54.52v8.45h1.84v-2.67Zm0-4.08H58.2c.9,0,1.45.4,1.45,1.19v0c0,.72-.51,1.19-1.41,1.19H56.36V96.67Zm13.15,6.79h1.95l-3.62-8.52h-1.7L64.7,98.33l-.26.58-1.91,4.51h1.88l.76-1.87h3.57l.76,1.91Zm-3.65-3.54L67,97.18l1.12,2.74Zm7-4.91H74.7v8.45H72.86Zm5.41,3.07,4.08,5.38h1.59V95H82.1v5.2l-4-5.2h-1.7v8.45h1.84ZM86.43,95h1.85v8.45H86.44Zm9.64,5.2-4-5.2H90.4v8.45h1.81V98.08l4.11,5.38h1.56V95h-1.8ZM104,98.59v1.58h1.87v1.2a3,3,0,0,1-1.73.51,2.54,2.54,0,0,1-2.57-2.5,1.09,1.09,0,0,1,0-.18v0A2.54,2.54,0,0,1,104,96.53a3.12,3.12,0,0,1,2.2.87L107.3,96A4.54,4.54,0,0,0,104,94.84a4.33,4.33,0,0,0-4.44,4.22v.18a4.22,4.22,0,0,0,4.1,4.34H104a5.52,5.52,0,0,0,3.5-1.26s.07,0,.11-.07V98.56h-3.65ZM55.2,109.53c0-1.74-1.23-2.93-3.25-2.93H48.49v8.45h1.84v-2.53h1.41c1.95,0,3.47-1,3.47-3Zm-1.88.07c0,.72-.54,1.26-1.48,1.26H50.36V108.3h1.45a1.87,1.87,0,0,1,1,.29,1.13,1.13,0,0,1,.46,1Zm5.31-3L55,115.09H56.9l.76-1.88h3.57l.76,1.88h1.95l-3.61-8.52Zm-.29,4.94,1.12-2.74,1.12,2.74Zm14-2.09a2.66,2.66,0,0,0-.73-2,3.34,3.34,0,0,0-2.45-.87H65.28v8.45h1.84v-2.71H68.6l1.8,2.71h2.17l-2.06-3a2.61,2.61,0,0,0,1.81-2.6Zm-1.88.11c0,.72-.51,1.19-1.41,1.19H67.16V108.3H69c.86,0,1.44.4,1.44,1.23Zm3-1.19H76v6.71H77.8v-6.71h2.57V106.6h-7ZM87.48,108v3.79l-.65-.86-.69-.83-2.63-3.5h-1.7v8.44h1.8v-5.38l4.12,5.38h1.55V106.6h-1.8Zm5.7,3.61h4V110h-4v-1.7h4.51V106.6H91.34v8.45h6.43v-1.66H93.18Zm13.29-2.2a2.71,2.71,0,0,0-.72-2,3.37,3.37,0,0,0-2.46-.86h-3.9v8.44h1.84v-2.7h1.48l1.81,2.7h2.18l-2.06-3a2.58,2.58,0,0,0,1.84-2.6Zm-1.92.11c0,.72-.5,1.19-1.4,1.19h-1.87V108.3h1.84c.9,0,1.44.4,1.44,1.23Z"/></g></svg>