<?xml version="1.0" encoding="utf-8"?>
<!-- Generator: Adobe Illustrator 25.4.1, SVG Export Plug-In . SVG Version: 6.00 Build 0)  -->
<svg version="1.1" id="Calque_1" xmlns="http://www.w3.org/2000/svg" xmlns:xlink="http://www.w3.org/1999/xlink" x="0px" y="0px"
	 viewBox="0 0 752 302.8" style="enable-background:new 0 0 752 302.8;" xml:space="preserve">
<style type="text/css">
	.st0{fill:#FFFFFF;}
	.st1{fill:#FFFFFF;stroke:#FFFFFF;stroke-width:0.925;stroke-miterlimit:10;}
</style>
<g id="Groupe_34672" transform="translate(-102.462 -220.464)">
	<g id="Groupe_4890" transform="translate(154.686 250.685)">
		<path id="Tracé_13404" class="st0" d="M178.9,104.8h39.1v5h-33.2v22.2h29.5v5h-29.5v29.3h-5.9L178.9,104.8z"/>
		<path id="Tracé_13405" class="st0" d="M251,103.5c19.3,0,29,15.2,29,32.1s-9.7,32.1-29,32.1c-19.4,0-29.1-15.2-29.1-32.1
			S231.6,103.5,251,103.5z M251,162.7c16.2,0,23.1-13.6,23.1-27.1s-6.9-27.1-23.1-27.1c-16.3,0-23.2,13.6-23.2,27.1
			S234.7,162.7,251,162.7z"/>
		<path id="Tracé_13406" class="st0" d="M288.5,104.8h5.9v38.1c0,14.2,6.6,19.7,18,19.7c11.5,0,18.1-5.5,18.1-19.7v-38.1h5.9v39.4
			c0,12.7-6.8,23.5-24,23.5c-17,0-23.9-10.8-23.9-23.5L288.5,104.8z"/>
		<path id="Tracé_13407" class="st0" d="M348.1,104.8h6.6l35.9,52.1h0.2v-52.1h5.9v61.6H390l-35.9-52.1h-0.2v52.1h-5.9V104.8z"/>
		<path id="Tracé_13408" class="st0" d="M408.9,104.8h21.3c18.6,0.4,28.3,10.4,28.3,30.8s-9.7,30.4-28.3,30.8h-21.3V104.8z
			 M414.7,161.4h12.5c17.7,0,25.3-7.3,25.3-25.8s-7.7-25.8-25.3-25.8h-12.5V161.4z"/>
		<path id="Tracé_13409" class="st0" d="M485.9,104.8h6.6l24.1,61.6h-6.3l-7.5-19.1h-28l-7.4,19.1h-6.3L485.9,104.8z M476.7,142.2
			h24.2L489,110.7L476.7,142.2z"/>
		<path id="Tracé_13410" class="st0" d="M509.7,104.8h48.8v5h-21.5v56.6h-5.9v-56.6h-21.5V104.8z"/>
		<path id="Tracé_13411" class="st0" d="M564.7,104.8h5.9v61.6h-5.9V104.8z"/>
		<path id="Tracé_13412" class="st0" d="M609.3,103.5c19.3,0,29,15.2,29,32.1s-9.7,32.1-29,32.1c-19.4,0-29.1-15.2-29.1-32.1
			S589.9,103.5,609.3,103.5z M609.3,162.7c16.2,0,23.1-13.6,23.1-27.1s-6.9-27.1-23.1-27.1c-16.3,0-23.2,13.6-23.2,27.1
			S593,162.7,609.3,162.7z"/>
		<path id="Tracé_13413" class="st0" d="M647.3,104.8h6.6l35.9,52.1h0.2v-52.1h5.9v61.6h-6.6l-35.9-52.1h-0.2v52.1h-5.9V104.8z"/>
	</g>
	<g id="Groupe_4891" transform="translate(154.686 220.596)">
		<path id="Tracé_13414" class="st0" d="M178.9,0.5h33.9v81.9h48.7v28.2h-82.7V0.5z"/>
		<path id="Tracé_13415" class="st0" d="M283.8,0.5h33.9v110.1h-33.9V0.5z"/>
		<path id="Tracé_13416" class="st0" d="M343,0.5h34.7l32.1,58.9h0.3V0.5h32.1v110.1h-33l-33.8-60.2h-0.3v60.2H343V0.5z"/>
		<path id="Tracé_13417" class="st0" d="M567.6,68c0,30.7-16.2,45.2-50.1,45.2S467.2,98.7,467.2,68V0.5h33.9v60
			c0,11.1-0.2,25.3,16.5,25.3c16,0,16-14.2,16-25.3v-60h33.9L567.6,68z"/>
		<path id="Tracé_13418" class="st0" d="M621.6,52L585.3,0.5h39.8l16.7,29.9l16.4-29.9h37.6l-35.3,51.8l39.3,58.3h-40.9l-18.8-32.9
			l-19.4,32.9h-38.9L621.6,52z"/>
	</g>
	<g id="Groupe_4892" transform="translate(102.462 220.464)">
		<path id="Tracé_13419" class="st0" d="M39.5,157.6V78.8H0V197h118.2v-39.4L39.5,157.6z"/>
		<path id="Tracé_13420" class="st0" d="M196.9,0H0v59.1h39.4V39.5h118.2v118h-19.7v39.4h59V0z"/>
	</g>
	<path id="Tracé_13421" class="st1" d="M102.6,447.7h748.1"/>
	<g id="Groupe_4893" transform="translate(102.494 278.067)">
		<path id="Tracé_13422" class="st0" d="M29.9,231.9c0.2,3.8-1.5,7.4-4.5,9.7c-3.6,2.5-8,3.8-12.4,3.5c-4.4,0.2-8.9-0.7-12.9-2.5
			v-7.2c2.2,1,4.4,1.8,6.8,2.4c2.2,0.5,4.4,0.8,6.7,0.9c2.4,0.2,4.7-0.4,6.7-1.7c1.4-1.1,2.2-2.8,2.2-4.6c0-1.7-0.7-3.3-2-4.4
			c-2.5-1.8-5.2-3.3-8.2-4.3c-3.4-1.2-6.5-3.2-9-5.9c-1.8-2.3-2.7-5.1-2.6-8c-0.2-3.5,1.4-6.9,4.1-9.2c3.2-2.4,7.1-3.6,11.1-3.3
			c4.6,0,9.1,1,13.3,2.9l-2.4,6.2c-3.5-1.6-7.3-2.5-11.1-2.6c-2-0.1-4,0.4-5.6,1.6c-1.3,1-2,2.6-1.9,4.3c0,1.1,0.2,2.2,0.8,3.1
			c0.6,1,1.5,1.8,2.5,2.4c2,1.2,4.1,2.2,6.3,3c2.7,1,5.2,2.3,7.5,4c1.5,1.1,2.7,2.5,3.5,4.2C29.6,228.1,30,230,29.9,231.9z"/>
		<path id="Tracé_13423" class="st0" d="M59.4,244.5V198H67v46.6H59.4z"/>
		<path id="Tracé_13424" class="st0" d="M99.7,244.5V198h7.6V238H127v6.5H99.7z"/>
		<path id="Tracé_13425" class="st0" d="M182,198h7.9l-16.3,46.6h-8L149.4,198h7.8l9.7,29c0.5,1.4,1,3.2,1.6,5.3
			c0.6,2.2,0.9,3.8,1.1,4.9c0.3-1.6,0.7-3.5,1.3-5.6c0.6-2.1,1-3.7,1.4-4.7L182,198z"/>
		<path id="Tracé_13426" class="st0" d="M242.9,244.5h-26.3V198h26.3v6.4h-18.7v12.7h17.6v6.4h-17.6v14.6h18.7V244.5z"/>
		<path id="Tracé_13427" class="st0" d="M281,225.9v18.6h-7.6V198h13.2c4.7-0.4,9.4,0.8,13.4,3.4c3,2.5,4.6,6.3,4.3,10.2
			c0.1,5.7-3.6,10.7-9,12.4l13.2,20.6h-8.7l-11.2-18.6L281,225.9z M281,219.6h5.3c2.7,0.2,5.4-0.5,7.7-2c1.7-1.5,2.5-3.6,2.4-5.9
			c0.2-2.2-0.8-4.4-2.6-5.7c-2.4-1.3-5.1-1.9-7.8-1.7h-5L281,219.6z"/>
		<path id="Tracé_13428" class="st0" d="M393,244.5l-13.5-38.9h-0.3c0.4,5.8,0.5,11.2,0.5,16.2v22.7h-6.9V198h10.7l12.9,37.1h0.2
			L410,198h10.8v46.6h-7.3v-23c0-2.3,0.1-5.3,0.2-9c0.1-3.7,0.2-6,0.3-6.8h-0.3l-14,38.8L393,244.5z"/>
		<path id="Tracé_13429" class="st0" d="M479.8,244.5h-26.3V198h26.3v6.4h-18.7v12.7h17.6v6.4h-17.6v14.6h18.7V244.5z"/>
		<path id="Tracé_13430" class="st0" d="M530.5,244.5L517,205.6h-0.3c0.4,5.8,0.5,11.2,0.5,16.2v22.7h-6.9V198h10.7L534,235h0.2
			l13.3-37.1h10.8v46.6H551v-23c0-2.3,0.1-5.3,0.2-9c0.1-3.7,0.2-6,0.3-6.8h-0.3l-14,38.8L530.5,244.5z"/>
		<path id="Tracé_13431" class="st0" d="M591,198h13.8c4.8-0.4,9.6,0.6,13.9,2.8c2.9,2,4.5,5.3,4.3,8.9c0.1,2.4-0.7,4.8-2.1,6.8
			c-1.5,1.9-3.7,3.1-6.1,3.4v0.3c2.8,0.3,5.3,1.6,7.2,3.6c1.6,2.1,2.5,4.7,2.3,7.4c0.2,3.8-1.4,7.4-4.4,9.8
			c-3.5,2.6-7.8,3.8-12.2,3.5H591L591,198z M598.6,217.2h7.3c2.4,0.2,4.8-0.3,7-1.5c1.6-1.2,2.4-3.2,2.2-5.1
			c0.1-1.9-0.8-3.7-2.4-4.7c-2.3-1.1-4.9-1.6-7.5-1.5h-6.6L598.6,217.2z M598.6,223.4v14.8h8.1c2.5,0.2,5.1-0.5,7.2-1.8
			c1.7-1.4,2.6-3.6,2.4-5.8c0.1-2.1-0.8-4.1-2.5-5.4c-2.3-1.3-4.9-2-7.5-1.8L598.6,223.4z"/>
		<path id="Tracé_13432" class="st0" d="M680.8,244.5h-26.4V198h26.4v6.4h-18.7v12.7h17.5v6.4h-17.6v14.6h18.7L680.8,244.5z"/>
		<path id="Tracé_13433" class="st0" d="M718.9,225.9v18.6h-7.6V198h13.2c4.7-0.4,9.4,0.8,13.4,3.4c3,2.5,4.6,6.3,4.3,10.2
			c0.1,5.7-3.6,10.7-9,12.4l13.2,20.6h-8.7l-11.2-18.6L718.9,225.9z M718.9,219.6h5.3c2.7,0.2,5.4-0.5,7.7-2
			c1.7-1.5,2.5-3.6,2.4-5.9c0.2-2.2-0.8-4.4-2.6-5.7c-2.4-1.3-5.1-1.9-7.8-1.7h-5.1V219.6z"/>
	</g>
</g>
</svg>
