<svg id="Calque_1" data-name="Calque 1" xmlns="http://www.w3.org/2000/svg" xmlns:xlink="http://www.w3.org/1999/xlink" viewBox="0 0 212.75 146.21"><defs><style>.cls-1{fill:none;}.cls-2{fill:#009cde;}.cls-3{clip-path:url(#clip-path);}.cls-4{fill:#003863;}</style><clipPath id="clip-path"><rect class="cls-1" width="212.75" height="146.21"/></clipPath></defs><g id="Groupe_28101" data-name="Groupe 28101"><rect id="Rectangle_9408" data-name="Rectangle 9408" class="cls-2" x="0.76" y="80.43" width="210.61" height="1.22"/><path id="Tracé_29603" data-name="Tracé 29603" class="cls-2" d="M43.19,121.79h.15l4.13,11.9h-8.4Zm-3.51-7.94L27.47,146.21h7.17l2.6-7.17H49.3l2.44,7.17h7.33L47,113.85Z"/><path id="Tracé_29604" data-name="Tracé 29604" class="cls-2" d="M92,113.85v6h9.61v26.4h7.18v-26.4h9.61v-6Z"/><path id="Tracé_29605" data-name="Tracé 29605" class="cls-2" d="M142.85,113.85v21.67h-.15l-13.43-21.67h-7.18v32.36h6.72V124.54H129l13.44,21.67h7V113.85Z"/><path id="Tracé_29606" data-name="Tracé 29606" class="cls-2" d="M155.67,113.85v32.36h24.58v-6h-17.4v-7.94h15.56v-5.5H162.85v-7h16.94v-6Z"/><g id="Groupe_28090" data-name="Groupe 28090"><g class="cls-3"><g id="Groupe_28089" data-name="Groupe 28089"><path id="Tracé_29607" data-name="Tracé 29607" class="cls-2" d="M.76,113.85h14.5c8.09,0,11.15,5,11.15,10.38,0,5.19-3.06,10.38-11.15,10.38H7.78v11.6h-7Zm7,15.27h5.5c3.2,0,6.26-.77,6.26-4.89s-3.06-4.88-6.26-4.88H7.78Z"/><path id="Tracé_29608" data-name="Tracé 29608" class="cls-2" d="M61.81,113.85h17.4c5.8,0,9.46,4,9.46,8.86,0,3.81-1.52,6.71-5,8.09V131c3.51.91,4.42,4.27,4.73,7.47.15,2,0,6,1.37,7.64H82.57c-.77-2-.77-5.19-1.07-7.79-.46-3.35-1.83-4.88-5.34-4.88H69v12.67H61.81ZM69,128.5h7.79c3.2,0,4.88-1.37,4.88-4.57S80,119.5,76.77,119.5H69Z"/><path id="Tracé_29609" data-name="Tracé 29609" class="cls-2" d="M185,113.85h17.4c5.8,0,9.47,4,9.47,8.86,0,3.81-1.53,6.71-5.19,8.09V131c3.51.91,4.42,4.27,4.73,7.47.15,2,0,6,1.37,7.64h-7.17c-.76-2-.76-5.19-1.07-7.79-.46-3.35-1.83-4.88-5.34-4.88H192v12.67h-7.18v-32.2Zm7.18,14.65h7.78c3.21,0,4.89-1.37,4.89-4.57s-1.68-4.43-4.89-4.43h-7.78Z"/></g></g></g><path id="Tracé_29610" data-name="Tracé 29610" class="cls-4" d="M6.26,91.88,9,99.05H3.51ZM5.65,90.5,0,104.55H1.53l1.68-4.43h6.4l1.68,4.43h1.38l-5.5-14Z"/><path id="Tracé_29611" data-name="Tracé 29611" class="cls-4" d="M26,90.5H37.09v1.07H32.2v13H30.83v-13H25.94Z"/><path id="Tracé_29612" data-name="Tracé 29612" class="cls-4" d="M38.46,90.5h1.37v6.1h8.25V90.5h1.37v14H48.08V97.68H39.83v6.87H38.46Z"/><rect id="Rectangle_9410" data-name="Rectangle 9410" class="cls-4" x="80.13" y="90.5" width="1.38" height="14.04"/><path id="Tracé_29613" data-name="Tracé 29613" class="cls-4" d="M83.79,90.5H93.86v1.22l-9.31,11.76H94v1.07H83v-1.23l9.31-11.75H83.79Z"/><path id="Tracé_29614" data-name="Tracé 29614" class="cls-4" d="M95.69,90.5h9.77v1.07h-8.4v5.19h7.79v1.07H97.06v5.65h8.4v1.07H95.69Z"/><path id="Tracé_29615" data-name="Tracé 29615" class="cls-4" d="M124.84,90.5H136v1.07H131.1v13h-1.37v-13h-4.89Z"/><path id="Tracé_29616" data-name="Tracé 29616" class="cls-4" d="M154.6,90.5h1.53l5.49,14h-1.37l-1.68-4.42h-6.41l-1.68,4.42h-1.37Zm-2.13,8.55H158l-2.75-7.17Z"/><rect id="Rectangle_9411" data-name="Rectangle 9411" class="cls-4" x="163" y="90.5" width="1.38" height="14.04"/><path id="Tracé_29617" data-name="Tracé 29617" class="cls-4" d="M167.27,90.5h1.37l8.25,11.9V90.5h1.37v14h-1.53l-8.09-11.9h-.15v11.9h-1.22Z"/><rect id="Rectangle_9412" data-name="Rectangle 9412" class="cls-4" x="181.16" y="90.5" width="1.38" height="14.04"/><path id="Tracé_29618" data-name="Tracé 29618" class="cls-4" d="M185.43,90.5H187l8.24,11.9V90.5h1.37v14h-1.52l-8.24-11.9v11.9h-1.38Z"/><g id="Groupe_28092" data-name="Groupe 28092"><g class="cls-3"><g id="Groupe_28091" data-name="Groupe 28091"><path id="Tracé_29619" data-name="Tracé 29619" class="cls-4" d="M13.89,90.5h1.37v8.7c0,3.21,1.53,4.58,4.12,4.58s4.13-1.22,4.13-4.58V90.5h1.37v9c0,2.9-1.53,5.34-5.5,5.34-3.82,0-5.49-2.44-5.49-5.34Z"/><path id="Tracé_29620" data-name="Tracé 29620" class="cls-4" d="M58.15,90.2c4.42,0,6.56,3.51,6.56,7.32s-2.14,7.33-6.56,7.33-6.56-3.51-6.56-7.33,2.13-7.32,6.56-7.32m0,13.43c3.66,0,5.34-3,5.34-6.26,0-3.05-1.53-6.26-5.34-6.26-3.66,0-5.34,3.06-5.34,6.26s1.68,6.26,5.34,6.26"/><path id="Tracé_29621" data-name="Tracé 29621" class="cls-4" d="M66.85,90.5h6.41c2.29,0,4.27,1.07,4.27,3.67a3.23,3.23,0,0,1-2.75,3.51c1.84.3,2.29,1.52,2.45,3.2,0,.92,0,2.9.61,3.66H76.31a4.84,4.84,0,0,1-.3-2.13c-.16-2-.31-4.12-2.75-4.12h-5v6.26H66.85Zm1.37,6.72h5a2.81,2.81,0,0,0,3-2.57,1.09,1.09,0,0,0,0-.18c0-1.68-1.07-2.74-3-2.74h-5Z"/><path id="Tracé_29622" data-name="Tracé 29622" class="cls-4" d="M107.44,90.5h4.89c4.27.16,6.41,2.44,6.41,7s-2.14,6.87-6.41,7h-4.89Zm1.23,13h2.9c4,0,5.8-1.68,5.8-6s-1.68-6-5.8-6h-2.9Z"/><path id="Tracé_29623" data-name="Tracé 29623" class="cls-4" d="M137.36,90.5h6.41c2.29,0,4.27,1.07,4.27,3.67a3.23,3.23,0,0,1-2.75,3.51c1.84.3,2.3,1.52,2.45,3.2,0,.92,0,2.9.61,3.66h-1.53a4.84,4.84,0,0,1-.3-2.13c-.16-2-.3-4.12-2.75-4.12h-5v6.26h-1.37Zm1.22,6.72h5a2.81,2.81,0,0,0,3-2.57c0-.06,0-.12,0-.18,0-1.68-1.07-2.74-3-2.74h-5Z"/><path id="Tracé_29624" data-name="Tracé 29624" class="cls-4" d="M211.38,104.54h-.92l-.15-2.59a5.2,5.2,0,0,1-4.89,2.9c-4.42,0-6.56-3.51-6.56-7.33s2.14-7.32,6.56-7.32c2.9,0,5.35,1.52,5.8,4.73h-1.37c-.15-1.68-1.83-3.51-4.58-3.51-3.66,0-5.34,3-5.34,6.26,0,3,1.53,6.25,5.34,6.25,3.06,0,4.89-2.13,4.89-5.19h-4.73V97.37h5.95Z"/></g></g></g><path id="Tracé_29625" data-name="Tracé 29625" class="cls-4" d="M82,.15V1.53h5.5v14h1.37v-14h5.34V.15Z"/><path id="Tracé_29626" data-name="Tracé 29626" class="cls-4" d="M106.22.15V6.87h-9V.15H95.7V15.57h1.52V8.09h9v7.48h1.53V.15Z"/><path id="Tracé_29627" data-name="Tracé 29627" class="cls-4" d="M110.8.15V15.57h10.84V14.35h-9.31V8.24h8.55V7h-8.55V1.53h9.16V.15Z"/><path id="Tracé_29628" data-name="Tracé 29628" class="cls-4" d="M82,53.88h9.76V55.1H83.48v5.49h7.33V62H83.48v7.33H82Z"/><g id="Groupe_28094" data-name="Groupe 28094"><g class="cls-3"><g id="Groupe_28093" data-name="Groupe 28093"><path id="Tracé_29629" data-name="Tracé 29629" class="cls-4" d="M100.12,68.37c4.12,0,5.8-3.35,5.8-6.71s-1.68-6.72-5.8-6.72-5.8,3.36-5.8,6.72c0,3.2,1.68,6.71,5.8,6.71m0-14.8c4.88,0,7.17,3.82,7.17,8.09s-2.44,8.09-7.17,8.09c-4.89,0-7.33-3.81-7.33-8.09s2.44-8.09,7.33-8.09"/><path id="Tracé_29630" data-name="Tracé 29630" class="cls-4" d="M109.43,53.88H111v9.46c0,3.51,1.67,4.88,4.57,4.88s4.58-1.37,4.58-4.88V53.88h1.53v9.91c0,3.21-1.68,5.81-6,5.81s-6-2.75-6-5.81V53.88Z"/></g></g></g><path id="Tracé_29631" data-name="Tracé 29631" class="cls-4" d="M124.38,53.88h1.69l8.85,13h.15v-13h1.38V69.29h-1.68l-8.85-13.12h-.16V69.29h-1.37Z"/><g id="Groupe_28096" data-name="Groupe 28096"><g class="cls-3"><g id="Groupe_28095" data-name="Groupe 28095"><path id="Tracé_29632" data-name="Tracé 29632" class="cls-4" d="M141,68.07h3.21c4.42,0,6.4-1.83,6.4-6.41s-2-6.41-6.4-6.41H141Zm-1.53-14.19h5.34c4.73.15,7,2.59,7,7.63s-2.44,7.63-7,7.63h-5.34Z"/></g></g></g><path id="Tracé_29633" data-name="Tracé 29633" class="cls-4" d="M156.59,63.18h6.1l-3.05-7.93Zm2.29-9.31h1.68l6.1,15.42h-1.52l-1.84-4.73h-7.17l-1.83,4.73h-1.53Z"/><path id="Tracé_29634" data-name="Tracé 29634" class="cls-4" d="M164.83,53.88H177V55.1h-5.35V69.29h-1.52V55.1h-5.34Z"/><rect id="Rectangle_9416" data-name="Rectangle 9416" class="cls-4" x="178.57" y="53.87" width="1.53" height="15.41"/><g id="Groupe_28098" data-name="Groupe 28098"><g class="cls-3"><g id="Groupe_28097" data-name="Groupe 28097"><path id="Tracé_29635" data-name="Tracé 29635" class="cls-4" d="M189.71,68.37c4.12,0,5.8-3.35,5.8-6.71s-1.68-6.72-5.8-6.72-5.8,3.36-5.8,6.72c0,3.2,1.68,6.71,5.8,6.71m0-14.8c4.88,0,7.32,3.82,7.32,8.09s-2.44,8.09-7.32,8.09-7.33-3.81-7.33-8.09,2.44-8.09,7.33-8.09"/></g></g></g><path id="Tracé_29636" data-name="Tracé 29636" class="cls-4" d="M199.17,53.88h1.68l9,13v-13h1.52V69.29H209.7l-9-13.12V69.29h-1.53Z"/><path id="Tracé_29637" data-name="Tracé 29637" class="cls-4" d="M82,20.14H90.5v20.6h12.21v7H82Z"/><rect id="Rectangle_9418" data-name="Rectangle 9418" class="cls-4" x="108.21" y="20.15" width="8.55" height="27.63"/><path id="Tracé_29638" data-name="Tracé 29638" class="cls-4" d="M123.16,20.14h8.56L139.8,35H140V20.15h7.93V47.77h-8.24l-8.39-15.11h-.16V47.77h-7.93Z"/><g id="Groupe_28100" data-name="Groupe 28100"><g class="cls-3"><g id="Groupe_28099" data-name="Groupe 28099"><path id="Tracé_29639" data-name="Tracé 29639" class="cls-4" d="M179.33,37.09c0,7.63-4.12,11.29-12.52,11.29S154.3,44.72,154.3,37.09V20.15h8.55v15c0,2.75,0,6.26,4.12,6.26,4,0,4-3.51,4-6.26v-15h8.55V37.09Z"/></g></g></g><path id="Tracé_29640" data-name="Tracé 29640" class="cls-4" d="M201.92,20.15l-4.12,7.47-4.13-7.47h-9.92l9,13-9.92,14.65h9.77l4.88-8.24,4.58,8.24h10.23l-9.77-14.65,8.85-13Z"/><path id="Tracé_29641" data-name="Tracé 29641" class="cls-2" d="M.76,27.62V69.29H42.28V55.4H14.65V27.62Z"/><path id="Tracé_29642" data-name="Tracé 29642" class="cls-4" d="M.76,0V20.76H14.65V13.89H56.16V55.4H49.3V69.29H70.05V0Z"/></g></svg>