<svg width="473" height="101" viewBox="0 0 473 101" fill="none" xmlns="http://www.w3.org/2000/svg">
<g clip-path="url(#clip0_3:2)">
<path d="M466.451 72.192C462.831 72.192 459.901 75.122 459.901 78.742C459.901 82.362 462.831 85.292 466.451 85.292C470.071 85.292 473.001 82.362 473.001 78.742C473.001 75.122 470.071 72.192 466.451 72.192ZM466.451 84.302C463.381 84.302 460.891 81.812 460.891 78.742C460.891 75.672 463.381 73.182 466.451 73.182C469.521 73.182 472.011 75.672 472.011 78.742C472.021 81.812 469.531 84.302 466.451 84.302Z" fill="#191F31"/>
<path d="M465.777 79.124V81.4141H464.217V75.374H466.597C467.207 75.324 467.817 75.464 468.347 75.774C468.737 76.074 468.947 76.554 468.907 77.044C468.917 77.394 468.817 77.744 468.617 78.024C468.397 78.294 468.087 78.494 467.747 78.584C467.967 78.634 468.167 78.7541 468.327 78.9141C468.537 79.1441 468.707 79.404 468.837 79.694L469.687 81.404H468.017L467.277 79.904C467.177 79.664 467.027 79.454 466.827 79.294C466.647 79.174 466.437 79.114 466.217 79.124H465.777ZM466.437 78.044C466.687 78.064 466.927 78.0041 467.137 77.8541C467.297 77.6941 467.377 77.474 467.357 77.254C467.377 77.034 467.297 76.8141 467.137 76.6641C466.927 76.5341 466.687 76.464 466.437 76.494H465.777V78.044H466.437Z" fill="#191F31"/>
<path d="M126.187 30.754H146.897C158.307 30.754 163.617 36.824 163.617 44.394C163.917 49.624 160.777 54.444 155.867 56.294C161.597 58.044 165.477 63.374 165.387 69.374C165.387 79.664 157.627 85.364 147.397 85.364H126.177V30.754H126.187ZM145.527 53.464C153.347 53.464 156.397 50.354 156.397 45.024C156.397 40.194 152.977 36.744 146.637 36.744H133.207V53.464H145.527ZM133.207 79.374H146.537C153.317 79.374 158.027 76.154 158.027 69.354C158.027 63.414 154.257 59.444 145.167 59.444H133.207V79.374Z" fill="#191F31"/>
<path d="M179.247 66.664C179.297 74.764 183.347 80.524 190.067 80.524C196.327 80.524 198.347 77.274 199.617 74.354H206.497C204.937 79.454 200.697 86.274 189.857 86.274C177.417 86.274 172.337 76.094 172.337 65.834C172.337 53.994 178.277 44.544 190.297 44.544C203.067 44.544 207.247 54.854 207.247 63.354C207.247 64.564 207.247 65.584 207.137 66.654H179.247V66.664ZM200.317 61.814C200.237 55.254 196.967 49.994 190.207 49.994C183.247 49.994 180.187 54.874 179.487 61.814H200.317Z" fill="#191F31"/>
<path d="M307.617 66.664C307.667 74.764 311.717 80.524 318.437 80.524C324.697 80.524 326.717 77.274 327.987 74.354H334.877C333.317 79.454 329.077 86.274 318.237 86.274C305.797 86.274 300.717 76.094 300.717 65.834C300.717 53.994 306.657 44.544 318.677 44.544C331.447 44.544 335.627 54.854 335.627 63.354C335.627 64.564 335.627 65.584 335.517 66.654H307.617V66.664ZM328.677 61.814C328.597 55.254 325.327 49.994 318.567 49.994C311.607 49.994 308.547 54.874 307.847 61.814H328.677Z" fill="#191F31"/>
<path d="M249.967 65.374C249.967 76.824 243.457 86.274 231.387 86.274C220.077 86.274 213.237 77.454 213.237 65.504C213.237 53.764 219.937 44.634 231.827 44.634C242.787 44.634 249.967 52.904 249.967 65.374ZM220.257 65.454C220.257 74.174 224.577 80.534 231.667 80.534C238.877 80.534 242.947 74.504 242.947 65.484C242.947 56.534 238.907 50.374 231.507 50.374C224.107 50.374 220.257 56.384 220.257 65.454Z" fill="#191F31"/>
<path d="M265.637 80.334V100.814H258.867V55.264C258.867 52.024 258.867 48.674 258.787 45.594H265.397C265.547 46.914 265.637 49.304 265.637 51.824C268.147 47.114 273.177 44.304 278.507 44.654C287.617 44.654 294.237 52.334 294.237 64.394C294.237 78.554 286.637 86.164 277.107 86.164C270.747 86.174 267.417 83.484 265.637 80.334ZM287.237 64.664C287.237 56.264 283.437 50.514 276.707 50.514C268.547 50.514 265.327 55.704 265.327 65.354C265.327 74.724 267.967 80.404 276.197 80.404C283.397 80.404 287.237 74.434 287.237 64.664Z" fill="#191F31"/>
<path d="M344.177 55.644C344.177 52.194 344.177 48.714 344.097 45.624H350.727C350.917 46.794 351.017 50.974 350.997 52.154C352.577 48.734 355.787 44.684 363.427 44.684C370.827 44.684 376.627 49.244 376.627 59.804V85.364H369.807V60.694C369.807 54.694 367.467 50.644 361.437 50.644C353.987 50.644 350.987 56.344 350.987 64.334V85.364H344.167L344.177 55.644Z" fill="#191F31"/>
<path d="M424.577 30.764V36.984H441.987V85.364H449.177V36.984H466.557V30.764H424.577Z" fill="#191F31"/>
<path d="M416.287 30.764H409.107V85.364H416.287V30.764Z" fill="#191F31"/>
<path d="M466.451 72.192C462.831 72.192 459.901 75.122 459.901 78.742C459.901 82.362 462.831 85.292 466.451 85.292C470.071 85.292 473.001 82.362 473.001 78.742C473.001 75.122 470.071 72.192 466.451 72.192ZM466.451 84.302C463.381 84.302 460.891 81.812 460.891 78.742C460.891 75.672 463.381 73.182 466.451 73.182C469.521 73.182 472.011 75.672 472.011 78.742C472.021 81.812 469.531 84.302 466.451 84.302Z" fill="#191F31"/>
<path d="M465.777 79.124V81.4141H464.217V75.374H466.597C467.207 75.324 467.817 75.464 468.347 75.774C468.737 76.074 468.947 76.554 468.907 77.044C468.917 77.394 468.817 77.744 468.617 78.024C468.397 78.294 468.087 78.494 467.747 78.584C467.967 78.634 468.167 78.7541 468.327 78.9141C468.537 79.1441 468.707 79.404 468.837 79.694L469.687 81.404H468.017L467.277 79.904C467.177 79.664 467.027 79.454 466.827 79.294C466.647 79.174 466.437 79.114 466.217 79.124H465.777ZM466.437 78.044C466.687 78.064 466.927 78.0041 467.137 77.8541C467.297 77.6941 467.377 77.474 467.357 77.254C467.377 77.034 467.297 76.8141 467.137 76.6641C466.927 76.5341 466.687 76.464 466.437 76.494H465.777V78.044H466.437Z" fill="#191F31"/>
<path d="M126.187 30.754H146.897C158.307 30.754 163.617 36.824 163.617 44.394C163.917 49.624 160.777 54.444 155.867 56.294C161.597 58.044 165.477 63.374 165.387 69.374C165.387 79.664 157.627 85.364 147.397 85.364H126.177V30.754H126.187ZM145.527 53.464C153.347 53.464 156.397 50.354 156.397 45.024C156.397 40.194 152.977 36.744 146.637 36.744H133.207V53.464H145.527ZM133.207 79.374H146.537C153.317 79.374 158.027 76.154 158.027 69.354C158.027 63.414 154.257 59.444 145.167 59.444H133.207V79.374Z" fill="#191F31"/>
<path d="M179.247 66.664C179.297 74.764 183.347 80.524 190.067 80.524C196.327 80.524 198.347 77.274 199.617 74.354H206.497C204.937 79.454 200.697 86.274 189.857 86.274C177.417 86.274 172.337 76.094 172.337 65.834C172.337 53.994 178.277 44.544 190.297 44.544C203.067 44.544 207.247 54.854 207.247 63.354C207.247 64.564 207.247 65.584 207.137 66.654H179.247V66.664ZM200.317 61.814C200.237 55.254 196.967 49.994 190.207 49.994C183.247 49.994 180.187 54.874 179.487 61.814H200.317Z" fill="#191F31"/>
<path d="M307.617 66.664C307.667 74.764 311.717 80.524 318.437 80.524C324.697 80.524 326.717 77.274 327.987 74.354H334.877C333.317 79.454 329.077 86.274 318.237 86.274C305.797 86.274 300.717 76.094 300.717 65.834C300.717 53.994 306.657 44.544 318.677 44.544C331.447 44.544 335.627 54.854 335.627 63.354C335.627 64.564 335.627 65.584 335.517 66.654H307.617V66.664ZM328.677 61.814C328.597 55.254 325.327 49.994 318.567 49.994C311.607 49.994 308.547 54.874 307.847 61.814H328.677Z" fill="#191F31"/>
<path d="M249.967 65.374C249.967 76.824 243.457 86.274 231.387 86.274C220.077 86.274 213.237 77.454 213.237 65.504C213.237 53.764 219.937 44.634 231.827 44.634C242.787 44.634 249.967 52.904 249.967 65.374ZM220.257 65.454C220.257 74.174 224.577 80.534 231.667 80.534C238.877 80.534 242.947 74.504 242.947 65.484C242.947 56.534 238.907 50.374 231.507 50.374C224.107 50.374 220.257 56.384 220.257 65.454Z" fill="#191F31"/>
<path d="M265.637 80.334V100.814H258.867V55.264C258.867 52.024 258.867 48.674 258.787 45.594H265.397C265.547 46.914 265.637 49.304 265.637 51.824C268.147 47.114 273.177 44.304 278.507 44.654C287.617 44.654 294.237 52.334 294.237 64.394C294.237 78.554 286.637 86.164 277.107 86.164C270.747 86.174 267.417 83.484 265.637 80.334ZM287.237 64.664C287.237 56.264 283.437 50.514 276.707 50.514C268.547 50.514 265.327 55.704 265.327 65.354C265.327 74.724 267.967 80.404 276.197 80.404C283.397 80.404 287.237 74.434 287.237 64.664Z" fill="#191F31"/>
<path d="M344.177 55.644C344.177 52.194 344.177 48.714 344.097 45.624H350.727C350.917 46.794 351.017 50.974 350.997 52.154C352.577 48.734 355.787 44.684 363.427 44.684C370.827 44.684 376.627 49.244 376.627 59.804V85.364H369.807V60.694C369.807 54.694 367.467 50.644 361.437 50.644C353.987 50.644 350.987 56.344 350.987 64.334V85.364H344.167L344.177 55.644Z" fill="#191F31"/>
<path d="M424.577 30.764V36.984H441.987V85.364H449.177V36.984H466.557V30.764H424.577Z" fill="#191F31"/>
<path d="M416.287 30.764H409.107V85.364H416.287V30.764Z" fill="#191F31"/>
<path d="M54.57 12.06L55.06 21.23L71.68 35.56L72.87 42.53L77.18 49.13H82.43L77.05 40.89L75.75 33.27L59.35 19.13L58.32 0L54.69 4.87C52.05 8.32 49.24 11.63 46.27 14.79V21.03C49.19 18.19 51.96 15.19 54.57 12.06Z" fill="#199E58"/>
<path d="M32.24 25.91C27.34 28.37 22.97 31.78 19.38 35.93C15.67 39.94 12.44 44.37 9.75 49.13H9.74C8.4 51.5 7.2 53.96 6.15 56.47C5.15 58.89 4.3 61.37 3.6 63.89C1.48 64.45 0 66.37 0 68.56C0 71.23 2.17 73.4 4.84 73.4C7.51 73.4 9.68 71.23 9.68 68.56C9.68 67.1 9.02 65.72 7.89 64.8C8.53 62.54 9.3 60.32 10.2 58.15C11.5 55.02 13.06 52 14.84 49.12H14.85C21.44 38.46 29.89 31.59 33.89 29.97C38.51 27.75 42.7 24.72 46.27 21.02V14.78C41.99 19.32 36.76 24.08 32.24 25.91Z" fill="#517BBD"/>
<path d="M82.42 49.13H77.17L85.23 61.48V67.79L81.16 71.13L73.55 63.71L72.58 63.77C72.57 63.77 71.17 63.86 69.1 63.86C60.52 63.86 54.08 62.46 51.86 60.1C48.81 57.29 47.16 53.27 47.35 49.13V61.58C47.76 62.08 48.2 62.59 48.68 63.09C52.67 67.33 62 68.23 69.12 68.23C70.28 68.23 71.23 68.21 71.9 68.18L80.94 77L89.64 69.85V60.16L82.42 49.13Z" fill="#F3B312"/>
<path d="M45.78 65.15C44.97 63.07 44.36 60.91 43.95 58.72C44.36 60.92 44.97 63.07 45.78 65.15Z" fill="#DB4537"/>
<path d="M46.26 37.47L44.78 39.11C44.24 39.71 43.73 40.35 43.26 41C43.73 40.34 44.24 39.71 44.78 39.11L46.26 37.47Z" fill="#DB4537"/>
<path d="M69.37 95.99C69.37 93.32 67.2 91.15 64.53 91.15C64.01 91.15 63.5 91.23 63.01 91.4C63.01 91.4 63.01 91.4 63 91.39C61.52 91.88 60.37 93.05 59.9 94.53C59.75 95 59.68 95.49 59.68 95.98C59.68 98.65 61.85 100.82 64.52 100.82C66.31 100.82 67.95 99.83 68.79 98.25H68.8C68.89 98.08 68.97 97.9 69.04 97.72C69.26 97.18 69.37 96.59 69.37 95.99ZM63.37 98.26C62.52 97.38 61.53 96.32 60.45 95.12C61.53 96.31 62.52 97.38 63.37 98.26Z" fill="#DB4537"/>
<path d="M46.26 66.39C46.09 65.98 45.93 65.57 45.78 65.15C44.97 63.07 44.36 60.91 43.95 58.72C43.67 57.23 43.53 55.72 43.52 54.21C44.06 56.34 44.99 58.35 46.27 60.14V49.13V60.14C46.61 60.62 46.97 61.1 47.36 61.58V49.13C47.47 46.42 47.88 43.73 48.56 41.11L50.6 32.67L46.28 37.47L44.8 39.11C44.26 39.71 43.75 40.34 43.28 41C41.51 43.42 40.28 46.19 39.66 49.12C38.06 56.69 40.28 65.81 46.27 76.12C46.88 77.18 47.52 78.24 48.21 79.32C51.71 84.69 55.62 89.77 59.92 94.53C60.39 93.05 61.54 91.88 63.02 91.39C57.61 85.34 50.21 75.99 46.26 66.39Z" fill="#DB4537"/>
</g>
<defs>
<clipPath id="clip0_3:2">
<rect width="473" height="101" fill="white"/>
</clipPath>
</defs>
</svg>
