<?xml version="1.0" encoding="utf-8"?>
<!-- Generator: Adobe Illustrator 25.4.1, SVG Export Plug-In . SVG Version: 6.00 Build 0)  -->
<svg version="1.1" id="Calque_1" xmlns="http://www.w3.org/2000/svg" xmlns:xlink="http://www.w3.org/1999/xlink" x="0px" y="0px"
	 viewBox="0 0 230.19 65.33" style="enable-background:new 0 0 230.19 65.33;" xml:space="preserve">
<style type="text/css">
	.st0{fill:#191F31;}
	.st1{fill-rule:evenodd;clip-rule:evenodd;fill:#191F31;}
	.st2{fill:#C8CBD3;}
	.st3{fill:#838BA6;}
	.st4{fill:#FFFFFF;}
	.st5{fill:#7C8DC6;}
	.st6{fill:#5F6CB1;}
	.st7{fill:#4C57A3;}
</style>
<g id="Groupe_35306" transform="translate(869.24 -100.477)">
	<path id="Tracé_37121" class="st0" d="M-812.11,116.98l-0.01-0.01L-812.11,116.98z"/>
	<path id="Tracé_37122" class="st0" d="M-791.02,117.36v12.61h7.13v3.23h-10.79v-15.83H-791.02z"/>
	<path id="Tracé_37123" class="st0" d="M-769.41,117.36v11.41c0,3.82-2.66,4.75-6.79,4.75c-4.16,0-6.79-0.93-6.79-4.75v-11.41h3.7
		v9.57c0,2.11,0.04,3.18,3.09,3.18s3.11-1.09,3.11-3.18v-9.57H-769.41z"/>
	<path id="Tracé_37124" class="st0" d="M-760.44,121.95c1.18-1.66,2.3-3.34,3.04-4.59h4.57c-1.45,2.23-3.39,5.02-5.32,7.77
		c2.16,3.07,4.32,6.16,5.59,8.07h-4.61c-0.89-1.34-2.02-3.02-3.29-4.82c-1.32,1.77-2.54,3.41-3.66,4.82h-4.57
		c1.27-1.59,3.64-4.79,5.93-8c-2.23-3.05-4.5-6.09-5.91-7.84h4.79C-762.94,118.59-761.76,120.18-760.44,121.95"/>
	<path id="Tracé_37125" class="st0" d="M-739.79,117.36v3.2h-8.16v2.84h5.84v3.13h-5.84v3.45h8.16v3.2h-11.82v-15.83H-739.79z"/>
	<path id="Tracé_37126" class="st0" d="M-725.13,117.36h4.68v15.83H-724v-10.7c-1.2,2.66-2.86,6.7-3.91,9.38h-2.91
		c-1-2.63-2.57-6.84-3.7-9.38v10.7h-3.54v-15.83h4.9c1.32,2.64,2.89,6.29,4.07,9.27C-727.95,123.63-726.39,119.98-725.13,117.36"/>
	<path id="Tracé_37127" class="st0" d="M-709.32,130.09c0.77,0,1.16-0.52,1.16-1.75c0-1.29-0.43-1.88-1.25-1.88h-4.34v3.63H-709.32
		z M-713.75,123.48h4.32c0.7,0,1.02-0.41,1.02-1.5s-0.32-1.5-1.02-1.5h-4.32V123.48z M-704.19,128.93c0,3.18-1.61,4.27-4.18,4.27
		h-9.04v-15.83h8.97c3.16,0,3.95,1.32,3.95,3.79c0,2.2-0.55,3.48-3.39,3.7C-704.85,125-704.19,126.45-704.19,128.93"/>
	<path id="Tracé_37128" class="st0" d="M-690.92,125.16c0-4.32-0.59-4.82-3.79-4.82s-3.79,0.5-3.79,4.82
		c0,4.38,0.59,5.02,3.79,5.02S-690.92,129.54-690.92,125.16 M-687.01,125.11c0,6.52-2.64,8.41-7.7,8.41c-5.09,0-7.7-1.89-7.7-8.41
		c0-6.43,2.61-8.13,7.7-8.13C-689.64,116.98-687.01,118.68-687.01,125.11"/>
	<path id="Tracé_37129" class="st0" d="M-671.36,117.36v11.41c0,3.82-2.66,4.75-6.79,4.75c-4.16,0-6.79-0.93-6.79-4.75v-11.41h3.7
		v9.57c0,2.11,0.04,3.18,3.09,3.18s3.11-1.09,3.11-3.18v-9.57H-671.36z"/>
	<path id="Tracé_37130" class="st0" d="M-664.84,124.55h4.07c0.8,0,1.39-0.57,1.39-1.98c0-1.43-0.52-2.09-1.34-2.09h-4.11V124.55z
		 M-654.07,133.21h-4.57c-2.45-4.32-3.59-5.66-4.57-5.66h-1.64v5.66h-3.66v-15.84h8.84c3.25,0,4.34,2.02,4.34,4.63
		c0,2.27-0.95,4.25-3.95,4.41C-658.2,126.79-657.02,128.22-654.07,133.21"/>
	<path id="Tracé_37131" class="st0" d="M-643.76,126.7h-3.13v-3.13h6.88v9.2c-1.97,0.5-3.99,0.75-6.02,0.75
		c-5.09,0-7.5-1.93-7.5-8.38c0-6.48,2.86-8.16,8.13-8.16c1.67,0.01,3.33,0.2,4.95,0.57l-0.66,3.23c-1.29-0.3-2.61-0.45-3.93-0.46
		c-3.41,0-4.59,0.48-4.59,4.86c0,4.36,1.18,4.95,4.36,4.95c0.5-0.01,1-0.05,1.5-0.11L-643.76,126.7z"/>
	<path id="Tracé_37132" class="st0" d="M-786.89,141.93c-0.98-0.29-2-0.44-3.03-0.43c-1.99,0-3.06,0.44-3.06,1.94
		c0,1.04,0.56,1.58,2.81,1.77c2.79,0.26,4.03,1.27,4.03,3.49c0,2.65-1.8,3.6-4.95,3.6c-1.2,0-2.39-0.17-3.54-0.51l0.42-1.5
		c1,0.28,2.04,0.42,3.08,0.43c1.99,0,3.15-0.43,3.15-1.94c0-1.04-0.54-1.79-2.86-1.99c-2.74-0.22-4-1.02-4-3.2
		c0-2.67,1.8-3.67,4.91-3.67c1.16,0,2.32,0.17,3.43,0.49L-786.89,141.93z"/>
	<path id="Tracé_37133" class="st0" d="M-780.5,152.07v-10.37h-4.06v-1.48h9.86v1.48h-4.05v10.37L-780.5,152.07z"/>
	<path id="Tracé_37134" class="st0" d="M-763.9,146.1c0-3.98-0.85-4.64-3.67-4.64c-2.81,0-3.64,0.66-3.64,4.64
		c0,3.84,0.83,4.66,3.64,4.66C-764.75,150.76-763.9,149.94-763.9,146.1 M-762.06,146.06c0,4.88-1.77,6.24-5.51,6.24
		c-3.72,0-5.51-1.36-5.51-6.24c0-4.83,1.78-6.14,5.51-6.14S-762.06,141.23-762.06,146.06"/>
	<path id="Tracé_37135" class="st0" d="M-754.04,139.92c1.13,0.01,2.26,0.16,3.35,0.44l-0.43,1.55c-0.88-0.27-1.8-0.41-2.72-0.41
		c-2.79,0-3.83,0.54-3.83,4.54c0,3.98,1.04,4.66,3.83,4.66c0.92,0,1.84-0.13,2.72-0.39l0.43,1.55c-1.09,0.29-2.22,0.44-3.35,0.44
		c-3.72,0-5.49-1.45-5.49-6.27C-759.53,141.18-757.76,139.92-754.04,139.92"/>
	<path id="Tracé_37136" class="st0" d="M-740.96,152.07c-2.62-3.93-4.73-5.99-5.49-6.26c1.95-1.63,3.67-3.51,5.12-5.6h2.18
		c-1.47,1.97-3.13,3.79-4.95,5.44c0.63,0.39,2.74,2.48,5.34,6.41H-740.96z M-746.47,152.07h-1.72v-11.85h1.72V152.07z"/>
	<path id="Tracé_37137" class="st0" d="M-723.15,140.21v1.48h-6.63v3.37h4.71v1.46h-4.71v4.07h6.63v1.48h-8.35v-11.85H-723.15z"/>
	<path id="Tracé_37138" class="st0" d="M-716.37,144.58c1.1-1.48,2.18-2.98,3.15-4.37h2.1c-1.29,1.85-2.72,3.83-4.18,5.8
		c1.55,2.09,3.1,4.24,4.37,6.05h-2.14c-1.04-1.46-2.14-3.01-3.3-4.59c-1.21,1.6-2.4,3.15-3.54,4.59h-2.09
		c1.36-1.72,2.99-3.88,4.58-6c-1.53-2.04-3.11-4.12-4.49-5.85h2.19C-718.71,141.53-717.57,143.01-716.37,144.58"/>
	<path id="Tracé_37139" class="st0" d="M-703.81,139.92c1.13,0.01,2.26,0.16,3.35,0.44l-0.42,1.55c-0.88-0.27-1.8-0.41-2.72-0.41
		c-2.79,0-3.83,0.54-3.83,4.54c0,3.98,1.04,4.66,3.83,4.66c0.92,0,1.84-0.13,2.72-0.39l0.42,1.55c-1.09,0.29-2.22,0.44-3.35,0.44
		c-3.72,0-5.49-1.45-5.49-6.27C-709.31,141.18-707.54,139.92-703.81,139.92"/>
	<path id="Tracé_37140" class="st0" d="M-696.25,152.07h-1.72v-11.85h1.72v4.74h5.68v-4.74h1.72v11.85h-1.72v-5.53h-5.68V152.07z"
		/>
	<path id="Tracé_37141" class="st0" d="M-681.2,141.64c-0.73,1.82-1.45,3.72-2.13,5.65h4.49c-0.68-1.87-1.33-3.85-1.89-5.65H-681.2
		z M-678.32,148.77h-5.49c-0.37,1.12-0.73,2.23-1.07,3.3h-1.79c1.24-3.74,2.84-8.1,4.39-11.85h2.8c1.28,3.91,2.99,8.64,4.37,11.85
		h-1.94C-677.44,151.08-677.9,149.96-678.32,148.77"/>
	<path id="Tracé_37142" class="st0" d="M-663.48,152.07h-2.11c-1.73-3.21-3.69-6.53-5.75-9.78v9.78h-1.7v-11.85h2.3
		c1.92,2.92,3.81,6.16,5.53,9.29v-9.29h1.73L-663.48,152.07z"/>
	<path id="Tracé_37143" class="st0" d="M-652.66,146.86h-2.84v-1.45h4.59v6.44c-1.28,0.31-2.59,0.45-3.91,0.44
		c-3.72,0-5.49-1.45-5.49-6.27c0-4.85,1.89-6.11,5.65-6.11c1.16,0.01,2.32,0.16,3.45,0.44l-0.42,1.53
		c-0.95-0.27-1.94-0.41-2.93-0.41c-2.84,0-3.88,0.56-3.88,4.56c0,3.98,1.04,4.7,3.83,4.7c0.66-0.01,1.31-0.08,1.96-0.22
		L-652.66,146.86z"/>
	<path id="Tracé_37144" class="st0" d="M-647.4,140.21v11.85h8.35v-1.48h-6.63v-4.07h4.71v-1.46h-4.71v-3.37h6.63v-1.48
		L-647.4,140.21z"/>
	<path id="Tracé_37145" class="st0" d="M-862.73,115.75c-2.32-0.84-3.57-0.65-4.16-0.43l-0.06,0.04c-1.12,0.65-2.12,2.24-2.28,5.76
		v18.53c0,0.54,0.44,0.97,0.97,0.97c0.17,0,0.34-0.05,0.49-0.13l20.71-11.97C-853.21,121.46-859.27,117-862.73,115.75"/>
	<path id="Tracé_37146" class="st0" d="M-813.27,115.78l-24.85-14.55l-0.52-0.31l-0.03-0.01l0,0c-1-0.57-2.23-0.57-3.23,0
		l-0.73,0.42l-22.32,12.83l-1.48,0.89c3.73-1.42,10.63,3.74,10.63,3.74l12.34,8.02l-0.02,0.01l4.16,2.69
		c1.15,0.98,2.74,1.25,4.15,0.71l21.91-12.76c0.46-0.27,0.62-0.87,0.35-1.33C-813,115.99-813.12,115.87-813.27,115.78"/>
	<path id="Tracé_37147" class="st0" d="M-824.57,148.25l-13.79-8.99l-3.84-2.49c-1.15-0.98-2.74-1.25-4.15-0.71l-21.9,12.76
		c-0.46,0.27-0.62,0.87-0.35,1.33c0.08,0.14,0.2,0.26,0.35,0.35l24.85,14.55l0.53,0.31l0.03,0.01l0,0c1,0.57,2.23,0.57,3.23,0
		l0.73-0.42l0,0l22.32-12.83l1.17-0.7l0.27-0.16C-818.63,152.4-824.57,148.25-824.57,148.25"/>
	<path id="Tracé_37148" class="st0" d="M-813.74,125.78l-20.72,11.98c3.14,3.55,6.62,6.8,10.38,9.68c5.45,4.09,8.39,3.85,9.34,3.59
		l0.17-0.11c1.13-0.65,2.12-2.24,2.28-5.76v-18.53c0-0.54-0.44-0.97-0.97-0.97C-813.42,125.65-813.59,125.7-813.74,125.78"/>
</g>
</svg>
