<?xml version="1.0" encoding="utf-8"?>
<!-- Generator: Adobe Illustrator 25.4.1, SVG Export Plug-In . SVG Version: 6.00 Build 0)  -->
<svg version="1.1" id="Calque_1" xmlns="http://www.w3.org/2000/svg" xmlns:xlink="http://www.w3.org/1999/xlink" x="0px" y="0px"
	 viewBox="0 0 106.5 83.34" style="enable-background:new 0 0 106.5 83.34;" xml:space="preserve">
<style type="text/css">
	.st0{fill:#191F31;}
	.st1{fill-rule:evenodd;clip-rule:evenodd;fill:#191F31;}
	.st2{fill:#C8CBD3;}
	.st3{fill:#838BA6;}
	.st4{fill:#FFFFFF;}
	.st5{fill:#7C8DC6;}
	.st6{fill:#5F6CB1;}
	.st7{fill:#4C57A3;}
</style>
<g id="Groupe_35298" transform="translate(2502.464 -576.816)">
	<path id="Tracé_36918" class="st0" d="M-2395.97,659.92c-0.36,0.44-0.86,0.11-1.28,0.21c-0.48-0.29-1.03-0.43-1.58-0.41
		c-4.88-0.7-9.76-1.38-14.64-2.06l-18.96-2.66c-6.25-0.88-12.5-1.75-18.75-2.63c-6.81-0.96-13.62-1.92-20.43-2.88
		c-6.88-0.97-13.76-1.93-20.64-2.89c-3.4-0.47-6.81-0.92-10.22-1.37v-0.21c0.46-0.07,0.68-0.47,0.99-0.74
		c6.81-6.12,13.62-12.24,20.42-18.37c0.32-0.29,0.57-0.7,1.12-0.77v0.81c0,4.12,0.02,8.23-0.02,12.35
		c-0.01,0.81,0.22,1.03,1.01,0.98c1.31-0.07,2.63-0.06,3.94,0c0.73,0.03,0.96-0.17,0.95-0.93c-0.04-3.16-0.02-6.32-0.01-9.47
		c0-0.28-0.15-0.62,0.21-0.94c0.99,2.12,2.07,4.16,2.91,6.29c0.33,1.31,1.61,2.15,2.95,1.94c1.19,0.16,2.31-0.57,2.66-1.72
		c0.87-2.18,1.96-4.27,3.01-6.49c0.19,0.35,0.25,0.75,0.18,1.14c0.01,3.09,0.02,6.17-0.01,9.26c0,0.65,0.11,0.95,0.86,0.92
		c1.42-0.06,2.84-0.05,4.26,0c0.66,0.03,0.83-0.18,0.83-0.83c-0.02-6.42-0.02-12.85,0-19.27c0-0.71-0.25-0.81-0.86-0.8
		c-1.81,0.03-3.62,0.05-5.43-0.01c-0.53-0.06-1.03,0.27-1.18,0.79c-1.25,2.78-2.54,5.54-3.82,8.3c-0.15,0.31-0.2,0.69-0.58,0.93
		c-1.47-3.19-2.92-6.38-4.42-9.53c-0.28-0.6,0.14-0.76,0.43-1.02c11.42-10.28,22.84-20.57,34.26-30.85
		c3.74-3.37,7.47-6.75,11.19-10.15c0.51-0.12,0.48,0.34,0.57,0.59c4.87,13.37,9.75,26.74,14.62,40.11c0.27,0.75,0.11,0.88-0.63,0.87
		c-3.8-0.03-7.59,0-11.39-0.02c-0.62,0-0.95,0.05-0.95,0.83c0.03,6.42,0.02,12.84,0.01,19.27c0,0.58,0.13,0.81,0.76,0.8
		c1.53-0.04,3.05-0.04,4.58,0c0.62,0.02,0.76-0.21,0.75-0.79c-0.03-2.13,0.02-4.26-0.03-6.39c-0.02-0.7,0.19-0.91,0.89-0.89
		c2.02,0.04,4.05,0,6.07,0.03c0.52,0.01,0.75-0.14,0.82-0.68c0.15-1.19,0.35-2.39,0.58-3.57c0.12-0.59-0.08-0.72-0.64-0.72
		c-1.88,0.03-3.76,0.01-5.64,0.01c-2.12,0-2.08,0-2.09-2.11c0-0.76,0.29-0.86,0.93-0.85c2.34,0.03,4.69,0.05,7.03-0.01
		c0.67-0.1,1.3,0.35,1.42,1.02c2.9,8.06,5.83,16.11,8.77,24.16C-2398.81,652.3-2397.38,656.1-2395.97,659.92z M-2455.2,639.26h0.9
		c1.74,0,3.48-0.03,5.22,0.01c0.62,0.01,0.64-0.4,0.79-0.79c0.32-0.85,0.28-2.08,0.97-2.49c0.69-0.42,1.79-0.15,2.71-0.15
		c0.99,0,2.21-0.3,2.91,0.16c0.63,0.42,0.74,1.68,0.99,2.6c0.16,0.59,0.48,0.67,1,0.66c1.67-0.03,3.34-0.04,5,0
		c0.79,0.02,0.96-0.12,0.67-0.93c-2.33-6.39-4.62-12.79-6.89-19.2c-0.11-0.53-0.62-0.87-1.15-0.77c-1.6,0.04-3.2,0.06-4.79-0.01
		c-0.75-0.03-1.03,0.24-1.27,0.91c-2.05,5.81-4.15,11.6-6.22,17.41C-2454.73,637.51-2455.01,638.37-2455.2,639.26L-2455.2,639.26z
		 M-2432.8,628.87c0,3.16,0.03,6.32-0.02,9.48c-0.01,0.76,0.22,0.98,0.95,0.93c0.96-0.06,1.92-0.02,2.88-0.02
		c2.29,0,2.29,0,2.29-2.33c0-5.82-0.02-11.64,0.02-17.46c0.01-0.91-0.25-1.15-1.12-1.1c-1.31,0.07-2.63,0.07-3.94,0
		c-0.79-0.03-1.1,0.12-1.08,1.02C-2432.75,622.55-2432.79,625.71-2432.8,628.87L-2432.8,628.87z"/>
	<path id="Tracé_36919" class="st0" d="M-2444.42,624.8c0.52,1.86,1.04,3.71,1.56,5.57c0.14,0.48-0.04,0.58-0.5,0.61
		c-3.02,0.21-3.03,0.22-2.25-2.65c0.32-1.18,0.64-2.36,0.97-3.54L-2444.42,624.8z"/>
</g>
</svg>
