<?xml version="1.0" encoding="utf-8"?>
<!-- Generator: Adobe Illustrator 25.4.1, SVG Export Plug-In . SVG Version: 6.00 Build 0)  -->
<svg version="1.1" id="Calque_1" xmlns="http://www.w3.org/2000/svg" xmlns:xlink="http://www.w3.org/1999/xlink" x="0px" y="0px"
	 viewBox="0 0 232.78 40.14" style="enable-background:new 0 0 232.78 40.14;" xml:space="preserve">
<style type="text/css">
	.st0{fill:#191F31;}
	.st1{fill-rule:evenodd;clip-rule:evenodd;fill:#191F31;}
	.st2{fill:#C8CBD3;}
	.st3{fill:#838BA6;}
	.st4{fill:#FFFFFF;}
	.st5{fill:#7C8DC6;}
	.st6{fill:#5F6CB1;}
	.st7{fill:#4C57A3;}
</style>
<g id="Groupe_35300" transform="translate(-781.14 -1232.163)">
	<path id="Tracé_36927" class="st0" d="M845.04,1233.26c0.95-0.54,1.98-0.91,3.06-1.09c0,0.18-0.02,0.36-0.02,0.55
		c-0.27,0-0.55,0-0.8,0.02c-0.19,0.32-0.49,0.56-0.84,0.66v-0.41h-0.11c0,0.19,0,0.38-0.02,0.57l-0.34-0.34
		c0.11,0.27-0.01,0.58-0.28,0.69c-0.05,0.02-0.1,0.03-0.15,0.04c-0.28-0.05-0.55-0.09-0.8-0.14c-0.11,0.2-0.21,0.39-0.32,0.59
		c-0.3,0.09-0.62,0.2-0.91,0.3c0.18,0.16,0.4,0.27,0.64,0.32c0,0.07-0.02,0.21-0.02,0.27c-0.31,0.15-0.65,0.22-1,0.21
		c-0.02-0.14-0.05-0.41-0.07-0.55l-0.02-0.16c-0.44-0.01-0.87,0.17-1.19,0.48c-0.07-0.07-0.15-0.14-0.23-0.2l-0.16,0.04
		c-0.55-0.04-1.09,0.04-1.6,0.25c0.14,0.05,0.43,0.14,0.59,0.18c-0.5,0.18-1.03,0.23-1.55,0.14c0.05-0.07,0.16-0.18,0.21-0.25
		c0.03-0.14,0.04-0.27,0.04-0.41l0.02-0.11c0.07-0.05,0.21-0.11,0.25-0.14c-0.04,0.18-0.23,0.71,0.18,0.55
		c0.02-0.07,0.09-0.21,0.11-0.28c0.11,0.02,0.21,0.07,0.32,0.09c0.07-0.34,0.48-0.39,0.78-0.34c0.02-0.25,0.07-0.48,0.09-0.71
		c0.16,0.16,0.11,0.41,0.14,0.62l0.14,0.02v-0.37c0.27,0.02,0.54-0.02,0.8-0.09l-0.16,0.37c0.18-0.07,0.34-0.11,0.53-0.18l0.21-0.41
		c0.19-0.01,0.38,0.01,0.57,0.05c-0.02-0.07-0.05-0.21-0.07-0.27c0.14,0.05,0.3,0.09,0.43,0.14c0.02-0.09,0.09-0.25,0.11-0.34
		c0.3-0.02,0.8-0.46,0.87,0.07c-0.03-0.13-0.04-0.26-0.05-0.39C844.62,1233.29,844.83,1233.28,845.04,1233.26z"/>
	<path id="Tracé_36928" class="st2" d="M840.82,1233.65c0.59-0.14,0.05,0.68-0.14,0.18
		C840.73,1233.77,840.78,1233.71,840.82,1233.65z"/>
	<path id="Tracé_36929" class="st3" d="M844.7,1233.81c0.27,0.04,0.55,0.09,0.8,0.14c-0.28,0.21-0.58,0.4-0.89,0.57
		c0.23,0.04,0.47,0.07,0.71,0.09c-0.2,0.15-0.33,0.39-0.34,0.64c-0.18-0.02-0.36-0.03-0.55-0.02c-0.09-0.05-0.23-0.14-0.32-0.18
		c-0.23-0.07-0.45-0.18-0.64-0.32c0.3-0.11,0.62-0.21,0.91-0.3C844.49,1234.22,844.61,1234.01,844.7,1233.81z"/>
	<path id="Tracé_36930" class="st2" d="M848.12,1234.79c1.09-0.19,2.17-0.47,3.22-0.82c-0.02,0.07-0.04,0.21-0.07,0.27
		c-0.39,0.16-0.82,0.25-1.21,0.41c-0.6,0.16-1.19,0.39-1.73,0.68c0.02,0.05,0.04,0.16,0.07,0.23c-0.06,0.03-0.13,0.06-0.21,0.07
		c-0.03-0.16-0.04-0.32-0.05-0.48c-0.14,0-0.27-0.02-0.41-0.05C847.87,1235.01,848,1234.9,848.12,1234.79z"/>
	<path id="Tracé_36931" class="st0" d="M846.22,1234.47c0.14-0.14,0.27-0.3,0.41-0.43c0.36,0.18,0.71,0.34,1.07,0.53
		c-0.32,0.25-0.82,0.46-0.75,0.96c0.21-0.15,0.41-0.31,0.59-0.5v0.32c-0.18,0.01-0.33,0.14-0.36,0.32c0.18-0.04,0.35-0.09,0.53-0.16
		c0.11-0.06,0.22-0.12,0.34-0.16c-0.02,0.2-0.04,0.41-0.07,0.59c-0.31,0.16-0.65,0.27-1,0.32c-0.36-0.08-0.72-0.18-1.07-0.3
		c0.02-0.14,0.05-0.3,0.07-0.43c-0.05-0.05-0.14-0.11-0.18-0.16c0.08-0.13,0.16-0.25,0.25-0.36l-0.18-0.46
		C845.93,1234.51,846.14,1234.49,846.22,1234.47z"/>
	<path id="Tracé_36932" class="st2" d="M839.5,1234.31c0.27,0.07,0,0.39-0.18,0.3C839.04,1234.54,839.33,1234.24,839.5,1234.31z"/>
	<path id="Tracé_36933" class="st4" d="M841.8,1235.29c0.31-0.31,0.74-0.49,1.19-0.48l0.02,0.16c-0.71-0.11-0.91,0.75-1.55,0.91
		c-0.11-0.15-0.22-0.3-0.32-0.46c0.09-0.11,0.19-0.21,0.3-0.3l0.16-0.05L841.8,1235.29z"/>
	<path id="Tracé_36934" class="st2" d="M849.88,1235.11c-0.05-0.32,0.34-0.27,0.55-0.18c0.29-0.06,0.58-0.08,0.87-0.07
		c-0.3,0.34-0.78,0.39-1.03,0.75c0.39-0.02,0.75-0.05,1.14-0.09c0.07,0.05,0.23,0.16,0.3,0.21c0.59-0.14,1.12-0.41,1.73-0.5
		c-0.32,0.53-1.03,0.57-1.55,0.8c-0.37-0.14-0.75-0.25-1.12-0.36c-0.11,0.14-0.23,0.25-0.36,0.39c-0.04-0.09-0.11-0.27-0.16-0.36
		l-0.41,0.14C849.83,1235.61,849.86,1235.36,849.88,1235.11z"/>
	<path id="Tracé_36935" class="st2" d="M838.61,1235.22c0.18-0.07,0.36-0.13,0.55-0.18c-0.03,0.14-0.04,0.27-0.04,0.41
		c-0.05,0.07-0.16,0.18-0.21,0.25c-0.11,0.02-0.21,0.05-0.32,0.07C838.58,1235.59,838.61,1235.4,838.61,1235.22z"/>
	<path id="Tracé_36936" class="st3" d="M839.84,1235.38c0.51-0.21,1.05-0.29,1.6-0.25l-0.3,0.3c0.11,0.16,0.23,0.3,0.32,0.46
		c-0.24,0.11-0.48,0.21-0.73,0.3c-0.05-0.18-0.09-0.34-0.14-0.53c0,0.17,0,0.33,0.02,0.5c-0.57-0.22-1.23-0.09-1.67,0.34
		c0-0.16-0.02-0.34-0.02-0.5c-0.39,0.11-0.78,0.23-1.14,0.36c0.08-0.18,0.04-0.4-0.09-0.55c0.18-0.14,0.36-0.3,0.57-0.43
		c0.05,0.14,0.05,0.29,0,0.43c0.1,0,0.2,0,0.3-0.02c0.11-0.02,0.21-0.05,0.32-0.07c0.52,0.09,1.06,0.04,1.55-0.14
		C840.24,1235.51,840.04,1235.44,839.84,1235.38z"/>
	<path id="Tracé_36937" class="st0" d="M841.48,1235.88c0.64-0.16,0.84-1.03,1.55-0.91c0.02,0.14,0.05,0.41,0.07,0.55
		c0.35,0.02,0.69-0.05,1-0.21c0.09-0.02,0.25-0.07,0.34-0.09c0.18,0,0.37,0,0.55,0.02c0.05,0.05,0.1,0.1,0.14,0.16
		c0.23-0.02,0.43-0.05,0.66-0.07c0.04,0.04,0.14,0.11,0.18,0.16c-0.02,0.14-0.05,0.3-0.07,0.43c-0.66-0.02-1.73,0.09-1.76,0.96
		c-0.16-0.02-0.32-0.02-0.46-0.04c0.07,0.07,0.14,0.15,0.21,0.23v0.43c-0.16,0-0.32-0.02-0.48-0.02c-0.11,0.16-0.23,0.3-0.34,0.46
		c-0.25-0.37-0.46-0.87-0.94-0.94c-0.23-0.07-0.39,0.16-0.53,0.27c-0.16,0.07-0.3,0.11-0.46,0.18c-0.09,0.05-0.3,0.14-0.41,0.18
		c0,0.09-0.04,0.23-0.04,0.32v0.14c0.04,0.14,0.11,0.39,0.16,0.5c-0.05,0.07-0.14,0.23-0.18,0.32c-0.25,0.04-0.49,0.09-0.73,0.16
		l-0.14,0.05c-0.14-0.02-0.27-0.02-0.41-0.05l-0.27,0.41c-0.07,0.02-0.23,0.07-0.3,0.09c-0.25,0.07-0.48,0.16-0.73,0.23
		c-0.14,0.25-0.27,0.5-0.43,0.75c-0.46,0.11-0.88,0.37-1.19,0.73c-0.16,0.05-0.32,0.11-0.46,0.16c-0.08-0.08-0.16-0.16-0.25-0.23
		c-0.49,0.13-1.02,0.03-1.44-0.25c0,0.16,0.02,0.32,0.02,0.5c-0.09-0.03-0.17-0.07-0.25-0.11c-0.02-0.11-0.07-0.23-0.09-0.34
		l-0.41,0.14c0.04,0.18,0.11,0.36,0.16,0.55c-0.25,0.05-0.53,0.09-0.78,0.14c-0.28,0.43-0.48,0.91-0.71,1.37
		c-0.14,0.3-0.5,0.11-0.73,0.14c-0.41,0.29-0.71,0.72-0.82,1.21c-0.32-0.02-0.66-0.07-0.98-0.09c-0.25,0.8-1.21,0.89-1.76,1.44
		c-0.07-0.14-0.11-0.3-0.18-0.43l-0.55,0.34c0.16,0.02,0.32,0.07,0.48,0.09c-0.05,0.23-0.07,0.48-0.11,0.71
		c-0.35,0.07-0.7,0.17-1.03,0.3c-0.25-0.21-0.46-0.46-0.71-0.71c-0.21,0.43-0.57,0.91-0.18,1.35c-0.02,0.11-0.07,0.23-0.09,0.32
		c-0.07-0.11-0.18-0.32-0.25-0.41c-0.09,0.11-0.18,0.2-0.28,0.32l0.3,0.3c-0.44,0.25-0.98,0.27-1.44,0.05
		c-0.06-0.13-0.13-0.26-0.21-0.39c-0.64,0.37-0.98,1.05-1.64,1.37c-0.71,0.46-1.69,0.69-2.01,1.58c0.26,0.05,0.52,0.09,0.78,0.11
		c-0.11,0.16-0.25,0.32-0.37,0.46c-0.05,0.39-0.08,0.79-0.09,1.19c0.25-0.07,0.57-0.11,0.71-0.39c0.24-0.34,0.55-0.62,0.91-0.82
		c0,0.16-0.02,0.32-0.02,0.5c-0.18,0.02-0.36,0.07-0.53,0.09c-0.34,0.48-0.64,1-1,1.48c0.03-0.2,0.04-0.41,0.05-0.62
		c-0.23-0.16-0.46-0.28-0.68-0.41c0-0.09,0-0.18,0.02-0.27c-0.41-0.24-0.89-0.31-1.35-0.18l0.21,0.28
		c-0.22,0.02-0.44,0.05-0.66,0.09c0,0.07-0.02,0.2-0.02,0.3c0.07,0.05,0.23,0.09,0.3,0.14c0.03,0.08,0.06,0.15,0.09,0.23
		c0.27-0.14,0.57-0.28,0.84-0.41c0,0.27,0,0.55,0.02,0.82c-0.45,0.19-0.93,0.32-1.41,0.39c0.09,0.11,0.18,0.23,0.28,0.34
		c-0.64,0.07-1.07,0.57-1.69,0.66c-0.6,0.14-1.18,0.34-1.73,0.59c0.09,0.07,0.27,0.18,0.39,0.25c-0.16,0.02-0.32,0.07-0.48,0.09
		c0.18,0.14,0.39,0.25,0.57,0.39c-0.09,0.23-0.09,0.55-0.27,0.73c-0.43-0.03-0.83-0.21-1.14-0.5c0.32,0.05,0.62,0.09,0.94,0.16
		c-0.3-0.5-0.04-1.07,0-1.62c-0.16,0.11-0.32,0.25-0.48,0.39c-0.1,0.04-0.2,0.08-0.3,0.14c-0.05,0.11-0.11,0.21-0.16,0.32
		c-0.09,0.02-0.18,0.07-0.25,0.09c0.02,0.34-0.04,0.69-0.18,1c0.16-0.05,0.32-0.09,0.48-0.11c-0.05,0.05-0.14,0.16-0.18,0.21
		c-0.27,0.09-0.54,0.2-0.8,0.32c-0.23-0.05-0.43-0.09-0.66-0.16c0.04-0.13,0.1-0.25,0.16-0.37c-0.03-0.06-0.07-0.12-0.11-0.18
		c0.11-0.07,0.23-0.14,0.32-0.2l-0.07-0.41c0.07-0.1,0.14-0.2,0.2-0.3c-0.04-0.02-0.11-0.07-0.16-0.09
		c0.05-0.14,0.07-0.25,0.11-0.39v-0.02c0.15-0.43,0.17-0.9,0.04-1.35c-0.14-0.37,0.11-0.66,0.27-0.98
		c-0.09-0.25-0.16-0.48-0.25-0.73c-0.48,0.3-0.91,0.8-1.53,0.75c0.16-0.06,0.32-0.1,0.48-0.14c-0.17-0.19-0.33-0.39-0.48-0.59
		c0.28-0.46,0.84-0.37,1.28-0.23c0.04-0.09,0.08-0.17,0.14-0.25c-0.23-0.27-0.42-0.57-0.57-0.89c-0.11-0.08-0.22-0.16-0.34-0.23
		l0.48-0.07c0.28,0.03,0.54,0.16,0.73,0.36c0.16,0.42,0.25,0.87,0.25,1.32l0.2-0.14c0.07-0.09,0.16-0.2,0.23-0.3
		c0.04-0.02,0.16-0.07,0.21-0.09c0.04-0.13,0.1-0.26,0.16-0.39c0.18-0.02,0.34-0.05,0.53-0.07c0.83-0.82,1.71-1.6,2.62-2.33
		c0.57-0.66,1.44-0.98,2.03-1.62c0,0.11,0.02,0.22,0.05,0.32c-0.02,0.07-0.05,0.18-0.07,0.23c-0.08,0.28-0.28,0.5-0.55,0.62
		l-0.48,0.27c0.07,0.11,0.14,0.25,0.21,0.36c0.14-0.09,0.3-0.18,0.43-0.27c0.25,0.04,0.48,0.11,0.73,0.16
		c0.44-0.29,0.78-0.71,1-1.19c0.05,0.08,0.12,0.16,0.18,0.23c0.3-0.26,0.63-0.47,1-0.62c0.27-0.5,0.57-1.1,1.21-1.14
		c0.09,0.18,0.16,0.34,0.25,0.5c0.08-0.05,0.16-0.1,0.25-0.14c0-0.22,0-0.44,0.02-0.66c0.09-0.11,0.18-0.2,0.27-0.32
		c-0.02-0.07-0.04-0.18-0.07-0.25c-0.05-0.07-0.14-0.23-0.18-0.3c-0.25-0.16-0.55-0.05-0.82,0c-0.07-0.09-0.14-0.16-0.21-0.25
		c0.32-0.11,0.66-0.23,0.98-0.36c-0.07,0.09-0.23,0.25-0.3,0.34c0.34-0.07,0.68-0.16,1.03-0.25c-0.09-0.14-0.18-0.3-0.28-0.43
		c0.25-0.14,0.53-0.23,0.82-0.25c0.07-0.16,0.14-0.3,0.21-0.46c0.07,0.14,0.11,0.25,0.18,0.39c0.02,0.04,0.04,0.16,0.07,0.23
		c-0.14,0.09-0.3,0.2-0.43,0.3c0.02,0.23,0.07,0.48,0.09,0.71c0.16,0.07,0.3,0.16,0.46,0.23c0,0.1,0,0.2,0.02,0.3
		c0.18,0.09,0.34,0.27,0.55,0.23c0.28-0.04,0.32-0.36,0.46-0.55c0.36,0,0.55-0.25,0.71-0.55c-0.18,0.09-0.36,0.18-0.55,0.3
		c0.07-0.18,0-0.55,0.27-0.57c0.33,0.03,0.65,0.13,0.94,0.3c-0.11-0.21-0.23-0.41-0.34-0.64c0.3,0.02,0.57,0.02,0.87,0.05
		c-0.34-0.21-0.75-0.39-0.91-0.78c0.25-0.21,0.62-0.07,0.91-0.07c0.08-0.3,0.04-0.62-0.11-0.89c0.55-0.33,1.25-0.28,1.76,0.11
		c0.08-0.1,0.16-0.19,0.25-0.28c0.14,0.07,0.3,0.14,0.43,0.21c0.09-0.23,0.21-0.46,0.32-0.69c0.1-0.04,0.2-0.08,0.3-0.14v-0.32
		c0.2-0.03,0.41-0.04,0.62-0.04c0.02,0.43,0.15,0.85,0.39,1.21c0.11-0.18,0.21-0.36,0.32-0.55c0.11,0.06,0.22,0.13,0.32,0.2
		c0.02-0.14,0.05-0.3,0.07-0.43c-0.19-0.07-0.37-0.14-0.55-0.23c0.08-0.51,0.46-0.92,0.96-1.03c-0.08-0.09-0.16-0.19-0.23-0.3
		c0.21-0.02,0.39-0.02,0.59-0.05l0.28-0.82c-0.39,0.02-0.75,0.23-0.96,0.57l-0.41-0.2c0.18-0.21,0.34-0.41,0.53-0.62
		c-0.35,0.12-0.69,0.25-1.03,0.41c-0.03-0.1-0.04-0.21-0.05-0.32c0.03-0.04,0.07-0.07,0.11-0.09c0.29-0.24,0.65-0.37,1.03-0.36
		c-0.17,0-0.33-0.02-0.5-0.04c0.07-0.12,0.14-0.23,0.23-0.34c0.11-0.1,0.21-0.21,0.3-0.32v0.46c0.35-0.08,0.68-0.22,0.98-0.41v-0.18
		c0.3,0.14,0.94,0.11,0.68-0.39c-0.07-0.09-0.21-0.11-0.3-0.04c0,0-0.01,0.01-0.01,0.01c0.19-0.23,0.42-0.42,0.68-0.55l0.02,0.07
		l-0.21,0.11l-0.07,0.18c0.25,0.36,0.48-0.07,0.68-0.18l0.02,0.27v0.11c-0.23,0.02-0.46,0.05-0.68,0.09c0,0.02,0.02,0.09,0.02,0.11
		c0.73-0.02,1.44-0.27,2.03-0.71l0.27-0.46c-0.21-0.08-0.44,0.03-0.52,0.24c0,0,0,0.01,0,0.01c0-0.11,0.02-0.32,0.02-0.43
		c0.14,0.05,0.27,0.07,0.41,0.11s0.3,0.11,0.43,0.16c0.02,0.2,0.05,0.4,0.09,0.59c0.14-0.17,0.23-0.38,0.27-0.59
		c0.27-0.01,0.54-0.08,0.78-0.23c0.04,0.16,0.11,0.34,0.16,0.5c0.05-0.06,0.1-0.11,0.16-0.16c0.45-0.41,1.09-0.54,1.66-0.34
		c0-0.17,0-0.33-0.02-0.5c0.05,0.18,0.09,0.34,0.14,0.53C841.03,1236.07,841.26,1236,841.48,1235.88z"/>
	<path id="Tracé_36938" class="st2" d="M843.54,1235.06c0.23-0.14,0.3,0.25,0.09,0.3C843.38,1235.49,843.31,1235.11,843.54,1235.06
		z"/>
	<path id="Tracé_36939" class="st2" d="M844.11,1235.04c0.09,0.05,0.23,0.14,0.32,0.18c-0.09,0.02-0.25,0.07-0.34,0.09
		C844.08,1235.24,844.11,1235.11,844.11,1235.04z"/>
	<path id="Tracé_36940" class="st3" d="M847.76,1235.13c0.14,0.01,0.28,0.02,0.41,0.04c0.03,0.16,0.04,0.32,0.04,0.48
		c0.06-0.03,0.13-0.06,0.21-0.07c0.26-0.08,0.5-0.22,0.71-0.39c0.24,0.12,0.53,0.09,0.75-0.07c-0.02,0.25-0.05,0.5-0.05,0.73
		l0.41-0.14c0.05,0.09,0.11,0.27,0.16,0.36c0.11-0.14,0.23-0.25,0.36-0.39c0.39,0.11,0.75,0.23,1.12,0.37
		c-0.57,0.15-1.12,0.37-1.64,0.66c0.03,0.18,0.08,0.35,0.14,0.53h-0.48c-0.1-0.47-0.16-0.94-0.18-1.42
		c-0.07-0.05-0.2-0.11-0.27-0.16c0.05,0.33,0.04,0.67-0.02,1l-0.55-0.14c-0.36,0.09-0.73,0.12-1.1,0.07
		c0.02,0.14,0.02,0.27,0.05,0.41c-0.09,0-0.17-0.02-0.25-0.05c-0.07-0.18-0.11-0.36-0.18-0.57c-0.05,0.09-0.11,0.27-0.16,0.36h-0.39
		c0.11,0.18,0.21,0.39,0.32,0.57c-0.07,0.02-0.23,0.05-0.32,0.07c-0.02,0.3-0.02,0.62-0.04,0.91c-0.18-0.07-0.37-0.11-0.55-0.18
		c-0.23,0.14-0.46,0.3-0.71,0.43c-0.3-0.04-0.59-0.11-0.89-0.16l-0.18,0.28c-0.25,0.09-0.5,0.16-0.78,0.25
		c0.24,0.47,0.24,1.03,0.02,1.51c0.39-0.11,0.79-0.14,1.19-0.09c-0.53,0.21-1.1,0.57-1.69,0.32c-0.02,0.11-0.02,0.2-0.04,0.32
		c-0.11-0.22-0.26-0.42-0.43-0.59c0.05,0.49,0.18,0.97,0.41,1.41c-0.23-0.14-0.46-0.25-0.68-0.39c-0.07,0.18-0.14,0.34-0.21,0.53
		c-0.02-0.18-0.05-0.39-0.07-0.57c-0.09,0.07-0.16,0.11-0.25,0.18c-0.11-0.11-0.21-0.25-0.32-0.37c-0.16,0.39-0.3,0.78-0.43,1.16
		c-0.09-0.14-0.16-0.27-0.25-0.41c-0.52,0.04-1,0.25-1.39,0.59c0.04,0.09,0.16,0.27,0.21,0.36c0.28,0.07,0.57,0.14,0.84,0.21
		c-0.48-0.04-0.95,0.15-1.28,0.5c-0.04,0.1-0.08,0.2-0.14,0.3c-0.34-0.05-0.68-0.11-1.03-0.16c0.45-0.35,0.86-0.75,1.23-1.19
		c-0.18-0.09-0.34-0.2-0.53-0.3c-0.48,0.46-0.82,1.03-1.28,1.51c0.09,0,0.3-0.02,0.39-0.02c-0.04,0.21-0.11,0.41-0.16,0.59
		c-0.11-0.14-0.23-0.3-0.36-0.43c-0.27,0.05-0.55,0.11-0.82,0.18c0.46-0.43,0.94-0.84,1.37-1.28c0.55-0.4,1.06-0.84,1.53-1.32
		c-0.07,0.25-0.14,0.48-0.21,0.73c0.18,0,0.53-0.02,0.68-0.02l-0.07-0.82c0.04,0.07,0.16,0.23,0.21,0.3
		c0.62-0.41,1.21-0.87,1.76-1.37c0-0.11,0-0.21,0.02-0.32l0.27-0.18c0.01-0.01,0.03-0.02,0.05-0.02c0.18-0.16,0.34-0.3,0.53-0.46
		l0.41,0.14c-0.02-0.14-0.07-0.3-0.09-0.43c0.25-0.16,0.53-0.32,0.59-0.64c-0.33,0.17-0.69,0.29-1.05,0.36
		c-0.26-0.47-0.76-0.75-1.3-0.73c0.25,0.2,0.5,0.39,0.75,0.57c-0.03,0.23-0.08,0.45-0.16,0.66c-0.06,0.04-0.11,0.09-0.16,0.14
		l0.07-0.21l-0.8,0.07v0.41c-0.5,0.3-1,0.57-1.46,0.89c0,0.07-0.02,0.18-0.02,0.25c-0.33,0.37-0.72,0.68-1.14,0.94
		c-0.32,0.27-0.62,0.57-0.94,0.87l-0.55-0.07c-0.14,0.34-0.62,0.59-0.84,0.18c0,0.27-0.21,0.46-0.34,0.66l0.18,0.02
		c-0.11,0.1-0.21,0.21-0.3,0.32c0.09,0,0.27-0.02,0.34-0.02c-0.41,0.36-0.8,0.76-1.14,1.19c-0.02-0.21-0.27-0.39-0.46-0.25
		c-0.14,0.18,0.09,0.41,0.27,0.43c-0.13,0.17-0.24,0.34-0.34,0.53c-0.8-0.25-1.3,0.48-1.92,0.82c0.34-0.45,0.72-0.88,1.12-1.28
		c0-0.11,0-0.21-0.02-0.32c0.37-0.23,0.67-0.55,0.87-0.94c0.07-0.04,0.14-0.08,0.21-0.14c0.27-0.34,0.5-0.69,0.75-1.03l0.82-0.07
		c-0.09-0.11-0.18-0.22-0.25-0.34c0.16-0.05,0.33-0.09,0.5-0.11c-0.16-0.18-0.3-0.36-0.46-0.55l0.11-0.05
		c0.16-0.07,0.32-0.11,0.46-0.16v0.57c0.48-0.25,0.62-0.84,1.12-1.07c0.25-0.12,0.48-0.28,0.68-0.46c0.04-0.2-0.04-0.4-0.21-0.53
		c0.25-0.07,0.48-0.16,0.73-0.23c-0.11,0.18-0.23,0.39-0.32,0.57c0.14-0.07,0.3-0.14,0.43-0.21c0.08-0.21,0.22-0.38,0.41-0.5
		c0.03-0.12,0.04-0.24,0.05-0.36c0.14,0,0.28,0.02,0.41,0.05c-0.07,0.16-0.11,0.3-0.18,0.46c0.11,0.07,0.23,0.11,0.34,0.18
		c0-0.23-0.02-0.46-0.02-0.68c0.25-0.07,0.48-0.11,0.73-0.16c0.05-0.07,0.14-0.23,0.18-0.32c-0.04-0.14-0.11-0.39-0.16-0.5
		c0.21-0.15,0.43-0.29,0.66-0.41c-0.07-0.07-0.14-0.15-0.2-0.23c0.15-0.07,0.3-0.13,0.46-0.18c0.16-0.14,0.3-0.34,0.53-0.28
		c0.48,0.07,0.68,0.57,0.94,0.94c0.11-0.16,0.23-0.32,0.34-0.46c0.16,0,0.32,0.02,0.48,0.02v-0.43c0.46-0.02,0.89-0.24,1.19-0.59
		c-0.34,0.09-0.57,0.43-0.94,0.41c0.02-0.87,1.1-0.98,1.76-0.96c0.35,0.13,0.71,0.23,1.07,0.3c0.35-0.04,0.69-0.15,1-0.32
		c0.02-0.21,0.05-0.41,0.07-0.59c-0.11,0.06-0.22,0.12-0.34,0.16C847.7,1235.47,847.72,1235.3,847.76,1235.13z"/>
	<path id="Tracé_36941" class="st4" d="M840.68,1235.49c0.05-0.21,0.16-0.25,0.34-0.14C841,1235.56,840.89,1235.61,840.68,1235.49z
		"/>
	<path id="Tracé_36942" class="st4" d="M843.44,1235.88c0.25-0.12,0.52-0.2,0.8-0.25c-0.14,0.32-0.18,0.75-0.59,0.82
		c-0.09-0.04-0.3-0.16-0.41-0.2C843.32,1236.13,843.38,1236.01,843.44,1235.88z"/>
	<path id="Tracé_36943" class="st0" d="M849.4,1235.63c0.07,0.05,0.21,0.11,0.28,0.16c0.03,0.48,0.09,0.95,0.18,1.41h0.48
		c0.28-0.02,0.64,0.07,0.82-0.23c-0.02,0.09-0.07,0.25-0.09,0.32c-0.4,0.23-0.79,0.5-1.14,0.8c-0.09,0.02-0.27,0.05-0.36,0.07
		c-0.21,0.34-0.62,0.43-0.96,0.59c-0.53,0.21-1.04,0.48-1.51,0.8c0.23,0.12,0.49,0.18,0.75,0.16c-0.22,0.23-0.48,0.43-0.75,0.59
		c-0.53-0.02-0.94,0.39-1.32,0.69c-0.1-0.04-0.2-0.08-0.3-0.14c-0.07,0.26-0.3,0.45-0.57,0.46c0.09,0.07,0.21,0.14,0.3,0.2
		c-0.07,0.05-0.15,0.1-0.23,0.14c-0.14-0.14-0.33-0.22-0.53-0.23c-0.21-0.27-0.5,0.07-0.16,0.2l-0.16,0.02
		c-0.51,0.07-1.01,0.2-1.48,0.39c-0.05,0.32-0.07,0.66-0.11,0.98v0.02c-0.11,0.02-0.34,0.09-0.43,0.11
		c0.09-0.11,0.27-0.34,0.39-0.46h-0.68c-0.07,0.34-0.39,0.48-0.62,0.66c-0.36,0.25-0.71,0.5-1.05,0.78
		c-0.05-0.16-0.27-0.36-0.39-0.14c-0.13,0.23-0.24,0.46-0.32,0.71c0.09,0,0.3,0.02,0.41,0.02c-0.02,0.14-0.07,0.25-0.09,0.39
		c-0.02-0.09-0.09-0.25-0.11-0.32c-0.07,0.02-0.21,0.09-0.3,0.11v-0.25h-0.21c0,0.55-0.66,0.78-0.55,1.32
		c0.23-0.14,0.64-0.09,0.68-0.43c0.07,0.02,0.18,0.07,0.25,0.09c0.02-0.09,0.09-0.28,0.11-0.37h0.62c0.09-0.11,0.16-0.23,0.25-0.36
		c0.02,0.07,0.07,0.18,0.09,0.25c-0.18,0.11-0.36,0.21-0.55,0.32c-0.05,0.07-0.16,0.18-0.21,0.25c-0.12-0.03-0.24-0.04-0.36-0.05
		l-0.62,0.34c-0.09,0.16-0.21,0.3-0.3,0.46c-0.09-0.02-0.27-0.07-0.39-0.09c0.04-0.25,0.11-0.53,0.16-0.78
		c-0.38,0.04-0.69,0.3-0.8,0.66c0-0.07-0.02-0.2-0.02-0.27c-0.32,0.25-0.66,0.48-1,0.71l-0.18-0.27c0.02,0.11,0.05,0.32,0.07,0.43
		c0.25-0.04,0.5-0.11,0.73-0.16h0.41v0.3c-0.37,0.14-0.72,0.32-1.05,0.55c0-0.19,0.02-0.38,0.04-0.57
		c-0.07,0.04-0.18,0.14-0.25,0.18c-0.07,0.18-0.14,0.39-0.21,0.57c-0.25,0-0.53-0.02-0.78-0.02c-0.19,0.3-0.45,0.55-0.75,0.73
		c-0.09-0.02-0.25-0.07-0.32-0.09c0.34-0.32,0.09-0.87,0.53-1.14c0,0.11,0.02,0.34,0.02,0.46c0.2-0.04,0.37-0.15,0.5-0.3
		c0.21,0.05,0.48,0.23,0.64,0c0.06-0.22,0.08-0.44,0.07-0.66c0.07-0.11,0.16-0.23,0.23-0.36c0.09-0.02,0.25-0.09,0.32-0.11
		c0.07-0.07,0.21-0.18,0.28-0.25c0.42-0.26,0.7-0.7,0.78-1.19c-0.2-0.04-0.4-0.1-0.59-0.16c0,0.13,0.02,0.26,0.04,0.39
		c-0.07-0.02-0.21-0.04-0.25-0.07c0.02-0.34-0.43-0.37-0.41-0.02c-0.18-0.09-0.34-0.18-0.5-0.27c0.3-0.18,0.57-0.39,0.82-0.64
		c0.28-0.07,0.55-0.11,0.82-0.18c0.11,0.14,0.23,0.3,0.36,0.43c0.05-0.21,0.11-0.41,0.16-0.59h0.18c0.34,0.05,0.68,0.11,1.03,0.16
		c0.02-0.07,0.09-0.21,0.14-0.3c0.32-0.36,0.8-0.55,1.28-0.5c-0.14,0.24-0.27,0.48-0.39,0.73c0.3-0.15,0.57-0.37,0.78-0.64
		c-0.09-0.02-0.3-0.07-0.39-0.09c-0.3-0.07-0.57-0.14-0.84-0.21c-0.04-0.09-0.16-0.28-0.21-0.37c0.4-0.33,0.88-0.54,1.39-0.59
		c0.09,0.14,0.16,0.27,0.25,0.41c0.14-0.39,0.27-0.78,0.43-1.16c0.1,0.13,0.21,0.25,0.32,0.37c0.08-0.07,0.16-0.13,0.25-0.18
		c0.02,0.18,0.05,0.39,0.07,0.57c0.07-0.18,0.14-0.34,0.21-0.53c0.23,0.14,0.46,0.25,0.68,0.39c-0.23-0.44-0.37-0.92-0.41-1.42
		c0.18,0.17,0.33,0.37,0.43,0.59c0.02-0.11,0.02-0.2,0.04-0.32c0.57,0.23,1.16-0.11,1.69-0.32c-0.4-0.04-0.8-0.01-1.19,0.09
		c0.24-0.47,0.23-1.04-0.02-1.5c0.25-0.09,0.5-0.16,0.78-0.25l0.18-0.27c0.3,0.04,0.59,0.11,0.89,0.16c0.23-0.14,0.46-0.3,0.71-0.43
		c0.18,0.07,0.36,0.11,0.55,0.18c0-0.3,0.02-0.62,0.05-0.91c0.07-0.02,0.23-0.05,0.32-0.07c-0.11-0.18-0.21-0.39-0.32-0.57h0.39
		c0.05-0.09,0.11-0.27,0.16-0.36c0.07,0.18,0.11,0.36,0.18,0.57c0.08,0,0.17,0.02,0.25,0.05c-0.02-0.14-0.02-0.27-0.04-0.41
		c0.37,0.05,0.74,0.02,1.1-0.07l0.55,0.14C849.48,1236.28,849.45,1235.96,849.4,1235.63z"/>
	<path id="Tracé_36945" class="st4" d="M845.11,1236.48c0.21-0.38,0.69-0.52,1.07-0.32c-0.02,0.08-0.06,0.16-0.11,0.23
		C845.77,1236.41,845.45,1236.45,845.11,1236.48z"/>
	<path id="Tracé_36946" class="st0" d="M835.78,1236.41c0.25,0.09,0.45,0.28,0.55,0.53v-0.39c0.19,0.07,0.37,0.14,0.55,0.23
		c-0.59,0.44-1.3,0.69-2.03,0.71c0-0.02-0.02-0.09-0.02-0.11c0.23-0.04,0.46-0.07,0.68-0.09v-0.11
		C835.67,1236.95,835.76,1236.68,835.78,1236.41z"/>
	<path id="Tracé_36947" class="st4" d="M844.13,1236.91c0.36,0,0.59-0.32,0.94-0.41c-0.29,0.36-0.72,0.58-1.19,0.59
		c-0.06-0.08-0.13-0.16-0.21-0.23C843.83,1236.89,843.99,1236.89,844.13,1236.91z"/>
	<path id="Tracé_36948" class="st3" d="M833.77,1237.5c0.04-0.05,0.14-0.16,0.18-0.21v0.53c-0.11-0.02-0.36-0.09-0.5-0.11
		l0.07,0.34l-0.46,0.02C832.97,1237.59,833.45,1237.5,833.77,1237.5z"/>
	<path id="Tracé_36949" class="st2" d="M842.49,1237.48c0.23,0.02,0.09,0.39-0.09,0.39
		C842.19,1237.85,842.33,1237.48,842.49,1237.48z"/>
	<path id="Tracé_36950" class="st4" d="M840.73,1237.71c0.09-0.05,0.3-0.14,0.41-0.18c0.07,0.07,0.14,0.15,0.21,0.23
		c-0.23,0.14-0.43,0.27-0.66,0.41v-0.14C840.71,1237.92,840.72,1237.82,840.73,1237.71z"/>
	<path id="Tracé_36951" class="st2" d="M831.76,1238.57c0.02-0.39,0.62-0.46,0.94-0.5c-0.07,0.12-0.14,0.23-0.23,0.34
		c0.17,0,0.33,0.02,0.5,0.05c-0.38-0.01-0.74,0.12-1.03,0.36C831.89,1238.73,831.83,1238.65,831.76,1238.57z"/>
	<path id="Tracé_36952" class="st4" d="M839.29,1238.16c0.11-0.16,0.57-0.09,0.39,0.16
		C839.56,1238.55,839.06,1238.42,839.29,1238.16z"/>
	<path id="Tracé_36953" class="st0" d="M841.3,1237.98c0.54-0.03,1.05,0.26,1.3,0.73c-0.25,0.15-0.49,0.33-0.71,0.53
		c0.07-0.22,0.13-0.44,0.16-0.66C841.82,1238.37,841.55,1238.19,841.3,1237.98z"/>
	<path id="Tracé_36954" class="st2" d="M840.96,1238.26c0.21,0.05,0.23,0.14,0.09,0.34
		C840.87,1238.55,840.82,1238.44,840.96,1238.26z"/>
	<path id="Tracé_36955" class="st4" d="M842.62,1238.71c0.36-0.08,0.72-0.2,1.05-0.36c-0.05,0.32-0.34,0.48-0.59,0.64
		c0.02,0.14,0.07,0.3,0.09,0.43l-0.41-0.14c-0.18,0.16-0.36,0.3-0.53,0.46c-0.01,0.01-0.03,0.02-0.05,0.02l-0.27,0.18
		c0,0.11,0,0.21-0.02,0.32c-0.54,0.51-1.13,0.97-1.76,1.37c-0.05-0.07-0.16-0.23-0.21-0.3l0.07,0.82c-0.18,0-0.53,0.02-0.68,0.02
		c0.07-0.25,0.11-0.48,0.21-0.73c-0.47,0.48-0.98,0.93-1.53,1.32c-0.43,0.43-0.91,0.84-1.37,1.28c-0.25,0.24-0.52,0.46-0.82,0.64
		l-0.14,0.55c-0.51,0.35-0.94,0.81-1.26,1.35c-0.11,0.27-0.43,0.27-0.68,0.36c0-0.11-0.02-0.34-0.02-0.46
		c0.01-0.29,0.06-0.57,0.16-0.84c0.11-0.02,0.32-0.09,0.41-0.11c0.1-0.18,0.21-0.36,0.34-0.53c0.06-0.05,0.11-0.12,0.16-0.18
		c0.36-0.42,0.74-0.81,1.14-1.19c0.32-0.2,0.6-0.45,0.84-0.73c-0.18,0-0.53,0.02-0.68,0.02l0.39,0.2c-0.26,0.05-0.51,0.12-0.75,0.21
		c0.19-0.17,0.31-0.41,0.34-0.66c0.23,0.41,0.73,0.14,0.84-0.18l0.55,0.07c0.3-0.31,0.61-0.6,0.94-0.87
		c0.42-0.26,0.8-0.58,1.14-0.94c0.77-0.41,1.51-0.87,2.21-1.39c0.06-0.04,0.11-0.09,0.16-0.14
		C842.12,1239.05,842.37,1238.87,842.62,1238.71z"/>
	<path id="Tracé_36956" class="st0" d="M831.1,1238.92c0-0.39,0.41-0.3,0.68-0.34c0.06,0.09,0.14,0.16,0.23,0.23
		c-0.03,0.04-0.07,0.07-0.11,0.09c-0.45,0.32-0.84,0.72-1.16,1.16c-0.27-0.09-0.62-0.23-0.87,0c-0.46,0.42-1.03,0.7-1.64,0.8
		c-0.5,0.69-1.39,0.78-2.05,1.26c-0.04-0.07-0.16-0.23-0.23-0.32c0.16-0.11,0.34-0.23,0.5-0.34c0.68-0.32,1.26-0.84,1.92-1.19
		c0.63-0.42,1.28-0.81,1.96-1.14c0.11,0.14,0.25,0.25,0.36,0.39c-0.11-0.16-0.2-0.3-0.32-0.46
		C830.57,1238.88,830.85,1238.83,831.1,1238.92z"/>
	<path id="Tracé_36957" class="st3" d="M840.36,1238.67c0.53-0.11-0.05,0.62-0.16,0.18
		C840.25,1238.78,840.34,1238.71,840.36,1238.67z"/>
	<path id="Tracé_36958" class="st0" d="M831.94,1239.24c0.34-0.14,0.68-0.3,1.03-0.41c-0.18,0.21-0.34,0.41-0.53,0.62l0.41,0.21
		c0.21-0.34,0.56-0.55,0.96-0.57l-0.27,0.82c-0.2,0-0.4,0.02-0.59,0.04c0.08,0.09,0.16,0.19,0.23,0.3c-0.5,0.12-0.88,0.52-0.96,1.03
		c0.19,0.07,0.37,0.14,0.55,0.23c-0.02,0.14-0.05,0.3-0.07,0.43c-0.11-0.07-0.23-0.14-0.32-0.21c-0.11,0.18-0.21,0.37-0.32,0.55
		c-0.23-0.36-0.36-0.78-0.39-1.21c-0.2,0.03-0.41,0.04-0.62,0.04v0.32c-0.1,0.04-0.2,0.08-0.3,0.14c-0.11,0.23-0.21,0.46-0.32,0.69
		c-0.14-0.07-0.3-0.14-0.43-0.21c-0.09,0.09-0.16,0.18-0.25,0.27c-0.5-0.4-1.2-0.45-1.76-0.11c0.15,0.27,0.19,0.59,0.11,0.89
		c-0.3,0-0.64-0.11-0.91,0.07c0.16,0.39,0.57,0.57,0.91,0.78c-0.3-0.02-0.59-0.05-0.87-0.05c0.11,0.2,0.23,0.41,0.34,0.64
		c-0.29-0.16-0.61-0.27-0.94-0.3c-0.27,0.05-0.21,0.39-0.27,0.57c0.18-0.09,0.36-0.21,0.55-0.3c-0.1,0.31-0.38,0.53-0.71,0.55
		c-0.11,0.2-0.16,0.53-0.46,0.55c-0.21,0.05-0.36-0.16-0.55-0.23c0-0.09-0.02-0.21-0.02-0.3c-0.16-0.07-0.3-0.16-0.46-0.23
		c0.12-0.09,0.23-0.19,0.34-0.3c0.23-0.07,0.46-0.14,0.68-0.18c0-0.11-0.02-0.37-0.02-0.5h-0.57c-0.04-0.07-0.11-0.21-0.14-0.25
		c-0.07-0.14-0.11-0.25-0.18-0.39c0.37-0.34,0.84-0.53,1.12-0.96c0-0.09-0.02-0.18-0.05-0.27c0-0.05-0.02-0.14-0.02-0.18
		c0.08,0.1,0.16,0.21,0.23,0.32c0.66-0.48,1.57-0.55,2.05-1.26c0.62-0.09,1.19-0.37,1.64-0.8c0.25-0.23,0.57-0.09,0.87,0
		c0.33-0.44,0.72-0.83,1.16-1.16C831.89,1239.02,831.92,1239.13,831.94,1239.24z"/>
	<path id="Tracé_36959" class="st2" d="M799.05,1239.42c0.56,0.01,1.12-0.03,1.67-0.14c0.38-0.08,0.78-0.01,1.12,0.18
		c0.25,0.11,0.55,0.2,0.8,0.32l0.18,0.09c-0.84,0-1.71,0-2.56,0.07c0.41-0.07,0.8-0.11,1.21-0.2c-0.25-0.23-0.59-0.11-0.89-0.09
		c-0.53,0.09-1.05,0-1.57,0.05C799,1239.6,799.02,1239.51,799.05,1239.42z"/>
	<path id="Tracé_36960" class="st4" d="M839.13,1239.56l0.27-0.41c-0.03,0.12-0.04,0.24-0.04,0.36c-0.18,0.12-0.33,0.3-0.41,0.5
		c-0.14,0.07-0.3,0.14-0.43,0.21c0.11-0.21,0.21-0.39,0.32-0.57C838.91,1239.63,839.06,1239.57,839.13,1239.56z"/>
	<path id="Tracé_36961" class="st2" d="M839.82,1239.19l0.14-0.05c0,0.23,0.02,0.46,0.02,0.69c-0.11-0.07-0.23-0.11-0.34-0.18
		C839.68,1239.49,839.74,1239.34,839.82,1239.19z"/>
	<path id="Tracé_36962" class="st0" d="M841.02,1239.21l0.8-0.07l-0.07,0.21c-0.7,0.52-1.44,0.99-2.21,1.39
		c0-0.07,0.02-0.18,0.02-0.25c0.48-0.32,0.98-0.59,1.46-0.89L841.02,1239.21z"/>
	<path id="Tracé_36963" class="st0" d="M801.84,1239.47c0.49-0.07,1-0.05,1.48,0.07c0.46,0.05,0.96,0.07,1.19,0.55
		c-0.37,0.05-0.73,0.11-1.1,0.18c0.02-0.11,0.07-0.25,0.09-0.36c-0.02-0.02-0.07-0.09-0.09-0.11c-0.18,0.16-0.39,0.28-0.62,0.11
		l-0.18-0.09C802.36,1239.67,802.09,1239.58,801.84,1239.47z"/>
	<path id="Tracé_36964" class="st0" d="M803.42,1239.79c0.02,0.02,0.07,0.09,0.09,0.11c-0.02,0.11-0.07,0.25-0.09,0.36
		c-0.04,0.13-0.07,0.27-0.09,0.41c0.18,0.07,0.37,0.11,0.53,0.18c0.06,0.68,0.3,1.33,0.68,1.89c-0.27,0.16-0.53,0.34-0.78,0.5
		c0.32,0.3,0.6,0.64,0.84,1c-0.12,0.45-0.09,0.92,0.07,1.35c0.13,0.47,0.1,0.96-0.07,1.41c-0.23,0.05-0.48,0.09-0.71,0.14
		c0.11,0.11,0.21,0.25,0.32,0.37c-0.14,0.25-0.25,0.5-0.39,0.75c0.05,0.05,0.14,0.16,0.18,0.21c-0.18,0.34-0.34,0.68-0.53,1.03
		c-0.04,0.02-0.16,0.05-0.21,0.07c0-0.16-0.02-0.32-0.05-0.48c-0.12-0.06-0.24-0.12-0.36-0.16c-0.43,0.18-0.89,0.26-1.35,0.23
		c-0.38,0.14-0.77,0.23-1.16,0.27c-0.57,0.24-1.17,0.4-1.78,0.48l-0.18,0.27h-0.57c-0.43,0.23-0.8,0.55-1.21,0.78
		c-0.57,0.21-1.12,0.46-1.64,0.75c-0.34,0.25-0.8,0.25-1.14,0.5c-0.45,0.38-0.95,0.69-1.48,0.94c-0.54,0.25-1.07,0.54-1.58,0.87
		c-0.51,0.16-1.01,0.35-1.51,0.57c-0.05-0.09-0.16-0.25-0.21-0.34c0.31-0.32,0.71-0.55,1.14-0.64c0.02-0.05,0.09-0.16,0.11-0.21
		c0.24-0.05,0.47-0.13,0.68-0.25c0.06-0.2,0.1-0.41,0.14-0.62c0.04,0.02,0.11,0.05,0.16,0.07c0.2,0.05,0.39,0.09,0.59,0.11
		c0.02-0.09,0.07-0.18,0.09-0.27c0.58-0.38,1.25-0.62,1.94-0.71c0.07-0.21,0.11-0.41,0.18-0.62c0.12,0.09,0.24,0.18,0.36,0.25
		c0.07-0.21,0.14-0.43,0.21-0.64c0.14-0.11,0.3-0.23,0.43-0.34c-0.02-0.19-0.05-0.38-0.09-0.57l0.14,0.05
		c0.09,0.18,0.16,0.39,0.25,0.57c0.66-0.14,1.14-0.78,1.85-0.64c0.7-0.45,1.48-0.74,2.3-0.87c0.29-0.03,0.59,0.01,0.87,0.09
		c0.35-0.41,0.61-0.89,0.75-1.41c0.21-0.75,0.87-1.23,1.19-1.94c-0.3-0.23-0.59-0.43-0.91-0.64c0.18-0.09,0.34-0.18,0.53-0.27
		c-0.18-0.26-0.44-0.47-0.73-0.59c0.2-0.46,0.53-0.84,0.96-1.1c0.07-0.43,0-0.88-0.18-1.28c0.05-0.09,0.11-0.18,0.16-0.27
		c-0.32-0.18-0.96-0.5-0.59-0.94l-0.18-0.18c-0.65-0.07-1.31,0.02-1.92,0.25c-1.14,0.39-2.47,0.48-3.4,1.35
		c-0.21,0-0.43,0.02-0.64,0.02c0.14,0.2,0.25,0.41,0.39,0.62c0.15,0,0.31,0,0.46-0.02c-0.18,0.27-0.34,0.55-0.53,0.84h-0.32
		c0,0.11-0.02,0.23-0.02,0.36h-0.46c-0.18,0.47-0.41,0.92-0.71,1.32l-0.05,0.04h-0.48c-0.09,0.18-0.16,0.37-0.25,0.53
		c-0.18,0-0.36,0.02-0.57,0.02c-0.07,0.16-0.14,0.3-0.21,0.46c-0.18-0.02-0.34-0.02-0.53-0.04c-0.23,0.23-0.48,0.55-0.84,0.39
		c-0.69,0.18-1.42-0.07-1.85-0.64c0.4-0.14,0.73-0.44,0.91-0.82c-0.82,0.39-1.62,0.82-2.47,1.16c0.02-0.43,0.53-0.5,0.82-0.71
		c1.42-1.13,2.9-2.16,4.45-3.1c0.44-0.1,0.86-0.28,1.23-0.55c0.6-0.41,1.24-0.75,1.92-1.03l-0.09-0.25
		c-0.07-0.02-0.23-0.04-0.32-0.07c0.01-0.04,0.02-0.08,0.05-0.11c0.07,0.03,0.15,0.05,0.23,0.07c0.04,0.09,0.14,0.25,0.18,0.34
		c0.14-0.07,0.25-0.14,0.36-0.21c0.36-0.07,0.71-0.25,1.07-0.34c0.78-0.23,1.62-0.23,2.42-0.43c0.84-0.04,1.71-0.04,2.56-0.07
		C803.03,1240.06,803.23,1239.94,803.42,1239.79z"/>
	<path id="Tracé_36965" class="st0" d="M842.19,1239.76c0.01-0.01,0.03-0.02,0.05-0.02
		C842.22,1239.74,842.2,1239.75,842.19,1239.76z"/>
	<path id="Tracé_36967" class="st0" d="M804.49,1240.08c0.67,0.14,1.32,0.36,1.94,0.66c0.24,0.11,0.45,0.28,0.62,0.48
		c-0.32,0.11-0.62,0.23-0.94,0.34c0.27,0.09,0.54,0.2,0.8,0.32c-0.32,0.04-0.64-0.04-0.91-0.2l0.14-0.62
		c-0.25,0.09-0.48,0.16-0.71,0.25c0.16-0.14,0.3-0.28,0.46-0.41c-0.28-0.14-0.55-0.28-0.8-0.43c-0.02,0.18-0.03,0.36-0.02,0.55
		c-0.14-0.18-0.11-0.62-0.41-0.62c-0.39-0.07-0.39,0.43-0.39,0.69c0.11,0.46,0.64,0.75,0.57,1.28c0.09,0.07,0.16,0.14,0.25,0.21
		c-0.18,0.39-0.36,0.78-0.55,1.19l0.27,0.34c0.07,0.53,0.3,1.03,0.39,1.55c0.18,0.05,0.34,0.09,0.53,0.14
		c-0.05,0.07-0.14,0.16-0.18,0.23c-0.16,0.05-0.32,0.09-0.48,0.11c-0.01,0.47-0.15,0.93-0.41,1.32c0.18,0.23,0.36,0.46,0.53,0.69
		c-0.25,0.18-0.48,0.34-0.73,0.53c0.02,0.14,0.02,0.25,0.04,0.39l-0.55,0.62c-0.33,0.06-0.64,0.21-0.89,0.43l0.07-0.48
		c0.06-0.03,0.12-0.04,0.18-0.05c0.05-0.02,0.16-0.04,0.21-0.07c0.18-0.34,0.34-0.68,0.53-1.03c-0.05-0.04-0.14-0.16-0.18-0.2
		c0.14-0.25,0.25-0.5,0.39-0.75c-0.11-0.14-0.2-0.25-0.32-0.37c0.23-0.05,0.48-0.09,0.71-0.14c0.17-0.45,0.19-0.95,0.07-1.42
		c-0.15-0.43-0.17-0.9-0.07-1.35c-0.24-0.37-0.52-0.7-0.84-1c0.25-0.18,0.53-0.34,0.78-0.5c-0.4-0.56-0.63-1.21-0.68-1.89
		c-0.18-0.07-0.36-0.11-0.53-0.18c0.02-0.14,0.07-0.27,0.09-0.41C803.78,1240.2,804.12,1240.13,804.49,1240.08z"/>
	<path id="Tracé_36969" class="st4" d="M837.69,1240.63c0.14-0.25,0.27-0.5,0.43-0.75c0.17,0.12,0.25,0.32,0.21,0.53
		c-0.21,0.18-0.44,0.33-0.68,0.46c-0.5,0.23-0.64,0.82-1.12,1.07v-0.57C836.82,1240.99,837.23,1240.74,837.69,1240.63z"/>
	<path id="Tracé_36971" class="st0" d="M799.42,1240.68c0.61-0.23,1.27-0.32,1.92-0.25l0.18,0.18c-0.36,0.43,0.3,0.75,0.59,0.94
		c-0.04,0.09-0.11,0.18-0.16,0.27c0.17,0.4,0.24,0.84,0.18,1.28c-0.42,0.26-0.76,0.64-0.96,1.09c0.29,0.12,0.55,0.33,0.73,0.59
		c-0.18,0.09-0.34,0.18-0.53,0.28c0.3,0.2,0.62,0.43,0.91,0.64c-0.3,0.71-0.98,1.19-1.19,1.94c-0.15,0.52-0.41,1-0.75,1.41
		c-0.28-0.09-0.57-0.12-0.87-0.09c-0.81,0.15-1.59,0.44-2.3,0.87c-0.71-0.14-1.19,0.5-1.85,0.64c-0.07-0.2-0.15-0.39-0.25-0.57
		c0.13,0.03,0.26,0.06,0.39,0.07c0-0.18,0-0.37,0.02-0.55c0.16-0.09,0.32-0.16,0.48-0.23c-0.18-0.07-0.37-0.14-0.57-0.2
		c0.14-0.18,0.3-0.39,0.43-0.57c0.23,0.16,0.46,0.3,0.68,0.46c0-0.16-0.02-0.32-0.02-0.46c0.16,0.07,0.32,0.14,0.46,0.18
		c0.3-0.23,0.57-0.04,0.8,0.16c0.16-0.05,0.3-0.09,0.46-0.14c0.02,0.04,0.05,0.11,0.07,0.16c0.19-0.14,0.41-0.23,0.64-0.28
		c0.02-0.09,0.05-0.23,0.07-0.32c0.3,0.02,0.57,0.05,0.87,0.05c0.3-0.53,0.3-1.18,0-1.71c-0.14,0.07-0.3,0.14-0.43,0.21
		c0.11-0.41,0.28-0.84,0.41-1.26c-0.14-0.11-0.25-0.21-0.39-0.32c0.14-0.07,0.27-0.11,0.41-0.18c0.14-0.32,0.31-0.62,0.5-0.91
		c-0.04-0.16-0.16-0.32-0.09-0.5c0.09-0.32,0.5-0.3,0.75-0.39c0-0.27-0.02-0.55-0.02-0.8c-0.27-0.14-0.66-0.18-0.71-0.55h0.46
		c-0.03-0.09-0.04-0.18-0.04-0.27c-0.21,0.05-0.41,0.09-0.59,0.14c0-0.11,0.02-0.36,0.02-0.48c0.21-0.05,0.41-0.07,0.59-0.11
		c-0.05-0.07-0.09-0.16-0.14-0.23c-0.41,0.13-0.85,0.16-1.28,0.09c-0.02,0.18-0.02,0.34-0.04,0.53c-0.37-0.32-0.73,0.05-1.05,0.25
		c0.09,0.16,0.16,0.3,0.25,0.46c-0.18-0.09-0.36-0.18-0.55-0.25c-0.05,0.02-0.14,0.09-0.18,0.11c-0.04-0.09-0.11-0.25-0.16-0.34
		c-0.28,0.11-0.53,0.26-0.75,0.46c-0.03,0.19-0.03,0.38,0,0.57c-0.16,0.14-0.32,0.25-0.5,0.39c0.02,0.11,0.02,0.23,0.04,0.34
		l-0.27,0.34c0.17,0.06,0.32,0.16,0.43,0.3c-0.12,0.2-0.25,0.39-0.39,0.57c-0.11-0.07-0.25-0.14-0.37-0.21
		c0,0.16,0.02,0.32,0.02,0.48c-0.12,0.07-0.23,0.14-0.34,0.23c-0.44-0.3-1.03-0.27-1.44,0.07c0.29-0.41,0.53-0.85,0.71-1.32h0.46
		c0-0.11,0.02-0.23,0.02-0.36h0.32c0.18-0.27,0.37-0.55,0.53-0.84c-0.15,0-0.31,0-0.46,0.02c-0.14-0.21-0.25-0.41-0.39-0.62
		c0.21,0,0.43-0.02,0.64-0.02C796.96,1241.18,798.28,1241.09,799.42,1240.68z"/>
	<path id="Tracé_36972" class="st3" d="M804.24,1241.11c0-0.25,0-0.75,0.39-0.69c0.3,0,0.27,0.43,0.41,0.62
		c0-0.18,0.02-0.36,0.02-0.55c0.27,0.13,0.54,0.27,0.8,0.43c-0.16,0.14-0.3,0.27-0.46,0.41c0.23-0.09,0.48-0.16,0.71-0.25
		l-0.14,0.62c0.27,0.18,0.59,0.25,0.91,0.21c-0.27-0.11-0.55-0.23-0.8-0.32c0.32-0.11,0.62-0.23,0.94-0.34l0.09-0.02
		c0.39,0.43,0.94,0.69,1.19,1.21v0.09c-0.11,0.34,0.16,0.59,0.37,0.84c0.02-0.09,0.07-0.25,0.09-0.32c0.09,0.14,0.16,0.25,0.25,0.39
		c0.09-0.02,0.3-0.05,0.41-0.07c0.24,0.66,0.6,1.26,1.07,1.78c-0.06-0.56-0.09-1.12-0.09-1.69c-0.2-0.28-0.35-0.59-0.46-0.91
		l0.48,0.55c0.13,0.22,0.16,0.48,0.09,0.73c0.26,0.19,0.43,0.48,0.46,0.8c-0.09-0.02-0.3-0.07-0.41-0.09
		c0.1,0.28,0.24,0.55,0.41,0.8c-0.02,0.11-0.07,0.25-0.09,0.36c0.13,0.04,0.26,0.08,0.39,0.14c-0.14,0.07-0.27,0.11-0.39,0.18
		l-0.09,0.27l0.48,0.07c-0.21,0.16-0.47,0.25-0.73,0.25l-0.21,0.41l-0.34,0.07c-0.02,0.07-0.04,0.18-0.07,0.23h0.41
		c-0.02,0.13-0.04,0.26-0.04,0.39c0.21,0.09,0.41,0.18,0.64,0.27c-0.07,0.27-0.14,0.55-0.23,0.82l0.41,0.07
		c0.05,0.33,0.25,0.62,0.55,0.78c-0.09,0.14-0.16,0.25-0.25,0.39c0.42-0.01,0.83-0.06,1.23-0.16c0.14,0.27,0.24,0.57,0.3,0.87
		c-0.2-0.2-0.45-0.33-0.73-0.37c-0.16-0.02-0.3-0.07-0.46-0.09l-0.21,0.21c-0.71-0.07-1.3,0.34-1.98,0.43
		c-0.26,0.04-0.52,0.12-0.75,0.25c0,0.11,0,0.23-0.02,0.34c-0.66,0.14-0.98,0.8-1.58,1.07c-0.43,0.3-1.03,0.27-1.41,0.66
		c0.18,0.14,0.34,0.28,0.53,0.41c-0.53,0.19-1.08,0.32-1.64,0.39c0.12,0.09,0.25,0.18,0.39,0.25v0.36c-0.3-0.16-0.62-0.32-0.89-0.5
		c0.05-0.34-0.18-0.71-0.02-1.03c-0.34-0.11-0.84-0.23-1.03,0.21c-0.3,0.47-0.78,0.8-1.32,0.91c-0.02-0.21-0.05-0.43-0.09-0.64
		l-0.02-0.07c0.06-0.07,0.13-0.13,0.21-0.18c0.1-0.7,0.32-1.39,0.66-2.01c0.12-0.42,0.29-0.83,0.5-1.21
		c0.26-0.21,0.56-0.36,0.89-0.43l0.55-0.62c-0.02-0.14-0.02-0.25-0.04-0.39c0.25-0.16,0.5-0.34,0.73-0.53
		c-0.18-0.23-0.36-0.46-0.53-0.69c0.28-0.38,0.43-0.85,0.41-1.32c0.16-0.05,0.32-0.09,0.48-0.11c0.04-0.07,0.14-0.16,0.18-0.23
		c-0.18-0.05-0.34-0.09-0.53-0.14c-0.16-0.51-0.29-1.03-0.39-1.55l-0.27-0.34c0.18-0.39,0.36-0.8,0.55-1.19
		c-0.09-0.06-0.17-0.13-0.25-0.2C804.88,1241.86,804.35,1241.57,804.24,1241.11z"/>
	<path id="Tracé_36973" class="st2" d="M794.17,1241.06c0.07-0.16,0.11-0.34,0.18-0.5c0.16,0.07,0.3,0.14,0.46,0.21
		c-0.01,0.21-0.01,0.41,0,0.62c-0.2,0.02-0.39,0.02-0.59,0.05l-0.02-0.18c0.2,0.03,0.38-0.11,0.41-0.3
		C794.49,1240.97,794.29,1241.04,794.17,1241.06z"/>
	<path id="Tracé_36975" class="st0" d="M799.44,1240.97c0.43,0.07,0.87,0.04,1.28-0.09c0.04,0.07,0.09,0.16,0.14,0.23
		c-0.21,0.05-0.41,0.07-0.59,0.11c0,0.11-0.02,0.37-0.02,0.48c0.21-0.05,0.41-0.09,0.59-0.14c0.03,0.09,0.04,0.18,0.05,0.27h-0.46
		c0.05,0.36,0.43,0.41,0.71,0.55c0,0.27,0.02,0.55,0.02,0.8c-0.27,0.09-0.66,0.04-0.75,0.39c-0.05,0.16,0.07,0.32,0.09,0.5
		c-0.2,0.29-0.36,0.59-0.5,0.91c-0.14,0.07-0.27,0.11-0.41,0.18c0.14,0.11,0.25,0.2,0.39,0.32c-0.14,0.41-0.3,0.82-0.41,1.26
		c0.14-0.07,0.3-0.14,0.43-0.21c0.3,0.53,0.3,1.18,0,1.71c-0.3-0.02-0.57-0.02-0.87-0.04c-0.02,0.09-0.05,0.25-0.07,0.32
		c-0.23,0.05-0.44,0.15-0.64,0.27c-0.02-0.05-0.05-0.11-0.07-0.16c-0.16,0.05-0.3,0.09-0.46,0.14c-0.23-0.23-0.5-0.39-0.8-0.16
		c-0.16-0.07-0.32-0.14-0.46-0.18c0,0.16,0.02,0.32,0.02,0.46c-0.23-0.16-0.46-0.3-0.68-0.46c-0.14,0.18-0.3,0.39-0.43,0.57
		c0.18,0.07,0.36,0.14,0.57,0.21c-0.16,0.07-0.32,0.16-0.48,0.23c0,0.18,0,0.37-0.02,0.55c-0.13-0.03-0.26-0.06-0.39-0.07
		l-0.14-0.04c-0.06-0.03-0.12-0.06-0.18-0.07c-0.07-0.3-0.14-0.62-0.18-0.91l0.82-0.14c-0.31-0.24-0.56-0.54-0.73-0.89
		c0.46,0.14,0.94,0.34,1.37,0.02c0.3,0.14,0.59,0.3,0.89,0.43c0.18-0.05,0.36-0.07,0.55-0.11c-0.11-0.09-0.22-0.19-0.32-0.3
		c-0.05-0.35-0.16-0.69-0.34-1c-0.11,0.14-0.25,0.27-0.36,0.43c-0.18-0.14-0.34-0.25-0.53-0.39c-0.16,0.14-0.32,0.3-0.46,0.43
		c0.07,0.09,0.13,0.2,0.18,0.3c-0.16,0.02-0.34,0.07-0.5,0.09c-0.05-0.08-0.1-0.16-0.16-0.23c0.11-0.14,0.25-0.3,0.36-0.43
		c-0.25-0.3-0.53-0.57-0.84-0.8c-0.25-0.05-0.48-0.05-0.73-0.07c0.09-0.02,0.3-0.07,0.39-0.09c0-0.18-0.02-0.37-0.02-0.55
		c0.18,0.14,0.36,0.25,0.57,0.39c0.02-0.25,0.04-0.5,0.04-0.75h-0.64l0.04-0.05c0.42-0.33,0.99-0.36,1.44-0.07
		c0.12-0.07,0.23-0.15,0.34-0.23c0-0.16-0.02-0.32-0.02-0.48c0.11,0.07,0.23,0.14,0.36,0.21c0.14-0.18,0.27-0.37,0.39-0.57
		c-0.12-0.13-0.27-0.24-0.43-0.3l0.27-0.34c-0.02-0.11-0.02-0.23-0.05-0.34c0.16-0.11,0.32-0.25,0.5-0.39
		c-0.02-0.19-0.02-0.38,0-0.57c0.22-0.19,0.48-0.35,0.75-0.46c0.05,0.09,0.11,0.25,0.16,0.34c0.05-0.02,0.14-0.09,0.18-0.11
		c0.18,0.09,0.36,0.18,0.55,0.25c-0.09-0.16-0.16-0.3-0.25-0.46c0.3-0.21,0.68-0.55,1.05-0.25
		C799.4,1241.31,799.42,1241.15,799.44,1240.97z"/>
	<path id="Tracé_36977" class="st3" d="M792.39,1241.77c0.41-0.49,1.01-0.78,1.64-0.8c0,0.18-0.02,0.36-0.02,0.55
		c-0.11-0.14-0.21-0.27-0.32-0.41c-0.07,0.5-0.68,0.34-1.03,0.48C792.57,1241.64,792.48,1241.7,792.39,1241.77z"/>
	<path id="Tracé_36978" class="st0" d="M833.63,1241.22l0.41-0.14c0.02,0.11,0.07,0.23,0.09,0.34c0.07,0.02,0.18,0.09,0.25,0.11
		c0-0.16-0.02-0.32-0.02-0.5c0.42,0.28,0.94,0.37,1.44,0.25c0.08,0.08,0.16,0.16,0.25,0.23l-0.11,0.05
		c-0.08,0.22-0.1,0.46-0.04,0.68c0.09,0.11,0.16,0.23,0.25,0.34l-0.82,0.07c-0.25,0.34-0.48,0.71-0.75,1.03
		c-0.07,0.04-0.14,0.08-0.21,0.14c-0.3,0.07-0.57,0.14-0.87,0.21v0.73c0,0.11,0,0.21,0.02,0.32c-0.4,0.4-0.77,0.83-1.12,1.28
		c0.62-0.34,1.12-1.07,1.92-0.82c-0.11,0.02-0.32,0.09-0.41,0.11c-0.1,0.27-0.15,0.56-0.16,0.84c-0.12,0-0.24,0-0.36-0.02
		c0-0.09,0.02-0.25,0.02-0.32c-0.16,0.14-0.3,0.27-0.46,0.39c-0.15,0.02-0.3,0.03-0.46,0.02c-0.11,0.25-0.23,0.5-0.37,0.75
		c-0.14,0.07-0.27,0.11-0.41,0.18v0.02c-0.03,0.13-0.06,0.26-0.07,0.39c-0.14,0.18-0.39,0.5-0.07,0.62c0.2-0.48,0.53-0.89,0.96-1.19
		c0.14-0.02,0.27-0.07,0.41-0.09c-0.02-0.09-0.07-0.3-0.09-0.39l0.09,0.02c0.14,0.05,0.27,0.09,0.43,0.16
		c-0.02,0.09-0.09,0.25-0.11,0.34c0.09,0.02,0.25,0.05,0.32,0.07c-0.16,0.2-0.53,0.2-0.68,0.46c-0.37,0.28-0.59,0.89-1.14,0.73
		c-0.05,0.18-0.09,0.36-0.14,0.55c-0.04-0.07-0.16-0.21-0.23-0.3c-0.02,0.21,0.14,0.57-0.25,0.53c-0.25-0.09-0.27-0.39-0.34-0.59
		c0.08-0.08,0.16-0.16,0.25-0.23l-0.32,0.16c-0.03,0.13-0.04,0.26-0.05,0.39c-0.53-0.09,0,0.23,0.07,0.36
		c-0.27,0.14-0.49,0.36-0.62,0.64c-0.12,0-0.24,0.02-0.36,0.04c-0.33,0.48-0.77,0.88-1.28,1.16c-0.3,0.21-0.07,0.59-0.18,0.87
		c-0.23,0.23-0.5,0.41-0.75,0.62c0.05,0.08,0.12,0.16,0.18,0.23c-0.02,0.02-0.05,0.09-0.07,0.11c-0.09-0.1-0.17-0.2-0.23-0.32
		c-0.23-0.17-0.48-0.33-0.73-0.48c-0.07,0.21-0.14,0.42-0.18,0.64c-0.16-0.07-0.32-0.11-0.46-0.16c0.05,0.23,0.09,0.46,0.14,0.71
		c-0.14,0.32-0.3,0.64-0.43,0.94c-0.25,0.05-0.48,0.07-0.73,0.11c0.03,0.04,0.05,0.09,0.07,0.14c-0.02,0.07-0.07,0.23-0.09,0.3
		c0.09,0.12,0.24,0.18,0.39,0.16c-0.04,0.11-0.09,0.21-0.14,0.32c-0.07,0.02-0.21,0.09-0.28,0.11c-0.02,0.05-0.04,0.16-0.07,0.2
		c-0.03-0.08-0.06-0.15-0.09-0.23l-0.04-0.09l-0.02-0.07c-0.07-0.05-0.23-0.11-0.3-0.16c-0.07,0.57-0.32,1.1-0.71,1.53
		c-0.11-0.07-0.25-0.14-0.36-0.21c-0.21,0.46-0.32,0.96-0.3,1.46l-0.53-0.07c-0.11,0.23-0.21,0.48-0.32,0.71
		c-0.17-0.07-0.35-0.13-0.53-0.18c0.02,0.11,0.07,0.25,0.09,0.36c-0.34,0.16-0.66,0.37-0.66,0.78l0.21,0.07
		c-0.16,0.07-0.34,0.16-0.5,0.23c-0.02,0.09-0.07,0.3-0.09,0.39l-0.09-0.07c-0.07-0.05-0.21-0.16-0.27-0.21
		c-0.21,0.02-0.39,0.02-0.59,0.05c-0.02,0.18-0.02,0.36-0.04,0.55c-0.32,0.32-0.55,0.71-0.84,1.05c-0.3,0.16-0.6,0.29-0.91,0.41
		c0.03,0.15,0.04,0.3,0.04,0.46l0.02,0.11c-0.08,0.03-0.16,0.07-0.23,0.11c-0.35,0.21-0.66,0.48-0.91,0.8
		c0.07,0.16,0.11,0.3,0.18,0.46c-0.27,0.32-0.57,0.64-1.03,0.55c-0.25,0.5-0.89,0.64-1.23,1.1c-0.23,0.25-0.5,0.46-0.8,0.62
		c-0.14,0.62-0.8,0.87-1.16,1.32c-0.53,0.34-0.91,0.87-1.53,1.05c0,0.09-0.02,0.27-0.02,0.36c-0.48,0.22-0.92,0.51-1.3,0.87
		c-0.25,0.02-0.5,0.09-0.73,0.18c-0.3,0.14-0.59,0.3-0.87,0.46c-0.15,0.08-0.31,0.12-0.48,0.11c-0.27-0.04-0.55-0.11-0.84-0.16
		c0.16-0.07,0.3-0.16,0.46-0.23c0.21,0.02,0.41,0.14,0.59,0c0.82-0.48,1.89-0.62,2.44-1.46c-0.71,0.25-1.38,0.58-2.01,0.98
		c-0.05-0.14-0.07-0.27-0.11-0.41c0.28-0.22,0.54-0.46,0.78-0.73l0.21,0.41c0.13-0.13,0.28-0.26,0.43-0.37
		c0.25-0.04,0.5-0.07,0.75-0.11c0.94-0.41,1.35-1.76,2.49-1.78c-0.02-0.12-0.05-0.23-0.09-0.34c0.21-0.18,0.41-0.34,0.59-0.53
		c-0.16,0.04-0.32,0.07-0.46,0.11c0.16-0.34,0.25-0.72,0.25-1.1c-0.25,0.12-0.47,0.3-0.64,0.53c-0.05-0.14-0.07-0.25-0.11-0.36
		c0.21-0.07,0.43-0.14,0.64-0.2c-0.23-0.39-0.71-0.28-1.07-0.3l-0.39,0.39c0.09,0.11,0.16,0.25,0.25,0.36
		c-0.49-0.29-1.1-0.28-1.57,0.02c-0.36-0.27-0.73-0.09-1.1,0.05c-0.46-0.02-0.91-0.1-1.35-0.25c-0.24,0.28-0.53,0.52-0.84,0.71
		c0.05-0.19,0.11-0.37,0.18-0.55h0.41c0.07-0.46,0.02-0.92-0.16-1.35c-0.21-0.53-0.84-0.5-1.3-0.5c-0.18,0.23-0.39,0.48-0.57,0.73
		c-0.32-0.07-0.55-0.36-0.55-0.68L805,1264c-0.23,0-0.46-0.02-0.66-0.02c0.36,0.25,0.78,0.39,1.16,0.62
		c-0.59-0.02-1.18-0.14-1.73-0.34c-0.14-0.04-0.27-0.04-0.36-0.14c0.04-0.13,0.1-0.25,0.16-0.37c-0.07-0.46,0.02-0.96-0.3-1.35
		c-0.11,0.16-0.23,0.3-0.34,0.46c-0.35,0.1-0.68,0.25-0.98,0.46c-0.21-0.02-0.41-0.07-0.59-0.09v-0.62
		c-0.23,0.09-0.46,0.21-0.68,0.3c-0.25-0.07-0.48-0.16-0.73-0.23c0.21-0.11,0.39-0.25,0.59-0.37c-0.11-0.02-0.32-0.09-0.43-0.11
		c0.25-0.11,0.5-0.23,0.75-0.32c0.15,0.02,0.29,0.05,0.43,0.09c0.02-0.09,0.09-0.27,0.11-0.34c-0.25-0.02-0.5-0.07-0.75-0.09
		c-0.02-0.27-0.05-0.55-0.07-0.8c-0.54,0.46-0.88,1.12-0.94,1.82c-0.26-0.28-0.53-0.54-0.82-0.78c-0.1,0.1-0.19,0.21-0.27,0.32
		c0.02-0.18,0.02-0.36,0.05-0.53c0.09,0,0.27,0.02,0.36,0.02c-0.07-0.25-0.36-0.5-0.18-0.78c0.27-0.5,0.2-1.07,0.48-1.57
		c0.39-0.98,0.87-1.92,1.3-2.88c0.11-0.75,0.62-1.39,0.8-2.12c0.09-0.25,0.21-0.49,0.37-0.71c0.02,0.2,0.07,0.43,0.09,0.64
		c0.54-0.12,1.02-0.44,1.32-0.91c0.18-0.41,0.68-0.32,1.03-0.21c-0.16,0.32,0.07,0.68,0.02,1.03c0.3,0.18,0.59,0.34,0.89,0.5v-0.36
		c-0.12-0.09-0.25-0.18-0.39-0.25c0.56-0.08,1.11-0.21,1.64-0.39c-0.18-0.14-0.34-0.27-0.53-0.41c0.39-0.39,0.98-0.37,1.41-0.66
		c0.59-0.27,0.91-0.94,1.57-1.07c0-0.11,0-0.23,0.02-0.34c0.23-0.14,0.49-0.23,0.75-0.25c0.68-0.09,1.28-0.53,1.99-0.43l0.21-0.2
		c0.16,0.02,0.3,0.07,0.46,0.09l-0.48,0.07c0.11,0.08,0.22,0.16,0.34,0.23c0.13,0.33,0.33,0.63,0.57,0.89
		c-0.04,0.09-0.08,0.17-0.14,0.25c-0.43-0.14-0.98-0.23-1.28,0.23c0.14,0.21,0.32,0.39,0.48,0.59c-0.16,0.06-0.32,0.1-0.48,0.14
		c0.62,0.05,1.05-0.46,1.53-0.75c0.09,0.25,0.16,0.48,0.25,0.73c-0.16,0.3-0.41,0.62-0.27,0.98c0.13,0.44,0.12,0.92-0.05,1.35
		c-0.02-0.07-0.07-0.21-0.09-0.25c-0.11,0.09-0.22,0.18-0.32,0.27c-0.11-0.09-0.23-0.16-0.34-0.25v0.57c-0.15,0-0.3,0-0.46-0.02
		c0.09,0.09,0.16,0.18,0.25,0.27c-0.25,0.07-0.48,0.14-0.73,0.21c0-0.16,0.02-0.34,0.02-0.5c-0.27,0.07-0.55,0.14-0.82,0.23
		c-0.34-0.09-0.68-0.18-1.03-0.3c-0.05,0.02-0.11,0.07-0.16,0.09c0.18,0.03,0.37,0.07,0.55,0.11c-0.27,0.28-0.68,0.23-1.05,0.28
		c-0.05,0.32-0.11,0.64-0.18,0.96c0.26,0.37,0.55,0.72,0.87,1.05c-0.17,0.15-0.35,0.29-0.55,0.41c-0.05-0.11-0.14-0.32-0.18-0.43
		c-0.04,0.3,0,0.73-0.39,0.82c-0.48-0.16-0.37-0.71-0.41-1.1c-0.39-0.07-0.78-0.05-0.91,0.36c0.21,0.02,0.41,0.02,0.62,0.05
		l-0.36,0.36c-0.09-0.05-0.18-0.09-0.27-0.11c-0.1,0.04-0.2,0.08-0.3,0.14c0.23,0.14,0.46,0.25,0.68,0.39
		c-0.18,0.09-0.34,0.18-0.53,0.27c0.22,0.43,0.63,0.74,1.1,0.84l0.36-0.36c-0.11-0.25-0.21-0.5-0.32-0.75
		c0.45,0.02,0.89,0.09,1.32,0.2c-0.22,0.09-0.45,0.16-0.68,0.21c-0.02,0.11-0.04,0.25-0.07,0.39c0.18-0.01,0.35,0.04,0.5,0.14
		c0.05-0.05,0.11-0.14,0.16-0.18c0.02,0.07,0.07,0.18,0.09,0.25c-0.11,0.14-0.23,0.25-0.34,0.39c0.3,0.02,0.66-0.02,0.89,0.21
		c-0.34,0.09-0.66,0.25-0.94,0.48c-0.06-0.15-0.12-0.3-0.16-0.46c-0.16,0.14-0.32,0.25-0.48,0.39h-0.48c0.09,0.14,0.2,0.25,0.3,0.39
		c-0.29,0.05-0.5,0.3-0.5,0.59c0.31-0.15,0.64-0.24,0.98-0.25c0.25-0.35,0.63-0.58,1.05-0.66c-0.18,0.29-0.38,0.56-0.59,0.82
		c0.5,0.11,0.59,0.62,0.66,1.05c0.21,0.07,0.41,0.11,0.62,0.18c0.25-0.2,0.46-0.44,0.62-0.71c0.11-0.03,0.23-0.04,0.34-0.05
		c0.07-0.26,0.18-0.5,0.32-0.73c0.41-0.16,0.75,0.23,1.03,0.46c0.11-0.04,0.23-0.07,0.34-0.11c0.05,0.02,0.11,0.09,0.16,0.11
		c0-0.11,0.02-0.32,0.02-0.43l0.55,0.14c-0.14,0.14-0.25,0.27-0.39,0.41c0.18,0,0.35,0,0.53-0.02c0.02-0.07,0.04-0.23,0.07-0.32
		c0.12,0.01,0.24,0.02,0.36,0.05c0.07-0.11,0.14-0.25,0.21-0.36c-0.11-0.14-0.23-0.27-0.32-0.41c-0.56,0.37-1.25,0.52-1.92,0.41
		c0.04-0.07,0.16-0.16,0.21-0.23c0.64-0.09,1.23-0.35,1.73-0.75v0.34c0.16-0.07,0.32-0.14,0.46-0.21c0.02-0.16,0.05-0.3,0.07-0.43
		c-0.13-0.06-0.27-0.11-0.41-0.14c-0.04-0.07-0.11-0.21-0.16-0.3c-0.44-0.2-0.93-0.24-1.39-0.11c0.01-0.13,0.02-0.26,0.04-0.39
		c0.24-0.22,0.51-0.41,0.8-0.55v0.46c0.21,0.11,0.41,0.21,0.64,0.32c0.11-0.09,0.23-0.21,0.34-0.3c0.35,0.26,0.68,0.53,1,0.82
		c0.1,0.32,0.16,0.65,0.18,0.98l-0.48-0.07c-0.02,0.07-0.05,0.18-0.07,0.25c-0.16,0.02-0.3,0.05-0.43,0.07
		c0.07,0.11,0.16,0.23,0.23,0.37c-0.07,0.09-0.13,0.18-0.18,0.27c0.14,0.16,0.3,0.32,0.46,0.5c-0.05-0.23-0.09-0.43-0.11-0.66
		c0.16,0.1,0.31,0.21,0.46,0.32c0.14-0.31,0.35-0.6,0.62-0.82c-0.09-0.13-0.18-0.27-0.25-0.41c0.3-0.07,0.59-0.16,0.89-0.25
		c-0.19-0.13-0.37-0.28-0.55-0.43c-0.01-0.17-0.01-0.33,0-0.5c0.09,0.11,0.19,0.21,0.3,0.3c0.04-0.05,0.14-0.11,0.16-0.14l0.14,0.34
		c0.09-0.21,0.41-0.36,0.3-0.62c-0.18-0.18-0.38-0.34-0.59-0.48c0.05-0.05,0.1-0.12,0.14-0.18l-0.75-0.68
		c-0.07,0.04-0.11,0.07-0.18,0.11c-0.09-0.07-0.17-0.15-0.25-0.23c-0.51,0.38-1.03,0.73-1.57,1.05c0-0.14,0.02-0.25,0.02-0.39
		c-0.48-0.44-1.02-0.8-1.6-1.07c-0.16-0.26-0.34-0.51-0.53-0.75c0.4-0.36,0.65-0.86,0.71-1.39c0.09-0.05,0.27-0.11,0.36-0.16
		c-0.04,0.11-0.07,0.25-0.11,0.39c0.05,0.02,0.11,0.07,0.16,0.09c-0.07,0.1-0.14,0.2-0.21,0.3l0.07,0.41
		c-0.11,0.07-0.23,0.14-0.32,0.21c0.04,0.07,0.07,0.11,0.11,0.18c-0.04,0.13-0.1,0.25-0.16,0.36c0.23,0.05,0.43,0.11,0.66,0.16
		c0.26-0.12,0.53-0.23,0.8-0.32c0.05-0.05,0.14-0.16,0.18-0.21c-0.16,0.05-0.32,0.07-0.48,0.11c0.14-0.31,0.2-0.66,0.18-1
		c0.08-0.04,0.16-0.07,0.25-0.09c0.04-0.11,0.11-0.2,0.16-0.32c0.1-0.04,0.2-0.08,0.3-0.14c0.16-0.14,0.32-0.25,0.48-0.39
		c-0.05,0.53-0.32,1.09,0,1.62c-0.32-0.07-0.62-0.11-0.94-0.16c0.34,0.2,0.71,0.55,1.14,0.5c0.21-0.18,0.18-0.5,0.28-0.73
		c-0.18-0.14-0.39-0.25-0.57-0.39c0.16-0.02,0.32-0.07,0.48-0.09c-0.09-0.07-0.28-0.18-0.39-0.25c0.56-0.25,1.14-0.45,1.73-0.59
		c0.62-0.09,1.07-0.59,1.69-0.66l-0.27-0.34c0.49-0.07,0.96-0.2,1.41-0.39c0-0.27,0-0.55-0.02-0.82c-0.28,0.14-0.57,0.28-0.84,0.41
		c-0.02-0.07-0.07-0.18-0.09-0.23c-0.07-0.04-0.23-0.09-0.3-0.14c0-0.07,0.02-0.21,0.02-0.3c0.22-0.02,0.44-0.05,0.66-0.09
		l-0.21-0.27c0.46-0.12,0.94-0.06,1.35,0.18c0,0.09,0,0.18-0.02,0.27c0.24,0.12,0.47,0.26,0.68,0.41c-0.03,0.2-0.04,0.41-0.04,0.62
		c0.36-0.48,0.66-0.98,1-1.48c0.18-0.02,0.36-0.07,0.53-0.09c0-0.16,0.02-0.32,0.02-0.5c-0.37,0.18-0.69,0.47-0.91,0.82
		c-0.14,0.27-0.43,0.32-0.71,0.39c0.02-0.39,0.05-0.8,0.09-1.19c0.11-0.16,0.25-0.32,0.36-0.46c-0.26-0.05-0.52-0.09-0.78-0.11
		c0.3-0.87,1.3-1.12,2.01-1.57c0.66-0.32,1-1,1.64-1.37c0.06,0.13,0.13,0.26,0.21,0.39c0.46,0.23,1,0.21,1.44-0.04l-0.3-0.3
		c0.09-0.11,0.18-0.2,0.27-0.32c0.07,0.11,0.18,0.32,0.25,0.41c0.02-0.11,0.07-0.23,0.09-0.32c-0.39-0.43-0.02-0.91,0.18-1.35
		c0.23,0.23,0.43,0.48,0.71,0.71c0.33-0.13,0.68-0.23,1.03-0.3c0.05-0.23,0.07-0.48,0.11-0.71c-0.16-0.02-0.32-0.07-0.48-0.09
		l0.55-0.34c0.07,0.14,0.11,0.3,0.18,0.43c0.55-0.55,1.51-0.64,1.76-1.44c0.32,0.02,0.64,0.07,0.98,0.09
		c0.11-0.49,0.41-0.92,0.82-1.21c0.25-0.02,0.59,0.16,0.73-0.14c0.23-0.46,0.43-0.94,0.71-1.37c0.25-0.04,0.53-0.09,0.78-0.14
		C833.74,1241.57,833.68,1241.4,833.63,1241.22z"/>
	<path id="Tracé_36979" class="st2" d="M841.12,1241.25c0.23-0.16,0.43,0.23,0.23,0.39
		C841.14,1241.79,840.91,1241.38,841.12,1241.25z"/>
	<path id="Tracé_36980" class="st0" d="M844.31,1241.68c-0.34-0.11-0.07-0.48,0.16-0.21
		C844.43,1241.52,844.36,1241.64,844.31,1241.68z"/>
	<path id="Tracé_36981" class="st2" d="M791.18,1242.07c0.34-0.21,0.74-0.33,1.14-0.34c-0.09,0.16-0.16,0.3-0.25,0.46
		c-0.45-0.06-0.89,0.13-1.16,0.48c-0.23,0.07-0.44,0.18-0.64,0.32c-0.37,0.09-0.73,0.25-1.05,0.46c-0.07-0.05-0.15-0.1-0.23-0.14
		C789.69,1242.84,790.42,1242.43,791.18,1242.07z"/>
	<path id="Tracé_36982" class="st4" d="M835.89,1242.25c-0.05-0.23-0.04-0.47,0.04-0.69c0.16,0.18,0.32,0.36,0.46,0.55
		C836.23,1242.18,836.06,1242.22,835.89,1242.25z"/>
	<path id="Tracé_36983" class="st0" d="M837.21,1241.66c0.25-0.11,0.41,0.27,0.11,0.32C837.1,1242.09,836.92,1241.7,837.21,1241.66
		z"/>
	<path id="Tracé_36984" class="st2" d="M838.68,1241.66c0.18,0.11,0.18,0.2-0.02,0.3C838.47,1241.86,838.47,1241.75,838.68,1241.66
		z"/>
	<path id="Tracé_36985" class="st0" d="M842.67,1242.09c0.48-0.18,0.98-0.32,1.48-0.39l-0.18,0.27c-0.34,0.11-0.8,0.14-0.94,0.55
		c-0.09,0-0.18,0-0.27-0.02c0,0.04-0.02,0.11-0.02,0.16l0.46-0.11c-0.16,0.23-0.38,0.41-0.64,0.53
		C842.6,1242.75,842.62,1242.41,842.67,1242.09z"/>
	<path id="Tracé_36986" class="st0" d="M823.68,1243.09c0.89-0.09,1.41-1.05,2.28-1.12c0,0.09,0.02,0.19,0.04,0.28
		c-0.27,0.43-0.75,0.62-1.12,0.96c-0.07,0.16-0.14,0.3-0.21,0.46c-0.28,0.05-0.56,0.13-0.82,0.25c-0.16,0.11-0.3,0.23-0.46,0.37
		c-0.32,0.14-0.66,0.23-0.98,0.36c0.07,0.09,0.14,0.16,0.21,0.25c0.27-0.09,0.56-0.09,0.82,0c-0.16,0.02-0.41,0.39-0.11,0.39
		l0.27-0.09c0.02,0.07,0.04,0.18,0.07,0.25c-0.09,0.11-0.18,0.21-0.27,0.32c0-0.09,0.02-0.25,0.02-0.34
		c-0.09,0.02-0.25,0.09-0.34,0.11v0.37c-0.08,0.05-0.16,0.1-0.23,0.16c-0.64,0.04-0.94,0.64-1.21,1.14c-0.36,0.16-0.7,0.36-1,0.62
		c-0.06-0.08-0.12-0.16-0.18-0.23c-0.21,0.49-0.56,0.9-1,1.19c-0.25-0.05-0.48-0.11-0.73-0.16c0.21-0.16,0.39-0.34,0.57-0.5
		l0.48-0.14c-0.05-0.07-0.11-0.23-0.16-0.32c0.09-0.43,0.46-0.89,0.25-1.35c-0.18,0.07-0.36,0.15-0.53,0.25
		c-0.01,0.08-0.02,0.15-0.05,0.23l0.02-0.18c0-0.09,0.02-0.25,0.02-0.34c0.09,0,0.25-0.02,0.34-0.02c0.07-0.14,0.13-0.28,0.18-0.43
		c0.21-0.05,0.48,0,0.59-0.21c0.27-0.43,0.8-0.57,1.1-0.98c0.21-0.05,0.39-0.11,0.59-0.16c0.13-0.21,0.24-0.43,0.32-0.66
		c0.05,0.02,0.16,0.09,0.21,0.11c0.27-0.2,0.55-0.39,0.84-0.55C823.6,1243.29,823.65,1243.2,823.68,1243.09z"/>
	<path id="Tracé_36987" class="st0" d="M993.09,1243.57c2.55-1.19,5.36-1.74,8.17-1.6c4.04-0.19,8.05,0.86,11.48,3.01
		c-0.16,0.28-0.36,0.53-0.59,0.75c-0.64,0.69-1.26,1.39-1.94,2.03c-2.83-1.53-6.01-2.28-9.22-2.17c-1.78-0.07-3.55,0.16-5.25,0.71
		c-0.75,0.3-1.57,0.91-1.51,1.8c-0.07,0.84,0.73,1.39,1.44,1.6c1.83,0.4,3.7,0.63,5.57,0.71c1.78,0.11,3.56,0.27,5.32,0.55
		c1.73,0.21,3.4,0.73,4.93,1.55c1.14,0.64,1.97,1.73,2.26,3.01c0.37,1.57,0.13,3.21-0.66,4.61c-0.73,1.14-1.78,2.05-3.01,2.6
		c-2.46,1.02-5.11,1.52-7.78,1.46c-4.63,0.02-9.52-0.84-13.3-3.7c0.68-1.03,1.46-1.98,2.21-2.94c4.04,2.54,8.86,3.56,13.58,2.85
		c1.27-0.13,2.5-0.55,3.58-1.23c0.71-0.47,1.11-1.28,1.07-2.12c-0.12-0.8-0.66-1.48-1.42-1.78c-1.14-0.47-2.35-0.74-3.58-0.78
		c-2.21-0.16-4.45-0.18-6.66-0.36c-1.75-0.09-3.47-0.48-5.09-1.14c-1.05-0.45-1.9-1.25-2.42-2.26c-0.45-1.05-0.56-2.22-0.3-3.33
		C990.4,1245.73,991.54,1244.33,993.09,1243.57z"/>
	<path id="Tracé_36988" class="st4" d="M838.86,1242.25c0.18,0.09,0.34,0.2,0.53,0.3c-0.38,0.43-0.79,0.83-1.23,1.19h-0.18
		c-0.09,0-0.3,0.02-0.39,0.02C838.04,1243.28,838.38,1242.71,838.86,1242.25z"/>
	<path id="Tracé_36989" class="st4" d="M842.17,1242.32c0.21-0.21,0.32,0.16,0.16,0.28
		C842.14,1242.82,841.98,1242.43,842.17,1242.32z"/>
	<path id="Tracé_36990" class="st0" d="M808.69,1243.35c-0.18-0.25-0.48-0.5-0.37-0.84c0.18,0.14,0.34,0.31,0.46,0.5
		C808.76,1243.09,808.71,1243.25,808.69,1243.35z"/>
	<path id="Tracé_36991" class="st0" d="M854.26,1263.7c-0.02-7.05-0.02-14.13,0-21.18h6.16c4.79,5.84,9.54,11.73,14.36,17.57
		c0.04-5.86,0-11.71,0.02-17.57h4.15v21.18h-6.12c-0.25-0.14-0.39-0.41-0.59-0.62c-3.83-4.7-7.67-9.4-11.5-14.1
		c-0.8-0.96-1.53-1.94-2.35-2.85c-0.04,5.87,0,11.73-0.02,17.57C857.02,1263.7,855.63,1263.68,854.26,1263.7z"/>
	<path id="Tracé_36992" class="st0" d="M909.33,1242.52c8.12-0.02,16.25,0,24.37,0c0.02,1.26,0,2.51,0,3.77H923.6
		c-0.02,5.8,0.02,11.62-0.02,17.41h-4.09c-0.05-5.14,0-10.27-0.02-15.41c0.03-0.67,0.01-1.34-0.07-2.01
		c-3.35,0.02-6.71,0.02-10.09,0C909.33,1245.01,909.31,1243.76,909.33,1242.52z"/>
	<path id="Tracé_36993" class="st0" d="M938.25,1242.5h4.15v21.18h-3.06c-0.38,0.04-0.75,0.01-1.12-0.09
		C938.27,1256.58,938.23,1249.55,938.25,1242.5z"/>
	<path id="Tracé_36994" class="st0" d="M947.38,1242.5h5.2l6.78,6.71c0.4,0.44,0.85,0.85,1.32,1.21c2.67-2.62,5.32-5.29,7.99-7.92
		c1.73,0.02,3.47,0,5.2,0.02c-3.31,3.31-6.69,6.53-10,9.81c-0.18,0.21-0.46,0.36-0.57,0.62c1.96,2.01,4.02,3.9,6,5.86
		c1.28,1.28,2.58,2.53,3.88,3.79c0.37,0.31,0.7,0.66,0.98,1.05c-1.71,0.02-3.45,0-5.16,0c-2.69-2.69-5.43-5.34-8.15-8.01
		c-0.09-0.14-0.29-0.18-0.43-0.09c-0.01,0.01-0.02,0.01-0.03,0.02c-2.35,2.28-4.68,4.61-7.01,6.91c-0.43,0.37-0.78,0.82-1.23,1.16
		c-1.71,0.02-3.45,0.02-5.16,0c2.03-2.05,4.13-4.04,6.18-6.07c1.6-1.57,3.2-3.13,4.79-4.68
		C954.45,1249.46,950.89,1246.02,947.38,1242.5z"/>
	<path id="Tracé_36995" class="st0" d="M979.69,1243.92c-0.04-0.47-0.01-0.95,0.09-1.41c1.37,0.02,2.72,0,4.08,0.02v21.18
		c-1.35,0-2.72-0.02-4.06,0.02c-0.08-0.16-0.11-0.33-0.09-0.5C979.69,1256.79,979.68,1250.35,979.69,1243.92z"/>
	<path id="Tracé_36996" class="st0" d="M836.11,1242.96c0.16,0,0.5-0.02,0.68-0.02c-0.24,0.29-0.52,0.54-0.84,0.73
		c-0.09,0-0.28,0.02-0.34,0.02c0.11-0.1,0.21-0.21,0.3-0.32l-0.18-0.02l0.75-0.21L836.11,1242.96z"/>
	<path id="Tracé_36997" class="st2" d="M840.57,1243.07c0.09,0.02,0.3,0.07,0.39,0.09c-0.21,0.27-0.47,0.49-0.78,0.64
		C840.32,1243.57,840.43,1243.32,840.57,1243.07z"/>
	<path id="Tracé_36998" class="st3" d="M787.92,1244.08c0.2-0.36,0.55-0.62,0.96-0.71c0,0.16-0.03,0.33-0.09,0.48
		c-0.15,0-0.31,0-0.46,0.02c-0.04,0.14-0.09,0.3-0.14,0.43c-0.07-0.02-0.21-0.05-0.27-0.07c-0.18,0.14-0.37,0.3-0.53,0.43
		c0-0.11-0.02-0.32-0.02-0.43C787.55,1244.17,787.73,1244.12,787.92,1244.08z"/>
	<path id="Tracé_36999" class="st0" d="M802.09,1243.28c0.23,0.1,0.41,0.28,0.53,0.5c-0.31,0.12-0.65,0.13-0.96,0.02
		C801.79,1243.62,801.93,1243.46,802.09,1243.28z"/>
	<path id="Tracé_37000" class="st4" d="M825.12,1243.85c-0.02-0.07-0.05-0.16-0.07-0.23c0.04,0.07,0.11,0.2,0.14,0.25h0.18
		c-0.09,0.23-0.18,0.46-0.28,0.68c-0.12,0.09-0.23,0.19-0.34,0.3c-0.02-0.23-0.07-0.48-0.09-0.71
		C824.82,1244.03,824.98,1243.94,825.12,1243.85z"/>
	<path id="Tracé_37001" class="st0" d="M825.8,1244.3c0.09-0.3,0.23-0.75,0.64-0.64C826.78,1244.05,826.12,1244.3,825.8,1244.3z"/>
	<path id="Tracé_37002" class="st3" d="M841.12,1243.55c0.14,0.19,0.36,0.3,0.59,0.3c-0.02,0.05-0.07,0.16-0.09,0.21
		c-0.14-0.09-0.27-0.16-0.41-0.25c-0.07,0.2-0.14,0.43-0.21,0.64c-0.09,0-0.3,0.02-0.41,0.02c0.1-0.19,0.24-0.35,0.41-0.48
		C841.05,1243.85,841.09,1243.7,841.12,1243.55z"/>
	<path id="Tracé_37003" class="st2" d="M833.49,1244.05c0.3-0.07,0.57-0.14,0.87-0.21c-0.2,0.38-0.5,0.71-0.87,0.94
		C833.47,1244.53,833.49,1244.28,833.49,1244.05z"/>
	<path id="Tracé_37004" class="st0" d="M825.37,1243.87h0.39c0,0.11,0.02,0.36,0.02,0.5c-0.23,0.07-0.46,0.11-0.68,0.18
		C825.21,1244.33,825.28,1244.1,825.37,1243.87z"/>
	<path id="Tracé_37005" class="st3" d="M841.26,1244.74c0.46-0.33,0.96-0.61,1.48-0.82c-0.64,0.41-1.26,0.84-1.92,1.19v-0.39
		C840.97,1244.74,841.11,1244.74,841.26,1244.74z"/>
	<path id="Tracé_37006" class="st2" d="M823.41,1244.3c0.16-0.11,0.3-0.25,0.46-0.37c0.09,0.14,0.18,0.3,0.27,0.43
		c-0.34,0.09-0.68,0.18-1.03,0.25C823.18,1244.55,823.32,1244.39,823.41,1244.3z"/>
	<path id="Tracé_37007" class="st2" d="M810.56,1244.49c0.09,0.02,0.3,0.07,0.41,0.09c0.23,0.46,0.43,0.95,0.59,1.44
		c0.2,0.02,0.4,0,0.59-0.07c-0.16,0.18-0.29,0.39-0.37,0.62l-0.3-0.3c-0.09,0.36,0.25,0.59,0.43,0.87c0.02,0.27-0.11,0.62,0.14,0.82
		c0.14,0.11,0.3,0.21,0.43,0.32h-0.5c0.23,0.53,0.41,1.05,0.62,1.57c-0.4,0.12-0.82,0.18-1.23,0.16c0.07-0.13,0.16-0.26,0.25-0.39
		c-0.3-0.15-0.5-0.44-0.55-0.78l-0.41-0.07c0.09-0.28,0.16-0.55,0.23-0.82c-0.21-0.09-0.41-0.18-0.64-0.27
		c0.03-0.13,0.04-0.26,0.05-0.39h-0.41c0.02-0.07,0.05-0.18,0.07-0.23l0.34-0.07l0.2-0.41c0.26,0,0.52-0.09,0.73-0.25l-0.48-0.07
		l0.09-0.27c0.14-0.07,0.28-0.11,0.39-0.18c-0.13-0.04-0.26-0.08-0.39-0.14c0.02-0.11,0.07-0.25,0.09-0.36
		C810.79,1245.04,810.67,1244.77,810.56,1244.49z"/>
	<path id="Tracé_37008" class="st0" d="M834.36,1244.58c0.16-0.08,0.35-0.01,0.43,0.15c0.02,0.03,0.03,0.07,0.03,0.1
		c-0.04,0.05-0.11,0.14-0.16,0.18C834.46,1244.99,834.22,1244.76,834.36,1244.58z"/>
	<path id="Tracé_37009" class="st3" d="M835.66,1245.26l0.14-0.55c0.16,0.09,0.34,0.18,0.5,0.27c0.14,0,0.27,0,0.41,0.02
		c0.07,0.02,0.21,0.05,0.25,0.07c-0.02-0.14-0.02-0.25-0.05-0.39c0.2,0.04,0.4,0.1,0.59,0.16c-0.07,0.49-0.35,0.93-0.78,1.19
		c0.02-0.09,0.04-0.3,0.07-0.39c-0.53-0.11-0.75,0.41-1.14,0.62c-0.18,0.02-0.36,0.03-0.55,0.02c-0.23,0.28-0.43,0.53-0.68,0.78
		c-0.28,0.09-0.55,0.23-0.82,0.32c-0.1-0.1-0.19-0.21-0.27-0.32c-0.14-0.05-0.28-0.11-0.43-0.16v-0.03c0.09-0.02,0.3-0.07,0.41-0.09
		c0-0.07,0.02-0.23,0.02-0.3c0.12,0,0.24,0,0.36,0.02c0,0.11,0.02,0.34,0.02,0.46c0.23-0.09,0.55-0.09,0.68-0.36
		C834.72,1246.07,835.15,1245.61,835.66,1245.26z"/>
	<path id="Tracé_37010" class="st2" d="M836.3,1244.97c-0.02-0.34,0.43-0.32,0.41,0.02
		C836.57,1244.99,836.44,1244.99,836.3,1244.97z"/>
	<path id="Tracé_37011" class="st3" d="M786.09,1245.24c0.31-0.23,0.67-0.4,1.05-0.48
		C786.98,1245.19,786.43,1245.06,786.09,1245.24z"/>
	<path id="Tracé_37012" class="st0" d="M822.27,1244.97c0.26,0.11,0.51,0.24,0.73,0.41c-0.18,0-0.37,0.11-0.55,0.02
		C822.38,1245.26,822.32,1245.11,822.27,1244.97z"/>
	<path id="Tracé_37013" class="st2" d="M823.34,1245.31c-0.32,0-0.07-0.37,0.11-0.39c0.05,0.07,0.14,0.23,0.18,0.3
		C823.57,1245.24,823.41,1245.28,823.34,1245.31z"/>
	<path id="Tracé_37014" class="st0" d="M787.9,1246.33c0.84-0.35,1.66-0.73,2.47-1.16c-0.18,0.38-0.51,0.68-0.91,0.82
		c0.43,0.57,1.16,0.82,1.85,0.64c0.36,0.16,0.62-0.16,0.84-0.39c0.18,0,0.35,0.02,0.53,0.04c0.07-0.16,0.14-0.3,0.21-0.46
		c0.18,0,0.36-0.02,0.57-0.02c0.09-0.18,0.16-0.37,0.25-0.53h1.12c-0.02,0.25-0.05,0.5-0.05,0.75c-0.18-0.14-0.39-0.25-0.57-0.39
		c0,0.18,0.02,0.36,0.02,0.55c-0.09,0.02-0.3,0.07-0.39,0.09c0.25,0.02,0.48,0.02,0.73,0.07c0.31,0.23,0.6,0.5,0.84,0.8
		c-0.11,0.14-0.25,0.3-0.36,0.43c0.05,0.08,0.1,0.16,0.16,0.23c0.16-0.02,0.34-0.07,0.5-0.09c-0.07-0.09-0.13-0.2-0.18-0.3
		c0.16-0.14,0.32-0.3,0.46-0.43c0.18,0.14,0.34,0.25,0.53,0.39c0.11-0.14,0.25-0.3,0.36-0.43c0.18,0.31,0.3,0.65,0.34,1
		c0.11,0.09,0.21,0.21,0.32,0.3c-0.18,0.05-0.36,0.07-0.55,0.11c-0.3-0.16-0.59-0.3-0.89-0.43c-0.41,0.34-0.91,0.11-1.37-0.02
		c0.17,0.35,0.42,0.65,0.73,0.89l-0.82,0.14c0.04,0.3,0.11,0.62,0.18,0.91c0.06,0.03,0.12,0.06,0.18,0.07
		c0.02,0.18,0.07,0.39,0.09,0.57c-0.14,0.11-0.3,0.23-0.43,0.34c-0.07,0.21-0.14,0.43-0.21,0.64c-0.12-0.09-0.24-0.18-0.37-0.25
		c-0.07,0.21-0.11,0.41-0.18,0.62c-0.69,0.09-1.35,0.33-1.94,0.71c-0.02,0.09-0.07,0.18-0.09,0.27c-0.2-0.05-0.39-0.09-0.59-0.11
		c-0.04-0.02-0.11-0.05-0.16-0.07c-0.03,0.21-0.08,0.41-0.14,0.62c-0.21,0.12-0.45,0.2-0.68,0.25c-0.02,0.05-0.09,0.16-0.11,0.21
		c-0.44,0.09-0.83,0.31-1.14,0.64c0.04,0.09,0.16,0.25,0.21,0.34c-0.32,0.2-0.68,0.33-1.05,0.39c-0.23,0.05-0.53,0-0.68,0.2
		c0-0.41-0.39-0.39-0.64-0.25c-0.57,0.28-1.1-0.34-1.69-0.23c0.16,0.16,0.32,0.3,0.5,0.43c-0.18,0.07-0.36,0.16-0.55,0.23
		c-0.18-0.09-0.37-0.18-0.53-0.25c0.16-0.09,0.3-0.18,0.46-0.28c-0.35-0.04-0.69-0.16-0.98-0.36c0.34,0.02,0.68,0.05,1.03,0.09
		c-0.11-0.57,0.5-0.78,0.94-0.84c0.11,0.18,0.25,0.34,0.36,0.53c0.16-0.14,0.32-0.27,0.46-0.41c0.16,0.05,0.3,0.09,0.46,0.14
		c0.02-0.11,0.02-0.23,0.04-0.34c-0.32-0.25-0.66-0.5-0.98-0.75c0.16-0.18,0.32-0.34,0.5-0.5c0.22,0.55,0.59,1.04,1.07,1.39
		c-0.23,0.18-0.43,0.41-0.57,0.66c0.34-0.07,0.66-0.16,0.98-0.25c-0.04-0.18-0.09-0.36-0.16-0.53c-0.5-0.16-0.55-0.64-0.57-1.1
		c-0.29-0.12-0.54-0.3-0.75-0.53c0.42-0.07,0.85-0.09,1.28-0.05c0.09-0.11,0.18-0.23,0.27-0.37c0.11,0.07,0.21,0.14,0.3,0.23
		c-0.04-0.14-0.07-0.27-0.11-0.39c0.09-0.09,0.17-0.19,0.25-0.3c-0.55-0.16-1.32-0.02-1.64-0.62c-0.06-0.32-0.08-0.64-0.05-0.96
		c-0.38,0.05-0.76,0.06-1.14,0.02c0.11-0.05,0.36-0.14,0.48-0.18c-0.31-0.2-0.66-0.34-1.03-0.41c0.09,0.2,0.21,0.41,0.3,0.59
		c-0.24,0.12-0.48,0.24-0.71,0.39c0.09,0.13,0.19,0.25,0.3,0.37c-0.35,0.03-0.71,0-1.05-0.09c-0.3,0.22-0.63,0.4-0.98,0.53
		c0.35,0.31,0.78,0.52,1.23,0.62c-0.37,0.22-0.81,0.3-1.23,0.2c-0.17,0.31-0.36,0.61-0.57,0.89c0.05,0.21,0.13,0.41,0.23,0.59
		c0.23,0.11,0.46,0.2,0.71,0.27c-0.09,0.18-0.18,0.36-0.25,0.55c-0.67-0.44-1-1.25-0.84-2.03c0.5-1.26,1.41-2.31,2.58-2.99
		c0.53-0.36,0.96-1.07,1.69-0.89c-0.02-0.18-0.07-0.37-0.09-0.57c0.18,0.02,0.37,0.07,0.55,0.09
		C787.44,1247.16,787.63,1246.72,787.9,1246.33z"/>
	<path id="Tracé_37015" class="st2" d="M785.34,1245.24h0.68c-0.28,0.24-0.6,0.42-0.96,0.53
		C785.11,1245.57,785.21,1245.39,785.34,1245.24z"/>
	<path id="Tracé_37016" class="st2" d="M831.44,1245.99c0.32-0.29,0.67-0.54,1.05-0.75c-0.12,0.23-0.2,0.49-0.23,0.75
		C831.99,1246.08,831.71,1246.08,831.44,1245.99z"/>
	<path id="Tracé_37017" class="st4" d="M820.46,1246.11c0.46-0.07,0.87-0.31,1.16-0.66c0.05,0.09,0.11,0.3,0.16,0.39
		c0.25,0.08,0.51-0.04,0.62-0.27c-0.14,0.23-0.25,0.48-0.34,0.73c-0.08-0.05-0.16-0.1-0.23-0.16c-0.12,0.17-0.23,0.34-0.32,0.53
		c-0.14,0.04-0.3,0.07-0.43,0.11c0.03-0.17,0.06-0.33,0.07-0.5l-0.55,0.48C820.55,1246.54,820.51,1246.33,820.46,1246.11z"/>
	<path id="Tracé_37018" class="st4" d="M823.11,1245.56c0.09-0.02,0.25-0.09,0.34-0.11c0,0.09-0.02,0.25-0.02,0.34
		c-0.02,0.22-0.03,0.44-0.02,0.66c-0.07,0.05-0.21,0.11-0.25,0.14c-0.09-0.16-0.18-0.33-0.25-0.5c0.08-0.05,0.16-0.1,0.23-0.16
		C823.11,1245.8,823.11,1245.68,823.11,1245.56z"/>
	<path id="Tracé_37019" class="st2" d="M837.49,1246.33c0.12-0.35,0.43-0.61,0.8-0.66c-0.04,0.25-0.09,0.53-0.16,0.78
		c0.09,0.02,0.27,0.07,0.39,0.09c-0.37,0.09-0.72,0.26-1.03,0.5v-0.3h-0.41C837.23,1246.62,837.37,1246.49,837.49,1246.33z"/>
	<path id="Tracé_37020" class="st0" d="M836.46,1246.77c0.34-0.23,0.68-0.46,1-0.71c0,0.07,0.02,0.2,0.02,0.27
		c-0.13,0.16-0.26,0.3-0.41,0.43c-0.25,0.04-0.5,0.11-0.73,0.16c-0.02-0.11-0.04-0.32-0.07-0.43L836.46,1246.77z"/>
	<path id="Tracé_37021" class="st0" d="M885.39,1258.71c2.94-5.39,5.86-10.82,8.83-16.2c1.71,0.02,3.42-0.02,5.16,0.02
		c3.79,7.07,7.69,14.08,11.48,21.16c-1.51,0-3.03,0.07-4.52-0.05c-0.84-1.46-1.62-2.97-2.42-4.47c-1.96-0.04-3.93,0-5.86-0.02
		c-1.3,0.02-2.62,0.02-3.93,0c-0.55,0.02-1.09,0.02-1.64,0c-0.94,0.04-1.87-0.05-2.81,0.04c-0.8,1.51-1.6,3.01-2.42,4.5h-4.52
		C883.56,1261.99,884.52,1260.37,885.39,1258.71z M891.8,1255.35c3.33-0.02,6.66,0.05,10-0.02c-1.67-3.08-3.33-6.16-4.95-9.24
		C895.11,1249.14,893.49,1252.25,891.8,1255.35L891.8,1255.35z"/>
	<path id="Tracé_37022" class="st4" d="M832.95,1246.56c0.16-0.14,0.3-0.25,0.46-0.39c0,0.09-0.02,0.25-0.02,0.32
		c0,0.07-0.02,0.23-0.02,0.3c-0.09,0.02-0.3,0.07-0.41,0.09L832.95,1246.56z"/>
	<path id="Tracé_37023" class="st0" d="M786.8,1246.86c0.38-0.13,0.71-0.37,0.96-0.68l0.14,0.16c-0.26,0.37-0.44,0.79-0.53,1.23
		c-0.18-0.02-0.36-0.07-0.55-0.09c0.02,0.18,0.07,0.37,0.09,0.57c-0.73-0.18-1.16,0.53-1.69,0.89c-1.17,0.68-2.07,1.73-2.58,2.99
		c-0.16,0.79,0.17,1.59,0.84,2.03c0.18,0.18,0.39,0.36,0.57,0.53c0.29,0.2,0.63,0.33,0.98,0.36c-0.16,0.09-0.3,0.18-0.46,0.28
		c-0.25-0.1-0.51-0.15-0.78-0.14l-0.02-0.25v0.36c-0.31-0.14-0.56-0.39-0.71-0.71c-0.12,0.09-0.25,0.18-0.39,0.25
		c0-0.12,0.02-0.23,0.05-0.34c-0.32-0.02-0.66-0.16-0.69-0.53c-0.12,0-0.23-0.02-0.34-0.05c-0.05-0.2-0.11-0.4-0.18-0.59h-0.39
		c0.23-0.12,0.45-0.27,0.66-0.43c0-0.11-0.02-0.32-0.02-0.43c0.11-0.07,0.21-0.15,0.3-0.23c0.25-0.52,0.54-1.03,0.84-1.53
		c0.3-0.21,0.5-0.53,0.57-0.89c0.21-0.11,0.43-0.23,0.64-0.34c0.04-0.07,0.11-0.23,0.16-0.3c0.12-0.06,0.23-0.13,0.34-0.2
		c0.16-0.09,0.32-0.23,0.48-0.34c0.07-0.14,0.16-0.3,0.23-0.43c0.37,0,0.55-0.32,0.78-0.57c0.07,0,0.21-0.02,0.28-0.02
		C786.54,1247.23,786.67,1247.05,786.8,1246.86z"/>
	<path id="Tracé_37024" class="st4" d="M819.34,1246.59c0.16-0.09,0.34-0.16,0.53-0.25c0.21,0.46-0.14,0.91-0.25,1.35
		c0.04,0.07,0.11,0.23,0.16,0.32l-0.48,0.14c-0.18,0.16-0.36,0.34-0.57,0.5c-0.14,0.09-0.3,0.18-0.43,0.27
		c-0.07-0.11-0.14-0.25-0.21-0.36l0.48-0.27c0.26-0.12,0.46-0.34,0.55-0.62c0.02-0.07,0.04-0.18,0.07-0.23
		c0.04-0.21,0.09-0.41,0.14-0.62C819.32,1246.75,819.34,1246.63,819.34,1246.59z"/>
	<path id="Tracé_37025" class="st0" d="M832.49,1246.59c0.16,0,0.3-0.02,0.46-0.02v0.34l-0.09-0.02c-0.08-0.03-0.16-0.06-0.25-0.07
		c-0.05,0.33-0.22,0.63-0.48,0.84c-0.09-0.02-0.3-0.04-0.41-0.07v-0.02c0.13-0.07,0.27-0.13,0.41-0.18
		C832.23,1247.11,832.35,1246.84,832.49,1246.59z"/>
	<path id="Tracé_37026" class="st3" d="M818.16,1247.45c0.27-0.41,0.55-1,1.16-0.84l-0.02,0.18c-0.02,0.21-0.07,0.42-0.14,0.62
		c0-0.11-0.02-0.21-0.04-0.32c-0.59,0.64-1.46,0.96-2.03,1.62c-0.92,0.73-1.79,1.5-2.62,2.33c-0.18,0.02-0.34,0.05-0.53,0.07
		c-0.04,0.13-0.1,0.26-0.16,0.39c-0.05,0.02-0.16,0.07-0.21,0.09c-0.07,0.09-0.16,0.2-0.23,0.3c-0.14-0.5,0.32-0.75,0.62-1.05
		c0.1-0.04,0.19-0.08,0.27-0.14c0.47-0.49,0.97-0.95,1.51-1.37c0.25-0.53,0.84-0.66,1.26-1.03
		C817.54,1248.16,817.54,1247.34,818.16,1247.45z"/>
	<path id="Tracé_37027" class="st3" d="M811.01,1246.79c0.25-0.09,0.55,0.48,0.25,0.57
		C811.04,1247.27,810.94,1247.02,811.01,1246.79z"/>
	<path id="Tracé_37028" class="st4" d="M832.58,1246.79c0.08,0.03,0.16,0.06,0.25,0.07c0.02,0.09,0.07,0.3,0.09,0.39
		c-0.14,0.02-0.27,0.07-0.41,0.09c-0.43,0.3-0.76,0.71-0.96,1.19c-0.32-0.11-0.07-0.43,0.07-0.62c0.03-0.13,0.06-0.26,0.07-0.39
		c0.09,0.02,0.3,0.04,0.41,0.07C832.37,1247.4,832.54,1247.11,832.58,1246.79z"/>
	<path id="Tracé_37029" class="st3" d="M835.73,1247.02c0.04-0.07,0.16-0.21,0.2-0.27c-0.01,0.22-0.03,0.44-0.07,0.66
		c-0.18,0.23-0.43,0.05-0.64,0c0.05-0.09,0.11-0.25,0.16-0.34C835.48,1247.06,835.64,1247.02,835.73,1247.02z"/>
	<path id="Tracé_37030" class="st0" d="M793.83,1247.09c0.28,0.11,0.53,0.23,0.78,0.34c0.02,0.18,0.04,0.39,0.07,0.57
		c-0.29-0.06-0.57-0.14-0.84-0.25C793.84,1247.53,793.84,1247.31,793.83,1247.09z"/>
	<path id="Tracé_37031" class="st3" d="M836.02,1247.8c0.06-0.19,0.13-0.38,0.21-0.57c0.1,0.22,0.13,0.47,0.07,0.71
		c-1.14,0.27-1.92,1.3-2.92,1.87c-1.28,0.66-2.17,1.92-3.45,2.56c0.21-0.36,0.62-0.69,0.48-1.16c0.25-0.14,0.52-0.23,0.8-0.25
		c-0.09-0.73,0.73-0.91,1.21-1.28c0.04-0.18,0.09-0.34,0.14-0.5c0.11,0.1,0.19,0.22,0.23,0.37c0.43-0.32,1.23-0.71,0.96-1.39
		c0.07-0.04,0.13-0.08,0.18-0.14c0.04,0.13,0.08,0.26,0.14,0.39l0.09,0.02c0.09,0.02,0.25,0.07,0.32,0.09
		c0.3-0.18,0.56-0.43,0.75-0.73C835.52,1247.77,835.78,1247.8,836.02,1247.8z"/>
	<path id="Tracé_37032" class="st0" d="M805.85,1248.03c0.25-0.07,0.34,0,0.25,0.25C805.85,1248.34,805.79,1248.27,805.85,1248.03z
		"/>
	<path id="Tracé_37033" class="st2" d="M817.54,1248.82c0.21,0.02,0.39,0.02,0.59,0.05c-0.14,0.34-0.55,0.34-0.84,0.48
		c-0.16,0.15-0.31,0.32-0.43,0.5c-0.39,0.11-0.59,0.55-1.03,0.59c0.18-0.39,0.62-0.43,0.96-0.59c0-0.09-0.02-0.3-0.02-0.39
		C817.18,1249.51,817.34,1249.1,817.54,1248.82z"/>
	<path id="Tracé_37034" class="st3" d="M783.49,1249.67c0.14-0.5,0.6-0.85,1.12-0.84c-0.12,0.06-0.23,0.13-0.34,0.21
		c-0.05,0.07-0.11,0.23-0.16,0.3C783.92,1249.44,783.7,1249.55,783.49,1249.67z"/>
	<path id="Tracé_37035" class="st0" d="M785.57,1249.03c0.37,0.07,0.71,0.21,1.03,0.41c-0.11,0.05-0.36,0.14-0.48,0.18
		c0.38,0.05,0.76,0.04,1.14-0.02c-0.03,0.32-0.02,0.64,0.04,0.96c0.34,0.57,1.1,0.46,1.64,0.62c-0.09,0.09-0.17,0.19-0.25,0.3
		c0.04,0.14,0.07,0.28,0.11,0.39c-0.11-0.07-0.21-0.15-0.3-0.23c-0.09,0.11-0.18,0.23-0.28,0.37c-0.43-0.03-0.85-0.02-1.28,0.05
		c0.22,0.22,0.47,0.4,0.75,0.53c0.05,0.46,0.09,0.94,0.57,1.1c0.04,0.18,0.1,0.35,0.16,0.53c-0.32,0.09-0.66,0.18-0.98,0.25
		c0.14-0.26,0.33-0.49,0.57-0.66c-0.48-0.36-0.85-0.84-1.07-1.39c-0.16,0.16-0.32,0.34-0.5,0.5c0.32,0.25,0.64,0.5,0.98,0.75
		c-0.02,0.11-0.02,0.23-0.05,0.34c-0.16-0.05-0.3-0.09-0.46-0.14c-0.16,0.14-0.32,0.28-0.46,0.41c-0.11-0.18-0.25-0.34-0.37-0.53
		c-0.46,0.07-1.05,0.25-0.94,0.84c-0.34-0.05-0.68-0.08-1.03-0.09c-0.21-0.18-0.39-0.36-0.57-0.53c0.09-0.18,0.18-0.36,0.25-0.55
		c-0.23-0.09-0.48-0.16-0.71-0.27c-0.1-0.19-0.18-0.39-0.23-0.59c0.22-0.28,0.41-0.58,0.57-0.89c0.42,0.09,0.86,0.02,1.23-0.21
		c-0.46-0.1-0.88-0.31-1.23-0.62c0.36-0.12,0.69-0.29,0.98-0.53c0.34,0.09,0.7,0.12,1.05,0.09c-0.09-0.13-0.19-0.25-0.3-0.37
		c0.22-0.16,0.46-0.29,0.71-0.39C785.77,1249.46,785.65,1249.25,785.57,1249.03z"/>
	<path id="Tracé_37036" class="st0" d="M789.63,1249.19c0.09,0.14,0.21,0.25,0.3,0.39l0.55,0.07c-0.14,0.11-0.27,0.25-0.41,0.36
		c0.26,0.14,0.57,0.2,0.87,0.16c-0.14,0.02-0.28,0.05-0.41,0.09c0.02,0.11,0.02,0.25,0.05,0.36c-0.21,0.09-0.43,0.23-0.64,0.05
		c0.02-0.16,0.05-0.34,0.07-0.5C789.71,1249.93,789.57,1249.56,789.63,1249.19z"/>
	<path id="Tracé_37037" class="st4" d="M816.7,1250.49c0.14-0.18,0.3-0.36,0.46-0.55c-0.05,0.37-0.41,0.55-0.62,0.84
		c-0.09,0-0.18,0.02-0.27,0.05c0-0.12,0.02-0.23,0.05-0.34C816.44,1250.47,816.57,1250.47,816.7,1250.49z"/>
	<path id="Tracé_37038" class="st0" d="M815.21,1250.74c0.21-0.07,0.27,0,0.21,0.21C815.19,1251.01,815.12,1250.95,815.21,1250.74z
		"/>
	<path id="Tracé_37039" class="st2" d="M815.81,1250.72c0.36-0.14,0.3,0.53-0.02,0.46
		C815.53,1251.13,815.58,1250.76,815.81,1250.72z"/>
	<path id="Tracé_37040" class="st3" d="M788.85,1250.88c0.18-0.11,0.3-0.09,0.36,0.11C789.04,1251.1,788.9,1251.06,788.85,1250.88z
		"/>
	<path id="Tracé_37041" class="st0" d="M808.73,1251.93c0.32,0.11,0.62,0.23,0.94,0.34c0.14-0.11,0.3-0.19,0.48-0.23
		c0.09,0.25,0.1,0.52,0.02,0.78c0.04,0.1,0.08,0.2,0.14,0.3c-0.09,0.04-0.21,0.09-0.3,0.14c0-0.07,0.02-0.23,0.02-0.32
		c-0.18-0.03-0.36-0.04-0.55-0.05l0.48-0.09c-0.25-0.18-0.52-0.32-0.8-0.43l-0.27,0.27
		C808.82,1252.41,808.78,1252.16,808.73,1251.93z"/>
	<path id="Tracé_37042" class="st3" d="M829.32,1252.27c0.14,0.05,0.3,0.09,0.43,0.14c-0.89,0.73-1.76,1.48-2.62,2.22
		c0.14-0.32,0.28-0.64,0.39-0.96h0.5c0.07-0.16,0.14-0.3,0.21-0.46c0.09,0,0.25-0.02,0.34-0.02c0.21-0.14,0.43-0.27,0.66-0.39
		C829.24,1252.62,829.27,1252.44,829.32,1252.27z"/>
	<path id="Tracé_37043" class="st0" d="M826.72,1252.41c0.25,0.15,0.5,0.31,0.73,0.48c-0.3,0.16-0.64,0.27-0.8,0.57
		c0.07,0.16,0.14,0.31,0.23,0.46c-0.39-0.07-0.5,0.3-0.66,0.55c0.2,0.3,0.21,0.68,0.04,1c-0.18-0.02-0.39-0.02-0.57-0.05
		c-0.02,0.4-0.19,0.77-0.48,1.05c-0.5,0.33-0.93,0.76-1.26,1.26c-0.02-0.18-0.02-0.34-0.05-0.53c-0.25,0.03-0.47,0.21-0.55,0.46
		c0.11,0.08,0.22,0.16,0.34,0.23c-0.43,0.41-0.84,0.84-1.3,1.23c-0.07-0.09-0.18-0.25-0.25-0.34c-0.09,0.18-0.12,0.39-0.07,0.59
		c-0.07,0.11-0.16,0.25-0.23,0.36c-0.11,0-0.32,0.02-0.43,0.02l-0.21-0.07c0-0.41,0.32-0.62,0.66-0.78
		c-0.02-0.11-0.07-0.25-0.09-0.36c0.18,0.07,0.34,0.11,0.53,0.18c0.11-0.25,0.21-0.48,0.32-0.71c0.18,0.02,0.34,0.04,0.53,0.07
		c-0.02-0.5,0.09-1,0.3-1.46c0.11,0.07,0.25,0.14,0.36,0.21c0.39-0.42,0.63-0.96,0.71-1.53c0.07,0.05,0.23,0.11,0.3,0.16l0.02,0.07
		c-0.04,0.05-0.11,0.09-0.16,0.14c0,0.23,0.11,0.53-0.18,0.64c-0.04,0.13-0.08,0.26-0.14,0.39c-0.17,0.13-0.22,0.36-0.11,0.55
		c0.25-0.3,0.47-0.63,0.64-0.98l0.21,0.14c-0.04-0.18-0.09-0.37-0.14-0.53c0.02-0.04,0.04-0.16,0.07-0.2
		c0.1-0.03,0.19-0.07,0.27-0.11c0.04-0.11,0.09-0.21,0.14-0.32c0.16-0.23-0.11-0.41-0.3-0.46c-0.03-0.04-0.05-0.09-0.07-0.14
		c0.23-0.05,0.48-0.07,0.73-0.11c0.16-0.32,0.3-0.64,0.43-0.94c-0.05-0.23-0.09-0.46-0.14-0.71c0.16,0.05,0.32,0.11,0.46,0.16
		C826.59,1252.82,826.64,1252.61,826.72,1252.41z"/>
	<path id="Tracé_37044" class="st2" d="M826.81,1254.51c0.3,0.05,0.14,0.68-0.16,0.55
		C826.54,1254.86,826.61,1254.62,826.81,1254.51C826.8,1254.51,826.8,1254.51,826.81,1254.51z"/>
	<path id="Tracé_37045" class="st0" d="M785.18,1254.73c0.59-0.11,1.1,0.48,1.69,0.23c0.27-0.14,0.66-0.16,0.64,0.25
		c-0.34,0.03-0.66,0.13-0.96,0.3c-0.48-0.02-0.94-0.09-1.41-0.09c0.18-0.07,0.36-0.16,0.55-0.23
		C785.5,1255.03,785.34,1254.87,785.18,1254.73z"/>
	<path id="Tracé_37046" class="st3" d="M811.93,1254.85c0.11,0.09,0.23,0.16,0.34,0.25c0.11-0.09,0.22-0.18,0.32-0.27
		c0.02,0.07,0.07,0.2,0.09,0.25v0.02c-0.09,0.05-0.27,0.11-0.36,0.16c-0.05,0.54-0.31,1.03-0.71,1.39c0.19,0.24,0.37,0.49,0.53,0.75
		c0.58,0.27,1.12,0.64,1.6,1.07c0,0.11-0.02,0.25-0.02,0.39c0.55-0.31,1.08-0.66,1.58-1.05c0.09,0.07,0.17,0.15,0.25,0.23
		c0.07-0.05,0.11-0.07,0.18-0.11l0.75,0.68c-0.05,0.05-0.1,0.12-0.14,0.18c0.21,0.15,0.41,0.31,0.59,0.48
		c0.11,0.25-0.18,0.41-0.3,0.62l-0.14-0.34c-0.05,0.05-0.14,0.11-0.16,0.14c-0.09-0.11-0.19-0.21-0.3-0.3
		c-0.01,0.17-0.01,0.33,0,0.5c0.17,0.16,0.36,0.3,0.55,0.43c-0.3,0.09-0.59,0.18-0.89,0.25c0.09,0.13,0.18,0.27,0.25,0.41
		c-0.27,0.22-0.48,0.5-0.62,0.82c-0.16-0.11-0.3-0.2-0.46-0.32c0.04,0.23,0.09,0.43,0.11,0.66c-0.16-0.16-0.3-0.32-0.46-0.5
		c0.07-0.09,0.13-0.18,0.18-0.28c-0.09-0.11-0.17-0.24-0.23-0.36c0.14-0.02,0.3-0.05,0.43-0.07c0.02-0.07,0.05-0.18,0.07-0.25
		l0.48,0.07c-0.03-0.33-0.09-0.66-0.18-0.98c-0.31-0.3-0.65-0.57-1-0.82c-0.11,0.09-0.23,0.21-0.34,0.3
		c-0.21-0.11-0.41-0.2-0.64-0.32v-0.46c-0.28,0.16-0.55,0.34-0.8,0.55c-0.01,0.13-0.02,0.26-0.05,0.39
		c0.46-0.11,0.95-0.07,1.39,0.11c0.04,0.07,0.11,0.21,0.16,0.3c0.13,0.06,0.27,0.1,0.41,0.14c-0.02,0.14-0.04,0.3-0.07,0.43
		c-0.16,0.07-0.32,0.14-0.46,0.2v-0.34c-0.5,0.41-1.1,0.67-1.73,0.75c-0.07,0.07-0.14,0.15-0.21,0.23c0.67,0.1,1.35-0.05,1.92-0.41
		c0.11,0.13,0.22,0.27,0.32,0.41c-0.07,0.11-0.14,0.25-0.21,0.36c-0.11-0.02-0.23-0.02-0.36-0.05c-0.02,0.07-0.05,0.23-0.07,0.32
		c-0.18,0-0.35,0-0.53,0.02c0.14-0.14,0.25-0.27,0.39-0.41l-0.55-0.14c0,0.11-0.02,0.32-0.02,0.43c-0.05-0.02-0.11-0.09-0.16-0.11
		c-0.11,0.04-0.23,0.07-0.34,0.11c-0.27-0.23-0.62-0.62-1.03-0.46c-0.15,0.22-0.26,0.47-0.32,0.73c-0.11,0.03-0.23,0.04-0.34,0.05
		c-0.17,0.27-0.38,0.5-0.62,0.71c-0.21-0.07-0.41-0.11-0.62-0.18c-0.09-0.43-0.16-0.94-0.66-1.05c0.23-0.25,0.43-0.53,0.59-0.82
		c-0.43,0.07-0.81,0.31-1.05,0.66c-0.34,0.03-0.67,0.11-0.98,0.25c0-0.29,0.21-0.54,0.5-0.59c-0.09-0.14-0.21-0.25-0.3-0.39h0.48
		c0.16-0.14,0.32-0.25,0.48-0.39c0.05,0.16,0.11,0.3,0.16,0.46c0.28-0.22,0.6-0.38,0.94-0.48c-0.23-0.23-0.59-0.18-0.89-0.2
		c0.11-0.14,0.23-0.25,0.34-0.39c-0.02-0.07-0.07-0.18-0.09-0.25c-0.05,0.05-0.11,0.14-0.16,0.18c-0.14-0.12-0.32-0.17-0.5-0.14
		c0.02-0.14,0.04-0.25,0.07-0.39c0.23-0.05,0.46-0.12,0.68-0.21c-0.43-0.11-0.88-0.18-1.32-0.2c0.09,0.25,0.21,0.5,0.32,0.75
		c-0.11,0.11-0.23,0.25-0.36,0.37c-0.48-0.1-0.88-0.41-1.1-0.84c0.18-0.09,0.34-0.18,0.53-0.27c-0.23-0.14-0.46-0.25-0.68-0.39
		c0.1-0.04,0.2-0.08,0.3-0.14c0.09,0.05,0.18,0.07,0.28,0.11c0.11-0.14,0.25-0.25,0.36-0.37c-0.21-0.02-0.41-0.02-0.62-0.05
		c0.14-0.41,0.53-0.43,0.91-0.37c0.05,0.39-0.07,0.94,0.41,1.1c0.39-0.09,0.34-0.5,0.39-0.82c0.04,0.11,0.14,0.32,0.18,0.43
		c0.2-0.11,0.38-0.25,0.55-0.41c-0.3-0.34-0.59-0.69-0.87-1.05c0.07-0.32,0.11-0.64,0.18-0.96c0.34-0.07,0.78,0,1.05-0.27
		c-0.18-0.03-0.37-0.07-0.55-0.11c0.05-0.02,0.11-0.07,0.16-0.09c0.34,0.09,0.68,0.21,1.03,0.3c0.28-0.09,0.55-0.16,0.82-0.23
		c0,0.16-0.02,0.32-0.02,0.5c0.23-0.07,0.48-0.14,0.73-0.21c-0.09-0.09-0.16-0.18-0.25-0.27c0.15,0,0.31,0,0.46,0.02
		C811.92,1255.25,811.93,1255.05,811.93,1254.85z"/>
	<path id="Tracé_37047" class="st2" d="M825.1,1254.76c0.18,0.07,0.46,0.23,0.3,0.46c-0.15,0.02-0.3-0.04-0.39-0.16
		C825.03,1254.98,825.07,1254.83,825.1,1254.76z"/>
	<path id="Tracé_37048" class="st0" d="M803.92,1255.08c0.07,0.07,0.15,0.13,0.23,0.18c-0.11,0.37-0.07,0.76,0.11,1.1
		c-0.11-0.02-0.25-0.02-0.37-0.05c-0.25,0.18-0.25,0.64-0.59,0.69c-0.12-0.14-0.15-0.34-0.07-0.5c0.11-0.3,0.09-0.64,0.32-0.87
		c0.11,0.09,0.23,0.21,0.34,0.3C803.89,1255.67,803.92,1255.37,803.92,1255.08z"/>
	<path id="Tracé_37049" class="st4" d="M824.62,1255.67c0.06-0.04,0.11-0.08,0.16-0.14l0.04,0.09c0.03,0.08,0.06,0.15,0.09,0.23
		c0.05,0.18,0.09,0.36,0.14,0.53l-0.21-0.14c-0.17,0.35-0.38,0.68-0.64,0.98c-0.11-0.19-0.06-0.42,0.11-0.55
		c0.02-0.09,0.09-0.27,0.14-0.39C824.73,1256.19,824.62,1255.9,824.62,1255.67z"/>
	<path id="Tracé_37050" class="st0" d="M802.11,1255.69c0.34,0.01,0.67,0.08,0.98,0.21c-0.08,0.05-0.16,0.1-0.25,0.14
		c0.07,0.14,0.16,0.25,0.23,0.39c-0.33,0.39-0.71,0.74-1.12,1.05v-0.98c0.11-0.11,0.22-0.22,0.32-0.34
		C802.24,1255.99,802.19,1255.84,802.11,1255.69z"/>
	<path id="Tracé_37051" class="st0" d="M808.82,1255.83c0.3,0.05,0.59,0.07,0.89,0.11c-0.06,0.23-0.25,0.4-0.48,0.43
		c-0.02,0.07-0.04,0.23-0.07,0.3c-0.16-0.09-0.34-0.16-0.53-0.18C808.66,1256.26,808.73,1256.04,808.82,1255.83z"/>
	<path id="Tracé_37054" class="st0" d="M819.85,1260.16c0.18-0.02,0.39-0.02,0.59-0.04c0.07,0.04,0.21,0.16,0.28,0.2
		c-0.46,0.32-0.32,1.05-0.87,1.35c-0.07-0.14-0.11-0.25-0.18-0.39c0.12-0.17,0.18-0.38,0.16-0.59
		C819.81,1260.51,819.82,1260.34,819.85,1260.16z"/>
	<path id="Tracé_37055" class="st2" d="M798.96,1261.51c0.07-0.41-0.02-1.16,0.57-1.21
		C799.45,1260.71,799.54,1261.54,798.96,1261.51z"/>
	<path id="Tracé_37056" class="st0" d="M799.56,1262.61c0.07-0.71,0.4-1.36,0.94-1.83c0.02,0.28,0.05,0.53,0.07,0.8
		c0.25,0.02,0.5,0.05,0.75,0.09c-0.02,0.09-0.09,0.27-0.11,0.34c-0.15-0.02-0.29-0.05-0.43-0.09c-0.25,0.11-0.5,0.23-0.75,0.32
		c0.11,0.02,0.32,0.09,0.43,0.11c-0.21,0.11-0.39,0.25-0.59,0.36c0.25,0.07,0.48,0.16,0.73,0.23c0.23-0.09,0.46-0.21,0.68-0.3v0.62
		c0.21,0.02,0.41,0.07,0.59,0.09c0.3-0.21,0.63-0.36,0.98-0.46c0.11-0.16,0.23-0.3,0.34-0.46c0.32,0.39,0.23,0.89,0.3,1.35
		c-0.04,0.11-0.11,0.23-0.16,0.36c0.09,0.11,0.23,0.11,0.37,0.14c0.56,0.2,1.14,0.32,1.73,0.34c-0.36-0.23-0.8-0.36-1.16-0.62
		c0.22,0,0.44,0,0.66,0.02l0.28-0.41c0.01,0.32,0.23,0.6,0.55,0.68c0.18-0.25,0.39-0.48,0.57-0.73c0.46,0,1.1-0.02,1.3,0.5
		c0.2,0.42,0.26,0.89,0.16,1.35h-0.41c-0.07,0.18-0.11,0.37-0.18,0.55c0.32-0.18,0.61-0.42,0.84-0.71c0.43,0.15,0.89,0.24,1.35,0.25
		c0.36-0.16,0.73-0.32,1.1-0.04c0.48-0.3,1.09-0.31,1.57-0.02c-0.09-0.11-0.16-0.25-0.25-0.37l0.39-0.39
		c0.39,0.02,0.84-0.09,1.07,0.3c-0.23,0.07-0.43,0.14-0.64,0.21c0.05,0.11,0.07,0.25,0.11,0.36c0.16-0.23,0.38-0.42,0.64-0.53
		c0.02,0.38-0.07,0.76-0.25,1.1c0.16-0.05,0.32-0.07,0.46-0.11c-0.21,0.18-0.41,0.34-0.59,0.53c0.02,0.12,0.05,0.23,0.09,0.34
		c-1.14,0.02-1.55,1.37-2.49,1.78c-0.25,0.06-0.5,0.1-0.75,0.11c-0.14,0.11-0.27,0.25-0.43,0.36l-0.21-0.41
		c-0.23,0.27-0.49,0.52-0.78,0.73c0.04,0.14,0.07,0.27,0.11,0.41c-0.33,0.19-0.67,0.35-1.03,0.48c-0.16,0.06-0.31,0.14-0.46,0.23
		c0.28,0.07,0.55,0.11,0.84,0.16c-0.23,0.11-0.48,0.23-0.71,0.36c-0.09,0.02-0.25,0.09-0.34,0.11l0.39,0.39
		c-0.42,0-0.83,0.05-1.23,0.16c-0.1,0.19-0.31,0.31-0.53,0.3c-0.02-0.11-0.07-0.37-0.09-0.48c0.14-0.16,0.25-0.34,0.36-0.5
		c-0.39-0.27-1.07-0.23-1.16-0.8c-0.18,0-0.37,0.02-0.55,0.04c-0.27-0.04-0.57-0.09-0.87-0.11c-0.41-0.39-0.87-0.71-1.28-1.1
		c0.09-0.16,0.16-0.32,0.25-0.48c0.18,0.14,0.39,0.3,0.57,0.43c0-0.16,0-0.32-0.02-0.48c0.14-0.09,0.25-0.18,0.39-0.28
		c-0.29-0.2-0.6-0.39-0.91-0.55c-0.07,0.05-0.23,0.14-0.3,0.18l0.34,0.62c-0.46,0.05-0.68-0.32-0.89-0.66
		c-0.33,0.17-0.54,0.5-0.55,0.87c-0.16-0.21-0.34-0.41-0.5-0.59c0-0.19,0.02-0.38,0.05-0.57c-0.3,0.11-0.57,0.25-0.87,0.36
		c-0.13-0.06-0.27-0.1-0.41-0.14c-0.34,0.05-0.39,0.41-0.5,0.69c0.14-0.09,0.27-0.18,0.43-0.27c0.11,0.14,0.23,0.27,0.34,0.39
		c-0.31,0.16-0.64,0.27-0.98,0.32c-0.18-0.27-0.3-0.57-0.36-0.89c0.05-0.43,0.41-0.68,0.64-1.03c0.08,0.25,0.24,0.47,0.46,0.62
		c0.23-0.32,0.32-0.8,0.68-0.98c0.34,0.21,0.41,0.66,0.82,0.8c0.02-0.3,0.02-0.62,0.02-0.91c-0.09-0.07-0.21-0.14-0.3-0.21
		c0-0.12,0-0.24-0.02-0.36c-0.14,0.07-0.25,0.16-0.39,0.23c-0.02,0.09-0.05,0.21-0.07,0.3c-0.18,0.05-0.39,0.07-0.57,0.11
		c-0.11,0.11-0.22,0.22-0.34,0.32v-0.78c-0.35,0.17-0.66,0.41-0.91,0.71c-0.06,0-0.12-0.02-0.18-0.05l0.21-0.68
		c0.14-0.07,0.28-0.14,0.41-0.23c-0.3-0.27-0.62-0.57-0.91-0.82c0.02-0.27,0.07-0.55,0.09-0.84c0.14-0.09,0.27-0.21,0.43-0.3
		c-0.15-0.23-0.23-0.5-0.23-0.78c0.27,0.05,0.54,0.14,0.78,0.27c0.03-0.11,0.06-0.23,0.07-0.34c-0.59,0.14-0.41-0.64-0.27-0.96
		c0.09-0.11,0.18-0.21,0.27-0.32C798.98,1262.07,799.29,1262.32,799.56,1262.61z"/>
	<path id="Tracé_37057" class="st4" d="M818.96,1261.74c0.3-0.34,0.53-0.73,0.84-1.05c0.03,0.21-0.03,0.43-0.16,0.59
		c-0.14,0.18-0.29,0.34-0.46,0.5C819.14,1261.79,819,1261.74,818.96,1261.74z"/>
	<path id="Tracé_37058" class="st3" d="M819.21,1261.79c0.16-0.16,0.3-0.34,0.46-0.5c0.07,0.11,0.11,0.25,0.18,0.39
		c-0.5,0.45-1.09,0.78-1.73,0.96c-0.03-0.15-0.04-0.3-0.05-0.46c0.32-0.14,0.62-0.25,0.91-0.41
		C819,1261.74,819.14,1261.79,819.21,1261.79z"/>
	<path id="Tracé_37059" class="st3" d="M805.1,1262.04c0.23,0.07,0.46,0.14,0.71,0.2c-0.04,0.12-0.1,0.23-0.16,0.34L805.1,1262.04z
		"/>
	<path id="Tracé_37060" class="st3" d="M816.95,1263.68c0.23-0.34,0.54-0.62,0.91-0.8c-0.08,0.09-0.16,0.19-0.23,0.3
		c0.07,0.12,0.14,0.23,0.23,0.34c-0.16,0.27-0.48,0.41-0.71,0.62C817.07,1263.99,817,1263.84,816.95,1263.68z"/>
	<path id="Tracé_37061" class="st0" d="M800.56,1263.54h0.39c0.05,0.18,0.11,0.39,0.16,0.57c-0.14,0.27-0.46,0.36-0.71,0.5
		c0.14,0.07,0.25,0.16,0.39,0.23c0.11-0.09,0.21-0.16,0.32-0.25c0.09,0.04,0.17,0.08,0.25,0.14c-0.02,0.2,0.05,0.5-0.21,0.59
		c-0.16-0.02-0.3-0.05-0.46-0.07c0.11-0.05,0.34-0.16,0.46-0.21c-0.34-0.09-0.71-0.18-1.05-0.25c0.04-0.14,0.11-0.27,0.16-0.41
		c-0.09-0.02-0.27-0.09-0.39-0.11c0.31-0.11,0.63-0.18,0.96-0.21C800.77,1263.91,800.65,1263.72,800.56,1263.54z"/>
	<path id="Tracé_37063" class="st2" d="M798.28,1264.59c-0.27-0.18,0.09-0.62,0.34-0.59
		C798.64,1264.25,798.5,1264.48,798.28,1264.59z"/>
	<path id="Tracé_37064" class="st2" d="M797.57,1265.09c0.32,0.27,0.62,0.55,0.91,0.82c-0.14,0.07-0.28,0.14-0.41,0.23l-0.21,0.68
		l-0.04-0.02c-0.05-0.07-0.16-0.18-0.21-0.25c0.07-0.21,0.16-0.41,0.23-0.64l-0.27,0.18c-0.02,0.11-0.09,0.32-0.11,0.43
		c-0.07-0.14-0.11-0.27-0.18-0.41c-0.05-0.18-0.08-0.36-0.09-0.55c0.09,0.05,0.27,0.09,0.34,0.14
		C797.55,1265.5,797.57,1265.3,797.57,1265.09z"/>
	<path id="Tracé_37065" class="st0" d="M799.95,1266.19c0.11-0.07,0.25-0.16,0.39-0.23c0,0.12,0,0.24,0.02,0.37
		c0.09,0.07,0.21,0.14,0.3,0.2c0,0.3-0.02,0.62-0.02,0.91c-0.39-0.14-0.48-0.59-0.82-0.8c-0.36,0.18-0.46,0.66-0.68,0.98
		c-0.2-0.16-0.36-0.37-0.46-0.62c-0.23,0.32-0.62,0.59-0.64,1.03c0.06,0.32,0.19,0.62,0.36,0.89c0.21,0.18,0.43,0.39,0.64,0.57
		l-0.62-0.07c0.07,0.16,0.16,0.32,0.23,0.46c-0.4,0-0.73-0.31-0.75-0.71c0.11,0.05,0.32,0.14,0.41,0.18
		c-0.27-0.61-0.5-1.25-0.66-1.9c0.12,0,0.25,0.02,0.37,0.05c-0.32-0.14-0.21-0.43-0.18-0.71l0.04,0.02c0.06,0,0.12,0.02,0.18,0.04
		c0.25-0.3,0.56-0.54,0.91-0.71v0.78c0.11-0.11,0.22-0.22,0.34-0.32c0.18-0.04,0.39-0.07,0.57-0.11
		C799.9,1266.4,799.92,1266.3,799.95,1266.19z"/>
	<path id="Tracé_37066" class="st0" d="M797.3,1266.15c0.07,0.14,0.11,0.27,0.18,0.41c0.11,0.3-0.14,0.59-0.21,0.89
		c-0.27,0.66,0.25,1.3,0.07,1.98c-0.14-0.41-0.27-0.8-0.43-1.19C797.07,1267.56,796.82,1266.76,797.3,1266.15z"/>
	<path id="Tracé_37067" class="st0" d="M799.49,1267.95c0.3-0.11,0.57-0.25,0.87-0.36c-0.02,0.18-0.02,0.39-0.04,0.57
		c0.18,0.21,0.34,0.41,0.5,0.59c0.01-0.37,0.22-0.7,0.55-0.87c0.18,0.34,0.43,0.71,0.89,0.66l-0.34-0.62
		c0.07-0.05,0.23-0.14,0.3-0.18c0.3,0.18,0.62,0.37,0.91,0.55c-0.14,0.09-0.25,0.18-0.39,0.27c0,0.16,0,0.32,0.02,0.48
		c-0.18-0.14-0.39-0.3-0.57-0.43c-0.09,0.16-0.16,0.32-0.25,0.48c0.41,0.39,0.87,0.71,1.28,1.1c0.29,0.02,0.58,0.05,0.87,0.11
		c0.18-0.02,0.37-0.02,0.55-0.05c0.09,0.57,0.78,0.53,1.16,0.8c-0.11,0.16-0.25,0.34-0.37,0.5l-0.11,0.14
		c-0.39-0.01-0.78,0.05-1.14,0.18c-0.02-0.27-0.07-0.57-0.09-0.84c0.14-0.09,0.3-0.18,0.43-0.27c-0.25-0.05-0.48-0.07-0.73-0.11
		c0.03,0.31-0.01,0.62-0.11,0.91l-0.34-0.27c-0.18,0.14-0.36,0.27-0.53,0.41c-0.3,0.07-0.8-0.11-0.89,0.3
		c-0.09-0.08-0.18-0.16-0.27-0.23c-0.53-0.07-1.19,0.2-1.58-0.25c0.05-0.09,0.14-0.25,0.18-0.34c0.03-0.07,0.06-0.14,0.09-0.21
		c-0.15,0-0.29,0-0.43-0.02c-0.21-0.19-0.45-0.35-0.71-0.46c-0.14-0.25-0.25-0.55-0.55-0.59c-0.09-0.16-0.16-0.32-0.23-0.46
		l0.62,0.07c-0.21-0.18-0.43-0.36-0.64-0.57c0.34-0.05,0.68-0.15,0.98-0.32c-0.11-0.14-0.23-0.28-0.34-0.39
		c-0.14,0.09-0.27,0.18-0.43,0.27c0.09-0.25,0.16-0.64,0.5-0.69C799.24,1267.86,799.38,1267.9,799.49,1267.95z"/>
	<path id="Tracé_37068" class="st2" d="M808.6,1269.87c0.63-0.4,1.3-0.73,2.01-0.98c-0.55,0.84-1.64,0.98-2.44,1.46
		c-0.18,0.14-0.41,0.05-0.59,0C807.91,1270.19,808.28,1270.05,808.6,1269.87z"/>
	<path id="Tracé_37069" class="st0" d="M799.24,1269.16c0.34-0.02,0.75-0.16,0.94,0.21c-0.11,0.02-0.32,0.05-0.43,0.07
		c-0.06,0.24-0.2,0.45-0.39,0.62C798.96,1269.89,799.21,1269.45,799.24,1269.16z"/>
	<path id="Tracé_37070" class="st2" d="M808.41,1270.62c0.3-0.16,0.57-0.32,0.87-0.46c-0.08,0.21-0.18,0.41-0.3,0.59
		C808.78,1270.82,808.59,1270.69,808.41,1270.62z"/>
	<path id="Tracé_37071" class="st0" d="M798.26,1270.59c0.05,0.14,0.09,0.29,0.11,0.43c0.07-0.02,0.2-0.07,0.25-0.09
		c0.07,0.43,0.62,0.16,0.91,0.18c-0.19-0.07-0.38-0.14-0.57-0.23c0.43,0.05,0.86,0.13,1.28,0.25c-0.04,0.09-0.14,0.25-0.18,0.34
		c-0.05,0.02-0.11,0.09-0.16,0.11l-0.07,0.16c-0.57-0.07-1.12-0.23-1.62-0.5C798.23,1271.03,798.26,1270.8,798.26,1270.59z"/>
	<path id="Tracé_37072" class="st0" d="M803.78,1270.62c0.25,0.02,0.48,0.07,0.73,0.11c-0.14,0.09-0.3,0.18-0.43,0.27
		c0.05,0.27,0.07,0.57,0.09,0.84l0.02,0.11c-0.48,0.11-0.96,0.21-1.44,0.34v-0.48c0.25,0,0.53,0,0.78,0.02c0-0.06,0-0.12,0.02-0.18
		c-0.25,0-0.5-0.02-0.75-0.02c0.18-0.14,0.34-0.27,0.53-0.41l0.34,0.27C803.78,1271.23,803.81,1270.92,803.78,1270.62z"/>
</g>
</svg>
