<?xml version="1.0" encoding="utf-8"?>
<!-- Generator: Adobe Illustrator 25.4.1, SVG Export Plug-In . SVG Version: 6.00 Build 0)  -->
<svg version="1.1" id="Calque_1" xmlns="http://www.w3.org/2000/svg" xmlns:xlink="http://www.w3.org/1999/xlink" x="0px" y="0px"
	 viewBox="0 0 81 81" style="enable-background:new 0 0 81 81;" xml:space="preserve">
<style type="text/css">
	.st0{fill:#191F31;}
	.st1{fill-rule:evenodd;clip-rule:evenodd;fill:#191F31;}
	.st2{fill:#C8CBD3;}
	.st3{fill:#838BA6;}
	.st4{fill:#FFFFFF;}
	.st5{fill:#7C8DC6;}
	.st6{fill:#5F6CB1;}
	.st7{fill:#4C57A3;}
</style>
<g id="Groupe_35302" transform="translate(2876.083 -582.034)">
	<path id="Tracé_37073" class="st0" d="M-2795.08,663.03h-81v-81h81V663.03z"/>
	<path id="Tracé_37074" class="st4" d="M-2866.11,656.5c-2.93,0-5.58-1.87-5.58-5.95s2.65-5.95,5.58-5.95s5.57,1.87,5.57,5.95
		S-2863.18,656.5-2866.11,656.5 M-2866.11,647.11c-2.22,0-2.62,2-2.62,3.44s0.41,3.44,2.62,3.44s2.62-2,2.62-3.44
		S-2863.9,647.11-2866.11,647.11 M-2858.5,644.9h2.82v1.32c0.78-0.93,1.9-1.49,3.11-1.56c0.13,0,0.26,0,0.39,0.02v2.79h-0.15
		c-1.29,0-2.7,0.2-3.16,1.2v7.5h-3.01V644.9L-2858.5,644.9z M-2844.3,655.19c-1.1,0.74-2.4,1.13-3.73,1.12
		c-1.72,0.12-3.22-1.17-3.35-2.89c-0.01-0.13-0.01-0.26,0-0.39c0-2.52,2.32-3.86,7.1-4.4v-0.63c0-0.82-0.62-1.3-1.77-1.3
		c-1.07-0.03-2.09,0.45-2.75,1.3l-2-1.14c1.12-1.51,2.93-2.34,4.8-2.21c2.94,0,4.59,1.27,4.59,3.35c0,0,0,8.15,0,8.17h-2.63
		L-2844.3,655.19L-2844.3,655.19z M-2848.46,652.82c-0.06,0.75,0.5,1.4,1.25,1.46c0.03,0,0.06,0,0.09,0
		c1.03-0.04,2.01-0.46,2.75-1.19v-2.67C-2847.15,650.77-2848.46,651.49-2848.46,652.82 M-2839.07,645.2l2.46-0.34l0.27,1.34
		c1.08-0.94,2.44-1.49,3.87-1.55c2.32,0,3.52,1.23,3.52,3.67v7.85h-2.97v-7.33c0-1.38-0.36-2-1.43-2c-1.05,0.07-2.03,0.51-2.78,1.25
		v8.08h-2.94V645.2z M-2821.69,653.75c2.25-0.02,2.44-2.31,2.44-3.8c0-1.77-0.86-3.2-2.46-3.2c-1.07,0-2.26,0.78-2.26,3.32
		C-2823.97,651.46-2823.87,653.77-2821.69,653.75 M-2816.4,644.86v10.67c0,1.88-0.15,4.99-5.52,5.02c-2.22,0.02-4.27-0.87-4.68-2.81
		l2.93-0.47c0.12,0.55,0.46,1.1,2.12,1.1c1.54,0,2.28-0.73,2.28-2.5v-1.31l-0.04-0.04c-0.54,1.1-1.69,1.75-2.91,1.64
		c-2.63,0-4.7-1.82-4.7-5.64c0-3.77,2.14-5.88,4.53-5.89c2.25,0,3.08,1.02,3.28,1.56h-0.04l0.25-1.35L-2816.4,644.86L-2816.4,644.86
		z M-2809.3,656.38c-3.32,0-5.3-2.14-5.3-5.85c0-3.75,2-5.89,5.26-5.89s5.19,2.07,5.19,5.74c0,0.2-0.02,0.39-0.02,0.58h-7.5
		c0.02,2.14,0.91,3.22,2.65,3.22c1.05,0.02,2.03-0.53,2.56-1.44l2.17,1.2C-2805.39,655.6-2807.31,656.54-2809.3,656.38
		 M-2807.07,649.04c0.14-1.18-0.71-2.25-1.89-2.38c-0.13-0.01-0.26-0.02-0.38-0.01c-1.34,0-2.18,0.87-2.3,2.4H-2807.07z
		 M-2799.08,640.62l-1.09,2.83l-1.11-2.83h-0.95v3.73h0.62v-3.11h0.02l1.22,3.11h0.39l1.22-3.11h0.02v3.11h0.61v-3.72
		L-2799.08,640.62z M-2805.94,640.62v0.5h1.16v3.23h0.62v-3.23h1.17v-0.5L-2805.94,640.62z"/>
</g>
</svg>
