<?xml version="1.0" encoding="utf-8"?>
<!-- Generator: Adobe Illustrator 25.4.1, SVG Export Plug-In . SVG Version: 6.00 Build 0)  -->
<svg version="1.1" id="Calque_1" xmlns="http://www.w3.org/2000/svg" xmlns:xlink="http://www.w3.org/1999/xlink" x="0px" y="0px"
	 viewBox="0 0 108.63 82.49" style="enable-background:new 0 0 108.63 82.49;" xml:space="preserve">
<style type="text/css">
	.st0{fill:#191F31;}
	.st1{fill-rule:evenodd;clip-rule:evenodd;fill:#191F31;}
	.st2{fill:#C8CBD3;}
	.st3{fill:#838BA6;}
	.st4{fill:#FFFFFF;}
	.st5{fill:#7C8DC6;}
	.st6{fill:#5F6CB1;}
	.st7{fill:#4C57A3;}
</style>
<g id="Groupe_35301" transform="translate(3104.699 -579.632)">
	<path id="path4061" class="st5" d="M-2996.07,615.03h-39.52V604.9h39.52V615.03z"/>
	<path id="path4103" class="st5" d="M-3001.19,615.03h-34.4v-25.3h34.4V615.03z"/>
	<path id="path4089" class="st6" d="M-3015.41,615.03h-20.18v-35.39h20.18V615.03z"/>
	<path id="path4075" class="st5" d="M-3011.44,615.02h-24.15v-31.45h24.15V615.02z"/>
	<path id="path4688" class="st6" d="M-3035.59,583.57v31.45h20.18v-31.45H-3035.59z"/>
	<path id="path4119" class="st0" d="M-3055.83,615.03h20.24v5.06h-20.24V615.03z"/>
	<path id="path4698" class="st6" d="M-3035.59,589.72v25.3h24.19v-25.3H-3035.59z"/>
	<path id="path4693" class="st7" d="M-3035.59,589.72v25.3h20.18v-25.3H-3035.59z"/>
	<path id="path4117" class="st0" d="M-3022.99,615.03h-12.64v-15.18h12.64V615.03z"/>
	<path id="path4713" class="st6" d="M-3035.59,604.93v10.12h34.4v-10.12H-3035.59z"/>
	<path id="path4708" class="st7" d="M-3035.59,604.93v10.12h24.19v-10.12H-3035.59z"/>
	<path id="path4703" class="st0" d="M-3035.59,604.93v10.12h20.18v-10.12H-3035.59z"/>
	<path id="path4625" class="st0" d="M-3035.59,604.93v10.12h12.64v-10.12H-3035.59z"/>
	<g id="g2925" transform="translate(-2192.112 633.788)">
		<path id="path2850" class="st0" d="M-839.07,0.3c-3.45,0.62-5.28,3.23-5.28,7.73c0,4.59,2.45,7.64,6.05,7.64
			c1.77,0,3.29-0.62,6.52-2.2v3.76c-2.84,1.52-6.02,2.31-9.25,2.3c-3.45,0-5.9-0.84-7.79-2.92c-2.01-2-3.12-4.74-3.07-7.58
			c0-6.52,4.91-11.02,12.01-11.02c4.66,0,7.95,2.2,7.95,5.37c0.03,1.91-1.49,3.49-3.4,3.52c-0.12,0-0.24,0-0.36-0.01
			c-1.2-0.05-2.36-0.43-3.35-1.09"/>
		<path id="path2852" class="st0" d="M-856.3,9.02c3.14-3.91,4.28-5.49,4.28-7.42c0-1.99-1.61-3.6-3.6-3.6c-0.02,0-0.04,0-0.06,0
			c-1.11,0.03-2.15,0.5-2.92,1.3v8.04l-5.12,6.89V-1.38h-4.91l-8.1,13.38V-1.38h-2.76l-7.42,1.68v1.92l4.07,0.37V19.2h5.12
			l7.79-12.85V19.2h5.74"/>
		<path id="path2862" class="st0" d="M-902.43,16.6h1.15c4.13,0,6.43-2.52,6.43-7.58c0-4.22-1.83-6.52-5.28-6.52
			c-0.78,0.02-1.55,0.13-2.3,0.31L-902.43,16.6L-902.43,16.6z M-902.43,25.63l3.35,0.78v1.92h-13.23v-1.92l3.07-0.78V2.53h-3.35
			V0.61l8.04-2.45h2.14v2.76c3.76-2.3,5.06-2.67,7.05-2.67c4.44,0,7.79,4.13,7.79,9.87c0,6.58-4.5,11.08-11.39,11.08
			c-0.78,0-2.08-0.06-3.45-0.16"/>
	</g>
</g>
</svg>
