<svg id="Calque_1" data-name="Calque 1" xmlns="http://www.w3.org/2000/svg" viewBox="0 0 171.73 334.45"><defs><style>.cls-1{fill:#db4537;}.cls-2{fill:#191f31;}.cls-3{fill:#fff;}</style></defs><g id="Groupe_35167" data-name="Groupe 35167"><g id="Groupe_24528" data-name="Groupe 24528"><g id="Groupe_24518" data-name="Groupe 24518"><path id="Tracé_26037" data-name="Tracé 26037" class="cls-1" d="M84.7,94.57v20.69l-10.14,4.89L62.64,81.55Z"/><path id="Tracé_26038" data-name="Tracé 26038" class="cls-2" d="M74.56,121a.81.81,0,0,1-.78-.58L61.85,81.79a.83.83,0,0,1,.55-1,.87.87,0,0,1,.65.08l22.07,13a.83.83,0,0,1,.4.71v20.69a.81.81,0,0,1-.46.74l-10.14,4.89A.86.86,0,0,1,74.56,121ZM64.05,83.34l11,35.65,8.81-4.24V95Z"/></g><g id="Groupe_24520" data-name="Groupe 24520"><path id="Tracé_26040" data-name="Tracé 26040" class="cls-2" d="M22.26,3.66a.81.81,0,0,1-.41-.11C17.82,1.23,13.59,1,10.21,3A.81.81,0,0,1,9.1,2.62a.83.83,0,0,1,.3-1.1c3.88-2.21,8.73-2,13.27.6a.83.83,0,0,1-.41,1.54Z"/></g><g id="Groupe_24521" data-name="Groupe 24521"><path id="Tracé_26041" data-name="Tracé 26041" class="cls-1" d="M91.55,104.87,17,62C11,58.56,6.2,49.37,6.2,41.45V17.3c0-4-3.92-4.1-1.93-5.54.17-.12,8.07-4.66,8.24-4.75,1.89-1.08,4.33-1,7,.58l74.6,42.88c5.94,3.43,10.75,12.62,10.75,20.53V95.15c0,4.33-1.44,7.38-3.72,8.69L93,108.6C91.15,109.55,94.13,106.36,91.55,104.87Z"/><path id="Tracé_26042" data-name="Tracé 26042" class="cls-2" d="M92.52,109.6a1,1,0,0,1-.77-.37,1.5,1.5,0,0,1-.08-1.41c.24-1,.34-1.73-.54-2.24L16.53,62.7C10.38,59.15,5.37,49.62,5.37,41.46V17.3a4.07,4.07,0,0,0-1.55-3.23,2.13,2.13,0,0,1-.93-1.64,1.86,1.86,0,0,1,.9-1.34C4,10.93,12,6.34,12.1,6.29c2.2-1.25,5-1,7.82.59l74.6,42.88c6.16,3.55,11.16,13.08,11.16,21.24V95.15c0,4.46-1.5,7.89-4.12,9.4l-8.17,4.77A2,2,0,0,1,92.52,109.6ZM4.61,12.54l.35.34A5.68,5.68,0,0,1,7,17.3V41.45C7,49.09,11.65,58,17.36,61.27L92,104.15a3,3,0,0,1,1.47,3.25l7.3-4.27c2.11-1.21,3.31-4.12,3.31-8V71c0-7.63-4.63-16.53-10.34-19.82L19.1,8.3C16.79,7,14.6,6.76,12.91,7.72c-.33.19-7.83,4.5-8.19,4.73Z"/></g><g id="Groupe_24522" data-name="Groupe 24522"><path id="Tracé_26043" data-name="Tracé 26043" class="cls-3" d="M96.92,100.85l7.7-4.4Z"/><path id="Tracé_26044" data-name="Tracé 26044" class="cls-2" d="M96.92,101.67a.82.82,0,0,1-.41-1.53l7.7-4.4a.82.82,0,0,1,.81,1.43h0l-7.7,4.4A.79.79,0,0,1,96.92,101.67Z"/></g><g id="Groupe_24523" data-name="Groupe 24523"><path id="Tracé_26045" data-name="Tracé 26045" class="cls-3" d="M96.23,69.19l7.7-4.4Z"/><path id="Tracé_26046" data-name="Tracé 26046" class="cls-2" d="M96.23,70a.82.82,0,0,1-.41-1.53l7.7-4.4a.82.82,0,0,1,1.12.3.83.83,0,0,1-.3,1.13l-7.7,4.4A.86.86,0,0,1,96.23,70Z"/></g><g id="Groupe_24524" data-name="Groupe 24524"><path id="Tracé_26047" data-name="Tracé 26047" class="cls-3" d="M88.69,56.72l7.83-4.48Z"/><path id="Tracé_26048" data-name="Tracé 26048" class="cls-2" d="M88.69,57.54A.82.82,0,0,1,88.28,56l7.84-4.48A.82.82,0,0,1,96.93,53h0L89.1,57.43A.72.72,0,0,1,88.69,57.54Z"/></g><g id="Groupe_24525" data-name="Groupe 24525"><path id="Tracé_26049" data-name="Tracé 26049" class="cls-3" d="M15.23,14.29l7.83-4.47Z"/><path id="Tracé_26050" data-name="Tracé 26050" class="cls-2" d="M15.23,15.11a.82.82,0,0,1-.41-1.53L22.65,9.1a.82.82,0,0,1,1.12.31.81.81,0,0,1-.31,1.12h0L15.63,15A.79.79,0,0,1,15.23,15.11Z"/></g><g id="Groupe_24526" data-name="Groupe 24526"><path id="Tracé_26051" data-name="Tracé 26051" class="cls-3" d="M86.17,55.12,11.57,12.23C5.63,8.81.82,12.44.82,20.36V44.51c0,7.91,4.81,17.1,10.75,20.53L54.73,89.78,74.6,120.15v-18.9l11.57,6.68c5.93,3.43,10.74-.21,10.74-8.13V75.65C96.91,67.74,92.1,58.54,86.17,55.12Z"/><path id="Tracé_26052" data-name="Tracé 26052" class="cls-2" d="M74.61,121a.8.8,0,0,1-.69-.37L54.15,90.39l-43-24.64C5,62.2,0,52.67,0,44.51V20.36c0-6.22,2.87-10.24,7.3-10.24A9.44,9.44,0,0,1,12,11.52L86.58,54.4C92.73,58,97.73,67.49,97.73,75.65V99.8a12.75,12.75,0,0,1-2,7.39A6.4,6.4,0,0,1,90.43,110h0a9.27,9.27,0,0,1-4.68-1.4l-10.32-6v17.48a.82.82,0,0,1-.82.82h0ZM7.3,11.77c-3.43,0-5.65,3.37-5.65,8.59V44.51C1.65,52.15,6.28,61,12,64.33L55.14,89.07a.77.77,0,0,1,.28.26l18.37,28.06V101.25a.82.82,0,0,1,.82-.82.81.81,0,0,1,.41.11l11.56,6.67a7.76,7.76,0,0,0,3.86,1.18h0a4.74,4.74,0,0,0,4-2.15A11.22,11.22,0,0,0,96.1,99.8V75.65c0-7.64-4.64-16.53-10.34-19.82L11.16,13A7.66,7.66,0,0,0,7.3,11.77Z"/></g><g id="Groupe_24527" data-name="Groupe 24527"><path id="Tracé_26053" data-name="Tracé 26053" class="cls-2" d="M42,60.5,14.27,44.78v2.6L42,63.1Z"/><path id="Tracé_26054" data-name="Tracé 26054" class="cls-2" d="M57.25,58.53,14.27,34v2.6l43,24.55Z"/><path id="Tracé_26055" data-name="Tracé 26055" class="cls-2" d="M31.76,49.21,14.27,39.38V42l17.49,9.83Z"/><path id="Tracé_26056" data-name="Tracé 26056" class="cls-2" d="M34.32,50.69v2.6L68.79,73.21v-2.6Z"/><path id="Tracé_26057" data-name="Tracé 26057" class="cls-2" d="M44.53,62v2.6L64.38,76.05v-2.6Z"/><path id="Tracé_26058" data-name="Tracé 26058" class="cls-2" d="M59.81,62.6,82.64,75.8V73.2L59.81,60Z"/><path id="Tracé_26059" data-name="Tracé 26059" class="cls-2" d="M71.35,74.69l11.29,6.52v-2.6L71.35,72.09Z"/><path id="Tracé_26060" data-name="Tracé 26060" class="cls-2" d="M14.27,31.18,82.64,70.41v-2.6L14.27,28.58Z"/><path id="Tracé_26061" data-name="Tracé 26061" class="cls-2" d="M66.94,77.52,82.65,86.6V84L66.94,74.92Z"/><path id="Tracé_26062" data-name="Tracé 26062" class="cls-2" d="M14.27,52.78,82.64,92v-2.6L14.27,50.18Z"/></g></g><g id="Groupe_24529" data-name="Groupe 24529"><g id="Groupe_5758" data-name="Groupe 5758"><path id="Tracé_14416" data-name="Tracé 14416" class="cls-3" d="M57.11,272.53s.55,5.08-1.18,8.91.43,7.58,6.79,5.84l6.86-3.9a35,35,0,0,1-2.09-11.05c-.08-6-4.63-4.9-4.63-4.9Z"/><path id="Tracé_14417" data-name="Tracé 14417" class="cls-2" d="M55.35,287.05c-1.3-1.53-1.46-3.79-.43-6.07,1.59-3.49,1.09-8.29,1.09-8.33l-.07-.57,6.39-5.66.27-.06a5,5,0,0,1,4,.84c1.31,1,2,2.75,2,5.12a34.11,34.11,0,0,0,2,10.67l.35.89-7.69,4.37-.25.11a12.11,12.11,0,0,1-3.22.47A5.52,5.52,0,0,1,55.35,287.05Zm12.87-4.17a35.94,35.94,0,0,1-1.83-10.53c0-1.14-.24-2.65-1.17-3.39a2.65,2.65,0,0,0-1.87-.48L58.26,273a20.34,20.34,0,0,1-1.32,8.9,3.52,3.52,0,0,0,.1,3.72c.9,1.05,2.81,1.28,5.26.63Z"/></g><g id="Groupe_5759" data-name="Groupe 5759"><path id="Tracé_14418" data-name="Tracé 14418" class="cls-3" d="M100.3,301.05s.52,4.69-1.08,8.23.65,8,6.51,6.37l6.09-4.58a32.29,32.29,0,0,1-1.93-10.21c-.07-5.51-4.27-4.52-4.27-4.52Z"/><path id="Tracé_14419" data-name="Tracé 14419" class="cls-2" d="M98.9,315.19a6,6,0,0,1-.69-6.37c1.45-3.21,1-7.62,1-7.65l-.06-.57,6-5.27.27-.06a4.7,4.7,0,0,1,3.74.79c1.23,1,1.87,2.57,1.9,4.78a31.07,31.07,0,0,0,1.85,9.83l.3.78-6.75,5.08-.38.19a9.81,9.81,0,0,1-2.58.37A5.8,5.8,0,0,1,98.9,315.19Zm11.6-4.51a33.74,33.74,0,0,1-1.71-9.8,4.12,4.12,0,0,0-1-3.07,2.4,2.4,0,0,0-1.64-.43l-4.66,4.13a18.77,18.77,0,0,1-1.22,8.22,3.81,3.81,0,0,0,.35,4c.94,1.1,2.58,1.42,4.66.9Z"/></g><g id="Groupe_5765" data-name="Groupe 5765"><g id="Groupe_5760" data-name="Groupe 5760"><path id="Tracé_14420" data-name="Tracé 14420" class="cls-1" d="M58,279.29A2.66,2.66,0,0,0,55,280.65c-1.33,2.56-5,8.92-10.45,11.78-6.86,3.63-2.91,7.74.4,8.47,2,.44,5.8-1,8.73-2.32A25.84,25.84,0,0,0,59.27,295a9,9,0,0,1,4.53-2,24.82,24.82,0,0,0,8.12-3.26,1.35,1.35,0,0,0,.64-1.24c-.17-2.38-.75-9.23-1.9-10.1-1.4-1.07-3-1.06-3.25,1.82s-4.86,4.13-5.43,2.24C61.61,281.23,59.76,279.79,58,279.29Z"/><path id="Tracé_14421" data-name="Tracé 14421" class="cls-2" d="M44.68,302c-2.24-.49-4.68-2.24-5-4.64-.21-1.53.37-3.79,4.33-5.89,5.12-2.71,8.68-8.81,10-11.31a3.74,3.74,0,0,1,4.36-1.92c1.89.56,4.16,2.16,4.68,3.9a1.64,1.64,0,0,0,1.32,0,2.61,2.61,0,0,0,2-2c.15-1.71.75-2.82,1.79-3.27a3.21,3.21,0,0,1,3.24.67c.45.35,1.65,1.26,2.33,10.92a2.42,2.42,0,0,1-1.17,2.26,25.41,25.41,0,0,1-8.55,3.42,7.89,7.89,0,0,0-4,1.72,26.18,26.18,0,0,1-5.85,3.79c-3.65,1.65-6.45,2.5-8.38,2.5A5.37,5.37,0,0,1,44.68,302ZM69,278.85c-.1,0-.39.39-.48,1.45-.2,2.31-2.46,3.91-4.52,4.13a2.66,2.66,0,0,1-3.07-1.68,5.43,5.43,0,0,0-3.19-2.4h0a1.55,1.55,0,0,0-1.77.81c-1.39,2.68-5.23,9.25-10.9,12.25-2.21,1.16-3.34,2.46-3.18,3.63s1.84,2.46,3.28,2.77,4.27-.52,8.05-2.24a24.58,24.58,0,0,0,5.37-3.48,10.13,10.13,0,0,1,5.07-2.21,23.53,23.53,0,0,0,7.71-3.12.21.21,0,0,0,.1-.21c-.42-6-1.13-8.9-1.47-9.3a1.71,1.71,0,0,0-.9-.42Z"/></g><g id="Groupe_5761" data-name="Groupe 5761"><path id="Tracé_14422" data-name="Tracé 14422" class="cls-2" d="M67.4,280.19a3,3,0,0,1-.57,1.46h0c.77,3.67-.11,7-1.41,7.3s-5.49,1.15-7.79,2.74-9,6.07-12.28,6.35-3.64-1.19-4.12-2c-1.09,2.54,1.34,4.35,3.67,4.86,2,.44,5.8-1,8.75-2.32A26.18,26.18,0,0,0,59.27,295a9,9,0,0,1,4.51-2,24.36,24.36,0,0,0,8.13-3.26,1.33,1.33,0,0,0,.64-1.24c-.17-2.37-.75-9.22-1.9-10.1C69.25,277.3,67.65,277.32,67.4,280.19Z"/><path id="Tracé_14423" data-name="Tracé 14423" class="cls-2" d="M44.67,302a6.55,6.55,0,0,1-4.39-3,3.9,3.9,0,0,1-.07-3.4l.86-2,1.11,1.88.19.33c.36.68.69,1.32,2.89,1.13,1.18-.1,4.29-1,11.73-6.16,2.38-1.64,6.44-2.53,8-2.87l.17,0c.48-.27,1.29-2.71.61-6l-.1-.48.29-.39a1.73,1.73,0,0,0,.35-.9v0c.15-1.72.75-2.82,1.8-3.28a3.21,3.21,0,0,1,3.23.67c.46.35,1.66,1.27,2.34,10.92a2.47,2.47,0,0,1-1.17,2.27,25.47,25.47,0,0,1-8.55,3.41,8,8,0,0,0-4,1.73,27,27,0,0,1-5.85,3.78c-3.65,1.66-6.45,2.5-8.38,2.5A4.8,4.8,0,0,1,44.67,302ZM69,278.85c-.1,0-.39.39-.48,1.45h0a4,4,0,0,1-.49,1.58c.62,3.63-.13,7.66-2.35,8.15l-.21.05c-1.42.31-5.18,1.14-7.2,2.52-6,4.13-10.3,6.33-12.8,6.55a8.08,8.08,0,0,1-2.14-.07,5.73,5.73,0,0,0,1.83.74c1.34.29,4.28-.53,8-2.25a24.18,24.18,0,0,0,5.37-3.47,10.17,10.17,0,0,1,5.07-2.21,23.79,23.79,0,0,0,7.71-3.12.22.22,0,0,0,.1-.21c-.42-6-1.13-8.9-1.46-9.3a1.78,1.78,0,0,0-.92-.43Z"/></g><g id="Groupe_5762" data-name="Groupe 5762"><path id="Tracé_14424" data-name="Tracé 14424" class="cls-2" d="M57.73,287.44,59,286.27a10.75,10.75,0,0,0-5.84-3.13l-.23,1.69A9.23,9.23,0,0,1,57.73,287.44Z"/></g><g id="Groupe_5763" data-name="Groupe 5763"><path id="Tracé_14425" data-name="Tracé 14425" class="cls-2" d="M55.59,289.73l1.24-1.16A10.75,10.75,0,0,0,51,285.44l-.23,1.69A9.21,9.21,0,0,1,55.59,289.73Z"/></g><g id="Groupe_5764" data-name="Groupe 5764"><path id="Tracé_14426" data-name="Tracé 14426" class="cls-1" d="M70.38,290c1.45-4.07-.17-8.75-.24-8.95l-1.61.56c0,.05,1.48,4.33.24,7.82Z"/></g></g><g id="Groupe_5772" data-name="Groupe 5772"><g id="Groupe_5766" data-name="Groupe 5766"><path id="Tracé_14427" data-name="Tracé 14427" class="cls-1" d="M103.18,308.33c1.92.72,2.67,2.69,2.95,4.37a1.27,1.27,0,0,0,1.46,1,1.25,1.25,0,0,0,.73-.39c1.42-1.53,3-3.53,2.78-4.52-.44-1.74-.79-3.53-.79-3.53s1.81-2,3.47,1.43.73,7.47.73,9.14-3.6,4-6.4,6.12-5.19,6.43-8.71,9.68-13.22,2.13-9.56-5.34,4.8-8.47,5.33-10.86,2.25-9.36,5-9.38a7.74,7.74,0,0,1-1,3.47A3.18,3.18,0,0,1,103.18,308.33Z"/><path id="Tracé_14428" data-name="Tracé 14428" class="cls-2" d="M89.83,333.14c-1-.75-3.11-3-1-7.3,1.58-3.21,2.68-5.21,3.48-6.67a14.32,14.32,0,0,0,1.77-3.95c2.27-10.2,5.09-10.23,6-10.24h1.1l0,1.1a4.58,4.58,0,0,1-.09.9,5,5,0,0,1,2.42.31h0c1.93.73,3.2,2.53,3.76,5.35a.14.14,0,0,0,.17,0c2.42-2.62,2.51-3.51,2.52-3.51h0c-.44-1.76-.8-3.58-.8-3.58l-.1-.53.37-.41a2.84,2.84,0,0,1,2.44-.94c1.12.15,2.08,1,2.85,2.62,1.43,3,1.13,6.2.93,8.32,0,.51-.09,1-.09,1.29,0,2-2.51,3.82-5.43,6l-1.41,1.06a26.8,26.8,0,0,0-4.07,4.44,42.94,42.94,0,0,1-4.56,5.16,8.65,8.65,0,0,1-5.75,2A7.81,7.81,0,0,1,89.83,333.14Zm21.72-27.33c.14.68.36,1.72.62,2.75.2.82,0,2.2-3,5.55a2.37,2.37,0,0,1-4.08-1.22c-.32-1.9-1.07-3.08-2.25-3.52h0a2,2,0,0,0-2.71.71h0l-1.7-.9a28.72,28.72,0,0,0-2.11,6.52,15.62,15.62,0,0,1-2,4.52c-.79,1.45-1.88,3.43-3.43,6.59-1,2.1-.92,3.62.31,4.54,1.84,1.37,5.76,1.11,7.5-.5A41.22,41.22,0,0,0,103,326a27.65,27.65,0,0,1,4.47-4.83c.46-.36.94-.71,1.43-1.07,1.58-1.18,4.53-3.35,4.53-4.19,0-.38,0-.9.1-1.49.18-1.88.44-4.72-.73-7.15-.46-1-.9-1.36-1.15-1.4h-.08Z"/></g><g id="Groupe_5767" data-name="Groupe 5767"><path id="Tracé_14429" data-name="Tracé 14429" class="cls-2" d="M110.31,305.31s.35,1.79.79,3.52V309a8.37,8.37,0,0,1,.3.93,7.1,7.1,0,0,1,.21,1.72,9.46,9.46,0,0,1-3.72,7.46,44.42,44.42,0,0,0-9.17,9.55c-4,6.06-8.75,2.92-8.75,2.92,0,1.58,7,2.35,9.43.11,3.52-3.24,5.91-7.54,8.72-9.67s6.4-4.47,6.4-6.14.93-5.66-.74-9.13S110.31,305.31,110.31,305.31Z"/><path id="Tracé_14430" data-name="Tracé 14430" class="cls-2" d="M90.44,333.48c-1.3-.57-1.57-1.36-1.57-1.92v-2l1.7,1.08c.4.26,4,2.34,7.23-2.6a45.28,45.28,0,0,1,9.4-9.8,8.46,8.46,0,0,0,3.31-6.58,6,6,0,0,0-.18-1.47,8.53,8.53,0,0,0-.27-.81L110,309c-.43-1.73-.77-3.47-.77-3.47l-.1-.53.37-.41a2.88,2.88,0,0,1,2.44-.95c1.12.16,2.08,1,2.85,2.63,1.43,3,1.13,6.2.93,8.32,0,.52-.09,1-.09,1.3,0,1.95-2.51,3.81-5.43,6l-1.41,1.05a26.05,26.05,0,0,0-4.07,4.45,44.64,44.64,0,0,1-4.56,5.16c-1.29,1.19-3.56,1.68-5.69,1.68A10.57,10.57,0,0,1,90.44,333.48Zm21.11-27.66c.14.67.36,1.72.62,2.75a1.55,1.55,0,0,1,0,.21,8.75,8.75,0,0,1,.27.87,9.22,9.22,0,0,1,.24,2,10.6,10.6,0,0,1-4.15,8.35,43.71,43.71,0,0,0-8.93,9.29,11.41,11.41,0,0,1-1.71,2.08,3.08,3.08,0,0,0,.72-.47,44,44,0,0,0,4.33-4.92,27.65,27.65,0,0,1,4.47-4.83l1.43-1.07c1.59-1.17,4.53-3.34,4.53-4.18,0-.39,0-.9.1-1.5.18-1.88.44-4.72-.73-7.15-.46-1-.9-1.35-1.15-1.39Z"/></g><g id="Groupe_5768" data-name="Groupe 5768"><path id="Tracé_14431" data-name="Tracé 14431" class="cls-2" d="M103.28,318l1-1.35c-3.21-2.49-8.63-2.94-8.85-3l-.14,1.7S100.47,315.81,103.28,318Z"/></g><g id="Groupe_5769" data-name="Groupe 5769"><path id="Tracé_14432" data-name="Tracé 14432" class="cls-2" d="M101.6,321l1-1.36c-3.22-2.48-8-2.8-8.2-2.81l-.1,1.7S98.8,318.8,101.6,321Z"/></g><g id="Groupe_5770" data-name="Groupe 5770"><rect id="Rectangle_4554" data-name="Rectangle 4554" class="cls-2" x="97.07" y="309.82" width="3.07" height="1.7" transform="translate(-225.42 275.28) rotate(-66.16)"/></g><g id="Groupe_5771" data-name="Groupe 5771"><path id="Tracé_14433" data-name="Tracé 14433" class="cls-1" d="M113.41,317a19.47,19.47,0,0,0,.32-7.64l-1.68.27a18,18,0,0,1-.27,6.86Z"/></g></g><g id="Groupe_5779" data-name="Groupe 5779"><g id="Groupe_5773" data-name="Groupe 5773"><path id="Tracé_14434" data-name="Tracé 14434" class="cls-2" d="M98,300.78a260.78,260.78,0,0,0-.16-36.66c-.71-7.83-1.08-13.48-1.27-17.34a19.21,19.21,0,0,1,3.48-12l11.53-16.4a.27.27,0,0,0-.06-.36.25.25,0,0,0-.26,0c-3.43,1.5-16.5,6.79-29.88,6.54L70.1,225.81a.29.29,0,0,0-.27.31.35.35,0,0,0,0,.11c.74,1.37,3.07,6.41,2.2,14.71-1,9.82-3.25,17.54-3.57,30.68,0,0-6.5,5.63-13.14-.43,0,0,.44-31.19,0-43.6s-.29-15.3,9.39-21.22,31.75-8.23,42-8.37,28.59,6.5,28.59,6.5l7.21,4.91s6.5,14.71-13.13,26.7c0,0-11.44,8.79-15.8,12.1a.29.29,0,0,0-.08.4h0c.64,1,3.16,5.83,3,15.8-.14,11.4-3.46,20.21-4.47,32l-.29,4S106.33,305,98,300.78Z"/><path id="Tracé_14435" data-name="Tracé 14435" class="cls-2" d="M97.46,301.76l-.66-.33,0-.74a258.09,258.09,0,0,0-.16-36.47c-.6-6.64-1-12.49-1.26-17.39a20.42,20.42,0,0,1,3.67-12.66l9.86-14c-5.52,2.16-16.44,5.69-27.5,5.51l-10.1,1.12a28.41,28.41,0,0,1,1.81,14.27c-.37,3.57-.88,6.79-1.43,10.2a141.13,141.13,0,0,0-2.14,20.4v.5l-.37.31c-.07.06-7.32,6.2-14.61-.45l-.36-.34v-.5c0-.3.43-31.29,0-43.53-.44-12.79-.17-16,9.91-22.2,9.67-5.92,31.25-8.38,42.57-8.54,10.39-.13,28.22,6.29,29,6.56l7.72,5.21.13.3c.07.15,6.65,15.75-13.48,28,0,0-10.54,8.1-15.25,11.68,1,2,3,6.86,2.84,15.76a97,97,0,0,1-2.29,17.88,134,134,0,0,0-2.2,14.23l-.32,4.51-.37.31A12.39,12.39,0,0,1,105,303.7,16.74,16.74,0,0,1,97.46,301.76Zm13.52-5.4a134,134,0,0,1,2.23-14.48,95.27,95.27,0,0,0,2.25-17.49c.12-9.78-2.38-14.38-2.88-15.21a1.41,1.41,0,0,1,.36-1.85c4.36-3.31,15.8-12.1,15.9-12.16,17.27-10.55,13.58-23,12.8-25l-6.82-4.64c-1.64-.58-18.64-6.5-28.06-6.38s-31.8,2.31-41.44,8.21c-9.1,5.58-9.29,7.79-8.86,20.24.4,11.43.06,39,0,43.14a8.52,8.52,0,0,0,10.93.37,143.61,143.61,0,0,1,2.15-20.16c.55-3.38,1-6.58,1.42-10.07.81-8-1.38-12.79-2.08-14.08a1.38,1.38,0,0,1,0-1.31,1.44,1.44,0,0,1,1.09-.74l11.39-1.25c13,.27,25.82-4.87,29.41-6.44a1.37,1.37,0,0,1,1.81.7,1.39,1.39,0,0,1-.13,1.34l-11.54,16.39a18.22,18.22,0,0,0-3.26,11.28c.23,4.87.65,10.69,1.25,17.28a260.3,260.3,0,0,1,.22,36.09c6.14,2.78,10.38.6,11.62-.2Z"/></g><g id="Groupe_5774" data-name="Groupe 5774"><path id="Tracé_14436" data-name="Tracé 14436" class="cls-1" d="M68.87,226.05l1.41-1A12.48,12.48,0,0,0,65.56,221l-.7,1.56A10.86,10.86,0,0,1,68.87,226.05Z"/></g><g id="Groupe_5775" data-name="Groupe 5775"><path id="Tracé_14437" data-name="Tracé 14437" class="cls-1" d="M112.23,248.41l1.32-1.07a7.13,7.13,0,0,0-5.83-2.48l.16,1.7-.08-.85.08.85A5.39,5.39,0,0,1,112.23,248.41Z"/></g><g id="Groupe_5776" data-name="Groupe 5776"><path id="Tracé_14438" data-name="Tracé 14438" class="cls-1" d="M62.39,271a13.21,13.21,0,0,0,5.34-1l-.68-1.55c-4.59,2-10,0-10.1,0l-.6,1.6A19.13,19.13,0,0,0,62.39,271Z"/></g><g id="Groupe_5777" data-name="Groupe 5777"><path id="Tracé_14439" data-name="Tracé 14439" class="cls-1" d="M133.49,231.15l.84-1.49c-6.91-3.9-4-10.75-3.87-11l-1.56-.68C128.87,218,125.24,226.49,133.49,231.15Z"/></g><g id="Groupe_5778" data-name="Groupe 5778"><path id="Tracé_14440" data-name="Tracé 14440" class="cls-1" d="M105.34,300a13.43,13.43,0,0,0,5.35-1l-.68-1.56c-4.6,2-10.06,0-10.11,0l-.59,1.6A19,19,0,0,0,105.34,300Z"/></g></g><g id="Groupe_5782" data-name="Groupe 5782"><g id="Groupe_5780" data-name="Groupe 5780"><path id="Tracé_14441" data-name="Tracé 14441" class="cls-3" d="M110.8,149.64s-.2.56-.52,1.52A89.32,89.32,0,0,0,106,174l-.13,2.1a.47.47,0,0,1-.37.45,32.91,32.91,0,0,0-9.07,4.57c-3.79,2.6-13.75,11.7-13.75,11.7L95.06,198l27-14,4.87-18.19-7-10.83-6.36-6.39Z"/><path id="Tracé_14442" data-name="Tracé 14442" class="cls-2" d="M80.7,193.11,82,192c.41-.38,10-9.18,13.87-11.79a35.76,35.76,0,0,1,9-4.62l.09-1.66a90.16,90.16,0,0,1,4.32-23.06c.32-1,.52-1.55.52-1.55l.17-.49,3.92-1.48,6.88,6.9,7.36,11.42L123,184.76,95.11,199.22Zm45-27.12-6.62-10.31-5.78-5.8-1.62.61c-.09.25-.2.6-.34,1a88.45,88.45,0,0,0-4.21,22.5l-.11,2.1a1.6,1.6,0,0,1-1.22,1.47A32.07,32.07,0,0,0,97.09,182c-2.88,2-9.54,7.9-12.34,10.43L95,196.78l26.07-13.54Z"/></g><g id="Groupe_5781" data-name="Groupe 5781"><path id="Tracé_14443" data-name="Tracé 14443" class="cls-3" d="M117.75,154.54c-.43.36-4.79-2.53-8-6,0,0,6-18.84,15.19-19.46s3.5,9.12,3.5,9.12Z"/><path id="Tracé_14444" data-name="Tracé 14444" class="cls-2" d="M108.92,149.31l-.44-.47.2-.62c.25-.8,6.39-19.57,16.17-20.22,2.82-.19,4.75.51,5.73,2.1,1.93,3.1-.88,8.12-1.24,8.73l-10.66,16.32-.22.25a1.05,1.05,0,0,1-.7.23C115.15,155.62,109,149.38,108.92,149.31ZM125,130.21c-6.61.44-12.15,12.64-14,18.06a31.25,31.25,0,0,0,6.28,5l10.19-15.6c.65-1.13,2.28-4.73,1.24-6.4-.45-.73-1.44-1.09-3-1.09l-.74,0Z"/></g></g><g id="Groupe_5803" data-name="Groupe 5803"><g id="Groupe_5783" data-name="Groupe 5783"><path id="Tracé_14445" data-name="Tracé 14445" class="cls-1" d="M125.91,129.76s-7.22,2.36-8.73,15.13-7.51,40-13.68,49.06c0,0-3.25,5.2,5.74,8.23s15.15,3.8,23.78,10.9,13.28,9.79,14.91,1,7.76-29.57,11.44-37.47,5.52-35.42,5.52-35.42-4.69-7.1-17.32-12.11C139.15,125.76,125.91,129.76,125.91,129.76Z"/><path id="Tracé_14446" data-name="Tracé 14446" class="cls-2" d="M132.32,213.94c-6.74-5.54-11.84-7.1-18.29-9.07-1.63-.5-3.33-1-5.14-1.64-3.67-1.24-5.94-3-6.76-5.27a5.63,5.63,0,0,1,.45-4.62c6.16-9.07,12.06-36.45,13.5-48.58,1.58-13.33,9.16-15.95,9.49-16.06h0c.55-.17,13.71-4.06,22.39-.62,12.8,5.09,17.64,12.23,17.84,12.53l.2.32,0,.37c-.08,1.13-1.9,27.81-5.62,35.81-3.58,7.68-9.73,28.4-11.35,37.2-.66,3.52-1.83,5.48-3.7,6.16a4,4,0,0,1-1.46.25C141.11,220.72,137.62,218.3,132.32,213.94Zm14.84-83.8c-7.81-3.11-20.34.5-20.91.67s-6.58,2.55-8,14.21c-1.5,12.67-7.42,40.07-13.84,49.53a3.38,3.38,0,0,0-.22,2.68c.56,1.56,2.41,2.92,5.37,3.91,1.8.6,3.48,1.12,5.09,1.61,6.43,2,12,3.67,19,9.48,4.12,3.39,8.69,6.94,10.85,6.16,1-.38,1.79-1.89,2.27-4.5,1.67-9,7.79-29.7,11.52-37.72,3.32-7.12,5.15-31.23,5.4-34.63-1-1.35-5.86-7.14-16.6-11.4Z"/></g><g id="Groupe_5797" data-name="Groupe 5797"><g id="Groupe_5784" data-name="Groupe 5784"><path id="Tracé_14447" data-name="Tracé 14447" class="cls-3" d="M138.72,128.56c-3.54,2.65-8.94,2.88-11.81,2.79a3.32,3.32,0,0,1-2.82-1.76,35.62,35.62,0,0,1-2.76-26.73l18.94-1.93,4.27,6.18a7.44,7.44,0,0,1,1.14,5.88c-.45,2-.41,5.14,1.93,9.48,6.56,12.18,3.44,14.83-5.46,21.86-6.32,5-16.86,1.14-10-13.28Z"/><path id="Tracé_14448" data-name="Tracé 14448" class="cls-2" d="M131.62,145.91c-1.59-1.26-4.7-5-1.26-13.54a26.81,26.81,0,0,1-3.47.08,4.39,4.39,0,0,1-3.78-2.35,36.46,36.46,0,0,1-2.82-27.62l.23-.65,20.29-2.06,4.64,6.72a8.57,8.57,0,0,1,1.32,6.76c-.4,1.7-.4,4.59,1.82,8.7,7.07,13.13,3,16.3-5.75,23.25a10.45,10.45,0,0,1-6.4,2.31A7.67,7.67,0,0,1,131.62,145.91Zm-9.45-42a35.17,35.17,0,0,0,2.9,25.2,2.21,2.21,0,0,0,1.88,1.15c2.75.09,7.85-.12,11.1-2.56l1.34,1.77a15.36,15.36,0,0,1-6.47,2.59c-2.57,5.64-2.55,10,.08,12.14,2.18,1.73,5.74,1.43,8.46-.73,8.74-6.89,11.37-9,5.19-20.45-2.54-4.73-2.51-8.19-2-10.26a6.34,6.34,0,0,0-1-5l-3.89-5.64Z"/></g><g id="Groupe_5785" data-name="Groupe 5785"><path id="Tracé_14449" data-name="Tracé 14449" class="cls-2" d="M147.23,93.88c-7.85-6.68-19.79-.95-22.25-2.35-2-1.17-1.25-3.88-.92-4.76a.2.2,0,0,0-.11-.24.14.14,0,0,0-.09,0c-1.58.16-8.73,1.34-9.88,9.45-1.29,9.13,5.94,12,5.94,12,3,1.49,6.12,1.54,9.47,1.41a6.92,6.92,0,0,1,3.83.88,5.81,5.81,0,0,1,2.64,3.35,2,2,0,0,0,2,1.48l3.06-.21L144,114a3.94,3.94,0,0,1,.86,2.18v3.26a14.54,14.54,0,0,0,7.26-13.29C152.49,101.54,151.61,97.6,147.23,93.88Z"/><path id="Tracé_14450" data-name="Tracé 14450" class="cls-2" d="M143.78,116.13a2.08,2.08,0,0,0-.25-.87l-2.28.68-3.3.26a3.09,3.09,0,0,1-3.15-2.26,4.72,4.72,0,0,0-2.15-2.73,5.93,5.93,0,0,0-3.23-.72c-3.26.13-6.73.12-9.91-1.48-.08,0-8-3.31-6.63-13.18,1.26-9,9.27-10.25,10.86-10.4a1.28,1.28,0,0,1,1.42,1.13,1.36,1.36,0,0,1-.07.6c-.23.61-.87,2.67.44,3.41.46.27,2.6-.09,4.16-.34,5-.82,12.55-2,18.25,2.8h0c4.16,3.53,5.74,7.47,5.3,13a15.48,15.48,0,0,1-7.86,14.31l-1.61.82Zm2.73-21.41c-4.92-4.19-11.59-3.1-16.47-2.3-2.7.43-4.47.72-5.61.08-1.54-.89-2.18-2.57-1.81-4.65a9.42,9.42,0,0,0-7.55,8.29c-1.14,8.11,5,10.71,5.35,10.86,2.8,1.4,5.94,1.4,8.92,1.28a8,8,0,0,1,4.45,1,6.94,6.94,0,0,1,3.13,4,.86.86,0,0,0,.88.69l2.94-.21,3.75-1.11.45.65a5,5,0,0,1,1.05,2.82v1.17A13.53,13.53,0,0,0,151,106c.38-5-.93-8.24-4.54-11.31Z"/></g><g id="Groupe_5786" data-name="Groupe 5786"><path id="Tracé_14451" data-name="Tracé 14451" class="cls-1" d="M128.92,108.37c.06-.05,6.73-4.79,13.75-1.83l.67-1.57c-7.93-3.35-15.12,1.81-15.42,2Z"/></g><g id="Groupe_5787" data-name="Groupe 5787"><path id="Tracé_14452" data-name="Tracé 14452" class="cls-1" d="M146.37,113c1.92-3.1-.72-6.29-.84-6.42l-1.3,1.09c.08.09,2,2.39.69,4.43Z"/></g><g id="Groupe_5788" data-name="Groupe 5788"><path id="Tracé_14453" data-name="Tracé 14453" class="cls-1" d="M147,105.11l1.5-.81c-3.52-6.54-12-6-12.37-6l.13,1.7C136.28,100.05,144,99.55,147,105.11Z"/></g><g id="Groupe_5789" data-name="Groupe 5789"><path id="Tracé_14454" data-name="Tracé 14454" class="cls-1" d="M130.05,101.5a10.8,10.8,0,0,1,3.72-1.14l-.25-1.68a12.45,12.45,0,0,0-4.36,1.36l.89,1.45-.45-.72Z"/></g><g id="Groupe_5790" data-name="Groupe 5790"><path id="Tracé_14455" data-name="Tracé 14455" class="cls-3" d="M140.44,121.85h0a6.31,6.31,0,0,0,4.24-2.89,6.13,6.13,0,0,0,1.14-4.08c-.52-2.92-3.39-2.22-4.62-.41l-1,1.64Z"/><path id="Tracé_14456" data-name="Tracé 14456" class="cls-2" d="M140.64,122.94a7.48,7.48,0,0,0,5-3.4,7,7,0,0,0,1.29-4.85,3.22,3.22,0,0,0-2.41-2.83,4.3,4.3,0,0,0-4.22,2l-1.06,1.66,1.85,1.2,1.06-1.64a2.12,2.12,0,0,1,1.91-1c.35.07.58.43.69,1a5.07,5.07,0,0,1-1,3.3,5.18,5.18,0,0,1-3.49,2.38Z"/></g><g id="Groupe_5791" data-name="Groupe 5791"><path id="Tracé_14457" data-name="Tracé 14457" class="cls-2" d="M125.18,124h.14a9.33,9.33,0,0,0,3.26-1l-.87-1.47a6.87,6.87,0,0,1-1.92.68c-.07-1.66.12-4.34.12-4.37l-1.7-.11a43.9,43.9,0,0,0-.06,5.38l0,.35.35.35A1.08,1.08,0,0,0,125.18,124Z"/></g><g id="Groupe_5792" data-name="Groupe 5792"><path id="Tracé_14458" data-name="Tracé 14458" class="cls-2" d="M130.62,116.26c.09,1.3-.5,2.4-1.33,2.46s-1.59-.93-1.69-2.23.49-2.38,1.33-2.45S130.52,115,130.62,116.26Z"/></g><g id="Groupe_5793" data-name="Groupe 5793"><path id="Tracé_14459" data-name="Tracé 14459" class="cls-2" d="M122.81,116.55c.1,1.3-.49,2.4-1.33,2.46s-1.58-.93-1.68-2.23.49-2.38,1.32-2.45S122.71,115.26,122.81,116.55Z"/></g><g id="Groupe_5794" data-name="Groupe 5794"><path id="Tracé_14460" data-name="Tracé 14460" class="cls-2" d="M127.2,127.49a4.7,4.7,0,0,0,3-1.06l-1.09-1.31a3.07,3.07,0,0,1-2.35.64l-.36,1.67A5,5,0,0,0,127.2,127.49Z"/></g><g id="Groupe_5796" data-name="Groupe 5796"><g id="Groupe_5795" data-name="Groupe 5795"><path id="Tracé_14461" data-name="Tracé 14461" class="cls-1" d="M118.19,94.78c0-.14,1.28-3.61,4.68-3.8l-.1-1.7c-4.56.26-6.13,4.77-6.19,5Z"/></g></g></g><g id="Groupe_5798" data-name="Groupe 5798"><path id="Tracé_14462" data-name="Tracé 14462" class="cls-3" d="M137.84,146.38l2.75,4.57a.69.69,0,0,0,.93.25c1.77-1,7.12-4.2,10.4-8.85,4-5.64,5.55-12.86-2.1-17.11,0,0,.55,6-2.12,10.61S137.84,146.38,137.84,146.38Z"/><path id="Tracé_14463" data-name="Tracé 14463" class="cls-2" d="M139.65,151.52l-3.25-5.39.74-.61c.07-.05,7.05-5.83,9.6-10.22s2-9.9,2-10l-.19-2.09,1.83,1c3.14,1.75,5.07,4.09,5.73,7,.8,3.46-.36,7.63-3.26,11.75-3.33,4.75-8.63,8-10.76,9.19a1.84,1.84,0,0,1-.87.22A1.78,1.78,0,0,1,139.65,151.52Zm9-15.12c-2.26,3.9-7.44,8.55-9.37,10.21l2.06,3.41c1.88-1.08,6.71-4.11,9.66-8.32,2.53-3.59,3.56-7.14,2.92-10a7.89,7.89,0,0,0-3-4.42,20,20,0,0,1-2.31,9.09Z"/></g><g id="Groupe_5799" data-name="Groupe 5799"><path id="Tracé_14464" data-name="Tracé 14464" class="cls-3" d="M126.59,144.47a14.39,14.39,0,0,1,4.06-1.55s-1.54-7.35,2.14-12a17.88,17.88,0,0,1-5.54.58A17,17,0,0,0,126,144.2a.46.46,0,0,0,.56.3Z"/><path id="Tracé_14465" data-name="Tracé 14465" class="cls-2" d="M125.79,145.51a1.58,1.58,0,0,1-.9-1,18,18,0,0,1,1.4-13.57l.37-.6.7.07a16.7,16.7,0,0,0,5.12-.54l3.29-.92-2.13,2.68c-3.3,4.14-1.93,11-1.92,11.06l.24,1.16-1.17.16a13.21,13.21,0,0,0-3.68,1.43h0a1.52,1.52,0,0,1-.73.18A1.72,1.72,0,0,1,125.79,145.51Zm4.75-13a15.6,15.6,0,0,1-2.64.16,16.19,16.19,0,0,0-1.1,10.44,18.06,18.06,0,0,1,2.58-1,18.59,18.59,0,0,1,1.16-9.56Z"/></g><g id="Groupe_5800" data-name="Groupe 5800"><path id="Tracé_14466" data-name="Tracé 14466" class="cls-2" d="M129.24,159.08a67.62,67.62,0,0,1,3.52-14.16l-2.06-.8a67.73,67.73,0,0,0-3.65,14.7Z"/></g><g id="Groupe_5801" data-name="Groupe 5801"><path id="Tracé_14467" data-name="Tracé 14467" class="cls-2" d="M135.28,152.27a1.37,1.37,0,1,1-1.38-1.36,1.36,1.36,0,0,1,1.38,1.36h0Z"/></g><g id="Groupe_5802" data-name="Groupe 5802"><path id="Tracé_14468" data-name="Tracé 14468" class="cls-2" d="M134.46,156.75a1.37,1.37,0,1,1-1.36-1.37,1.36,1.36,0,0,1,1.36,1.37Z"/></g></g><g id="Groupe_5806" data-name="Groupe 5806"><g id="Groupe_5804" data-name="Groupe 5804"><path id="Tracé_14469" data-name="Tracé 14469" class="cls-3" d="M75.32,200.05,116,223.52a.26.26,0,0,0,.27,0l27.91-16.62a.27.27,0,0,0,.1-.36.32.32,0,0,0-.1-.1l-40.34-23.77a.22.22,0,0,0-.27,0L75.31,199.6a.26.26,0,0,0-.09.36.28.28,0,0,0,.1.09Z"/><path id="Tracé_14470" data-name="Tracé 14470" class="cls-2" d="M115.41,224.48,74.76,201h0a1.37,1.37,0,0,1,0-2.36L103,181.72a1.37,1.37,0,0,1,1.41,0l40.34,23.77a1.37,1.37,0,0,1,.49,1.88,1.33,1.33,0,0,1-.48.49L116.8,224.47a1.38,1.38,0,0,1-1.39,0Zm-11.73-40.62L77.11,199.8l39,22.51,26.27-15.65Z"/></g><g id="Groupe_5805" data-name="Groupe 5805"><path id="Tracé_14471" data-name="Tracé 14471" class="cls-2" d="M119,216.32l14.5-8.67a1.5,1.5,0,0,0,0-2.59L124,199.52l-1.13,1.9,8.42,4.94-13.47,8Z"/></g></g><g id="Groupe_5811" data-name="Groupe 5811"><g id="Groupe_5807" data-name="Groupe 5807"><path id="Tracé_14472" data-name="Tracé 14472" class="cls-3" d="M153.88,168.47a73.91,73.91,0,0,0-2.76,13.65,110.84,110.84,0,0,0-.74,13h0c-.12,0-8.89-1.63-16.48.72S116,197.05,116,197.05s-5.28-3.9-7.59-3.68-1.15,2.47-1.15,2.47-11,3.75-6.93,7.25S116,204.3,116,204.3s27.26,2.94,41.7.88a1.94,1.94,0,0,0,1.45-1c1.59-3,7.49-14.1,9.19-34.21,2-24.05-14.45-4.06-14.45-4.06Z"/><path id="Tracé_14473" data-name="Tracé 14473" class="cls-2" d="M116,205.42c-1.84.35-12.26,2.12-16.43-1.49a3.07,3.07,0,0,1-1.23-3c.53-2.73,5.23-4.86,7.51-5.74a2.42,2.42,0,0,1,1.9-2.85,2.24,2.24,0,0,1,.52,0c2.44-.23,6.76,2.74,8.1,3.71,1.7.16,10.58.86,17.21-1.2,6.07-1.88,12.89-1.31,15.69-.95A111.5,111.5,0,0,1,150,182a75.14,75.14,0,0,1,2.75-13.69l0-2.83.26-.31c.84-1,8.32-9.87,13.17-7.9,2.81,1.15,3.87,5.32,3.24,12.77-1.15,13.54-4.29,25.19-9.32,34.64a3.07,3.07,0,0,1-2.27,1.59,97.91,97.91,0,0,1-13.37.76C131.66,207,117.83,205.61,116,205.42Zm39-39.15,0,2.38-.06.18a73.06,73.06,0,0,0-2.71,13.42,107.51,107.51,0,0,0-.73,12.81l.07,1.42-1.39-.26c-.08,0-8.63-1.58-15.93.68-7.77,2.41-18,1.31-18.4,1.27l-.3,0-.23-.17c-2-1.52-5.53-3.58-6.83-3.48-.37,0-.42.11-.42.11a1.3,1.3,0,0,0,.15.75l.59,1.14-1.22.41c-2.67.92-6.77,3-7.06,4.45,0,.11-.08.42.5.92,3,2.57,11.65,1.57,14.74,1l.16,0,.17,0c.27,0,27.29,2.9,41.42.88a.84.84,0,0,0,.63-.45c6.1-11.43,8.29-24.68,9.07-33.79.69-8.21-.87-10.12-1.87-10.52a1.82,1.82,0,0,0-.73-.13c-2.54,0-6.92,3.86-9.65,7.08Z"/></g><g id="Groupe_5808" data-name="Groupe 5808"><path id="Tracé_14474" data-name="Tracé 14474" class="cls-3" d="M152.43,168.48a6.14,6.14,0,0,1-1.28-4.06c.19-5.57,1.36-22.69,8.47-25.83,8.52-3.75,11.4,21.81,11,28.23s-14.83,3.44-16.69,2.81A3.46,3.46,0,0,1,152.43,168.48Z"/><path id="Tracé_14475" data-name="Tracé 14475" class="cls-2" d="M153.54,170.68a4.32,4.32,0,0,1-2-1.51h0a7.25,7.25,0,0,1-1.52-4.79c.23-6.95,1.6-23.48,9.12-26.79a4.81,4.81,0,0,1,4.9.45c6.31,4.43,7.93,24.26,7.62,28.86a4.52,4.52,0,0,1-2.12,3.6c-1.68,1.13-4.17,1.5-6.7,1.5A36.8,36.8,0,0,1,153.54,170.68Zm6.53-31.07c-5.21,2.3-7.45,14.34-7.81,24.85a5,5,0,0,0,1,3.33,2.43,2.43,0,0,0,1,.8c1.92.65,10.84,2.23,14.09.07a2.34,2.34,0,0,0,1.13-1.92c.37-5.44-1.75-23.43-6.69-26.89a2.58,2.58,0,0,0-1.51-.52,3,3,0,0,0-1.21.27Z"/></g><g id="Groupe_5809" data-name="Groupe 5809"><path id="Tracé_14476" data-name="Tracé 14476" class="cls-2" d="M154.19,202.6a4.12,4.12,0,0,0,2.12-.55A3.66,3.66,0,0,0,158,199.7l-2.16-.52a1.42,1.42,0,0,1-.62,1,2.39,2.39,0,0,1-1.6.17l-.55,2.15A5,5,0,0,0,154.19,202.6Z"/></g><g id="Groupe_5810" data-name="Groupe 5810"><path id="Tracé_14477" data-name="Tracé 14477" class="cls-2" d="M161.94,166.58c3,0,6.63-.48,9.34-2.42l-1.29-1.8c-4.53,3.23-12.81,1.58-12.89,1.56l-.45,2.17A28.53,28.53,0,0,0,161.94,166.58Z"/></g></g><g id="Groupe_5814" data-name="Groupe 5814"><g id="Groupe_5812" data-name="Groupe 5812"><path id="Tracé_14478" data-name="Tracé 14478" class="cls-1" d="M116,223.26l-13.82-31.59,0,0L60.32,166.84a.12.12,0,0,0-.17,0,.11.11,0,0,0,0,.11l14.76,32.8.06.06,40.82,23.57a.11.11,0,0,0,.16,0,.12.12,0,0,0,0-.13Z"/><path id="Tracé_14479" data-name="Tracé 14479" class="cls-2" d="M74.39,200.8l-.34-.23L59.13,167.44a1.23,1.23,0,0,1,.31-1.41l.75-.56,42.46,25.19.36.24,14,31.91h0a1.23,1.23,0,0,1-.31,1.4l-.74.55Zm-12-31.42,13.35,29.67L113.73,221,101.25,192.4Z"/></g><g id="Groupe_5813" data-name="Groupe 5813"><path id="Tracé_14480" data-name="Tracé 14480" class="cls-3" d="M85.77,197.28c1.74,2.21,4,3.37,5,2.58s.4-3.24-1.34-5.45-4-3.37-5-2.58S84,195.06,85.77,197.28Z"/><path id="Tracé_14481" data-name="Tracé 14481" class="cls-2" d="M84.9,198h0A9.92,9.92,0,0,1,83,194.29c-.49-2,.26-2.94.75-3.33,1.77-1.39,4.63.33,6.54,2.76s2.92,5.61,1.16,7a2.4,2.4,0,0,1-1.48.5C88.32,201.22,86.34,199.8,84.9,198Zm.21-5.26c-.19.22-.1,1.83,1.53,3.89h0c1.62,2.07,3.17,2.54,3.42,2.4s.11-1.82-1.52-3.89c-1.46-1.86-2.85-2.42-3.3-2.42Z"/></g></g><g id="Groupe_5819" data-name="Groupe 5819"><g id="Groupe_5815" data-name="Groupe 5815"><path id="Tracé_14482" data-name="Tracé 14482" class="cls-1" d="M117.3,267.48c0-.31.49-7.49-.52-11.67l-1.65.4c.94,3.93.47,11.07.47,11.15Z"/></g><g id="Groupe_5816" data-name="Groupe 5816"><path id="Tracé_14483" data-name="Tracé 14483" class="cls-1" d="M96.21,255.29l1.7-.13c-.29-3.63-.48-10.72-.48-10.79l-1.71,0C95.73,244.49,95.92,251.63,96.21,255.29Z"/></g><g id="Groupe_5817" data-name="Groupe 5817"><path id="Tracé_14484" data-name="Tracé 14484" class="cls-1" d="M72.82,241.86a35.07,35.07,0,0,0-.88-12.74l-1.63.47a34.44,34.44,0,0,1,.82,12Z"/></g><g id="Groupe_5818" data-name="Groupe 5818"><path id="Tracé_14485" data-name="Tracé 14485" class="cls-1" d="M54.61,232.11l1.7-.16a73.94,73.94,0,0,1-.17-12.18l-1.7-.15A74.42,74.42,0,0,0,54.61,232.11Z"/></g></g></g></g></svg>