<?xml version="1.0" encoding="utf-8"?>
<!-- Generator: Adobe Illustrator 25.4.1, SVG Export Plug-In . SVG Version: 6.00 Build 0)  -->
<svg version="1.1" id="Calque_1" xmlns="http://www.w3.org/2000/svg" xmlns:xlink="http://www.w3.org/1999/xlink" x="0px" y="0px"
	 viewBox="0 0 122.01 85.01" style="enable-background:new 0 0 122.01 85.01;" xml:space="preserve">
<style type="text/css">
	.st0{fill:#191F31;}
	.st1{fill-rule:evenodd;clip-rule:evenodd;fill:#191F31;}
	.st2{fill:#C8CBD3;}
	.st3{fill:#838BA6;}
	.st4{fill:#FFFFFF;}
	.st5{fill:#7C8DC6;}
	.st6{fill:#5F6CB1;}
	.st7{fill:#4C57A3;}
</style>
<g id="Groupe_35308" transform="translate(1722.38 -292)">
	<path id="Tracé_37177" class="st0" d="M-1639.36,316.87L-1639.36,316.87c-12.33,0.15-27.82,3.29-34.64,9.95
		c-3.35,3.04-4.72,7.69-3.55,12.06c1.12,4.39,4.55,7.82,8.94,8.95c0.8,0.23,1.62,0.34,2.45,0.32l-0.8-0.76l-0.76-0.98
		c-0.59-0.94-1.04-1.95-1.33-3.02c-0.19-0.68-0.29-1.38-0.29-2.09c0.04-2.14,0.93-4.18,2.46-5.67c3.86-4,12.13-6.03,24.56-6.01
		l7.35,0.14c0.01,0,0.17-0.02,0.17-0.02c0.03-0.06,0.06-0.13,0.08-0.2c0.68-2.02,1.14-4.12,1.35-6.25c0.19-2,0.17-4.02-0.04-6.02
		l-0.07-0.2l-0.11-0.04C-1635.3,316.9-1637.19,316.84-1639.36,316.87L-1639.36,316.87z"/>
	<path id="Tracé_37178" class="st0" d="M-1664.03,292.33L-1664.03,292.33c-1.67,0.14-3.32,0.44-4.93,0.89l-0.1,0.03l-0.12,0.04l0,0
		l-0.07,0.13c-0.93,3.23-5.4,6.75-7.55,8.44l-0.9,0.72l-0.76,0.64c-1.72,1.39-3.35,2.89-4.88,4.48c-1.55,1.63-2.91,3.43-4.08,5.35
		c-1,1.77-1.67,3.71-1.98,5.72c-0.17,1.02-0.26,2.06-0.26,3.1c0,0.4,0.02,0.78,0.04,1.15l0.03,0.36c0.07,0.83,0.23,1.65,0.47,2.45
		l0,0l0.06-0.21l0.31-1.12l0.09-0.3l0.4-1.3c0.87-2.48,2.23-4.76,4.02-6.69c3.9-4.29,8-6.63,11.96-8.9c3.11-1.63,6.03-3.62,8.7-5.91
		c2.55-2.3,4.53-5.16,5.78-8.35l0.25-0.58c-0.01,0.04-0.18-0.01-0.18-0.01C-1659.82,292.17-1661.93,292.13-1664.03,292.33
		L-1664.03,292.33z"/>
	<path id="Tracé_37179" class="st0" d="M-1656.67,305.99L-1656.67,305.99c-7,1.23-13.7,3.79-19.73,7.55
		c-6.74,4.37-10.24,8.79-11.7,14.78c-0.04,0.16-0.05,0.32-0.05,0.48c0.13,1.38,0.54,2.71,1.2,3.93c0.38,0.75,0.81,1.48,1.28,2.17
		l0.08,0.12c0.01-0.1,0.03-0.21,0.03-0.21c0.14-0.86,0.37-1.7,0.67-2.52c0.84-2.26,2.81-7.56,11.85-11.92
		c5.72-2.62,11.83-4.27,18.09-4.87c6.98-0.96,14.04-1.16,21.06-0.62l0.1,0.01l-0.01-0.05c-0.56-2.8-1.55-5.5-2.94-8l-0.86-1.48
		l-0.23-0.37l-0.08-0.12l-0.08-0.07l-0.27-0.06c-0.72-0.09-2.45-0.17-4.75-0.17C-1647.6,304.59-1652.17,305.07-1656.67,305.99
		L-1656.67,305.99z M-1633.74,314.89h0.05H-1633.74z"/>
	<path id="Tracé_37180" class="st0" d="M-1721.26,361.31c-0.04,1.23,0.45,2.42,1.34,3.28c0.94,0.93,1.8,1.35,4.38,2.51
		c3.37,1.5,4.99,2.33,4.99,4.76c0,2.33-1.87,4.03-4.45,4.03c-1.63,0.04-3.23-0.44-4.56-1.38c-1.02-0.85-1.7-2.04-1.9-3.36
		c-0.01-0.03-0.1-0.35-0.1-0.35c-0.56,0-0.6,0.34-0.6,0.44c0,0.88,0.3,3.62,0.49,4.96c0.01,0.13,0.04,0.27,0.08,0.39l0.13,0.02
		l0.25-0.1l0.53-0.19l0.95,0.11c1.46,0.23,2.93,0.36,4.4,0.38c3.22,0,4.66-0.76,5.55-1.43c1.3-0.98,2.05-2.51,2.04-4.14
		c0-3.53-2.95-4.82-5.55-5.96l-0.14-0.06c-3.78-1.66-5.34-2.35-5.34-4.88c0-2.25,1.63-3.77,4.06-3.77c1.16-0.04,2.31,0.28,3.29,0.92
		c0.93,0.7,1.58,1.71,1.84,2.85l0.17,0.45c0.23,0,0.53-0.07,0.53-0.22l-0.14-1.47l-0.03-0.27c-0.06-0.83-0.07-1.66-0.04-2.49
		l0.01-0.21l-0.01-0.13c-0.09,0.02-0.18,0.03-0.27,0.04c0.05-0.02-0.39,0.14-0.39,0.14l-0.64-0.07l-1.08-0.13
		c-0.93-0.1-2.02-0.16-2.85-0.16C-1718.61,355.81-1721.27,357.92-1721.26,361.31L-1721.26,361.31z"/>
	<path id="Tracé_37181" class="st0" d="M-1689.2,363.05c-0.06,0-0.08,0.21-0.08,0.21l0.01,0.19c0-0.02,0.24-0.01,0.24-0.01
		c0.53,0.02,1.74,0.08,1.74,1.22c-0.14,0.92-0.42,1.81-0.82,2.65l-0.04,0.1l-2.78,6.18c-0.05,0.1-0.17,0.15-0.28,0.1
		c-0.05-0.02-0.09-0.07-0.11-0.12c-0.45-1.29-2.79-8.27-2.79-8.95c0-0.98,0.73-1.02,1.75-1.09l0.23-0.05v-0.01
		c0-0.05,0.01-0.21,0.01-0.21l-0.02-0.2l-0.13-0.01l-2.94,0.03l-3.13-0.03c-0.18,0-0.18,0-0.18,0.25l0.02,0.14
		c0.66,0.11,0.92,0.15,1.27,0.53c0.55,0.98,1.02,2,1.38,3.07c0.02,0.05,0.02,0.11-0.01,0.17l-3.1,6.46c-0.05,0.1-0.17,0.15-0.28,0.1
		c-0.05-0.02-0.09-0.06-0.1-0.11l-1.61-4.13l-0.51-1.32l-0.12-0.33c-0.43-1.02-0.75-2.08-0.94-3.17c0-0.73,0.46-1.09,1.53-1.19
		l0.23-0.04c0,0-0.01-0.02-0.01-0.05c0-0.06,0.01-0.17,0.01-0.17s-0.02-0.16-0.03-0.21l-3.13,0.03l-2.58-0.03l-0.14,0.02v0.01
		c0,0.02-0.01,0.13-0.01,0.13c0,0.25,0,0.25,0.26,0.38c0.38,0.17,0.68,0.6,1.22,1.72c1.2,2.6,3.07,7.52,4.22,10.82
		c0.02,0.04,0.2,0.49,0.21,0.5c0.01-0.03,1.07-0.18,1.07-0.18l0.11-0.02l0,0c0-0.02,0.09-0.24,0.09-0.24
		c1.06-2.38,1.56-3.44,3.73-7.66c0.05-0.1,0.18-0.14,0.28-0.09c0.05,0.02,0.08,0.07,0.1,0.12c1.23,3.45,2.07,6.16,2.42,7.42
		c0.05,0.21,0.11,0.42,0.2,0.62c0.03-0.02,0.84-0.12,0.84-0.12c0.22,0.01,0.41-0.12,0.48-0.33l0.82-1.86l0.28-0.61
		c1.01-2.17,2.15-4.63,2.89-6.04c0.97-1.82,2.06-3.73,2.83-4.1c0.19-0.11,0.21-0.12,0.21-0.33l-0.02-0.14c-0.06-0.01-0.83,0-0.83,0
		l-1.39,0.02l-1.9-0.02L-1689.2,363.05L-1689.2,363.05z"/>
	<path id="Tracé_37182" class="st0" d="M-1680.9,356.39c0.1,0.74,0.68,1.32,1.42,1.42c0.82,0.05,1.53-0.57,1.58-1.39
		s-0.57-1.53-1.39-1.58c-0.03,0-0.06,0-0.09,0C-1680.17,354.95-1680.79,355.59-1680.9,356.39L-1680.9,356.39z M-1679.22,362.8
		l-1.94,0.89l-1.49,0.68l0,0l-0.09,0.05c-0.21,0.11-0.24,0.13-0.24,0.31l0.01,0.17c0-0.01,0.35,0.07,0.35,0.07
		c1.76,0.22,1.76,0.84,1.76,4.26c0.08,1.82-0.02,3.64-0.27,5.45c-0.25,0.79-0.7,1.11-1.86,1.32c-0.35,0.08-0.35,0.08-0.35,0.32
		l0.02,0.16c0.07-0.01,1.32-0.03,1.32-0.03l2.47-0.04l2.72,0.05l0.8,0.02l0.12-0.01l0,0c0-0.02,0.03-0.23,0.03-0.23l-0.02-0.2
		l-0.31-0.05c-1.27-0.06-2.05-0.16-2.25-1.25c-0.17-1.78-0.22-3.57-0.17-5.36l0.1-4.7c0-0.04,0.13-2,0.13-2
		c-0.01-0.05-0.12-0.07-0.12-0.07C-1678.75,362.61-1678.99,362.68-1679.22,362.8L-1679.22,362.8z"/>
	<path id="Tracé_37183" class="st0" d="M-1673.68,366.47c0,2.22,1.95,3.12,3.66,3.92c2.07,0.97,3.42,1.72,3.42,3.29
		c0,1.1-0.73,2.39-2.79,2.39c-1.97,0.06-3.72-1.23-4.25-3.12l-0.13-0.41c-0.3,0.01-0.43,0.05-0.43,0.13l0.05,0.71l0.08,1.25
		l-0.02,1.05l-0.01,0.54l0.04,0.21c0.02,0,0.24-0.03,0.24-0.03l0.24-0.03l0.34,0.04l0.46,0.07c0.97,0.18,1.96,0.27,2.95,0.28
		c0.93,0,5.6-0.18,5.6-3.77c0-2.33-2.14-3.32-3.86-4.12c-2.5-1.17-3.51-1.78-3.51-3.19c-0.03-1.2,0.92-2.19,2.11-2.22
		c0.12,0,0.23,0,0.35,0.02c1.58,0,3,0.99,3.55,2.47c0.01,0.02,0.14,0.3,0.14,0.3l0,0c0.39,0,0.45-0.04,0.46-0.05l0,0
		c0-0.01,0.01-0.13,0.01-0.13l-0.16-1.95l-0.07-0.77c-0.01-0.04-0.07-0.39-0.07-0.39c-0.08,0.03-0.16,0.05-0.24,0.06l-0.24,0.03
		l-0.53-0.06c-0.75-0.11-1.52-0.18-2.28-0.2C-1673.44,362.79-1673.68,365.85-1673.68,366.47L-1673.68,366.47z"/>
	<path id="Tracé_37184" class="st0" d="M-1661.55,366.47c0,2.22,1.95,3.12,3.66,3.92c2.06,0.97,3.42,1.72,3.42,3.29
		c0,1.1-0.73,2.39-2.79,2.39c-1.97,0.06-3.72-1.23-4.25-3.12l-0.13-0.41c-0.3,0.01-0.43,0.05-0.43,0.13l0.05,0.71l0.08,1.25
		l-0.02,1.05l-0.01,0.54l0.03,0.21c0.02,0,0.24-0.03,0.24-0.03l0.24-0.03l0.34,0.04l0.46,0.07c0.97,0.18,1.96,0.27,2.95,0.28
		c0.93,0,5.6-0.18,5.6-3.77c0-2.33-2.14-3.32-3.86-4.12c-2.5-1.17-3.52-1.78-3.52-3.19c-0.03-1.2,0.92-2.19,2.11-2.22
		c0.12,0,0.23,0,0.35,0.02c1.58,0,3,0.99,3.55,2.47c0.01,0.02,0.14,0.3,0.14,0.3l0,0c0.39,0,0.45-0.04,0.46-0.05l0,0
		c0-0.01,0.01-0.13,0.01-0.13l-0.16-1.95l-0.07-0.77c-0.01-0.04-0.07-0.39-0.07-0.39c-0.08,0.03-0.16,0.05-0.24,0.06l-0.24,0.03
		l-0.53-0.06c-0.75-0.11-1.52-0.18-2.28-0.2C-1661.3,362.79-1661.55,365.85-1661.55,366.47L-1661.55,366.47z"/>
	<path id="Tracé_37185" class="st0" d="M-1642.58,356.16l-2.44,0.08l-3.85-0.13l-0.14,0.01c0,0,0.01,0.02,0.01,0.05
		c0,0.08-0.01,0.23-0.01,0.23l0.01,0.1c0.2,0.06,0.41,0.1,0.63,0.12c1.85,0.29,2.01,1.09,2.01,3.31v4.73c0,2.69,0,6.77-0.2,8.8
		c-0.12,1.07-0.27,2.39-2.38,2.57l-0.35,0.06c0,0,0,0.01,0,0.02c0,0.06-0.01,0.23-0.01,0.23l0.02,0.2l0.16,0.02l0.38-0.02
		c0.74-0.04,2.48-0.14,6.96-0.14c4.58,0,6.06,0.09,6.77,0.14l0.57,0.03c0.14,0,0.18-0.09,0.37-0.74c0.45-1.45,0.75-2.95,0.89-4.47
		c0-0.07,0-0.15-0.51-0.15c-0.08,0.16-0.13,0.33-0.17,0.51c-0.27,1.18-0.96,2.23-1.94,2.96c-1.19,0.71-3.49,0.71-5.52,0.71
		c-1.28,0-2.06,0-2.26-0.98c-0.25-2.49-0.33-4.99-0.27-7.48c-0.05-2.88,0.06-5.76,0.3-8.62c0.23-1.28,1.03-1.57,2.41-1.67
		c-0.01,0,0.37-0.07,0.37-0.07l0.02-0.27c0-0.13-0.02-0.15-0.15-0.15L-1642.58,356.16L-1642.58,356.16z"/>
	<path id="Tracé_37186" class="st0" d="M-1629.11,356.39c0.1,0.74,0.68,1.32,1.42,1.42c0.82,0.05,1.53-0.57,1.58-1.39
		s-0.57-1.53-1.39-1.58c-0.03,0-0.06,0-0.09,0C-1628.39,354.95-1629.01,355.59-1629.11,356.39L-1629.11,356.39z M-1627.43,362.8
		l-1.95,0.89l-1.49,0.68l0,0l-0.09,0.05c-0.21,0.11-0.24,0.13-0.24,0.31l0.01,0.17c0-0.01,0.35,0.07,0.35,0.07
		c1.76,0.22,1.76,0.84,1.76,4.26c0.08,1.82-0.02,3.64-0.27,5.45c-0.25,0.79-0.7,1.11-1.86,1.32c-0.35,0.08-0.35,0.08-0.35,0.32
		l0.02,0.16c0.07-0.01,1.32-0.03,1.32-0.03l2.47-0.04l2.72,0.05l0.8,0.02l0.12-0.01l0,0c0-0.02,0.03-0.23,0.03-0.23l-0.02-0.2
		l-0.31-0.05c-1.26-0.06-2.05-0.16-2.25-1.25c-0.17-1.78-0.22-3.57-0.17-5.36l0.1-4.73c0-0.02,0.13-1.98,0.13-1.98
		c-0.01-0.05-0.12-0.07-0.12-0.07C-1626.96,362.61-1627.21,362.68-1627.43,362.8L-1627.43,362.8z"/>
	<path id="Tracé_37187" class="st0" d="M-1618.59,357.07L-1618.59,357.07c-1.43,1.84-1.46,3.11-1.52,5.88
		c0,0.08-0.05,0.15-0.12,0.19l-1.76,0.78c-0.02,0.11-0.04,0.22-0.04,0.33l0.01,0.16l1.68-0.05c0.06,0,0.11,0.02,0.15,0.06
		c0.04,0.04,0.06,0.09,0.06,0.15l-0.07,8.88c-0.06,1.84-0.29,2.33-1.84,2.55l-0.23,0.06v0.02c0,0.05-0.01,0.21-0.01,0.21l0.03,0.24
		c0-0.02,0.94-0.04,0.94-0.04l2.03-0.04l3.27,0.05l1.14,0.02c0.44,0,0.44,0,0.44-0.31l-0.02-0.21c0,0.01-0.25-0.04-0.25-0.04
		c-2.27,0-2.99-0.32-3.07-2.29l-0.07-9.11c0-0.06,0.02-0.11,0.06-0.15c0.04-0.04,0.09-0.06,0.15-0.06h4.44c0.22,0,0.22,0,0.22-0.61
		v-0.18l-0.02-0.45l-4.63,0.02c-0.12,0-0.21-0.09-0.21-0.21c0,0,0,0,0,0c0-5.05,0.17-7.48,3.9-7.48c1.1-0.08,2.19,0.27,3.04,0.96
		l0.26,0.22c0.16,0.14,0.32,0.28,0.39,0.28c0.22-0.01,1.55-0.61,1.55-1.2c0-0.77-1.3-1.88-3.64-1.88
		C-1614.82,353.91-1617.11,355.1-1618.59,357.07L-1618.59,357.07z"/>
	<path id="Tracé_37188" class="st0" d="M-1611.89,370.48c0,1.47,0.39,6.29,5.47,6.29c2.01-0.04,3.96-0.75,5.51-2.04
		c0.29-0.23,0.32-0.3,0.32-0.43l-0.04-0.27c0,0-0.05-0.11-0.04-0.11c-1.21,0.88-2.67,1.37-4.17,1.4c-3.95,0-4.54-3.95-4.61-5.65
		v-0.01c0-0.1,0.07-0.19,0.17-0.2c2.34-0.48,5.44-1.08,8.64-1.58c0-0.02,0-0.02,0-0.04c-0.03-0.51-0.12-1.02-0.26-1.52
		c-0.54-2.1-2.45-3.56-4.63-3.53C-1608.66,362.79-1611.89,365.67-1611.89,370.48L-1611.89,370.48z M-1609.43,368.81
		c-0.05-0.04-0.07-0.1-0.07-0.16c0.03-2.54,0.99-5.1,3.05-5.1c1.68,0.19,2.99,1.55,3.11,3.24c0,0.52-0.36,0.8-1.33,1.05
		c-2.36,0.59-3.2,0.79-4.59,1.02C-1609.32,368.87-1609.38,368.85-1609.43,368.81L-1609.43,368.81z"/>
	<path id="Tracé_37189" class="st0" d="M-1633.15,323.32c0.19-2.02,0.17-4.05-0.04-6.07c0-0.12-0.05-0.24-0.13-0.33
		c-0.07-0.06-0.15-0.1-0.24-0.1c-1.74-0.14-3.64-0.2-5.8-0.17c-12.24,0.15-27.86,3.25-34.78,10.01c-3.4,3.09-4.8,7.82-3.61,12.26
		c1.14,4.47,4.62,7.96,9.09,9.1c0.86,0.25,1.75,0.36,2.65,0.33c0,0,0.22,0.02,0.24-0.09c0.01-0.07-0.17-0.21-0.17-0.21
		s-0.54-0.47-0.85-0.8c-0.27-0.29-0.52-0.61-0.74-0.95c-0.58-0.92-1.02-1.91-1.3-2.96c-0.75-2.72,0.06-5.63,2.12-7.56
		c3.46-3.59,11.08-5.96,24.41-5.95l7.34,0.14c0,0,0.23,0.02,0.32-0.07c0.06-0.06,0.06-0.05,0.14-0.28
		C-1633.83,327.57-1633.37,325.45-1633.15,323.32L-1633.15,323.32z"/>
	<path id="Tracé_37190" class="st0" d="M-1657.7,292.27c-2.1-0.3-4.24-0.35-6.35-0.14c-1.68,0.15-3.34,0.45-4.97,0.9
		c-0.11,0.02-0.21,0.06-0.3,0.12c-0.06,0.06-0.1,0.14-0.12,0.22c-1.07,3.72-6.94,7.84-8.38,9.06c-1.99,1.6-3.88,3.31-5.67,5.14
		c-1.56,1.64-2.93,3.45-4.11,5.39c-1.01,1.79-1.69,3.75-2.01,5.79c-0.24,1.42-0.32,2.86-0.22,4.3l0,0c0,0.01,0.02,0.25,0.03,0.36
		c0.06,0.86,0.23,1.7,0.49,2.52c0.05,0.14,0.09,0.3,0.21,0.3c0.12,0,0.14-0.2,0.18-0.33s0.21-0.8,0.37-1.33
		c0.19-0.63,0.29-0.98,0.49-1.6c0.85-2.45,2.21-4.7,3.97-6.61c6.87-7.55,14.36-9.05,20.64-14.8c2.69-2.43,4.75-5.47,6.02-8.87
		c0.05-0.12,0.11-0.21,0.05-0.3S-1657.54,292.3-1657.7,292.27L-1657.7,292.27z"/>
	<path id="Tracé_37191" class="st0" d="M-1633.58,314.81c-0.57-2.83-1.57-5.55-2.97-8.07c-0.26-0.54-0.79-1.36-1.1-1.86
		c-0.04-0.09-0.1-0.16-0.18-0.22c-0.11-0.12-0.42-0.12-0.42-0.12c-0.78-0.1-2.6-0.17-4.75-0.17h-0.01c-4.6,0.02-9.19,0.5-13.69,1.43
		c-7.03,1.24-13.75,3.81-19.81,7.58c-5.84,3.78-10.12,8.06-11.78,14.9c-0.26,1.08,0.43,3.01,1.17,4.55c0.42,0.83,0.9,1.63,1.43,2.39
		c0.06,0.1,0.15,0.2,0.22,0.16c0.05-0.03,0.06-0.08,0.09-0.2c0.15-0.95,0.39-1.89,0.72-2.8c0.9-2.43,2.96-7.57,11.74-11.8
		c5.7-2.6,11.79-4.24,18.02-4.85c9.21-1.09,16.19-1.14,21.02-0.62c0.13,0.02,0.28,0.05,0.32-0.02
		C-1633.55,314.98-1633.55,314.89-1633.58,314.81L-1633.58,314.81z"/>
	<path id="Tracé_37192" class="st4" d="M-1638.56,319.01h-2.56v2.93h-2.93v2.56h2.93v2.93h2.56v-2.93h2.92v-2.56h-2.93
		L-1638.56,319.01L-1638.56,319.01z"/>
	<path id="Tracé_37193" class="st0" d="M-1709.66,375.54c-1.01,0.75-2.55,1.47-5.68,1.47c-1.79-0.06-3.58-0.22-5.35-0.49
		c-0.39,0-0.42,0.29-0.78,0.29c-0.33,0-0.36-0.1-0.42-0.59c-0.2-1.37-0.49-4.11-0.49-4.99c0-0.29,0.2-0.65,0.78-0.65
		c0.23,0,0.26,0.2,0.33,0.52c0.2,1.26,0.85,2.41,1.83,3.23c1.3,0.91,2.85,1.38,4.44,1.34c2.41,0,4.24-1.53,4.24-3.82
		s-1.5-3.07-4.86-4.57c-2.55-1.14-3.46-1.57-4.44-2.55c-0.93-0.89-1.44-2.14-1.4-3.43c0-3.33,2.48-5.71,7.15-5.71
		c0.85,0,1.96,0.07,2.87,0.16c0.88,0.1,1.6,0.2,1.7,0.2c0.12-0.01,0.23-0.05,0.33-0.13c0.11-0.03,0.22-0.04,0.33-0.03
		c0.2,0,0.23,0.13,0.23,0.33c-0.04,0.89-0.02,1.79,0.03,2.68c0.06,0.65,0.16,1.6,0.16,1.76c0,0.33-0.42,0.42-0.72,0.42
		c-0.2,0-0.23-0.1-0.39-0.59c-0.24-1.09-0.87-2.07-1.76-2.74c-0.94-0.61-2.04-0.92-3.17-0.88c-1.94-0.18-3.66,1.25-3.84,3.18
		c-0.01,0.12-0.02,0.25-0.01,0.37c0,2.42,1.53,3.07,5.32,4.73c2.61,1.14,5.71,2.48,5.71,6.17
		C-1707.51,372.92-1708.3,374.52-1709.66,375.54L-1709.66,375.54z"/>
	<path id="Tracé_37194" class="st0" d="M-1684.5,363.72c-0.75,0.36-1.92,2.48-2.74,4.01s-2.12,4.37-3.17,6.62
		c-0.23,0.55-0.72,1.66-0.82,1.86c-0.1,0.27-0.36,0.46-0.65,0.46l-0.82,0.1c-0.23,0.03-0.26-0.03-0.46-0.75
		c-0.39-1.44-1.27-4.21-2.42-7.41c-2.22,4.31-2.71,5.35-3.72,7.64c-0.13,0.36-0.13,0.36-0.36,0.39l-1.14,0.16
		c-0.13,0-0.16-0.1-0.36-0.62c-1.11-3.2-3-8.19-4.21-10.8c-0.49-1.01-0.78-1.47-1.08-1.6c-0.39-0.2-0.42-0.2-0.42-0.59
		c0-0.26,0.07-0.36,0.36-0.36c0.69,0,2.06,0.03,2.58,0.03c1.14,0,2.19-0.03,3.2-0.03c0.13,0,0.16,0.2,0.16,0.42
		c0,0.39-0.03,0.42-0.42,0.46c-1.04,0.1-1.34,0.42-1.34,0.98c0.23,1.17,0.58,2.32,1.04,3.43c0.52,1.34,1.04,2.74,2.12,5.45
		c0.59-1.21,2.41-4.99,3.1-6.46c-0.36-1.04-0.8-2.04-1.34-3c-0.29-0.33-0.49-0.36-1.11-0.46c-0.2-0.03-0.23-0.16-0.23-0.36
		c0-0.33,0.07-0.46,0.39-0.46c0.88,0,2.55,0.03,3.13,0.03c0.72,0,2.58-0.03,2.94-0.03c0.33,0,0.36,0.13,0.36,0.42
		c0,0.39-0.03,0.42-0.42,0.49c-1.01,0.07-1.57,0.1-1.57,0.88c0,0.59,2.15,7.11,2.77,8.88c0.98-2.12,2.12-4.6,2.77-6.17
		c0.41-0.85,0.69-1.75,0.85-2.67c0-0.85-0.78-0.98-1.53-1.01c-0.42,0-0.46-0.03-0.46-0.39c0-0.29,0.03-0.42,0.29-0.42
		c0.36,0,1.53,0.03,2.58,0.03c0.78,0,1.73-0.03,2.15-0.03c0.23,0,0.29,0.13,0.29,0.36C-1684.17,363.53-1684.27,363.59-1684.5,363.72
		L-1684.5,363.72z"/>
	<path id="Tracé_37195" class="st0" d="M-1676.02,376.68c-0.46,0-1.93-0.07-3.52-0.07c-1.27,0-3.1,0.07-3.72,0.07
		c-0.23,0-0.29-0.07-0.29-0.36c0-0.39,0.06-0.42,0.52-0.52c1.08-0.2,1.47-0.46,1.7-1.17c0.25-1.78,0.33-3.59,0.26-5.38
		c0-3.39,0-3.85-1.57-4.05c-0.52-0.1-0.56-0.1-0.56-0.46s0.16-0.39,0.46-0.55c0.62-0.26,2.64-1.24,3.43-1.57
		c0.25-0.14,0.53-0.22,0.82-0.23c0.23,0,0.33,0.1,0.33,0.29c-0.03,0.46-0.1,1.44-0.13,1.96c-0.03,0.75-0.1,2.22-0.1,4.73
		c0,1.01,0,4.6,0.16,5.32c0.16,0.91,0.78,1.01,2.05,1.08c0.46,0.03,0.52,0.1,0.52,0.46
		C-1675.66,376.61-1675.76,376.68-1676.02,376.68L-1676.02,376.68z M-1679.47,358.01c-0.85-0.1-1.53-0.78-1.63-1.63
		c0.1-0.91,0.82-1.64,1.73-1.76c0.94-0.03,1.72,0.71,1.75,1.65c0.03,0.94-0.71,1.72-1.65,1.75
		C-1679.35,358.02-1679.41,358.02-1679.47,358.01L-1679.47,358.01z"/>
	<path id="Tracé_37196" class="st0" d="M-1669.85,376.97c-1.03-0.01-2.06-0.11-3.07-0.29c-0.29-0.03-0.55-0.1-0.69-0.1
		c-0.1,0-0.33,0.07-0.46,0.07c-0.2,0-0.26-0.16-0.26-0.42c0-0.36,0.03-0.91,0.03-1.6c0-0.52-0.13-1.67-0.13-1.96
		c0-0.26,0.26-0.33,0.62-0.33c0.2,0,0.23,0.07,0.36,0.55c0.5,1.81,2.17,3.04,4.05,2.97c2.09,0,2.58-1.37,2.58-2.19
		c0-1.4-1.14-2.09-3.3-3.1c-1.83-0.85-3.79-1.8-3.79-4.11c0-1.5,1.04-3.88,5.32-3.88c1.17,0,2.58,0.26,2.81,0.26
		c0.1,0,0.33-0.07,0.46-0.07c0.23,0,0.23,0.07,0.29,0.55c0.07,0.75,0.23,2.22,0.23,2.74c0,0.29-0.07,0.39-0.65,0.39
		c-0.16,0-0.23-0.07-0.36-0.42c-0.53-1.4-1.86-2.33-3.36-2.35c-1.07-0.16-2.07,0.58-2.23,1.65c-0.02,0.11-0.02,0.23-0.02,0.34
		c0,1.27,0.88,1.83,3.39,3c1.76,0.82,3.98,1.86,3.98,4.31C-1664.04,376.38-1667.96,376.96-1669.85,376.97L-1669.85,376.97z"/>
	<path id="Tracé_37197" class="st0" d="M-1657.71,376.97c-1.03-0.01-2.06-0.11-3.07-0.29c-0.29-0.03-0.56-0.1-0.69-0.1
		c-0.1,0-0.33,0.07-0.46,0.07c-0.2,0-0.26-0.16-0.26-0.42c0-0.36,0.03-0.91,0.03-1.6c0-0.52-0.13-1.67-0.13-1.96
		c0-0.26,0.26-0.33,0.62-0.33c0.19,0,0.23,0.07,0.36,0.55c0.5,1.81,2.17,3.04,4.05,2.97c2.09,0,2.58-1.37,2.58-2.19
		c0-1.4-1.14-2.09-3.3-3.1c-1.83-0.85-3.78-1.8-3.78-4.11c0-1.5,1.04-3.88,5.32-3.88c1.17,0,2.58,0.26,2.81,0.26
		c0.1,0,0.33-0.07,0.46-0.07c0.23,0,0.23,0.07,0.29,0.55c0.07,0.75,0.23,2.22,0.23,2.74c0,0.29-0.06,0.39-0.65,0.39
		c-0.16,0-0.23-0.07-0.36-0.42c-0.53-1.4-1.86-2.33-3.36-2.35c-1.07-0.16-2.07,0.58-2.23,1.65c-0.02,0.11-0.02,0.23-0.02,0.34
		c0,1.27,0.88,1.83,3.39,3c1.76,0.82,3.98,1.86,3.98,4.31C-1651.9,376.38-1655.82,376.96-1657.71,376.97L-1657.71,376.97z"/>
	<path id="Tracé_37198" class="st0" d="M-1633.86,375.8c-0.2,0.69-0.26,0.95-0.59,0.95c-0.69,0-1.24-0.16-7.34-0.16
		c-5.64,0-6.95,0.16-7.34,0.16c-0.33,0-0.39-0.1-0.39-0.42c0-0.46,0.03-0.46,0.55-0.52c1.89-0.16,2.06-1.24,2.19-2.38
		c0.2-2.02,0.2-6.1,0.2-8.78v-4.73c0-2.19-0.16-2.84-1.83-3.1c-0.75-0.1-0.82-0.13-0.82-0.42c0-0.46,0.07-0.49,0.36-0.49
		c1.01,0,2.9,0.13,3.85,0.13c1.21,0,3.3-0.13,4.11-0.13c0.17-0.03,0.33,0.09,0.36,0.26c0.01,0.03,0.01,0.07,0,0.1
		c0,0.46-0.03,0.49-0.59,0.55c-1.44,0.1-2.02,0.42-2.22,1.5c-0.24,2.85-0.34,5.72-0.29,8.58c-0.07,2.48,0.02,4.97,0.26,7.44
		c0.16,0.78,0.69,0.82,2.06,0.82c2.02,0,4.27,0,5.42-0.68c0.92-0.68,1.57-1.66,1.83-2.77c0.13-0.46,0.2-0.72,0.39-0.72
		c0.62,0,0.72,0.13,0.72,0.36C-1633.11,372.84-1633.4,374.34-1633.86,375.8L-1633.86,375.8z"/>
	<path id="Tracé_37199" class="st0" d="M-1624.23,376.68c-0.46,0-1.92-0.07-3.52-0.07c-1.27,0-3.1,0.07-3.72,0.07
		c-0.23,0-0.29-0.07-0.29-0.36c0-0.39,0.07-0.42,0.52-0.52c1.08-0.2,1.47-0.46,1.7-1.17c0.25-1.78,0.33-3.59,0.26-5.38
		c0-3.39,0-3.85-1.57-4.05c-0.52-0.1-0.55-0.1-0.55-0.46s0.16-0.39,0.46-0.55c0.62-0.26,2.64-1.24,3.43-1.57
		c0.25-0.14,0.53-0.22,0.82-0.23c0.23,0,0.33,0.1,0.33,0.29c-0.03,0.46-0.1,1.44-0.13,1.96c-0.03,0.75-0.1,2.22-0.1,4.73
		c0,1.01,0,4.6,0.16,5.32c0.16,0.91,0.78,1.01,2.06,1.08c0.46,0.03,0.52,0.1,0.52,0.46
		C-1623.87,376.61-1623.97,376.68-1624.23,376.68L-1624.23,376.68z M-1627.69,358.01c-0.85-0.1-1.53-0.78-1.63-1.63
		c0.1-0.91,0.82-1.64,1.73-1.76c0.94-0.03,1.72,0.71,1.75,1.65c0.03,0.94-0.71,1.72-1.65,1.75
		C-1627.56,358.02-1627.63,358.02-1627.69,358.01L-1627.69,358.01z"/>
	<path id="Tracé_37200" class="st0" d="M-1610.27,357.1c-0.2,0-0.39-0.23-0.78-0.55c-0.81-0.67-1.85-0.99-2.9-0.91
		c-3.52,0-3.69,2.15-3.69,7.28h4.57c0.33,0,0.29,0.1,0.29,0.82c0,0.65,0,0.82-0.43,0.82h-4.44c0,3.04,0.03,7.14,0.06,9.1
		c0.07,1.83,0.69,2.09,2.87,2.09c0.42,0.03,0.46,0.1,0.46,0.46c0,0.42-0.06,0.52-0.65,0.52c-0.49,0-2.87-0.07-4.41-0.07
		c-1.11,0-2.48,0.07-3,0.07c-0.16,0-0.2-0.2-0.2-0.42c0-0.39,0.03-0.42,0.42-0.49c1.37-0.2,1.6-0.52,1.66-2.35
		c0.07-2.15,0.07-6.53,0.07-8.88h-1.7c-0.2-0.03-0.2-0.07-0.2-0.33c0-0.39,0-0.42,0.16-0.52l1.76-0.78c0.07-2.84,0.1-4.11,1.57-6
		c1.52-2.02,3.87-3.24,6.4-3.33c2.45,0,3.85,1.17,3.85,2.09C-1608.51,356.45-1610.01,357.1-1610.27,357.1L-1610.27,357.1z"/>
	<path id="Tracé_37201" class="st0" d="M-1600.77,374.88c-1.59,1.32-3.58,2.05-5.65,2.09c-4.7,0-5.68-4.01-5.68-6.49
		c0-5.09,3.46-7.9,6.56-7.9c2.27-0.03,4.26,1.49,4.83,3.69c0.2,0.78,0.36,1.76,0.2,1.8c-2.94,0.46-5.84,1.01-8.74,1.6
		c0.1,2.28,0.98,5.45,4.4,5.45c1.51-0.02,2.97-0.52,4.18-1.43c0.1-0.1,0.16-0.13,0.2,0c0.03,0.23,0.07,0.39,0.1,0.62
		C-1600.38,374.52-1600.47,374.65-1600.77,374.88L-1600.77,374.88z M-1606.45,363.76c-1.92,0-2.8,2.48-2.84,4.9
		c1.37-0.23,2.22-0.42,4.57-1.01c1.01-0.26,1.17-0.52,1.17-0.85C-1603.67,365.23-1604.88,363.96-1606.45,363.76L-1606.45,363.76z"/>
</g>
</svg>
