<?xml version="1.0" encoding="utf-8"?>
<!-- Generator: Adobe Illustrator 25.4.1, SVG Export Plug-In . SVG Version: 6.00 Build 0)  -->
<svg version="1.1" id="Calque_1" xmlns="http://www.w3.org/2000/svg" xmlns:xlink="http://www.w3.org/1999/xlink" x="0px" y="0px"
	 viewBox="0 0 298 913.15" style="enable-background:new 0 0 298 913.15;" xml:space="preserve">
<style type="text/css">
	.st0{fill:none;}
	.st1{fill:#6390CB;}
	.st2{fill:#191F31;}
	.st3{fill:#FFFFFF;}
</style>
<g>
	<rect class="st0" width="298" height="872"/>
	<g id="G_-_TOWER">
		<path class="st1" d="M283.13,779.44V689.2l0,0v-34.26l0,0v-67.45l0,0v-74.03l0,0v-73.38H79.5l17.43,73.38H79.5l17.58,74.03H79.5
			l16.02,67.45H79.5l8.14,34.26H79.5l22.66,95.44h1.23l19.24,81.01l27.61,44.74l125.63-72.33c1.17-0.36,2.24-0.97,3.14-1.8
			c2.55-2.32,4.11-6.41,4.11-11.9L283.13,779.44L283.13,779.44z"/>
		<path id="Tracé_25049" class="st1" d="M283.14,105.62c0-11.82-7.19-25.55-16.05-30.66L147.08,5.67
			c-3.92-2.26-7.5-2.46-10.29-0.96L7.45,79.19l38.58,78.53l21.33,241.22l12.15,51.17h203.63V105.62z"/>
		<path id="Tracé_25050_00000033367352380960241410000008666630178487837873_" class="st2" d="M69.34,398.46L48.03,157.15L10.13,80
			L137.78,6.49V6.5c0.91-0.48,1.92-0.72,2.95-0.71c1.89,0.08,3.73,0.65,5.33,1.65l120.02,69.29c8.29,4.79,15.03,17.74,15.03,28.89
			v344.49h4.1V105.62c0-12.67-7.5-26.92-17.08-32.45L148.1,3.89c-4.4-2.54-8.76-2.89-12.29-0.99l-0.04,0.03L4.76,78.37l39.26,79.9
			l21.29,240.85l12.1,50.99h4.2L69.34,398.46z"/>
		
			<rect id="Rectangle_8338_00000115492402024478628280000001824967391108986296_" x="281.09" y="440.08" class="st2" width="4.1" height="95.43"/>
		<path id="Tracé_25052_00000143582499455004739400000004699587787805773231_" class="st2" d="M281.09,779.44v44.92
			c0,4.68-1.22,8.36-3.44,10.37c-0.67,0.62-1.47,1.09-2.35,1.36l-0.44,0.19l-123.92,71.33l-26.39-42.77l-20.28-85.41h-4.21l20.65,87
			l28.83,46.72l127.15-73.2c1.37-0.45,2.63-1.2,3.69-2.18c3.08-2.8,4.79-7.56,4.79-13.41v-44.92L281.09,779.44L281.09,779.44z"/>
		<path id="Tracé_24618_00000114782724533190058010000003762175498221897103_" class="st2" d="M279.02,836.26L279.02,836.26
			c-0.9,0.83-1.97,1.44-3.14,1.8l-125.63,72.33l-9.41-15.25l142.3-81.22v10.44C283.14,829.85,281.57,833.94,279.02,836.26z"/>
		<path id="Tracé_24619_00000083047549495498468690000004127447387465523621_" class="st2" d="M137.98,894.41l147.21-84.03v13.97
			c0,5.85-1.71,10.62-4.79,13.41c-1.06,0.98-2.32,1.72-3.69,2.18l-127.16,73.21L137.98,894.41z M143.7,895.87l7.24,11.75
			l123.91-71.33l0.44-0.19c0.87-0.27,1.67-0.73,2.34-1.35l0,0c2.22-2.01,3.44-5.7,3.44-10.37v-6.92L143.7,895.87z"/>
		<g id="Groupe_23276_00000080173428389816548350000002994115841464918461_" transform="translate(835.418 232.666)">
			<path id="Tracé_24620_00000159456252931120684150000002620877271283052976_" class="st3" d="M-783.24-35.52l-6.15-39.43
				l-38.58-78.53l129.34-74.48c2.79-1.5,6.37-1.3,10.29,0.96l120.01,69.29c4.69,2.7,8.89,7.82,11.82,13.78L-752.82-28.8
				L-783.24-35.52z"/>
			<path id="Tracé_24621_00000179637214082039917150000001268554833232280221_" class="st2" d="M-785.05-33.82l-6.32-40.51
				l-39.29-79.97l131.05-75.47c3.53-1.9,7.9-1.55,12.29,0.99l120.01,69.29c4.88,2.82,9.37,8.02,12.63,14.64l0.85,1.71L-751.8-27.04
				l-0.69,0.41L-785.05-33.82z M-569.36-155.94l-120.01-69.29c-3.16-1.83-6.03-2.15-8.25-0.95l-127.67,73.52l37.73,76.81l6.12,38.63
				l28.26,6.24l193.93-113.74C-562.02-149.76-565.64-153.79-569.36-155.94z"/>
		</g>
		<g id="Groupe_23277_00000078740315696901179710000004124546996311545531_" transform="translate(835.417 232.666)">
			<path id="Tracé_24622_00000064338204147355684750000007857452691355157682_" class="st1" d="M-827.97-153.48l129.34-74.48
				c2.79-1.5,6.37-1.3,10.29,0.96l5.5,3.17l-139.91,80.97L-827.97-153.48z"/>
			<path id="Tracé_24623_00000134251326460024121830000011627665846995350953_" class="st2" d="M-830.66-154.3l131.05-75.47
				c3.53-1.9,7.9-1.55,12.29,0.99l8.57,4.94l-144.88,83.85L-830.66-154.3z M-689.36-225.23c-3.16-1.83-6.03-2.15-8.25-0.95
				l-127.67,73.52l3.4,6.92l134.95-78.09L-689.36-225.23z"/>
		</g>
		
			<rect id="Rectangle_8340_00000079487959048388174460000010038683228092864941_" x="281.09" y="513.46" class="st2" width="4.1" height="95.43"/>
		
			<rect id="Rectangle_8342_00000106119173438909559750000003240919300549492648_" x="281.09" y="587.49" class="st2" width="4.1" height="95.43"/>
		
			<rect id="Rectangle_8344_00000013885283886473321320000011179980127381021365_" x="281.09" y="654.94" class="st2" width="4.1" height="95.43"/>
		
			<rect id="Rectangle_8346_00000089531585741349772160000005169119966468321184_" x="281.09" y="689.2" class="st2" width="4.1" height="95.43"/>
		
			<rect id="Rectangle_8314_00000129895183508407551750000008911557891779121588_" x="142.61" y="833.39" transform="matrix(0.8682 -0.4961 0.4961 0.8682 -385.7983 218.1046)" class="st2" width="150.28" height="4.1"/>
		<g id="Groupe_23280_00000048480376556813803010000015683588417730299786_" transform="translate(980.319 317.93)">
			
				<rect id="Rectangle_8315_00000016775976420588835440000013109414578876961161_" x="-839.82" y="-193.64" transform="matrix(0.8626 -0.5059 0.5059 0.8626 -8.261 -413.5955)" class="st2" width="148.62" height="4.1"/>
		</g>
		<g id="Groupe_23281_00000034779842874883617000000017821623574182853269_" transform="translate(984.551 336.186)">
			
				<rect id="Rectangle_8316_00000011727798028052590010000011922077036679997099_" x="-839.82" y="-193.64" transform="matrix(0.8626 -0.5059 0.5059 0.8626 -8.261 -413.5955)" class="st2" width="148.62" height="4.1"/>
		</g>
		<g id="Groupe_23327_00000067212023683660759740000017349867326284250271_" transform="translate(994.651 410.681)">
			<g id="Groupe_23306_00000049179367444611714920000006171558549537067951_">
				<path id="Tracé_24659_00000055685987401012474890000004531352776416537485_" class="st1" d="M-824.24-145.51l97.24-56.14
					c2.93-1.7,5.32-6.25,5.32-10.17v-13.4c0-3.92-2.39-5.72-5.32-4.02l-97.24,56.14c-2.94,1.7-5.32,6.25-5.32,10.17v13.39
					C-829.56-145.62-827.17-143.81-824.24-145.51z"/>
				<path id="Tracé_24660_00000000211812295221994650000008131368963345617341_" class="st2" d="M-828.27-144.27
					c-1.52-0.88-2.39-2.8-2.39-5.26v-13.4c0-4.34,2.58-9.22,5.87-11.12l97.24-56.14c1.36-0.93,3.12-1.04,4.59-0.28
					c1.52,0.87,2.39,2.79,2.39,5.26v13.39c0,4.34-2.58,9.22-5.87,11.13l-97.24,56.14c-0.8,0.49-1.72,0.76-2.67,0.79
					C-827.02-143.76-827.68-143.93-828.27-144.27z M-727.55-202.61c2.59-1.49,4.77-5.71,4.77-9.21v-13.39
					c0-1.63-0.49-2.88-1.29-3.35c-0.79-0.33-1.69-0.23-2.38,0.28l-97.24,56.14c-2.59,1.49-4.77,5.71-4.77,9.21v13.39
					c0,1.63,0.48,2.88,1.29,3.35c0.79,0.33,1.69,0.23,2.38-0.28L-727.55-202.61z"/>
			</g>
			<g id="Groupe_23307_00000152975405701643393020000006647591415300215444_" transform="translate(75.357 23.052)">
				<path id="Tracé_24661_00000083054035126995690580000003440576037761355138_" class="st3" d="M-828.19-225.72l-0.58,0.34
					c-1.04,0.6-1.89-0.03-1.89-1.42l0,0c0.02-1.43,0.72-2.77,1.89-3.6l0.58-0.34c1.04-0.6,1.89,0.04,1.89,1.42l0,0
					C-826.33-227.89-827.02-226.56-828.19-225.72z"/>
			</g>
			<g id="Groupe_23308_00000101090953300197494090000000511890046175194529_" transform="translate(66.751 26.271)">
				<path id="Tracé_24662_00000044154107002464882420000002116425521358127516_" class="st1" d="M-827.08-224.61l-0.58,0.34
					c-1.04,0.6-1.88-0.03-1.88-1.42l0,0c0.02-1.43,0.72-2.77,1.88-3.6l0.58-0.34c1.04-0.6,1.88,0.04,1.88,1.42l0,0
					C-825.22-226.78-825.92-225.45-827.08-224.61z"/>
				<path id="Tracé_24663_00000053533906445137922010000011356291563170234519_" class="st2" d="M-829.45-223.22
					c-0.82-0.55-1.28-1.5-1.2-2.48c0.02-1.82,0.92-3.53,2.43-4.56l0.59-0.34c0.7-0.46,1.59-0.5,2.33-0.1
					c0.82,0.55,1.28,1.5,1.2,2.48c-0.01,1.83-0.92,3.53-2.43,4.56l-0.58,0.34c-0.39,0.24-0.84,0.36-1.3,0.37
					C-828.78-222.95-829.13-223.04-829.45-223.22z M-827.63-225.58c0.81-0.64,1.3-1.61,1.32-2.64c0-0.38-0.1-0.54-0.22-0.47
					l-0.58,0.34c-0.82,0.64-1.31,1.61-1.33,2.65c0,0.38,0.11,0.55,0.23,0.47L-827.63-225.58L-827.63-225.58z"/>
			</g>
			<g id="Groupe_23309_00000155835051686908601560000001320344848446557067_" transform="translate(60.36 31.709)">
				<path id="Tracé_24664_00000048461036947979822850000000505855436641790645_" class="st3" d="M-828.19-225.72l-0.59,0.34
					c-1.04,0.6-1.89-0.03-1.89-1.42l0,0c0.02-1.43,0.72-2.77,1.89-3.6l0.59-0.34c1.04-0.6,1.89,0.03,1.89,1.42l0,0
					C-826.32-227.89-827.02-226.56-828.19-225.72z"/>
			</g>
			<g id="Groupe_23310_00000105401901127712984660000002651128086997565321_" transform="translate(52.865 36.039)">
				<path id="Tracé_24665_00000008858084507500703980000005208596494613739943_" class="st2" d="M-828.19-225.72l-0.58,0.34
					c-1.04,0.6-1.88-0.04-1.88-1.42l0,0c0.02-1.43,0.72-2.77,1.88-3.6l0.58-0.34c1.04-0.6,1.88,0.03,1.88,1.42l0,0
					C-826.32-227.89-827.02-226.56-828.19-225.72z"/>
			</g>
			<g id="Groupe_23311_00000105405140412171005920000001829709780847554724_" transform="translate(22.882 53.352)">
				<path id="Tracé_24666_00000040536506063991847510000007438883662722107787_" class="st2" d="M-828.2-225.72l-0.59,0.34
					c-1.04,0.6-1.88-0.04-1.88-1.43l0,0c0.02-1.43,0.72-2.76,1.88-3.6l0.59-0.34c1.04-0.6,1.89,0.03,1.89,1.42l0,0
					C-826.33-227.89-827.03-226.55-828.2-225.72z"/>
			</g>
			<g id="Groupe_23312_00000117641273623146805670000016019144748152797316_" transform="translate(15.38 57.683)">
				<path id="Tracé_24667_00000139271168547364165380000012767569397823663804_" class="st3" d="M-828.19-225.72l-0.58,0.34
					c-1.04,0.6-1.89-0.04-1.89-1.43l0,0c0.02-1.43,0.72-2.77,1.89-3.6l0.58-0.33c1.04-0.6,1.89,0.03,1.89,1.42l0,0
					C-826.33-227.89-827.03-226.55-828.19-225.72z"/>
			</g>
			<g id="Groupe_23313_00000156570722741023977780000005952805833000734385_" transform="translate(97.85 19.377)">
				<path id="Tracé_24668_00000178905922276917598090000007371312672085719228_" class="st3" d="M-828.19-225.72l-0.58,0.34
					c-1.04,0.6-1.88-0.04-1.88-1.42l0,0c0.02-1.43,0.72-2.77,1.88-3.6l0.58-0.34c1.04-0.6,1.89,0.03,1.89,1.42l0,0
					C-826.33-227.89-827.03-226.56-828.19-225.72z"/>
			</g>
			<g id="Groupe_23314_00000173129295467435435270000009256996162064680374_" transform="translate(82.855 28.034)">
				<path id="Tracé_24669_00000124876804170788714970000013377371534871790252_" class="st2" d="M-828.19-225.72l-0.59,0.34
					c-1.04,0.6-1.88-0.04-1.88-1.43l0,0c0.02-1.43,0.72-2.77,1.88-3.6l0.59-0.34c1.04-0.6,1.88,0.03,1.88,1.42l0,0
					C-826.33-227.9-827.02-226.56-828.19-225.72z"/>
			</g>
			<g id="Groupe_23315_00000141456236893371271890000017151033119252740009_" transform="translate(67.86 36.693)">
				<path id="Tracé_24670_00000047050228740187920470000004703717645494850710_" class="st3" d="M-828.19-225.72l-0.58,0.34
					c-1.04,0.6-1.88-0.04-1.88-1.43l0,0c0.02-1.43,0.72-2.76,1.88-3.6l0.58-0.33c1.04-0.6,1.88,0.03,1.88,1.42l0,0
					C-826.33-227.89-827.03-226.56-828.19-225.72z"/>
			</g>
			<g id="Groupe_23316_00000177475873407658954530000007543826456963031190_" transform="translate(37.87 54.006)">
				<path id="Tracé_24671_00000098925259728266715750000010363615690996413342_" class="st3" d="M-828.19-225.73l-0.59,0.34
					c-1.04,0.6-1.89-0.03-1.89-1.42l0,0c0.02-1.43,0.72-2.77,1.89-3.6l0.59-0.34c1.04-0.6,1.88,0.04,1.88,1.42l0,0
					C-826.33-227.89-827.02-226.56-828.19-225.73z"/>
			</g>
			<g id="Groupe_23317_00000171691253835534227990000008403096417668017281_" transform="translate(30.37 58.328)">
				<path id="Tracé_24672_00000137846304011631122610000007932679888517409681_" class="st2" d="M-828.19-225.72l-0.59,0.34
					c-1.04,0.6-1.89-0.03-1.89-1.42l0,0c0.02-1.43,0.72-2.77,1.89-3.6l0.59-0.34c1.04-0.6,1.89,0.04,1.89,1.42l0,0
					C-826.32-227.89-827.02-226.56-828.19-225.72z"/>
			</g>
			<g id="Groupe_23318_00000018926346291077035010000017756240971509219220_" transform="translate(45.365 40.368)">
				<path id="Tracé_24673_00000124840683311461263530000005312191606849915015_" class="st1" d="M-828.19-225.73l-0.59,0.34
					c-1.04,0.6-1.89-0.04-1.89-1.42l0,0c0.02-1.43,0.72-2.77,1.89-3.6l0.59-0.34c1.04-0.6,1.88,0.03,1.88,1.42l0,0
					C-826.32-227.9-827.02-226.56-828.19-225.73z"/>
			</g>
			<g id="Groupe_23319_00000121992393504749018650000007570365231891225994_" transform="translate(60.36 41.019)">
				<path id="Tracé_24674_00000160906001526068294770000017159400239507004067_" class="st3" d="M-828.19-225.72l-0.59,0.33
					c-1.04,0.6-1.89-0.03-1.89-1.42l0,0c0.02-1.43,0.72-2.77,1.89-3.6l0.59-0.33c1.04-0.6,1.89,0.03,1.89,1.42l0,0
					C-826.32-227.89-827.02-226.55-828.19-225.72z"/>
			</g>
			<g id="Groupe_23320_00000016785008224803916100000006559177711122370985_" transform="translate(22.882 62.66)">
				<path id="Tracé_24675_00000176017058946685354140000009017929931947475847_" class="st3" d="M-828.2-225.72l-0.59,0.34
					c-1.04,0.6-1.88-0.03-1.88-1.42l0,0c0.02-1.43,0.72-2.76,1.88-3.6l0.59-0.34c1.04-0.6,1.89,0.04,1.89,1.42l0,0
					C-826.33-227.89-827.03-226.55-828.2-225.72z"/>
			</g>
			<g id="Groupe_23321_00000114779787479276052700000018227285835218070167_" transform="translate(6.77 70.216)">
				<path id="Tracé_24676_00000083080348724319069240000005922905122073209004_" class="st1" d="M-827.08-224.62l-0.58,0.34
					c-1.04,0.6-1.88-0.04-1.88-1.42l0,0c0.02-1.43,0.72-2.77,1.88-3.6l0.58-0.34c1.04-0.6,1.89,0.03,1.89,1.42l0,0
					C-825.21-226.79-825.91-225.45-827.08-224.62z"/>
				<path id="Tracé_24677_00000039851784447057147300000005079264224055945662_" class="st2" d="M-829.44-223.23
					c-0.82-0.55-1.28-1.5-1.2-2.48c0.01-1.83,0.92-3.53,2.43-4.56l0.59-0.34c0.7-0.46,1.6-0.5,2.34-0.1
					c0.82,0.55,1.28,1.5,1.21,2.48c-0.02,1.83-0.93,3.53-2.44,4.56l-0.58,0.34c-0.39,0.24-0.84,0.36-1.3,0.37
					C-828.77-222.95-829.13-223.05-829.44-223.23z M-827.63-225.58c0.82-0.64,1.31-1.61,1.33-2.65c0-0.38-0.11-0.55-0.23-0.47
					l-0.58,0.34c-0.82,0.64-1.31,1.61-1.33,2.64c0,0.37,0.09,0.55,0.23,0.47L-827.63-225.58L-827.63-225.58z"/>
			</g>
			<g id="Groupe_23322_00000029043957293630376070000011266355534506754225_" transform="translate(84.28 12.532)">
				<path id="Tracé_24678_00000004526624405741408910000008733438659981278356_" class="st2" d="M-825.54-218.8
					c0.46,0,0.92-0.05,1.36-0.15c5.97-1.27,10.1-10.74,10.27-11.15l-2.02-0.87c-1.06,2.45-4.69,9-8.71,9.85
					c-1.68,0.29-3.39-0.31-4.53-1.57l-1.5,1.62C-829.31-219.68-827.47-218.87-825.54-218.8z"/>
			</g>
			<g id="Groupe_23323_00000132067757904423432240000005703104895457502855_" transform="translate(24.506 47.079)">
				<path id="Tracé_24679_00000109742819792336975570000006686158796957980818_" class="st2" d="M-826.69-219.74
					c0.76,0,1.51-0.11,2.24-0.32c5.89-1.7,10.12-9.54,10.3-9.87l-1.94-1.04c-0.04,0.07-3.99,7.36-8.97,8.79
					c-1.51,0.45-3.15,0.25-4.5-0.57l-1.09,1.91C-829.46-220.13-828.09-219.75-826.69-219.74z"/>
			</g>
			<g id="Groupe_23324_00000155839162954908250720000001109109578629353150_" transform="translate(37.87 44.696)">
				<path id="Tracé_24680_00000036245524543316805290000016214163094129381020_" class="st3" d="M-828.19-225.72l-0.59,0.34
					c-1.04,0.6-1.89-0.04-1.89-1.42l0,0c0.02-1.43,0.72-2.77,1.89-3.6l0.59-0.34c1.04-0.6,1.88,0.03,1.88,1.42l0,0
					C-826.32-227.89-827.02-226.56-828.19-225.72z"/>
			</g>
			<g id="Groupe_23325_00000010287574949635296220000000421968992749505979_" transform="translate(96.733 8.962)">
				<path id="Tracé_24681_00000077322677154521941720000012747058513274756488_" class="st1" d="M-827.08-224.62l-0.58,0.34
					c-1.04,0.6-1.88-0.03-1.88-1.42l0,0c0.02-1.43,0.72-2.77,1.88-3.6l0.58-0.34c1.04-0.6,1.89,0.04,1.89,1.43l0,0
					C-825.21-226.79-825.91-225.45-827.08-224.62z"/>
				<path id="Tracé_24682_00000039819290918577658130000004327678317447183750_" class="st2" d="M-829.44-223.23
					c-0.82-0.55-1.28-1.5-1.2-2.48c0.02-1.82,0.93-3.53,2.43-4.55l0.58-0.34c0.7-0.46,1.6-0.49,2.34-0.09
					c0.82,0.55,1.28,1.5,1.2,2.48c-0.02,1.82-0.93,3.53-2.44,4.55l-0.58,0.34c-0.39,0.24-0.84,0.36-1.3,0.37
					C-828.77-222.95-829.13-223.05-829.44-223.23z M-826.52-228.69l-0.58,0.34c-0.82,0.64-1.31,1.61-1.33,2.65
					c0,0.37,0.09,0.55,0.23,0.47l0.58-0.34c0.82-0.63,1.31-1.6,1.33-2.64c0-0.31-0.06-0.49-0.16-0.49L-826.52-228.69z"/>
			</g>
			<g id="Groupe_23326_00000052818779379211592550000004001883957073167235_" transform="translate(81.746 17.619)">
				<path id="Tracé_24683_00000145046900559997193370000015493020095409999526_" class="st1" d="M-827.08-224.62l-0.58,0.34
					c-1.04,0.6-1.88-0.03-1.88-1.42l0,0c0.02-1.43,0.72-2.77,1.88-3.6l0.58-0.34c1.04-0.6,1.88,0.04,1.88,1.42l0,0
					C-825.22-226.79-825.92-225.45-827.08-224.62z"/>
				<path id="Tracé_24684_00000129167977194623859740000015065548461335945887_" class="st2" d="M-829.45-223.23
					c-0.82-0.55-1.28-1.5-1.2-2.48c0.01-1.82,0.92-3.53,2.43-4.55l0.58-0.34c0.7-0.46,1.6-0.5,2.34-0.1c0.82,0.55,1.28,1.5,1.2,2.48
					c-0.02,1.83-0.93,3.53-2.44,4.55l-0.58,0.34c-0.39,0.24-0.84,0.36-1.3,0.37C-828.78-222.95-829.14-223.05-829.45-223.23z
					 M-826.53-228.69l-0.58,0.34c-0.82,0.64-1.31,1.61-1.33,2.65c0,0.37,0.09,0.55,0.23,0.47l0.58-0.34
					c0.82-0.63,1.31-1.6,1.33-2.64c0-0.32-0.06-0.49-0.16-0.49L-826.53-228.69z"/>
			</g>
		</g>
		<g id="Groupe_23347_00000106124560157936919410000001622674397672282037_" transform="translate(994.651 524.331)">
			<g id="Groupe_23328_00000155117640943312363540000001865200207219544221_" transform="translate(0 0)">
				<path id="Tracé_24685_00000008111926803519701700000010868321290623032963_" class="st1" d="M-824.24-145.51l97.24-56.14
					c2.93-1.7,5.32-6.25,5.32-10.16v-13.4c0-3.92-2.39-5.72-5.32-4.02l-97.24,56.14c-2.94,1.7-5.32,6.25-5.32,10.17v13.4
					C-829.56-145.62-827.17-143.81-824.24-145.51z"/>
				<path id="Tracé_24686_00000025413714260741345300000006363943400319638410_" class="st2" d="M-828.27-144.28
					c-1.52-0.88-2.39-2.8-2.39-5.26v-13.4c0-4.34,2.58-9.22,5.87-11.12l97.24-56.14c1.36-0.93,3.12-1.03,4.59-0.28
					c1.52,0.88,2.39,2.79,2.39,5.26v13.4c0,4.33-2.58,9.22-5.87,11.12l-97.23,56.14c-0.8,0.49-1.72,0.76-2.67,0.79
					C-827.02-143.77-827.68-143.94-828.27-144.28z M-727.55-202.61c2.59-1.49,4.77-5.71,4.77-9.21v-13.4c0-1.63-0.49-2.88-1.29-3.35
					c-0.79-0.33-1.69-0.22-2.38,0.28l-97.24,56.14c-2.59,1.49-4.77,5.71-4.77,9.21v13.4c0,1.63,0.48,2.88,1.29,3.35
					c0.79,0.33,1.69,0.22,2.38-0.28L-727.55-202.61z"/>
			</g>
			<g id="Groupe_23329_00000000184252311858889620000012106672101945709747_" transform="translate(59.252 30.607)">
				<path id="Tracé_24687_00000022557926899960445730000008632709818570402483_" class="st1" d="M-827.08-224.62l-0.58,0.34
					c-1.04,0.6-1.89-0.03-1.89-1.42l0,0c0.02-1.43,0.72-2.77,1.89-3.6l0.58-0.34c1.04-0.6,1.89,0.04,1.89,1.42l0,0
					C-825.21-226.79-825.91-225.45-827.08-224.62z"/>
				<path id="Tracé_24688_00000023970607415579144780000012125328326775280820_" class="st2" d="M-829.45-223.23
					c-0.82-0.55-1.28-1.5-1.2-2.48c0.02-1.83,0.92-3.53,2.43-4.56l0.58-0.34c0.7-0.45,1.6-0.49,2.34-0.1
					c0.82,0.55,1.28,1.5,1.2,2.48c-0.01,1.83-0.92,3.53-2.43,4.56l-0.59,0.34c-0.39,0.24-0.84,0.36-1.3,0.37
					C-828.78-222.95-829.13-223.05-829.45-223.23z M-827.63-225.58c0.82-0.64,1.31-1.61,1.33-2.64c0-0.38-0.11-0.54-0.23-0.47
					l-0.59,0.34c-0.81,0.64-1.3,1.61-1.32,2.64c0,0.37,0.09,0.56,0.23,0.47L-827.63-225.58L-827.63-225.58z"/>
			</g>
			<g id="Groupe_23330_00000005951243828397492870000008159292288180375231_" transform="translate(52.865 36.037)">
				<path id="Tracé_24689_00000046321727440612236210000016045277410417260711_" class="st2" d="M-828.19-225.72l-0.58,0.34
					c-1.04,0.6-1.88-0.03-1.88-1.42l0,0c0.02-1.43,0.72-2.77,1.88-3.6l0.58-0.34c1.04-0.6,1.88,0.03,1.88,1.42l0,0
					C-826.32-227.89-827.02-226.56-828.19-225.72z"/>
			</g>
			<g id="Groupe_23331_00000098907397989880512320000011508877835427740834_" transform="translate(29.258 47.922)">
				<path id="Tracé_24690_00000020390786562742842090000009144085144207980958_" class="st1" d="M-827.07-224.62l-0.59,0.34
					c-1.04,0.6-1.89-0.04-1.89-1.42l0,0c0.02-1.43,0.72-2.77,1.89-3.6l0.59-0.34c1.04-0.6,1.89,0.03,1.89,1.42l0,0
					C-825.21-226.79-825.91-225.45-827.07-224.62z"/>
				<path id="Tracé_24691_00000028322057363893589570000015126123399140719265_" class="st2" d="M-829.44-223.23
					c-0.82-0.55-1.28-1.49-1.2-2.47c0.01-1.83,0.92-3.53,2.43-4.56l0.59-0.34c0.7-0.46,1.6-0.49,2.34-0.1
					c0.82,0.55,1.28,1.5,1.2,2.48c-0.02,1.83-0.93,3.53-2.44,4.56l-0.58,0.34c-0.39,0.24-0.84,0.36-1.3,0.37
					C-828.77-222.95-829.13-223.05-829.44-223.23z M-827.62-225.58c0.82-0.64,1.31-1.61,1.33-2.64c0-0.38-0.11-0.54-0.23-0.47
					l-0.58,0.34c-0.82,0.63-1.31,1.61-1.34,2.64c0,0.38,0.1,0.54,0.23,0.47L-827.62-225.58L-827.62-225.58z"/>
			</g>
			<g id="Groupe_23332_00000113315155291726972440000018286730021209451431_" transform="translate(22.882 53.353)">
				<path id="Tracé_24692_00000143600959844337202210000013467815850638376880_" class="st2" d="M-828.2-225.72l-0.59,0.34
					c-1.04,0.6-1.88-0.04-1.88-1.43l0,0c0.02-1.43,0.72-2.76,1.88-3.6l0.59-0.34c1.04-0.6,1.89,0.03,1.89,1.42l0,0
					C-826.33-227.89-827.03-226.56-828.2-225.72z"/>
			</g>
			<g id="Groupe_23333_00000181808056071347245050000015827677015805366679_" transform="translate(15.38 57.684)">
				<path id="Tracé_24693_00000001633317784632304610000012120121186682354618_" class="st3" d="M-828.19-225.73l-0.58,0.34
					c-1.04,0.6-1.89-0.04-1.89-1.43l0,0c0.02-1.43,0.72-2.77,1.89-3.6l0.58-0.33c1.04-0.6,1.89,0.03,1.89,1.42l0,0
					C-826.33-227.89-827.03-226.56-828.19-225.73z"/>
			</g>
			<g id="Groupe_23334_00000163757357229750886950000001707865171991013035_" transform="translate(6.77 60.905)">
				<path id="Tracé_24694_00000020371812899047241570000000899305807023755160_" class="st1" d="M-827.08-224.62l-0.58,0.34
					c-1.04,0.6-1.88-0.04-1.88-1.43l0,0c0.02-1.43,0.72-2.77,1.88-3.6l0.58-0.33c1.04-0.6,1.89,0.03,1.89,1.42l0,0
					C-825.22-226.79-825.92-225.45-827.08-224.62z"/>
				<path id="Tracé_24695_00000161619162216409118720000012394115176255255966_" class="st2" d="M-829.44-223.23
					c-0.82-0.55-1.28-1.5-1.2-2.48c0.02-1.83,0.92-3.53,2.43-4.56l0.59-0.33c0.7-0.46,1.6-0.5,2.34-0.1
					c0.82,0.55,1.28,1.5,1.21,2.48c-0.02,1.83-0.93,3.53-2.44,4.56l-0.58,0.34c-0.39,0.24-0.84,0.36-1.3,0.37
					C-828.77-222.95-829.13-223.05-829.44-223.23z M-826.53-228.69l-0.58,0.33c-0.82,0.64-1.31,1.61-1.33,2.64
					c0,0.38,0.1,0.53,0.23,0.47l0.59-0.34c0.82-0.64,1.3-1.61,1.33-2.64c0-0.31-0.06-0.49-0.17-0.49L-826.53-228.69z"/>
			</g>
			<g id="Groupe_23335_00000176041121878548672800000008950076776975085469_" transform="translate(60.36 41.021)">
				<path id="Tracé_24696_00000126320243636929653990000012918856829964363681_" class="st3" d="M-828.19-225.72l-0.59,0.34
					c-1.04,0.6-1.89-0.04-1.89-1.43l0,0c0.02-1.43,0.72-2.77,1.89-3.6l0.59-0.33c1.04-0.6,1.89,0.03,1.89,1.42l0,0
					C-826.32-227.89-827.02-226.55-828.19-225.72z"/>
			</g>
			<g id="Groupe_23336_00000074433568746307757210000002896024868548769973_" transform="translate(44.257 48.571)">
				<path id="Tracé_24697_00000034087891916900664620000008226831147530093953_" class="st1" d="M-827.08-224.62l-0.59,0.33
					c-1.04,0.6-1.89-0.03-1.89-1.42l0,0c0.02-1.43,0.72-2.77,1.89-3.6l0.59-0.34c1.04-0.6,1.88,0.04,1.88,1.43l0,0
					C-825.22-226.79-825.92-225.45-827.08-224.62z"/>
				<path id="Tracé_24698_00000001656236013087532450000008660808078940427695_" class="st2" d="M-829.44-223.23
					c-0.82-0.55-1.28-1.5-1.2-2.48c0.01-1.82,0.92-3.52,2.43-4.55l0.59-0.34c0.7-0.46,1.6-0.49,2.34-0.09
					c0.82,0.55,1.28,1.5,1.2,2.48c-0.02,1.83-0.93,3.53-2.43,4.56l-0.59,0.33c-0.39,0.24-0.84,0.36-1.3,0.37
					C-828.77-222.95-829.13-223.05-829.44-223.23z M-827.62-225.57c0.82-0.64,1.31-1.61,1.33-2.65c0-0.38-0.11-0.53-0.23-0.47
					l-0.59,0.34c-0.81,0.64-1.3,1.61-1.33,2.65c0,0.38,0.1,0.54,0.23,0.47L-827.62-225.57L-827.62-225.57z"/>
			</g>
			<g id="Groupe_23337_00000101085407244144953240000002203375008270135738_" transform="translate(37.87 54.001)">
				<path id="Tracé_24699_00000093143707519655626410000002737192184063514269_" class="st3" d="M-828.19-225.72l-0.59,0.33
					c-1.04,0.6-1.89-0.03-1.89-1.42l0,0c0.02-1.43,0.72-2.77,1.89-3.6l0.59-0.34c1.04-0.6,1.88,0.04,1.88,1.43l0,0
					C-826.33-227.89-827.03-226.55-828.19-225.72z"/>
			</g>
			<g id="Groupe_23338_00000168094586258784548430000007656242583669219714_" transform="translate(69.65 25.805)">
				<path id="Tracé_24700_00000060716563672325706840000013452335047317171135_" class="st2" d="M-829.89-216.15
					c9.68-3.59,8.23-14.72,8.21-14.83l-2.19,0.3c0.05,0.39,1.21,9.49-6.79,12.45L-829.89-216.15z"/>
			</g>
			<g id="Groupe_23339_00000183966747351768110300000000172440033283398055_" transform="translate(24.856 47.361)">
				<path id="Tracé_24701_00000098927377571639754470000017979730558391933346_" class="st2" d="M-830.26-211.68
					c12.06-2.18,15.72-18.14,15.88-18.81l-2.16-0.48c-0.03,0.15-3.51,15.2-14.11,17.12L-830.26-211.68z"/>
			</g>
			<g id="Groupe_23340_00000178901660096731611550000013045625948596828569_" transform="translate(84.844 21.62)">
				<path id="Tracé_24702_00000067233751855279022890000013132955761211585436_" class="st2" d="M-829.08-220.43
					c7.5,0,14.19-8.82,14.49-9.22l-1.77-1.32c-0.07,0.09-7.13,9.39-13.93,8.23l-0.37,2.18
					C-830.14-220.47-829.61-220.43-829.08-220.43z"/>
			</g>
			<g id="Groupe_23341_00000040566007444633555250000006030242108904316083_" transform="translate(75.357 23.05)">
				<path id="Tracé_24703_00000052069192648706716240000012107886598865898680_" class="st3" d="M-828.19-225.72l-0.58,0.34
					c-1.04,0.6-1.89-0.03-1.89-1.42l0,0c0.02-1.43,0.72-2.77,1.89-3.6l0.58-0.34c1.04-0.6,1.89,0.04,1.89,1.42l0,0
					C-826.33-227.89-827.02-226.56-828.19-225.72z"/>
			</g>
			<g id="Groupe_23342_00000101061470593468098740000013456444510508297385_" transform="translate(36.755 43.59)">
				<path id="Tracé_24704_00000106828114565612799260000004822916446101977018_" class="st1" d="M-827.07-224.62l-0.59,0.34
					c-1.04,0.6-1.89-0.04-1.89-1.42l0,0c0.02-1.43,0.72-2.77,1.89-3.6l0.59-0.34c1.04-0.6,1.88,0.03,1.88,1.42l0,0
					C-825.21-226.79-825.91-225.45-827.07-224.62z"/>
				<path id="Tracé_24705_00000002357530236800685730000009807162466157782690_" class="st2" d="M-829.45-223.22
					c-0.82-0.55-1.28-1.5-1.2-2.48c0.02-1.83,0.93-3.53,2.44-4.56l0.58-0.34c0.7-0.46,1.6-0.5,2.34-0.1c0.82,0.55,1.28,1.5,1.2,2.48
					c-0.01,1.83-0.92,3.53-2.43,4.56l-0.59,0.33c-0.39,0.24-0.85,0.37-1.31,0.38C-828.77-222.95-829.13-223.05-829.45-223.22z
					 M-826.3-228.22c0-0.37-0.07-0.56-0.23-0.47l-0.58,0.33c-0.82,0.64-1.31,1.61-1.33,2.65c0,0.37,0.07,0.55,0.23,0.47l0.59-0.34
					C-826.81-226.21-826.32-227.18-826.3-228.22L-826.3-228.22z"/>
			</g>
			<g id="Groupe_23343_00000002381694995674383920000008076854842239773342_" transform="translate(97.85 19.375)">
				<path id="Tracé_24706_00000140002503133037222720000010923028424126625430_" class="st3" d="M-828.19-225.72l-0.58,0.34
					c-1.04,0.6-1.88-0.03-1.88-1.42l0,0c0.02-1.43,0.72-2.77,1.88-3.6l0.58-0.34c1.04-0.6,1.89,0.03,1.89,1.42l0,0
					C-826.33-227.89-827.03-226.56-828.19-225.72z"/>
			</g>
			<g id="Groupe_23344_00000143610397429802130050000010389882955397256842_" transform="translate(82.855 28.034)">
				<path id="Tracé_24707_00000178924009440892550090000011117877453546594459_" class="st2" d="M-828.19-225.72l-0.59,0.34
					c-1.04,0.6-1.88-0.04-1.88-1.42l0,0c0.02-1.43,0.72-2.77,1.88-3.6l0.59-0.34c1.04-0.6,1.88,0.03,1.88,1.42l0,0
					C-826.33-227.89-827.03-226.56-828.19-225.72z"/>
			</g>
			<g id="Groupe_23345_00000163061231031863723900000003593926883751921590_" transform="translate(67.86 36.691)">
				<path id="Tracé_24708_00000137851850158098116770000007244959184370589586_" class="st3" d="M-828.19-225.72l-0.58,0.34
					c-1.04,0.6-1.88-0.04-1.88-1.43l0,0c0.02-1.43,0.72-2.77,1.88-3.6l0.58-0.34c1.04-0.6,1.88,0.03,1.88,1.42l0,0
					C-826.33-227.89-827.02-226.56-828.19-225.72z"/>
			</g>
			<g id="Groupe_23346_00000078727931363711169590000009601683138286878883_" transform="translate(22.882 62.665)">
				<path id="Tracé_24709_00000099629946177275533520000011641711456924664737_" class="st3" d="M-828.2-225.72l-0.59,0.34
					c-1.04,0.6-1.88-0.03-1.88-1.42l0,0c0.02-1.43,0.72-2.76,1.88-3.6l0.59-0.34c1.04-0.6,1.89,0.04,1.89,1.42l0,0
					C-826.33-227.89-827.03-226.55-828.2-225.72z"/>
			</g>
		</g>
		<g id="Groupe_23374_00000081642918854780872960000012412786045884950463_" transform="translate(994.651 486.686)">
			<g id="Groupe_23348_00000170959498609480448510000001687619989891670431_">
				<path id="Tracé_24710_00000179629283895668938800000018273523199958602141_" class="st1" d="M-727-201.65l-97.24,56.14
					c-2.94,1.7-5.32-0.1-5.32-4.02v-13.39c0-3.92,2.39-8.47,5.32-10.17l97.24-56.14c2.93-1.7,5.32,0.1,5.32,4.02v13.39
					C-721.68-207.9-724.06-203.34-727-201.65z"/>
				<path id="Tracé_24711_00000011711597612087775800000005716071270685000833_" class="st2" d="M-828.27-144.27
					c-1.52-0.88-2.39-2.8-2.39-5.26v-13.39c0-4.34,2.58-9.22,5.87-11.13l97.24-56.14c1.36-0.93,3.12-1.04,4.59-0.28
					c1.52,0.88,2.39,2.8,2.39,5.26v13.39c0,4.34-2.58,9.22-5.87,11.13l-97.23,56.14c-0.8,0.49-1.72,0.76-2.67,0.79
					C-827.02-143.76-827.68-143.94-828.27-144.27z M-727.55-202.61c2.59-1.49,4.77-5.71,4.77-9.21v-13.39
					c0-1.63-0.49-2.88-1.29-3.35c-0.79-0.33-1.69-0.22-2.38,0.28l-97.24,56.14c-2.59,1.49-4.77,5.71-4.77,9.21v13.39
					c0,1.63,0.48,2.88,1.29,3.35c0.79,0.33,1.69,0.22,2.38-0.28L-727.55-202.61L-727.55-202.61z"/>
			</g>
			<g id="Groupe_23349_00000134932470924994861440000012987282359205509504_" transform="translate(30.372 49.025)">
				<path id="Tracé_24712_00000110436661602206140730000002071492849628727483_" class="st3" d="M-828.77-225.39l0.59-0.33
					c1.16-0.83,1.86-2.17,1.89-3.6l0,0c0-1.39-0.84-2.03-1.89-1.42l-0.59,0.33c-1.16,0.84-1.86,2.17-1.89,3.6l0,0
					C-830.66-225.42-829.81-224.78-828.77-225.39z"/>
			</g>
			<g id="Groupe_23350_00000173130939424210644600000011526211607907358899_" transform="translate(36.755 43.59)">
				<path id="Tracé_24713_00000112604764883533735320000002483526555195172274_" class="st1" d="M-827.66-224.28l0.59-0.34
					c1.16-0.83,1.86-2.17,1.88-3.6l0,0c0-1.39-0.84-2.03-1.88-1.42l-0.59,0.33c-1.16,0.84-1.86,2.17-1.89,3.6l0,0
					C-829.54-224.32-828.69-223.68-827.66-224.28z"/>
				<path id="Tracé_24714_00000114792436277203346590000003490003968573030044_" class="st2" d="M-829.45-223.22
					c-0.82-0.55-1.28-1.5-1.2-2.48c0.02-1.82,0.93-3.53,2.44-4.55l0.58-0.34c0.7-0.46,1.6-0.5,2.34-0.1
					c0.82,0.55,1.28,1.5,1.21,2.48c-0.01,1.83-0.92,3.53-2.43,4.56l-0.59,0.33c-0.39,0.24-0.84,0.37-1.3,0.38
					C-828.77-222.95-829.13-223.04-829.45-223.22z M-826.53-228.69l-0.58,0.34c-0.82,0.64-1.31,1.61-1.33,2.65
					c0,0.36,0.09,0.54,0.04,0.55c0.07-0.01,0.13-0.04,0.18-0.07l0.59-0.34c0.82-0.64,1.31-1.61,1.33-2.64
					c0-0.31-0.06-0.49-0.16-0.49H-826.53z"/>
			</g>
			<g id="Groupe_23351_00000034059184584499347290000002770242104630464412_" transform="translate(44.257 39.262)">
				<path id="Tracé_24715_00000043459584480199232500000002427191829822563486_" class="st1" d="M-827.66-224.28l0.59-0.34
					c1.16-0.83,1.86-2.17,1.88-3.6l0,0c0-1.39-0.84-2.02-1.89-1.42l-0.59,0.34c-1.17,0.83-1.87,2.17-1.89,3.6l0,0
					C-829.55-224.32-828.7-223.68-827.66-224.28z"/>
				<path id="Tracé_24716_00000106120476637404115420000011319146100491921306_" class="st2" d="M-829.44-223.23
					c-0.82-0.55-1.28-1.49-1.2-2.47c0.01-1.83,0.92-3.53,2.43-4.56l0.59-0.34c0.7-0.46,1.6-0.5,2.34-0.1
					c0.82,0.55,1.28,1.5,1.2,2.48c-0.02,1.83-0.93,3.53-2.43,4.56l-0.59,0.34c-0.39,0.24-0.84,0.36-1.3,0.37
					C-828.77-222.95-829.13-223.05-829.44-223.23z M-826.52-228.69l-0.59,0.34c-0.81,0.64-1.3,1.61-1.33,2.65
					c0,0.35,0.08,0.53,0.04,0.55c0.07-0.02,0.13-0.04,0.19-0.08l0.59-0.34c0.82-0.64,1.31-1.61,1.33-2.64
					c0-0.31-0.07-0.49-0.17-0.49L-826.52-228.69z"/>
			</g>
			<g id="Groupe_23352_00000162333169265857125910000002901630813410185894_" transform="translate(52.865 36.04)">
				<path id="Tracé_24717_00000090996011886034631360000008038880870301797252_" class="st2" d="M-828.77-225.39l0.59-0.34
					c1.16-0.83,1.86-2.17,1.88-3.6l0,0c0-1.39-0.84-2.02-1.88-1.42l-0.59,0.34c-1.16,0.83-1.86,2.17-1.88,3.6l0,0
					C-830.66-225.43-829.81-224.79-828.77-225.39z"/>
			</g>
			<g id="Groupe_23353_00000174560907257744372180000014602789075278498449_" transform="translate(66.751 26.276)">
				<path id="Tracé_24718_00000064350890456366078890000017191450026323361664_" class="st1" d="M-827.66-224.28l0.59-0.34
					c1.16-0.83,1.86-2.17,1.88-3.6l0,0c0-1.39-0.85-2.02-1.88-1.42l-0.59,0.34c-1.16,0.83-1.86,2.17-1.88,3.6l0,0
					C-829.55-224.32-828.71-223.68-827.66-224.28z"/>
				<path id="Tracé_24719_00000023962942857470752740000000525916763188532894_" class="st2" d="M-829.45-223.22
					c-0.82-0.55-1.28-1.5-1.2-2.48c0.02-1.82,0.92-3.53,2.43-4.56l0.59-0.34c0.7-0.46,1.59-0.5,2.33-0.1
					c0.82,0.55,1.28,1.5,1.2,2.48c-0.01,1.83-0.92,3.53-2.43,4.56l-0.58,0.34c-0.39,0.24-0.84,0.36-1.3,0.37
					C-828.78-222.95-829.14-223.04-829.45-223.22z M-826.52-228.69l-0.58,0.34c-0.82,0.64-1.31,1.61-1.33,2.65
					c0,0.35,0.08,0.53,0.04,0.55c0.07-0.02,0.13-0.04,0.19-0.08l0.59-0.34c0.81-0.64,1.3-1.61,1.32-2.64c0-0.31-0.06-0.49-0.16-0.49
					L-826.52-228.69z"/>
			</g>
			<g id="Groupe_23354_00000086660963208223364840000011160685895625933453_" transform="translate(82.855 18.724)">
				<path id="Tracé_24720_00000168080269520107619790000006421279751103318437_" class="st2" d="M-828.77-225.39l0.58-0.34
					c1.16-0.84,1.86-2.17,1.88-3.6l0,0c0-1.39-0.85-2.02-1.88-1.42l-0.58,0.34c-1.16,0.83-1.86,2.17-1.88,3.6l0,0
					C-830.66-225.42-829.81-224.79-828.77-225.39z"/>
			</g>
			<g id="Groupe_23355_00000092457159466265087670000016861376535817370280_" transform="translate(90.352 14.394)">
				<path id="Tracé_24721_00000067208945279430235030000004059340776727118723_" class="st3" d="M-828.77-225.39l0.58-0.34
					c1.16-0.84,1.85-2.17,1.88-3.6l0,0c0-1.38-0.84-2.02-1.88-1.42l-0.58,0.34c-1.16,0.83-1.86,2.17-1.89,3.6l0,0
					C-830.66-225.42-829.81-224.79-828.77-225.39z"/>
			</g>
			<g id="Groupe_23356_00000004536619836607958680000001668955804327733387_" transform="translate(96.733 8.962)">
				<path id="Tracé_24722_00000091717899596070567740000002362359078095552147_" class="st1" d="M-827.66-224.29l0.58-0.34
					c1.16-0.83,1.86-2.17,1.89-3.6l0,0c0-1.38-0.84-2.02-1.89-1.42l-0.58,0.34c-1.16,0.83-1.86,2.17-1.88,3.6l0,0
					C-829.54-224.32-828.69-223.68-827.66-224.29z"/>
				<path id="Tracé_24723_00000075131918704877798170000009993468529239373720_" class="st2" d="M-829.44-223.23
					c-0.82-0.55-1.28-1.5-1.2-2.48c0.01-1.82,0.92-3.53,2.43-4.55l0.58-0.34c0.7-0.46,1.6-0.5,2.34-0.1c0.82,0.55,1.28,1.5,1.2,2.48
					c-0.02,1.82-0.93,3.52-2.44,4.55l-0.58,0.34c-0.39,0.24-0.84,0.36-1.3,0.37C-828.77-222.95-829.13-223.04-829.44-223.23z
					 M-827.63-225.58c0.82-0.63,1.31-1.6,1.33-2.64c0-0.37-0.08-0.55-0.23-0.47l-0.59,0.34c-0.82,0.64-1.31,1.61-1.33,2.64
					c0,0.36,0.08,0.54,0.04,0.55c0.07-0.01,0.13-0.04,0.19-0.08L-827.63-225.58z"/>
			</g>
			<g id="Groupe_23357_00000153691152407039305940000003468844063302032532_" transform="translate(14.268 65.887)">
				<path id="Tracé_24724_00000005957221805424675500000016328014659042100906_" class="st1" d="M-827.66-224.28l0.58-0.34
					c1.16-0.83,1.86-2.17,1.89-3.6l0,0c0-1.39-0.84-2.02-1.89-1.42l-0.58,0.34c-1.16,0.83-1.86,2.17-1.89,3.6l0,0
					C-829.55-224.32-828.7-223.68-827.66-224.28z"/>
				<path id="Tracé_24725_00000056425256544326725120000000292915910993680024_" class="st2" d="M-829.45-223.23
					c-0.82-0.55-1.28-1.5-1.2-2.48c0.02-1.83,0.93-3.53,2.43-4.56l0.59-0.34c0.7-0.46,1.6-0.5,2.34-0.1c0.82,0.55,1.28,1.5,1.2,2.48
					c-0.01,1.83-0.92,3.53-2.44,4.56l-0.58,0.34c-0.39,0.24-0.84,0.36-1.3,0.37C-828.77-222.95-829.13-223.05-829.45-223.23z
					 M-826.52-228.69l-0.59,0.34c-0.82,0.64-1.31,1.61-1.33,2.64c0,0.35,0.08,0.53,0.04,0.54c0.07-0.02,0.13-0.04,0.19-0.08
					l0.59-0.34c0.82-0.64,1.3-1.61,1.32-2.64c0-0.31-0.06-0.49-0.16-0.49C-826.49-228.71-826.51-228.7-826.52-228.69L-826.52-228.69
					z"/>
			</g>
			<g id="Groupe_23358_00000134928092450811545690000006131744214002806454_" transform="translate(7.886 71.321)">
				<path id="Tracé_24726_00000049935119852595362970000016674828797626143935_" class="st3" d="M-828.77-225.39l0.58-0.34
					c1.16-0.83,1.86-2.17,1.89-3.6l0,0c0-1.39-0.84-2.02-1.89-1.42l-0.58,0.34c-1.16,0.83-1.86,2.17-1.88,3.6l0,0
					C-830.66-225.42-829.82-224.79-828.77-225.39z"/>
			</g>
			<g id="Groupe_23359_00000181059228603190011950000002118294615007548042_" transform="translate(22.882 62.663)">
				<path id="Tracé_24727_00000117649607066362961890000002502908568945933212_" class="st2" d="M-828.78-225.39l0.59-0.34
					c1.16-0.83,1.86-2.17,1.89-3.6l0,0c0-1.39-0.84-2.02-1.89-1.42l-0.59,0.34c-1.16,0.84-1.86,2.17-1.88,3.6l0,0
					C-830.66-225.42-829.82-224.79-828.78-225.39z"/>
			</g>
			<g id="Groupe_23360_00000037655454964322951750000010284050769153016747_" transform="translate(29.258 57.231)">
				<path id="Tracé_24728_00000172434120589977029680000015599608694841202348_" class="st1" d="M-827.66-224.28l0.59-0.34
					c1.16-0.83,1.86-2.17,1.89-3.6l0,0c0-1.39-0.84-2.02-1.89-1.42l-0.59,0.34c-1.16,0.83-1.86,2.17-1.89,3.6l0,0
					C-829.54-224.32-828.7-223.68-827.66-224.28z"/>
				<path id="Tracé_24729_00000049195529942876934660000006147409950202320551_" class="st2" d="M-829.44-223.23
					c-0.82-0.55-1.28-1.5-1.2-2.48c0.02-1.83,0.93-3.53,2.43-4.56l0.59-0.34c0.7-0.46,1.6-0.49,2.34-0.1
					c0.82,0.55,1.28,1.5,1.2,2.48c-0.02,1.83-0.93,3.53-2.44,4.56l-0.58,0.34c-0.39,0.24-0.84,0.36-1.3,0.37
					C-828.77-222.95-829.13-223.05-829.44-223.23z M-826.52-228.69l-0.59,0.34c-0.82,0.64-1.31,1.61-1.34,2.64
					c0,0.35,0.08,0.53,0.04,0.54c0.07-0.01,0.13-0.04,0.19-0.08l0.59-0.34c0.82-0.64,1.31-1.61,1.33-2.65
					c0-0.31-0.06-0.49-0.17-0.49L-826.52-228.69z"/>
			</g>
			<g id="Groupe_23361_00000133495806547955943030000010555974528153619074_" transform="translate(37.87 54.008)">
				<path id="Tracé_24730_00000075883910092634121960000007013340554719066526_" class="st3" d="M-828.77-225.39l0.59-0.34
					c1.16-0.83,1.86-2.17,1.88-3.6l0,0c0-1.38-0.84-2.02-1.88-1.42l-0.59,0.34c-1.16,0.83-1.86,2.17-1.89,3.6l0,0
					C-830.66-225.42-829.81-224.79-828.77-225.39z"/>
			</g>
			<g id="Groupe_23362_00000147900886898516704630000000939778523359354259_" transform="translate(59.252 39.916)">
				<path id="Tracé_24731_00000116920391328258098610000018228650706720578438_" class="st1" d="M-827.66-224.28l0.58-0.34
					c1.17-0.83,1.87-2.17,1.89-3.6l0,0c0-1.39-0.84-2.03-1.89-1.43l-0.58,0.34c-1.16,0.83-1.86,2.17-1.89,3.6l0,0
					C-829.55-224.32-828.7-223.68-827.66-224.28z"/>
				<path id="Tracé_24732_00000022549911739499449260000014484630285874097565_" class="st2" d="M-829.45-223.23
					c-0.82-0.55-1.28-1.5-1.2-2.48c0.01-1.82,0.92-3.53,2.43-4.55l0.58-0.34c0.7-0.46,1.6-0.49,2.34-0.09
					c0.82,0.55,1.28,1.5,1.2,2.48c-0.02,1.83-0.93,3.53-2.44,4.55l-0.58,0.34c-0.39,0.24-0.84,0.36-1.3,0.37
					C-828.78-222.95-829.14-223.05-829.45-223.23z M-827.63-225.58c0.82-0.63,1.31-1.6,1.33-2.64c0-0.37-0.08-0.56-0.23-0.47
					l-0.59,0.34c-0.81,0.64-1.3,1.61-1.32,2.64c0,0.35,0.08,0.53,0.04,0.55c0.07-0.01,0.13-0.04,0.19-0.08L-827.63-225.58z"/>
			</g>
			<g id="Groupe_23363_00000172438752778547303190000016338452257729586589_" transform="translate(67.86 36.69)">
				<path id="Tracé_24733_00000030464458657911217380000004724791449098116484_" class="st3" d="M-828.77-225.39l0.59-0.33
					c1.16-0.84,1.86-2.17,1.88-3.6l0,0c0-1.39-0.85-2.03-1.88-1.43l-0.59,0.34c-1.16,0.83-1.86,2.17-1.88,3.6l0,0
					C-830.66-225.42-829.81-224.78-828.77-225.39z"/>
			</g>
			<g id="Groupe_23364_00000091007949322795910210000010692186325743787140_" transform="translate(75.356 32.363)">
				<path id="Tracé_24734_00000044858256069839451690000000802720938912294285_" class="st2" d="M-828.77-225.39l0.58-0.33
					c1.16-0.84,1.86-2.17,1.89-3.6l0,0c0-1.39-0.85-2.03-1.89-1.43l-0.58,0.34c-1.16,0.83-1.86,2.17-1.89,3.6l0,0
					C-830.65-225.42-829.81-224.78-828.77-225.39z"/>
			</g>
			<g id="Groupe_23365_00000057122820370329899540000005353843770617700796_" transform="translate(47.399 34.549)">
				<path id="Tracé_24735_00000161628031933295751790000005991955054694819978_" class="st2" d="M-830.36-211.85
					c0.15-0.02,14.94-2.19,15.95-18.99l-2.21-0.13c-0.9,15.01-13.9,16.92-14.04,16.94L-830.36-211.85z"/>
			</g>
			<g id="Groupe_23366_00000071547351319865177240000014692431636279184002_" transform="translate(9.56 55.654)">
				<path id="Tracé_24736_00000180330099014112218360000013985199217741674897_" class="st2" d="M-827.57-220.12
					c3.07,0,8.07-1.56,13.33-9.65l-1.85-1.21c-7.24,11.12-13.33,8.4-13.58,8.27l-0.99,1.97
					C-829.69-220.3-828.63-220.09-827.57-220.12z"/>
			</g>
			<g id="Groupe_23367_00000156549003395836359320000015285145676343380391_" transform="translate(6.77 60.909)">
				<path id="Tracé_24737_00000054959463170146786720000016402135680307080338_" class="st1" d="M-827.66-224.29l0.58-0.34
					c1.16-0.83,1.86-2.17,1.89-3.6l0,0c0-1.39-0.84-2.03-1.89-1.43l-0.58,0.34c-1.16,0.83-1.86,2.17-1.88,3.6l0,0
					C-829.54-224.32-828.7-223.69-827.66-224.29z"/>
				<path id="Tracé_24738_00000155119674871055394850000009022582426453232008_" class="st2" d="M-829.44-223.23
					c-0.82-0.55-1.28-1.5-1.2-2.48c0.02-1.83,0.92-3.53,2.43-4.56l0.59-0.33c0.7-0.46,1.6-0.5,2.34-0.1
					c0.82,0.55,1.28,1.49,1.21,2.47c-0.02,1.83-0.93,3.53-2.44,4.56l-0.58,0.34c-0.39,0.24-0.84,0.36-1.3,0.37
					C-828.77-222.95-829.13-223.05-829.44-223.23z M-826.53-228.69l-0.58,0.34c-0.82,0.64-1.31,1.61-1.33,2.64
					c0,0.35,0.08,0.53,0.04,0.54c0.07-0.02,0.13-0.04,0.19-0.08l0.59-0.33c0.82-0.64,1.31-1.61,1.33-2.65
					c0-0.31-0.06-0.49-0.17-0.49L-826.53-228.69z"/>
			</g>
			<g id="Groupe_23368_00000107564936398438348070000003517225242687336877_" transform="translate(21.764 52.25)">
				<path id="Tracé_24739_00000131325029322912441230000011986178457583656126_" class="st1" d="M-827.66-224.29l0.59-0.33
					c1.16-0.83,1.86-2.17,1.89-3.6l0,0c0-1.39-0.84-2.03-1.89-1.43l-0.59,0.34c-1.16,0.84-1.86,2.17-1.88,3.6l0,0
					C-829.54-224.32-828.7-223.68-827.66-224.29z"/>
				<path id="Tracé_24740_00000077317055934320159100000002053300368151245959_" class="st2" d="M-829.44-223.23
					c-0.82-0.55-1.28-1.5-1.2-2.48c0.02-1.82,0.92-3.52,2.43-4.55l0.59-0.34c0.7-0.46,1.6-0.49,2.34-0.09
					c0.82,0.55,1.28,1.5,1.2,2.48c-0.02,1.83-0.92,3.53-2.43,4.56l-0.58,0.33c-0.39,0.24-0.84,0.36-1.3,0.37
					C-828.77-222.95-829.13-223.05-829.44-223.23z M-826.52-228.69l-0.59,0.34c-0.82,0.64-1.31,1.61-1.33,2.64
					c0,0.35,0.08,0.53,0.04,0.54c0.06-0.01,0.13-0.04,0.18-0.07l0.59-0.34c0.82-0.64,1.31-1.61,1.34-2.64
					c0-0.31-0.07-0.49-0.17-0.49L-826.52-228.69z"/>
			</g>
			<g id="Groupe_23369_00000057119270419542269020000015247060426896912263_" transform="translate(59.252 30.6)">
				<path id="Tracé_24741_00000094588559062376695690000015352051101355429525_" class="st1" d="M-827.66-224.28l0.58-0.34
					c1.16-0.83,1.86-2.17,1.89-3.6l0,0c0-1.39-0.84-2.02-1.89-1.42l-0.58,0.34c-1.16,0.83-1.86,2.17-1.89,3.6l0,0
					C-829.55-224.32-828.7-223.68-827.66-224.28z"/>
				<path id="Tracé_24742_00000044152915863543372390000005551958944002404756_" class="st2" d="M-829.45-223.22
					c-0.82-0.55-1.28-1.5-1.2-2.48c0.01-1.82,0.92-3.53,2.43-4.55l0.58-0.34c0.7-0.46,1.6-0.5,2.34-0.1c0.82,0.55,1.28,1.5,1.2,2.48
					c-0.02,1.83-0.93,3.53-2.44,4.56l-0.58,0.34c-0.39,0.24-0.84,0.36-1.3,0.37C-828.78-222.95-829.14-223.04-829.45-223.22z
					 M-826.53-228.69l-0.58,0.34c-0.81,0.64-1.3,1.61-1.32,2.64c0,0.36,0.08,0.54,0.04,0.55c0.07-0.01,0.13-0.04,0.19-0.07
					l0.58-0.34c0.82-0.64,1.31-1.61,1.33-2.64c0-0.31-0.06-0.49-0.16-0.49L-826.53-228.69z"/>
			</g>
			<g id="Groupe_23370_00000124864915950816509200000012593257063690490779_" transform="translate(45.365 49.677)">
				<path id="Tracé_24743_00000158000586835856206730000006243979938239079820_" class="st3" d="M-828.77-225.39l0.59-0.34
					c1.16-0.83,1.86-2.17,1.88-3.6l0,0c0-1.38-0.84-2.02-1.89-1.42l-0.59,0.34c-1.16,0.83-1.86,2.17-1.89,3.6l0,0
					C-830.65-225.42-829.81-224.79-828.77-225.39z"/>
			</g>
			<g id="Groupe_23371_00000165236852080924970600000002314022885641726596_" transform="translate(84.61 21.702)">
				<path id="Tracé_24744_00000093161483002620266430000011007859772696046770_" class="st2" d="M-827.77-220.25
					c3.15,0,8.44-1.46,13.46-9.56l-1.88-1.17c-6.68,10.74-13.38,8.32-13.65,8.21l-0.82,2.05
					C-829.73-220.39-828.75-220.23-827.77-220.25z"/>
			</g>
			<g id="Groupe_23372_00000110458656652992844240000011545922402320294831_" transform="translate(82.855 28.035)">
				<path id="Tracé_24745_00000075882127530854363100000000860204599873073800_" class="st3" d="M-828.77-225.39l0.58-0.33
					c1.16-0.84,1.86-2.17,1.88-3.6l0,0c0-1.39-0.85-2.03-1.88-1.42l-0.58,0.33c-1.16,0.83-1.86,2.17-1.88,3.6l0,0
					C-830.66-225.43-829.81-224.78-828.77-225.39z"/>
			</g>
			<g id="Groupe_23373_00000065770294457684756100000004269283304346936461_" transform="translate(96.733 18.275)">
				<path id="Tracé_24746_00000051368624416635339280000004652305791625334930_" class="st1" d="M-827.66-224.28l0.58-0.34
					c1.16-0.83,1.86-2.17,1.89-3.6l0,0c0-1.39-0.84-2.02-1.89-1.42l-0.58,0.34c-1.16,0.83-1.86,2.17-1.88,3.6l0,0
					C-829.54-224.32-828.69-223.68-827.66-224.28z"/>
				<path id="Tracé_24747_00000156575358598481985130000007099182092215291572_" class="st2" d="M-829.44-223.23
					c-0.82-0.55-1.28-1.5-1.2-2.48c0.02-1.83,0.93-3.53,2.44-4.55l0.58-0.34c0.7-0.46,1.6-0.5,2.34-0.1c0.82,0.55,1.28,1.5,1.2,2.48
					c-0.02,1.83-0.93,3.53-2.44,4.55l-0.58,0.34c-0.39,0.24-0.84,0.36-1.3,0.37C-828.77-222.95-829.13-223.04-829.44-223.23z
					 M-827.63-225.58c0.82-0.64,1.31-1.61,1.33-2.64c0-0.38-0.11-0.55-0.23-0.47l-0.59,0.33c-0.82,0.64-1.31,1.61-1.33,2.65
					c0,0.36,0.08,0.54,0.04,0.55c0.07-0.02,0.13-0.04,0.19-0.08L-827.63-225.58z"/>
			</g>
		</g>
		<g id="Groupe_23396_00000049939029651250253740000013386678404573113481_" transform="translate(994.651 724.042)">
			<g id="Groupe_23375_00000104671814074765020930000001956210448812214401_">
				<path id="Tracé_24748_00000016773213856729992810000002196033738101010323_" class="st1" d="M-727-201.65l-97.24,56.14
					c-2.94,1.7-5.32-0.1-5.32-4.03v-13.39c0-3.92,2.39-8.47,5.32-10.16l97.24-56.15c2.93-1.7,5.32,0.1,5.32,4.03v13.39
					C-721.68-207.9-724.06-203.35-727-201.65z"/>
				<path id="Tracé_24749_00000181774799108932048650000004571153289076567225_" class="st2" d="M-828.27-144.28
					c-1.52-0.88-2.39-2.8-2.39-5.26v-13.39c0-4.33,2.58-9.22,5.87-11.12l97.24-56.14c1.36-0.93,3.12-1.04,4.59-0.28
					c1.52,0.88,2.39,2.79,2.39,5.26v13.4c0,4.33-2.58,9.22-5.87,11.12l-97.23,56.14c-0.81,0.49-1.72,0.76-2.67,0.78
					C-827.02-143.76-827.68-143.94-828.27-144.28z M-727.55-202.61c2.59-1.49,4.77-5.71,4.77-9.21v-13.39
					c0-1.63-0.49-2.89-1.29-3.35c-0.79-0.33-1.69-0.23-2.38,0.28l-97.24,56.14c-2.59,1.49-4.77,5.71-4.77,9.21v13.39
					c0,1.63,0.48,2.89,1.29,3.35c0.79,0.33,1.69,0.23,2.38-0.28L-727.55-202.61L-727.55-202.61z"/>
			</g>
			<g id="Groupe_23376_00000183928234667542214830000014920967408533162633_" transform="translate(30.372 49.025)">
				<path id="Tracé_24750_00000101822126264588167000000004020723302675644585_" class="st3" d="M-828.77-225.39l0.59-0.34
					c1.16-0.83,1.86-2.17,1.89-3.6l0,0c0-1.39-0.84-2.02-1.89-1.42l-0.59,0.34c-1.16,0.83-1.86,2.17-1.89,3.6l0,0
					C-830.66-225.42-829.81-224.79-828.77-225.39z"/>
			</g>
			<g id="Groupe_23377_00000044140797825825064270000004650319079790409895_" transform="translate(36.754 43.594)">
				<path id="Tracé_24751_00000155846168509930002850000016550719502947009463_" class="st1" d="M-827.66-224.29l0.59-0.34
					c1.16-0.83,1.86-2.17,1.88-3.6l0,0c0-1.38-0.84-2.02-1.88-1.42l-0.59,0.34c-1.16,0.83-1.86,2.17-1.89,3.6l0,0
					C-829.54-224.32-828.69-223.69-827.66-224.29z"/>
				<path id="Tracé_24752_00000093882305080757732580000012804536498750370707_" class="st2" d="M-829.45-223.23
					c-0.82-0.55-1.28-1.5-1.2-2.48c0.02-1.83,0.93-3.53,2.44-4.56l0.58-0.33c0.7-0.46,1.6-0.5,2.34-0.1c0.82,0.55,1.28,1.5,1.2,2.48
					c-0.01,1.83-0.92,3.53-2.43,4.56l-0.59,0.34c-0.39,0.24-0.84,0.36-1.3,0.37C-828.77-222.95-829.13-223.05-829.45-223.23z
					 M-826.52-228.69l-0.58,0.34c-0.82,0.64-1.31,1.61-1.33,2.65c0,0.35,0.09,0.53,0.04,0.54c0.07-0.01,0.13-0.04,0.18-0.08
					l0.59-0.33c0.82-0.64,1.31-1.61,1.33-2.65c0-0.31-0.06-0.49-0.16-0.49L-826.52-228.69z"/>
			</g>
			<g id="Groupe_23378_00000155868897794212939150000006123094589707198870_" transform="translate(45.365 40.366)">
				<path id="Tracé_24753_00000102511552171361046970000000356584969586430366_" class="st3" d="M-828.77-225.38l0.59-0.34
					c1.16-0.83,1.86-2.17,1.88-3.6l0,0c0-1.38-0.84-2.02-1.89-1.42l-0.59,0.34c-1.16,0.83-1.86,2.17-1.89,3.6l0,0
					C-830.65-225.42-829.81-224.78-828.77-225.38z"/>
			</g>
			<g id="Groupe_23379_00000170265135425187362450000015568712727778583171_" transform="translate(52.865 36.037)">
				<path id="Tracé_24754_00000111871534450260438790000005825258917715871670_" class="st2" d="M-828.77-225.39l0.59-0.34
					c1.16-0.83,1.86-2.17,1.88-3.6l0,0c0-1.38-0.84-2.02-1.88-1.42l-0.59,0.34c-1.16,0.83-1.86,2.17-1.88,3.6l0,0
					C-830.66-225.42-829.81-224.79-828.77-225.39z"/>
			</g>
			<g id="Groupe_23380_00000139275007655845928180000016987901118886482603_" transform="translate(82.855 18.723)">
				<path id="Tracé_24755_00000161634139508078820040000007770498363295359931_" class="st2" d="M-828.77-225.38l0.58-0.34
					c1.16-0.84,1.86-2.17,1.88-3.6l0,0c0-1.39-0.85-2.03-1.88-1.42l-0.58,0.33c-1.16,0.83-1.86,2.17-1.88,3.6l0,0
					C-830.66-225.42-829.81-224.78-828.77-225.38z"/>
			</g>
			<g id="Groupe_23381_00000169554755699321584290000011261849280259430314_" transform="translate(90.352 14.393)">
				<path id="Tracé_24756_00000139273459427287392960000008180544406111149240_" class="st3" d="M-828.77-225.38l0.58-0.34
					c1.16-0.84,1.85-2.17,1.88-3.6l0,0c0-1.39-0.84-2.03-1.88-1.42l-0.58,0.33c-1.16,0.83-1.86,2.17-1.89,3.6l0,0
					C-830.66-225.42-829.81-224.78-828.77-225.38z"/>
			</g>
			<g id="Groupe_23382_00000155140758769147607890000017232697532043963037_" transform="translate(7.886 71.319)">
				<path id="Tracé_24757_00000130616001337323586370000017805578569649498793_" class="st3" d="M-828.77-225.39l0.58-0.34
					c1.16-0.83,1.86-2.17,1.89-3.6l0,0c0-1.39-0.84-2.03-1.89-1.43l-0.58,0.34c-1.16,0.83-1.86,2.17-1.88,3.6l0,0
					C-830.66-225.42-829.82-224.79-828.77-225.39z"/>
			</g>
			<g id="Groupe_23383_00000096776463626651515720000004695017891306920589_" transform="translate(22.882 62.662)">
				<path id="Tracé_24758_00000057131025417714431420000015273205147356893079_" class="st2" d="M-828.78-225.39l0.59-0.33
					c1.16-0.83,1.86-2.17,1.89-3.6l0,0c0-1.39-0.84-2.03-1.89-1.43l-0.59,0.34c-1.16,0.84-1.86,2.17-1.88,3.6l0,0
					C-830.66-225.42-829.82-224.79-828.78-225.39z"/>
			</g>
			<g id="Groupe_23384_00000158733940276033162160000009253631286568943233_" transform="translate(37.87 54.005)">
				<path id="Tracé_24759_00000086650986032842811020000009244043156761311911_" class="st3" d="M-828.77-225.38l0.59-0.34
					c1.16-0.83,1.86-2.17,1.88-3.6l0,0c0-1.39-0.84-2.03-1.88-1.42l-0.59,0.33c-1.16,0.84-1.86,2.17-1.89,3.6l0,0
					C-830.66-225.42-829.81-224.78-828.77-225.38z"/>
			</g>
			<g id="Groupe_23385_00000023959657072063607710000014458641290699991990_" transform="translate(67.86 36.696)">
				<path id="Tracé_24760_00000106869321220220994270000002862331527944350641_" class="st3" d="M-828.77-225.39l0.59-0.34
					c1.16-0.83,1.86-2.17,1.88-3.6l0,0c0-1.39-0.85-2.02-1.88-1.42l-0.59,0.34c-1.16,0.83-1.86,2.17-1.88,3.6l0,0
					C-830.66-225.43-829.81-224.79-828.77-225.39z"/>
			</g>
			<g id="Groupe_23386_00000163034115225288457020000018277059209814090630_" transform="translate(75.356 32.364)">
				<path id="Tracé_24761_00000035494889173539653140000012168164623175385261_" class="st2" d="M-828.77-225.39l0.58-0.34
					c1.16-0.83,1.86-2.17,1.89-3.6l0,0c0-1.39-0.85-2.02-1.89-1.42l-0.58,0.34c-1.16,0.83-1.86,2.17-1.89,3.6l0,0
					C-830.65-225.42-829.81-224.79-828.77-225.39z"/>
			</g>
			<g id="Groupe_23387_00000158744880293093620400000004107728505025751210_" transform="translate(59.252 30.605)">
				<path id="Tracé_24762_00000113331195882206705340000001157445722832547728_" class="st1" d="M-827.66-224.28l0.58-0.34
					c1.16-0.83,1.86-2.17,1.89-3.6l0,0c0-1.39-0.84-2.03-1.89-1.43l-0.58,0.34c-1.16,0.83-1.86,2.17-1.89,3.6l0,0
					C-829.55-224.32-828.7-223.68-827.66-224.28z"/>
				<path id="Tracé_24763_00000061470585268254055550000003405219512077248652_" class="st2" d="M-829.45-223.23
					c-0.82-0.55-1.28-1.5-1.2-2.48c0.01-1.82,0.92-3.53,2.43-4.55l0.58-0.34c0.7-0.46,1.6-0.5,2.34-0.1c0.82,0.55,1.28,1.5,1.2,2.48
					c-0.01,1.83-0.92,3.53-2.44,4.55l-0.58,0.34c-0.39,0.24-0.84,0.36-1.3,0.37C-828.78-222.95-829.13-223.05-829.45-223.23z
					 M-826.53-228.69l-0.58,0.34c-0.82,0.64-1.3,1.61-1.32,2.65c0,0.35,0.08,0.53,0.04,0.54c0.07-0.02,0.13-0.04,0.19-0.08
					l0.58-0.33c0.82-0.64,1.31-1.61,1.33-2.65c0-0.32-0.06-0.49-0.16-0.49L-826.53-228.69z"/>
			</g>
			<g id="Groupe_23388_00000153681545201762449320000016875912054112280210_" transform="translate(45.365 49.681)">
				<path id="Tracé_24764_00000114752671241857306970000009356792012043723392_" class="st3" d="M-828.77-225.39l0.59-0.34
					c1.16-0.83,1.86-2.17,1.88-3.6l0,0c0-1.39-0.84-2.02-1.89-1.42l-0.59,0.34c-1.17,0.83-1.87,2.17-1.89,3.6l0,0
					C-830.65-225.42-829.81-224.79-828.77-225.39z"/>
			</g>
			<g id="Groupe_23389_00000168811566070216405510000000617899003959635357_" transform="translate(82.855 28.034)">
				<path id="Tracé_24765_00000103261475960233809110000001301883550755004564_" class="st3" d="M-828.77-225.39l0.58-0.34
					c1.16-0.84,1.86-2.17,1.88-3.6l0,0c0-1.38-0.85-2.02-1.88-1.42l-0.58,0.34c-1.16,0.83-1.86,2.17-1.88,3.6l0,0
					C-830.66-225.42-829.81-224.79-828.77-225.39z"/>
			</g>
			<g id="Groupe_23390_00000120520179399992400460000014779901750993864097_" transform="translate(96.733 18.273)">
				<path id="Tracé_24766_00000014593797293571924980000007050749724014638761_" class="st1" d="M-827.66-224.29l0.58-0.34
					c1.16-0.83,1.86-2.17,1.89-3.6l0,0c0-1.38-0.84-2.02-1.89-1.42l-0.58,0.34c-1.16,0.83-1.86,2.17-1.88,3.6l0,0
					C-829.54-224.32-828.69-223.68-827.66-224.29z"/>
				<path id="Tracé_24767_00000115495601654171821010000004920230987659972286_" class="st2" d="M-829.44-223.23
					c-0.82-0.55-1.28-1.5-1.2-2.48c0.02-1.82,0.93-3.53,2.43-4.55l0.58-0.34c0.7-0.46,1.6-0.5,2.34-0.1c0.82,0.55,1.28,1.5,1.2,2.48
					c-0.02,1.83-0.93,3.53-2.44,4.56l-0.58,0.34c-0.39,0.24-0.84,0.36-1.3,0.37C-828.77-222.95-829.13-223.04-829.44-223.23z
					 M-827.63-225.58c0.82-0.64,1.31-1.61,1.33-2.64c0-0.37-0.08-0.55-0.23-0.47l-0.59,0.34c-0.82,0.64-1.31,1.61-1.33,2.65
					c0,0.36,0.08,0.53,0.04,0.54c0.07-0.01,0.13-0.04,0.19-0.08L-827.63-225.58z"/>
			</g>
			<g id="Groupe_23391_00000157310045365254695110000012049855149235424958_" transform="translate(9.219 55.78)">
				<path id="Tracé_24768_00000110458781501506592820000002439434800148608142_" class="st2" d="M-825.49-218.77
					c0.29,0,0.57-0.02,0.86-0.06c3.83-0.5,7.47-4.26,10.81-11.18l-1.99-0.96c-3.72,7.73-7.01,9.68-9.1,9.95
					c-1.52,0.16-3.02-0.41-4.06-1.53l-1.68,1.43C-829.32-219.67-827.46-218.82-825.49-218.77z"/>
			</g>
			<g id="Groupe_23392_00000008116472972801234740000012800608496868106160_" transform="translate(69.386 21.069)">
				<path id="Tracé_24769_00000168811223459764215330000002953584276427402166_" class="st2" d="M-826.65-219.74
					c0.6,0,1.19-0.06,1.78-0.19c3.84-0.82,7.48-4.16,10.81-9.93l-1.91-1.11c-2.97,5.13-6.21,8.2-9.37,8.88
					c-1.36,0.34-2.8,0.14-4.02-0.57l-1.29,1.8C-829.46-220.1-828.07-219.71-826.65-219.74z"/>
			</g>
			<g id="Groupe_23393_00000041998856673891822090000002790692839481179568_" transform="translate(67.86 27.379)">
				<path id="Tracé_24770_00000028291889438121547980000009237938054435935117_" class="st3" d="M-828.77-225.39l0.59-0.34
					c1.16-0.83,1.86-2.17,1.88-3.6l0,0c0-1.39-0.85-2.03-1.88-1.43l-0.59,0.34c-1.16,0.83-1.86,2.17-1.88,3.6l0,0
					C-830.66-225.42-829.81-224.79-828.77-225.39z"/>
			</g>
			<g id="Groupe_23394_00000104668907212640965680000012849289678148792970_" transform="translate(6.768 60.906)">
				<path id="Tracé_24771_00000099658659749924601390000004913066281384886967_" class="st1" d="M-827.65-224.28l0.58-0.34
					c1.16-0.83,1.86-2.17,1.89-3.6l0,0c0-1.39-0.84-2.02-1.89-1.42l-0.58,0.34c-1.16,0.83-1.86,2.17-1.88,3.6l0,0
					C-829.54-224.32-828.7-223.68-827.65-224.28z"/>
				<path id="Tracé_24772_00000176732620346605424610000013792548428529206430_" class="st2" d="M-829.45-223.23
					c-0.82-0.55-1.28-1.49-1.2-2.47c0.01-1.83,0.92-3.53,2.43-4.56l0.59-0.34c0.7-0.46,1.6-0.5,2.34-0.1
					c0.82,0.55,1.28,1.5,1.2,2.48c-0.02,1.83-0.93,3.53-2.43,4.56l-0.59,0.34c-0.39,0.24-0.84,0.36-1.3,0.37
					C-828.78-222.95-829.13-223.05-829.45-223.23z M-827.63-225.57c0.82-0.64,1.31-1.61,1.33-2.64c0-0.38-0.11-0.54-0.23-0.47
					l-0.58,0.33c-0.82,0.64-1.31,1.61-1.33,2.65c0,0.35,0.08,0.53,0.04,0.54c0.07-0.02,0.13-0.04,0.19-0.08L-827.63-225.57z"/>
			</g>
			<g id="Groupe_23395_00000116206426358422691690000012747532708630233737_" transform="translate(21.765 52.248)">
				<path id="Tracé_24773_00000144311878371617040560000017561030487925447581_" class="st1" d="M-827.66-224.28l0.59-0.34
					c1.16-0.83,1.86-2.17,1.89-3.6l0,0c0-1.39-0.84-2.02-1.89-1.42l-0.59,0.34c-1.16,0.84-1.86,2.17-1.88,3.6l0,0
					C-829.54-224.32-828.7-223.68-827.66-224.28z"/>
				<path id="Tracé_24774_00000124844524391267825050000005430336828972326559_" class="st2" d="M-829.44-223.22
					c-0.82-0.55-1.28-1.5-1.2-2.48c0.02-1.83,0.92-3.53,2.43-4.56l0.58-0.34c0.7-0.46,1.6-0.5,2.34-0.1c0.82,0.55,1.28,1.5,1.2,2.48
					c-0.01,1.83-0.92,3.53-2.43,4.56l-0.58,0.33c-0.39,0.24-0.84,0.37-1.3,0.38C-828.77-222.95-829.13-223.04-829.44-223.22z
					 M-826.53-228.68l-0.58,0.33c-0.82,0.64-1.31,1.61-1.33,2.65c0,0.35,0.08,0.53,0.04,0.54c0.06-0.02,0.13-0.04,0.18-0.08
					l0.59-0.34c0.82-0.64,1.31-1.61,1.34-2.65c0-0.31-0.07-0.49-0.17-0.49L-826.53-228.68z"/>
			</g>
		</g>
		<g id="Groupe_23416_00000008146303696175287700000005377892823730601103_" transform="translate(994.651 373.115)">
			<g id="Groupe_23397_00000013901849413262205710000007507904591546292885_">
				<path id="Tracé_24775_00000098188363483328275560000006921791468383022782_" class="st1" d="M-727-201.66l-97.24,56.14
					c-2.94,1.7-5.32-0.1-5.32-4.03v-13.38c0-3.92,2.39-8.47,5.32-10.17l97.24-56.14c2.93-1.7,5.32,0.1,5.32,4.03v13.39
					C-721.68-207.9-724.06-203.35-727-201.66z"/>
				<path id="Tracé_24776_00000134930177315762945480000015071917060718931104_" class="st2" d="M-828.27-144.28
					c-1.52-0.88-2.39-2.79-2.39-5.26v-13.39c0-4.33,2.58-9.22,5.87-11.12l97.24-56.14c1.36-0.93,3.12-1.03,4.59-0.28
					c1.52,0.88,2.39,2.79,2.39,5.26v13.4c0,4.33-2.58,9.22-5.87,11.12l-97.23,56.14c-0.8,0.49-1.72,0.76-2.67,0.79
					C-827.02-143.76-827.68-143.94-828.27-144.28z M-727.55-202.61c2.59-1.49,4.77-5.71,4.77-9.21v-13.4c0-1.63-0.49-2.88-1.29-3.35
					c-0.79-0.33-1.69-0.22-2.38,0.28l-97.24,56.14c-2.59,1.49-4.77,5.71-4.77,9.21v13.39c0,1.63,0.48,2.89,1.29,3.35
					c0.79,0.33,1.69,0.22,2.38-0.28L-727.55-202.61L-727.55-202.61z"/>
			</g>
			<g id="Groupe_23398_00000173868335757490461140000004844030846191238319_" transform="translate(44.257 39.263)">
				<path id="Tracé_24777_00000122684488250366369440000017072787111296476072_" class="st1" d="M-827.66-224.28l0.59-0.34
					c1.16-0.83,1.86-2.17,1.88-3.6l0,0c0-1.38-0.84-2.02-1.89-1.42l-0.59,0.34c-1.16,0.83-1.86,2.17-1.89,3.6l0,0
					C-829.55-224.32-828.7-223.68-827.66-224.28z"/>
				<path id="Tracé_24778_00000149341507315175441930000018354245649147081856_" class="st2" d="M-829.44-223.23
					c-0.82-0.55-1.28-1.5-1.2-2.48c0.02-1.82,0.92-3.53,2.43-4.56l0.59-0.34c0.7-0.46,1.6-0.5,2.34-0.1c0.82,0.55,1.28,1.5,1.2,2.48
					c-0.02,1.82-0.92,3.53-2.43,4.56l-0.59,0.34c-0.39,0.24-0.84,0.36-1.3,0.37C-828.77-222.95-829.13-223.05-829.44-223.23z
					 M-827.62-225.58c0.82-0.64,1.31-1.61,1.33-2.65c0-0.37-0.08-0.55-0.23-0.47l-0.59,0.34c-0.81,0.64-1.3,1.61-1.33,2.64
					c0,0.35,0.08,0.54,0.04,0.55c0.07-0.02,0.13-0.04,0.19-0.08L-827.62-225.58z"/>
			</g>
			<g id="Groupe_23399_00000106123731706160157160000004565455089805740959_" transform="translate(52.865 36.036)">
				<path id="Tracé_24779_00000144323317323132141410000012426809159834286268_" class="st2" d="M-828.77-225.39l0.59-0.34
					c1.16-0.83,1.86-2.17,1.88-3.6l0,0c0-1.38-0.84-2.02-1.88-1.42l-0.59,0.34c-1.16,0.83-1.86,2.17-1.88,3.6l0,0
					C-830.66-225.42-829.81-224.79-828.77-225.39z"/>
			</g>
			<g id="Groupe_23400_00000177470412676270755360000002514135359202599823_" transform="translate(74.248 21.95)">
				<path id="Tracé_24780_00000040554013092465918220000002165846018740426653_" class="st1" d="M-827.66-224.29l0.58-0.34
					c1.16-0.83,1.86-2.17,1.89-3.6l0,0c0-1.39-0.85-2.03-1.89-1.43l-0.58,0.34c-1.16,0.83-1.86,2.17-1.89,3.6l0,0
					C-829.54-224.32-828.7-223.68-827.66-224.29z"/>
				<path id="Tracé_24781_00000150817297394155666000000010406267717204544393_" class="st2" d="M-829.44-223.23
					c-0.82-0.55-1.28-1.5-1.2-2.48c0.02-1.83,0.92-3.53,2.43-4.56l0.58-0.33c0.7-0.46,1.6-0.5,2.34-0.1c0.82,0.55,1.28,1.5,1.2,2.48
					c-0.02,1.82-0.93,3.53-2.43,4.55l-0.58,0.34c-0.4,0.24-0.85,0.37-1.31,0.38C-828.78-222.95-829.13-223.05-829.44-223.23z
					 M-827.63-225.58c0.82-0.64,1.31-1.61,1.33-2.64c0-0.38-0.1-0.55-0.23-0.47l-0.58,0.34c-0.82,0.64-1.31,1.61-1.33,2.65
					c0,0.36,0.08,0.54,0.04,0.55c0.06-0.01,0.13-0.04,0.18-0.07L-827.63-225.58z"/>
			</g>
			<g id="Groupe_23401_00000044135342731628313790000003451069731468999824_" transform="translate(82.855 18.723)">
				<path id="Tracé_24782_00000128446238563491756140000017505148026524508839_" class="st2" d="M-828.77-225.39l0.58-0.33
					c1.16-0.84,1.86-2.17,1.88-3.6l0,0c0-1.39-0.85-2.03-1.88-1.43l-0.58,0.34c-1.16,0.83-1.86,2.17-1.88,3.6l0,0
					C-830.66-225.42-829.81-224.78-828.77-225.39z"/>
			</g>
			<g id="Groupe_23402_00000034051767937199451990000009471723705363226815_" transform="translate(90.352 14.394)">
				<path id="Tracé_24783_00000146493003798532692250000002481321758898837661_" class="st3" d="M-828.77-225.38l0.58-0.34
					c1.16-0.84,1.85-2.17,1.88-3.6l0,0c0-1.39-0.84-2.03-1.88-1.42l-0.58,0.33c-1.16,0.83-1.86,2.17-1.89,3.6l0,0
					C-830.66-225.42-829.81-224.78-828.77-225.38z"/>
			</g>
			<g id="Groupe_23403_00000091703197993458570220000007386992958593277869_" transform="translate(96.733 8.967)">
				<path id="Tracé_24784_00000143589750474723383210000000612294233230350259_" class="st1" d="M-827.66-224.29l0.58-0.34
					c1.16-0.83,1.86-2.17,1.89-3.6l0,0c0-1.39-0.84-2.03-1.89-1.42l-0.58,0.34c-1.16,0.83-1.86,2.17-1.88,3.6l0,0
					C-829.54-224.32-828.69-223.68-827.66-224.29z"/>
				<path id="Tracé_24785_00000124840363567426728580000012654459440308552836_" class="st2" d="M-829.44-223.23
					c-0.82-0.55-1.28-1.5-1.2-2.48c0.02-1.83,0.93-3.53,2.44-4.56l0.58-0.33c0.7-0.46,1.6-0.5,2.34-0.1c0.82,0.55,1.28,1.5,1.2,2.48
					c-0.02,1.83-0.93,3.53-2.44,4.55l-0.58,0.34c-0.39,0.24-0.84,0.36-1.3,0.37C-828.77-222.96-829.13-223.05-829.44-223.23z
					 M-827.63-225.58c0.82-0.64,1.31-1.61,1.33-2.65c0-0.38-0.11-0.55-0.23-0.47l-0.59,0.33c-0.82,0.64-1.31,1.61-1.33,2.64
					c0,0.36,0.08,0.54,0.04,0.55c0.07-0.02,0.13-0.04,0.19-0.08L-827.63-225.58z"/>
			</g>
			<g id="Groupe_23404_00000031182963824643092820000002721077608432185223_" transform="translate(45.365 49.675)">
				<path id="Tracé_24786_00000003099175042004619020000009984643239665997726_" class="st3" d="M-828.77-225.38l0.59-0.34
					c1.16-0.83,1.86-2.17,1.88-3.6l0,0c0-1.39-0.84-2.03-1.89-1.42l-0.59,0.33c-1.16,0.83-1.86,2.17-1.89,3.6l0,0
					C-830.65-225.42-829.81-224.78-828.77-225.38z"/>
			</g>
			<g id="Groupe_23405_00000014597029623251847500000003451624198755427993_" transform="translate(59.252 39.917)">
				<path id="Tracé_24787_00000005260772483547518510000007023708649971005335_" class="st1" d="M-827.66-224.28l0.58-0.34
					c1.16-0.83,1.86-2.17,1.89-3.6l0,0c0-1.39-0.84-2.02-1.89-1.42l-0.58,0.34c-1.16,0.83-1.86,2.17-1.89,3.6l0,0
					C-829.55-224.32-828.7-223.68-827.66-224.28z"/>
				<path id="Tracé_24788_00000072965541947907057540000009918011015093881995_" class="st2" d="M-829.45-223.23
					c-0.82-0.55-1.28-1.5-1.2-2.48c0.01-1.82,0.92-3.53,2.43-4.55l0.58-0.34c0.7-0.46,1.6-0.5,2.34-0.1c0.82,0.55,1.28,1.5,1.2,2.48
					c-0.01,1.83-0.92,3.53-2.43,4.55l-0.58,0.34c-0.39,0.24-0.84,0.36-1.3,0.37C-828.78-222.95-829.13-223.05-829.45-223.23z
					 M-827.63-225.58c0.82-0.64,1.31-1.61,1.33-2.64c0-0.38-0.11-0.55-0.23-0.47l-0.59,0.33c-0.81,0.64-1.3,1.61-1.32,2.64
					c0,0.36,0.08,0.54,0.04,0.55c0.07-0.01,0.13-0.04,0.19-0.07L-827.63-225.58z"/>
			</g>
			<g id="Groupe_23406_00000123424419823057732540000001413846663855477410_" transform="translate(67.86 36.692)">
				<path id="Tracé_24789_00000160893201359587499890000006485613636688355459_" class="st3" d="M-828.77-225.39l0.59-0.34
					c1.16-0.83,1.86-2.17,1.88-3.6l0,0c0-1.39-0.85-2.02-1.88-1.42l-0.59,0.34c-1.16,0.83-1.86,2.17-1.88,3.6l0,0
					C-830.66-225.42-829.81-224.79-828.77-225.39z"/>
			</g>
			<g id="Groupe_23407_00000044884117315515413260000014322527343365482397_" transform="translate(31.35 51.789)">
				<path id="Tracé_24790_00000131328541361277219060000007785961787718948260_" class="st2" d="M-826.58-222.53
					c1.46,0,3.21-0.81,5.3-2.45l-1.36-1.74c-2.07,1.62-3.74,2.29-4.57,1.82c-1.19-0.67-1.39-3.86-1.16-5.8l-2.19-0.27
					c-0.08,0.64-0.68,6.33,2.26,7.99C-827.77-222.68-827.18-222.53-826.58-222.53z"/>
			</g>
			<g id="Groupe_23408_00000175314761498017768800000011347661654865251502_" transform="translate(69.083 29.729)">
				<path id="Tracé_24791_00000160152501382703605200000000458719692246765441_" class="st2" d="M-822.53-224.94
					c2.76,0,5.64-1.34,8.56-4.01l-1.48-1.63c-2.87,2.6-5.56,3.74-8.03,3.36c-2.19-0.49-4.09-1.84-5.27-3.75l-1.91,1.1
					c1.5,2.49,3.98,4.23,6.82,4.82C-823.4-224.98-822.97-224.94-822.53-224.94z"/>
			</g>
			<g id="Groupe_23409_00000101074663657764601330000003970021661522572182_" transform="translate(9.856 64.908)">
				<path id="Tracé_24792_00000090973107397626653020000005657923717231521955_" class="st2" d="M-829.49-220.49
					c2.52,0,8.72-0.94,14.91-9.16l-1.77-1.32c-6.98,9.27-13.65,8.29-13.92,8.23l-0.39,2.18
					C-830.27-220.51-829.88-220.48-829.49-220.49z"/>
			</g>
			<g id="Groupe_23410_00000035520077892541673820000016235510805269704835_" transform="translate(30.372 49.025)">
				<path id="Tracé_24793_00000087401984072285996240000004333374661250410427_" class="st3" d="M-828.77-225.39l0.59-0.34
					c1.16-0.83,1.86-2.17,1.89-3.6l0,0c0-1.39-0.84-2.02-1.89-1.42l-0.59,0.34c-1.16,0.83-1.86,2.17-1.89,3.6l0,0
					C-830.66-225.43-829.81-224.79-828.77-225.39z"/>
			</g>
			<g id="Groupe_23411_00000141448766852242097520000007973688554338228927_" transform="translate(66.751 26.276)">
				<path id="Tracé_24794_00000085962001712150969230000011249276811624095163_" class="st1" d="M-827.66-224.28l0.59-0.34
					c1.16-0.83,1.86-2.17,1.88-3.6l0,0c0-1.39-0.85-2.03-1.88-1.43l-0.59,0.34c-1.16,0.83-1.86,2.17-1.88,3.6l0,0
					C-829.55-224.32-828.71-223.68-827.66-224.28z"/>
				<path id="Tracé_24795_00000140014838954176540830000012566122029065330322_" class="st2" d="M-829.45-223.23
					c-0.82-0.55-1.28-1.5-1.2-2.48c0.01-1.82,0.92-3.53,2.43-4.55l0.59-0.34c0.7-0.46,1.6-0.49,2.33-0.09
					c0.82,0.55,1.28,1.5,1.2,2.48c-0.01,1.82-0.92,3.52-2.43,4.55l-0.58,0.34c-0.39,0.24-0.84,0.36-1.3,0.37
					C-828.78-222.95-829.13-223.05-829.45-223.23z M-827.63-225.58c0.81-0.64,1.3-1.6,1.32-2.64c0-0.38-0.1-0.55-0.22-0.47
					l-0.58,0.34c-0.82,0.64-1.31,1.61-1.33,2.65c0,0.36,0.08,0.54,0.04,0.55c0.07-0.01,0.13-0.04,0.19-0.08L-827.63-225.58z"/>
			</g>
			<g id="Groupe_23412_00000036935878308222332360000010951758200688237701_" transform="translate(7.886 71.318)">
				<path id="Tracé_24796_00000036967279152064835140000012109983884037969327_" class="st3" d="M-828.77-225.39l0.58-0.34
					c1.16-0.83,1.86-2.17,1.89-3.6l0,0c0-1.38-0.84-2.02-1.89-1.42l-0.58,0.34c-1.16,0.83-1.86,2.17-1.88,3.6l0,0
					C-830.66-225.42-829.82-224.78-828.77-225.39z"/>
			</g>
			<g id="Groupe_23413_00000012434306860793620460000017941623655277653899_" transform="translate(22.882 62.66)">
				<path id="Tracé_24797_00000044144713588341976880000016124965720732649103_" class="st2" d="M-828.78-225.39l0.59-0.34
					c1.17-0.83,1.87-2.17,1.89-3.6l0,0c0-1.39-0.84-2.03-1.89-1.43l-0.59,0.34c-1.16,0.84-1.86,2.17-1.88,3.6l0,0
					C-830.66-225.42-829.82-224.79-828.78-225.39z"/>
			</g>
			<g id="Groupe_23414_00000097461639628947203180000017491175710700023992_" transform="translate(37.87 54.003)">
				<path id="Tracé_24798_00000178203547767241529120000005854305798356964776_" class="st3" d="M-828.77-225.38l0.59-0.34
					c1.16-0.83,1.86-2.17,1.88-3.6l0,0c0-1.39-0.84-2.03-1.88-1.43l-0.59,0.34c-1.16,0.84-1.86,2.17-1.89,3.6l0,0
					C-830.66-225.42-829.81-224.78-828.77-225.38z"/>
			</g>
			<g id="Groupe_23415_00000000924398084636624060000009298416419683112891_" transform="translate(82.855 28.035)">
				<path id="Tracé_24799_00000095326187320909188960000010476995154644350370_" class="st3" d="M-828.77-225.39l0.58-0.34
					c1.16-0.84,1.86-2.17,1.88-3.6l0,0c0-1.39-0.85-2.02-1.88-1.42l-0.58,0.34c-1.16,0.83-1.86,2.17-1.88,3.6l0,0
					C-830.66-225.42-829.81-224.79-828.77-225.39z"/>
			</g>
		</g>
		<g id="Groupe_23423_00000127749232988998679490000014569549925801657488_" transform="translate(994.651 448.777)">
			<g id="Groupe_23417_00000041991994115428876110000002050280221221075105_">
				<path id="Tracé_24800_00000150071645618941939480000012469749640723049111_" class="st1" d="M-824.24-145.51l97.24-56.14
					c2.93-1.7,5.32-6.25,5.32-10.17v-13.39c0-3.92-2.39-5.72-5.32-4.02l-97.24,56.14c-2.94,1.7-5.32,6.25-5.32,10.17v13.39
					C-829.56-145.62-827.17-143.82-824.24-145.51z"/>
				<path id="Tracé_24801_00000115489054336155830730000000831873815529247165_" class="st2" d="M-828.27-144.27
					c-1.52-0.88-2.39-2.8-2.39-5.26v-13.4c0-4.34,2.58-9.22,5.87-11.13l97.24-56.14c1.36-0.93,3.12-1.04,4.59-0.28
					c1.52,0.88,2.39,2.8,2.39,5.26v13.39c0,4.34-2.58,9.22-5.87,11.12l-97.23,56.14c-0.8,0.49-1.72,0.76-2.67,0.79
					C-827.02-143.76-827.68-143.94-828.27-144.27z M-726.44-228.28l-97.23,56.14c-2.59,1.49-4.77,5.71-4.77,9.21v13.39
					c0,1.63,0.48,2.88,1.29,3.35c0.79,0.33,1.69,0.23,2.38-0.28l97.24-56.14c2.59-1.49,4.77-5.71,4.77-9.21v-13.39
					c0-1.63-0.49-2.88-1.29-3.35c-0.25-0.14-0.53-0.22-0.82-0.21C-725.44-228.74-725.97-228.57-726.44-228.28L-726.44-228.28z"/>
			</g>
			<g id="Groupe_23418_00000097475852003389135890000004862503303445254544_" transform="translate(100.459 7.992)">
				<path id="Tracé_24802_00000128451358824254502810000004665463630583345046_" class="st2" d="M-828.68-226.77l-0.47,0.27
					c-0.83,0.48-1.51-0.03-1.51-1.14l0,0c0.02-1.14,0.58-2.21,1.51-2.88l0.47-0.27c0.83-0.48,1.51,0.03,1.51,1.14l0,0
					C-827.2-228.51-827.75-227.44-828.68-226.77z"/>
			</g>
			<g id="Groupe_23419_00000038375846934176516280000017663497555378734730_" transform="translate(100.459 20.32)">
				<path id="Tracé_24803_00000088811222810210240680000013911444309750517178_" class="st2" d="M-828.68-226.77l-0.47,0.27
					c-0.83,0.48-1.51-0.03-1.51-1.14l0,0c0.02-1.14,0.58-2.21,1.51-2.88l0.47-0.27c0.83-0.48,1.51,0.03,1.51,1.14l0,0
					C-827.19-228.51-827.75-227.44-828.68-226.77z"/>
			</g>
			<g id="Groupe_23420_00000111881007006227633060000012747086342436485514_" transform="translate(6.575 62.086)">
				<path id="Tracé_24804_00000171681881428843541430000008653608586781612440_" class="st2" d="M-828.68-226.77l-0.47,0.27
					c-0.83,0.48-1.51-0.03-1.51-1.14l0,0c0.02-1.15,0.58-2.21,1.51-2.88l0.47-0.27c0.83-0.48,1.51,0.03,1.51,1.14l0,0
					C-827.2-228.51-827.75-227.44-828.68-226.77z"/>
			</g>
			<g id="Groupe_23421_00000038372211147163834800000003532591738142200479_" transform="translate(6.575 74.414)">
				<path id="Tracé_24805_00000044859332316482604990000017747197513097181326_" class="st2" d="M-828.68-226.77l-0.47,0.27
					c-0.83,0.48-1.51-0.03-1.51-1.14l0,0c0.02-1.15,0.58-2.21,1.51-2.88l0.47-0.27c0.83-0.48,1.51,0.02,1.51,1.14l0,0
					C-827.19-228.51-827.75-227.44-828.68-226.77z"/>
			</g>
			<g id="Groupe_23422_00000140016740453731721720000004549302741401236401_" transform="translate(14.827 19.277)">
				
					<rect id="Rectangle_8317_00000152247109631166020790000013502948934612331685_" x="-836.29" y="-208" transform="matrix(0.866 -0.5 0.5 0.866 -2.3977 -422.7417)" class="st2" width="92.53" height="2.21"/>
			</g>
		</g>
		<g id="Groupe_23423-2_00000002376140766252986290000002608712672820204960_" transform="translate(994.651 680.439)">
			<g id="Groupe_23417-2_00000078756861116664190520000017310535569345554827_">
				<path id="Tracé_24800-2_00000077316414781179794660000003554220657217755809_" class="st1" d="M-824.24-145.51l97.24-56.14
					c2.93-1.7,5.32-6.25,5.32-10.17v-13.39c0-3.92-2.39-5.72-5.32-4.02l-97.24,56.14c-2.94,1.7-5.32,6.25-5.32,10.17v13.39
					C-829.56-145.62-827.17-143.82-824.24-145.51z"/>
				<path id="Tracé_24801-2_00000101781620814325605710000015670718580891541405_" class="st2" d="M-828.27-144.27
					c-1.52-0.88-2.39-2.8-2.39-5.26v-13.4c0-4.34,2.58-9.22,5.87-11.13l97.24-56.14c1.36-0.93,3.12-1.04,4.59-0.28
					c1.52,0.88,2.39,2.8,2.39,5.26v13.39c0,4.34-2.58,9.22-5.87,11.12l-97.23,56.14c-0.8,0.49-1.72,0.76-2.67,0.79
					C-827.02-143.76-827.68-143.94-828.27-144.27z M-726.44-228.28l-97.23,56.14c-2.59,1.49-4.77,5.71-4.77,9.21v13.39
					c0,1.63,0.48,2.88,1.29,3.35c0.79,0.33,1.69,0.23,2.38-0.28l97.24-56.14c2.59-1.49,4.77-5.71,4.77-9.21v-13.39
					c0-1.63-0.49-2.88-1.29-3.35c-0.25-0.14-0.53-0.22-0.82-0.21C-725.44-228.74-725.97-228.57-726.44-228.28L-726.44-228.28z"/>
			</g>
			<g id="Groupe_23418-2_00000148621677407725191970000013416276996872338092_" transform="translate(100.459 7.992)">
				<path id="Tracé_24802-2_00000093170626074365117530000008503960903144263850_" class="st2" d="M-828.68-226.77l-0.47,0.27
					c-0.83,0.48-1.51-0.03-1.51-1.14l0,0c0.02-1.14,0.58-2.21,1.51-2.88l0.47-0.27c0.83-0.48,1.51,0.03,1.51,1.14l0,0
					C-827.2-228.51-827.75-227.44-828.68-226.77z"/>
			</g>
			<g id="Groupe_23419-2_00000103245262281118238890000005889836441393699218_" transform="translate(100.459 20.32)">
				<path id="Tracé_24803-2_00000164515802160730860430000006070317323924785538_" class="st2" d="M-828.68-226.77l-0.47,0.27
					c-0.83,0.48-1.51-0.03-1.51-1.14l0,0c0.02-1.14,0.58-2.21,1.51-2.88l0.47-0.27c0.83-0.48,1.51,0.03,1.51,1.14l0,0
					C-827.19-228.51-827.75-227.44-828.68-226.77z"/>
			</g>
			<g id="Groupe_23420-2_00000050662606427967292580000018031186578823717801_" transform="translate(6.575 62.086)">
				<path id="Tracé_24804-2_00000175290637423639200540000014053558709336379571_" class="st2" d="M-828.68-226.77l-0.47,0.27
					c-0.83,0.48-1.51-0.03-1.51-1.14l0,0c0.02-1.15,0.58-2.21,1.51-2.88l0.47-0.27c0.83-0.48,1.51,0.03,1.51,1.14l0,0
					C-827.19-228.51-827.75-227.44-828.68-226.77z"/>
			</g>
			<g id="Groupe_23421-2_00000058566986951160025870000009426481994506550404_" transform="translate(6.575 74.414)">
				<path id="Tracé_24805-2_00000014619252941768472580000011824584145572083871_" class="st2" d="M-828.68-226.77l-0.47,0.27
					c-0.83,0.48-1.51-0.03-1.51-1.14l0,0c0.02-1.15,0.58-2.21,1.51-2.88l0.47-0.27c0.83-0.48,1.51,0.02,1.51,1.14l0,0
					C-827.19-228.51-827.75-227.44-828.68-226.77z"/>
			</g>
			<g id="Groupe_23422-2_00000000912568760318967640000006186839977286903961_" transform="translate(14.827 19.277)">
				
					<rect id="Rectangle_8317-2_00000024722190504718071320000010033147184800268441_" x="-836.29" y="-208" transform="matrix(0.866 -0.5 0.5 0.866 -2.3977 -422.7417)" class="st2" width="92.53" height="2.21"/>
			</g>
		</g>
		<path class="st2" d="M153.4,777.44V597.11v-84.39v-63.61v-122.4v-148c0-11.82-7.18-25.55-16.05-30.66L17.34,78.76
			C8.47,73.64,1.29,79.07,1.29,90.89v148v186v24.21v148v186l0,0v25.53c0,11.82,7.18,25.55,16.05,30.66l120.01,69.29
			c8.86,5.12,16.05-0.32,16.05-12.14V777.44L153.4,777.44z"/>
		<path class="st2" d="M156.4,806.63h0.05v-54V711.2v-33.56V657.2v-33.56V582.2v-11.56V528.2v-11.56V475.2v-11.56V421.2v-11.56
			V368.2v-21.56V314.2v-52.22V251.2v-69.48c0-12.67-7.51-26.92-17.08-32.45L19.36,79.98c-4.52-2.61-8.98-2.91-12.55-0.84
			c-4.18,2.41-6.58,7.79-6.58,14.75v168.09l0,0v51.51v21.41v46.04v27.99v33.16v34.29v13.71v25.38v22.05v25.95v22.05v3.97v21.41
			v26.59v19.45v1.96v26.03v20.01v27.99v19.45v46.05H0.17l0.01,9.29c0.01,12.66,7.53,26.91,17.11,32.43l120.08,69.17
			c2.23,1.37,4.79,2.13,7.41,2.19c1.8,0.01,3.58-0.46,5.14-1.36c4.18-2.42,6.57-7.8,6.56-14.76L156.4,806.63z M147.87,906.59
			L147.87,906.59c-2.28,1.32-5.2,1.03-8.45-0.83L19.35,836.59c-8.29-4.78-15.04-17.73-15.05-28.88l-0.01-7.33h0.06v-48v-19.45
			v-27.99v-20.01V658.9v-1.96v-19.45V610.9v-21.41v-3.97v-22.05v-25.95v-22.05v-25.38v-13.71v-34.29v-33.16v-27.99V334.9v-21.41
			v-51.97v-22.05v-73.38l0,0V93.9c0-5.46,1.65-9.54,4.52-11.2c0.95-0.54,2.02-0.82,3.11-0.81c1.89,0.08,3.73,0.65,5.34,1.66
			l120.01,69.29c8.28,4.78,15.02,17.74,15.02,28.89V262l0,0v52.22v32.44v21.56v41.44v11.56v42.44v11.56v41.44v11.56v42.44v11.56
			v41.44v33.56v20.44v33.56v41.44v45.64h-0.06l0.09,97.11C152.39,900.84,150.75,904.93,147.87,906.59z"/>
		<g id="Groupe_23305_00000088129769231908703210000000483462359500174724_" transform="translate(846.852 371.356)">
			<g id="Groupe_23284_00000085945995817204919470000010079025620152843927_">
				<path id="Tracé_24627_00000112595047863519096450000007536922085912542359_" class="st2" d="M-821.35-79.65l105.68,61.02
					c4.49,2.59,8.13-0.16,8.13-6.14v-148.5c0-5.99-3.64-12.94-8.13-15.53l-105.68-61.02c-4.49-2.59-8.13,0.16-8.13,6.14v148.49
					C-829.48-89.2-825.84-82.24-821.35-79.65z"/>
				<path id="Tracé_24628_00000000902259325273823930000012520243562929881508_" class="st1" d="M-716.25-17.61l-105.68-61.01
					c-4.89-2.82-8.72-10.09-8.72-16.55v-148.5c0-3.58,1.23-6.35,3.4-7.6c1.85-1.07,4.16-0.92,6.49,0.43l105.69,61.02
					c4.89,2.82,8.72,10.09,8.72,16.55v148.5c0,3.58-1.23,6.35-3.4,7.6c-0.81,0.47-1.74,0.71-2.68,0.7
					C-713.79-16.51-715.1-16.9-716.25-17.61z M-826.07-249.21c-1.41,0.81-2.22,2.84-2.22,5.55v148.49c0,5.6,3.38,12.1,7.53,14.5
					l105.68,61.02c1.2,0.87,2.78,1.03,4.14,0.43c1.41-0.81,2.22-2.84,2.22-5.55v-148.5c0-5.6-3.38-12.1-7.53-14.5l-105.68-61.02
					c-0.79-0.5-1.7-0.78-2.63-0.82C-825.1-249.61-825.62-249.48-826.07-249.21z"/>
			</g>
			<g id="Groupe_23285_00000180343111243791449920000012791854231188634557_" transform="translate(14.708 31.03)">
				<path id="Tracé_24629_00000089532887188788055330000005638413773447399583_" class="st2" d="M-823.92-233.15l80.18,46.29
					c3.07,1.78,5.56-0.11,5.56-4.2v-2.16c0-4.1-2.49-8.85-5.56-10.62l-80.18-46.29c-3.07-1.77-5.56,0.11-5.56,4.2v2.16
					C-829.48-239.68-826.99-234.92-823.92-233.15z"/>
				<path id="Tracé_24630_00000095298613782098404380000010128899796061889938_" class="st1" d="M-744.33-185.83l-80.18-46.3
					c-3.45-1.99-6.15-7.11-6.15-11.65v-2.15c0-2.59,0.91-4.6,2.51-5.52c1.54-0.79,3.39-0.68,4.82,0.3l80.18,46.29
					c3.45,1.99,6.15,7.11,6.15,11.65v2.16c0,2.58-0.92,4.6-2.51,5.52c-0.61,0.35-1.31,0.54-2.02,0.54
					C-742.52-185.03-743.48-185.31-744.33-185.83z M-826.96-249.4c-0.83,0.48-1.32,1.78-1.32,3.47v2.15c0,3.65,2.27,8.05,4.97,9.6
					l80.17,46.3c0.71,0.52,1.64,0.63,2.45,0.29c0.84-0.48,1.33-1.78,1.33-3.47v-2.16c0-3.65-2.28-8.04-4.97-9.6l-80.18-46.29
					c-0.48-0.31-1.04-0.48-1.61-0.51C-826.42-249.62-826.71-249.54-826.96-249.4L-826.96-249.4z"/>
			</g>
			<g id="Groupe_23286_00000015323164351067726700000009466803026211069315_" transform="translate(14.708 59.321)">
				<path id="Tracé_24631_00000160890934597601819410000005633959154115490961_" class="st2" d="M-823.92-233.14l80.18,46.29
					c3.07,1.77,5.56-0.11,5.56-4.2v-2.15c0-4.09-2.49-8.85-5.56-10.62l-80.18-46.29c-3.07-1.78-5.56,0.11-5.56,4.2v2.16
					C-829.48-239.67-826.99-234.91-823.92-233.14z"/>
				<path id="Tracé_24632_00000049903719422601957490000018149898268991649202_" class="st1" d="M-744.33-185.83l-80.18-46.29
					c-3.45-1.99-6.15-7.11-6.15-11.65v-2.16c0-2.58,0.91-4.6,2.51-5.52c1.54-0.8,3.39-0.69,4.82,0.29l80.18,46.29
					c3.45,1.99,6.15,7.11,6.15,11.65v2.15c0,2.59-0.92,4.6-2.51,5.52c-0.61,0.35-1.31,0.54-2.02,0.54
					C-742.52-185.03-743.48-185.31-744.33-185.83z M-826.96-249.39c-0.83,0.48-1.32,1.78-1.32,3.47v2.16c0,3.65,2.27,8.04,4.97,9.6
					l80.17,46.29c0.71,0.52,1.64,0.63,2.45,0.29c0.84-0.48,1.33-1.78,1.33-3.47v-2.15c0-3.65-2.28-8.04-4.97-9.6l-80.18-46.29
					c-0.49-0.3-1.04-0.47-1.61-0.51C-826.42-249.61-826.71-249.53-826.96-249.39L-826.96-249.39z"/>
			</g>
			<g id="Groupe_23287_00000180343774574830362620000003494312765837313414_" transform="translate(14.708 87.278)">
				<path id="Tracé_24633_00000172419639058920639860000002376716890773014176_" class="st2" d="M-823.92-184.68l80.18,46.29
					c3.07,1.77,5.56-0.11,5.56-4.2v-50.62c0-4.1-2.49-8.85-5.56-10.63l-80.18-46.29c-3.07-1.78-5.56,0.11-5.56,4.2v50.63
					C-829.48-191.21-826.99-186.45-823.92-184.68z"/>
				<path id="Tracé_24634_00000100362740183263730720000000470341021006937007_" class="st1" d="M-744.33-137.37l-80.18-46.29
					c-3.45-1.99-6.15-7.11-6.15-11.65v-50.62c0-2.58,0.91-4.6,2.51-5.52c1.54-0.8,3.39-0.68,4.82,0.29l80.18,46.29
					c3.45,1.99,6.15,7.11,6.15,11.65v50.62c0,2.59-0.92,4.6-2.51,5.52c-0.61,0.35-1.31,0.54-2.02,0.53
					C-742.52-136.57-743.48-136.85-744.33-137.37z M-826.97-249.4c-0.83,0.48-1.32,1.78-1.32,3.47v50.63c0,3.65,2.27,8.04,4.97,9.6
					l80.18,46.29c0.71,0.52,1.64,0.63,2.46,0.29c0.84-0.48,1.33-1.78,1.33-3.47v-50.62c0-3.65-2.28-8.04-4.97-9.6l-80.18-46.29
					c-0.49-0.3-1.04-0.48-1.61-0.51C-826.41-249.62-826.71-249.55-826.97-249.4z"/>
			</g>
			<g id="Groupe_23288_00000049907555152417291910000007114558345902021267_" transform="translate(94.488 81.05)">
				<path id="Tracé_24635_00000162329579609626838000000010660203341482327981_" class="st2" d="M-827.19-244.46l0.7,0.4
					c1.26,0.72,2.27-0.04,2.27-1.72l0,0c-0.03-1.72-0.87-3.33-2.27-4.34l-0.7-0.41c-1.26-0.72-2.27,0.04-2.27,1.72l0,0
					C-829.44-247.08-828.6-245.47-827.19-244.46z"/>
				<path id="Tracé_24636_00000099637433771927653000000008632969906803230624_" class="st1" d="M-827.08-243.03l-0.7-0.41
					c-1.78-1.21-2.85-3.21-2.86-5.36c-0.09-1.13,0.43-2.23,1.38-2.86c0.84-0.45,1.87-0.41,2.67,0.12l0.7,0.4
					c1.78,1.21,2.85,3.21,2.87,5.36c0.09,1.13-0.44,2.23-1.38,2.86c-0.36,0.21-0.76,0.31-1.17,0.31
					C-826.11-242.61-826.63-242.76-827.08-243.03z M-828.28-248.8c0.03,1.3,0.65,2.52,1.68,3.31l0.7,0.41
					c0.09,0.06,0.19,0.1,0.3,0.12c0.16-0.24,0.24-0.53,0.2-0.81c-0.03-1.3-0.65-2.52-1.68-3.31l-0.7-0.41
					c-0.09-0.06-0.19-0.1-0.3-0.12C-828.12-249.58-828.27-249.36-828.28-248.8L-828.28-248.8z"/>
			</g>
			<g id="Groupe_23289_00000000928115995202003930000015943306010569091724_" transform="translate(86.643 77.011)">
				<path id="Tracé_24637_00000094592180210381752240000016056844233105755825_" class="st1" d="M-828.39-245.64l0.7,0.41
					c1.26,0.72,2.27-0.04,2.27-1.72l0,0c-0.03-1.72-0.87-3.33-2.27-4.34l-0.7-0.41c-1.26-0.72-2.27,0.04-2.27,1.72l0,0
					C-830.63-248.26-829.79-246.65-828.39-245.64z"/>
			</g>
			<g id="Groupe_23290_00000023260398612326960460000001786829140825698945_" transform="translate(31.215 73.311)">
				<path id="Tracé_24638_00000104695695179110080560000011656170770363122857_" class="st1" d="M-828.39-245.65l0.7,0.41
					c1.26,0.72,2.27-0.04,2.27-1.72l0,0c-0.03-1.72-0.87-3.33-2.27-4.34l-0.7-0.41c-1.26-0.72-2.27,0.04-2.27,1.72l0,0
					C-830.63-248.26-829.79-246.65-828.39-245.65z"/>
			</g>
			<g id="Groupe_23291_00000021086479658478439070000004207753084733684901_" transform="translate(30.025 43.832)">
				<path id="Tracé_24639_00000134249476951814472060000017051853906452463001_" class="st2" d="M-827.2-244.46l0.7,0.41
					c1.26,0.72,2.27-0.04,2.27-1.72l0,0c-0.03-1.72-0.87-3.33-2.27-4.34l-0.7-0.41c-1.26-0.72-2.27,0.04-2.27,1.72l0,0
					C-829.44-247.08-828.6-245.47-827.2-244.46z"/>
				<path id="Tracé_24640_00000015316535493850480770000017287314919371582626_" class="st1" d="M-827.09-243.03l-0.7-0.41
					c-1.78-1.21-2.85-3.21-2.86-5.36c-0.09-1.13,0.43-2.23,1.37-2.86c0.84-0.45,1.87-0.41,2.67,0.12l0.7,0.41
					c1.78,1.21,2.85,3.21,2.86,5.36c0.09,1.13-0.43,2.23-1.37,2.86c-0.36,0.21-0.76,0.31-1.17,0.31
					C-826.12-242.61-826.63-242.76-827.09-243.03z M-828.29-248.8c0.03,1.3,0.64,2.52,1.67,3.31l0.7,0.41
					c0.17,0.17,0.45,0.16,0.61-0.01c0.17-0.17,0.16-0.45-0.01-0.61c-0.03-0.03-0.06-0.05-0.1-0.07c-0.03-1.3-0.64-2.52-1.68-3.31
					l-0.7-0.41c-0.09-0.06-0.19-0.1-0.3-0.12C-828.13-249.59-828.28-249.36-828.29-248.8L-828.29-248.8z"/>
			</g>
			<g id="Groupe_23292_00000149360857849555389170000008747671869044261270_" transform="translate(20.983 38.613)">
				<path id="Tracé_24641_00000034807557903530508710000012364816253555824282_" class="st2" d="M-827.19-244.47l0.7,0.41
					c1.26,0.72,2.27-0.04,2.27-1.72l0,0c-0.03-1.72-0.87-3.33-2.27-4.34l-0.7-0.41c-1.26-0.72-2.27,0.04-2.27,1.72l0,0
					C-829.44-247.08-828.6-245.47-827.19-244.47z"/>
				<path id="Tracé_24642_00000062913627831756518320000010816594233900067729_" class="st1" d="M-827.08-243.03l-0.7-0.41
					c-1.78-1.21-2.84-3.22-2.86-5.37c-0.09-1.13,0.43-2.22,1.37-2.86c0.85-0.45,1.87-0.4,2.67,0.12l0.7,0.41
					c1.78,1.21,2.84,3.22,2.86,5.36c0.09,1.13-0.43,2.23-1.37,2.86c-0.36,0.21-0.76,0.31-1.17,0.31
					C-826.11-242.61-826.63-242.76-827.08-243.03z M-828.28-248.81c0.02,1.3,0.64,2.52,1.67,3.32l0.7,0.41
					c0.09,0.06,0.19,0.1,0.3,0.12c0.16-0.24,0.23-0.53,0.19-0.81c-0.03-1.3-0.64-2.52-1.68-3.31l-0.7-0.41
					c-0.09-0.06-0.19-0.1-0.3-0.12C-828.12-249.59-828.28-249.36-828.28-248.81L-828.28-248.81z"/>
			</g>
			<g id="Groupe_23293_00000131340935315847988090000002164122648864431265_" transform="translate(40.25 50.232)">
				<path id="Tracé_24643_00000152230651086139255630000008743311649021676434_" class="st1" d="M-828.38-245.65l0.7,0.41
					c1.26,0.72,2.27-0.04,2.27-1.72l0,0c-0.03-1.72-0.87-3.33-2.28-4.34l-0.7-0.41c-1.26-0.72-2.27,0.04-2.27,1.72l0,0
					C-830.63-248.26-829.79-246.65-828.38-245.65z"/>
			</g>
			<g id="Groupe_23294_00000159435038337664870920000000322098423466484119_" transform="translate(76.408 98.91)">
				<path id="Tracé_24644_00000152262458789607488220000015445849510547669922_" class="st2" d="M-827.19-244.46l0.7,0.41
					c1.26,0.72,2.27-0.04,2.27-1.72l0,0c-0.03-1.72-0.87-3.33-2.27-4.34l-0.7-0.41c-1.26-0.72-2.27,0.04-2.27,1.72l0,0
					C-829.44-247.07-828.6-245.46-827.19-244.46z"/>
				<path id="Tracé_24645_00000008831917161793400180000016117411020024561813_" class="st1" d="M-827.08-243.03l-0.71-0.41
					c-1.78-1.21-2.85-3.22-2.86-5.36c-0.09-1.13,0.44-2.22,1.38-2.86c0.84-0.45,1.86-0.4,2.66,0.12l0.71,0.41
					c1.78,1.21,2.85,3.21,2.87,5.36c0.09,1.13-0.44,2.23-1.38,2.86c-0.36,0.21-0.76,0.31-1.17,0.31
					C-826.11-242.61-826.62-242.76-827.08-243.03z M-828.28-248.8c0.03,1.3,0.65,2.52,1.68,3.32l0.7,0.41
					c0.09,0.06,0.19,0.1,0.3,0.12c0.16-0.24,0.23-0.53,0.19-0.81c-0.03-1.3-0.64-2.52-1.67-3.31l-0.71-0.41
					c-0.09-0.06-0.19-0.1-0.3-0.12c-0.16,0.24-0.24,0.53-0.2,0.82L-828.28-248.8z"/>
			</g>
			<g id="Groupe_23295_00000037655012483238760070000001891802374597976761_" transform="translate(86.643 105.311)">
				<path id="Tracé_24646_00000172403696476479859370000014320493402911611782_" class="st1" d="M-828.39-245.64l0.7,0.41
					c1.26,0.72,2.27-0.04,2.27-1.72l0,0c-0.03-1.72-0.87-3.33-2.27-4.34l-0.7-0.41c-1.26-0.72-2.27,0.04-2.27,1.72l0,0
					C-830.63-248.26-829.79-246.65-828.39-245.64z"/>
			</g>
			<g id="Groupe_23296_00000124863278806236000880000008166569087394591371_" transform="translate(95.678 139.361)">
				<path id="Tracé_24647_00000179618785385574593450000018403341944357743790_" class="st1" d="M-828.39-245.64l0.7,0.41
					c1.26,0.72,2.27-0.04,2.27-1.72l0,0c-0.03-1.72-0.87-3.33-2.27-4.34l-0.7-0.41c-1.26-0.72-2.27,0.04-2.27,1.72l0,0
					C-830.63-248.26-829.79-246.65-828.39-245.64z"/>
			</g>
			<g id="Groupe_23297_00000070816792599872630570000013935218795413796530_" transform="translate(22.176 96.925)">
				<path id="Tracé_24648_00000118371925683563903110000011360618946294702998_" class="st1" d="M-828.39-245.64l0.7,0.41
					c1.26,0.72,2.27-0.04,2.27-1.72l0,0c-0.03-1.72-0.87-3.33-2.27-4.34l-0.7-0.41c-1.26-0.72-2.27,0.04-2.27,1.72l0,0
					C-830.63-248.26-829.79-246.65-828.39-245.64z"/>
			</g>
			<g id="Groupe_23298_00000057861836945373887480000005646502370588471172_" transform="translate(95.668 186.232)">
				<path id="Tracé_24649_00000085233978347173081170000011113989882887632299_" class="st1" d="M-828.39-245.64l0.7,0.41
					c1.25,0.72,2.27-0.04,2.27-1.72l0,0c-0.03-1.72-0.87-3.34-2.27-4.34l-0.7-0.4c-1.25-0.72-2.27,0.04-2.27,1.72l0,0
					C-830.63-248.26-829.79-246.65-828.39-245.64z"/>
			</g>
			<g id="Groupe_23299_00000142155737347676455320000013336372582474908584_" transform="translate(22.166 143.791)">
				<path id="Tracé_24650_00000132778366192265469230000012785880391928508067_" class="st1" d="M-828.39-245.64l0.7,0.41
					c1.26,0.72,2.27-0.04,2.27-1.72l0,0c-0.03-1.72-0.87-3.33-2.27-4.34l-0.7-0.41c-1.26-0.72-2.27,0.04-2.27,1.72l0,0
					C-830.63-248.26-829.79-246.65-828.39-245.64z"/>
			</g>
			<g id="Groupe_23300_00000122684042015570180030000011131064093693140110_" transform="translate(73.354 71.385)">
				<path id="Tracé_24651_00000139988254238529609610000009391771454617519776_" class="st1" d="M-818.61-240.31
					c1.7,0,3.34-0.58,4.66-1.65l-1.58-1.77c-1.15,0.89-2.62,1.24-4.05,0.96c-3.03-0.57-6.13-3.75-8.98-9.2l-2.1,1.1
					c3.26,6.24,6.86,9.75,10.7,10.44C-819.52-240.35-819.06-240.31-818.61-240.31z"/>
			</g>
			<g id="Groupe_23301_00000138542354408220455900000005145777412547184034_" transform="translate(41.4 81.246)">
				<path id="Tracé_24652_00000019657476028037684460000003755431185178181780_" class="st1" d="M-818.61-240.32
					c1.7,0,3.34-0.58,4.66-1.65l-1.59-1.76l0.79,0.88l-0.78-0.88c-1.15,0.89-2.63,1.24-4.05,0.96c-3.03-0.57-6.13-3.75-8.98-9.2
					l-2.1,1.1c3.26,6.24,6.86,9.75,10.7,10.44C-819.51-240.36-819.06-240.32-818.61-240.32z"/>
			</g>
			<g id="Groupe_23302_00000054257788413102436170000007553990775513555879_" transform="translate(70.59 67.252)">
				<path id="Tracé_24653_00000031166100259766142900000015041867260035010967_" class="st2" d="M-827.19-244.47l0.7,0.41
					c1.26,0.72,2.27-0.04,2.27-1.72l0,0c-0.03-1.72-0.87-3.33-2.27-4.34l-0.7-0.41c-1.26-0.72-2.27,0.04-2.27,1.72l0,0
					C-829.44-247.08-828.6-245.47-827.19-244.47z"/>
				<path id="Tracé_24654_00000073696053344443489360000013033055937610742168_" class="st1" d="M-827.08-243.03l-0.7-0.41
					c-1.78-1.21-2.85-3.22-2.86-5.36c-0.09-1.13,0.43-2.22,1.37-2.86c0.84-0.45,1.87-0.4,2.67,0.12l0.7,0.41
					c1.78,1.21,2.85,3.22,2.86,5.36c0.09,1.13-0.43,2.23-1.37,2.86c-0.36,0.2-0.76,0.31-1.18,0.31
					C-826.11-242.62-826.62-242.76-827.08-243.03z M-828.28-248.8c0.03,1.3,0.64,2.52,1.67,3.32l0.7,0.4
					c0.09,0.06,0.19,0.1,0.3,0.12c0.04-0.03,0.2-0.26,0.2-0.81c-0.03-1.3-0.64-2.52-1.68-3.32l-0.7-0.41
					c-0.09-0.06-0.19-0.1-0.3-0.12C-828.13-249.59-828.28-249.36-828.28-248.8z"/>
			</g>
			<g id="Groupe_23303_00000174571332722968390570000007768324865846716072_" transform="translate(53.491 85.684)">
				<path id="Tracé_24655_00000109743501623695099370000015391596147832996541_" class="st2" d="M-827.19-244.47l0.7,0.41
					c1.26,0.72,2.27-0.04,2.27-1.72l0,0c-0.03-1.72-0.87-3.33-2.27-4.34l-0.7-0.41c-1.25-0.72-2.27,0.04-2.27,1.72l0,0
					C-829.43-247.08-828.59-245.47-827.19-244.47z"/>
				<path id="Tracé_24656_00000116917881861978579510000007434704464125508784_" class="st1" d="M-827.07-243.03l-0.7-0.41
					c-1.78-1.21-2.85-3.21-2.87-5.36c-0.09-1.13,0.44-2.22,1.38-2.86c0.84-0.45,1.87-0.41,2.67,0.11l0.7,0.41
					c1.77,1.21,2.84,3.22,2.86,5.37c0.09,1.13-0.43,2.22-1.37,2.86c-0.36,0.21-0.76,0.31-1.17,0.31
					C-826.1-242.61-826.62-242.76-827.07-243.03z M-828.27-248.8c0.03,1.31,0.65,2.53,1.69,3.32l0.7,0.41
					c0.09,0.06,0.19,0.1,0.3,0.12c0.16-0.24,0.23-0.53,0.19-0.81c-0.03-1.3-0.64-2.52-1.68-3.31l-0.7-0.41
					c-0.09-0.06-0.19-0.1-0.3-0.12C-828.12-249.58-828.28-249.36-828.27-248.8L-828.27-248.8z"/>
			</g>
			<g id="Groupe_23304_00000079480166189893152490000013414076665690804386_" transform="translate(39.056 77.349)">
				<path id="Tracé_24657_00000065061724204005623360000018446137954361960608_" class="st2" d="M-827.19-244.47l0.7,0.41
					c1.26,0.72,2.27-0.04,2.27-1.72l0,0c-0.03-1.72-0.87-3.33-2.27-4.34l-0.7-0.41c-1.26-0.72-2.27,0.04-2.27,1.72l0,0
					C-829.43-247.08-828.59-245.47-827.19-244.47z"/>
				<path id="Tracé_24658_00000107587345583147326560000006592668164068826299_" class="st1" d="M-827.08-243.03l-0.7-0.41
					c-1.78-1.21-2.84-3.22-2.86-5.36c-0.09-1.13,0.44-2.23,1.38-2.86c0.84-0.45,1.87-0.4,2.67,0.12l0.7,0.4
					c1.78,1.21,2.85,3.21,2.87,5.36c0.09,1.13-0.44,2.23-1.38,2.86c-0.36,0.21-0.76,0.31-1.17,0.31
					C-826.11-242.61-826.63-242.76-827.08-243.03z M-828.28-248.8c0.02,1.3,0.64,2.53,1.68,3.32l0.7,0.4
					c0.09,0.06,0.19,0.1,0.3,0.12c0.04-0.03,0.2-0.26,0.2-0.81c-0.03-1.3-0.65-2.52-1.68-3.32l-0.7-0.4
					c-0.17-0.16-0.44-0.16-0.61,0.01c-0.16,0.17-0.16,0.44,0.01,0.61C-828.35-248.85-828.31-248.82-828.28-248.8L-828.28-248.8z"/>
			</g>
		</g>
	</g>
</g>
</svg>
