<?xml version="1.0" encoding="utf-8"?>
<!-- Generator: Adobe Illustrator 25.4.1, SVG Export Plug-In . SVG Version: 6.00 Build 0)  -->
<svg version="1.1" id="Calque_1" xmlns="http://www.w3.org/2000/svg" xmlns:xlink="http://www.w3.org/1999/xlink" x="0px" y="0px"
	 viewBox="0 0 281.68 671.18" style="enable-background:new 0 0 281.68 671.18;" xml:space="preserve">
<style type="text/css">
	.st0{fill:#6390CB;}
	.st1{fill:#191F31;}
	.st2{fill:#FFFFFF;}
</style>
<g id="Groupe_23272" transform="translate(0)">
	<g id="Groupe_23265">
		<g id="Groupe_23124">
			<g id="Groupe_23115" transform="translate(0)">
				<path id="Tracé_24422" class="st0" d="M146.7,2.98L146.7,2.98c-2.76-1.49-6.3-1.29-10.17,0.95L17.9,72.42
					C9.13,77.48,2.03,91.05,2.03,102.73V582c0,5.43,1.55,9.47,4.07,11.76l0,0c0.89,0.82,1.95,1.43,3.1,1.78l124.19,71.5l27.29-44.23
					l54.65-230.14l21.08-238.45l38.14-77.62L146.7,2.98z"/>
				<path id="Tracé_24423" class="st1" d="M162.58,623.6l54.77-230.74l21.05-238.08l38.81-78.99L147.71,1.22l-0.04-0.03
					c-3.49-1.88-7.8-1.53-12.15,0.97L16.88,70.66C7.41,76.12,0,90.21,0,102.73V582c0,5.79,1.69,10.49,4.73,13.26
					c1.05,0.97,2.29,1.7,3.65,2.15l125.7,72.36L162.58,623.6z M145.71,4.75l126.18,72.67l-37.46,76.26l-21.07,238.53l-54.57,229.82
					l-26.09,42.28L10.21,593.8l-0.43-0.19c-0.86-0.27-1.66-0.73-2.32-1.34c-2.2-1.99-3.4-5.63-3.4-10.26V102.73
					c0-11.02,6.66-23.83,14.85-28.56L137.54,5.68c1.58-0.99,3.4-1.56,5.26-1.63C143.82,4.04,144.81,4.28,145.71,4.75z"/>
			</g>
			<g id="Groupe_23116" transform="translate(0 568.188)">
				<path id="Tracé_24424" class="st1" d="M6.1,25.58L6.1,25.58c0.89,0.82,1.95,1.43,3.1,1.78l124.19,71.5l9.3-15.07L2.03,3.5
					v10.32C2.03,19.25,3.58,23.29,6.1,25.58z"/>
				<path id="Tracé_24425" class="st1" d="M145.52,83.06L0,0v13.81c0,5.78,1.69,10.49,4.73,13.26c1.05,0.97,2.29,1.7,3.65,2.15
					l125.7,72.36L145.52,83.06z M139.86,84.5l-7.16,11.61L10.21,25.6l-0.43-0.19c-0.86-0.27-1.65-0.72-2.31-1.34l0,0
					c-2.2-1.99-3.4-5.63-3.4-10.26V6.97L139.86,84.5z"/>
			</g>
			<g id="Groupe_23117" transform="translate(3.558)">
				<path id="Tracé_24426" class="st2" d="M226.78,193.21l6.08-38.98L271,76.61L143.14,2.98c-2.76-1.49-6.3-1.29-10.17,0.95
					L14.34,72.42c-4.63,2.67-8.78,7.73-11.68,13.62l194.05,113.8L226.78,193.21z"/>
				<path id="Tracé_24427" class="st1" d="M228.57,194.89l6.24-40.04l38.84-79.05L144.11,1.2c-3.49-1.88-7.8-1.53-12.15,0.98
					L13.32,70.66C8.5,73.44,4.06,78.59,0.84,85.14L0,86.83l195.69,114.76l0.69,0.4L228.57,194.89z M15.35,74.17L133.98,5.68
					c3.13-1.81,5.96-2.13,8.15-0.94l126.21,72.68l-37.3,75.92l-6.05,38.19l-27.93,6.17L5.34,85.26
					C8.09,80.28,11.67,76.3,15.35,74.17z"/>
			</g>
			<g id="Groupe_23118" transform="translate(127.043)">
				<path id="Tracé_24428" class="st0" d="M147.51,76.6L19.66,2.98c-2.76-1.49-6.3-1.29-10.17,0.95L4.05,7.07l138.3,80.04
					L147.51,76.6z"/>
				<path id="Tracé_24429" class="st1" d="M150.16,75.8L20.62,1.2c-3.49-1.88-7.8-1.53-12.15,0.98L0,7.07l143.21,82.87L150.16,75.8
					z M10.49,5.68c3.13-1.81,5.96-2.13,8.15-0.94l126.21,72.68l-3.36,6.84L8.09,7.07L10.49,5.68z"/>
			</g>
			<g id="Groupe_23119" transform="translate(127.259 73.234)">
				<path id="Tracé_24430" class="st1" d="M136.52,525.52L17.89,594.01c-8.76,5.06-15.86-0.31-15.86-11.99V102.74
					c0-11.69,7.1-25.25,15.86-30.31L136.52,3.94c8.77-5.06,15.87,0.31,15.87,11.99v479.28
					C152.39,506.89,145.29,520.46,136.52,525.52z"/>
				<path id="Tracé_24431" class="st1" d="M18.91,595.76l118.63-68.49c9.47-5.47,16.88-19.55,16.88-32.07V15.92
					c0-6.88-2.37-12.2-6.5-14.58c-3.53-2.04-7.94-1.75-12.41,0.83L16.88,70.67C7.41,76.13,0,90.22,0,102.74v479.27
					c0,6.89,2.37,12.2,6.5,14.59c1.54,0.89,3.3,1.35,5.08,1.34C14.17,597.87,16.7,597.12,18.91,595.76z M145.89,4.86
					c2.84,1.64,4.47,5.68,4.47,11.07V495.2c0,11.02-6.66,23.83-14.85,28.56L16.88,592.25c-3.21,1.85-6.1,2.14-8.35,0.83
					c-2.84-1.64-4.47-5.68-4.47-11.07V102.74c0-11.02,6.67-23.83,14.85-28.56L137.54,5.69c1.58-1,3.4-1.57,5.27-1.64
					C143.89,4.04,144.95,4.32,145.89,4.86z"/>
			</g>
			<g id="Groupe_23120" transform="translate(1.024 554.42)">
				
					<rect id="Rectangle_8307" x="63.55" y="-35.7" transform="matrix(0.4961 -0.8682 0.8682 0.4961 -0.4573 76.3778)" class="st1" width="4.05" height="148.56"/>
			</g>
			<g id="Groupe_23121" transform="translate(5.188 84.285)">
				
					<rect id="Rectangle_8308" x="62.36" y="-34.54" transform="matrix(0.5059 -0.8626 0.8626 0.5059 -1.7551 74.7645)" class="st1" width="4.05" height="146.91"/>
			</g>
			<g id="Groupe_23122" transform="translate(1.003 102.329)">
				
					<rect id="Rectangle_8309" x="62.36" y="-34.54" transform="matrix(0.5059 -0.8626 0.8626 0.5059 -1.7564 74.7683)" class="st1" width="4.05" height="146.92"/>
			</g>
			<g id="Groupe_23123" transform="translate(127.252 646.032)">
				<path id="Tracé_24432" class="st0" d="M1.98,17.4c-1.35-3.05-2.02-6.35-1.97-9.69V0h4.05v7.83c-0.02,2.73,0.53,5.44,1.64,7.95
					L1.98,17.4z"/>
			</g>
		</g>
		<g id="Groupe_23146" transform="translate(143.033 137.097)">
			<g id="Groupe_23125">
				<path id="Tracé_24433" class="st1" d="M113.67,170.35L9.2,230.66c-4.44,2.56-8.03-0.16-8.03-6.07V77.8
					c0-5.92,3.6-12.79,8.03-15.35L113.67,2.13c4.44-2.56,8.03,0.16,8.03,6.07V155C121.7,160.91,118.11,167.78,113.67,170.35z"/>
				<path id="Tracé_24434" class="st0" d="M9.78,231.67l104.47-60.31c4.83-2.79,8.62-9.98,8.62-16.36V8.21
					c0-3.54-1.22-6.28-3.36-7.51c-1.83-1.06-4.11-0.91-6.42,0.42L8.62,61.44C3.79,64.23,0,71.42,0,77.8v146.79
					c0,3.54,1.22,6.27,3.36,7.51c0.8,0.46,1.72,0.7,2.65,0.7C7.34,232.76,8.65,232.37,9.78,231.67z M118.34,2.73
					c1.39,0.8,2.19,2.8,2.19,5.49V155c0,5.53-3.34,11.96-7.45,14.33L8.62,229.65c-1.1,0.64-2.71,1.23-4.09,0.43
					c-1.4-0.8-2.19-2.8-2.19-5.48V77.8c0-5.53,3.34-11.96,7.45-14.33L114.26,3.15c0.78-0.49,1.68-0.77,2.6-0.81
					C117.38,2.33,117.89,2.47,118.34,2.73z"/>
			</g>
			<g id="Groupe_23126" transform="translate(15.744 30.663)">
				<path id="Tracé_24435" class="st1" d="M85.93,18.62L6.67,64.38c-3.03,1.76-5.49-0.11-5.49-4.15V58.1
					c0-4.05,2.46-8.75,5.49-10.5L85.93,1.84c3.03-1.75,5.49,0.11,5.49,4.16v2.13C91.42,12.16,88.96,16.87,85.93,18.62z"/>
				<path id="Tracé_24436" class="st0" d="M7.25,65.39l79.26-45.76c3.41-1.97,6.08-7.02,6.08-11.51V5.99c0-2.56-0.9-4.54-2.48-5.46
					c-1.52-0.78-3.35-0.67-4.76,0.29L6.09,46.58c-3.41,1.97-6.08,7.03-6.08,11.51v2.13c0,2.55,0.91,4.54,2.48,5.46
					c0.61,0.35,1.29,0.53,1.99,0.53C5.46,66.19,6.42,65.9,7.25,65.39z M88.94,2.56c0.82,0.48,1.31,1.76,1.31,3.43v2.13
					c0,3.61-2.24,7.96-4.91,9.49L6.08,63.37c-0.7,0.51-1.62,0.62-2.43,0.29c-0.83-0.48-1.32-1.76-1.32-3.43V58.1
					c0-3.61,2.25-7.95,4.92-9.49L86.51,2.85c0.48-0.3,1.03-0.47,1.59-0.5C88.4,2.34,88.68,2.41,88.94,2.56z"/>
			</g>
			<g id="Groupe_23127" transform="translate(15.744 58.636)">
				<path id="Tracé_24437" class="st1" d="M85.93,18.62L6.67,64.38c-3.03,1.75-5.49-0.11-5.49-4.16v-2.13
					c0-4.04,2.46-8.74,5.49-10.5L85.93,1.83c3.03-1.76,5.49,0.11,5.49,4.15v2.13C91.42,12.17,88.96,16.87,85.93,18.62z"/>
				<path id="Tracé_24438" class="st0" d="M7.25,65.39l79.26-45.76c3.41-1.97,6.08-7.02,6.08-11.51V5.99c0-2.55-0.9-4.54-2.48-5.46
					c-1.52-0.79-3.35-0.68-4.76,0.29L6.09,46.59c-3.41,1.97-6.08,7.02-6.08,11.51v2.13c0,2.56,0.91,4.54,2.48,5.46
					c0.61,0.35,1.29,0.53,1.99,0.53C5.46,66.19,6.42,65.9,7.25,65.39z M88.94,2.56c0.82,0.48,1.31,1.76,1.31,3.43v2.13
					c0,3.61-2.24,7.95-4.91,9.49L6.08,63.37c-0.7,0.52-1.62,0.63-2.43,0.29c-0.83-0.48-1.32-1.76-1.32-3.43V58.1
					c0-3.61,2.25-7.95,4.92-9.49L86.51,2.85c0.48-0.3,1.03-0.47,1.59-0.5C88.4,2.34,88.68,2.41,88.94,2.56z"/>
			</g>
			<g id="Groupe_23128" transform="translate(15.744 86.266)">
				<path id="Tracé_24439" class="st1" d="M85.93,66.53L6.67,112.29c-3.03,1.75-5.49-0.11-5.49-4.16V58.09
					c0-4.05,2.46-8.75,5.49-10.5L85.93,1.83c3.03-1.76,5.49,0.11,5.49,4.15v50.04C91.42,60.08,88.96,64.78,85.93,66.53z"/>
				<path id="Tracé_24440" class="st0" d="M7.25,113.3l79.26-45.76c3.41-1.97,6.08-7.03,6.08-11.51V5.99c0-2.55-0.9-4.54-2.48-5.46
					c-1.52-0.79-3.35-0.68-4.76,0.29L6.09,46.58c-3.41,1.97-6.08,7.02-6.08,11.51v50.04c0,2.56,0.91,4.54,2.48,5.46
					c0.61,0.35,1.29,0.53,1.99,0.53C5.46,114.09,6.42,113.81,7.25,113.3z M88.94,2.55c0.82,0.48,1.31,1.76,1.31,3.43v50.04
					c0,3.61-2.24,7.95-4.91,9.49L6.08,111.27c-0.7,0.52-1.62,0.62-2.43,0.29c-0.83-0.48-1.32-1.76-1.32-3.43V58.1
					c0-3.61,2.25-7.95,4.92-9.49L86.51,2.85c0.48-0.3,1.03-0.47,1.59-0.5C88.4,2.34,88.68,2.41,88.94,2.55z"/>
			</g>
			<g id="Groupe_23129" transform="translate(21.935 80.116)">
				<path id="Tracé_24441" class="st1" d="M4.11,7.43l-0.7,0.4c-1.24,0.72-2.24-0.04-2.24-1.7l0,0c0.03-1.7,0.86-3.3,2.24-4.29
					l0.7-0.4c1.24-0.72,2.24,0.04,2.24,1.7l0,0C6.33,4.85,5.5,6.44,4.11,7.43z"/>
				<path id="Tracé_24442" class="st0" d="M4,8.84l0.7-0.4c1.76-1.2,2.81-3.18,2.83-5.3c0.09-1.12-0.43-2.2-1.36-2.83
					c-0.83-0.45-1.85-0.4-2.64,0.12l-0.69,0.4c-1.76,1.2-2.82,3.18-2.83,5.3c-0.09,1.12,0.43,2.2,1.36,2.83
					c0.35,0.2,0.75,0.31,1.16,0.31C3.05,9.26,3.55,9.11,4,8.84z M5.19,3.14C5.16,4.43,4.55,5.63,3.53,6.41l-0.69,0.4
					c-0.09,0.06-0.19,0.1-0.3,0.12c-0.16-0.23-0.23-0.52-0.2-0.8C2.37,4.84,2.98,3.64,4,2.86l0.7-0.4c0.09-0.05,0.19-0.1,0.29-0.12
					C5.03,2.37,5.19,2.59,5.19,3.14L5.19,3.14z"/>
			</g>
			<g id="Groupe_23130" transform="translate(32.043 76.127)">
				<path id="Tracé_24443" class="st0" d="M2.93,6.26l-0.69,0.4C1,7.38,0,6.62,0,4.96l0,0c0.03-1.7,0.86-3.3,2.24-4.29l0.69-0.4
					c1.24-0.72,2.24,0.04,2.24,1.7l0,0C5.15,3.67,4.32,5.26,2.93,6.26z"/>
			</g>
			<g id="Groupe_23131" transform="translate(86.829 72.47)">
				<path id="Tracé_24444" class="st0" d="M2.94,6.26l-0.7,0.4C1,7.38,0,6.62,0,4.96l0,0c0.03-1.7,0.86-3.3,2.24-4.29l0.7-0.4
					c1.24-0.72,2.24,0.04,2.24,1.7l0,0C5.16,3.67,4.33,5.26,2.94,6.26z"/>
			</g>
			<g id="Groupe_23132" transform="translate(85.663 43.326)">
				<path id="Tracé_24445" class="st1" d="M4.11,7.43l-0.7,0.4c-1.24,0.72-2.24-0.04-2.24-1.7l0,0c0.03-1.7,0.86-3.3,2.24-4.29
					l0.7-0.4c1.24-0.72,2.24,0.04,2.24,1.7l0,0C6.33,4.84,5.49,6.43,4.11,7.43z"/>
				<path id="Tracé_24446" class="st0" d="M4,8.84l0.69-0.4c1.76-1.19,2.81-3.18,2.83-5.3c0.09-1.12-0.43-2.2-1.36-2.83
					c-0.83-0.45-1.85-0.4-2.64,0.12l-0.7,0.4c-1.76,1.2-2.81,3.18-2.83,5.3c-0.09,1.12,0.43,2.2,1.36,2.83
					C1.7,9.16,2.1,9.27,2.51,9.27C3.04,9.26,3.55,9.11,4,8.84z M5.18,3.14C5.15,4.43,4.55,5.63,3.52,6.41l-0.7,0.4
					c-0.09,0.05-0.19,0.1-0.29,0.12c-0.04-0.03-0.2-0.26-0.2-0.81c0.02-1.29,0.64-2.49,1.66-3.27l0.69-0.4
					c0.09-0.06,0.19-0.1,0.3-0.12C5.03,2.36,5.18,2.58,5.18,3.14L5.18,3.14z"/>
			</g>
			<g id="Groupe_23133" transform="translate(94.598 38.168)">
				<path id="Tracé_24447" class="st1" d="M4.11,7.42l-0.7,0.4c-1.24,0.72-2.24-0.04-2.24-1.7l0,0c0.03-1.7,0.86-3.3,2.24-4.29
					l0.7-0.4c1.24-0.72,2.24,0.04,2.24,1.7l0,0C6.33,4.84,5.49,6.43,4.11,7.42z"/>
				<path id="Tracé_24448" class="st0" d="M3.99,8.84l0.7-0.4c1.75-1.2,2.81-3.18,2.83-5.3c0.09-1.12-0.43-2.2-1.36-2.83
					c-0.84-0.44-1.84-0.4-2.64,0.12l-0.7,0.4c-1.75,1.2-2.81,3.18-2.83,5.3c-0.09,1.12,0.43,2.2,1.36,2.83
					c0.35,0.2,0.75,0.3,1.16,0.3C3.04,9.25,3.55,9.11,3.99,8.84z M5.18,3.13C5.16,4.42,4.55,5.62,3.52,6.41l-0.7,0.4
					c-0.09,0.06-0.19,0.1-0.3,0.12c-0.16-0.24-0.23-0.52-0.19-0.8c0.03-1.29,0.63-2.49,1.66-3.27l0.7-0.4
					c0.09-0.06,0.19-0.1,0.29-0.12C5.03,2.36,5.18,2.59,5.18,3.13L5.18,3.13z"/>
			</g>
			<g id="Groupe_23134" transform="translate(77.898 49.653)">
				<path id="Tracé_24449" class="st0" d="M2.94,6.26l-0.69,0.4c-1.24,0.72-2.24-0.04-2.24-1.7l0,0c0.02-1.71,0.86-3.3,2.24-4.29
					l0.69-0.4c1.24-0.72,2.24,0.04,2.24,1.7l0,0C5.15,3.67,4.32,5.26,2.94,6.26z"/>
			</g>
			<g id="Groupe_23135" transform="translate(39.802 97.776)">
				<path id="Tracé_24450" class="st1" d="M4.11,7.43l-0.7,0.4c-1.24,0.72-2.24-0.04-2.24-1.7l0,0c0.03-1.7,0.86-3.3,2.24-4.29
					l0.7-0.4c1.24-0.72,2.24,0.04,2.24,1.7l0,0C6.33,4.84,5.5,6.43,4.11,7.43z"/>
				<path id="Tracé_24451" class="st0" d="M4,8.84l0.7-0.4c1.76-1.2,2.81-3.18,2.83-5.3c0.09-1.12-0.43-2.2-1.36-2.83
					c-0.83-0.44-1.84-0.4-2.63,0.12l-0.7,0.4c-1.76,1.19-2.82,3.18-2.83,5.3c-0.09,1.12,0.43,2.2,1.36,2.83
					c0.35,0.2,0.75,0.31,1.16,0.31C3.04,9.26,3.55,9.11,4,8.84z M5.19,3.14c-0.03,1.29-0.64,2.5-1.66,3.28l-0.7,0.4
					c-0.09,0.06-0.19,0.1-0.3,0.12C2.37,6.7,2.31,6.42,2.34,6.14C2.36,4.85,2.97,3.65,4,2.87l0.7-0.4c0.09-0.06,0.19-0.1,0.29-0.12
					C5.15,2.57,5.22,2.85,5.19,3.14L5.19,3.14z"/>
			</g>
			<g id="Groupe_23136" transform="translate(32.043 104.101)">
				<path id="Tracé_24452" class="st0" d="M2.93,6.26l-0.69,0.4C1,7.38,0,6.62,0,4.96l0,0c0.03-1.7,0.86-3.3,2.24-4.29l0.69-0.4
					c1.24-0.72,2.24,0.04,2.24,1.7l0,0C5.15,3.68,4.32,5.27,2.93,6.26z"/>
			</g>
			<g id="Groupe_23137" transform="translate(23.107 137.761)">
				<path id="Tracé_24453" class="st0" d="M2.94,6.26l-0.7,0.4C1,7.38,0,6.62,0,4.96l0,0c0.03-1.7,0.86-3.3,2.24-4.29l0.7-0.4
					c1.24-0.72,2.24,0.04,2.24,1.7l0,0C5.16,3.67,4.33,5.26,2.94,6.26z"/>
			</g>
			<g id="Groupe_23138" transform="translate(95.765 95.812)">
				<path id="Tracé_24454" class="st0" d="M2.94,6.26l-0.7,0.4C1,7.38,0,6.62,0,4.96l0,0c0.03-1.7,0.86-3.3,2.24-4.29l0.7-0.4
					c1.24-0.72,2.24,0.04,2.24,1.7l0,0C5.16,3.67,4.33,5.26,2.94,6.26z"/>
			</g>
			<g id="Groupe_23139" transform="translate(23.121 184.093)">
				<path id="Tracé_24455" class="st0" d="M2.94,6.26l-0.69,0.4c-1.24,0.72-2.24-0.04-2.24-1.7l0,0c0.03-1.7,0.86-3.3,2.24-4.29
					l0.69-0.4c1.24-0.72,2.24,0.04,2.24,1.7l0,0C5.15,3.67,4.32,5.26,2.94,6.26z"/>
			</g>
			<g id="Groupe_23140" transform="translate(95.78 142.139)">
				<path id="Tracé_24456" class="st0" d="M2.93,6.26l-0.69,0.4C1,7.38,0,6.62,0,4.96l0,0c0.03-1.7,0.86-3.3,2.24-4.29l0.69-0.4
					c1.24-0.72,2.24,0.04,2.24,1.7l0,0C5.15,3.68,4.32,5.27,2.93,6.26z"/>
			</g>
			<g id="Groupe_23141" transform="translate(33.851 70.568)">
				<path id="Tracé_24457" class="st0" d="M4.6,11.53c-1.68,0-3.3-0.57-4.6-1.63l1.56-1.74c1.13,0.88,2.59,1.23,4,0.95
					c2.99-0.56,6.06-3.71,8.88-9.09l2.07,1.08c-3.22,6.17-6.78,9.64-10.58,10.32C5.49,11.48,5.05,11.52,4.6,11.53z"/>
			</g>
			<g id="Groupe_23142" transform="translate(65.434 80.308)">
				<path id="Tracé_24458" class="st0" d="M4.6,11.53c-1.68,0-3.3-0.57-4.6-1.63l1.57-1.74L0.79,9.03l0.78-0.88
					c1.13,0.88,2.59,1.23,4,0.95c2.99-0.56,6.06-3.71,8.88-9.09l2.07,1.08C13.3,7.26,9.74,10.73,5.95,11.41
					C5.49,11.49,5.05,11.53,4.6,11.53z"/>
			</g>
			<g id="Groupe_23143" transform="translate(45.562 66.478)">
				<path id="Tracé_24459" class="st1" d="M4.11,7.43l-0.7,0.4c-1.24,0.72-2.24-0.04-2.24-1.7l0,0c0.03-1.7,0.86-3.3,2.24-4.29
					l0.7-0.4c1.24-0.72,2.24,0.04,2.24,1.7l0,0C6.33,4.84,5.49,6.43,4.11,7.43z"/>
				<path id="Tracé_24460" class="st0" d="M3.99,8.84l0.7-0.4c1.75-1.2,2.81-3.18,2.83-5.3c0.09-1.12-0.43-2.2-1.36-2.83
					c-0.84-0.44-1.84-0.4-2.64,0.12l-0.7,0.4c-1.75,1.2-2.81,3.18-2.83,5.3c-0.09,1.12,0.43,2.2,1.36,2.83
					c0.35,0.2,0.76,0.3,1.16,0.3C3.04,9.25,3.55,9.11,3.99,8.84z M5.18,3.14C5.15,4.43,4.54,5.63,3.52,6.42l-0.7,0.4
					c-0.09,0.06-0.19,0.1-0.29,0.12c-0.04-0.03-0.2-0.26-0.2-0.8c0.03-1.29,0.64-2.49,1.66-3.28l0.7-0.4
					c0.09-0.05,0.19-0.09,0.29-0.12C5.03,2.36,5.18,2.59,5.18,3.14L5.18,3.14z"/>
			</g>
			<g id="Groupe_23144" transform="translate(62.458 84.699)">
				<path id="Tracé_24461" class="st1" d="M4.11,7.42l-0.7,0.4c-1.24,0.72-2.24-0.04-2.24-1.7l0,0c0.03-1.7,0.86-3.3,2.24-4.29
					l0.7-0.4c1.24-0.72,2.24,0.04,2.24,1.7l0,0C6.33,4.84,5.49,6.43,4.11,7.42z"/>
				<path id="Tracé_24462" class="st0" d="M3.99,8.84l0.7-0.4c1.76-1.19,2.82-3.18,2.83-5.3c0.09-1.12-0.43-2.2-1.36-2.82
					c-0.84-0.45-1.85-0.4-2.64,0.11l-0.69,0.4C1.08,2.03,0.02,4.01,0,6.13c-0.09,1.12,0.43,2.2,1.36,2.83
					c0.35,0.2,0.75,0.3,1.16,0.3C3.04,9.25,3.55,9.11,3.99,8.84z M5.19,3.14c-0.03,1.29-0.64,2.5-1.67,3.28l-0.69,0.4
					c-0.09,0.06-0.19,0.1-0.3,0.12C2.37,6.7,2.3,6.42,2.34,6.14C2.37,4.85,2.98,3.65,4,2.87l0.7-0.4C4.79,2.42,4.89,2.37,5,2.35
					C5.03,2.36,5.19,2.59,5.19,3.14z"/>
			</g>
			<g id="Groupe_23145" transform="translate(76.727 76.459)">
				<path id="Tracé_24463" class="st1" d="M4.11,7.42l-0.69,0.4c-1.24,0.72-2.24-0.04-2.24-1.7l0,0c0.03-1.7,0.86-3.3,2.24-4.29
					l0.69-0.4c1.24-0.72,2.24,0.04,2.24,1.7l0,0C6.33,4.84,5.49,6.43,4.11,7.42z"/>
				<path id="Tracé_24464" class="st0" d="M4,8.84l0.7-0.4c1.75-1.2,2.81-3.18,2.83-5.3c0.09-1.12-0.43-2.2-1.36-2.83
					c-0.84-0.44-1.85-0.4-2.64,0.12l-0.69,0.4c-1.76,1.19-2.82,3.18-2.83,5.3c-0.09,1.12,0.43,2.2,1.36,2.83
					c0.35,0.2,0.75,0.31,1.16,0.31C3.04,9.26,3.55,9.11,4,8.84z M5.19,3.14c-0.02,1.29-0.64,2.5-1.66,3.28l-0.69,0.4
					c-0.09,0.06-0.19,0.1-0.3,0.12c-0.04-0.03-0.2-0.26-0.2-0.8C2.37,4.85,2.98,3.65,4,2.86l0.7-0.4c0.09-0.05,0.19-0.1,0.29-0.12
					C5.03,2.36,5.19,2.59,5.19,3.14z"/>
			</g>
		</g>
		<g id="Groupe_23168" transform="translate(10.985 175.963)">
			<g id="Groupe_23147">
				<path id="Tracé_24465" class="st0" d="M102.47,84.49L6.35,28.99c-2.9-1.68-5.26-6.18-5.26-10.05V5.7
					c0-3.87,2.36-5.65,5.26-3.98l96.12,55.49c2.9,1.68,5.26,6.18,5.26,10.05V80.5C107.73,84.38,105.37,86.17,102.47,84.49z"/>
				<path id="Tracé_24466" class="st1" d="M106.46,85.71c1.5-0.87,2.36-2.76,2.36-5.2V67.27c0-4.29-2.55-9.12-5.8-10.99L6.9,0.78
					C5.55-0.14,3.81-0.24,2.37,0.51c-1.5,0.86-2.36,2.76-2.36,5.2v13.24c0,4.29,2.55,9.12,5.8,11l96.12,55.49
					c0.8,0.49,1.7,0.76,2.64,0.78C105.22,86.22,105.88,86.05,106.46,85.71z M6.9,28.05c-2.56-1.48-4.72-5.65-4.72-9.11V5.7
					c0-1.61,0.48-2.85,1.27-3.31C4.23,2.06,5.12,2.17,5.8,2.67l96.12,55.49c2.56,1.48,4.72,5.65,4.72,9.11v13.24
					c0,1.61-0.47,2.85-1.28,3.31c-0.78,0.33-1.67,0.22-2.35-0.27L6.9,28.05z"/>
			</g>
			<g id="Groupe_23148" transform="translate(30.023 22.794)">
				<path id="Tracé_24467" class="st2" d="M1.86,5.19l0.58,0.33C3.47,6.11,4.3,5.49,4.3,4.11l0,0C4.28,2.7,3.59,1.37,2.44,0.55
					L1.86,0.22C0.84-0.37,0,0.26,0,1.63l0,0C0.02,3.05,0.71,4.37,1.86,5.19z"/>
			</g>
			<g id="Groupe_23149" transform="translate(36.346 25.979)">
				<path id="Tracé_24468" class="st0" d="M2.95,6.29l0.58,0.33c1.03,0.59,1.86-0.03,1.86-1.41l0,0C5.37,3.8,4.68,2.47,3.53,1.65
					L2.95,1.32C1.93,0.73,1.09,1.36,1.09,2.73l0,0C1.11,4.14,1.8,5.46,2.95,6.29z"/>
				<path id="Tracé_24469" class="st1" d="M5.29,7.66C6.1,7.12,6.55,6.18,6.48,5.21c-0.02-1.8-0.91-3.48-2.4-4.5L3.5,0.38
					c-0.69-0.45-1.57-0.49-2.3-0.1C0.39,0.82-0.07,1.76,0.01,2.73c0.01,1.8,0.91,3.49,2.41,4.5l0.57,0.33
					c0.39,0.23,0.83,0.36,1.29,0.37C4.63,7.93,4.98,7.84,5.29,7.66z M3.49,5.34C2.68,4.71,2.2,3.75,2.18,2.73
					c0-0.37,0.1-0.53,0.22-0.46L2.98,2.6C3.79,3.23,4.27,4.19,4.3,5.21c0,0.37-0.11,0.54-0.23,0.46L3.49,5.34L3.49,5.34z"/>
			</g>
			<g id="Groupe_23150" transform="translate(44.846 31.351)">
				<path id="Tracé_24470" class="st2" d="M1.86,5.19l0.58,0.33C3.47,6.11,4.3,5.49,4.3,4.11l0,0C4.28,2.7,3.59,1.37,2.44,0.55
					L1.86,0.22C0.83-0.37,0,0.25,0,1.63l0,0C0.02,3.05,0.71,4.37,1.86,5.19z"/>
			</g>
			<g id="Groupe_23151" transform="translate(52.258 35.631)">
				<path id="Tracé_24471" class="st1" d="M1.86,5.19l0.58,0.33C3.47,6.11,4.3,5.48,4.3,4.11l0,0C4.28,2.7,3.59,1.37,2.44,0.55
					L1.86,0.22C0.83-0.37,0,0.25,0,1.63l0,0C0.02,3.05,0.71,4.37,1.86,5.19z"/>
			</g>
			<g id="Groupe_23152" transform="translate(81.903 52.747)">
				<path id="Tracé_24472" class="st1" d="M1.86,5.19l0.58,0.33C3.47,6.11,4.3,5.48,4.3,4.11l0,0C4.28,2.7,3.59,1.38,2.44,0.56
					L1.86,0.23C0.83-0.36,0,0.26,0,1.64l0,0C0.02,3.05,0.71,4.37,1.86,5.19z"/>
			</g>
			<g id="Groupe_23153" transform="translate(89.314 57.025)">
				<path id="Tracé_24473" class="st2" d="M1.86,5.19l0.57,0.33c1.03,0.59,1.86-0.04,1.86-1.41l0,0C4.27,2.7,3.58,1.38,2.43,0.55
					L1.86,0.22C0.83-0.38,0,0.25,0,1.63l0,0C0.02,3.05,0.71,4.37,1.86,5.19z"/>
			</g>
			<g id="Groupe_23154" transform="translate(7.794 19.161)">
				<path id="Tracé_24474" class="st2" d="M1.87,5.19l0.57,0.33C3.47,6.11,4.3,5.48,4.3,4.11l0,0C4.28,2.7,3.59,1.37,2.44,0.55
					L1.87,0.22C0.84-0.37,0.01,0.25,0.01,1.63l0,0C0.02,3.05,0.71,4.37,1.87,5.19z"/>
			</g>
			<g id="Groupe_23155" transform="translate(22.612 27.719)">
				<path id="Tracé_24475" class="st1" d="M1.86,5.19l0.58,0.33C3.47,6.11,4.3,5.48,4.3,4.11l0,0C4.28,2.7,3.59,1.38,2.44,0.56
					L1.86,0.23C0.83-0.36,0,0.26,0,1.64l0,0C0.02,3.05,0.71,4.37,1.86,5.19z"/>
			</g>
			<g id="Groupe_23156" transform="translate(37.435 36.275)">
				<path id="Tracé_24476" class="st2" d="M1.86,5.19l0.58,0.33C3.47,6.11,4.3,5.48,4.3,4.11l0,0C4.28,2.7,3.59,1.38,2.44,0.55
					L1.86,0.22C0.84-0.38,0,0.25,0,1.63l0,0C0.02,3.05,0.71,4.37,1.86,5.19z"/>
			</g>
			<g id="Groupe_23157" transform="translate(67.08 53.39)">
				<path id="Tracé_24477" class="st2" d="M1.86,5.19l0.58,0.33C3.47,6.11,4.3,5.49,4.3,4.11l0,0C4.28,2.7,3.59,1.38,2.44,0.55
					L1.86,0.22C0.83-0.37,0,0.26,0,1.63l0,0C0.02,3.05,0.71,4.37,1.86,5.19z"/>
			</g>
			<g id="Groupe_23158" transform="translate(74.492 57.669)">
				<path id="Tracé_24478" class="st1" d="M1.86,5.19l0.58,0.33C3.47,6.11,4.3,5.49,4.3,4.11l0,0C4.28,2.7,3.59,1.38,2.44,0.55
					L1.86,0.22C0.83-0.37,0,0.26,0,1.63l0,0C0.02,3.05,0.71,4.37,1.86,5.19z"/>
			</g>
			<g id="Groupe_23159" transform="translate(59.669 39.91)">
				<path id="Tracé_24479" class="st0" d="M1.86,5.19l0.58,0.33C3.47,6.11,4.3,5.48,4.3,4.11l0,0C4.28,2.7,3.59,1.37,2.44,0.55
					L1.86,0.22C0.83-0.37,0,0.25,0,1.63l0,0C0.02,3.05,0.71,4.37,1.86,5.19z"/>
			</g>
			<g id="Groupe_23160" transform="translate(44.846 40.555)">
				<path id="Tracé_24480" class="st2" d="M1.86,5.19l0.58,0.33C3.47,6.12,4.3,5.49,4.3,4.11l0,0C4.28,2.7,3.59,1.38,2.44,0.55
					L1.86,0.22C0.83-0.38,0,0.25,0,1.63l0,0C0.02,3.05,0.71,4.37,1.86,5.19z"/>
			</g>
			<g id="Groupe_23161" transform="translate(81.903 61.949)">
				<path id="Tracé_24481" class="st2" d="M1.86,5.19l0.58,0.33C3.47,6.11,4.3,5.49,4.3,4.11l0,0C4.28,2.7,3.59,1.38,2.44,0.55
					L1.86,0.22C0.83-0.37,0,0.26,0,1.63l0,0C0.02,3.05,0.71,4.37,1.86,5.19z"/>
			</g>
			<g id="Groupe_23162" transform="translate(95.633 69.415)">
				<path id="Tracé_24482" class="st0" d="M2.96,6.28l0.57,0.33C4.56,7.2,5.39,6.57,5.39,5.2l0,0C5.37,3.79,4.68,2.46,3.53,1.64
					L2.96,1.31C1.93,0.72,1.1,1.34,1.1,2.72l0,0C1.11,4.14,1.81,5.46,2.96,6.28z"/>
				<path id="Tracé_24483" class="st1" d="M5.29,7.66C6.1,7.12,6.56,6.18,6.48,5.21c-0.02-1.8-0.92-3.49-2.41-4.5L3.49,0.38
					C2.8-0.07,1.91-0.11,1.18,0.28C0.37,0.82-0.09,1.76-0.01,2.73c0.02,1.8,0.92,3.49,2.41,4.5l0.57,0.33
					C3.36,7.79,3.8,7.92,4.26,7.93C4.63,7.93,4.98,7.84,5.29,7.66z M3.5,5.34C2.69,4.71,2.21,3.75,2.18,2.73
					c0-0.37,0.11-0.54,0.23-0.46L2.98,2.6C3.79,3.23,4.27,4.19,4.3,5.21c0,0.36-0.09,0.55-0.22,0.46L3.5,5.34z"/>
			</g>
			<g id="Groupe_23163" transform="translate(8.941 12.399)">
				<path id="Tracé_24484" class="st1" d="M11.5,12.03c-0.45,0-0.91-0.05-1.35-0.15C4.25,10.62,0.16,1.26-0.01,0.87l2-0.86
					c1.04,2.42,4.63,8.9,8.61,9.74c1.66,0.28,3.35-0.3,4.47-1.55l1.48,1.6C15.22,11.16,13.41,11.96,11.5,12.03z"/>
			</g>
			<g id="Groupe_23164" transform="translate(68.272 46.545)">
				<path id="Tracé_24485" class="st1" d="M12.4,11.11c-0.75,0-1.5-0.11-2.22-0.32C4.36,9.11,0.17,1.36-0.01,1.03L1.91,0
					c0.04,0.07,3.94,7.27,8.87,8.69c1.5,0.45,3.11,0.24,4.45-0.56l1.08,1.89C15.13,10.72,13.78,11.1,12.4,11.11z"/>
			</g>
			<g id="Groupe_23165" transform="translate(67.08 44.189)">
				<path id="Tracé_24486" class="st2" d="M1.86,5.19l0.58,0.33C3.47,6.11,4.3,5.48,4.3,4.11l0,0C4.28,2.7,3.59,1.38,2.44,0.55
					L1.86,0.22C0.83-0.37,0,0.25,0,1.63l0,0C0.02,3.05,0.71,4.37,1.86,5.19z"/>
			</g>
			<g id="Groupe_23166" transform="translate(6.7 8.865)">
				<path id="Tracé_24487" class="st0" d="M2.96,6.28l0.57,0.33c1.03,0.6,1.86-0.03,1.86-1.41l0,0C5.37,3.79,4.68,2.46,3.53,1.64
					L2.96,1.31C1.93,0.72,1.1,1.35,1.1,2.72l0,0C1.12,4.14,1.81,5.46,2.96,6.28z"/>
				<path id="Tracé_24488" class="st1" d="M5.29,7.66C6.1,7.12,6.56,6.18,6.48,5.21c-0.02-1.8-0.92-3.49-2.41-4.5L3.49,0.37
					c-0.7-0.45-1.58-0.49-2.31-0.09C0.37,0.82-0.08,1.76-0.01,2.73c0.02,1.8,0.92,3.49,2.41,4.5l0.58,0.33
					c0.39,0.23,0.83,0.36,1.29,0.37C4.63,7.93,4.98,7.84,5.29,7.66z M2.41,2.26l0.58,0.33C3.8,3.22,4.28,4.18,4.31,5.2
					c0,0.36-0.09,0.54-0.22,0.47L3.51,5.33C2.7,4.7,2.22,3.75,2.19,2.72c0-0.31,0.06-0.49,0.16-0.49L2.41,2.26z"/>
			</g>
			<g id="Groupe_23167" transform="translate(21.523 17.422)">
				<path id="Tracé_24489" class="st0" d="M2.95,6.28l0.58,0.33C4.56,7.2,5.39,6.58,5.39,5.2l0,0C5.37,3.79,4.68,2.46,3.53,1.64
					L2.95,1.31C1.92,0.72,1.09,1.35,1.09,2.72l0,0C1.11,4.14,1.8,5.46,2.95,6.28z"/>
				<path id="Tracé_24490" class="st1" d="M5.29,7.66C6.1,7.12,6.55,6.18,6.48,5.21c-0.01-1.8-0.91-3.48-2.4-4.5L3.5,0.37
					c-0.69-0.45-1.58-0.49-2.31-0.1C0.38,0.81-0.08,1.75,0,2.73c0.01,1.8,0.91,3.49,2.41,4.5l0.58,0.33
					c0.39,0.23,0.83,0.36,1.28,0.37C4.63,7.93,4.98,7.84,5.29,7.66z M2.41,2.26l0.58,0.33C3.8,3.22,4.28,4.18,4.31,5.2
					c0,0.36-0.09,0.54-0.23,0.47L3.5,5.33C2.69,4.7,2.21,3.75,2.18,2.72c0-0.31,0.06-0.49,0.16-0.49L2.41,2.26z"/>
			</g>
		</g>
		<g id="Groupe_23188" transform="translate(10.985 288.307)">
			<g id="Groupe_23169">
				<path id="Tracé_24491" class="st0" d="M102.47,84.49L6.35,29c-2.9-1.68-5.26-6.18-5.26-10.05V5.71c0-3.87,2.36-5.65,5.26-3.98
					l96.12,55.49c2.9,1.68,5.26,6.18,5.26,10.05v13.24C107.73,84.38,105.37,86.17,102.47,84.49z"/>
				<path id="Tracé_24492" class="st1" d="M106.46,85.71c1.5-0.87,2.36-2.76,2.36-5.2V67.27c0-4.29-2.55-9.12-5.8-10.99L6.9,0.78
					C5.55-0.14,3.81-0.24,2.37,0.51c-1.5,0.87-2.36,2.76-2.36,5.2v13.24c0,4.28,2.55,9.11,5.8,10.99l96.12,55.49
					c0.8,0.49,1.7,0.76,2.64,0.78C105.22,86.22,105.88,86.04,106.46,85.71z M6.9,28.05c-2.56-1.48-4.72-5.65-4.72-9.1V5.7
					c0-1.61,0.48-2.85,1.27-3.31C4.23,2.06,5.12,2.17,5.8,2.67l96.12,55.49c2.56,1.48,4.72,5.65,4.72,9.11v13.24
					c0,1.61-0.47,2.85-1.28,3.31c-0.78,0.33-1.67,0.22-2.35-0.27L6.9,28.05z"/>
			</g>
			<g id="Groupe_23170" transform="translate(43.758 30.26)">
				<path id="Tracé_24493" class="st0" d="M2.95,6.28l0.58,0.33C4.56,7.2,5.39,6.58,5.39,5.2l0,0C5.37,3.79,4.68,2.46,3.53,1.64
					L2.95,1.31C1.92,0.72,1.09,1.35,1.09,2.72l0,0C1.11,4.14,1.8,5.46,2.95,6.28z"/>
				<path id="Tracé_24494" class="st1" d="M5.29,7.66C6.1,7.12,6.55,6.18,6.48,5.21c-0.02-1.8-0.92-3.48-2.41-4.5L3.5,0.38
					c-0.7-0.45-1.58-0.49-2.31-0.1C0.38,0.82-0.07,1.76,0,2.73c0.02,1.8,0.92,3.48,2.41,4.5l0.58,0.33
					c0.39,0.23,0.83,0.36,1.28,0.37C4.63,7.93,4.98,7.84,5.29,7.66z M3.5,5.34C2.69,4.71,2.21,3.75,2.18,2.73
					c0-0.37,0.11-0.53,0.23-0.46L2.99,2.6C3.8,3.23,4.28,4.19,4.3,5.21c0,0.36-0.09,0.55-0.23,0.46L3.5,5.34L3.5,5.34z"/>
			</g>
			<g id="Groupe_23171" transform="translate(52.258 35.629)">
				<path id="Tracé_24495" class="st1" d="M1.86,5.19l0.58,0.33C3.47,6.11,4.3,5.49,4.3,4.11l0,0C4.28,2.7,3.59,1.37,2.44,0.55
					L1.86,0.22C0.83-0.37,0,0.25,0,1.63l0,0C0.02,3.05,0.71,4.37,1.86,5.19z"/>
			</g>
			<g id="Groupe_23172" transform="translate(73.399 47.375)">
				<path id="Tracé_24496" class="st0" d="M2.96,6.28l0.58,0.33C4.57,7.2,5.4,6.57,5.4,5.2l0,0C5.38,3.79,4.69,2.47,3.54,1.64
					L2.96,1.31C1.93,0.72,1.1,1.34,1.1,2.72l0,0C1.11,4.14,1.8,5.46,2.96,6.28z"/>
				<path id="Tracé_24497" class="st1" d="M5.3,7.66c0.81-0.54,1.26-1.48,1.19-2.45c-0.02-1.8-0.91-3.49-2.41-4.5L3.5,0.38
					c-0.69-0.45-1.58-0.49-2.31-0.1C0.38,0.82-0.08,1.76,0,2.73c0.02,1.8,0.92,3.49,2.41,4.5l0.57,0.33
					c0.39,0.23,0.83,0.36,1.29,0.37C4.63,7.93,4.98,7.83,5.3,7.66z M3.5,5.34C2.69,4.71,2.21,3.75,2.18,2.73
					c0-0.37,0.11-0.53,0.23-0.46L2.98,2.6C3.79,3.23,4.27,4.19,4.3,5.21c0,0.37-0.1,0.54-0.22,0.46L3.5,5.34L3.5,5.34z"/>
			</g>
			<g id="Groupe_23173" transform="translate(81.903 52.746)">
				<path id="Tracé_24498" class="st1" d="M1.86,5.19l0.58,0.33C3.47,6.11,4.3,5.48,4.3,4.11l0,0C4.28,2.7,3.59,1.38,2.44,0.56
					L1.86,0.23C0.83-0.36,0,0.26,0,1.64l0,0C0.02,3.05,0.71,4.37,1.86,5.19z"/>
			</g>
			<g id="Groupe_23174" transform="translate(89.314 57.025)">
				<path id="Tracé_24499" class="st2" d="M1.86,5.19l0.57,0.33c1.03,0.59,1.86-0.04,1.86-1.41l0,0C4.27,2.7,3.58,1.38,2.43,0.55
					L1.86,0.22C0.83-0.37,0,0.25,0,1.63l0,0C0.02,3.05,0.71,4.37,1.86,5.19z"/>
			</g>
			<g id="Groupe_23175" transform="translate(95.633 60.211)">
				<path id="Tracé_24500" class="st0" d="M2.96,6.29l0.57,0.33c1.03,0.59,1.86-0.04,1.86-1.41l0,0C5.37,3.8,4.68,2.48,3.53,1.65
					L2.96,1.32C1.93,0.72,1.1,1.35,1.1,2.73l0,0C1.11,4.14,1.81,5.46,2.96,6.29z"/>
				<path id="Tracé_24501" class="st1" d="M5.29,7.66C6.1,7.12,6.56,6.18,6.48,5.21c-0.02-1.8-0.92-3.48-2.41-4.5L3.49,0.38
					C2.8-0.08,1.91-0.11,1.18,0.28C0.37,0.82-0.09,1.76-0.01,2.73c0.02,1.8,0.92,3.49,2.41,4.5l0.57,0.33
					C3.36,7.79,3.8,7.92,4.26,7.93C4.63,7.93,4.98,7.84,5.29,7.66z M2.41,2.27L2.98,2.6C3.79,3.23,4.27,4.19,4.3,5.21
					c0,0.38-0.1,0.53-0.22,0.47L3.5,5.35C2.69,4.72,2.21,3.76,2.18,2.74c0-0.31,0.06-0.48,0.17-0.48L2.41,2.27z"/>
			</g>
			<g id="Groupe_23176" transform="translate(44.846 40.553)">
				<path id="Tracé_24502" class="st2" d="M1.86,5.19l0.58,0.33C3.47,6.11,4.3,5.48,4.3,4.11l0,0C4.28,2.7,3.59,1.38,2.44,0.55
					L1.86,0.22C0.83-0.38,0,0.25,0,1.63l0,0C0.02,3.05,0.71,4.37,1.86,5.19z"/>
			</g>
			<g id="Groupe_23177" transform="translate(58.581 48.018)">
				<path id="Tracé_24503" class="st0" d="M2.95,6.29l0.58,0.33c1.03,0.6,1.86-0.03,1.86-1.41l0,0C5.37,3.8,4.68,2.47,3.53,1.65
					L2.95,1.32C1.92,0.73,1.09,1.36,1.09,2.73l0,0C1.11,4.14,1.8,5.46,2.95,6.29z"/>
				<path id="Tracé_24504" class="st1" d="M5.29,7.66C6.1,7.12,6.55,6.18,6.48,5.21c-0.01-1.8-0.91-3.48-2.4-4.5L3.5,0.37
					C2.81-0.08,1.92-0.12,1.19,0.28C0.38,0.82-0.07,1.76,0,2.73c0.02,1.8,0.92,3.48,2.41,4.5l0.58,0.33
					c0.39,0.23,0.83,0.36,1.28,0.37C4.63,7.93,4.98,7.84,5.29,7.66z M3.49,5.34C2.68,4.71,2.2,3.75,2.17,2.73
					c0-0.38,0.11-0.53,0.22-0.47l0.58,0.33C3.78,3.22,4.26,4.18,4.28,5.2c0,0.37-0.1,0.54-0.22,0.46L3.49,5.34L3.49,5.34z"/>
			</g>
			<g id="Groupe_23178" transform="translate(67.08 53.389)">
				<path id="Tracé_24505" class="st2" d="M1.86,5.2l0.58,0.33C3.47,6.12,4.3,5.5,4.3,4.12l0,0C4.28,2.71,3.59,1.39,2.44,0.56
					L1.86,0.23C0.83-0.36,0,0.27,0,1.64l0,0C0.02,3.05,0.71,4.37,1.86,5.2z"/>
			</g>
			<g id="Groupe_23179" transform="translate(31.007 25.515)">
				<path id="Tracé_24506" class="st1" d="M8.2,14.66C-1.37,11.11,0.07,0.11,0.08,0l2.17,0.3C2.2,0.68,1.05,9.68,8.96,12.61
					L8.2,14.66z"/>
			</g>
			<g id="Groupe_23180" transform="translate(68.163 46.823)">
				<path id="Tracé_24507" class="st1" d="M15.69,19.08C3.77,16.92,0.15,1.15-0.01,0.48L2.12,0c0.03,0.15,3.47,15.03,13.95,16.93
					L15.69,19.08z"/>
			</g>
			<g id="Groupe_23181" transform="translate(9.069 21.378)">
				<path id="Tracé_24508" class="st1" d="M14.32,10.42C6.9,10.42,0.29,1.71,0,1.31L1.74,0c0.07,0.09,7.04,9.28,13.77,8.14
					l0.37,2.15C15.37,10.38,14.84,10.42,14.32,10.42z"/>
			</g>
			<g id="Groupe_23182" transform="translate(30.023 22.792)">
				<path id="Tracé_24509" class="st2" d="M1.86,5.19l0.58,0.33C3.47,6.11,4.3,5.49,4.3,4.11l0,0C4.28,2.7,3.59,1.37,2.44,0.55
					L1.86,0.22C0.84-0.37,0,0.26,0,1.63l0,0C0.02,3.05,0.71,4.37,1.86,5.19z"/>
			</g>
			<g id="Groupe_23183" transform="translate(65.992 43.094)">
				<path id="Tracé_24510" class="st0" d="M2.95,6.28l0.58,0.33C4.56,7.2,5.39,6.57,5.39,5.2l0,0C5.37,3.79,4.68,2.47,3.53,1.64
					L2.95,1.31C1.92,0.72,1.09,1.34,1.09,2.72l0,0C1.11,4.14,1.8,5.46,2.95,6.28z"/>
				<path id="Tracé_24511" class="st1" d="M5.29,7.66C6.1,7.12,6.56,6.18,6.48,5.21c-0.02-1.8-0.92-3.48-2.41-4.5L3.5,0.38
					c-0.69-0.45-1.58-0.49-2.31-0.1C0.38,0.82-0.07,1.76,0,2.73c0.01,1.8,0.91,3.48,2.4,4.5l0.58,0.33C3.37,7.8,3.82,7.93,4.27,7.93
					C4.63,7.93,4.98,7.84,5.29,7.66z M2.18,2.73c0-0.36,0.07-0.55,0.22-0.46L2.97,2.6c0.81,0.63,1.29,1.59,1.32,2.62
					c0,0.36-0.07,0.54-0.23,0.46L3.48,5.35C2.69,4.71,2.21,3.75,2.18,2.73L2.18,2.73z"/>
			</g>
			<g id="Groupe_23184" transform="translate(7.794 19.159)">
				<path id="Tracé_24512" class="st2" d="M1.87,5.19l0.57,0.33C3.47,6.11,4.3,5.49,4.3,4.11l0,0C4.28,2.7,3.59,1.37,2.44,0.55
					L1.87,0.22C0.84-0.37,0.01,0.25,0.01,1.63l0,0C0.02,3.05,0.71,4.37,1.87,5.19z"/>
			</g>
			<g id="Groupe_23185" transform="translate(22.612 27.718)">
				<path id="Tracé_24513" class="st1" d="M1.86,5.19l0.58,0.33C3.47,6.11,4.3,5.48,4.3,4.11l0,0C4.28,2.7,3.59,1.37,2.44,0.55
					L1.86,0.22C0.83-0.37,0,0.25,0,1.63l0,0C0.02,3.05,0.71,4.37,1.86,5.19z"/>
			</g>
			<g id="Groupe_23186" transform="translate(37.435 36.276)">
				<path id="Tracé_24514" class="st2" d="M1.86,5.19l0.58,0.33C3.47,6.11,4.3,5.48,4.3,4.11l0,0C4.28,2.7,3.59,1.38,2.44,0.56
					L1.86,0.23C0.84-0.36,0,0.26,0,1.64l0,0C0.02,3.05,0.71,4.37,1.86,5.19z"/>
			</g>
			<g id="Groupe_23187" transform="translate(81.903 61.947)">
				<path id="Tracé_24515" class="st2" d="M1.86,5.19l0.58,0.33C3.47,6.11,4.3,5.49,4.3,4.11l0,0C4.28,2.7,3.59,1.38,2.44,0.55
					L1.86,0.22C0.83-0.37,0,0.26,0,1.63l0,0C0.02,3.05,0.71,4.37,1.86,5.19z"/>
			</g>
		</g>
		<g id="Groupe_23215" transform="translate(10.985 251.096)">
			<g id="Groupe_23189">
				<path id="Tracé_24516" class="st0" d="M6.35,28.99l96.12,55.49c2.9,1.68,5.26-0.1,5.26-3.98V67.27c0-3.88-2.36-8.38-5.26-10.05
					L6.35,1.73c-2.9-1.68-5.26,0.1-5.26,3.98v13.24C1.09,22.82,3.45,27.32,6.35,28.99z"/>
				<path id="Tracé_24517" class="st1" d="M106.46,85.71c1.5-0.87,2.36-2.76,2.36-5.2V67.27c0-4.29-2.55-9.12-5.8-11L6.9,0.78
					C5.55-0.14,3.81-0.24,2.37,0.5c-1.5,0.87-2.36,2.76-2.36,5.2v13.24c0,4.29,2.55,9.12,5.8,11l96.12,55.49
					c0.8,0.49,1.7,0.76,2.64,0.78C105.22,86.22,105.88,86.04,106.46,85.71z M6.9,28.05c-2.56-1.48-4.72-5.65-4.72-9.11V5.7
					c0-1.61,0.48-2.85,1.27-3.31C4.23,2.06,5.12,2.17,5.8,2.67l96.12,55.49c2.56,1.48,4.72,5.65,4.72,9.11v13.24
					c0,1.61-0.47,2.85-1.28,3.31c-0.78,0.33-1.67,0.22-2.35-0.28L6.9,28.05z"/>
			</g>
			<g id="Groupe_23190" transform="translate(74.492 48.467)">
				<path id="Tracé_24518" class="st2" d="M2.44,5.52L1.86,5.19C0.71,4.37,0.02,3.05,0,1.63l0,0c0-1.37,0.83-2,1.86-1.41l0.58,0.33
					C3.59,1.38,4.28,2.7,4.3,4.11l0,0C4.3,5.49,3.47,6.12,2.44,5.52z"/>
			</g>
			<g id="Groupe_23191" transform="translate(65.992 43.094)">
				<path id="Tracé_24519" class="st0" d="M3.53,6.62L2.95,6.29C1.8,5.47,1.11,4.15,1.09,2.73l0,0c0-1.37,0.83-2,1.86-1.41
					l0.58,0.33C4.68,2.48,5.37,3.8,5.39,5.21l0,0C5.39,6.58,4.55,7.21,3.53,6.62z"/>
				<path id="Tracé_24520" class="st1" d="M5.29,7.66C6.1,7.12,6.55,6.18,6.48,5.2C6.46,3.4,5.56,1.72,4.07,0.7L3.5,0.37
					c-0.69-0.45-1.58-0.49-2.31-0.1C0.38,0.81-0.08,1.75,0,2.73c0.02,1.8,0.92,3.49,2.41,4.5l0.58,0.33
					C3.38,7.8,3.82,7.92,4.28,7.93C4.63,7.93,4.98,7.84,5.29,7.66z M2.41,2.26l0.57,0.33C3.79,3.22,4.27,4.18,4.3,5.2
					c0,0.35-0.08,0.53-0.04,0.54C4.2,5.73,4.13,5.7,4.08,5.67L3.5,5.34C2.69,4.71,2.21,3.75,2.18,2.73c0-0.31,0.06-0.49,0.16-0.49
					L2.41,2.26z"/>
			</g>
			<g id="Groupe_23192" transform="translate(58.581 38.816)">
				<path id="Tracé_24521" class="st0" d="M3.53,6.62L2.95,6.29C1.8,5.47,1.11,4.15,1.09,2.73l0,0c0-1.37,0.83-2,1.86-1.41
					l0.58,0.33C4.68,2.47,5.37,3.79,5.39,5.2l0,0C5.39,6.58,4.56,7.21,3.53,6.62z"/>
				<path id="Tracé_24522" class="st1" d="M5.29,7.66C6.1,7.12,6.55,6.18,6.48,5.21c-0.02-1.8-0.91-3.48-2.4-4.5L3.5,0.38
					c-0.69-0.46-1.58-0.5-2.31-0.1C0.38,0.82-0.07,1.76,0,2.73c0.02,1.8,0.92,3.48,2.41,4.5l0.58,0.33
					c0.39,0.23,0.83,0.36,1.28,0.37C4.63,7.93,4.98,7.84,5.29,7.66z M2.4,2.26l0.58,0.33c0.81,0.63,1.29,1.59,1.31,2.62
					c0,0.35-0.08,0.52-0.04,0.54C4.18,5.73,4.12,5.71,4.06,5.67L3.48,5.34C2.67,4.71,2.19,3.75,2.16,2.73
					c0-0.31,0.07-0.49,0.17-0.49L2.4,2.26z"/>
			</g>
			<g id="Groupe_23193" transform="translate(52.258 35.631)">
				<path id="Tracé_24523" class="st1" d="M2.44,5.52L1.86,5.19C0.71,4.37,0.02,3.05,0,1.63l0,0c0-1.37,0.83-2,1.86-1.41l0.58,0.33
					C3.59,1.37,4.28,2.69,4.3,4.1l0,0C4.3,5.49,3.47,6.12,2.44,5.52z"/>
			</g>
			<g id="Groupe_23194" transform="translate(36.346 25.979)">
				<path id="Tracé_24524" class="st0" d="M3.53,6.62L2.95,6.29C1.8,5.47,1.11,4.15,1.09,2.73l0,0c0-1.37,0.84-2,1.86-1.41
					l0.58,0.33c1.15,0.82,1.84,2.14,1.86,3.56l0,0C5.39,6.58,4.56,7.21,3.53,6.62z"/>
				<path id="Tracé_24525" class="st1" d="M5.29,7.66C6.1,7.12,6.55,6.18,6.48,5.21c-0.02-1.8-0.91-3.48-2.4-4.5L3.5,0.38
					c-0.69-0.45-1.57-0.49-2.3-0.1C0.39,0.82-0.07,1.76,0.01,2.73c0.02,1.8,0.92,3.49,2.41,4.5l0.57,0.33
					c0.39,0.23,0.83,0.36,1.29,0.37C4.63,7.93,4.98,7.84,5.29,7.66z M2.4,2.26L2.98,2.6C3.79,3.23,4.27,4.19,4.3,5.21
					c0,0.35-0.08,0.52-0.04,0.54C4.19,5.73,4.13,5.71,4.07,5.67L3.49,5.34C2.68,4.71,2.2,3.75,2.18,2.73c0-0.31,0.06-0.49,0.16-0.49
					L2.4,2.26z"/>
			</g>
			<g id="Groupe_23195" transform="translate(22.612 18.515)">
				<path id="Tracé_24526" class="st1" d="M2.44,5.53L1.86,5.2C0.71,4.38,0.02,3.06,0,1.64l0,0c0-1.37,0.84-2,1.86-1.41l0.58,0.33
					C3.59,1.38,4.28,2.7,4.3,4.12l0,0C4.3,5.49,3.47,6.12,2.44,5.53z"/>
			</g>
			<g id="Groupe_23196" transform="translate(15.205 14.236)">
				<path id="Tracé_24527" class="st2" d="M2.44,5.52L1.86,5.19C0.71,4.36,0.02,3.04,0,1.63l0,0c0-1.37,0.83-2,1.86-1.41l0.58,0.33
					C3.59,1.37,4.28,2.69,4.3,4.11l0,0C4.3,5.49,3.46,6.12,2.44,5.52z"/>
			</g>
			<g id="Groupe_23197" transform="translate(6.7 8.865)">
				<path id="Tracé_24528" class="st0" d="M3.53,6.62L2.96,6.29C1.81,5.47,1.12,4.15,1.1,2.73l0,0c0-1.37,0.83-2,1.86-1.41
					l0.57,0.33c1.15,0.82,1.84,2.14,1.86,3.56l0,0C5.39,6.58,4.56,7.21,3.53,6.62z"/>
				<path id="Tracé_24529" class="st1" d="M5.29,7.66C6.1,7.12,6.56,6.18,6.48,5.21c-0.02-1.8-0.92-3.49-2.41-4.5L3.49,0.37
					c-0.7-0.45-1.58-0.49-2.31-0.1C0.37,0.82-0.08,1.75-0.01,2.73c0.02,1.8,0.92,3.48,2.41,4.5l0.58,0.33
					c0.39,0.23,0.83,0.36,1.29,0.37C4.63,7.93,4.98,7.84,5.29,7.66z M3.5,5.34C2.69,4.71,2.21,3.76,2.18,2.73
					c0-0.37,0.08-0.55,0.23-0.47l0.58,0.33C3.8,3.22,4.28,4.18,4.31,5.2c0,0.35-0.08,0.53-0.04,0.54C4.2,5.73,4.14,5.7,4.08,5.66
					L3.5,5.34z"/>
			</g>
			<g id="Groupe_23198" transform="translate(88.226 65.135)">
				<path id="Tracé_24530" class="st0" d="M3.52,6.62L2.95,6.29C1.8,5.47,1.11,4.15,1.09,2.73l0,0c0-1.37,0.83-2,1.86-1.41
					l0.57,0.33c1.15,0.82,1.84,2.14,1.86,3.56l0,0C5.38,6.57,4.55,7.21,3.52,6.62z"/>
				<path id="Tracé_24531" class="st1" d="M5.29,7.66C6.1,7.12,6.55,6.18,6.48,5.21c-0.02-1.8-0.92-3.48-2.41-4.5L3.49,0.38
					C2.8-0.08,1.91-0.11,1.18,0.28C0.37,0.82-0.08,1.76-0.01,2.73c0.02,1.8,0.92,3.49,2.41,4.5l0.57,0.33
					C3.36,7.79,3.8,7.92,4.26,7.93C4.63,7.93,4.98,7.84,5.29,7.66z M2.4,2.26L2.98,2.6C3.79,3.23,4.27,4.19,4.3,5.21
					c0,0.35-0.08,0.52-0.04,0.54C4.19,5.73,4.13,5.71,4.07,5.67L3.49,5.34C2.68,4.71,2.2,3.75,2.18,2.73c0-0.31,0.06-0.49,0.16-0.49
					C2.36,2.24,2.38,2.25,2.4,2.26L2.4,2.26z"/>
			</g>
			<g id="Groupe_23199" transform="translate(96.726 70.507)">
				<path id="Tracé_24532" class="st2" d="M2.44,5.53L1.87,5.2C0.72,4.38,0.03,3.06,0.01,1.64l0,0c0-1.37,0.83-2,1.86-1.41
					l0.57,0.33C3.59,1.38,4.28,2.7,4.3,4.12l0,0C4.3,5.49,3.47,6.12,2.44,5.53z"/>
			</g>
			<g id="Groupe_23200" transform="translate(81.903 61.949)">
				<path id="Tracé_24533" class="st1" d="M2.44,5.53L1.86,5.2C0.71,4.38,0.02,3.06,0,1.64l0,0c0-1.37,0.83-2,1.86-1.41l0.58,0.33
					C3.59,1.39,4.28,2.71,4.3,4.12l0,0C4.3,5.49,3.47,6.12,2.44,5.53z"/>
			</g>
			<g id="Groupe_23201" transform="translate(73.399 56.578)">
				<path id="Tracé_24534" class="st0" d="M3.53,6.62L2.95,6.29C1.8,5.47,1.11,4.15,1.09,2.73l0,0c0-1.37,0.83-2,1.86-1.41
					l0.58,0.33c1.15,0.82,1.84,2.14,1.86,3.56l0,0C5.4,6.58,4.56,7.21,3.53,6.62z"/>
				<path id="Tracé_24535" class="st1" d="M5.3,7.66c0.81-0.54,1.26-1.48,1.19-2.45c-0.02-1.8-0.92-3.48-2.41-4.5L3.5,0.38
					c-0.69-0.45-1.58-0.49-2.31-0.1C0.38,0.82-0.08,1.76,0,2.73c0.02,1.8,0.92,3.49,2.41,4.5l0.57,0.33
					c0.39,0.23,0.83,0.36,1.29,0.37C4.63,7.93,4.98,7.84,5.3,7.66z M2.4,2.26L2.98,2.6C3.79,3.23,4.27,4.19,4.3,5.21
					c0,0.35-0.08,0.52-0.04,0.54C4.19,5.74,4.13,5.71,4.07,5.67L3.49,5.34C2.68,4.71,2.2,3.75,2.17,2.73c0-0.31,0.06-0.48,0.17-0.48
					L2.4,2.26z"/>
			</g>
			<g id="Groupe_23202" transform="translate(67.08 53.391)">
				<path id="Tracé_24536" class="st2" d="M2.44,5.52L1.86,5.19C0.71,4.37,0.02,3.05,0,1.63l0,0c0-1.37,0.83-2,1.86-1.41l0.58,0.33
					C3.59,1.37,4.28,2.69,4.3,4.11l0,0C4.3,5.49,3.46,6.12,2.44,5.52z"/>
			</g>
			<g id="Groupe_23203" transform="translate(43.758 39.462)">
				<path id="Tracé_24537" class="st0" d="M3.53,6.62L2.95,6.29C1.8,5.47,1.11,4.15,1.09,2.74l0,0c0-1.37,0.83-2,1.86-1.41
					l0.58,0.33c1.15,0.82,1.84,2.15,1.86,3.56l0,0C5.39,6.58,4.56,7.21,3.53,6.62z"/>
				<path id="Tracé_24538" class="st1" d="M5.29,7.66C6.1,7.12,6.55,6.18,6.48,5.21c-0.01-1.8-0.91-3.48-2.4-4.5L3.5,0.37
					C2.8-0.08,1.92-0.12,1.19,0.28C0.38,0.82-0.07,1.76,0,2.73c0.02,1.8,0.92,3.49,2.41,4.5l0.58,0.33
					c0.39,0.23,0.83,0.36,1.28,0.37C4.63,7.93,4.98,7.84,5.29,7.66z M3.5,5.34C2.69,4.71,2.21,3.76,2.18,2.73
					c0-0.37,0.08-0.55,0.23-0.47l0.58,0.33C3.8,3.22,4.28,4.18,4.3,5.2c0,0.35-0.08,0.52-0.04,0.54C4.19,5.73,4.13,5.7,4.07,5.66
					L3.5,5.34z"/>
			</g>
			<g id="Groupe_23204" transform="translate(37.435 36.274)">
				<path id="Tracé_24539" class="st2" d="M2.44,5.52L1.86,5.19C0.71,4.36,0.02,3.04,0,1.63l0,0c0-1.37,0.84-2,1.86-1.41l0.58,0.33
					C3.59,1.37,4.28,2.69,4.3,4.11l0,0C4.3,5.49,3.47,6.12,2.44,5.52z"/>
			</g>
			<g id="Groupe_23205" transform="translate(30.023 31.995)">
				<path id="Tracé_24540" class="st1" d="M2.44,5.52L1.86,5.19C0.71,4.36,0.02,3.04,0,1.63l0,0c0-1.37,0.84-2,1.86-1.41l0.58,0.33
					C3.59,1.37,4.28,2.69,4.3,4.11l0,0C4.3,5.49,3.47,6.12,2.44,5.52z"/>
			</g>
			<g id="Groupe_23206" transform="translate(45.905 34.159)">
				<path id="Tracé_24541" class="st1" d="M15.77,18.91C15.62,18.89,1,16.74,0,0.14l2.18-0.13c0.89,14.83,13.75,16.73,13.88,16.74
					L15.77,18.91z"/>
			</g>
			<g id="Groupe_23207" transform="translate(83.138 55.021)">
				<path id="Tracé_24542" class="st1" d="M13.18,10.73c-3.04,0-7.97-1.54-13.18-9.54L1.83,0c7.16,10.99,13.18,8.3,13.43,8.18
					l0.98,1.95C15.27,10.55,14.23,10.76,13.18,10.73z"/>
			</g>
			<g id="Groupe_23208" transform="translate(95.633 60.212)">
				<path id="Tracé_24543" class="st0" d="M3.53,6.61L2.96,6.28C1.81,5.46,1.12,4.14,1.1,2.73l0,0c0-1.37,0.83-2,1.86-1.41
					l0.57,0.33c1.15,0.82,1.84,2.14,1.86,3.56l0,0C5.39,6.58,4.56,7.21,3.53,6.61z"/>
				<path id="Tracé_24544" class="st1" d="M5.29,7.66C6.1,7.12,6.56,6.18,6.48,5.21c-0.02-1.8-0.92-3.48-2.41-4.5L3.49,0.38
					c-0.69-0.46-1.58-0.5-2.31-0.1C0.37,0.82-0.08,1.76-0.01,2.73c0.02,1.8,0.92,3.49,2.41,4.5l0.57,0.33
					C3.36,7.79,3.8,7.92,4.26,7.93C4.63,7.93,4.98,7.84,5.29,7.66z M2.41,2.26l0.57,0.33C3.79,3.22,4.27,4.18,4.3,5.2
					c0,0.35-0.08,0.52-0.04,0.54C4.19,5.72,4.13,5.7,4.07,5.66L3.49,5.33C2.68,4.7,2.2,3.74,2.17,2.71c0-0.3,0.06-0.48,0.17-0.48
					L2.41,2.26z"/>
			</g>
			<g id="Groupe_23209" transform="translate(80.815 51.655)">
				<path id="Tracé_24545" class="st0" d="M3.53,6.61L2.95,6.28C1.8,5.45,1.11,4.13,1.09,2.72l0,0c0-1.37,0.83-2,1.86-1.41
					l0.58,0.33C4.68,2.47,5.37,3.79,5.39,5.2l0,0C5.39,6.58,4.55,7.21,3.53,6.61z"/>
				<path id="Tracé_24546" class="st1" d="M5.29,7.65C6.1,7.11,6.56,6.17,6.48,5.2c-0.02-1.8-0.91-3.48-2.4-4.5L3.5,0.36
					C2.8-0.09,1.92-0.13,1.19,0.27C0.38,0.81-0.07,1.75,0,2.72c0.02,1.8,0.92,3.48,2.41,4.5l0.57,0.33
					c0.39,0.23,0.83,0.36,1.29,0.37C4.63,7.92,4.98,7.83,5.29,7.65z M2.4,2.25l0.58,0.33C3.79,3.21,4.27,4.17,4.3,5.19
					c0,0.35-0.08,0.52-0.04,0.54C4.2,5.72,4.13,5.69,4.08,5.66L3.5,5.33C2.69,4.7,2.2,3.74,2.18,2.72c0-0.31,0.07-0.49,0.17-0.49
					L2.4,2.25z"/>
			</g>
			<g id="Groupe_23210" transform="translate(43.758 30.259)">
				<path id="Tracé_24547" class="st0" d="M3.53,6.62L2.95,6.29C1.8,5.47,1.11,4.15,1.09,2.73l0,0c0-1.37,0.83-2,1.86-1.41
					l0.58,0.33c1.15,0.82,1.84,2.14,1.86,3.56l0,0C5.39,6.58,4.56,7.21,3.53,6.62z"/>
				<path id="Tracé_24548" class="st1" d="M5.29,7.66C6.1,7.12,6.55,6.18,6.48,5.2c-0.01-1.8-0.91-3.48-2.4-4.5L3.5,0.37
					c-0.69-0.46-1.58-0.49-2.31-0.1C0.38,0.81-0.07,1.75,0,2.72c0.02,1.8,0.92,3.48,2.41,4.5l0.58,0.33
					c0.39,0.23,0.83,0.36,1.28,0.37C4.63,7.93,4.98,7.84,5.29,7.66z M2.41,2.26L2.99,2.6C3.8,3.23,4.28,4.19,4.3,5.21
					c0,0.35-0.08,0.53-0.04,0.54C4.19,5.74,4.13,5.71,4.07,5.68L3.5,5.35C2.69,4.72,2.21,3.76,2.18,2.74c0-0.31,0.06-0.48,0.16-0.48
					L2.41,2.26z"/>
			</g>
			<g id="Groupe_23211" transform="translate(59.669 49.112)">
				<path id="Tracé_24549" class="st2" d="M2.44,5.52L1.86,5.19C0.71,4.37,0.02,3.05,0,1.63l0,0c0-1.37,0.83-2,1.86-1.41l0.58,0.33
					C3.59,1.37,4.28,2.69,4.3,4.11l0,0C4.3,5.49,3.47,6.12,2.44,5.52z"/>
			</g>
			<g id="Groupe_23212" transform="translate(9.014 21.459)">
				<path id="Tracé_24550" class="st1" d="M13.31,10.6C10.19,10.6,4.97,9.15,0,1.15L1.85,0c6.61,10.62,13.22,8.23,13.49,8.12
					l0.81,2.03C15.25,10.47,14.28,10.62,13.31,10.6z"/>
			</g>
			<g id="Groupe_23213" transform="translate(22.612 27.718)">
				<path id="Tracé_24551" class="st2" d="M2.44,5.52L1.86,5.19C0.71,4.36,0.02,3.05,0,1.63l0,0c0-1.37,0.84-2,1.86-1.41l0.58,0.33
					C3.59,1.37,4.28,2.69,4.3,4.11l0,0C4.3,5.49,3.47,6.12,2.44,5.52z"/>
			</g>
			<g id="Groupe_23214" transform="translate(6.7 18.07)">
				<path id="Tracé_24552" class="st0" d="M3.53,6.62L2.96,6.29C1.81,5.47,1.12,4.15,1.1,2.73l0,0c0-1.37,0.83-2,1.86-1.41
					l0.57,0.33C4.68,2.47,5.37,3.79,5.39,5.2l0,0C5.39,6.57,4.56,7.21,3.53,6.62z"/>
				<path id="Tracé_24553" class="st1" d="M5.29,7.66C6.1,7.12,6.56,6.18,6.48,5.2C6.46,3.4,5.56,1.71,4.07,0.7L3.5,0.37
					c-0.7-0.45-1.58-0.49-2.31-0.1C0.38,0.81-0.07,1.75,0,2.72c0.01,1.8,0.91,3.49,2.41,4.5l0.58,0.34
					c0.39,0.23,0.83,0.36,1.29,0.37C4.63,7.93,4.98,7.84,5.29,7.66z M3.5,5.34C2.69,4.71,2.21,3.75,2.18,2.73
					c0-0.37,0.11-0.54,0.23-0.46L2.99,2.6C3.8,3.23,4.28,4.19,4.31,5.21c0,0.35-0.08,0.53-0.04,0.54C4.2,5.73,4.14,5.71,4.08,5.67
					L3.5,5.34z"/>
			</g>
		</g>
		<g id="Groupe_23237" transform="translate(10.985 325.716)">
			<g id="Groupe_23216">
				<path id="Tracé_24554" class="st0" d="M6.35,28.99l96.12,55.5c2.9,1.68,5.26-0.1,5.26-3.98V67.27c0-3.87-2.36-8.37-5.26-10.05
					L6.35,1.72c-2.9-1.68-5.26,0.1-5.26,3.98v13.24C1.09,22.82,3.45,27.32,6.35,28.99z"/>
				<path id="Tracé_24555" class="st1" d="M106.46,85.71c1.5-0.87,2.36-2.76,2.36-5.2V67.27c0-4.28-2.55-9.12-5.8-10.99L6.9,0.79
					C5.55-0.13,3.81-0.23,2.37,0.52c-1.5,0.87-2.36,2.76-2.36,5.2v13.24c0,4.28,2.55,9.12,5.8,10.99l96.12,55.5
					c0.8,0.48,1.71,0.75,2.64,0.77C105.22,86.22,105.88,86.05,106.46,85.71z M6.9,28.05c-2.56-1.48-4.72-5.64-4.72-9.1V5.71
					c0-1.61,0.48-2.85,1.27-3.31C4.23,2.07,5.12,2.18,5.8,2.68l96.12,55.5c2.56,1.47,4.72,5.64,4.72,9.1v13.24
					c0,1.61-0.47,2.85-1.28,3.31c-0.78,0.33-1.67,0.22-2.35-0.27L6.9,28.05z"/>
			</g>
			<g id="Groupe_23217" transform="translate(74.492 48.468)">
				<path id="Tracé_24556" class="st2" d="M2.44,5.53L1.86,5.2C0.71,4.38,0.02,3.06,0,1.64l0,0c0-1.37,0.83-2,1.86-1.41l0.58,0.33
					C3.59,1.38,4.28,2.7,4.3,4.12l0,0C4.3,5.49,3.47,6.12,2.44,5.53z"/>
			</g>
			<g id="Groupe_23218" transform="translate(65.992 43.098)">
				<path id="Tracé_24557" class="st0" d="M3.53,6.62L2.95,6.29C1.8,5.47,1.11,4.15,1.09,2.73l0,0c0-1.37,0.83-2,1.86-1.41
					l0.58,0.33c1.15,0.82,1.84,2.14,1.86,3.56l0,0C5.39,6.58,4.55,7.21,3.53,6.62z"/>
				<path id="Tracé_24558" class="st1" d="M5.29,7.66C6.1,7.12,6.55,6.18,6.48,5.21c-0.02-1.8-0.92-3.48-2.41-4.5L3.5,0.38
					c-0.69-0.45-1.58-0.49-2.31-0.1C0.38,0.82-0.07,1.76,0,2.73c0.02,1.8,0.92,3.49,2.41,4.5l0.58,0.33
					c0.39,0.23,0.83,0.36,1.29,0.37C4.63,7.93,4.99,7.84,5.29,7.66z M2.41,2.26l0.57,0.33C3.79,3.22,4.27,4.18,4.3,5.2
					c0,0.35-0.08,0.52-0.04,0.54C4.2,5.73,4.13,5.7,4.08,5.66L3.5,5.33C2.69,4.7,2.21,3.74,2.18,2.71c0-0.31,0.06-0.48,0.16-0.48
					L2.41,2.26z"/>
			</g>
			<g id="Groupe_23219" transform="translate(59.669 39.91)">
				<path id="Tracé_24559" class="st2" d="M2.44,5.53L1.86,5.2C0.71,4.38,0.02,3.06,0,1.64l0,0c0-1.37,0.83-2,1.86-1.41l0.58,0.33
					C3.59,1.38,4.28,2.7,4.3,4.12l0,0C4.3,5.49,3.47,6.12,2.44,5.53z"/>
			</g>
			<g id="Groupe_23220" transform="translate(52.258 35.631)">
				<path id="Tracé_24560" class="st1" d="M2.44,5.52L1.86,5.19C0.71,4.37,0.02,3.05,0,1.63l0,0c0-1.37,0.83-2,1.86-1.41l0.58,0.33
					C3.59,1.37,4.28,2.69,4.3,4.11l0,0C4.3,5.49,3.47,6.12,2.44,5.52z"/>
			</g>
			<g id="Groupe_23221" transform="translate(22.612 18.517)">
				<path id="Tracé_24561" class="st1" d="M2.44,5.53L1.86,5.2C0.71,4.37,0.02,3.05,0,1.64l0,0c0-1.37,0.84-2,1.86-1.41l0.58,0.33
					C3.59,1.39,4.28,2.7,4.3,4.12l0,0C4.3,5.49,3.47,6.12,2.44,5.53z"/>
			</g>
			<g id="Groupe_23222" transform="translate(15.205 14.237)">
				<path id="Tracé_24562" class="st2" d="M2.44,5.53L1.86,5.2C0.71,4.37,0.02,3.05,0,1.64l0,0c0-1.37,0.83-2,1.86-1.41l0.58,0.33
					C3.59,1.38,4.28,2.7,4.3,4.12l0,0C4.3,5.49,3.46,6.12,2.44,5.53z"/>
			</g>
			<g id="Groupe_23223" transform="translate(96.726 70.507)">
				<path id="Tracé_24563" class="st2" d="M2.44,5.52L1.87,5.19C0.72,4.37,0.03,3.05,0.01,1.64l0,0c0-1.37,0.83-2,1.86-1.41
					l0.57,0.33C3.59,1.38,4.28,2.7,4.3,4.12l0,0C4.3,5.48,3.47,6.12,2.44,5.52z"/>
			</g>
			<g id="Groupe_23224" transform="translate(81.903 61.949)">
				<path id="Tracé_24564" class="st1" d="M2.44,5.52L1.86,5.19C0.71,4.37,0.02,3.05,0,1.63l0,0c0-1.37,0.83-2,1.86-1.41l0.58,0.33
					C3.59,1.38,4.28,2.7,4.3,4.11l0,0C4.3,5.49,3.47,6.12,2.44,5.52z"/>
			</g>
			<g id="Groupe_23225" transform="translate(67.08 53.392)">
				<path id="Tracé_24565" class="st2" d="M2.44,5.53L1.86,5.2C0.71,4.38,0.02,3.06,0,1.64l0,0c0-1.37,0.83-2,1.86-1.41l0.58,0.33
					C3.59,1.39,4.28,2.71,4.3,4.12l0,0C4.3,5.49,3.46,6.12,2.44,5.53z"/>
			</g>
			<g id="Groupe_23226" transform="translate(37.435 36.278)">
				<path id="Tracé_24566" class="st2" d="M2.44,5.53L1.86,5.2C0.71,4.38,0.02,3.06,0,1.64l0,0c0-1.37,0.84-2,1.86-1.41l0.58,0.33
					C3.59,1.38,4.28,2.7,4.3,4.12l0,0C4.3,5.49,3.47,6.12,2.44,5.53z"/>
			</g>
			<g id="Groupe_23227" transform="translate(30.023 31.998)">
				<path id="Tracé_24567" class="st1" d="M2.44,5.53L1.86,5.2C0.71,4.38,0.02,3.06,0,1.64l0,0c0-1.37,0.84-2,1.86-1.41l0.58,0.33
					C3.59,1.38,4.28,2.7,4.3,4.12l0,0C4.3,5.49,3.47,6.12,2.44,5.53z"/>
			</g>
			<g id="Groupe_23228" transform="translate(43.758 30.26)">
				<path id="Tracé_24568" class="st0" d="M3.53,6.62L2.95,6.29C1.8,5.47,1.11,4.15,1.09,2.74l0,0c0-1.37,0.83-2,1.86-1.41
					l0.58,0.33C4.68,2.48,5.37,3.8,5.39,5.22l0,0C5.39,6.58,4.56,7.21,3.53,6.62z"/>
				<path id="Tracé_24569" class="st1" d="M5.29,7.66C6.1,7.12,6.55,6.18,6.48,5.21c-0.01-1.8-0.91-3.48-2.4-4.5L3.5,0.37
					c-0.7-0.45-1.58-0.49-2.31-0.1C0.38,0.82-0.07,1.75,0,2.73c0.01,1.8,0.91,3.49,2.41,4.5l0.58,0.33
					c0.39,0.23,0.83,0.36,1.28,0.37C4.63,7.93,4.98,7.84,5.29,7.66z M2.41,2.26l0.58,0.33C3.8,3.22,4.28,4.18,4.3,5.2
					c0,0.35-0.08,0.52-0.04,0.54C4.19,5.73,4.13,5.7,4.07,5.66L3.5,5.33C2.69,4.7,2.21,3.74,2.18,2.72c0-0.31,0.06-0.49,0.16-0.49
					L2.41,2.26z"/>
			</g>
			<g id="Groupe_23229" transform="translate(59.669 49.115)">
				<path id="Tracé_24570" class="st2" d="M2.44,5.53L1.86,5.2C0.71,4.38,0.02,3.06,0,1.64l0,0c0-1.37,0.83-2,1.86-1.41l0.58,0.33
					C3.59,1.38,4.28,2.7,4.3,4.11l0,0C4.3,5.49,3.47,6.12,2.44,5.53z"/>
			</g>
			<g id="Groupe_23230" transform="translate(22.612 27.72)">
				<path id="Tracé_24571" class="st2" d="M2.44,5.52L1.86,5.19C0.71,4.37,0.02,3.05,0,1.63l0,0c0-1.37,0.84-2,1.86-1.41l0.58,0.33
					C3.59,1.37,4.28,2.69,4.3,4.11l0,0C4.3,5.49,3.47,6.11,2.44,5.52z"/>
			</g>
			<g id="Groupe_23231" transform="translate(6.7 18.069)">
				<path id="Tracé_24572" class="st0" d="M3.53,6.62L2.96,6.29C1.81,5.47,1.12,4.15,1.1,2.73l0,0c0-1.37,0.83-2,1.86-1.41
					l0.57,0.33c1.15,0.82,1.84,2.14,1.86,3.56l0,0C5.39,6.58,4.56,7.21,3.53,6.62z"/>
				<path id="Tracé_24573" class="st1" d="M5.29,7.66C6.1,7.12,6.56,6.18,6.48,5.21c-0.02-1.8-0.92-3.49-2.41-4.5L3.49,0.37
					c-0.7-0.45-1.58-0.49-2.31-0.1C0.37,0.81-0.08,1.75-0.01,2.72c0.02,1.8,0.92,3.48,2.41,4.5l0.58,0.33
					c0.39,0.23,0.83,0.36,1.29,0.37C4.63,7.93,4.98,7.84,5.29,7.66z M3.5,5.34C2.69,4.71,2.21,3.75,2.18,2.73
					c0-0.36,0.08-0.54,0.23-0.46L2.99,2.6C3.8,3.23,4.28,4.19,4.31,5.21c0,0.35-0.08,0.53-0.04,0.54C4.2,5.74,4.14,5.71,4.08,5.67
					L3.5,5.34z"/>
			</g>
			<g id="Groupe_23232" transform="translate(83.069 55.147)">
				<path id="Tracé_24574" class="st1" d="M11.53,12.06c-0.28,0-0.57-0.02-0.85-0.06C6.89,11.51,3.3,7.79,0,0.95L1.97,0
					c3.68,7.64,6.93,9.57,9,9.84c1.5,0.16,2.99-0.4,4.02-1.51l1.66,1.42C15.32,11.18,13.48,12.01,11.53,12.06z"/>
			</g>
			<g id="Groupe_23233" transform="translate(23.823 20.84)">
				<path id="Tracé_24575" class="st1" d="M12.45,11.1c-0.59,0-1.18-0.06-1.76-0.19c-3.8-0.81-7.4-4.12-10.7-9.81L1.88,0
					c2.94,5.07,6.14,8.11,9.26,8.78c1.35,0.34,2.77,0.14,3.97-0.56l1.28,1.77C15.22,10.74,13.85,11.13,12.45,11.1z"/>
			</g>
			<g id="Groupe_23234" transform="translate(37.435 27.073)">
				<path id="Tracé_24576" class="st2" d="M2.44,5.52L1.86,5.19C0.71,4.37,0.02,3.05,0,1.64l0,0c0-1.37,0.84-2,1.86-1.41l0.58,0.33
					C3.59,1.38,4.28,2.7,4.3,4.12l0,0C4.3,5.49,3.47,6.12,2.44,5.52z"/>
			</g>
			<g id="Groupe_23235" transform="translate(95.633 60.211)">
				<path id="Tracé_24577" class="st0" d="M3.53,6.62L2.96,6.29C1.81,5.47,1.12,4.15,1.1,2.73l0,0c0-1.37,0.83-2,1.86-1.41
					l0.57,0.33c1.15,0.82,1.84,2.14,1.86,3.56l0,0C5.39,6.58,4.56,7.21,3.53,6.62z"/>
				<path id="Tracé_24578" class="st1" d="M5.3,7.66c0.81-0.54,1.26-1.48,1.19-2.45c-0.01-1.8-0.91-3.49-2.41-4.5L3.5,0.38
					c-0.69-0.46-1.58-0.5-2.31-0.1C0.38,0.82-0.08,1.76,0,2.73c0.02,1.8,0.92,3.48,2.41,4.5l0.58,0.33
					c0.39,0.23,0.83,0.36,1.29,0.37C4.63,7.93,4.99,7.84,5.3,7.66z M3.5,5.34C2.69,4.71,2.21,3.75,2.18,2.73
					c0-0.37,0.11-0.53,0.23-0.46L2.98,2.6C3.79,3.23,4.27,4.19,4.3,5.22c0,0.35-0.08,0.52-0.04,0.54C4.19,5.74,4.13,5.72,4.07,5.68
					L3.5,5.34z"/>
			</g>
			<g id="Groupe_23236" transform="translate(80.815 51.654)">
				<path id="Tracé_24579" class="st0" d="M3.53,6.62L2.95,6.29C1.8,5.47,1.11,4.15,1.09,2.73l0,0c0-1.37,0.83-2,1.86-1.41
					l0.58,0.33C4.68,2.48,5.37,3.8,5.39,5.21l0,0C5.39,6.58,4.55,7.21,3.53,6.62z"/>
				<path id="Tracé_24580" class="st1" d="M5.29,7.66C6.1,7.12,6.56,6.18,6.48,5.21c-0.02-1.8-0.92-3.48-2.41-4.5L3.5,0.38
					c-0.69-0.46-1.58-0.49-2.31-0.1C0.38,0.82-0.07,1.76,0,2.73c0.02,1.8,0.92,3.48,2.41,4.5l0.57,0.33
					C3.37,7.8,3.81,7.93,4.27,7.93C4.63,7.93,4.98,7.84,5.29,7.66z M2.41,2.26l0.57,0.33C3.79,3.22,4.27,4.18,4.3,5.21
					c0,0.35-0.08,0.52-0.04,0.54C4.2,5.73,4.14,5.71,4.08,5.67L3.5,5.34C2.69,4.71,2.2,3.75,2.18,2.73c0-0.31,0.07-0.48,0.17-0.48
					L2.41,2.26z"/>
			</g>
		</g>
		<g id="Groupe_23257" transform="translate(10.985 138.829)">
			<g id="Groupe_23238">
				<path id="Tracé_24581" class="st0" d="M6.35,28.99l96.12,55.5c2.9,1.68,5.26-0.1,5.26-3.98V67.27c0-3.87-2.36-8.37-5.26-10.05
					L6.35,1.72c-2.9-1.68-5.26,0.1-5.26,3.98v13.24C1.09,22.82,3.45,27.32,6.35,28.99z"/>
				<path id="Tracé_24582" class="st1" d="M106.46,85.71c1.5-0.87,2.36-2.76,2.36-5.2V67.27c0-4.28-2.55-9.12-5.8-10.99L6.9,0.78
					C5.55-0.14,3.81-0.24,2.37,0.51c-1.5,0.87-2.36,2.76-2.36,5.2v13.24c0,4.28,2.55,9.12,5.8,10.99l96.12,55.49
					c0.8,0.49,1.7,0.76,2.64,0.78C105.22,86.22,105.88,86.05,106.46,85.71z M6.9,28.05c-2.56-1.48-4.72-5.64-4.72-9.1V5.7
					c0-1.61,0.48-2.85,1.27-3.31C4.23,2.07,5.12,2.17,5.8,2.67l96.12,55.49c2.56,1.48,4.72,5.65,4.72,9.11v13.24
					c0,1.61-0.47,2.85-1.28,3.31c-0.78,0.32-1.67,0.22-2.35-0.27L6.9,28.05z"/>
			</g>
			<g id="Groupe_23239" transform="translate(58.581 38.817)">
				<path id="Tracé_24583" class="st0" d="M3.53,6.62L2.95,6.29C1.8,5.47,1.11,4.15,1.09,2.73l0,0c0-1.37,0.83-2,1.86-1.41
					l0.58,0.33c1.15,0.82,1.84,2.14,1.86,3.56l0,0C5.39,6.58,4.56,7.21,3.53,6.62z"/>
				<path id="Tracé_24584" class="st1" d="M5.29,7.66C6.1,7.12,6.55,6.18,6.48,5.21c-0.02-1.8-0.91-3.48-2.4-4.5L3.5,0.38
					c-0.69-0.45-1.58-0.49-2.31-0.1C0.38,0.82-0.07,1.76,0,2.73c0.02,1.8,0.91,3.48,2.4,4.5l0.58,0.33
					c0.39,0.23,0.83,0.36,1.28,0.37C4.63,7.93,4.98,7.84,5.29,7.66z M3.49,5.34C2.68,4.71,2.2,3.75,2.17,2.73
					c0-0.37,0.08-0.54,0.22-0.46L2.97,2.6c0.81,0.63,1.29,1.59,1.31,2.61c0,0.35-0.08,0.53-0.04,0.54C4.17,5.74,4.11,5.71,4.05,5.67
					L3.49,5.34z"/>
			</g>
			<g id="Groupe_23240" transform="translate(52.258 35.63)">
				<path id="Tracé_24585" class="st1" d="M2.44,5.53L1.86,5.2C0.71,4.38,0.02,3.06,0,1.64l0,0c0-1.37,0.83-2,1.86-1.41l0.58,0.33
					C3.59,1.38,4.28,2.7,4.3,4.12l0,0C4.3,5.49,3.47,6.12,2.44,5.53z"/>
			</g>
			<g id="Groupe_23241" transform="translate(28.935 21.701)">
				<path id="Tracé_24586" class="st0" d="M3.53,6.61L2.95,6.28C1.8,5.46,1.11,4.14,1.09,2.73l0,0c0-1.37,0.84-2,1.86-1.41
					l0.58,0.33c1.15,0.82,1.84,2.14,1.86,3.56l0,0C5.39,6.58,4.56,7.21,3.53,6.61z"/>
				<path id="Tracé_24587" class="st1" d="M5.29,7.67C6.1,7.13,6.56,6.19,6.48,5.21c-0.02-1.8-0.92-3.48-2.41-4.5L3.5,0.38
					c-0.69-0.46-1.58-0.5-2.31-0.1C0.38,0.82-0.07,1.76,0,2.73c0.02,1.8,0.92,3.49,2.41,4.5l0.57,0.33C3.37,7.8,3.82,7.92,4.27,7.93
					C4.63,7.94,4.98,7.85,5.29,7.67z M3.5,5.35C2.69,4.72,2.21,3.76,2.18,2.74c0-0.38,0.1-0.54,0.23-0.47L2.98,2.6
					C3.79,3.23,4.27,4.19,4.3,5.21c0,0.35-0.08,0.53-0.04,0.54C4.2,5.74,4.13,5.71,4.08,5.68L3.5,5.35z"/>
			</g>
			<g id="Groupe_23242" transform="translate(22.612 18.513)">
				<path id="Tracé_24588" class="st1" d="M2.44,5.52L1.86,5.19C0.71,4.36,0.02,3.04,0,1.63l0,0c0-1.37,0.84-2,1.86-1.41l0.58,0.33
					C3.59,1.37,4.28,2.69,4.3,4.11l0,0C4.3,5.49,3.47,6.12,2.44,5.52z"/>
			</g>
			<g id="Groupe_23243" transform="translate(15.205 14.236)">
				<path id="Tracé_24589" class="st2" d="M2.44,5.53L1.86,5.2C0.71,4.37,0.02,3.05,0,1.64l0,0c0-1.37,0.83-2,1.86-1.41l0.58,0.33
					C3.59,1.38,4.28,2.7,4.3,4.12l0,0C4.3,5.49,3.46,6.12,2.44,5.53z"/>
			</g>
			<g id="Groupe_23244" transform="translate(6.7 8.867)">
				<path id="Tracé_24590" class="st0" d="M3.53,6.62L2.96,6.29C1.81,5.47,1.12,4.15,1.1,2.73l0,0c0-1.37,0.83-2,1.86-1.41
					l0.57,0.33C4.68,2.47,5.37,3.79,5.39,5.2l0,0C5.39,6.58,4.56,7.21,3.53,6.62z"/>
				<path id="Tracé_24591" class="st1" d="M5.29,7.66C6.1,7.12,6.55,6.18,6.48,5.2C6.46,3.4,5.56,1.71,4.07,0.7L3.5,0.37
					c-0.7-0.45-1.58-0.49-2.31-0.1C0.38,0.81-0.07,1.75,0,2.72c0.01,1.8,0.91,3.49,2.41,4.5l0.58,0.34
					c0.39,0.23,0.83,0.36,1.29,0.37C4.63,7.93,4.98,7.84,5.29,7.66z M3.5,5.34C2.69,4.71,2.21,3.75,2.18,2.73
					c0-0.37,0.11-0.54,0.23-0.46L2.99,2.6C3.8,3.23,4.28,4.19,4.31,5.21c0,0.35-0.08,0.53-0.04,0.54C4.2,5.73,4.14,5.71,4.08,5.67
					L3.5,5.34z"/>
			</g>
			<g id="Groupe_23245" transform="translate(59.669 49.111)">
				<path id="Tracé_24592" class="st2" d="M2.44,5.53L1.86,5.2C0.71,4.38,0.02,3.06,0,1.64l0,0c0-1.37,0.83-2,1.86-1.41l0.58,0.33
					C3.59,1.38,4.28,2.7,4.3,4.12l0,0C4.3,5.49,3.47,6.12,2.44,5.53z"/>
			</g>
			<g id="Groupe_23246" transform="translate(43.758 39.464)">
				<path id="Tracé_24593" class="st0" d="M3.53,6.61L2.95,6.28C1.8,5.46,1.11,4.14,1.09,2.72l0,0c0-1.37,0.83-2,1.86-1.41
					l0.58,0.33C4.68,2.46,5.37,3.78,5.39,5.2l0,0C5.39,6.58,4.56,7.21,3.53,6.61z"/>
				<path id="Tracé_24594" class="st1" d="M5.29,7.66C6.1,7.12,6.55,6.18,6.48,5.2C6.47,3.4,5.57,1.71,4.07,0.7L3.5,0.37
					c-0.7-0.45-1.58-0.49-2.31-0.1C0.38,0.81-0.07,1.75,0,2.72c0.01,1.8,0.91,3.49,2.41,4.5l0.58,0.34
					c0.39,0.23,0.83,0.36,1.28,0.37C4.63,7.93,4.98,7.84,5.29,7.66z M3.5,5.34C2.69,4.71,2.21,3.75,2.18,2.73
					c0-0.37,0.11-0.54,0.23-0.46L2.99,2.6C3.8,3.23,4.28,4.19,4.3,5.21c0,0.35-0.08,0.53-0.04,0.54C4.19,5.74,4.13,5.71,4.07,5.68
					L3.5,5.34z"/>
			</g>
			<g id="Groupe_23247" transform="translate(37.435 36.276)">
				<path id="Tracé_24595" class="st2" d="M2.44,5.53L1.86,5.2C0.71,4.38,0.02,3.06,0,1.64l0,0c0-1.37,0.84-2,1.86-1.41l0.58,0.33
					C3.59,1.38,4.28,2.7,4.3,4.12l0,0C4.3,5.49,3.47,6.12,2.44,5.53z"/>
			</g>
			<g id="Groupe_23248" transform="translate(68.56 51.205)">
				<path id="Tracé_24596" class="st1" d="M5.23,8.34c-1.44,0-3.18-0.8-5.23-2.42L1.34,4.2C3.39,5.8,5.04,6.46,5.85,6
					c1.18-0.66,1.38-3.81,1.14-5.74L9.16,0c0.08,0.64,0.67,6.26-2.24,7.9C6.41,8.19,5.83,8.34,5.23,8.34z"/>
			</g>
			<g id="Groupe_23249" transform="translate(24.033 29.397)">
				<path id="Tracé_24597" class="st1" d="M8.47,5.96C5.74,5.96,2.9,4.63,0,2l1.47-1.61c2.83,2.57,5.49,3.7,7.94,3.32
					C12.72,3.2,14.6,0.04,14.62,0l1.89,1.09c-1.49,2.46-3.93,4.19-6.74,4.76C9.33,5.93,8.9,5.96,8.47,5.96z"/>
			</g>
			<g id="Groupe_23250" transform="translate(83.182 64.165)">
				<path id="Tracé_24598" class="st1" d="M14.74,10.37c-2.49,0-8.62-0.93-14.74-9.05l1.74-1.31C8.64,9.17,15.23,8.2,15.5,8.15
					l0.38,2.15C15.51,10.35,15.12,10.37,14.74,10.37z"/>
			</g>
			<g id="Groupe_23251" transform="translate(74.492 48.467)">
				<path id="Tracé_24599" class="st2" d="M2.44,5.53L1.86,5.2C0.71,4.38,0.02,3.06,0,1.64l0,0c0-1.37,0.83-2,1.86-1.41l0.58,0.33
					C3.59,1.38,4.28,2.7,4.3,4.12l0,0C4.3,5.49,3.47,6.12,2.44,5.53z"/>
			</g>
			<g id="Groupe_23252" transform="translate(36.346 25.98)">
				<path id="Tracé_24600" class="st0" d="M3.53,6.62L2.95,6.29C1.8,5.47,1.11,4.15,1.09,2.74l0,0c0-1.37,0.84-2,1.86-1.41
					l0.58,0.33C4.68,2.48,5.37,3.8,5.39,5.22l0,0C5.39,6.58,4.56,7.21,3.53,6.62z"/>
				<path id="Tracé_24601" class="st1" d="M5.29,7.66C6.1,7.12,6.55,6.18,6.48,5.21c-0.01-1.8-0.91-3.48-2.4-4.5L3.5,0.37
					C2.81-0.08,1.93-0.12,1.2,0.28C0.39,0.82-0.07,1.76,0.01,2.73c0.01,1.8,0.91,3.48,2.4,4.5l0.58,0.33
					c0.39,0.23,0.83,0.36,1.29,0.37C4.63,7.93,4.98,7.84,5.29,7.66z M3.49,5.34C2.68,4.71,2.2,3.75,2.18,2.73
					c0-0.38,0.1-0.54,0.22-0.47l0.58,0.33C3.79,3.22,4.27,4.18,4.3,5.2c0,0.35-0.08,0.53-0.04,0.54C4.19,5.73,4.13,5.7,4.07,5.66
					L3.49,5.34z"/>
			</g>
			<g id="Groupe_23253" transform="translate(96.726 70.505)">
				<path id="Tracé_24602" class="st2" d="M2.44,5.52L1.87,5.19C0.72,4.37,0.03,3.05,0.01,1.63l0,0c0-1.37,0.83-2,1.86-1.41
					l0.57,0.33C3.59,1.37,4.28,2.69,4.3,4.11l0,0C4.3,5.49,3.47,6.12,2.44,5.52z"/>
			</g>
			<g id="Groupe_23254" transform="translate(81.903 61.947)">
				<path id="Tracé_24603" class="st1" d="M2.44,5.52L1.86,5.19C0.71,4.37,0.02,3.05,0,1.64l0,0c0-1.37,0.83-2,1.86-1.41l0.58,0.33
					C3.59,1.39,4.28,2.71,4.3,4.12l0,0C4.3,5.49,3.47,6.12,2.44,5.52z"/>
			</g>
			<g id="Groupe_23255" transform="translate(67.08 53.389)">
				<path id="Tracé_24604" class="st2" d="M2.44,5.53L1.86,5.2C0.71,4.38,0.02,3.06,0,1.64l0,0c0-1.37,0.83-2,1.86-1.41l0.58,0.33
					C3.59,1.39,4.28,2.71,4.3,4.12l0,0C4.3,5.49,3.46,6.12,2.44,5.53z"/>
			</g>
			<g id="Groupe_23256" transform="translate(22.612 27.718)">
				<path id="Tracé_24605" class="st2" d="M2.44,5.53L1.86,5.2C0.71,4.38,0.02,3.06,0,1.64l0,0c0-1.37,0.84-2,1.86-1.41l0.58,0.33
					C3.59,1.38,4.28,2.7,4.3,4.12l0,0C4.3,5.49,3.47,6.12,2.44,5.53z"/>
			</g>
		</g>
		<g id="Groupe_23264" transform="translate(10.985 213.622)">
			<g id="Groupe_23258">
				<path id="Tracé_24606" class="st0" d="M102.47,84.49L6.35,29c-2.9-1.68-5.26-6.18-5.26-10.05V5.71c0-3.87,2.36-5.65,5.26-3.98
					l96.12,55.49c2.9,1.68,5.26,6.18,5.26,10.05v13.24C107.73,84.38,105.37,86.16,102.47,84.49z"/>
				<path id="Tracé_24607" class="st1" d="M106.46,85.71c1.5-0.87,2.36-2.76,2.36-5.2V67.27c0-4.29-2.55-9.12-5.8-11L6.9,0.78
					C5.55-0.14,3.81-0.24,2.37,0.5c-1.5,0.87-2.36,2.76-2.36,5.2v13.24c0,4.29,2.55,9.12,5.8,10.99l96.12,55.5
					c0.8,0.49,1.7,0.76,2.64,0.78C105.22,86.22,105.88,86.04,106.46,85.71z M5.8,2.67l96.12,55.5c2.56,1.48,4.72,5.65,4.72,9.11
					v13.24c0,1.61-0.47,2.85-1.28,3.31c-0.78,0.33-1.67,0.22-2.35-0.28L6.9,28.06c-2.56-1.48-4.72-5.65-4.72-9.11V5.71
					c0-1.61,0.48-2.85,1.27-3.31C3.7,2.26,3.98,2.19,4.26,2.19C4.81,2.21,5.34,2.38,5.8,2.67z"/>
			</g>
			<g id="Groupe_23259" transform="translate(6.073 7.908)">
				<path id="Tracé_24608" class="st1" d="M1.49,4.15l0.46,0.27C2.77,4.9,3.44,4.39,3.44,3.29l0,0C3.42,2.16,2.87,1.1,1.95,0.44
					L1.49,0.18C0.67-0.3,0,0.21,0,1.31l0,0C0.02,2.44,0.57,3.49,1.49,4.15z"/>
			</g>
			<g id="Groupe_23260" transform="translate(6.073 20.093)">
				<path id="Tracé_24609" class="st1" d="M1.49,4.15l0.46,0.26c0.82,0.48,1.49-0.03,1.49-1.12l0,0C3.42,2.16,2.87,1.1,1.95,0.44
					L1.49,0.18C0.67-0.3,0,0.21,0,1.3l0,0C0.02,2.44,0.57,3.49,1.49,4.15z"/>
			</g>
			<g id="Groupe_23261" transform="translate(98.878 61.381)">
				<path id="Tracé_24610" class="st1" d="M1.49,4.15l0.46,0.27C2.77,4.9,3.44,4.39,3.44,3.29l0,0C3.42,2.16,2.87,1.1,1.95,0.44
					L1.49,0.18C0.67-0.3,0,0.21,0,1.31l0,0C0.02,2.44,0.57,3.49,1.49,4.15z"/>
			</g>
			<g id="Groupe_23262" transform="translate(98.878 73.566)">
				<path id="Tracé_24611" class="st1" d="M1.49,4.15l0.46,0.26c0.82,0.48,1.49-0.03,1.49-1.12l0,0C3.42,2.16,2.87,1.1,1.95,0.44
					L1.49,0.18C0.67-0.3,0,0.2,0,1.3l0,0C0.02,2.44,0.57,3.49,1.49,4.15z"/>
			</g>
			<g id="Groupe_23263" transform="translate(13.86 19.061)">
				
					<rect id="Rectangle_8310" x="39.06" y="-21.91" transform="matrix(0.5 -0.866 0.866 0.5 -0.5531 46.68)" class="st1" width="2.18" height="91.46"/>
			</g>
		</g>
	</g>
	<g id="Groupe_23271" transform="translate(76.099 28.583)">
		<g id="Groupe_23266" transform="translate(0.05 6.044)">
			<path id="Tracé_24612" class="st1" d="M107.86,32.8c0.01-0.15,0.01-0.3,0-0.45v-4.48c0-0.28-0.22-0.52-0.5-0.54l-4.26-0.28
				c-0.08-0.01-0.16-0.03-0.23-0.07L63.57,4.29C58.8,1.54,51.59,1.24,47.46,3.62L9.75,25.39c-0.07,0.04-0.16,0.07-0.24,0.07
				l-6.97,0.28c-0.29,0.01-0.51,0.25-0.52,0.54v6.07c0.02,1.82,1.31,3.73,3.9,5.22l40.39,23.32c4.77,2.76,11.98,3.05,16.11,0.67
				l42.7-24.65c1.42-0.68,2.42-2,2.72-3.54L107.86,32.8z"/>
			<path id="Tracé_24613" class="st1" d="M63.44,63.34l42.7-24.66c2.01-1.04,3.39-2.98,3.72-5.21l0.02-0.58l-2.03-0.08l2.03-0.07
				v-4.85c0-1.35-1.05-2.47-2.4-2.56l-3.91-0.26l-39-22.52c-5.4-3.12-13.37-3.41-18.14-0.67L9.06,23.47l-6.6,0.26
				c-1.38,0.05-2.47,1.18-2.47,2.56v6.09c0.02,2.64,1.82,5.17,4.91,6.96l40.39,23.32c3.1,1.7,6.58,2.58,10.12,2.55
				C58.2,65.29,60.97,64.64,63.44,63.34z M9.58,27.51l0.75-0.09L48.48,5.4c3.5-2.02,9.95-1.72,14.08,0.67l39.32,22.7l0.64,0.3
				l3.32,0.22v3.26l-0.01,0.57c-0.24,0.91-0.87,1.67-1.73,2.06L61.41,59.82c-3.51,2.02-9.96,1.72-14.09-0.67L6.93,35.83
				c-1.79-1.03-2.87-2.34-2.88-3.47v-4.64L9.58,27.51z"/>
		</g>
		<g id="Groupe_23267">
			<path id="Tracé_24614" class="st2" d="M105.17,36.92l-42.7,24.66c-4.13,2.38-11.35,2.08-16.11-0.67L5.97,37.6
				c-4.77-2.76-5.28-6.92-1.16-9.3l42.7-24.66c4.13-2.38,11.34-2.08,16.11,0.67l40.39,23.32C108.78,30.38,109.3,34.54,105.17,36.92z
				"/>
			<path id="Tracé_24615" class="st1" d="M63.48,63.34l42.7-24.66c2.45-1.41,3.8-3.47,3.8-5.79c0-2.64-1.8-5.2-4.96-7.02
				L64.63,2.55c-5.41-3.12-13.38-3.41-18.14-0.67L3.79,26.54c-2.45,1.42-3.8,3.48-3.8,5.79c0,2.64,1.8,5.2,4.96,7.02l40.39,23.32
				c3.1,1.7,6.58,2.58,10.11,2.55C58.25,65.29,61.01,64.64,63.48,63.34z M62.61,6.06L103,29.38c1.84,1.06,2.93,2.37,2.93,3.5
				c0,1.1-1.11,1.9-1.77,2.28l-42.7,24.66c-3.5,2.02-9.96,1.72-14.08-0.67L6.99,35.83c-1.83-1.06-2.93-2.37-2.93-3.5
				c0-1.1,1.11-1.9,1.77-2.28L48.53,5.4c1.84-0.95,3.89-1.41,5.96-1.34C57.32,4.03,60.12,4.72,62.61,6.06L62.61,6.06z"/>
		</g>
		<g id="Groupe_23268" transform="translate(53.432 63.575)">
			
				<rect id="Rectangle_8311" x="0" y="0" transform="matrix(1 -1.134505e-03 1.134505e-03 1 -2.988094e-03 1.771517e-03)" class="st0" width="3.12" height="5.26"/>
		</g>
		<g id="Groupe_23269" transform="translate(97.371 41.063)">
			<rect id="Rectangle_8312" x="0" y="0" class="st0" width="3.12" height="5.26"/>
		</g>
		<g id="Groupe_23270" transform="translate(8.007 39.699)">
			<rect id="Rectangle_8313" x="0" y="0" class="st0" width="3.12" height="5.26"/>
		</g>
	</g>
</g>
</svg>
