<svg id="Calque_1" data-name="Calque 1" xmlns="http://www.w3.org/2000/svg" viewBox="0 0 85.72 51.27"><defs><style>.cls-1{fill:#959595;}</style></defs><g id="Composant_128" data-name="Composant 128"><path id="Tracé_26576" data-name="Tracé 26576" class="cls-1" d="M72.11,26.8a19.08,19.08,0,0,1-4.39-.51,13.16,13.16,0,0,1-3.28-1.14,1.66,1.66,0,0,1-1.06-1.6V22.1c0-.6.23-.89.66-.89a1.44,1.44,0,0,1,.51.09c.18.06.43.17.72.28a15,15,0,0,0,3.13,1,16.91,16.91,0,0,0,3.4.35A7.72,7.72,0,0,0,76,22a3.08,3.08,0,0,0,1.48-2.71,2.77,2.77,0,0,0-.77-2,7,7,0,0,0-2.88-1.48l-4.13-1.29a8.61,8.61,0,0,1-4.56-2.9,6.83,6.83,0,0,1-1.43-4.14,6.35,6.35,0,0,1,.77-3.16,7.32,7.32,0,0,1,2-2.34,9.22,9.22,0,0,1,3-1.49A12.74,12.74,0,0,1,73.05,0,15.19,15.19,0,0,1,75,.12c.66.08,1.26.2,1.85.31s1.12.28,1.63.46a6,6,0,0,1,1.2.51,2.43,2.43,0,0,1,.85.71,1.51,1.51,0,0,1,.26.94V4.39c0,.6-.23.92-.66.92A2.92,2.92,0,0,1,79,5a13,13,0,0,0-5.47-1.11,7.35,7.35,0,0,0-3.8.8A2.78,2.78,0,0,0,68.4,7.19a2.71,2.71,0,0,0,.86,2,8.37,8.37,0,0,0,3.14,1.57l4,1.28a8.7,8.7,0,0,1,4.42,2.74,6.39,6.39,0,0,1,1.31,4,7.29,7.29,0,0,1-.74,3.31,7.63,7.63,0,0,1-2.08,2.51,9.16,9.16,0,0,1-3.16,1.6,13.44,13.44,0,0,1-4.08.6M35.47,26a1.59,1.59,0,0,1-1.08-.28,2.31,2.31,0,0,1-.6-1.12l-6.7-22a5,5,0,0,1-.26-1.14.63.63,0,0,1,.53-.71.85.85,0,0,1,.16,0h2.79A1.57,1.57,0,0,1,31.42,1,2.31,2.31,0,0,1,32,2.15L36.78,21,41.23,2.15A2.07,2.07,0,0,1,41.77,1,2,2,0,0,1,42.91.75h2.28A1.74,1.74,0,0,1,46.33,1a2,2,0,0,1,.55,1.12l4.5,19.1,4.93-19.1A2.49,2.49,0,0,1,56.88,1,1.83,1.83,0,0,1,58,.75h2.65a.63.63,0,0,1,.71.54.48.48,0,0,1,0,.17,3.4,3.4,0,0,1-.06.46,3.58,3.58,0,0,1-.2.71l-6.87,22a2.16,2.16,0,0,1-.6,1.11,1.8,1.8,0,0,1-1.08.29H50.1A1.73,1.73,0,0,1,49,25.78a2.09,2.09,0,0,1-.54-1.14L44,6.25,39.6,24.61a2.23,2.23,0,0,1-.54,1.15,1.77,1.77,0,0,1-1.14.28ZM12.57,23a9.18,9.18,0,0,0,2.94-.51,6.38,6.38,0,0,0,2.71-1.83,4.52,4.52,0,0,0,1-1.82,10.37,10.37,0,0,0,.28-2.48v-1.2a25.72,25.72,0,0,0-2.62-.49,24,24,0,0,0-2.68-.17,6.56,6.56,0,0,0-4.25,1.15A4.07,4.07,0,0,0,12.57,23m11.58-4.33a8.65,8.65,0,0,0,.31,2.53,15.21,15.21,0,0,0,.92,2.06,1.34,1.34,0,0,1,.2.65,1.16,1.16,0,0,1-.54.86l-1.8,1.2a1.15,1.15,0,0,1-1.6-.14,9.37,9.37,0,0,1-1-1.34c-.28-.49-.57-1-.88-1.69a10.54,10.54,0,0,1-8.39,3.94,7.81,7.81,0,0,1-5.7-2.06A8,8,0,0,1,6.13,13.3a10.37,10.37,0,0,1,7-2.23,23.77,23.77,0,0,1,3,.23c1.05.14,2.13.37,3.27.63V9.84c0-2.17-.45-3.68-1.33-4.56S15.62,4,13.43,4a13.24,13.24,0,0,0-3.08.37,23.47,23.47,0,0,0-3.08,1,9.19,9.19,0,0,1-1,.36,1.79,1.79,0,0,1-.46.09c-.4,0-.6-.28-.6-.88V3.48a1.8,1.8,0,0,1,.2-1,2.14,2.14,0,0,1,.8-.6A16.37,16.37,0,0,1,9.8.59,17.55,17.55,0,0,1,14.25.05q5.09,0,7.47,2.31c1.57,1.54,2.37,3.88,2.37,7v9.23Z"/><path id="Tracé_26577" data-name="Tracé 26577" class="cls-1" d="M81.41,36.21c-1.2-1.54-7.93-.74-11-.37-.91.11-1.06-.68-.23-1.28,5.36-3.77,14.17-2.68,15.2-1.43s-.29,10.09-5.3,14.31c-.77.66-1.51.32-1.17-.54,1.14-2.82,3.68-9.18,2.48-10.69m-3.9,4.45c-9.38,6.93-23,10.61-34.73,10.61A62.87,62.87,0,0,1,.38,35.1c-.88-.8-.09-1.88,1-1.26a84.2,84.2,0,0,0,74.79,4.65c1.56-.71,2.9,1,1.36,2.17"/></g></svg>