<svg id="Calque_1" data-name="Calque 1" xmlns="http://www.w3.org/2000/svg" viewBox="0 0 166.95 45.88"><defs><style>.cls-1{fill:#959595;}</style></defs><g id="Composant_132" data-name="Composant 132"><path id="Tracé_26592" data-name="Tracé 26592" class="cls-1" d="M126.27,38.63a3.08,3.08,0,0,0-.7-2.18,2.23,2.23,0,0,0-1.87-.81,2.6,2.6,0,0,0-2,.81,3.44,3.44,0,0,0-.93,2.18Zm2.57,1.84h-8a3.18,3.18,0,0,0,1,2.52,3.76,3.76,0,0,0,2.68.92A5.56,5.56,0,0,0,128,42.76v2.07a7.59,7.59,0,0,1-4.21,1,5.49,5.49,0,0,1-4.08-1.62,6,6,0,0,1-1.52-4.48,6.08,6.08,0,0,1,1.62-4.35,5.36,5.36,0,0,1,4.08-1.73,4.7,4.7,0,0,1,3.74,1.49,6,6,0,0,1,1.28,4.24Zm-11.9-4a2.64,2.64,0,0,0-1.4-.34,2.49,2.49,0,0,0-2,1,4.33,4.33,0,0,0-.81,2.87v5.5h-2.68V33.93h2.68v2.41a4.54,4.54,0,0,1,1.17-2,2.65,2.65,0,0,1,1.84-.69,2.37,2.37,0,0,1,1,.23Zm-10.27,9.06H104V43.68a3.92,3.92,0,0,1-3.62,2.06c-2.8,0-4.2-1.6-4.2-4.93V33.92h2.68v6.66c0,2.06.82,3.1,2.45,3.1a2.58,2.58,0,0,0,2-.81,3.64,3.64,0,0,0,.82-2.3V33.93h2.67ZM94.09,35.07l-6.3,8.37h6.3V45.5h-10v-1L90.58,36H84.75V33.93H94.2v1.14ZM78.21,39.2l-2.33-6.42a7,7,0,0,1-.23-1,7,7,0,0,1-.23,1L73.2,39.2Zm5.25,6.31h-3l-1.52-4.13H72.39L71,45.52H68l6.18-16.18h3ZM167,21.58a4.84,4.84,0,0,1-2.1.34c-2.33,0-3.38-1-3.38-3.21V12.18h-2V10.11h2V7.48l2.68-.69v3.44H167v2.06h-2.8V18a2.67,2.67,0,0,0,.35,1.49,1.51,1.51,0,0,0,1.29.46,2,2,0,0,0,1.16-.36v1.95Zm-7.7-14.8A2.39,2.39,0,0,0,158,6.44c-1.28,0-2,.69-2,2.18v1.6h2.68v2.07H156v9.53h-2.67V12.29h-2V10.22h2V8.38a3.43,3.43,0,0,1,1.16-2.86A5,5,0,0,1,159,4.71V6.78ZM144,12a3.05,3.05,0,0,0-2.45,1,4.54,4.54,0,0,0-.93,3,4.31,4.31,0,0,0,.93,2.87,3.44,3.44,0,0,0,4.85.06l.05-.06a4.32,4.32,0,0,0,.82-3,4.57,4.57,0,0,0-.82-3,3.37,3.37,0,0,0-2.45-.94Zm-.11,10.1a5.51,5.51,0,0,1-5.94-5.85A5.82,5.82,0,0,1,143.31,10a5.65,5.65,0,0,1,.92,0,5.83,5.83,0,0,1,4.32,1.62,6,6,0,0,1,1.51,4.47,6.45,6.45,0,0,1-1.62,4.48,7.42,7.42,0,0,1-4.59,1.49Zm-16.22-.7V18.93a5.94,5.94,0,0,0,3.27,1.15c1.63,0,2.44-.46,2.44-1.38a1.57,1.57,0,0,0-.23-.69,1.2,1.2,0,0,0-.58-.46,5.77,5.77,0,0,0-.81-.34l-1.05-.34q-.66-.26-1.29-.57a8,8,0,0,1-.93-.69,2.4,2.4,0,0,1-.58-.92,3.46,3.46,0,0,1-.23-1.15,3.09,3.09,0,0,1,.35-1.49,2.23,2.23,0,0,1,1.05-1,6.06,6.06,0,0,1,1.51-.69,9.43,9.43,0,0,1,1.75-.23,8,8,0,0,1,2.92.46v2.3a4.82,4.82,0,0,0-2.8-.81,2.49,2.49,0,0,0-.94.12c-.23.11-.46.11-.7.23a.9.9,0,0,0-.46.46.94.94,0,0,0-.12.57,1.39,1.39,0,0,0,.12.69.88.88,0,0,0,.46.45,5.21,5.21,0,0,0,.81.35c.35.11.59.23,1,.34a7.09,7.09,0,0,0,1.4.57c.46.12.7.46,1.05.69a7,7,0,0,1,.7.92A4.13,4.13,0,0,1,136,18.7a2.12,2.12,0,0,1-.47,1.49,3,3,0,0,1-1,1,12,12,0,0,1-1.61.69,7.63,7.63,0,0,1-5.27-.57ZM119.72,12a3,3,0,0,0-2.45,1,4.6,4.6,0,0,0-.94,3,4.31,4.31,0,0,0,.94,2.86,3.42,3.42,0,0,0,4.84.06l0-.06a4.25,4.25,0,0,0,.81-3,4.46,4.46,0,0,0-.81-3,3.33,3.33,0,0,0-2.45-.92ZM119.6,22a5.54,5.54,0,0,1-5.93-5.13,5.77,5.77,0,0,1,0-.72A5.81,5.81,0,0,1,119,10a7.06,7.06,0,0,1,.92,0,5.86,5.86,0,0,1,4.32,1.62,6,6,0,0,1,1.5,4.47,6.45,6.45,0,0,1-1.62,4.47A7.15,7.15,0,0,1,119.6,22Zm-7.11-9.41a2.64,2.64,0,0,0-3.39.69,4.23,4.23,0,0,0-.8,2.86v5.51h-2.69V10.11h2.69v2.41a4.52,4.52,0,0,1,1.16-1.95,2.68,2.68,0,0,1,1.87-.69,2.55,2.55,0,0,1,1,.23ZM103,21.23a6.34,6.34,0,0,1-3.38.81,5.79,5.79,0,0,1-4.2-1.61,5.53,5.53,0,0,1-1.62-4.13,6.1,6.1,0,0,1,1.75-4.59A6.29,6.29,0,0,1,100.25,10a7.06,7.06,0,0,1,2.8.58V13a4.59,4.59,0,0,0-2.56-.92,3.49,3.49,0,0,0-2.8,1.14,4.28,4.28,0,0,0-1.06,3A4,4,0,0,0,97.68,19a3.74,3.74,0,0,0,2.69,1,4.13,4.13,0,0,0,2.68-1v2.2Zm-12,.45H88.35V10.11H91Zm-1.28-14a1.52,1.52,0,0,1-1.17-.46,1.28,1.28,0,0,1-.47-1,1.13,1.13,0,0,1,.47-1,2.08,2.08,0,0,1,1.17-.46,1.53,1.53,0,0,1,1.16.46,1.22,1.22,0,0,1,.47,1,1.08,1.08,0,0,1-.47,1,1.49,1.49,0,0,1-1.16.46m-5,14H82.06V11.25a29.2,29.2,0,0,1,.11-3.1,5.49,5.49,0,0,1-.46,1.49l-4.9,12.15H74.94L70,9.76l-.46-1.62a23.06,23.06,0,0,1,.11,3.22V21.81H67.12V5.64H71l4.32,10.78.7,1.84a11.34,11.34,0,0,1,.7-2L81.12,5.53h3.73Z"/><path id="Tracé_26593" data-name="Tracé 26593" class="cls-1" d="M34.79,0l-20,16.71L0,41.72l12.62-1.26Zm1.72,6.92-8.7,17.51L43.13,42.18,14.7,45.41l44.1.46Z"/></g></svg>