<svg id="Calque_1" data-name="Calque 1" xmlns="http://www.w3.org/2000/svg" viewBox="0 0 143.1 54.35"><defs><style>.cls-1{fill:#959595;fill-rule:evenodd;}</style></defs><g id="Groupe_4904" data-name="Groupe 4904"><path id="Tracé_13619" data-name="Tracé 13619" class="cls-1" d="M48.59,10.85c-4.43,2.59-5.78,2.8-10.55,5.67a51.49,51.49,0,0,0,5.48-6.84,105.49,105.49,0,0,0-15.45,1.78,62,62,0,0,1,16.1-5.07C43.2,5.06,35.37.8,33.41,0c6.2.48,13.79,2.78,17.46,5.05a28.19,28.19,0,0,1,5.64-.72c-.68,1.18-.69,1.86-3.34,3.6.73,2-1,12.72-2.45,15.59-.06-4.51-.47-10.2-2.13-12.67Z"/><path id="Tracé_13620" data-name="Tracé 13620" class="cls-1" d="M16.3,49.46a17.28,17.28,0,0,1-6.37-3.91,19.11,19.11,0,0,1,2.41-4.61c-2.08.3-3.58.53-5.35.87a27.42,27.42,0,0,1-2.84-8.35,29.59,29.59,0,0,0,0,9A26.16,26.16,0,0,0,0,43.92a45.86,45.86,0,0,0,5.5,3,18.26,18.26,0,0,0,4.17,5.9,11.23,11.23,0,0,1-.4-4.5,26.26,26.26,0,0,0,7,1.12Z"/><path id="Tracé_13621" data-name="Tracé 13621" class="cls-1" d="M22.9,13.66h0A13.93,13.93,0,0,0,21,17.48a33,33,0,0,1,11.77,4.24A38.8,38.8,0,0,0,21.86,21a8.21,8.21,0,0,0-2.55.47,43.8,43.8,0,0,0-2.46,9.16c-1-2.5-2.55-7.52-2.55-7.52-2.88,1.54-9.5,7.77-9.5,7.77,3.64-7.3,7.33-10.64,7.34-10.64-1.28-1.27-4.6-1.9-7-2a26.53,26.53,0,0,1,7-1.24,33.38,33.38,0,0,1,4,.07,20.43,20.43,0,0,1,6.79-3.43Z"/><path id="Tracé_13622" data-name="Tracé 13622" class="cls-1" d="M29.82,45c-1.17,1.55-2.14,2.79-3.43,4.22a22,22,0,0,1-6.08.83,14.14,14.14,0,0,0,4,1.37,27,27,0,0,1-3.86,3,29.08,29.08,0,0,0,7.36-2.76,16.51,16.51,0,0,0,3-.18c-.19-.68-.33-1.17-.5-2a49.45,49.45,0,0,0,5.26-4.76A36.25,36.25,0,0,1,30,47.83c-.1-1-.16-1.8-.21-2.88Z"/><path id="Tracé_13623" data-name="Tracé 13623" class="cls-1" d="M26.93,30.79c.09.95.15,3.33.15,4.2s0,3.48-.17,4.64v.1h5.24c2.56,0,5.29-.66,5.29-2.48,0-1.14-1-2-3-2.46,1.42-.3,2.39-1.09,2.39-2,0-1.48-2.14-2.05-4.15-2.08H26.92v.09Zm4.05.92c2.19,0,3,.37,3,1.32a.9.9,0,0,1-.29.67,3.32,3.32,0,0,1-2.29.56h0l-.6,1.27h.61a4,4,0,0,1,2.79.8,1.12,1.12,0,0,1,.37.82c0,1-1.1,1.52-3.25,1.52-.36,0-.95,0-1.32,0-.08-1.32-.09-3.12-.09-3.65s0-2,.09-3.23a7.11,7.11,0,0,1,1-.05Z"/><path id="Tracé_13624" data-name="Tracé 13624" class="cls-1" d="M49.52,30.7H47L47.09,33c0,1.13.09,2.28.18,3.4A6.78,6.78,0,0,0,46.2,35s-2.67-3.3-3.59-4.23l0,0h-3v.09c.09.95.15,3.33.15,4.2s0,3.48-.17,4.64v.09h2.63v-.08c-.15-2.22-.15-4.44-.15-6.58h0a2.84,2.84,0,0,0,.63,1c0,.06,4.56,5.34,4.8,5.65l0,0h2.11v-.1c-.15-1.15-.17-3.84-.17-4.63s.07-3.26.15-4.21V30.7Z"/><path id="Tracé_13625" data-name="Tracé 13625" class="cls-1" d="M52.58,30.78c.09,1,.15,3.34.15,4.21s0,3.48-.17,4.64v.09h3.14v-.09c-.11-.83-.15-2.41-.16-3.64l.58,0h.43c4.14,0,6.15-.89,6.15-2.72,0-2.09-2.81-2.57-5.18-2.61H52.58v.08Zm3.85,1a4.42,4.42,0,0,1,3,.71,1.12,1.12,0,0,1,.33.82c0,1.31-1.83,1.58-3.36,1.58h-.62l-.25,0c0-.3,0-.69,0-1.14s0-1.24,0-1.87c.19,0,.53-.05.87-.06Z"/><path id="Tracé_13626" data-name="Tracé 13626" class="cls-1" d="M68.68,30.78c.09,1,.15,3.34.15,4.21s0,3.48-.17,4.64v.09h3.14v-.09c-.11-.83-.15-2.41-.16-3.64l.57,0h.44c4.14,0,6.15-.89,6.15-2.72,0-2.09-2.82-2.57-5.18-2.61H68.67v.08Zm3.84,1a4.4,4.4,0,0,1,3,.71,1.07,1.07,0,0,1,.34.82c0,1.31-1.83,1.58-3.36,1.58h-.62l-.25,0c0-.3,0-.7,0-1.14s0-1.24,0-1.87c.19,0,.54-.05.88-.05Z"/><path id="Tracé_13627" data-name="Tracé 13627" class="cls-1" d="M83,30.7h0l0,.05C82.33,32,78.57,38.6,78,39.6l-.07.13h2.7v-.06c.24-.61.54-1.31.89-2.06l2.23,0,1.83,0H86c.49,1,.85,1.71,1,2.07l0,.06h3.12l-5-9Zm.77,2.66c.25.43.89,1.63,1.62,3.06h-.24l-1.38,0-1.65,0C82.68,35.27,83.25,34.23,83.75,33.36Z"/><path id="Tracé_13628" data-name="Tracé 13628" class="cls-1" d="M91.36,30.79c.08.95.15,3.33.15,4.2s0,3.48-.17,4.64v.09h3.13v-.09c-.16-1.16-.16-3.84-.16-4.64,0-.62,0-2,.08-3.15.27,0,.62-.05.86-.05a4.29,4.29,0,0,1,3,.71,1.09,1.09,0,0,1,.34.81c0,1-1.22,1.57-2.36,1.62a3.76,3.76,0,0,1-.67,0l-.21,0,.14.17c1.1,1.3,2.77,3.57,3.47,4.65l0,0h3.36l-.1-.14c-.11-.14-2.32-2.73-3.25-3.83l-.06-.07c1.71-.41,2.55-1.19,2.55-2.38,0-2.08-2.82-2.57-5.19-2.61H91.35v.09Z"/><path id="Tracé_13629" data-name="Tracé 13629" class="cls-1" d="M106.78,30.69h-3v.09c.09,1,.15,3.34.15,4.21s0,3.48-.17,4.63v.1h3.14l0-.1c-.15-1.15-.16-3.84-.16-4.63s.06-3.26.15-4.21v-.09Z"/><path id="Tracé_13630" data-name="Tracé 13630" class="cls-1" d="M109.72,30.79c.08.95.14,3.33.14,4.2s0,3.48-.16,4.64v.1h5.24c2.56,0,5.3-.66,5.3-2.48,0-1.14-1-2-3-2.46,1.43-.3,2.4-1.09,2.4-2,0-1.48-2.14-2.05-4.15-2.08h-5.78v.09Zm4,.92h0c2.19,0,3,.37,3,1.32a.91.91,0,0,1-.3.67,3.25,3.25,0,0,1-2.29.56h-.05l-.6,1.27h.61a4,4,0,0,1,2.79.8,1.12,1.12,0,0,1,.37.82c0,1-1.09,1.52-3.25,1.52-.36,0-1,0-1.32,0-.08-1.32-.08-3.12-.08-3.65s0-2,.09-3.23a7,7,0,0,1,1-.05Z"/><path id="Tracé_13631" data-name="Tracé 13631" class="cls-1" d="M128,30.69h-2.12l0,0c-.62,1.36-4.59,8.28-4.92,8.85l-.08.13h2.7l0-.06c.23-.61.54-1.31.89-2.06l2.22,0,1.84,0h.4c.49,1,.84,1.7,1,2.07l0,0h3.12l-5-9Zm-1.3,2.66c.25.43.89,1.64,1.62,3.06h-.24l-1.39,0-1.65,0c.59-1.15,1.16-2.18,1.66-3.06Z"/><path id="Tracé_13632" data-name="Tracé 13632" class="cls-1" d="M133.89,33c0,1.58,2,2.22,3.75,2.8,1.37.44,2.78.9,2.78,1.65a.74.74,0,0,1-.22.56,3,3,0,0,1-2,.4,11.9,11.9,0,0,1-3.54-.8l-.55-.2v2l.36.06.22,0a17,17,0,0,0,3.18.36c3.31,0,5.28-1.05,5.28-2.8s-2-2.28-3.84-2.85c-1.32-.42-2.7-.86-2.7-1.56,0-.2,0-.8,1.7-.8a10.52,10.52,0,0,1,3.19.64l.65.21v-2l-.65-.1a18.7,18.7,0,0,0-2.81-.26c-2.84,0-4.76,1.07-4.76,2.65Z"/></g></svg>