<svg id="Calque_1" data-name="Calque 1" xmlns="http://www.w3.org/2000/svg" viewBox="0 0 196.53 52.67"><defs><style>.cls-1{fill:#959595;}</style></defs><g id="Groupe_24963" data-name="Groupe 24963"><path id="Tracé_26921" data-name="Tracé 26921" class="cls-1" d="M26.64,20.15l10.17-9.66.9.92L27.53,21.06Z"/><path id="Tracé_26922" data-name="Tracé 26922" class="cls-1" d="M58.08,38.56c2.9,0,4.38-2.05,4.38-5.83S61,26.91,58.08,26.91H55.13V38.56ZM50.94,24.48c0-.74.32-1.06,1.08-1.06h6.06c5.57,0,8.66,3.3,8.66,9.31s-3.09,9.32-8.66,9.32H52c-.76,0-1.08-.32-1.08-1.07Z"/><path id="Tracé_26923" data-name="Tracé 26923" class="cls-1" d="M78.16,34.78,76.62,30c-.14-.34-.41-1.7-.41-1.7H76.1s-.24,1.25-.4,1.7l-1.6,4.74ZM68,41l6-17.11c.16-.42.76-.56,1.54-.56h1.41c.78,0,1.38.14,1.54.56L84.38,41a2,2,0,0,1,.09.48c0,.37-.41.59-1.36.59H81.92c-.78,0-1.38-.14-1.52-.56l-1.07-3.25H72.94l-1.09,3.25c-.13.4-.6.56-1.24.56H69.53c-1.14,0-1.65-.22-1.65-.59A2.05,2.05,0,0,1,68,41"/><path id="Tracé_26924" data-name="Tracé 26924" class="cls-1" d="M93.07,31.21a2.2,2.2,0,0,0,2.08-2.29,2,2,0,0,0-2-2,1.41,1.41,0,0,0-.29,0H90.5v4.31Zm-6.74-6.73c0-.74.33-1.07,1.08-1.07h5.28c4.68,0,6.74,1.81,6.74,5a4.46,4.46,0,0,1-3.17,4.23v.11a4.55,4.55,0,0,1,1.95,2.45l2.38,5.85a1.55,1.55,0,0,1,.14.51c0,.32-.51.53-1.63.53H98c-.79,0-1.41-.13-1.57-.55l-2.14-5.19c-.54-1.07-1-1.6-2.73-1.6H90.5v6.49c0,.56-.48.85-1.62.85H88c-1.14,0-1.62-.29-1.62-.85Z"/><path id="Tracé_26925" data-name="Tracé 26925" class="cls-1" d="M102.84,24.22c0-.57.49-.85,1.62-.85h1c1.14,0,1.63.28,1.63.85v7.13l.1,0,4.71-7.51c.24-.4.84-.5,1.63-.5h1.27c1,0,1.51.16,1.51.39a1.13,1.13,0,0,1-.21.57l-5.23,7.87,5.93,8.94a1,1,0,0,1,.21.56c0,.24-.46.4-1.51.4h-1.57c-.79,0-1.41-.1-1.65-.5l-5.09-8.09-.11,0v7.72c0,.56-.48.85-1.62.85h-1c-1.13,0-1.62-.29-1.62-.85Z"/><path id="Tracé_26926" data-name="Tracé 26926" class="cls-1" d="M42.62,9.72a3.09,3.09,0,0,1-4-1.74,3,3,0,0,1,1.72-3.89l.05,0a3.1,3.1,0,0,1,4,1.74A3,3,0,0,1,42.67,9.7l-.05,0"/><path id="Tracé_26927" data-name="Tracé 26927" class="cls-1" d="M126,42.1h-.21c-.76,0-1.08-.21-1.08-.59V25.44h-5.2c-.38,0-.54-.24-.54-.8v-.42c0-.57.16-.8.54-.8h12.69c.38,0,.54.23.54.8v.42c0,.56-.16.8-.54.8H127V41.51c0,.38-.32.59-1.08.59"/><path id="Tracé_26928" data-name="Tracé 26928" class="cls-1" d="M148.12,42.1h-.27c-.54,0-1-.17-1.08-.43l-2.06-5.22c-.81-2.07-1.92-2.6-4-2.6h-2.44v7.66c0,.37-.33.59-1.08.59h-.22c-.76,0-1.08-.22-1.08-.59V24.21c0-.56.24-.8.81-.8h4.55c4.22,0,6.52,1.36,6.52,4.71a4.55,4.55,0,0,1-3.11,4.5v.11c1.13.37,1.73,1.57,2.43,3.32l2.11,5.24a1.24,1.24,0,0,1,.09.38c0,.26-.36.42-1.14.42m-9.88-16.66v6.39h3.57a3.39,3.39,0,0,0,3.47-3.27c0-2.16-1.46-3.12-3.65-3.12Z"/><path id="Tracé_26929" data-name="Tracé 26929" class="cls-1" d="M164.85,42.1h-.22c-.54,0-1-.11-1.08-.43L162,37.31h-8l-1.54,4.36c-.11.32-.54.43-1.09.43h-.13c-.82,0-1.16-.16-1.16-.45a1,1,0,0,1,.08-.38l6.41-17.48c.11-.32.54-.43,1.08-.43h.79c.54,0,1,.11,1.08.43l6.41,17.51a.85.85,0,0,1,.08.35c0,.26-.35.45-1.16.45M158,25.81l-.43,1.54-2.84,7.93h6.46l-2.84-7.93Z"/><path id="Tracé_26930" data-name="Tracé 26930" class="cls-1" d="M176.59,42.2c-5.93,0-8.72-3-8.72-9.47s3-9.47,8.77-9.47c2.68,0,5.17.93,5.17,1.65,0,.45-.57,1.54-.92,1.54a8.84,8.84,0,0,0-4.2-1.17c-4.33,0-6.36,2.24-6.36,7.48s2,7.42,6.25,7.42a10.32,10.32,0,0,0,4.66-1.33c.35,0,.95,1.12.95,1.44,0,.72-2.44,1.91-5.6,1.91"/><path id="Tracé_26931" data-name="Tracé 26931" class="cls-1" d="M196,42h-9.47c-.57,0-.81-.24-.81-.8v-17c0-.55.24-.8.81-.8H196c.38,0,.55.24.55.8v.43c0,.56-.17.8-.55.8h-7.87v6.07h7.06c.38,0,.55.24.55.8v.42c0,.56-.17.8-.55.8h-7.06V40H196c.38,0,.54.24.54.8v.42c0,.56-.16.8-.54.8"/><path id="Tracé_26932" data-name="Tracé 26932" class="cls-1" d="M5.16,17,6,16l5.63,4.68-.84,1Z"/><path id="Tracé_26933" data-name="Tracé 26933" class="cls-1" d="M21.61,38.16l1.24-.35L25,45.33l-1.25.34Z"/><path id="Tracé_26934" data-name="Tracé 26934" class="cls-1" d="M19.39,17.8a10.42,10.42,0,0,0-3.67.67A10.12,10.12,0,0,0,10,23.77a9.81,9.81,0,0,0-.21,7.7,10.31,10.31,0,0,0,13.22,5.8A10,10,0,0,0,29,24.38L29,24.26a10.27,10.27,0,0,0-9.56-6.46m0,21.41A11.6,11.6,0,0,1,8.62,31.93a11.09,11.09,0,0,1,.24-8.68,11.33,11.33,0,0,1,6.41-6,11.62,11.62,0,0,1,14.9,6.53,11.29,11.29,0,0,1-6.5,14.59l-.15.06a11.6,11.6,0,0,1-4.12.75"/><path id="Tracé_26935" data-name="Tracé 26935" class="cls-1" d="M28.15,20.19c-.2-.21-.39-.42-.6-.61l9.26-8.79.59.61ZM30,23.89a11.09,11.09,0,0,1-6.39,14.32l-.14,0-.2.08L23.12,38,23,37.55l-.42.12h-.06l.6-.2A10.24,10.24,0,0,0,29.2,24.33a.78.78,0,0,0-.05-.14,10.51,10.51,0,0,0-9.77-6.61,10.91,10.91,0,0,0-3.74.69,10.5,10.5,0,0,0-3.93,2.61l.22-.25-.34-.27-.31-.26a11.43,11.43,0,0,1,15.63-.51l-.27.25-.31.3.3.32.59.6.3.31.32-.3.27-.26A11,11,0,0,1,30,23.89M24.7,45.18l-.82.23L22.1,39.12l.82-.23ZM21.87,38.3l.82-.22.12.4c-.28.08-.55.16-.83.22ZM15.8,18.67a10.1,10.1,0,0,1,12.94,5.68A9.82,9.82,0,0,1,23.09,37l-.12,0A10.1,10.1,0,0,1,10,31.4a9.63,9.63,0,0,1,.2-7.54,9.9,9.9,0,0,1,5.57-5.19M21.33,38l.12.42.1.37A11.39,11.39,0,0,1,8.81,31.85a11,11,0,0,1,1.36-10.44l.3.25.33.28.28-.33,0,0a10.26,10.26,0,0,0-1.28,2.1,10.05,10.05,0,0,0-.21,7.87,10.52,10.52,0,0,0,12.12,6.34ZM5.93,17.32a3.43,3.43,0,0,0,.56-.64l4.15,3.46c-.19.2-.37.42-.55.64Zm-.29-1.78a2.24,2.24,0,0,1-1.19,1.23,2.27,2.27,0,0,1-3-1.13A2.21,2.21,0,0,1,2.6,12.73h0a2.36,2.36,0,0,1,.91-.2A2.26,2.26,0,0,1,5.6,13.85a2.16,2.16,0,0,1,0,1.69M11,20.41l.32.28-.55.64-.32-.27c.17-.22.36-.44.55-.65m16.25-.53.6.6-.29.28-.6-.61ZM38,11.41l-.3-.31-.6-.6-.31-.31-.31.3-9.27,8.8a11.86,11.86,0,0,0-12-2.2,11.65,11.65,0,0,0-4.24,2.74L6.72,16.32A2.92,2.92,0,0,0,6.86,16a3.44,3.44,0,0,0-.07-2.67,3.58,3.58,0,0,0-4.68-1.78A3.47,3.47,0,0,0,.28,16.11l0,.05a3.57,3.57,0,0,0,3.25,2.08A3.53,3.53,0,0,0,5,17.94a3.05,3.05,0,0,0,.61-.34l4.24,3.54a11.08,11.08,0,0,0-1.18,2A11.29,11.29,0,0,0,8.41,32a11.82,11.82,0,0,0,11,7.42,12.49,12.49,0,0,0,2.28-.22l1.79,6.31.12.42.42-.12.82-.23.43-.11-.12-.42-1.79-6.31.25-.09a11.51,11.51,0,0,0,6.82-14.79s0-.09-.05-.14a11.59,11.59,0,0,0-1.93-3.22l9.27-8.8Z"/><path id="Tracé_26936" data-name="Tracé 26936" class="cls-1" d="M41.52,1.49a5.66,5.66,0,0,0-2,.35,5.41,5.41,0,0,0-3.05,2.85,5.25,5.25,0,0,0-.12,4.13,5.53,5.53,0,0,0,7.1,3.12A5.44,5.44,0,0,0,46.55,9.1,5.36,5.36,0,0,0,46.66,5a5.54,5.54,0,0,0-5.14-3.48m0,12.09a6.84,6.84,0,0,1-6.34-4.29A6.64,6.64,0,0,1,39,.69l.08,0A6.87,6.87,0,0,1,47.87,4.5a6.55,6.55,0,0,1-.14,5.12A6.72,6.72,0,0,1,44,13.13a6.92,6.92,0,0,1-2.43.44"/><path id="Tracé_26937" data-name="Tracé 26937" class="cls-1" d="M41.52,12.09a5.31,5.31,0,0,1-4.93-3.34,5.11,5.11,0,0,1,.11-4A5.31,5.31,0,0,1,46.45,5a5,5,0,0,1-.11,4,5.2,5.2,0,0,1-2.93,2.73,5.28,5.28,0,0,1-1.89.35M41.52,0A7.23,7.23,0,0,0,39,.45,6.87,6.87,0,0,0,35,9.27l0,.09a7,7,0,0,0,9.05,4,6.89,6.89,0,0,0,3.9-3.63,6.7,6.7,0,0,0,.15-5.27A7.06,7.06,0,0,0,41.53,0m0,12.52a5.72,5.72,0,0,0,2-.38,5.62,5.62,0,0,0,3.17-3,5.45,5.45,0,0,0,.12-4.3,5.75,5.75,0,0,0-7.38-3.24,5.6,5.6,0,0,0-3.32,7.19l0,.07a5.75,5.75,0,0,0,5.34,3.61m0-12.08a6.62,6.62,0,0,1,6.14,4.15,6.35,6.35,0,0,1-.14,4.95,6.52,6.52,0,0,1-3.65,3.4A6.62,6.62,0,0,1,35.39,9.2,6.44,6.44,0,0,1,39.09.88l.09,0A6.7,6.7,0,0,1,41.53.42"/><path id="Tracé_26938" data-name="Tracé 26938" class="cls-1" d="M25.21,45.8a3,3,0,0,0-.83.14,2.68,2.68,0,0,0-1.6,1.33,2.62,2.62,0,0,0-.18,2,2.72,2.72,0,0,0,2.6,1.87,3,3,0,0,0,.84-.13,2.69,2.69,0,0,0-.83-5.26m0,6.66a4,4,0,0,1-3.84-2.75,3.9,3.9,0,0,1,.25-3,4.06,4.06,0,0,1,7.42.61,3.87,3.87,0,0,1-.25,3,4,4,0,0,1-3.59,2.15"/><path id="Tracé_26939" data-name="Tracé 26939" class="cls-1" d="M25.21,51a2.49,2.49,0,0,1-2.4-1.72A2.4,2.4,0,0,1,23,47.36a2.51,2.51,0,0,1,1.47-1.22,2.48,2.48,0,0,1,.77-.12,2.51,2.51,0,0,1,2.4,1.72,2.44,2.44,0,0,1-.16,1.89A2.52,2.52,0,0,1,26,50.86a2.87,2.87,0,0,1-.77.11m0-6.65a4.1,4.1,0,0,0-1.3.2,4.19,4.19,0,0,0-2.48,2.06,4.12,4.12,0,0,0-.27,3.19,4.24,4.24,0,0,0,4.05,2.9,4.41,4.41,0,0,0,1.3-.2A4.21,4.21,0,0,0,29,50.4a4.12,4.12,0,0,0,.27-3.19,4.24,4.24,0,0,0-4.05-2.9m0,7.09a3,3,0,0,0,.9-.14,2.89,2.89,0,0,0,1.72-1.44A2.84,2.84,0,0,0,28,47.61a2.93,2.93,0,0,0-2.81-2,3,3,0,0,0-2.63,1.57,2.82,2.82,0,0,0-.18,2.22,2.94,2.94,0,0,0,2.81,2m0-6.65a3.78,3.78,0,0,1,3.63,2.6,3.7,3.7,0,0,1-.24,2.86,3.84,3.84,0,0,1-3.39,2,3.8,3.8,0,0,1-3.63-2.6,3.65,3.65,0,0,1,.24-2.86A3.79,3.79,0,0,1,24,44.92a3.85,3.85,0,0,1,1.17-.17"/><path id="Tracé_26940" data-name="Tracé 26940" class="cls-1" d="M21.71,33.91a6.54,6.54,0,0,1-8.4-3.69A6.36,6.36,0,0,1,17,22l.1,0a6.54,6.54,0,0,1,8.4,3.69,6.36,6.36,0,0,1-3.65,8.23l-.1,0"/><path id="Tracé_26941" data-name="Tracé 26941" class="cls-1" d="M25.73,49.83A1.46,1.46,0,0,1,23.86,49a1.41,1.41,0,0,1,.81-1.83h0a1.44,1.44,0,0,1,1.87.82,1.41,1.41,0,0,1-.8,1.83h0"/><path id="Tracé_26942" data-name="Tracé 26942" class="cls-1" d="M3.91,15.67a1,1,0,0,1-1.3-.57,1,1,0,0,1,.56-1.27h0a1,1,0,0,1,1.3.57,1,1,0,0,1-.57,1.28h0"/></g></svg>