<svg id="Calque_1" data-name="Calque 1" xmlns="http://www.w3.org/2000/svg" viewBox="0 0 111.36 68.56"><defs><style>.cls-1{fill:#959595;}</style></defs><g id="Groupe_24952" data-name="Groupe 24952"><g id="Groupe_24950" data-name="Groupe 24950"><path id="Tracé_26886" data-name="Tracé 26886" class="cls-1" d="M71.23,27.49q-7.59,4.28-15.16,8.57a.77.77,0,0,1-.87,0q-8-4.57-16-9.13c-.12-.06-.3-.18-.37-.14-.3.17-.73.34-.82.6a.93.93,0,0,0,.36,1.27l.06,0,16.92,9.54a.6.6,0,0,0,.68,0l8.15-4.59,8.83-5a.66.66,0,0,0,.34-.44c0-2.13,0-4.27,0-6.4a.5.5,0,0,0-.16-.35c-.47-.41-.58-.42-1.13-.11l-1,.57L56.09,30.35a.78.78,0,0,1-.9,0c-1.09-.65-2.2-1.27-3.3-1.9L40.16,21.72c-.15-.09-.35-.23-.36-.36,0-1.11,0-2.22,0-3.42l.53.28,15,8.44a.57.57,0,0,0,.64,0Q64.47,21.87,73,17.07a.51.51,0,0,0,.32-.52c0-2.06,0-4.12,0-6.18a.76.76,0,0,0-.84-.69,1,1,0,0,0-.25.06l-16.05,9.1a1,1,0,0,1-1.09,0q-7-4-14-7.95l-.44-.27.49-.28,14.16-8a.62.62,0,0,1,.72,0c3.79,2.13,7.58,4.25,11.35,6.4a1.14,1.14,0,0,0,1.47,0A.77.77,0,0,0,69,7.61a.72.72,0,0,0-.23-.23L56,.11a.54.54,0,0,0-.64,0q-8.49,4.83-17,9.63c-.4.23-.39.51-.4.86a.72.72,0,0,0,.42.77q8.48,4.74,16.92,9.51a.65.65,0,0,0,.75,0L71.1,12.42l.45-.22c0,.2,0,.33,0,.46,0,.9,0,1.82,0,2.72a.64.64,0,0,1-.38.66L56.05,24.6a.74.74,0,0,1-.83,0q-8-4.59-16-9.14a.86.86,0,0,0-1.25.71c0,2,0,4,0,5.94a.78.78,0,0,0,.47.81q8.41,4.71,16.82,9.46a.71.71,0,0,0,.82,0Q63.55,28.17,71.09,24a5.38,5.38,0,0,1,.49-.25c0,1.11,0,2.14,0,3.17a.58.58,0,0,1-.36.58"/></g><g id="Groupe_24951" data-name="Groupe 24951"><path id="Tracé_26887" data-name="Tracé 26887" class="cls-1" d="M6.51,66a3.92,3.92,0,0,1,0-7.83A3.82,3.82,0,0,1,10.27,62v0A3.79,3.79,0,0,1,6.58,66H6.51m3.63-11.9v3a1.28,1.28,0,0,1-.14.37,1,1,0,0,1-.32-.15,5.08,5.08,0,0,0-4.25-1.54A5.88,5.88,0,0,0,.3,60.05c-.12.39-.2.78-.3,1.17v1.83c.12.48.23,1,.38,1.42a5.71,5.71,0,0,0,5.29,4,.83.83,0,0,1,.21.06H6a.94.94,0,0,1,.24-.06,5,5,0,0,0,3.42-1.55,1.65,1.65,0,0,1,.37-.2,1.57,1.57,0,0,1,.15.43c0,.35,0,.7,0,1.06h2.7V50.8h-2.7v3.26"/><path id="Tracé_26888" data-name="Tracé 26888" class="cls-1" d="M20.75,66a3.92,3.92,0,1,1,3.78-4v.14A3.8,3.8,0,0,1,20.86,66h-.11m3.64-8.86a.86.86,0,0,1-.16.35,2.38,2.38,0,0,1-.31-.17,9.82,9.82,0,0,0-1-.81,5.7,5.7,0,0,0-6.68.86,6.46,6.46,0,0,0-1.84,6.23,5.83,5.83,0,0,0,4.46,4.8c.41.09.82.15,1.23.2h.07a1.14,1.14,0,0,1,.25-.06,5,5,0,0,0,3.48-1.59,1.92,1.92,0,0,1,.35-.23,1.7,1.7,0,0,1,.15.45c0,.36,0,.72,0,1.08h2.66V56.05H24.4c0,.36,0,.71,0,1.05"/><path id="Tracé_26889" data-name="Tracé 26889" class="cls-1" d="M43.48,66a3.92,3.92,0,1,1,3.68-4.15V62A3.83,3.83,0,0,1,43.48,66m3.57-8.79a.37.37,0,0,1-.15.27s-.18,0-.25-.11-.24-.26-.38-.37a5.57,5.57,0,0,0-6.83-.07,6.41,6.41,0,0,0-2.36,6.71A5.89,5.89,0,0,0,42,68.45l.78.1h.08a1.05,1.05,0,0,1,.24-.06,4.89,4.89,0,0,0,3.53-1.66,1.48,1.48,0,0,1,.27-.16c.06.11.16.21.16.32,0,.4,0,.8,0,1.21h2.62V56H47.06c0,.4,0,.77,0,1.13"/><path id="Tracé_26890" data-name="Tracé 26890" class="cls-1" d="M109.58,61.67A17,17,0,0,0,108,61c-.7-.29-1.43-.51-2.11-.84a1.07,1.07,0,0,1-.57-1.23,1.14,1.14,0,0,1,.93-.91,2.18,2.18,0,0,1,2.35.8c.18.21.32.45.5.7l2.12-1.16a4.82,4.82,0,0,0-6.48-2.11,4.51,4.51,0,0,0-.78.5,3.4,3.4,0,0,0-.33,4.8,3.52,3.52,0,0,0,.9.73,10.41,10.41,0,0,0,1.29.55c.69.25,1.39.43,2.06.7a1.27,1.27,0,0,1,.94,1.4,1.42,1.42,0,0,1-1.31,1.18,2.44,2.44,0,0,1-2.23-.73,8.87,8.87,0,0,1-.8-1l-2.19,1.14a10.73,10.73,0,0,0,1,1.41,4.82,4.82,0,0,0,4.41,1.46,3.92,3.92,0,0,0,3.65-3.07s0,0,0,0V64a3.42,3.42,0,0,0-1.79-2.3"/><path id="Tracé_26891" data-name="Tracé 26891" class="cls-1" d="M58.1,66a3.91,3.91,0,0,1-3.81-4,3.83,3.83,0,0,1,3.78-3.89,3.93,3.93,0,0,1,0,7.85M57.85,55.8a4.88,4.88,0,0,0-2.91,1.53,1.52,1.52,0,0,1-.3.17,2.83,2.83,0,0,1-.16-.36,1.22,1.22,0,0,1,0-.27V51.15c0-.13,0-.27,0-.4H51.79V68.07h2.64c0-.37,0-.7,0-1a1.33,1.33,0,0,1,.13-.33,1,1,0,0,1,.33.15c.27.21.5.48.77.68a5.62,5.62,0,0,0,6.65-.35,6.8,6.8,0,0,0,1.82-7.74,5.71,5.71,0,0,0-6.27-3.65"/><path id="Tracé_26892" data-name="Tracé 26892" class="cls-1" d="M97.29,61.7c-.37-.44-.37-.44,0-.86l4.48-4.48.32-.34C101,56,100,56,99,56a.67.67,0,0,0-.38.2c-.77.75-1.53,1.52-2.3,2.29-.59.6-1.18,1.19-1.78,1.78-.07.07-.23.16-.28.13a.56.56,0,0,1-.17-.3,1,1,0,0,1,0-.3V50.72h-2.6V68.06h2.65V63.62c0-.29.32-.8.59-.8a.86.86,0,0,1,.54.37c1.27,1.54,2.53,3.1,3.76,4.66a.69.69,0,0,0,.62.29c.71,0,1.42,0,2.13,0h.77l-.18-.25-5.1-6.18"/><path id="Tracé_26893" data-name="Tracé 26893" class="cls-1" d="M83.67,58.62A4.39,4.39,0,0,1,88,59l.47.31,1.7-1.62L90,57.56c-.15-.12-.3-.25-.45-.36a6.86,6.86,0,0,0-7-1,6.36,6.36,0,0,0-3.4,8.22,5.69,5.69,0,0,0,4.2,3.74A7.11,7.11,0,0,0,90,66.47l-1.49-1.58A5.83,5.83,0,0,1,85.26,66a3.86,3.86,0,0,1-1.6-7.34"/><path id="Tracé_26894" data-name="Tracé 26894" class="cls-1" d="M34.68,65.88a1.24,1.24,0,0,1-1.23-1,2.82,2.82,0,0,1-.15-.7q0-1-.06-2.1c0-1.15,0-2.29,0-3.44,0-.35.12-.47.47-.45.67,0,1.35,0,2,0l.37,0V56H33.82c-.57,0-.58,0-.58-.57V52.32H30.56v.44c0,.93,0,1.86,0,2.78,0,.38-.09.53-.49.5S29,56,28.5,56v2.21H30c.5,0,.52,0,.52.52,0,1.8,0,3.59,0,5.38a7.71,7.71,0,0,0,.22,1.66,3,3,0,0,0,2.28,2.32,10.25,10.25,0,0,0,3.27,0,.27.27,0,0,0,.17-.19c0-.71,0-1.42,0-2.08-.65,0-1.25,0-1.84,0"/><path id="Tracé_26895" data-name="Tracé 26895" class="cls-1" d="M69.2,57.4a1.64,1.64,0,0,1-.31.28,1.17,1.17,0,0,1-.2-.44c0-.42,0-.84,0-1.27H66V68h2.65c0-1.68,0-3.34,0-5a7.66,7.66,0,0,1,.15-1.51,3.39,3.39,0,0,1,2.61-2.9,9.6,9.6,0,0,1,1.42-.11V55.77l-.5-.05a3.76,3.76,0,0,0-3.17,1.69"/><rect id="Rectangle_8719" data-name="Rectangle 8719" class="cls-1" x="74.58" y="56.03" width="2.68" height="12.03"/><path id="Tracé_26896" data-name="Tracé 26896" class="cls-1" d="M75.89,50.77a1.64,1.64,0,1,0,0,3.28,1.62,1.62,0,0,0,1.64-1.61,1.65,1.65,0,0,0-1.63-1.67"/></g></g></svg>