<svg id="Calque_1" data-name="Calque 1" xmlns="http://www.w3.org/2000/svg" viewBox="0 0 109.48 49.41"><defs><style>.cls-1{fill:#959595;}</style></defs><g id="Groupe_24948" data-name="Groupe 24948"><path id="Tracé_26877" data-name="Tracé 26877" class="cls-1" d="M33.63,12.64a1.05,1.05,0,1,1-1.05,1h0a1,1,0,0,1,1.05-1"/><path id="Tracé_26878" data-name="Tracé 26878" class="cls-1" d="M36.62,13.88s-.89,1.29-.43,4.35c.87,5.73-2.14,10.83-7.48,10.83H24.76v1.57H21.61c-.78,0-2.33-.12-3,.55-7,6.71-8.5,8.65-9,8.92-.31.16-.39-.21-.39-.21l20.3-25c0-4.51,4.93-5.71,6.89-2.37L39,11.59Zm1.94,18.74H26.34v-2H38.55v2ZM24.66.08A24.67,24.67,0,1,0,49.33,24.75,24.67,24.67,0,0,0,24.66.08h0"/><path id="Tracé_26879" data-name="Tracé 26879" class="cls-1" d="M65.19,7.46c-1.86,0-2.52,1.5-2.52,5.86,0,3.67.48,6,2.74,6s2.74-2.28,2.74-5.73c0-3.89-.46-6.11-3-6.11m2.94,12h0a3.44,3.44,0,0,1-3.55,2.4c-3.78,0-5.29-3.15-5.29-8.71,0-7.18,2.53-8.3,5-8.3A3.79,3.79,0,0,1,67.9,7.18H68V0H71.2V21.45H68.14Z"/><path id="Tracé_26880" data-name="Tracé 26880" class="cls-1" d="M82.17,12.93c-.85.66-2.65,1.06-3.6,1.5a2.67,2.67,0,0,0-1.33,2.62c0,1.34.67,2.44,2,2.44,2,0,2.92-1.48,2.92-3.86Zm3.06,5.18c0,.6.36,1.14.84,1.14a1.23,1.23,0,0,0,.54-.09v2.1a3.7,3.7,0,0,1-1.6.39c-1.43,0-2.65-.57-2.74-2.13h0a4.21,4.21,0,0,1-4,2.37c-2.59,0-4.21-1.44-4.21-4.54,0-3.6,1.56-4.35,3.76-5.07l2.52-.7c1.17-.33,1.9-.66,1.9-2.08s-.5-2.4-2.22-2.4c-2.17,0-2.46,1.54-2.46,3.1h-3c0-3.42,1.41-5.32,5.68-5.32,2.85,0,5.14,1.11,5.14,4v9.27Z"/><path id="Tracé_26881" data-name="Tracé 26881" class="cls-1" d="M87.4,5.29h2.22V.69h3.24v4.6h2.65v2.4H92.86v9.65c0,1.25.36,1.72,1.47,1.72A6.45,6.45,0,0,0,95.5,19v2.4a10.38,10.38,0,0,1-2.61.27c-2.19,0-3.28-.61-3.28-3.9v-10H87.38V5.29Z"/><path id="Tracé_26882" data-name="Tracé 26882" class="cls-1" d="M105,12.93c-.85.66-2.66,1.06-3.6,1.5a2.67,2.67,0,0,0-1.33,2.62c0,1.34.66,2.44,2,2.44,1.95,0,2.92-1.48,2.92-3.86Zm3.06,5.18c0,.6.36,1.14.84,1.14a1.26,1.26,0,0,0,.54-.09v2.1a3.84,3.84,0,0,1-1.59.39c-1.44,0-2.65-.57-2.74-2.13h-.06a4.21,4.21,0,0,1-4,2.37c-2.58,0-4.21-1.44-4.21-4.54,0-3.6,1.56-4.35,3.76-5.07l2.53-.7c1.16-.33,1.9-.66,1.9-2.08s-.51-2.4-2.23-2.4c-2.16,0-2.46,1.54-2.46,3.1H97.29c0-3.42,1.42-5.32,5.68-5.32,2.85,0,5.14,1.11,5.14,4v9.27Z"/><path id="Tracé_26883" data-name="Tracé 26883" class="cls-1" d="M60,32.74h3.24V48.91H60Zm0-5.53h3.24v3.24H60Z"/><path id="Tracé_26884" data-name="Tracé 26884" class="cls-1" d="M66.84,27.45h3.25V39.5h0L75,32.74l3.76,0L73.93,39l5.5,9.95H75.88l-4-7.37-1.82,2.23v5.14H66.84Z"/><path id="Tracé_26885" data-name="Tracé 26885" class="cls-1" d="M89.32,47h-.09a4.66,4.66,0,0,1-4.15,2.31c-2.4,0-4-1.11-4-5.28V32.74H84.3v11.6c0,1.81.81,2.4,2.19,2.4a2.53,2.53,0,0,0,2.65-2.42V32.74h3.24V48.91H89.32Z"/></g></svg>