<svg id="Calque_1" data-name="Calque 1" xmlns="http://www.w3.org/2000/svg" viewBox="0 0 161.35 41.6"><defs><style>.cls-1{fill:#959595;}</style></defs><g id="Composant_134" data-name="Composant 134"><path id="Tracé_26612" data-name="Tracé 26612" class="cls-1" d="M73.84,30.12a5.35,5.35,0,0,1-7,2.89l0,0a5.36,5.36,0,1,1,7-7l0,0a5.18,5.18,0,0,1,0,4.12m2-18a1.53,1.53,0,0,0-1.59,1.48h0v7.75a8.57,8.57,0,0,0-12,1.31,8.7,8.7,0,0,0-1.89,5.38,8.57,8.57,0,0,0,17.13.42V13.71A1.59,1.59,0,0,0,77,12.58a1.72,1.72,0,0,0-1.16-.45"/><path id="Tracé_26613" data-name="Tracé 26613" class="cls-1" d="M92.64,30.09a5.2,5.2,0,0,1-1.16,1.69,5.6,5.6,0,0,1-1.69,1.16,5.36,5.36,0,1,1-4.2-9.87h0a5.46,5.46,0,0,1,4.2,0,5.31,5.31,0,0,1,1.69,1.16,5.6,5.6,0,0,1,1.16,1.69,5.39,5.39,0,0,1,0,4.17m1.1-8.1a8.63,8.63,0,1,0,2.53,6.35V28a8.57,8.57,0,0,0-.65-3.28A8.1,8.1,0,0,0,93.74,22"/><path id="Tracé_26614" data-name="Tracé 26614" class="cls-1" d="M129.16,21.05a1.69,1.69,0,0,0-.14-.62,2.15,2.15,0,0,0-.35-.5,1.82,1.82,0,0,0-.51-.36,1.61,1.61,0,0,0-1.48.11l-9.14,5.95V13.74a1.6,1.6,0,1,0-3.2,0V35a1.56,1.56,0,0,0,.46,1.13,1.58,1.58,0,0,0,2.24,0,1.53,1.53,0,0,0,.47-1.14V29.47l1.86-1.21,7.07,7.93a1.48,1.48,0,0,0,1.08.4,1.18,1.18,0,0,0,.61-.13,1.5,1.5,0,0,0,.51-.35,1.93,1.93,0,0,0,.35-.51,1.51,1.51,0,0,0,.14-.62,1.7,1.7,0,0,0-.43-1.1l-6.56-7.4,6.4-4.16a1.4,1.4,0,0,0,.62-1.27"/><path id="Tracé_26615" data-name="Tracé 26615" class="cls-1" d="M102.62,24.23a5.17,5.17,0,0,1,1.72-1.16,5.42,5.42,0,0,1,4-.11,5.87,5.87,0,0,1,1.64,1,1.6,1.6,0,0,0,1,.35,1.49,1.49,0,0,0,1.16-.45,1.68,1.68,0,0,0,.45-1.16,1.52,1.52,0,0,0-.56-1.21,8.05,8.05,0,0,0-5.59-2.07A8.58,8.58,0,1,0,112,34.5a1.59,1.59,0,0,0,.51-1.18A1.53,1.53,0,0,0,111,31.74h-.11a1.66,1.66,0,0,0-1,.32,5.06,5.06,0,0,1-3.46,1.32,5.2,5.2,0,0,1-2.1-.44,5.37,5.37,0,0,1-1.75-8.73c0,.05,0,.05,0,0"/><path id="Tracé_26616" data-name="Tracé 26616" class="cls-1" d="M160.91,20.54a2.86,2.86,0,0,0-1.07-.64,6.91,6.91,0,0,0-1.43-.33,13.94,13.94,0,0,0-1.45-.08,8.32,8.32,0,0,0-2.88.51,9.06,9.06,0,0,0-2.5,1.4v-.32a1.6,1.6,0,1,0-3.2,0h0V35a1.6,1.6,0,0,0,3.2,0v-7A5.27,5.27,0,0,1,152,26a4.92,4.92,0,0,1,1.15-1.7A5.34,5.34,0,0,1,157,22.69a6,6,0,0,1,2.1.38,1.58,1.58,0,0,0,.68.16,1.25,1.25,0,0,0,.62-.14,1.6,1.6,0,0,0,.51-.35,1.85,1.85,0,0,0,.35-.51,1.6,1.6,0,0,0,.13-.62,1.36,1.36,0,0,0-.43-1.07"/><path id="Tracé_26617" data-name="Tracé 26617" class="cls-1" d="M133,26.49a4.44,4.44,0,0,1,.76-1.54,4.9,4.9,0,0,1,1.18-1.18,6,6,0,0,1,1.51-.78,5.42,5.42,0,0,1,6.85,3.5Zm13.1-1.72a8.74,8.74,0,0,0-7.93-5.28,8.57,8.57,0,1,0,5.59,15.06l.06,0a1.35,1.35,0,0,0,.35-.4,1.63,1.63,0,0,0-.4-2.26,1.6,1.6,0,0,0-2,.19,2,2,0,0,0-.21.21l0,0a5,5,0,0,1-3.39,1.18,5.32,5.32,0,0,1-3.22-1,5.17,5.17,0,0,1-1.19-1.19,4.85,4.85,0,0,1-.75-1.53h12.1a1.6,1.6,0,0,0,1.13-.46,1.39,1.39,0,0,0,.46-1.13,8.8,8.8,0,0,0-.59-3.33"/><path id="Tracé_26618" data-name="Tracé 26618" class="cls-1" d="M155.46,36.27a.87.87,0,0,1-.92-.83.89.89,0,0,1,.83-.92.88.88,0,0,1,.92.84h0v0a.82.82,0,0,1-.78.86h0m0-2a1.12,1.12,0,0,0,0,2.24,1.12,1.12,0,0,0,0-2.24h0"/><path id="Tracé_26619" data-name="Tracé 26619" class="cls-1" d="M155.4,35.33h-.13V35h.13c.16,0,.24.08.24.16s-.11.19-.24.16m.32.08h0a.29.29,0,0,0,.21-.36.31.31,0,0,0-.1-.15,1,1,0,0,0-.37-.08,3,3,0,0,0-.43,0V36h.24v-.43h.1a.24.24,0,0,1,.25.16,2.76,2.76,0,0,0,.08.27H156a.5.5,0,0,1-.07-.27.28.28,0,0,0-.17-.27"/><path id="Tracé_26620" data-name="Tracé 26620" class="cls-1" d="M57.41,15.73c-.16-.14-1.61-1.24-4.73-1.24a15.5,15.5,0,0,0-2.45.22A9.22,9.22,0,0,0,46.09,8.5L45.26,8l-.54.78a11.36,11.36,0,0,0-1.48,3.45,8.15,8.15,0,0,0,1,6.42,11.22,11.22,0,0,1-4.22,1H1.8A1.81,1.81,0,0,0,0,21.48,27.38,27.38,0,0,0,1.67,31.3a14.68,14.68,0,0,0,5.81,7.55C10.33,40.6,15,41.6,20.23,41.6A39.07,39.07,0,0,0,27.3,41a29.12,29.12,0,0,0,9.25-3.36,25.39,25.39,0,0,0,6.29-5.16A34.46,34.46,0,0,0,49,21.81h.53A8.87,8.87,0,0,0,56,19.36a7.07,7.07,0,0,0,1.72-2.53l.25-.7Z"/><path id="Tracé_26621" data-name="Tracé 26621" class="cls-1" d="M5.35,18.58h5.11a.46.46,0,0,0,.46-.45h0V13.55a.46.46,0,0,0-.45-.46H5.35a.46.46,0,0,0-.46.45h0v4.57a.48.48,0,0,0,.46.46"/><path id="Tracé_26622" data-name="Tracé 26622" class="cls-1" d="M12.4,18.58h5.11a.45.45,0,0,0,.45-.45h0V13.55a.44.44,0,0,0-.44-.46H12.4a.46.46,0,0,0-.46.45h0v4.57a.48.48,0,0,0,.46.46"/><path id="Tracé_26623" data-name="Tracé 26623" class="cls-1" d="M19.58,18.58h5.11a.45.45,0,0,0,.45-.45h0V13.55a.45.45,0,0,0-.45-.46H19.58a.46.46,0,0,0-.46.46h0v4.57a.44.44,0,0,0,.42.46h0"/><path id="Tracé_26624" data-name="Tracé 26624" class="cls-1" d="M26.65,18.58h5.11a.46.46,0,0,0,.46-.45h0V13.55a.46.46,0,0,0-.45-.46H26.65a.46.46,0,0,0-.46.45h0v4.57a.46.46,0,0,0,.45.46h0"/><path id="Tracé_26625" data-name="Tracé 26625" class="cls-1" d="M12.4,12.05h5.11a.46.46,0,0,0,.45-.46V7a.44.44,0,0,0-.44-.46H12.4a.46.46,0,0,0-.46.45h0v4.57a.5.5,0,0,0,.46.46"/><path id="Tracé_26626" data-name="Tracé 26626" class="cls-1" d="M19.58,12.05h5.11a.46.46,0,0,0,.45-.46V7a.44.44,0,0,0-.45-.46H19.58a.46.46,0,0,0-.46.45h0v4.57a.46.46,0,0,0,.45.46h0"/><path id="Tracé_26627" data-name="Tracé 26627" class="cls-1" d="M26.65,12.05h5.11a.48.48,0,0,0,.46-.46V7a.48.48,0,0,0-.46-.46H26.65a.46.46,0,0,0-.46.45h0v4.57a.48.48,0,0,0,.46.46"/><path id="Tracé_26628" data-name="Tracé 26628" class="cls-1" d="M26.65,5.49h5.11A.46.46,0,0,0,32.22,5h0V.45A.48.48,0,0,0,31.76,0H26.65a.46.46,0,0,0-.46.45h0V5a.48.48,0,0,0,.46.46"/><path id="Tracé_26629" data-name="Tracé 26629" class="cls-1" d="M33.78,18.58h5.1a.46.46,0,0,0,.46-.45h0V13.55a.46.46,0,0,0-.45-.46H33.78a.45.45,0,0,0-.46.45h0v4.57a.48.48,0,0,0,.46.46"/></g></svg>