<svg id="Calque_1" data-name="Calque 1" xmlns="http://www.w3.org/2000/svg" viewBox="0 0 83.24 62.98"><defs><style>.cls-1{fill:#959595;}</style></defs><path id="Tracé_13434" data-name="Tracé 13434" class="cls-1" d="M10.41,27.55h4.64l1.52,6.23h0l1.51-6.23h4.65V38.16H19.67v-6.8h0l-1.84,6.8H15.37l-1.84-6.8h0v6.8H10.41Z"/><path id="Tracé_13435" data-name="Tracé 13435" class="cls-1" d="M24.44,27.55h8.78v2.72H27.71v1.32h5v2.53h-5v1.32h5.67v2.72H24.44Zm4.88-.74h-2l1.48-2.22h3.1Z"/><path id="Tracé_13436" data-name="Tracé 13436" class="cls-1" d="M34.9,27.55h5.36c3.54,0,4.79,2.61,4.79,5.29,0,3.25-1.72,5.32-5.43,5.32H34.9Zm3.27,7.89h1.28c2,0,2.33-1.65,2.33-2.65a2.35,2.35,0,0,0-2.14-2.53,2.06,2.06,0,0,0-.43,0H38.16v5.16Z"/><rect id="Rectangle_4302" data-name="Rectangle 4302" class="cls-1" x="46.46" y="27.55" width="3.27" height="10.61"/><path id="Tracé_13437" data-name="Tracé 13437" class="cls-1" d="M54.35,27.55h3.19l3.87,10.61H58l-.45-1.52H54.2l-.48,1.52H50.45Zm2.57,6.82L56,31.1h0l-1,3.27Z"/><path id="Tracé_13438" data-name="Tracé 13438" class="cls-1" d="M64.73,34.59a2.15,2.15,0,0,0,.12.7,1.51,1.51,0,0,0,1.56.77c.54,0,1.35-.18,1.35-1,0-.55-.45-.7-2.28-1.21s-3.6-.94-3.6-3.08c0-2.45,2.1-3.5,4.28-3.5s4.34.87,4.42,3.46H67.5a.81.81,0,0,0-.39-.85,1.69,1.69,0,0,0-1-.26c-.45,0-1.18.11-1.18.71.06.75,1.58.92,3.08,1.34s3,1.11,3,3.06c0,2.76-2.54,3.65-4.9,3.65-1.21,0-4.64-.44-4.67-3.82Z"/><path id="Tracé_13439" data-name="Tracé 13439" class="cls-1" d="M10.41,52.12h4.64l1.52,6.24h0l1.51-6.24h4.65v10.6H19.67v-6.8h0l-1.84,6.8H15.37l-1.84-6.8h0v6.8H10.41Z"/><path id="Tracé_13440" data-name="Tracé 13440" class="cls-1" d="M29.51,51.87a5.55,5.55,0,1,1-5.38,5.73v-.18A5.2,5.2,0,0,1,29,51.88a3,3,0,0,1,.52,0m0,8.46c.83,0,2.1-.55,2.1-2.91s-1.27-2.91-2.1-2.91-2.11.55-2.11,2.91,1.28,2.91,2.11,2.91"/><path id="Tracé_13441" data-name="Tracé 13441" class="cls-1" d="M36.28,52.12h3.34l3.1,5.67h0V52.12h3.09v10.6H42.65L39.4,56.93h0v5.79H36.28Z"/><path id="Tracé_13442" data-name="Tracé 13442" class="cls-1" d="M47.55,52.12h5.36c3.53,0,4.78,2.61,4.78,5.29,0,3.24-1.72,5.31-5.42,5.31H47.55V52.12ZM50.81,60h1.28c2,0,2.33-1.64,2.33-2.64a2.34,2.34,0,0,0-2.14-2.53,2.06,2.06,0,0,0-.43,0h-1V60Z"/><path id="Tracé_13443" data-name="Tracé 13443" class="cls-1" d="M59.1,52.12h8.78v2.72H62.37v1.31h5v2.53h-5V60H68v2.72H59.1Z"/><rect id="Rectangle_4303" data-name="Rectangle 4303" class="cls-1" y="17.32" width="83.24" height="0.59"/><rect id="Rectangle_4304" data-name="Rectangle 4304" class="cls-1" y="45.08" width="83.24" height="0.59"/><path id="Tracé_13444" data-name="Tracé 13444" class="cls-1" d="M10.41.25h8.2V3H13.67V4.29h4.24V6.81H13.67v4H10.41Z"/><path id="Tracé_13445" data-name="Tracé 13445" class="cls-1" d="M19.76.25H26c1.86,0,3.46,1,3.46,3a2.7,2.7,0,0,1-1.59,2.65,2.92,2.92,0,0,1,1.57,2.65,7,7,0,0,0,.35,2.27H26.51a7.49,7.49,0,0,1-.26-1.63c-.09-1-.18-2.06-1.47-2.06H23v3.69H19.76V.25ZM23,4.88h1.71c.61,0,1.44-.1,1.44-1,0-.67-.36-1.06-1.61-1.06H23V4.88Z"/><path id="Tracé_13446" data-name="Tracé 13446" class="cls-1" d="M33.72.25h3.2l3.85,10.6H37.39l-.45-1.51H33.56l-.47,1.51H29.81Zm2.56,6.82L35.34,3.8h0l-1,3.27Z"/><path id="Tracé_13447" data-name="Tracé 13447" class="cls-1" d="M41.52.25h3.34L48,5.92h0V.25h3.08v10.6H47.89L44.63,5.06h0v5.79H41.52Z"/><path id="Tracé_13448" data-name="Tracé 13448" class="cls-1" d="M59.46,4.2a1.7,1.7,0,0,0-1.72-1.56c-1.52,0-2,1.48-2,2.91s.49,2.91,2,2.91c1.1,0,1.54-.77,1.74-1.76h3.2A4.55,4.55,0,0,1,58,11.11h-.15c-3.43,0-5.38-2.42-5.38-5.56C52.46,2.21,54.57,0,57.84,0c2.91,0,4.51,1.54,4.8,4.2Z"/><path id="Tracé_13449" data-name="Tracé 13449" class="cls-1" d="M64.06.25h8.77V3H67.32V4.29h5V6.81h-5V8.14H73v2.72H64.06Z"/></svg>