<svg id="Calque_1" data-name="Calque 1" xmlns="http://www.w3.org/2000/svg" viewBox="0 0 104.73 60.69"><defs><style>.cls-1{fill:#959595;fill-rule:evenodd;}</style></defs><g id="Groupe_4897" data-name="Groupe 4897"><path id="Tracé_13452" data-name="Tracé 13452" class="cls-1" d="M0,30.18H6.3v2.29H4.35V36.3h7.1V32.47h-2V30.18h6.41v2.29H13.8V43.74h2.06V46H9.45V43.75h2V38.54H4.35v5.21h2V46H0V43.75H2V32.47H0Zm75.31,0H88.25v4.41H86.07V32.47h-6.3v3.78h5.38v2.23H79.77v5.26H86v-3H88.3V46h-13V43.75h2.12V32.47H75.31Zm-56.54,0h13v4.41H29.53V32.47h-6.3v3.78h5.38v2.23H23.23v5.26h6.24v-3h2.29V46h-13V43.75h2.11V32.47H18.77Zm60.32-2.12h4.64l1.14,1.37H80.35ZM101,36.93c-1.6-.4-2.69-.34-4.35-.86-1.43-.51-1.71-1.37-1.71-1.94S95.52,32,97.81,32s3.83,1.55,3.89,2.86h2.23V30.18h-2.18v1l.12.29h0c-.06,0-.12-.18-.35-.35v0a5.76,5.76,0,0,0-3.89-1.26c-2.34,0-5.09,1.48-5.09,4.29s1.94,3.66,3.66,4.12,2.52.46,4,.86a2.6,2.6,0,0,1,2.29,2.46c0,1.14-.74,2.69-3.72,2.69a4.06,4.06,0,0,1-4.45-3.6c0-.08,0-.16,0-.24H92.14V46h2.17V45l-.06-.29a.77.77,0,0,0,.35.34v.06A7,7,0,0,0,99,46.49c2.12,0,5.73-1.09,5.73-4.86,0-2.75-1.43-4-3.78-4.69ZM70.22,43.74V32.47h2.12V30.18H66.62l-3.84,9.27-.06.46-.11-.46-3.78-9.27H53.05v2.29h2.12V43.74H53.05V46h6.47V43.75h-2v-11l.17.51L62.1,43.74h1.26l4.4-10.53.12-.57.06.63V43.74h-2V46h6.41V43.75ZM24.09,24.11H21.92v-.57h1.6a4.39,4.39,0,0,0,.57.57Zm54.66,0a.72.72,0,0,1,.51-.57h1.15v.57Zm-35.94.4a4,4,0,0,1-3.15,0H28.27a4.44,4.44,0,0,1-3.43,0H21.92V25.6H80.41V24.51ZM29,24.11a6.75,6.75,0,0,0,.63-.57H38.4a2.57,2.57,0,0,0,.57.57Zm12.3-.34a2.78,2.78,0,0,0,0-5.55,2.78,2.78,0,1,0,0,5.55v.57a3.34,3.34,0,0,1-3.38-3.29v0a3.34,3.34,0,0,1,3.32-3.37h.06A3.33,3.33,0,0,1,44.58,21v0a3.32,3.32,0,0,1-3.32,3.32Zm-10.93-3.2a3.82,3.82,0,0,0-3.78-3.78,3.77,3.77,0,0,0-3.78,3.77h0a3.75,3.75,0,0,0,3.7,3.78h.08a3.79,3.79,0,0,0,3.78-3.77H29.7a3.18,3.18,0,1,1-6.36,0h0a3.16,3.16,0,0,1,3.16-3.15h.05a3.14,3.14,0,0,1,3.15,3.13h.63Z"/><path id="Tracé_13453" data-name="Tracé 13453" class="cls-1" d="M43,22.91l-1.15-1.32v-.06c.06-.05.06-.11.12-.17l1.71.46c.06,0,.18.06.18.11a1.49,1.49,0,0,1,.11-.4.37.37,0,0,1-.29.06l-1.6-.46s0,0,0-.05h0v-.29l1.66-.63s.17,0,.17.06-.12-.35-.12-.4a.26.26,0,0,1-.17.17l.12-.06L42,20.56c0,.06,0,0-.06,0a.11.11,0,0,0-.11-.11c0-.06-.06-.12,0-.12l.91-1.43a.45.45,0,0,1,.23-.11c-.14-.07-.27-.15-.4-.23.06,0,.06.17,0,.23l-.91,1.43h-.12a.49.49,0,0,0-.17-.06.06.06,0,0,1-.06-.06h0l0-1.66c0-.11,0-.23.11-.23h-.46c.06,0,.12.18.12.23l.05,1.66a.05.05,0,0,1-.05.06h0l-.18.11s0,0,0-.05h0L39.72,18.9a.32.32,0,0,1-.06-.23c0,.06-.28.23-.34.29a.38.38,0,0,1,.23.11l1.09,1.32v.06c-.06,0-.12.11-.12.17a.16.16,0,0,1-.11.05l-1.6-.45q-.18-.09-.18-.18c0,.06-.11.35-.11.4s.17-.05.23,0l1.6.4a.06.06,0,0,1,.06.06h0v.29l-1.6.68c-.06,0-.17.06-.17,0a1.08,1.08,0,0,0,.11.4.26.26,0,0,1,.17-.17l1.55-.68a0,0,0,0,1,.05,0h0a.14.14,0,0,1,.12.12.06.06,0,0,1,.06.05h0l-1,1.44c0,.05-.11.11-.17.11a1.27,1.27,0,0,0,.34.23s0-.17,0-.23l1-1.37a.06.06,0,0,1,.05-.06h0a.23.23,0,0,0,.18.06s0,0,0,.05l.12,1.72c0,.06-.06.17-.12.17h.46c-.11,0-.11-.11-.11-.23l-.12-1.66a.06.06,0,0,1,.06-.05h0a.51.51,0,0,0,.23-.12s0,0,.06.06h0L42.87,23c0,.06.06.17.06.23l.28-.29c-.05.06-.17-.05-.17-.05Zm-16.6-4.52a15.51,15.51,0,0,1,4.12.46c.11,0,.11.11,0,.17a20.57,20.57,0,0,1-4.07.4,18.36,18.36,0,0,1-4.12-.23c-.11,0-.11-.12,0-.12a14.46,14.46,0,0,1,4.07-.68V18.1a16.53,16.53,0,0,0-4.87,1c-.17.06-.17.18,0,.18a18.1,18.1,0,0,0,4.92.4A20,20,0,0,0,31.36,19c.23-.06.17-.18.06-.18a17.21,17.21,0,0,0-5-.74Z"/><path id="Tracé_13454" data-name="Tracé 13454" class="cls-1" d="M43.44,17.36A7.25,7.25,0,0,1,42,17.7c-.29,0-1.72-.05-2.69,0-1.32.06-1.43.23-1.49.12a6.73,6.73,0,0,0-1-1.55,15.19,15.19,0,0,1-7.73-.8v-.34a1.39,1.39,0,0,0,.4.06c-.4-.58-1.09-.75-1.49-1.38-.23-.17-.28-.51-.51-.68,0,.63-.46,1.08-.52,1.6a1.92,1.92,0,0,0,1,0,.62.62,0,0,1,.63.17,1.3,1.3,0,0,0,.51.18v.34a1.67,1.67,0,0,1-.57-.23.56.56,0,0,1-.63-.06,3.52,3.52,0,0,0-.86,0,2.29,2.29,0,0,0-1.95.91,1.11,1.11,0,0,0,.06,1,5.64,5.64,0,0,0,1,1.15l-.45.11c-.69-.63-1.2-1.2-1.09-1.94.34-1.6,1.83-1.38,2.23-2.06a4.89,4.89,0,0,0,.06-3c-1-.4-2.18-.92-2.4-2.06a.56.56,0,0,1,.34-.69A1.9,1.9,0,0,1,26.1,9c.17-.12-.17-.52.23-.52s.86,1,1,1.09l-.06.4c-.34-.12-1.6-.8-1.72-.86s-.51-.29-.68-.06.06.63.23.92c2.69,2.8,7.15-.17,10.07,1.83.06-.17,0-.23-.12-.29-2-1.88-5.2-.91-7.78-1.54l.06-.4c3.2.8,7.44-.52,9.1,3.15,1.09,1.54,2.23,4,4.58,4.06a4.34,4.34,0,0,0,4.06-2.06c1.26-2.29,2-4.92,4.23-6.47.23-.11.35,0,.23.06A12.9,12.9,0,0,0,47,12c.86,3.26,2.74,2.58,3.2,2.52-.12-1.2,0-4.75,2.57-5.61a5.24,5.24,0,0,1,5.33-.63,13.16,13.16,0,0,0-3.61,6.47l-2.23.63a3.26,3.26,0,0,0,.11-1.55c-.23.11-.46.29-1,.57-.23.06-.06-.28-.06-.28s.57-.35,1-.63c-.17-1.32-.28-3,.8-4.12-2.23.74-1.6,5.43-1.37,6a4,4,0,0,1-1.49.29l-.11-.8c-1,.34-2.64.12-3.38-2.46-.8,1.66-1.49,4.29-3.38,5Zm34.91-7c-.12-.12-.17-.17-.29-.17s0-.12.06-.12.17,0,.23.12S78.41,10.38,78.35,10.38Z"/><path id="Tracé_13455" data-name="Tracé 13455" class="cls-1" d="M27.13,21.42l1.2,1.37a.29.29,0,0,1,.06.35c.17-.06.4-.35.51-.46a.26.26,0,0,1-.34-.06L27.3,21.25v-.12l.05-.05a.06.06,0,0,1,.06-.06h0l1.78.63c.17.11.23.23.23.28,0-.11.17-.45.22-.57a.35.35,0,0,1-.34.06l-1.77-.63c-.06,0-.06,0-.06-.06v-.11a.06.06,0,0,1,.05-.06h0l1.83-.28c.23-.06.34,0,.34.11,0-.11-.05-.51-.05-.63a.47.47,0,0,1-.35.29l-1.77.28a.06.06,0,0,1-.06,0h0c-.06-.06-.06-.12-.11-.18v-.05l1.43-1.2c.17-.12.34-.12.4-.06-.12-.11-.35-.4-.46-.51.06,0,0,.22-.12.4l-1.37,1.14c-.06.06-.06.06-.06,0a.19.19,0,0,1-.17-.06s-.06-.05,0-.05l.63-1.78a.38.38,0,0,1,.29-.23,2.8,2.8,0,0,0-.63-.23c.06,0,.17.23.11.4l-.63,1.72a.06.06,0,0,1-.05.06h-.18l-.05-.06-.35-1.83a.5.5,0,0,1,.12-.34,2.6,2.6,0,0,0-.63.11.45.45,0,0,1,.28.29l.35,1.77c0,.06,0,.06-.06.11s-.11.06-.17.06H26l-1.25-1.37c-.12-.17-.12-.34-.06-.34a1.46,1.46,0,0,0-.46.4.49.49,0,0,1,.35.11l1.25,1.38v0l-.11.12h-.06l-1.71-.63c-.18-.06-.29-.23-.23-.29a4,4,0,0,0-.23.63.43.43,0,0,1,.4-.05l1.72.57v.28L23.75,21c-.17,0-.34-.12-.34-.18a2.63,2.63,0,0,0,.12.69.32.32,0,0,1,.28-.28l1.78-.35a.06.06,0,0,1,.05.06h0c0,.06,0,.06.06.11v.06l-1.43,1.15c-.17.17-.34.11-.34.05,0,.18.28.46.34.52a.45.45,0,0,1,.11-.34l1.49-1.15c0-.06,0-.06.06,0l.11.11c.06,0,.06,0,.06.06l-.63,1.72c0,.17-.23.28-.28.23a1.9,1.9,0,0,0,.63.23c-.12,0-.18-.18-.12-.35l.63-1.77a.06.06,0,0,1,.06-.06h0a.18.18,0,0,0,.17.06.06.06,0,0,1,.06.05h0L27,23.37a.54.54,0,0,1-.17.4,2,2,0,0,0,.63-.17c-.06.06-.23-.12-.23-.23l-.34-1.83v-.06s.11-.06.17-.06.05-.05.11,0ZM77.55,10.6c-.06,0,0-.11,0-.17s.11-.17.11-.34c-.28-.23-.34-.69-.17-.8s.74.05.74.05c.52-.4.69-.68,1-.85a1.69,1.69,0,0,1,1.2,1.2c-.12.17-.4.45-.86,1,.17.4.17.68-.12.91a.34.34,0,0,1-.28-.11c0,.57.68.91.91,1.37,0,.92,1,2.06-.11,2.8a1.25,1.25,0,0,0-.57.52c.17.91.51,1.88.68,2.86L79,19.12c-.11.35-.45,1-.34,1.32,0,0-.06-.06.06,0a7.66,7.66,0,0,1,.17,2.29c0,.23.17.23.06.63-.12.06-.57.34-.63.51-.29.29-1.09.35-1.09.23,0-.28.57-.63.69-1a5.83,5.83,0,0,0-.75-3.83c-.28-.18-.51.28-.68.51a7.5,7.5,0,0,1,.74,2.75c0,.28.35.68.17,1.08l-.91.46H73.14c-.12-.17-.34-.34-.29-.57h3c0-.11.28-.06.57-.51,0-1.38-1.43-3.38-1.2-4.07.29-.86.69-1.54,1.15-2.69l.22-.05c-.51,1.71-1.26,2.57-1.14,3.09a3.15,3.15,0,0,0,.34.85l.12.35a2.55,2.55,0,0,0,.34.68.84.84,0,0,0,.4-.17,1.33,1.33,0,0,0-.29-.68l-.45.17-.12-.35c.35,0,.57-.22.29-.4.8-.4-.17-.28.11-.45.46-.23.69-1.09.75-1.6a.14.14,0,0,1,.12-.17,0,0,0,0,1,0,0c.34.91.34,2.11.91,3v.29a.91.91,0,0,0,.12.68c.51.06.46,0,.34-.68-.11,0-.34-.06-.46,0V20.5c.06-.06.29,0,.35-.06a1.31,1.31,0,0,1-.17-.8c0-.17.11-.51.23.23.17.06.45-1.31.51-1.77-1.09.23,0-1-.8-1.09l.4-.68a.29.29,0,0,0-.27-.33.27.27,0,0,0-.19,0l-.23-.29c-.17-.05-.34-.34-.57-.51a2.09,2.09,0,0,0-.51.74c-.06.06.11.12.17.06s.28.17.57.11c.11-.11.46-.17.34-.4l.23.29c-.23.12-.23.52-.23.8-.4.75-.23-.4-.68-.4-.29.17-.4-.28-.58-.23l-.23.06a9.69,9.69,0,0,0,0-1.32,12.63,12.63,0,0,1,.8-2.46c0-.23.86-.68.8-.91.06,0,.18.17.18.23-.06.28-.63.28-.57.91.34-.63,1.31-.57,1.37-1.31-.17-.46.23-.18.23-.63a3.11,3.11,0,0,1-.52-.63c-.06-.06.17-.4-.63-.4-.06.05-.11.4-.23.57s-.17.17-.11.23.11.11.11.34a.42.42,0,0,0,.12.46c.46.23.8,0,.28.29a.22.22,0,0,1,0,.17,1.63,1.63,0,0,0-.23-.35c-.06,0-.34-.17-.29-.4s.06-.34-.06-.45ZM62.15,8.43c.06.4-.17.69-.17,1.09.4,1,0,1.71.11,2.63-.46-.29-.57-1-.74-1.83a5.43,5.43,0,0,1,.11-1.66ZM61,8.71a5.78,5.78,0,0,0,.63,3.67,56.14,56.14,0,0,1-6.53,2.29c.29-1.83,2.06-5.33,3.55-6.3A10.34,10.34,0,0,0,61,8.71Z"/><path id="Tracé_13456" data-name="Tracé 13456" class="cls-1" d="M55.34,22.17c-.57.17-.57.51-.23.86a1.5,1.5,0,0,1,.46.51H51.91c0,.17.17.29.28.57H72.45c.12-.28-.22-.63-.34-1-1.43-.52-1.43-1.83-1.49-3.32a1.79,1.79,0,0,1-.11-.51,7.44,7.44,0,0,1-.69-4.47l.34-.63c.29-.4,0-.63.18-1.09l4.23-.8a.21.21,0,0,0,0-.28h0c0-.06.06,0,0,0l-4.12.74c.23-1-.68-1.37-.28-2.23A8,8,0,0,0,73,12.44l.4-.06a10.43,10.43,0,0,1-3.89-3c-.12,0-.23-.12-.35-.18,0,.12.29.46.23.52a2.08,2.08,0,0,1-2-.12c-.4.8-4.86,2.8-4.86,2.8A4.88,4.88,0,0,0,64,15.18c.06.12-.17-.11,0,0a7,7,0,0,0,3.21,1.32c.23.68,1.09,2.92,1.14,3.26s.29.34.29.34a3,3,0,0,1,.52,1.15l.11,1.2c.06.28.4.05.46.34l-.17.74h.85c-.45-.4-.17-1.08-.74-1.37a2.45,2.45,0,0,0-.4-1.49c-.23-.68-1-2.51-1.43-4.17l.28-.4a4.23,4.23,0,0,1-3.37-.75c-.86-.4-.35-.06-.06-.23a4.65,4.65,0,0,0,3.09.35c.11.17.34.34.34.63l-.28.4c.28-.29.51-.12.68.68s.46,1.2.63,1.78.4,1.31.57,1.71a.35.35,0,0,1,.29.23c.4,1.26.52,1.43.46,2,.11.46.74.06.69.63H56.08c.23-.91-.28-1.71,0-2.57-.57-.92-2-1.6-1.77-2.87.68-1,2.92-1.94,2.4-3.09,2.06-1,3.09.69,5,.52a8,8,0,0,0,2.06-.29,7,7,0,0,1-1.89-2.46,64.39,64.39,0,0,1-12.19,3.84l-.35-.12c-.4.06-6.92,1.55-6.7,1.83a19.51,19.51,0,0,0-5.95,1.55c-.28.17-.34.28,0,.4,2.64.69,4.81.17,8.87-1.38l-.28-.22a26.58,26.58,0,0,1-4.87,1.48,9,9,0,0,1-3.15,0c-.17-.06-.17-.06-.05-.12,2.57-1,7.55-1.94,8.24-1.09a1.82,1.82,0,0,1,.91.63c.23.29.69.18,1,.12s.52-.52.52-.92l-.52,0a4.17,4.17,0,0,0-1.26.22A2.94,2.94,0,0,0,45,18.21a11.74,11.74,0,0,1,3.2-.8c-.74.51-.4,1.14-.8,1.26l.51,0c0-.22,0-.4.12-.51.51-1.26,2.69-1.43,3.78-1.72a3.9,3.9,0,0,1-1,.92c-.11,1.77-.74,3.32-.86,5.09.52,0,.52.57.63.92-.17.28-.4,0-.63.06-.8-.4.18-1.09-.45-1.66a18.93,18.93,0,0,0,.85-4.35c-.23,0-.28.23-.4.4A29.76,29.76,0,0,1,49,21.93c.11.11.4.23.4.46-.46.28,0,.8-.17,1.14H44.05l-.52.57h7.9l.06-.28c-1.14-1.26-.74-3.09-.17-4.47l1.37-1.83c1.15-.46,1.83-1.83,3-2.29,0,.63-.75.86-1.15,1.2-.46,1-1.77,1.09-1.95,2.18a17.93,17.93,0,0,0,1.89,1.49c.63.4.46,1.26.92,1.66.11.11,0,.34-.12.4Z"/><path id="Tracé_13457" data-name="Tracé 13457" class="cls-1" d="M64.1,1.51c-.23.34-.69.57-.4,1.2a.76.76,0,0,0-.31,1,.44.44,0,0,0,.08.11A.83.83,0,0,0,63.38,5l0,0c-.46.52.12,1,.29,1.15a1,1,0,0,0,0,.91c-.06.35-.69.92-.92,1.09A12,12,0,0,0,62.61,12,20.84,20.84,0,0,0,67.07,9.4C66,8.66,65.13,6.88,63.93,7c-.12-1.26-.63-3.49,1.14-5.78a6.74,6.74,0,0,0,.74-.29c-.74-.11-1.71.35-2.4-.05C63.41.88,63.75,1.45,64.1,1.51Z"/><path id="Tracé_13458" data-name="Tracé 13458" class="cls-1" d="M67.93.93c0,.06.23.18.23.18s.23-.06.23-.12.06-.23,0-.28-.23-.06-.34-.06a1.69,1.69,0,0,0-.12.28l-.11.12L67,.48l.11-.12s.34-.34.52-.34A2.78,2.78,0,0,1,69,.19a2.51,2.51,0,0,1,.52.69c.63.45,1.66.45,2.29,1-.12.17.17.46-.06.57s-.57-.06-.63.06L71,2.82l-.23,0s.12-.4,0-.4-.34-.18-.45-.12,0,.12,0,.23.29.17.46.11l.23.06.29.06c-.12.29-.17.4-.57.29-.12.28.51.51.57.63s-.17.22-.57,0a15.49,15.49,0,0,1-2.64,2.06c-1,.45,0-.23,0-.23A12.13,12.13,0,0,0,70.57,3.4a1.4,1.4,0,0,1-.18-.52,1.43,1.43,0,0,0-1.08.23,15,15,0,0,1,.34,7L69.54,10a15.52,15.52,0,0,0-.4-6.81,3.58,3.58,0,0,1-1.26.11C67.76,5.63,69.65,6,69,9.06c-2-.34-3.43-2.8-4.57-2.57-.06-.4-.46-1.09-.06-1.32-.12-.34-.23-.8.28-1.09a.87.87,0,0,1,.29-1.2.75.75,0,0,1,.42-1l.15,0A1.21,1.21,0,0,1,66.22.77,1.18,1.18,0,0,1,65.59,0a2,2,0,0,0,1.54.35l.8.57ZM48.47,43.74l0-3.2A3.32,3.32,0,0,0,46.93,38a2.7,2.7,0,0,0-.69-.18,2,2,0,0,0,.8-.11,3.57,3.57,0,0,0,1.89-3.38A3.83,3.83,0,0,0,47.33,31a5.33,5.33,0,0,0-3.2-.86H35.32v2.29h2V43.75h-2V46h6.3V43.75h-2v-5H44A1.89,1.89,0,0,1,46,40.5s0,.06,0,.1L46.2,46h4.29V43.75h-2Zm-4.06-7.15H39.6V32.47h4.53a4.45,4.45,0,0,1,1.54.17,2,2,0,0,1,1.09,1.89,2.2,2.2,0,0,1-2.33,2.06Zm-9.9,15c2.06,0,3,1.15,3,2.58s-1,2.52-3.15,2.52H32.85v4H31.53V51.58Zm-1.66,4h1.6c1,0,1.66-.51,1.66-1.43,0-.69-.4-1.37-1.6-1.37H32.85v2.8Zm14.88,5.1H46.3l-1.15-2.69H41.21l-1.09,2.69H38.69l4-9.1h.91Zm-6-3.9h2.92L43.1,53.18l-1.38,3.55Zm21.06,3.9H61.47V51.58h1.31Zm9.45-7.1a3.7,3.7,0,0,0-2.35-.92c-.86,0-1.55.4-1.55,1,0,1.77,4.24,1.72,4.24,4.64A2.52,2.52,0,0,1,70,60.69h-.14a4.61,4.61,0,0,1-2.74-.8V58.22a3.46,3.46,0,0,0,2.63,1.31c1.09,0,1.6-.63,1.6-1.14,0-1.83-4.29-2.06-4.29-4.52,0-1.49,1.2-2.4,3-2.4a4,4,0,0,1,2.24.63v1.43Zm-15,6q-.27-.36-.51-.75a6.62,6.62,0,0,0-2.12-2.46,2.32,2.32,0,0,0,1.6-2.23c0-1.55-1.2-2.52-3.15-2.52H50.71v9h1.37V56.67h.57c.69,0,1.26.23,2.46,2.06l1.26,1.89h1.55l-.69-1.08Zm-4.29-4h-.86V52.67h.86c1.32,0,1.83.51,1.83,1.37S54.43,55.53,52.94,55.53Z"/></g></svg>