<svg id="Calque_1" data-name="Calque 1" xmlns="http://www.w3.org/2000/svg" viewBox="0 0 105.36 102.23"><defs><style>.cls-1,.cls-4{fill:#fff;}.cls-2{fill:#959595;}.cls-3{fill:#191f31;}.cls-4{stroke:#fff;stroke-miterlimit:10;stroke-width:0.06px;}</style></defs><g id="Groupe_24976" data-name="Groupe 24976"><path id="Tracé_27091" data-name="Tracé 27091" class="cls-1" d="M52.63,97.74H73.4a1.43,1.43,0,0,0,1.26-.6Q87.62,81,100.6,64.86a.9.9,0,0,0,.2-.87c-.26-1.07-.5-2.14-.75-3.21L91.5,23.57a1.06,1.06,0,0,0-.62-.84q-18.85-9-37.7-18a1.05,1.05,0,0,0-1,0q-18.78,9-37.56,17.93a1.25,1.25,0,0,0-.74.94Q11.09,35.75,8.3,47.87L4.58,64a.85.85,0,0,0,.16.82Q17.84,81.08,30.9,97.36a1,1,0,0,0,.91.4H52.64"/><path id="Tracé_27092" data-name="Tracé 27092" class="cls-2" d="M52.66,102.22q-10,0-20.09,0a7.09,7.09,0,0,1-5.84-2.78L1.59,68.17A6.8,6.8,0,0,1,.21,62.12q3.3-14.44,6.64-28.87C7.64,29.82,8.42,26.39,9.22,23a6.81,6.81,0,0,1,3.87-4.79Q31.32,9.44,49.57.74a6.86,6.86,0,0,1,6.21,0Q74,9.44,92.27,18.16A6.79,6.79,0,0,1,96.14,23q4.52,19.54,9,39.1a7,7,0,0,1-1.43,6.2q-12.5,15.52-25,31.06a7.35,7.35,0,0,1-6.06,2.92c-6.68,0-13.36,0-20,0"/><path id="Tracé_27093" data-name="Tracé 27093" class="cls-1" d="M52.68,96.24H72.83a1.08,1.08,0,0,0,.94-.46Q86.33,80.15,98.91,64.52a1,1,0,0,0,.23-.95q-4.5-19.47-9-38.95a1.17,1.17,0,0,0-.73-.88Q80.74,19.61,72,15.44l-18.88-9a.92.92,0,0,0-.88,0Q34.07,15.1,15.84,23.78a1.08,1.08,0,0,0-.65.81Q10.74,44,6.25,63.49a1.16,1.16,0,0,0,.27,1.11Q19.06,80.19,31.59,95.78a1.1,1.1,0,0,0,1,.46h20.1m0,1.5H31.81a1,1,0,0,1-.91-.4Q17.82,81.08,4.73,64.81A.87.87,0,0,1,4.57,64L8.29,47.86q2.79-12.12,5.56-24.24a1.23,1.23,0,0,1,.74-.94Q33.37,13.74,52.14,4.75a1.07,1.07,0,0,1,1,0q18.84,9,37.71,18a1.07,1.07,0,0,1,.61.84q4.27,18.61,8.56,37.21.36,1.6.75,3.21a.93.93,0,0,1-.2.87Q87.62,81,74.66,97.13a1.42,1.42,0,0,1-1.26.6q-10.38,0-20.77,0Z"/><path id="Tracé_27094" data-name="Tracé 27094" class="cls-2" d="M99.14,63.57q-4.5-19.47-9-38.95a1.17,1.17,0,0,0-.73-.88Q80.74,19.61,72,15.44l-18.88-9a.92.92,0,0,0-.88,0Q34.07,15.1,15.84,23.78a1.08,1.08,0,0,0-.65.81Q10.74,44,6.25,63.49a1.18,1.18,0,0,0,.26,1.11Q19.07,80.19,31.59,95.78a1.14,1.14,0,0,0,1,.47q10.05,0,20.1,0H72.83a1.06,1.06,0,0,0,.94-.46Q86.33,80.15,98.91,64.52a1,1,0,0,0,.23-.95"/><rect id="Rectangle_8732" data-name="Rectangle 8732" class="cls-1" x="24.25" y="61.92" width="56.73" height="18.44"/><path id="Tracé_27095" data-name="Tracé 27095" class="cls-2" d="M34,74.73c0-.69-.42-1.1-1.25-1.1H31.6v2.19h1.1c.83,0,1.25-.41,1.25-1.09m1.37,0A2.24,2.24,0,0,1,33.12,77a1.94,1.94,0,0,1-.34,0H31.6v1.74H30.24v-6.3h2.54a2.24,2.24,0,0,1,2.52,1.93,2.11,2.11,0,0,1,0,.35"/><path id="Tracé_27096" data-name="Tracé 27096" class="cls-2" d="M40.05,76.29l-.93-2.41-.93,2.41Zm.43,1.1H37.76l-.52,1.35H35.85l2.61-6.3H39.8l2.62,6.3H41Z"/><path id="Tracé_27097" data-name="Tracé 27097" class="cls-2" d="M46.12,73.63H45v2.2h1.11c.83,0,1.24-.42,1.24-1.1s-.41-1.1-1.24-1.1m1.27,5.11L46.26,77H45v1.76H43.66v-6.3h2.53a2.25,2.25,0,0,1,2.53,1.93c0,.12,0,.24,0,.35a2.05,2.05,0,0,1-1.2,2l1.31,2Z"/><path id="Tracé_27098" data-name="Tracé 27098" class="cls-2" d="M51.57,73.63H49.69V72.44H54.8v1.19H52.92v5.11H51.57Z"/><path id="Tracé_27099" data-name="Tracé 27099" class="cls-2" d="M61.53,72.44v6.3H60.41l-2.92-3.82v3.82H56.15v-6.3h1.12l2.92,3.83V72.44Z"/><path id="Tracé_27100" data-name="Tracé 27100" class="cls-2" d="M68.08,77.57v1.17H63.54v-6.3H68v1.17H64.89V75h2.72v1.13H64.89v1.46Z"/><path id="Tracé_27101" data-name="Tracé 27101" class="cls-2" d="M72.25,73.63H71.14v2.2h1.11c.83,0,1.24-.42,1.24-1.1s-.41-1.1-1.24-1.1m1.27,5.11L72.39,77H71.14v1.76H69.78v-6.3h2.54a2.24,2.24,0,0,1,2.52,1.93,1.4,1.4,0,0,1,0,.35,2,2,0,0,1-1.2,2l1.32,2Z"/><path id="Tracé_27102" data-name="Tracé 27102" class="cls-1" d="M78.52,58.6a1.43,1.43,0,0,0,.61-.08.34.34,0,0,0,.18-.33.41.41,0,0,0-.23-.32,5.05,5.05,0,0,0-.71-.33c-.23-.08-.45-.18-.67-.28a1.82,1.82,0,0,1-.51-.36,1.25,1.25,0,0,1-.33-.49,2,2,0,0,1-.12-.68,1.51,1.51,0,0,1,.58-1.24,2.47,2.47,0,0,1,1.6-.45,4.07,4.07,0,0,1,1,.09,5,5,0,0,1,.74.19l-.28,1.23c-.2-.07-.4-.12-.6-.17a3.51,3.51,0,0,0-.72-.07c-.49,0-.74.14-.74.41a.51.51,0,0,0,0,.17.43.43,0,0,0,.13.14l.26.15.41.17a6.6,6.6,0,0,1,.86.38,1.9,1.9,0,0,1,.53.4,1.29,1.29,0,0,1,.28.48,2.12,2.12,0,0,1,.07.61,1.4,1.4,0,0,1-.61,1.25,3.16,3.16,0,0,1-1.75.42,5,5,0,0,1-1.91-.34l.26-1.28a4.94,4.94,0,0,0,.83.25,3.8,3.8,0,0,0,.82.08m-4.32-2.2a1.76,1.76,0,0,0-.07-.4,1.06,1.06,0,0,0-.18-.33,1,1,0,0,0-.3-.25,1.08,1.08,0,0,0-.46-.09,1.18,1.18,0,0,0-.46.09.82.82,0,0,0-.32.24.9.9,0,0,0-.2.34,1.8,1.8,0,0,0-.1.4Zm-3.7.6a3.36,3.36,0,0,1,.23-1.3,2.66,2.66,0,0,1,.6-.92,2.57,2.57,0,0,1,.85-.56,2.75,2.75,0,0,1,1-.19,2.46,2.46,0,0,1,1.87.73,3,3,0,0,1,.69,2.12c0,.09,0,.19,0,.3s0,.2,0,.29H72.11a1.05,1.05,0,0,0,.45.77,2,2,0,0,0,1.08.29,4,4,0,0,0,.85-.09,3.11,3.11,0,0,0,.68-.19l.21,1.28a1.85,1.85,0,0,1-.33.12,2.66,2.66,0,0,1-.47.11c-.18,0-.36.06-.55.09l-.6,0a3.63,3.63,0,0,1-1.3-.22,2.69,2.69,0,0,1-.92-.61,2.51,2.51,0,0,1-.54-.92A3.39,3.39,0,0,1,70.5,57Zm-4.3-4.21,1.58-.25v1.63h1.89v1.3H67.77v2a1.43,1.43,0,0,0,.17.79.76.76,0,0,0,.7.3,3,3,0,0,0,.52,0,2.72,2.72,0,0,0,.49-.13l.22,1.22a3.3,3.3,0,0,1-.63.2,3.54,3.54,0,0,1-.86.09,2.75,2.75,0,0,1-1.06-.18,1.72,1.72,0,0,1-.68-.48,2,2,0,0,1-.35-.76,4,4,0,0,1-.1-1V52.79Zm-2.68,3.6a1.78,1.78,0,0,0-.07-.39,1.11,1.11,0,0,0-.18-.34,1,1,0,0,0-.3-.24,1.06,1.06,0,0,0-.46-.1,1.18,1.18,0,0,0-.46.09.92.92,0,0,0-.31.24.94.94,0,0,0-.2.35,1.8,1.8,0,0,0-.1.4h2.08Zm-3.7.6A3.35,3.35,0,0,1,60,55.7a2.7,2.7,0,0,1,.6-.93,2.45,2.45,0,0,1,.84-.55,2.6,2.6,0,0,1,1-.19,2.42,2.42,0,0,1,1.87.72A3,3,0,0,1,65,56.88c0,.09,0,.19,0,.3s0,.2,0,.29H61.42a1.06,1.06,0,0,0,.46.77,1.84,1.84,0,0,0,1.07.29,4,4,0,0,0,.85-.09,3.2,3.2,0,0,0,.69-.19l.21,1.28-.34.13-.47.11-.55.08-.59,0a3.55,3.55,0,0,1-1.3-.22,2.51,2.51,0,0,1-.92-.61,2.38,2.38,0,0,1-.54-.92A3.39,3.39,0,0,1,59.82,57Zm-6-2.63a9,9,0,0,1,1-.22,9.92,9.92,0,0,1,1.33-.1,3.14,3.14,0,0,1,1.18.19,1.88,1.88,0,0,1,.75.52,2.06,2.06,0,0,1,.39.8,4.55,4.55,0,0,1,.12,1v3.14H57.08V56.79a2.13,2.13,0,0,0-.2-1.08.81.81,0,0,0-.75-.31h-.36l-.34,0v4.29H53.86V54.37Zm-1.11,1.2-.49-.11a3.15,3.15,0,0,0-.61-.06,2.19,2.19,0,0,0-.36,0l-.31,0v4.24H49.41V54.46c.32-.11.65-.2,1-.28a6.11,6.11,0,0,1,1.28-.13l.3,0,.36,0,.36.07a1.58,1.58,0,0,1,.31.09Zm-6.09.82A1.76,1.76,0,0,0,46.6,56a1.11,1.11,0,0,0-.18-.34,1,1,0,0,0-.31-.24.9.9,0,0,0-.46-.09.87.87,0,0,0-.45.09.93.93,0,0,0-.32.24.88.88,0,0,0-.19.34,1.8,1.8,0,0,0-.1.4h2.07ZM43,57a3.35,3.35,0,0,1,.23-1.29,2.71,2.71,0,0,1,.6-.92,2.42,2.42,0,0,1,.85-.56,2.77,2.77,0,0,1,1-.19,2.49,2.49,0,0,1,1.87.72,3,3,0,0,1,.68,2.13c0,.09,0,.19,0,.3a2.33,2.33,0,0,1,0,.29H44.59a1,1,0,0,0,.45.77,1.8,1.8,0,0,0,1.08.29,4.8,4.8,0,0,0,.85-.08,3.13,3.13,0,0,0,.68-.2l.21,1.28a1.89,1.89,0,0,1-.33.13l-.47.11-.56.08a5.68,5.68,0,0,1-.59,0,3.42,3.42,0,0,1-1.3-.22,2.55,2.55,0,0,1-.92-.61,2.47,2.47,0,0,1-.54-.91A3.45,3.45,0,0,1,43,57Zm-2.55-.08c0-1-.37-1.52-1.12-1.52a2,2,0,0,0-.48.06,1.68,1.68,0,0,0-.39.16v2.86l.3,0,.39,0a1.16,1.16,0,0,0,1-.45,2,2,0,0,0,.32-1.17Zm1.6,0a3.48,3.48,0,0,1-.2,1.2,2.56,2.56,0,0,1-.56.92,2.6,2.6,0,0,1-.91.59,3.41,3.41,0,0,1-1.23.2l-.6,0-.61-.07-.58-.1-.48-.12V51.79l1.57-.26v2.78a2.72,2.72,0,0,1,.55-.18,2.54,2.54,0,0,1,.61-.07,2.38,2.38,0,0,1,1,.21,2,2,0,0,1,.76.58,2.74,2.74,0,0,1,.46.92A3.91,3.91,0,0,1,42,57m-6.64,2.59a9.15,9.15,0,0,1-1,.22,8.38,8.38,0,0,1-1.32.1,3.11,3.11,0,0,1-1.18-.19,1.9,1.9,0,0,1-.75-.53,2.07,2.07,0,0,1-.39-.82,4.07,4.07,0,0,1-.11-1v-3.1h1.57v2.9a2.18,2.18,0,0,0,.2,1.1.78.78,0,0,0,.75.34h.36l.34,0V54.17h1.57Zm-9.18-3.37.49-.52.47-.55.44-.5.36-.42h1.87L28.72,55.4c-.36.39-.75.79-1.17,1.21a7,7,0,0,1,.65.68c.23.27.45.54.66.82s.4.56.58.84.32.54.44.78H28.09c-.11-.19-.24-.39-.39-.61s-.3-.45-.45-.66l-.51-.64a5.29,5.29,0,0,0-.54-.52v2.44H24.63v-8l1.57-.26v4.64Z"/><path id="Tracé_27103" data-name="Tracé 27103" class="cls-3" d="M53.25,37.21a.86.86,0,0,1,.79.45h0l2.5,4.5c-.33.11-.66.2-1,.28A10.14,10.14,0,0,1,50,42.15l2.49-4.5a.86.86,0,0,1,.74-.43ZM49,35.13a.86.86,0,0,1,.85.88h0a.71.71,0,0,1-.07.32v0l-2,4.74A10.15,10.15,0,0,1,43.73,36l5.06-.86H49Zm8.58,0h.2l5.11.87a10.08,10.08,0,0,1-4.09,5.14l-2-4.78a.88.88,0,0,1,.46-1.14h0a1,1,0,0,1,.29-.07Zm-5.06-4.18h1.57l1,1.23-.35,1.53-1.42.68-1.42-.68-.34-1.54Zm9.43-3.71a10.26,10.26,0,0,1,1.48,6.37l-5-1.43v0a.87.87,0,0,1-.61-1.06.9.9,0,0,1,.27-.42l3.83-3.43Zm-17.31,0,3.86,3.44v0a.86.86,0,0,1,.08,1.22.9.9,0,0,1-.42.27h0l-5,1.43a10.13,10.13,0,0,1,1.44-6.4Zm9.9-4.76a10.22,10.22,0,0,1,5.87,2.83l-4.18,3A.87.87,0,0,1,55,28.12a.84.84,0,0,1-.19-.53Zm-2.46,0-.29,5.15h0a.86.86,0,0,1-.91.82.83.83,0,0,1-.47-.16l-4.22-3A10.11,10.11,0,0,1,51,22.62c.35-.07.69-.13,1-.17Zm1.23-7.61a1,1,0,0,0-1,1.09v.28c0,.31.08.62.14.93a9.67,9.67,0,0,1,.1,1.78,1.14,1.14,0,0,1-.32.51l0,.42a13.53,13.53,0,0,0-1.77.27A12.67,12.67,0,0,0,44,23.78l-.36-.25a.74.74,0,0,1-.58-.06,8.77,8.77,0,0,1-1.32-1.19,8.28,8.28,0,0,0-.64-.68l-.22-.18a1.17,1.17,0,0,0-.68-.26,1,1,0,0,0-.79.35A1,1,0,0,0,39.67,23l.2.16c.27.17.54.33.82.48a9.82,9.82,0,0,1,1.47,1,1.09,1.09,0,0,1,.2.57l.32.28a12.69,12.69,0,0,0-2,8.85l-.41.12a1.4,1.4,0,0,1-.42.42,8.86,8.86,0,0,1-1.76.29,7.61,7.61,0,0,0-1,.08l-.25.06h0a1,1,0,1,0,.24,1.95.58.58,0,0,0,.19,0h0l.27,0a9.25,9.25,0,0,0,.88-.32,9.3,9.3,0,0,1,1.71-.5,1,1,0,0,1,.56.2l.43-.07a12.77,12.77,0,0,0,5.66,7.07l-.18.38a1,1,0,0,1,.09.55,10.12,10.12,0,0,1-.89,1.61,8.23,8.23,0,0,0-.53.78l-.13.27a1,1,0,1,0,1.7,1L47,48l.12-.25c.11-.3.2-.6.28-.9a7.11,7.11,0,0,1,.76-1.77.75.75,0,0,1,.42-.2l.23-.4a12.66,12.66,0,0,0,9,0l.19.38a.77.77,0,0,1,.5.3,8.81,8.81,0,0,1,.68,1.65c.08.3.17.6.28.9l.13.25a1,1,0,0,0,1.84-.69,1,1,0,0,0-.07-.15l-.13-.26a8.37,8.37,0,0,0-.53-.79,9.06,9.06,0,0,1-.87-1.55.76.76,0,0,1,.1-.59,2.78,2.78,0,0,1-.16-.4,12.74,12.74,0,0,0,5.63-7.1l.42.07a.85.85,0,0,1,.55-.2,9.89,9.89,0,0,1,1.71.5,7.46,7.46,0,0,0,.89.35l.25,0h0a1,1,0,1,0,.61-1.87l-.17,0-.3-.06a7.3,7.3,0,0,0-.94-.08,8.86,8.86,0,0,1-1.76-.29,1.21,1.21,0,0,1-.42-.42l-.4-.12a12.76,12.76,0,0,0-2-8.83l.34-.32a.83.83,0,0,1,.19-.56,8.68,8.68,0,0,1,1.46-1,8.21,8.21,0,0,0,.81-.48l.22-.17a1,1,0,0,0,.31-1.36,1,1,0,0,0-1.36-.32l-.17.14-.22.18a7,7,0,0,0-.65.68,9.13,9.13,0,0,1-1.28,1.21,1.12,1.12,0,0,1-.6.07l-.38.27a12.83,12.83,0,0,0-8.15-3.94c0-.13,0-.36,0-.44a.72.72,0,0,1-.32-.48,8.78,8.78,0,0,1,.11-1.78,7.33,7.33,0,0,0,.13-.94v-.28a1,1,0,0,0-1-1.09Z"/><path id="Tracé_27104" data-name="Tracé 27104" class="cls-4" d="M53.25,37.21a.86.86,0,0,1,.79.45h0l2.5,4.5c-.33.11-.66.2-1,.28A10.14,10.14,0,0,1,50,42.15l2.49-4.5a.86.86,0,0,1,.74-.43ZM49,35.13a.86.86,0,0,1,.85.88h0a.71.71,0,0,1-.07.32v0l-2,4.74A10.15,10.15,0,0,1,43.73,36l5.06-.86H49Zm8.58,0h.2l5.11.87a10.08,10.08,0,0,1-4.09,5.14l-2-4.78a.88.88,0,0,1,.46-1.14h0a1,1,0,0,1,.29-.07Zm-5.06-4.18h1.57l1,1.23-.35,1.53-1.42.68-1.42-.68-.34-1.54Zm9.43-3.71a10.26,10.26,0,0,1,1.48,6.37l-5-1.43v0a.87.87,0,0,1-.61-1.06.9.9,0,0,1,.27-.42l3.83-3.43Zm-17.31,0,3.86,3.44v0a.86.86,0,0,1,.08,1.22.9.9,0,0,1-.42.27h0l-5,1.43a10.13,10.13,0,0,1,1.44-6.4Zm9.9-4.76a10.22,10.22,0,0,1,5.87,2.83l-4.18,3A.87.87,0,0,1,55,28.12a.84.84,0,0,1-.19-.53Zm-2.46,0-.29,5.15h0a.86.86,0,0,1-.91.82.83.83,0,0,1-.47-.16l-4.22-3A10.11,10.11,0,0,1,51,22.62c.35-.07.69-.13,1-.17Zm1.23-7.61a1,1,0,0,0-1,1.09v.28c0,.31.08.62.14.93a9.67,9.67,0,0,1,.1,1.78,1.14,1.14,0,0,1-.32.51l0,.42a13.53,13.53,0,0,0-1.77.27A12.67,12.67,0,0,0,44,23.78l-.36-.25a.74.74,0,0,1-.58-.06,8.77,8.77,0,0,1-1.32-1.19,8.28,8.28,0,0,0-.64-.68l-.22-.18a1.17,1.17,0,0,0-.68-.26,1,1,0,0,0-.79.35A1,1,0,0,0,39.67,23l.2.16c.27.17.54.33.82.48a9.82,9.82,0,0,1,1.47,1,1.09,1.09,0,0,1,.2.57l.32.28a12.69,12.69,0,0,0-2,8.85l-.41.12a1.4,1.4,0,0,1-.42.42,8.86,8.86,0,0,1-1.76.29,7.61,7.61,0,0,0-1,.08l-.25.06h0a1,1,0,1,0,.24,1.95.58.58,0,0,0,.19,0h0l.27,0a9.25,9.25,0,0,0,.88-.32,9.3,9.3,0,0,1,1.71-.5,1,1,0,0,1,.56.2l.43-.07a12.77,12.77,0,0,0,5.66,7.07l-.18.38a1,1,0,0,1,.09.55,10.12,10.12,0,0,1-.89,1.61,8.23,8.23,0,0,0-.53.78l-.13.27a1,1,0,1,0,1.7,1L47,48l.12-.25c.11-.3.2-.6.28-.9a7.11,7.11,0,0,1,.76-1.77.75.75,0,0,1,.42-.2l.23-.4a12.66,12.66,0,0,0,9,0l.19.38a.77.77,0,0,1,.5.3,8.81,8.81,0,0,1,.68,1.65c.08.3.17.6.28.9l.13.25a1,1,0,0,0,1.84-.69,1,1,0,0,0-.07-.15l-.13-.26a8.37,8.37,0,0,0-.53-.79,9.06,9.06,0,0,1-.87-1.55.76.76,0,0,1,.1-.59,2.78,2.78,0,0,1-.16-.4,12.74,12.74,0,0,0,5.63-7.1l.42.07a.85.85,0,0,1,.55-.2,9.89,9.89,0,0,1,1.71.5,7.46,7.46,0,0,0,.89.35l.25,0h0a1,1,0,1,0,.61-1.87l-.17,0-.3-.06a7.3,7.3,0,0,0-.94-.08,8.86,8.86,0,0,1-1.76-.29,1.21,1.21,0,0,1-.42-.42l-.4-.12a12.76,12.76,0,0,0-2-8.83l.34-.32a.83.83,0,0,1,.19-.56,8.68,8.68,0,0,1,1.46-1,8.21,8.21,0,0,0,.81-.48l.22-.17a1,1,0,0,0,.31-1.36,1,1,0,0,0-1.36-.32l-.17.14-.22.18a7,7,0,0,0-.65.68,9.13,9.13,0,0,1-1.28,1.21,1.12,1.12,0,0,1-.6.07l-.38.27a12.83,12.83,0,0,0-8.15-3.94c0-.13,0-.36,0-.44a.72.72,0,0,1-.32-.48,8.78,8.78,0,0,1,.11-1.78,7.33,7.33,0,0,0,.13-.94v-.28a1,1,0,0,0-1-1.09Z"/><path id="Tracé_27105" data-name="Tracé 27105" class="cls-2" d="M30.5,65.68H28.63V64.49h5.11v1.19H31.86v5.11H30.5Z"/><path id="Tracé_27106" data-name="Tracé 27106" class="cls-2" d="M37.55,65.68h-1.1v2.19h1.1c.83,0,1.25-.41,1.25-1.1s-.42-1.1-1.25-1.1m1.27,5.11L37.69,69H36.45v1.75H35.09v-6.3h2.54a2.24,2.24,0,0,1,2.52,1.94,2,2,0,0,1,0,.35,2,2,0,0,1-1.2,2l1.31,2Z"/><path id="Tracé_27107" data-name="Tracé 27107" class="cls-2" d="M45.3,68.33l-.93-2.41-.93,2.41Zm.43,1.11H43l-.52,1.35H41.1l2.61-6.3h1.34l2.62,6.3H46.25Z"/><rect id="Rectangle_8733" data-name="Rectangle 8733" class="cls-2" x="48.91" y="64.49" width="1.36" height="6.3"/><path id="Tracé_27108" data-name="Tracé 27108" class="cls-2" d="M57.65,64.49v6.3H56.54L53.62,67v3.82H52.28v-6.3H53.4l2.92,3.82V64.49Z"/><rect id="Rectangle_8734" data-name="Rectangle 8734" class="cls-2" x="59.67" y="64.49" width="1.36" height="6.3"/><path id="Tracé_27109" data-name="Tracé 27109" class="cls-2" d="M68.42,64.49v6.3H67.31L64.38,67v3.82H63v-6.3h1.13l2.91,3.82V64.49Z"/><path id="Tracé_27110" data-name="Tracé 27110" class="cls-2" d="M74.39,67.54h1.24v2.55a3.77,3.77,0,0,1-2.37.8,3.26,3.26,0,0,1,0-6.51,3,3,0,0,1,2.45,1.09l-.87.86a1.91,1.91,0,0,0-1.52-.71,2,2,0,1,0,1,3.76Z"/><rect id="Rectangle_8735" data-name="Rectangle 8735" class="cls-1" x="73.7" y="67.53" width="1.91" height="1.01"/></g></svg>