<svg id="Calque_1" data-name="Calque 1" xmlns="http://www.w3.org/2000/svg" viewBox="0 0 183.92 50.88"><defs><style>.cls-1{fill:#959595;}.cls-2{fill:#fff;stroke:#fff;stroke-miterlimit:10;stroke-width:0.08px;}</style></defs><g id="Composant_122" data-name="Composant 122"><path id="Tracé_26540" data-name="Tracé 26540" class="cls-1" d="M26,0a3.51,3.51,0,0,0-1.35.35L6.44,9.07a3.49,3.49,0,0,0-1.88,2.35L.09,31a3.49,3.49,0,0,0,.47,2.67l.2.27L13.39,49.6a3.5,3.5,0,0,0,2.72,1.28H36.34a3.5,3.5,0,0,0,2.73-1.3L51.68,33.89A3.43,3.43,0,0,0,52.35,31l-4.5-19.57A3.46,3.46,0,0,0,46,9L27.73.36A3.5,3.5,0,0,0,26,0"/><path id="Tracé_26541" data-name="Tracé 26541" class="cls-1" d="M26.18,31.54a1,1,0,0,1,.89.5h0l2.78,5c-.37.12-.74.22-1.12.31A11.19,11.19,0,0,1,22.6,37l2.77-5a1,1,0,0,1,.81-.48Zm-4.75-2.31a1,1,0,0,1,.95,1,1.17,1.17,0,0,1-.08.37v0l-2.19,5.27a11.37,11.37,0,0,1-4.52-5.66l5.64-1h.2Zm9.54,0h.22l5.68,1a11.23,11.23,0,0,1-4.54,5.73l-2.2-5.33a1,1,0,0,1,.51-1.27.88.88,0,0,1,.32-.07Zm-5.63-4.65h1.75l1.08,1.36-.39,1.7-1.58.76-1.58-.76-.37-1.71Zm10.5-4.13a11.46,11.46,0,0,1,1.64,7.09L32,25.92v0a1,1,0,0,1-.67-1.18.94.94,0,0,1,.3-.48l4.25-3.81Zm-19.26,0,4.29,3.82v0A1,1,0,0,1,21,25.63a1,1,0,0,1-.47.29v0L15,27.53a11.26,11.26,0,0,1,1.6-7.12Zm11-5.29a11.3,11.3,0,0,1,6.54,3.15l-4.66,3.31a1,1,0,0,1-1.35-.16h0a.94.94,0,0,1-.21-.58Zm-2.73,0-.33,5.72h0a1,1,0,0,1-1,.92,1,1,0,0,1-.53-.18l-4.69-3.33a11.22,11.22,0,0,1,5.41-3,11.63,11.63,0,0,1,1.16-.18Zm1.36-8.47a1.15,1.15,0,0,0-1.07,1.21v.31a9,9,0,0,0,.15,1,10.08,10.08,0,0,1,.11,2,1.19,1.19,0,0,1-.36.57l0,.46a16.44,16.44,0,0,0-2,.3,14,14,0,0,0-7.13,4.07l-.39-.28a.86.86,0,0,1-.65-.06,10.33,10.33,0,0,1-1.47-1.33,8.62,8.62,0,0,0-.72-.76L12.45,14a1.26,1.26,0,0,0-.76-.29,1.05,1.05,0,0,0-.87.39,1.15,1.15,0,0,0,.27,1.61l.22.17a9.2,9.2,0,0,0,.9.53,10.43,10.43,0,0,1,1.64,1.14,1.16,1.16,0,0,1,.22.62l.36.31a14.12,14.12,0,0,0-2.23,9.85l-.46.14a1.51,1.51,0,0,1-.47.47,10.72,10.72,0,0,1-1.95.32,9.28,9.28,0,0,0-1.05.08L8,29.39H8a1.1,1.1,0,1,0,.2,2.19,1.27,1.27,0,0,0,.28-.06h0l.3,0a8.18,8.18,0,0,0,1-.36,10.68,10.68,0,0,1,1.91-.55,1.16,1.16,0,0,1,.62.22l.48-.09A14.13,14.13,0,0,0,19,38.57l-.2.42a1,1,0,0,1,.1.62,10.43,10.43,0,0,1-1,1.79,10.11,10.11,0,0,0-.58.87l-.15.29a1.1,1.1,0,0,0,1.86,1.19,1.15,1.15,0,0,0,.12-.25l.13-.28a8.94,8.94,0,0,0,.32-1,7.73,7.73,0,0,1,.84-2A.78.78,0,0,1,21,40l.25-.45a14.09,14.09,0,0,0,10.07,0l.22.42a.87.87,0,0,1,.55.34,10.15,10.15,0,0,1,.75,1.84c.09.33.2.67.32,1l.14.27a1.1,1.1,0,0,0,1.41.65,1.06,1.06,0,0,0,.53-.43,1.08,1.08,0,0,0,0-1.15l-.14-.29a10.22,10.22,0,0,0-.59-.87,10.91,10.91,0,0,1-1-1.73.9.9,0,0,1,.11-.66,3.38,3.38,0,0,1-.18-.44,14.19,14.19,0,0,0,6.27-7.9l.46.08a.88.88,0,0,1,.62-.22,9.85,9.85,0,0,1,1.9.56,10.47,10.47,0,0,0,1,.38c.08,0,.19,0,.28.06h0a1.1,1.1,0,0,0,.77-2.07,1.4,1.4,0,0,0-.28-.06l-.32-.07a9.28,9.28,0,0,0-1-.08,10.83,10.83,0,0,1-2-.32,1.27,1.27,0,0,1-.47-.48l-.44-.13A14.21,14.21,0,0,0,38,18.48l.38-.35a.87.87,0,0,1,.21-.62,9.7,9.7,0,0,1,1.62-1.15,8.21,8.21,0,0,0,.91-.52l.23-.2a1.1,1.1,0,0,0-1.14-1.88.91.91,0,0,0-.21.18l-.25.19a8.51,8.51,0,0,0-.71.76,10.7,10.7,0,0,1-1.43,1.35,1.18,1.18,0,0,1-.67.07l-.41.3a14.38,14.38,0,0,0-9.07-4.38c0-.14,0-.4,0-.48A.88.88,0,0,1,27,11.2a10.13,10.13,0,0,1,.12-2,9.13,9.13,0,0,0,.15-1V7.88a1.16,1.16,0,0,0-1.07-1.22Z"/><path id="Tracé_26542" data-name="Tracé 26542" class="cls-2" d="M26.18,31.54a1,1,0,0,1,.89.5h0l2.78,5c-.37.12-.74.22-1.12.31A11.19,11.19,0,0,1,22.6,37l2.77-5a1,1,0,0,1,.81-.48Zm-4.75-2.31a1,1,0,0,1,.95,1,1.17,1.17,0,0,1-.08.37v0l-2.19,5.27a11.37,11.37,0,0,1-4.52-5.66l5.64-1h.2Zm9.54,0h.22l5.68,1a11.23,11.23,0,0,1-4.54,5.73l-2.2-5.33a1,1,0,0,1,.51-1.27.88.88,0,0,1,.32-.07Zm-5.63-4.65h1.75l1.08,1.36-.39,1.7-1.58.76-1.58-.76-.37-1.71Zm10.5-4.13a11.46,11.46,0,0,1,1.64,7.09L32,25.92v0a1,1,0,0,1-.67-1.18.94.94,0,0,1,.3-.48l4.25-3.81Zm-19.26,0,4.29,3.82v0A1,1,0,0,1,21,25.63a1,1,0,0,1-.47.29v0L15,27.53a11.26,11.26,0,0,1,1.6-7.12Zm11-5.29a11.3,11.3,0,0,1,6.54,3.15l-4.66,3.31a1,1,0,0,1-1.35-.16h0a.94.94,0,0,1-.21-.58Zm-2.73,0-.33,5.72h0a1,1,0,0,1-1,.92,1,1,0,0,1-.53-.18l-4.69-3.33a11.22,11.22,0,0,1,5.41-3,11.63,11.63,0,0,1,1.16-.18Zm1.36-8.47a1.15,1.15,0,0,0-1.07,1.21v.31a9,9,0,0,0,.15,1,10.08,10.08,0,0,1,.11,2,1.19,1.19,0,0,1-.36.57l0,.46a16.44,16.44,0,0,0-2,.3,14,14,0,0,0-7.13,4.07l-.39-.28a.86.86,0,0,1-.65-.06,10.33,10.33,0,0,1-1.47-1.33,8.62,8.62,0,0,0-.72-.76L12.45,14a1.26,1.26,0,0,0-.76-.29,1.05,1.05,0,0,0-.87.39,1.15,1.15,0,0,0,.27,1.61l.22.17a9.2,9.2,0,0,0,.9.53,10.43,10.43,0,0,1,1.64,1.14,1.16,1.16,0,0,1,.22.62l.36.31a14.12,14.12,0,0,0-2.23,9.85l-.46.14a1.51,1.51,0,0,1-.47.47,10.72,10.72,0,0,1-1.95.32,9.28,9.28,0,0,0-1.05.08L8,29.39H8a1.1,1.1,0,1,0,.2,2.19,1.27,1.27,0,0,0,.28-.06h0l.3,0a8.18,8.18,0,0,0,1-.36,10.68,10.68,0,0,1,1.91-.55,1.16,1.16,0,0,1,.62.22l.48-.09A14.13,14.13,0,0,0,19,38.57l-.2.42a1,1,0,0,1,.1.62,10.43,10.43,0,0,1-1,1.79,10.11,10.11,0,0,0-.58.87l-.15.29a1.1,1.1,0,0,0,1.86,1.19,1.15,1.15,0,0,0,.12-.25l.13-.28a8.94,8.94,0,0,0,.32-1,7.73,7.73,0,0,1,.84-2A.78.78,0,0,1,21,40l.25-.45a14.09,14.09,0,0,0,10.07,0l.22.42a.87.87,0,0,1,.55.34,10.15,10.15,0,0,1,.75,1.84c.09.33.2.67.32,1l.14.27a1.1,1.1,0,0,0,1.41.65,1.06,1.06,0,0,0,.53-.43,1.08,1.08,0,0,0,0-1.15l-.14-.29a10.22,10.22,0,0,0-.59-.87,10.91,10.91,0,0,1-1-1.73.9.9,0,0,1,.11-.66,3.38,3.38,0,0,1-.18-.44,14.19,14.19,0,0,0,6.27-7.9l.46.08a.88.88,0,0,1,.62-.22,9.85,9.85,0,0,1,1.9.56,10.47,10.47,0,0,0,1,.38c.08,0,.19,0,.28.06h0a1.1,1.1,0,0,0,.77-2.07,1.4,1.4,0,0,0-.28-.06l-.32-.07a9.28,9.28,0,0,0-1-.08,10.83,10.83,0,0,1-2-.32,1.27,1.27,0,0,1-.47-.48l-.44-.13A14.21,14.21,0,0,0,38,18.48l.38-.35a.87.87,0,0,1,.21-.62,9.7,9.7,0,0,1,1.62-1.15,8.21,8.21,0,0,0,.91-.52l.23-.2a1.1,1.1,0,0,0-1.14-1.88.91.91,0,0,0-.21.18l-.25.19a8.51,8.51,0,0,0-.71.76,10.7,10.7,0,0,1-1.43,1.35,1.18,1.18,0,0,1-.67.07l-.41.3a14.38,14.38,0,0,0-9.07-4.38c0-.14,0-.4,0-.48A.88.88,0,0,1,27,11.2a10.13,10.13,0,0,1,.12-2,9.13,9.13,0,0,0,.15-1V7.88a1.16,1.16,0,0,0-1.07-1.22Z"/><path id="Tracé_26543" data-name="Tracé 26543" class="cls-1" d="M178.73,31.8a3.6,3.6,0,0,0,1.34-.19.72.72,0,0,0,.4-.72.9.9,0,0,0-.52-.71,8.73,8.73,0,0,0-1.55-.72,15.77,15.77,0,0,1-1.47-.62,4.56,4.56,0,0,1-1.13-.78,3.08,3.08,0,0,1-.71-1.07,4.1,4.1,0,0,1-.26-1.51,3.25,3.25,0,0,1,1.28-2.71,5.52,5.52,0,0,1,3.5-1,10.93,10.93,0,0,1,2.14.2,9.1,9.1,0,0,1,1.63.43l-.6,2.69a10.18,10.18,0,0,0-1.31-.36,7.09,7.09,0,0,0-1.59-.16q-1.62,0-1.62.9a.91.91,0,0,0,.06.36.92.92,0,0,0,.28.31,4,4,0,0,0,.57.32,8.18,8.18,0,0,0,.92.39,14.31,14.31,0,0,1,1.88.83,4.79,4.79,0,0,1,1.17.88,2.8,2.8,0,0,1,.6,1.06,4.61,4.61,0,0,1,.17,1.34,3.07,3.07,0,0,1-1.35,2.73,6.87,6.87,0,0,1-3.84.93,11.21,11.21,0,0,1-2.7-.28,11.33,11.33,0,0,1-1.5-.47l.58-2.8a11.45,11.45,0,0,0,1.81.55,9.28,9.28,0,0,0,1.82.18M169.24,27a4.19,4.19,0,0,0-.15-.86,2.13,2.13,0,0,0-.4-.74,2,2,0,0,0-.67-.53,2.18,2.18,0,0,0-1-.21,2.32,2.32,0,0,0-1,.2,2.14,2.14,0,0,0-.71.52,2.38,2.38,0,0,0-.43.76,5,5,0,0,0-.22.87Zm-8.12,1.32a7.47,7.47,0,0,1,.5-2.84,6,6,0,0,1,1.31-2,5.37,5.37,0,0,1,1.86-1.22,5.78,5.78,0,0,1,2.17-.42,5.4,5.4,0,0,1,4.11,1.59,6.57,6.57,0,0,1,1.5,4.66c0,.2,0,.42,0,.67s0,.45,0,.63h-7.83a2.27,2.27,0,0,0,1,1.69,4,4,0,0,0,2.36.63,10.66,10.66,0,0,0,1.87-.17,7.79,7.79,0,0,0,1.5-.43l.46,2.8a6.61,6.61,0,0,1-.74.28,9.05,9.05,0,0,1-1,.24c-.38.07-.79.13-1.22.18s-.86.07-1.3.07a7.79,7.79,0,0,1-2.86-.49,5.58,5.58,0,0,1-2-1.34,5.38,5.38,0,0,1-1.2-2,8.22,8.22,0,0,1-.38-2.51ZM151.67,19l3.45-.56v3.58h4.15v2.86h-4.15v4.3a3.52,3.52,0,0,0,.39,1.74,1.64,1.64,0,0,0,1.54.64,6.38,6.38,0,0,0,1.15-.1,5.85,5.85,0,0,0,1.07-.29l.48,2.69a9.36,9.36,0,0,1-1.39.44,7.9,7.9,0,0,1-1.88.19,6.26,6.26,0,0,1-2.34-.39,3.64,3.64,0,0,1-1.48-1.07,3.91,3.91,0,0,1-.78-1.66,9.6,9.6,0,0,1-.22-2.14V19ZM145.78,27a3.17,3.17,0,0,0-.15-.86,2.11,2.11,0,0,0-.39-.74,2.16,2.16,0,0,0-.67-.53,2.21,2.21,0,0,0-1-.21,2.29,2.29,0,0,0-1,.2,1.92,1.92,0,0,0-.7.53,2.33,2.33,0,0,0-.43.75,5,5,0,0,0-.22.87h4.57Zm-8.11,1.32a7.47,7.47,0,0,1,.5-2.84,6.12,6.12,0,0,1,1.31-2,5.42,5.42,0,0,1,1.85-1.22,5.78,5.78,0,0,1,2.17-.42,5.38,5.38,0,0,1,4.1,1.59A6.56,6.56,0,0,1,149.1,28c0,.2,0,.42,0,.67s0,.45,0,.63H141.2a2.27,2.27,0,0,0,1,1.7,4,4,0,0,0,2.36.62,10.66,10.66,0,0,0,1.87-.17,7.08,7.08,0,0,0,1.49-.44l.47,2.8a4.16,4.16,0,0,1-.74.28,7.36,7.36,0,0,1-1,.25c-.38.07-.79.13-1.22.18a11.31,11.31,0,0,1-1.3.06,7.52,7.52,0,0,1-2.86-.48,5.69,5.69,0,0,1-2-1.33,5.21,5.21,0,0,1-1.17-2,7.92,7.92,0,0,1-.38-2.51ZM124.59,22.5a19.88,19.88,0,0,1,2.27-.47,18,18,0,0,1,2.93-.22,7.13,7.13,0,0,1,2.59.4A4,4,0,0,1,134,23.36a4.5,4.5,0,0,1,.85,1.76,9.14,9.14,0,0,1,.26,2.27v6.9h-3.46V27.81a4.68,4.68,0,0,0-.44-2.36,1.81,1.81,0,0,0-1.65-.7,7.41,7.41,0,0,0-.78,0c-.29,0-.54.05-.74.08v9.41H124.6V22.5Zm-2.43,2.64-1.07-.24a6.86,6.86,0,0,0-1.35-.13,5.12,5.12,0,0,0-.78.06,4.07,4.07,0,0,0-.68.13v9.3h-3.45V22.73a18.42,18.42,0,0,1,2.17-.61,12.17,12.17,0,0,1,2.82-.29l.67,0,.79.1c.26,0,.52.08.78.14a3.31,3.31,0,0,1,.68.2ZM108.81,27a4.19,4.19,0,0,0-.15-.86,2.13,2.13,0,0,0-.4-.74,1.82,1.82,0,0,0-.67-.53,2.18,2.18,0,0,0-1-.21,2.32,2.32,0,0,0-1,.2,2,2,0,0,0-.69.52,2.2,2.2,0,0,0-.43.76,5.06,5.06,0,0,0-.23.87h4.58Zm-8.12,1.32a7.43,7.43,0,0,1,.5-2.84,6.06,6.06,0,0,1,1.31-2,5.38,5.38,0,0,1,1.87-1.21,5.74,5.74,0,0,1,2.17-.42,5.38,5.38,0,0,1,4.1,1.59,6.59,6.59,0,0,1,1.5,4.67q0,.3,0,.66c0,.24,0,.45,0,.64h-7.84a2.27,2.27,0,0,0,1,1.69,4,4,0,0,0,2.37.63,9.69,9.69,0,0,0,1.86-.18A6.45,6.45,0,0,0,111,31l.47,2.8a4.16,4.16,0,0,1-.74.28c-.34.1-.68.18-1,.25s-.79.13-1.22.17a11.2,11.2,0,0,1-1.3.07,7.52,7.52,0,0,1-2.86-.49,5.56,5.56,0,0,1-2-1.33,5.24,5.24,0,0,1-1.18-2,7.93,7.93,0,0,1-.39-2.51Zm-5.6-.19c0-2.22-.82-3.34-2.46-3.33a3.74,3.74,0,0,0-1,.14,2.88,2.88,0,0,0-.85.35v6.28l.64.08c.26,0,.55,0,.86,0a2.49,2.49,0,0,0,2.15-1,4.21,4.21,0,0,0,.71-2.58Zm3.52.1a7.64,7.64,0,0,1-.42,2.64,5.66,5.66,0,0,1-1.25,2,5.47,5.47,0,0,1-2,1.29,7.68,7.68,0,0,1-2.69.45c-.42,0-.85,0-1.31-.06s-.9-.09-1.34-.15-.86-.14-1.27-.22-.75-.18-1.07-.27v-17l3.46-.56v6.09a5.64,5.64,0,0,1,1.2-.4,6.19,6.19,0,0,1,1.35-.14,5.52,5.52,0,0,1,2.3.45,4.48,4.48,0,0,1,1.67,1.29,5.63,5.63,0,0,1,1,2,9.11,9.11,0,0,1,.35,2.6M84,33.86a20.67,20.67,0,0,1-5.19.7,7.15,7.15,0,0,1-2.59-.42A4.06,4.06,0,0,1,74.62,33a4.51,4.51,0,0,1-.86-1.79,10,10,0,0,1-.26-2.3v-6.8H77v6.37a4.87,4.87,0,0,0,.44,2.41,1.75,1.75,0,0,0,1.65.74,7.59,7.59,0,0,0,.79,0c.28,0,.53,0,.74-.08V22.07H84Zm-20.14-7.4,1-1.16c.37-.4.72-.79,1.06-1.18L67,23l.78-.92h4.11c-.82.94-1.62,1.84-2.4,2.69s-1.64,1.74-2.57,2.65a17,17,0,0,1,1.44,1.5c.49.58,1,1.18,1.43,1.79s.88,1.23,1.27,1.86.71,1.19,1,1.7H68c-.24-.4-.52-.85-.84-1.34s-.66-1-1-1.44-.74-.94-1.13-1.4A9.7,9.7,0,0,0,63.88,29V34.3H60.43V16.84l3.45-.56V26.46Z"/></g></svg>