<svg id="Calque_1" data-name="Calque 1" xmlns="http://www.w3.org/2000/svg" viewBox="0 0 138.24 55.67"><defs><style>.cls-1,.cls-2{fill:#959595;}.cls-2{stroke:#fff;stroke-miterlimit:10;stroke-width:0.93px;}</style></defs><g id="Groupe_24970" data-name="Groupe 24970"><path id="Tracé_27021" data-name="Tracé 27021" class="cls-1" d="M42.49,24.82h7.17v.92h-6.1v4.09H49v.92H43.56v5.39H42.49Z"/><path id="Tracé_27022" data-name="Tracé 27022" class="cls-1" d="M55.74,24.58c3.55,0,5.32,2.79,5.32,5.9s-1.77,5.9-5.32,5.9-5.35-2.79-5.35-5.9S52.17,24.58,55.74,24.58Zm0,10.88c3,0,4.24-2.5,4.24-5s-1.26-5-4.24-5-4.27,2.5-4.27,5S52.74,35.46,55.74,35.46Z"/><path id="Tracé_27023" data-name="Tracé 27023" class="cls-1" d="M62.63,24.82h1.08v7c0,2.61,1.22,3.63,3.31,3.63s3.33-1,3.33-3.63v-7h1.08v7.25c0,2.33-1.25,4.31-4.41,4.31s-4.39-2-4.39-4.31Z"/><path id="Tracé_27024" data-name="Tracé 27024" class="cls-1" d="M73.59,24.82h1.2l6.59,9.58h0V24.82h1.08V36.14h-1.2L74.7,26.56h0v9.58H73.59Z"/><path id="Tracé_27025" data-name="Tracé 27025" class="cls-1" d="M84.77,24.82h3.91c3.43.08,5.2,1.92,5.2,5.66s-1.77,5.58-5.2,5.66H84.77Zm1.08,10.4h2.3c3.25,0,4.66-1.34,4.66-4.74s-1.41-4.74-4.66-4.74h-2.3Z"/><path id="Tracé_27026" data-name="Tracé 27026" class="cls-1" d="M98.94,24.82h1.2l4.43,11.32h-1.15L102,32.62H96.89l-1.36,3.52H94.37ZM97.22,31.7h4.46l-2.19-5.8Z"/><path id="Tracé_27027" data-name="Tracé 27027" class="cls-1" d="M103.31,24.82h9v.92h-3.94v10.4h-1.08V25.74h-4Z"/><path id="Tracé_27028" data-name="Tracé 27028" class="cls-1" d="M113.42,24.82h1.08V36.14h-1.08Z"/><path id="Tracé_27029" data-name="Tracé 27029" class="cls-1" d="M121.6,24.58c3.56,0,5.33,2.79,5.33,5.9s-1.77,5.9-5.33,5.9-5.34-2.79-5.34-5.9S118,24.58,121.6,24.58Zm0,10.88c3,0,4.25-2.5,4.25-5s-1.27-5-4.25-5-4.26,2.5-4.26,5S118.61,35.46,121.6,35.46Z"/><path id="Tracé_27030" data-name="Tracé 27030" class="cls-1" d="M128.6,24.82h1.2l6.59,9.58h0V24.82h1.08V36.14h-1.2l-6.59-9.58h0v9.58H128.6Z"/></g><g id="Groupe_24971" data-name="Groupe 24971"><path id="Tracé_27031" data-name="Tracé 27031" class="cls-1" d="M42.49.11h6.23V15.17h9v5.19H42.49Z"/><path id="Tracé_27032" data-name="Tracé 27032" class="cls-1" d="M61.77.11H68V20.36H61.77Z"/><path id="Tracé_27033" data-name="Tracé 27033" class="cls-1" d="M72.66.11H79l5.9,10.83H85V.11h5.9V20.36H84.83L78.62,9.3h-.06V20.36h-5.9Z"/><path id="Tracé_27034" data-name="Tracé 27034" class="cls-1" d="M114,12.53c0,5.64-3,8.31-9.22,8.31s-9.25-2.67-9.25-8.31V.11h6.24v11c0,2,0,4.65,3,4.65s2.95-2.61,2.95-4.65V.11H114Z"/><path id="Tracé_27035" data-name="Tracé 27035" class="cls-1" d="M123.87,9.58,117.21.11h7.31l3.07,5.5,3-5.5h6.92L131,9.64l7.23,10.72h-7.51l-3.46-6-3.57,6h-7.15Z"/></g><g id="Groupe_24972" data-name="Groupe 24972"><path id="Tracé_27036" data-name="Tracé 27036" class="cls-1" d="M7.25,29V14.49H0V36.21H21.73V29Z"/><path id="Tracé_27037" data-name="Tracé 27037" class="cls-1" d="M36.2,0H0V10.86H7.24V7.27H29V29H25.34v7.24H36.2Z"/></g><path id="Tracé_27038" data-name="Tracé 27038" class="cls-2" d="M0,41.77H137.55"/><g id="Groupe_24973" data-name="Groupe 24973"><path id="Tracé_27039" data-name="Tracé 27039" class="cls-1" d="M5.51,53.22A2.15,2.15,0,0,1,4.68,55a3.54,3.54,0,0,1-2.27.65A5.4,5.4,0,0,1,0,55.21V53.89a6.74,6.74,0,0,0,1.24.43,5.12,5.12,0,0,0,1.23.16,2,2,0,0,0,1.23-.32,1,1,0,0,0,.4-.85,1.07,1.07,0,0,0-.37-.81,5.26,5.26,0,0,0-1.5-.79A4.06,4.06,0,0,1,.61,50.63a2.36,2.36,0,0,1-.48-1.47,2.08,2.08,0,0,1,.76-1.69,3.18,3.18,0,0,1,2.05-.61,6.11,6.11,0,0,1,2.45.54l-.45,1.14a5.49,5.49,0,0,0-2-.48,1.58,1.58,0,0,0-1,.3,1,1,0,0,0-.35.78,1,1,0,0,0,.14.57,1.41,1.41,0,0,0,.46.45,8.26,8.26,0,0,0,1.16.56,6.15,6.15,0,0,1,1.39.73,2.09,2.09,0,0,1,.64.77A2.29,2.29,0,0,1,5.51,53.22Z"/><path id="Tracé_27040" data-name="Tracé 27040" class="cls-1" d="M10.92,55.55V47h1.4v8.57Z"/><path id="Tracé_27041" data-name="Tracé 27041" class="cls-1" d="M18.34,55.55V47h1.4v7.37h3.62v1.2Z"/><path id="Tracé_27042" data-name="Tracé 27042" class="cls-1" d="M33.47,47h1.45l-3,8.57H30.44l-3-8.57H28.9l1.79,5.33c.09.25.19.58.3,1s.17.7.2.89c0-.3.13-.64.23-1s.2-.68.26-.87Z"/><path id="Tracé_27043" data-name="Tracé 27043" class="cls-1" d="M44.65,55.55H39.81V47h4.84v1.19H41.21V50.5h3.23v1.17H41.21v2.68h3.44Z"/><path id="Tracé_27044" data-name="Tracé 27044" class="cls-1" d="M51.66,52.13v3.42h-1.4V47h2.42a4,4,0,0,1,2.45.63,2.19,2.19,0,0,1,.8,1.87,2.35,2.35,0,0,1-1.66,2.28l2.42,3.79h-1.6L53,52.13Zm0-1.16h1a2.24,2.24,0,0,0,1.42-.37,1.32,1.32,0,0,0,.44-1.07A1.19,1.19,0,0,0,54,48.48a2.53,2.53,0,0,0-1.43-.31h-.92Z"/><path id="Tracé_27045" data-name="Tracé 27045" class="cls-1" d="M72.25,55.55l-2.48-7.16h0c.07,1.07.1,2.06.1,3v4.16H68.55V47h2l2.37,6.81h0L75.39,47h2v8.56H76V51.31c0-.43,0-1,0-1.66s0-1.1.06-1.24h0l-2.57,7.14Z"/><path id="Tracé_27046" data-name="Tracé 27046" class="cls-1" d="M88.22,55.55H83.38V47h4.84v1.19H84.78V50.5H88v1.17H84.78v2.68h3.44Z"/><path id="Tracé_27047" data-name="Tracé 27047" class="cls-1" d="M97.53,55.55,95,48.39h0c.06,1.07.1,2.06.1,3v4.16H93.83V47h2l2.38,6.81h0L100.66,47h2v8.56h-1.35V51.31c0-.43,0-1,0-1.66s0-1.1,0-1.24h0l-2.58,7.14Z"/><path id="Tracé_27048" data-name="Tracé 27048" class="cls-1" d="M108.65,47h2.54a4.92,4.92,0,0,1,2.56.52,1.79,1.79,0,0,1,.79,1.63,1.93,1.93,0,0,1-.39,1.24A1.68,1.68,0,0,1,113,51v.06a2.18,2.18,0,0,1,1.33.67,2,2,0,0,1,.42,1.35,2.2,2.2,0,0,1-.8,1.81,3.45,3.45,0,0,1-2.24.65h-3.1Zm1.4,3.54h1.35a2.29,2.29,0,0,0,1.28-.28,1.06,1.06,0,0,0,.4-.94,1,1,0,0,0-.44-.88,2.76,2.76,0,0,0-1.38-.27H110Zm0,1.14v2.71h1.49a2.2,2.2,0,0,0,1.32-.34,1.21,1.21,0,0,0,.45-1.06,1.12,1.12,0,0,0-.45-1,2.42,2.42,0,0,0-1.39-.32Z"/><path id="Tracé_27049" data-name="Tracé 27049" class="cls-1" d="M125.17,55.55h-4.85V47h4.85v1.19h-3.45V50.5H125v1.17h-3.23v2.68h3.45Z"/><path id="Tracé_27050" data-name="Tracé 27050" class="cls-1" d="M132.17,52.13v3.42h-1.4V47h2.43a4,4,0,0,1,2.45.63,2.22,2.22,0,0,1,.8,1.87,2.35,2.35,0,0,1-1.66,2.28l2.42,3.79h-1.6l-2.05-3.42Zm0-1.16h1a2.22,2.22,0,0,0,1.42-.37,1.29,1.29,0,0,0,.44-1.07,1.16,1.16,0,0,0-.47-1.05,2.55,2.55,0,0,0-1.43-.31h-.93Z"/></g></svg>