<svg id="Calque_1" data-name="Calque 1" xmlns="http://www.w3.org/2000/svg" viewBox="0 0 119.4 82.05"><defs><style>.cls-1{fill:#959595;}</style></defs><g id="Groupe_24975" data-name="Groupe 24975"><rect id="Rectangle_8726" data-name="Rectangle 8726" class="cls-1" x="0.43" y="45.14" width="118.2" height="0.69"/><path id="Tracé_27051" data-name="Tracé 27051" class="cls-1" d="M24.24,68.35h.09L26.64,75H21.93Zm-2-4.46L15.42,82.05h4l1.46-4h6.77l1.37,4h4.11L26.38,63.89Z"/><path id="Tracé_27052" data-name="Tracé 27052" class="cls-1" d="M51.65,63.89v3.35h5.4V82.05h4V67.24h5.4V63.89Z"/><path id="Tracé_27053" data-name="Tracé 27053" class="cls-1" d="M80.17,63.89V76.06h-.08L72.55,63.9h-4V82.05h3.77V69.89h.09l7.53,12.16h3.94V63.89Z"/><path id="Tracé_27054" data-name="Tracé 27054" class="cls-1" d="M87.36,63.89V82.05h13.79V78.71H91.39V74.26h8.74V71.18H91.39V67.24h9.51V63.9Z"/><path id="Tracé_27055" data-name="Tracé 27055" class="cls-1" d="M.43,63.9H8.56c4.54,0,6.25,2.82,6.25,5.82s-1.71,5.82-6.25,5.82H4.36v6.51H.42Zm3.94,8.56H7.45c1.8,0,3.51-.43,3.51-2.74S9.25,67,7.45,67H4.37Z"/><path id="Tracé_27056" data-name="Tracé 27056" class="cls-1" d="M34.69,63.89h9.77a5,5,0,0,1,5.3,4.59c0,.13,0,.26,0,.38a4.43,4.43,0,0,1-2.83,4.54v.09c2,.51,2.49,2.4,2.66,4.2.08,1.11,0,3.34.77,4.28h-4a21.39,21.39,0,0,1-.6-4.37c-.26-1.88-1-2.74-3-2.74h-4V82h-4Zm4,8.23h4.37c1.8,0,2.74-.77,2.74-2.57s-.94-2.48-2.74-2.48H38.72Z"/><path id="Tracé_27057" data-name="Tracé 27057" class="cls-1" d="M103.81,63.89h9.76a5,5,0,0,1,5.3,4.6c0,.12,0,.25,0,.37A4.37,4.37,0,0,1,116,73.4v.09c2,.51,2.48,2.4,2.66,4.2.08,1.11,0,3.34.77,4.28h-4a21.39,21.39,0,0,1-.6-4.37c-.25-1.88-1-2.74-3-2.74h-4V82h-4V63.89Zm4,8.23h4.36c1.8,0,2.74-.77,2.74-2.57s-.94-2.48-2.74-2.48h-4.36Z"/><path id="Tracé_27058" data-name="Tracé 27058" class="cls-1" d="M3.51,51.56l1.54,4H2Zm-.34-.77L0,58.67H.86l.94-2.48H5.4l.94,2.48h.77L4,50.79Z"/><path id="Tracé_27059" data-name="Tracé 27059" class="cls-1" d="M14.56,50.79h6.25v.6H18.07v7.28H17.3V51.39H14.56Z"/><path id="Tracé_27060" data-name="Tracé 27060" class="cls-1" d="M21.59,50.79h.77v3.43H27V50.79h.77v7.88H27V54.82H22.36v3.85h-.77Z"/><rect id="Rectangle_8727" data-name="Rectangle 8727" class="cls-1" x="44.97" y="50.79" width="0.77" height="7.88"/><path id="Tracé_27061" data-name="Tracé 27061" class="cls-1" d="M47,50.79h5.65v.69l-5.22,6.6h5.31v.6H46.59V58l5.23-6.59H47Z"/><path id="Tracé_27062" data-name="Tracé 27062" class="cls-1" d="M53.7,50.79h5.48v.6H54.47V54.3h4.37v.6H54.47v3.17h4.71v.6H53.7Z"/><path id="Tracé_27063" data-name="Tracé 27063" class="cls-1" d="M70.06,50.79h6.26v.6H73.58v7.28H72.8V51.39H70.06Z"/><path id="Tracé_27064" data-name="Tracé 27064" class="cls-1" d="M86.77,50.79h.85l3.09,7.88h-.78L89,56.19h-3.6l-.94,2.48h-.77Zm-1.2,4.8h3.08l-1.54-4Z"/><rect id="Rectangle_8728" data-name="Rectangle 8728" class="cls-1" x="91.48" y="50.79" width="0.77" height="7.88"/><path id="Tracé_27065" data-name="Tracé 27065" class="cls-1" d="M93.75,50.89l.77,0,4.84,6.53-.21-6.68.77,0,.24,7.87-.85,0-4.75-6.53h-.08l.2,6.67-.68,0Z"/><rect id="Rectangle_8729" data-name="Rectangle 8729" class="cls-1" x="101.67" y="50.79" width="0.77" height="7.88"/><path id="Tracé_27066" data-name="Tracé 27066" class="cls-1" d="M104.07,50.79h.85l4.63,6.68V50.79h.77v7.88h-.86L104.84,52v6.68h-.77Z"/><path id="Tracé_27067" data-name="Tracé 27067" class="cls-1" d="M7.79,50.79h.78v4.88c0,1.8.85,2.57,2.31,2.57s2.31-.68,2.31-2.57V50.79H14v5.05a2.76,2.76,0,0,1-2.5,3,2.25,2.25,0,0,1-.58,0A2.81,2.81,0,0,1,7.8,56.33a2.66,2.66,0,0,1,0-.49Z"/><path id="Tracé_27068" data-name="Tracé 27068" class="cls-1" d="M32.63,50.62c2.49,0,3.69,2,3.69,4.11s-1.2,4.11-3.69,4.11S29,56.87,29,54.73s1.2-4.11,3.68-4.11m0,7.54c2.06,0,3-1.72,3-3.51s-.85-3.52-3-3.52-3,1.72-3,3.52.95,3.51,3,3.51"/><path id="Tracé_27069" data-name="Tracé 27069" class="cls-1" d="M37.52,50.79h3.6c1.28,0,2.4.6,2.4,2.06a1.82,1.82,0,0,1-1.55,2c1,.17,1.29.85,1.37,1.8a4.13,4.13,0,0,0,.35,2.05h-.86a2.58,2.58,0,0,1-.17-1.2c-.09-1.11-.17-2.31-1.54-2.31H38.29v3.51h-.77Zm.77,3.77h2.82a1.58,1.58,0,0,0,1.71-1.44s0-.07,0-.1c0-1-.6-1.54-1.72-1.54H38.29Z"/><path id="Tracé_27070" data-name="Tracé 27070" class="cls-1" d="M60.3,50.79H63c2.4.09,3.6,1.37,3.6,3.94s-1.2,3.85-3.6,3.94H60.3ZM61,58.07h1.63c2.23,0,3.26-.94,3.26-3.34s-1-3.34-3.26-3.34H61Z"/><path id="Tracé_27071" data-name="Tracé 27071" class="cls-1" d="M77.09,50.79h3.6c1.28,0,2.4.6,2.4,2.06a1.82,1.82,0,0,1-1.55,2c1,.17,1.29.85,1.37,1.8a4.13,4.13,0,0,0,.35,2.05H82.4a2.87,2.87,0,0,1-.17-1.2c-.08-1.11-.17-2.31-1.54-2.31H77.86v3.51h-.77Zm.68,3.77H80.6a1.59,1.59,0,0,0,1.71-1.44V53c0-1-.6-1.54-1.71-1.54H77.77Z"/><path id="Tracé_27072" data-name="Tracé 27072" class="cls-1" d="M118.63,58.67h-.52L118,57.22a2.93,2.93,0,0,1-2.74,1.62c-2.49,0-3.69-2-3.69-4.11s1.2-4.11,3.69-4.11a3,3,0,0,1,3.25,2.65h-.77a2.42,2.42,0,0,0-2.57-2c-2,0-3,1.72-3,3.52s.86,3.51,3,3.51A2.65,2.65,0,0,0,118,55.77a2,2,0,0,0,0-.35h-2.65v-.77h3.34Z"/><path id="Tracé_27073" data-name="Tracé 27073" class="cls-1" d="M46,.09V.86h3.08V8.74h.77V.86h3V.09Z"/><path id="Tracé_27074" data-name="Tracé 27074" class="cls-1" d="M59.61.09V3.85h-5V.09H53.7V8.74h.86V4.54h5v4.2h.86V.09Z"/><path id="Tracé_27075" data-name="Tracé 27075" class="cls-1" d="M62.18.09V8.74h6.08V8.05H63V4.62h4.8V3.94H63V.86h5.14V.09Z"/><path id="Tracé_27076" data-name="Tracé 27076" class="cls-1" d="M46,30.24h5.49v.68H46.85V34H51v.77H46.85v4.12H46Z"/><path id="Tracé_27077" data-name="Tracé 27077" class="cls-1" d="M56.19,38.37c2.31,0,3.25-1.88,3.25-3.77s-.94-3.77-3.25-3.77-3.26,1.89-3.26,3.77,1,3.77,3.26,3.77m0-8.31c2.74,0,4,2.14,4,4.54s-1.37,4.54-4,4.54S52.08,37,52.08,34.6s1.37-4.54,4.11-4.54"/><path id="Tracé_27078" data-name="Tracé 27078" class="cls-1" d="M61.41,30.24h.86v5.3c0,2,.94,2.75,2.57,2.75s2.57-.77,2.57-2.75v-5.3h.85V35.8a3,3,0,0,1-2.69,3.27,3.53,3.53,0,0,1-.65,0,3,3,0,0,1-3.33-2.7,3.47,3.47,0,0,1,0-.56V30.24Z"/><path id="Tracé_27079" data-name="Tracé 27079" class="cls-1" d="M69.81,30.24h.94l5,7.28h.08V30.24h.77v8.65h-.94l-5-7.37h-.08v7.37h-.77Z"/><path id="Tracé_27080" data-name="Tracé 27080" class="cls-1" d="M79.14,38.2h1.8c2.49,0,3.6-1,3.6-3.6S83.43,31,80.94,31h-1.8Zm-.85-8h3c2.65.09,3.94,1.46,3.94,4.29s-1.37,4.28-3.94,4.28h-3Z"/><path id="Tracé_27081" data-name="Tracé 27081" class="cls-1" d="M87.88,35.46H91.3L89.59,31Zm1.28-5.23h1l3.42,8.66h-.85l-1-2.66h-4l-1,2.66h-.86Z"/><path id="Tracé_27082" data-name="Tracé 27082" class="cls-1" d="M92.5,30.24h6.86v.68h-3v8H95.5v-8h-3Z"/><rect id="Rectangle_8730" data-name="Rectangle 8730" class="cls-1" x="100.21" y="30.23" width="0.86" height="8.65"/><path id="Tracé_27083" data-name="Tracé 27083" class="cls-1" d="M106.47,38.37c2.31,0,3.25-1.88,3.25-3.77s-.94-3.77-3.25-3.77-3.26,1.89-3.26,3.77.94,3.77,3.26,3.77m0-8.31c2.74,0,4.11,2.14,4.11,4.54s-1.37,4.54-4.11,4.54-4.12-2.14-4.12-4.54,1.37-4.54,4.12-4.54"/><path id="Tracé_27084" data-name="Tracé 27084" class="cls-1" d="M111.78,30.24h.94l5,7.28V30.24h.86v8.65h-.94l-5-7.37v7.37h-.86Z"/><path id="Tracé_27085" data-name="Tracé 27085" class="cls-1" d="M46,11.31h4.8V22.87h6.86v3.94H46Z"/><rect id="Rectangle_8731" data-name="Rectangle 8731" class="cls-1" x="60.73" y="11.31" width="4.8" height="15.5"/><path id="Tracé_27086" data-name="Tracé 27086" class="cls-1" d="M69.12,11.31h4.8l4.54,8.3h.09v-8.3H83v15.5H78.37l-4.71-8.48h-.09v8.48H69.12Z"/><path id="Tracé_27087" data-name="Tracé 27087" class="cls-1" d="M100.64,20.81c0,4.29-2.31,6.34-7,6.34s-7-2-7-6.34v-9.5h4.8V19.7c0,1.54,0,3.51,2.32,3.51s2.22-2,2.22-3.51V11.31h4.8v9.5Z"/><path id="Tracé_27088" data-name="Tracé 27088" class="cls-1" d="M113.32,11.31,111,15.51l-2.32-4.2h-5.56l5.05,7.28-5.57,8.22h5.48l2.74-4.63,2.57,4.63h5.74l-5.48-8.22,5-7.28Z"/><path id="Tracé_27089" data-name="Tracé 27089" class="cls-1" d="M.43,15.5V38.88h23.3V31.09H8.23V15.5Z"/><path id="Tracé_27090" data-name="Tracé 27090" class="cls-1" d="M.43,0V11.65H8.22V7.79h23.3v23.3H27.67v7.8H39.32V0Z"/></g></svg>