<svg id="Calque_1" data-name="Calque 1" xmlns="http://www.w3.org/2000/svg" viewBox="0 0 172.24 48.88"><defs><style>.cls-1{fill:#959595;}</style></defs><path id="Tracé_20133" data-name="Tracé 20133" class="cls-1" d="M58.53,12.64v9.43h5.34v2.41H55.8V12.64Z"/><path id="Tracé_20134" data-name="Tracé 20134" class="cls-1" d="M74.7,12.64v8.53c0,2.85-2,3.55-5.08,3.55s-5.09-.7-5.09-3.55V12.64H67.3v7.15c0,1.58,0,2.38,2.31,2.38s2.33-.81,2.33-2.38V12.64Z"/><path id="Tracé_20135" data-name="Tracé 20135" class="cls-1" d="M81.41,16.07c.89-1.24,1.72-2.5,2.28-3.44h3.42c-1.09,1.67-2.54,3.76-4,5.82,1.61,2.29,3.23,4.61,4.18,6H83.86c-.66-1-1.51-2.26-2.46-3.6-1,1.33-1.9,2.55-2.74,3.6H75.24c1-1.19,2.72-3.58,4.44-6-1.67-2.28-3.37-4.56-4.42-5.87h3.59c.7.92,1.58,2.11,2.56,3.44"/><path id="Tracé_20136" data-name="Tracé 20136" class="cls-1" d="M96.87,12.64V15h-6.1v2.12h4.37V19.5H90.77v2.59h6.1v2.4H88V12.64Z"/><path id="Tracé_20137" data-name="Tracé 20137" class="cls-1" d="M107.83,12.64h3.5V24.49h-2.65v-8c-.9,2-2.14,5-2.93,7h-2.17c-.75-2-1.92-5.12-2.77-7v8H98.16V12.64h3.67c1,2,2.16,4.7,3,6.93.85-2.24,2-5,3-6.93"/><path id="Tracé_20138" data-name="Tracé 20138" class="cls-1" d="M119.66,22.16c.58,0,.87-.39.87-1.31s-.32-1.41-.93-1.41h-3.25v2.72Zm-3.31-4.95h3.23c.52,0,.76-.31.76-1.12S120.1,15,119.58,15h-3.23Zm7.15,4.08c0,2.38-1.2,3.2-3.12,3.2h-6.77V12.64h6.72c2.36,0,3,1,3,2.84,0,1.64-.41,2.6-2.53,2.77,2.26.1,2.75,1.19,2.75,3"/><path id="Tracé_20139" data-name="Tracé 20139" class="cls-1" d="M133.43,18.47c0-3.23-.44-3.6-2.84-3.6s-2.84.37-2.84,3.6.45,3.75,2.84,3.75,2.84-.47,2.84-3.75m2.93,0c0,4.88-2,6.29-5.77,6.29s-5.76-1.41-5.76-6.29,2-6.08,5.76-6.08,5.77,1.27,5.77,6.08"/><path id="Tracé_20140" data-name="Tracé 20140" class="cls-1" d="M148.07,12.64v8.53c0,2.85-2,3.55-5.09,3.55s-5.08-.7-5.08-3.55V12.64h2.77v7.15c0,1.58,0,2.38,2.31,2.38s2.34-.81,2.34-2.38V12.64Z"/><path id="Tracé_20141" data-name="Tracé 20141" class="cls-1" d="M153,18h3c.6,0,1-.43,1-1.48S156.64,15,156,15H153ZM161,24.49h-3.42c-1.84-3.23-2.69-4.24-3.42-4.24H153v4.24h-2.74V12.64h6.61c2.43,0,3.25,1.51,3.25,3.46,0,1.7-.71,3.18-3,3.3.8.29,1.69,1.36,3.9,5.09"/><path id="Tracé_20142" data-name="Tracé 20142" class="cls-1" d="M168.72,19.62h-2.34V17.28h5.15v6.88a18.57,18.57,0,0,1-4.51.56c-3.81,0-5.61-1.44-5.61-6.27s2.14-6.1,6.09-6.1a16.56,16.56,0,0,1,3.71.43l-.5,2.41a13.19,13.19,0,0,0-2.94-.34c-2.55,0-3.43.36-3.43,3.64s.88,3.7,3.26,3.7a8.32,8.32,0,0,0,1.12-.08Z"/><path id="Tracé_20143" data-name="Tracé 20143" class="cls-1" d="M61.62,31a7.6,7.6,0,0,0-2.27-.32c-1.49,0-2.29.33-2.29,1.45,0,.78.42,1.19,2.1,1.32,2.09.2,3,1,3,2.61,0,2-1.35,2.7-3.7,2.7a9.48,9.48,0,0,1-2.65-.38l.32-1.12a8.51,8.51,0,0,0,2.3.32c1.49,0,2.35-.32,2.35-1.45,0-.78-.41-1.34-2.14-1.49-2-.16-3-.76-3-2.39,0-2,1.35-2.75,3.68-2.75a9.34,9.34,0,0,1,2.57.37Z"/><path id="Tracé_20144" data-name="Tracé 20144" class="cls-1" d="M66.4,38.6V30.84h-3v-1.1h7.38v1.1h-3v7.77Z"/><path id="Tracé_20145" data-name="Tracé 20145" class="cls-1" d="M78.82,34.14c0-3-.63-3.48-2.75-3.48s-2.72.5-2.72,3.48.62,3.48,2.72,3.48,2.75-.61,2.75-3.48m1.38,0c0,3.65-1.33,4.67-4.13,4.67S72,37.76,72,34.11s1.34-4.59,4.12-4.59,4.13,1,4.13,4.59"/><path id="Tracé_20146" data-name="Tracé 20146" class="cls-1" d="M86.2,29.52a10.11,10.11,0,0,1,2.51.33L88.39,31a6.67,6.67,0,0,0-2-.31c-2.09,0-2.87.41-2.87,3.4s.78,3.49,2.87,3.49a7,7,0,0,0,2-.3l.32,1.16a9.66,9.66,0,0,1-2.51.33c-2.78,0-4.11-1.08-4.11-4.7s1.33-4.57,4.11-4.57"/><path id="Tracé_20147" data-name="Tracé 20147" class="cls-1" d="M96,38.6c-2-2.94-3.54-4.48-4.11-4.68a20.89,20.89,0,0,0,3.83-4.19h1.63a28.65,28.65,0,0,1-3.7,4.08,20,20,0,0,1,4,4.8Zm-4.12,0H90.58V29.73h1.29Z"/><path id="Tracé_20148" data-name="Tracé 20148" class="cls-1" d="M109.31,29.73v1.11h-5v2.52h3.53v1.1h-3.53v3h5v1.11h-6.24V29.74Z"/><path id="Tracé_20149" data-name="Tracé 20149" class="cls-1" d="M114.39,33c.83-1.1,1.63-2.22,2.36-3.27h1.56c-1,1.39-2,2.87-3.13,4.34,1.16,1.57,2.32,3.17,3.27,4.53h-1.6c-.78-1.09-1.6-2.25-2.47-3.43-.9,1.2-1.79,2.35-2.64,3.43h-1.57c1-1.28,2.24-2.9,3.42-4.49-1.14-1.53-2.32-3.08-3.36-4.38h1.65L114.4,33"/><path id="Tracé_20150" data-name="Tracé 20150" class="cls-1" d="M123.78,29.52a10.11,10.11,0,0,1,2.51.33L126,31a6.68,6.68,0,0,0-2-.31c-2.08,0-2.86.41-2.86,3.4s.78,3.49,2.86,3.49a7,7,0,0,0,2-.3l.32,1.16a9.66,9.66,0,0,1-2.51.33c-2.79,0-4.11-1.08-4.11-4.7s1.33-4.57,4.11-4.57"/><path id="Tracé_20151" data-name="Tracé 20151" class="cls-1" d="M129.45,38.6h-1.29V29.73h1.29v3.55h4.25V29.73H135V38.6H133.7V34.47h-4.25Z"/><path id="Tracé_20152" data-name="Tracé 20152" class="cls-1" d="M140.71,30.8c-.55,1.36-1.08,2.79-1.59,4.23h3.36c-.51-1.4-1-2.88-1.42-4.23Zm2.15,5.33h-4.11c-.28.84-.55,1.67-.8,2.47h-1.34c.93-2.8,2.13-6.05,3.28-8.87H142c1,2.93,2.24,6.47,3.28,8.87h-1.46c-.29-.74-.63-1.57-.95-2.47"/><path id="Tracé_20153" data-name="Tracé 20153" class="cls-1" d="M154,38.6h-1.58c-1.3-2.4-2.76-4.88-4.3-7.31V38.6h-1.27V29.73h1.72c1.43,2.19,2.85,4.61,4.13,7V29.73H154Z"/><path id="Tracé_20154" data-name="Tracé 20154" class="cls-1" d="M162.06,34.71h-2.12V33.63h3.43v4.82a12,12,0,0,1-2.92.33c-2.79,0-4.11-1.08-4.11-4.7s1.41-4.57,4.22-4.57a11.19,11.19,0,0,1,2.58.33L162.83,31a7.78,7.78,0,0,0-2.19-.31c-2.13,0-2.9.42-2.9,3.41s.77,3.52,2.86,3.52a7.19,7.19,0,0,0,1.46-.17Z"/><path id="Tracé_20155" data-name="Tracé 20155" class="cls-1" d="M166,29.73V38.6h6.25V37.5h-5v-3h3.53V33.36h-3.53V30.84h5v-1.1Z"/><path id="Tracé_20156" data-name="Tracé 20156" class="cls-1" d="M4.87,11.43a4.58,4.58,0,0,0-3.11-.32l-.05,0C.86,11.62.12,12.82,0,15.45V29.32a.73.73,0,0,0,.73.73.75.75,0,0,0,.36-.1l15.5-9C12,15.7,7.46,12.37,4.87,11.43"/><path id="Tracé_20157" data-name="Tracé 20157" class="cls-1" d="M41.88,11.45,23.29.56,22.9.33h0a2.43,2.43,0,0,0-2.42,0l-.55.32-16.7,9.6L2.1,10.9c2.79-1.06,8,2.8,8,2.8l9.24,6h0l3.11,2a3.07,3.07,0,0,0,3.1.54l16.4-9.55a.74.74,0,0,0,.26-1,1.07,1.07,0,0,0-.26-.26"/><path id="Tracé_20158" data-name="Tracé 20158" class="cls-1" d="M33.42,35.75,23.11,29l-2.88-1.86a3.07,3.07,0,0,0-3.1-.54L.74,36.17a.72.72,0,0,0-.26,1,.65.65,0,0,0,.26.26L19.33,48.32l.39.23h0a2.43,2.43,0,0,0,2.42,0l.55-.31h0l16.7-9.6.87-.53.2-.12c-2.62.85-7.06-2.25-7.06-2.25"/><path id="Tracé_20159" data-name="Tracé 20159" class="cls-1" d="M41.53,18.93,26,27.9a55.43,55.43,0,0,0,7.76,7.24c4.08,3.06,6.28,2.88,7,2.68l.13-.08c.85-.48,1.59-1.68,1.71-4.31V19.57a.73.73,0,0,0-.73-.73.74.74,0,0,0-.36.09"/></svg>