<svg id="Calque_1" data-name="Calque 1" xmlns="http://www.w3.org/2000/svg" viewBox="0 0 86.42 67.62"><defs><style>.cls-1{fill:#959595;}</style></defs><g id="Groupe_4896" data-name="Groupe 4896"><path id="Tracé_13450" data-name="Tracé 13450" class="cls-1" d="M86.42,67.43c-.3.35-.7.08-1,.17a2.31,2.31,0,0,0-1.28-.33q-5.94-.85-11.88-1.67L56.83,63.44,41.62,61.31,25,59,8.29,56.62C5.53,56.23,2.76,55.87,0,55.5v-.17c.37,0,.55-.38.8-.6q8.3-7.44,16.57-14.91c.26-.23.46-.57.91-.62v.66c0,3.34,0,6.68,0,10,0,.66.17.83.81.8a31.05,31.05,0,0,1,3.2,0c.6,0,.78-.14.77-.76,0-2.56,0-5.12,0-7.69,0-.23-.13-.5.16-.76.81,1.73,1.68,3.38,2.36,5.1A2.13,2.13,0,0,0,28,48.15a2,2,0,0,0,2.16-1.4c.7-1.77,1.59-3.46,2.44-5.26a1.4,1.4,0,0,1,.14.92c0,2.51,0,5,0,7.52,0,.53.08.77.7.75q1.73-.07,3.45,0c.54,0,.67-.15.67-.68q0-7.81,0-15.63c0-.58-.2-.66-.7-.65-1.47,0-2.94,0-4.4,0a.89.89,0,0,0-1,.64c-1,2.25-2.06,4.49-3.1,6.74-.12.25-.16.55-.47.75-1.19-2.59-2.37-5.17-3.59-7.74-.23-.48.11-.62.35-.83l27.8-25Q57,4.15,61.53,0c.41-.1.39.27.46.47Q67.93,16.76,73.85,33c.22.61.09.71-.51.7-3.08,0-6.16,0-9.24,0-.5,0-.77,0-.77.67,0,5.21,0,10.42,0,15.63,0,.47.1.66.62.65,1.23,0,2.47,0,3.71,0,.51,0,.62-.17.61-.64,0-1.73,0-3.45,0-5.18,0-.57.16-.74.72-.73,1.64,0,3.29,0,4.93,0,.42,0,.6-.11.66-.55.12-1,.28-1.94.47-2.89.1-.49-.06-.59-.51-.58-1.53,0-3.06,0-4.58,0-1.72,0-1.69,0-1.69-1.71,0-.61.23-.7.75-.69,1.9,0,3.8,0,5.7,0a1,1,0,0,1,1.15.83Q79.4,48.36,83,58.15C84.1,61.24,85.27,64.33,86.42,67.43ZM38.36,50.66h.73c1.41,0,2.82,0,4.23,0,.5,0,.52-.32.64-.64.26-.7.22-1.69.79-2s1.45-.12,2.2-.12,1.79-.25,2.36.13.6,1.37.8,2.11c.12.48.38.55.81.54,1.35,0,2.7,0,4.06,0,.64,0,.78-.1.54-.75q-2.84-7.79-5.59-15.58a.8.8,0,0,0-.93-.63c-1.3,0-2.59,0-3.89,0-.6,0-.83.2-1,.74-1.66,4.71-3.36,9.41-5,14.12a10.83,10.83,0,0,0-.67,2.09Zm18.18-8.43c0,2.56,0,5.13,0,7.69,0,.62.18.79.77.75.78-.05,1.56,0,2.34,0,1.86,0,1.86,0,1.86-1.89,0-4.72,0-9.45,0-14.17,0-.74-.21-.93-.92-.89-1.06,0-2.13,0-3.2,0-.63,0-.89.1-.88.83.06,2.56,0,5.13,0,7.69Z"/><path id="Tracé_13451" data-name="Tracé 13451" class="cls-1" d="M47.1,38.93c.43,1.5.84,3,1.27,4.52.11.38,0,.47-.41.5-2.45.17-2.45.18-1.82-2.15.25-1,.52-1.91.78-2.87Z"/></g></svg>