<svg id="Calque_1" data-name="Calque 1" xmlns="http://www.w3.org/2000/svg" viewBox="0 0 188.87 32.57"><defs><style>.cls-1{fill:#959595;}</style></defs><g id="Groupe_4902" data-name="Groupe 4902"><path id="Tracé_13471" data-name="Tracé 13471" class="cls-1" d="M51.85.89A7.6,7.6,0,0,1,54.33,0c0,.15,0,.3,0,.44-.22,0-.44,0-.65,0A1.18,1.18,0,0,1,53,1V.67h-.09c0,.15,0,.31,0,.46L52.59.85a.43.43,0,0,1-.23.56.27.27,0,0,1-.12,0l-.65-.11-.26.48-.74.24a1.16,1.16,0,0,0,.52.26c0,.06,0,.17,0,.22a1.62,1.62,0,0,1-.81.17c0-.11,0-.33-.06-.44l0-.13a1.28,1.28,0,0,0-1,.39,1.54,1.54,0,0,0-.19-.17l-.13,0a2.76,2.76,0,0,0-1.3.2l.48.14a2.45,2.45,0,0,1-1.26.12c0-.06.13-.15.17-.2s0-.23,0-.34l0-.09a1.36,1.36,0,0,1,.2-.11c0,.15-.19.57.14.44,0,0,.08-.16.1-.22s.16.06.26.08c0-.28.38-.32.63-.28,0-.2.05-.39.07-.58.13.13.09.34.11.5l.11,0v-.3a1.78,1.78,0,0,0,.65-.07l-.13.3.43-.15.16-.33a1.86,1.86,0,0,1,.47,0c0-.05,0-.16-.06-.22l.35.11c0-.07.08-.2.1-.27.24,0,.64-.38.7.05a1.1,1.1,0,0,1,0-.31A4.7,4.7,0,0,0,51.85.89Z"/><path id="Tracé_13472" data-name="Tracé 13472" class="cls-1" d="M48.42,1.2c.49-.11,0,.56-.11.15A.58.58,0,0,0,48.42,1.2Z"/><path id="Tracé_13473" data-name="Tracé 13473" class="cls-1" d="M51.57,1.33l.65.11a6.84,6.84,0,0,1-.72.47,5.54,5.54,0,0,0,.57.07.7.7,0,0,0-.28.52,3.17,3.17,0,0,0-.44,0l-.26-.15a1.5,1.5,0,0,1-.52-.26c.24-.09.5-.16.74-.24A4.74,4.74,0,0,0,51.57,1.33Z"/><path id="Tracé_13474" data-name="Tracé 13474" class="cls-1" d="M54.35,2.13A18.17,18.17,0,0,0,57,1.46c0,.06,0,.17-.06.22-.31.13-.66.2-1,.34a5.83,5.83,0,0,0-1.4.55s0,.13,0,.19l-.17.05a2.47,2.47,0,0,1,0-.39,2,2,0,0,1-.34,0Z"/><path id="Tracé_13475" data-name="Tracé 13475" class="cls-1" d="M52.81,1.87c.11-.11.22-.24.34-.35l.87.42c-.26.2-.67.37-.62.78a3.17,3.17,0,0,0,.49-.4v.25a.32.32,0,0,0-.3.26A2.25,2.25,0,0,0,54,2.7l.28-.13c0,.17,0,.34,0,.48a2.62,2.62,0,0,1-.82.26,6.59,6.59,0,0,1-.87-.24l.06-.35s-.12-.09-.15-.13l.2-.3-.15-.37Z"/><path id="Tracé_13476" data-name="Tracé 13476" class="cls-1" d="M47.35,1.74c.22.06,0,.32-.15.24S47.22,1.69,47.35,1.74Z"/><path id="Tracé_13477" data-name="Tracé 13477" class="cls-1" d="M49.22,2.54a1.28,1.28,0,0,1,1-.39l0,.13c-.57-.09-.74.61-1.26.74-.09-.12-.18-.24-.26-.37a2.72,2.72,0,0,1,.24-.24l.13,0Z"/><path id="Tracé_13478" data-name="Tracé 13478" class="cls-1" d="M55.78,2.39c0-.26.27-.22.44-.15a3.26,3.26,0,0,1,.7-.06c-.24.28-.63.32-.83.61.31,0,.61,0,.92-.07l.24.17c.48-.11.91-.34,1.41-.41-.26.43-.83.46-1.26.65-.3-.11-.61-.2-.91-.3a2.88,2.88,0,0,1-.3.31c0-.07-.09-.22-.13-.3L55.73,3C55.74,2.8,55.76,2.59,55.78,2.39Z"/><path id="Tracé_13479" data-name="Tracé 13479" class="cls-1" d="M46.62,2.48l.45-.15a1.86,1.86,0,0,0,0,.34c0,.05-.13.14-.17.2l-.26,0C46.61,2.78,46.62,2.63,46.62,2.48Z"/><path id="Tracé_13480" data-name="Tracé 13480" class="cls-1" d="M47.63,2.61a2.74,2.74,0,0,1,1.3-.2l-.24.24a4,4,0,0,1,.25.37,6.07,6.07,0,0,1-.59.24l-.11-.43a2.75,2.75,0,0,0,0,.41,1.27,1.27,0,0,0-1.35.28c0-.13,0-.28,0-.41q-.48.14-.93.3A.4.4,0,0,0,45.89,3c.15-.11.3-.24.46-.35a.53.53,0,0,1,0,.35,1,1,0,0,0,.24,0l.26-.05a2.46,2.46,0,0,0,1.26-.12Z"/><path id="Tracé_13481" data-name="Tracé 13481" class="cls-1" d="M49,3c.52-.13.69-.84,1.26-.74,0,.11,0,.33.06.44a1.61,1.61,0,0,0,.81-.16l.28-.08a3.17,3.17,0,0,1,.44,0,.45.45,0,0,1,.11.13l.54-.06.15.13-.06.36c-.53,0-1.4.07-1.42.77-.13,0-.26,0-.37,0a1.37,1.37,0,0,1,.16.18v.36l-.39,0-.27.37c-.2-.3-.37-.7-.76-.76-.19-.06-.32.13-.43.22l-.37.15-.33.15c0,.07,0,.18,0,.26v.11c0,.11.09.31.13.4l-.15.26a5.61,5.61,0,0,0-.59.13l-.11,0-.33,0L47.05,6,46.81,6c-.2.06-.38.13-.59.18-.11.2-.22.41-.35.62a1.7,1.7,0,0,0-1,.59,3.19,3.19,0,0,0-.37.13l-.2-.19a1.46,1.46,0,0,1-1.17-.2c0,.13,0,.26,0,.41a.72.72,0,0,1-.2-.09c0-.09-.06-.19-.08-.28l-.33.11c0,.15.09.3.13.44l-.63.11c-.22.36-.39.75-.57,1.12s-.41.09-.6.11a1.64,1.64,0,0,0-.66,1l-.8-.08c-.2.65-1,.73-1.43,1.17-.05-.11-.09-.24-.15-.35l-.44.28.39.07c0,.19-.06.39-.1.58a4.13,4.13,0,0,0-.83.24,7.86,7.86,0,0,1-.57-.58c-.17.35-.47.74-.15,1.09,0,.1-.06.19-.07.26-.06-.09-.15-.26-.2-.33l-.23.26.24.24a1.22,1.22,0,0,1-1.16,0,3.24,3.24,0,0,0-.17-.32c-.52.3-.8.85-1.33,1.11s-1.37.56-1.63,1.28a6,6,0,0,0,.63.09c-.1.13-.2.26-.3.37a7.77,7.77,0,0,0-.08,1c.2-.06.47-.1.58-.32a2.07,2.07,0,0,1,.74-.67c0,.13,0,.26,0,.41l-.43.08c-.27.38-.52.81-.81,1.2,0-.17,0-.34,0-.5-.19-.13-.38-.23-.56-.34a.82.82,0,0,1,0-.22,1.41,1.41,0,0,0-1.1-.15l.17.23a5,5,0,0,0-.54.07c0,.06,0,.17,0,.24s.18.07.24.11,0,.12.07.19c.22-.12.46-.23.69-.34,0,.22,0,.45,0,.67a4.93,4.93,0,0,1-1.14.31l.22.28c-.52.06-.87.46-1.37.54a7.11,7.11,0,0,0-1.41.48,2,2,0,0,0,.32.2c-.13,0-.26.06-.39.07.15.11.31.2.46.32-.07.18-.07.44-.22.59a1.47,1.47,0,0,1-.93-.41l.76.13c-.24-.4,0-.87,0-1.31-.13.09-.26.2-.39.31l-.24.11c0,.1-.09.17-.13.26l-.2.08a1.61,1.61,0,0,1-.15.81,2.74,2.74,0,0,1,.39-.09l-.15.17a5,5,0,0,0-.64.26l-.54-.13a1.36,1.36,0,0,1,.13-.3,1,1,0,0,0-.09-.15l.26-.17-.06-.33.17-.24-.13-.08c0-.11.05-.2.09-.31v0a1.84,1.84,0,0,0,0-1.09c-.12-.3.09-.54.22-.8-.08-.2-.13-.39-.2-.59-.39.24-.74.64-1.24.61a2.22,2.22,0,0,1,.39-.12A4.54,4.54,0,0,1,24.4,16c.22-.37.68-.3,1-.18a1.28,1.28,0,0,1,.11-.2,3.39,3.39,0,0,1-.46-.72l-.28-.19.39-.06a1,1,0,0,1,.6.3,3.08,3.08,0,0,1,.2,1.08l.16-.11.19-.24.16-.08c0-.1.08-.21.13-.31l.43-.06a25.65,25.65,0,0,1,2.13-1.89c.46-.53,1.17-.8,1.65-1.31a1.15,1.15,0,0,0,0,.26s0,.15-.05.18a.77.77,0,0,1-.45.5l-.39.23a2.91,2.91,0,0,1,.17.3l.35-.23c.2,0,.39.1.6.13a2.23,2.23,0,0,0,.81-1,1.39,1.39,0,0,0,.15.19,2.73,2.73,0,0,1,.81-.5c.23-.41.47-.89,1-.93.08.15.13.28.2.41l.2-.11c0-.18,0-.36,0-.54l.22-.26a1.46,1.46,0,0,0-.05-.2l-.15-.24c-.2-.13-.44,0-.67,0l-.16-.2.8-.3a3.22,3.22,0,0,0-.24.28l.83-.2-.22-.35a1.41,1.41,0,0,1,.66-.2c.06-.13.12-.25.17-.38l.15.32a1,1,0,0,1,0,.18l-.35.24c0,.19.06.39.08.58s.24.13.37.18a.63.63,0,0,0,0,.24c.14.08.27.23.44.19s.26-.3.37-.44c.3,0,.44-.2.57-.45-.14.08-.3.15-.44.24.06-.15,0-.44.22-.46a1.7,1.7,0,0,1,.76.24l-.28-.52.7,0c-.27-.17-.61-.32-.74-.63.2-.17.5-.06.74-.06A1,1,0,0,0,38,8.1a1.27,1.27,0,0,1,1.43.09,2.09,2.09,0,0,1,.2-.22l.35.17a5.69,5.69,0,0,1,.26-.56l.24-.11V7.21l.5,0a2.1,2.1,0,0,0,.31,1c.1-.14.17-.3.26-.44l.26.17.06-.36a4.22,4.22,0,0,1-.45-.18,1,1,0,0,1,.78-.83c-.06-.08-.13-.16-.18-.24l.48,0,.22-.67A1,1,0,0,0,42,6l-.33-.17.43-.5c-.28.1-.56.21-.83.33a1.09,1.09,0,0,1,0-.26l.09-.07a1.21,1.21,0,0,1,.83-.3,1.81,1.81,0,0,1-.4,0,2.2,2.2,0,0,1,.18-.28,1.88,1.88,0,0,0,.24-.25v.37a2.48,2.48,0,0,0,.8-.34V4.37c.24.12.76.1.56-.31a.18.18,0,0,0-.25,0h0a1.55,1.55,0,0,1,.55-.44l0,0-.17.1,0,.14c.2.3.39-.05.56-.14v.31l-.55.07s0,.08,0,.1a2.87,2.87,0,0,0,1.64-.58l.23-.37a.34.34,0,0,0-.43.2h0c0-.09,0-.26,0-.35l.33.09.35.13c0,.16,0,.32.08.48a1.06,1.06,0,0,0,.22-.48,1.28,1.28,0,0,0,.63-.18l.13.4A1.59,1.59,0,0,1,47,3.44a1.34,1.34,0,0,1,1.35-.27,1.85,1.85,0,0,0,0-.41l.12.43A1.53,1.53,0,0,0,49,3Z"/><path id="Tracé_13482" data-name="Tracé 13482" class="cls-1" d="M50.63,2.35c.18-.11.24.2.07.24S50.44,2.39,50.63,2.35Z"/><path id="Tracé_13483" data-name="Tracé 13483" class="cls-1" d="M51.09,2.33l.26.15-.28.08C51.07,2.5,51.09,2.39,51.09,2.33Z"/><path id="Tracé_13484" data-name="Tracé 13484" class="cls-1" d="M54.05,2.41a1.32,1.32,0,0,1,.34,0,2.34,2.34,0,0,1,0,.38l.17-.05a1.78,1.78,0,0,0,.57-.32.58.58,0,0,0,.61,0c0,.2,0,.4,0,.59l.33-.11c0,.07.09.22.13.3.09-.11.19-.2.3-.32.32.1.61.19.91.3a6.18,6.18,0,0,0-1.33.54,2.26,2.26,0,0,0,.11.43H55.8A5.58,5.58,0,0,1,55.65,3c-.06,0-.17-.09-.22-.13a2.44,2.44,0,0,1,0,.81L55,3.56a2.19,2.19,0,0,1-.88.06c0,.11,0,.22,0,.33a.48.48,0,0,1-.2,0c0-.14-.09-.3-.15-.46,0,.08-.09.22-.13.3h-.31c.09.15.17.32.26.47l-.26,0c0,.24,0,.5,0,.74-.15,0-.3-.09-.44-.15-.19.11-.37.24-.58.36-.24,0-.48-.1-.72-.13l-.15.22-.63.2a1.41,1.41,0,0,1,0,1.22,2.39,2.39,0,0,1,1-.07c-.42.16-.89.46-1.37.26a2.6,2.6,0,0,1,0,.26A1.55,1.55,0,0,0,50,6.7a3,3,0,0,0,.34,1.14l-.56-.31c0,.15-.11.28-.16.43l-.06-.47-.2.15c-.09-.09-.17-.2-.26-.3-.13.32-.24.63-.35.95L48.53,8a2,2,0,0,0-1.13.48l.17.3.68.17a1.28,1.28,0,0,0-1,.41,1.28,1.28,0,0,1-.11.24l-.83-.13a7,7,0,0,0,1-1c-.15-.07-.28-.16-.43-.24-.39.37-.66.84-1,1.23l.31,0c0,.16-.09.33-.13.48a3.11,3.11,0,0,0-.3-.35A5.8,5.8,0,0,0,45,9.7c.37-.36.76-.69,1.12-1a9.69,9.69,0,0,0,1.24-1.08c-.06.2-.11.39-.17.6l.55,0,0-.67.17.24A11.56,11.56,0,0,0,49.3,6.62a1.14,1.14,0,0,1,0-.26l.22-.15h0L50,5.83l.34.11c0-.11-.06-.24-.08-.36.2-.13.43-.26.49-.51a4.17,4.17,0,0,1-.86.3,1.17,1.17,0,0,0-1-.6c.2.17.41.32.61.47a2.42,2.42,0,0,1-.13.53.69.69,0,0,0-.13.11l.06-.16-.65,0v.34c-.41.24-.82.46-1.19.72,0,0,0,.15,0,.2a4.49,4.49,0,0,1-.92.76c-.26.22-.5.46-.76.7l-.45-.06c-.11.28-.5.48-.68.15,0,.22-.17.37-.28.54h.15a2.84,2.84,0,0,0-.24.26h.28a7,7,0,0,0-.93,1c0-.17-.22-.32-.37-.2s.08.33.22.35a3.12,3.12,0,0,0-.27.43c-.65-.2-1.06.39-1.56.66a9.86,9.86,0,0,1,.91-1,2.11,2.11,0,0,0,0-.26,2,2,0,0,0,.7-.76l.17-.11c.22-.28.4-.56.61-.84l.66-.05a2.83,2.83,0,0,1-.2-.28,3,3,0,0,1,.41-.09l-.37-.45.09,0c.13-.06.26-.09.37-.13V8c.39-.2.5-.68.91-.87a3,3,0,0,0,.56-.37.45.45,0,0,0-.17-.43c.2,0,.39-.13.59-.18l-.26.46.35-.17a.83.83,0,0,1,.34-.4,1.53,1.53,0,0,0,0-.3,1.87,1.87,0,0,1,.34,0c-.06.13-.09.24-.15.37a2.49,2.49,0,0,0,.28.15c0-.18,0-.37,0-.55a4.16,4.16,0,0,1,.59-.13l.15-.26c0-.11-.09-.32-.13-.41a4.86,4.86,0,0,1,.54-.33,1.54,1.54,0,0,1-.17-.19c.12-.06.24-.1.37-.15s.24-.27.43-.22c.39.06.55.46.76.76.09-.13.18-.26.27-.37l.39,0V4.12a1.4,1.4,0,0,0,1-.48c-.28.07-.47.35-.76.33,0-.7.89-.8,1.42-.78a4.5,4.5,0,0,0,.87.24,2.13,2.13,0,0,0,.82-.26c0-.17,0-.33.05-.48L54,2.82A2.71,2.71,0,0,1,54.05,2.41Z"/><path id="Tracé_13485" data-name="Tracé 13485" class="cls-1" d="M48.31,2.7c0-.16.13-.2.28-.11C48.57,2.76,48.48,2.8,48.31,2.7Z"/><path id="Tracé_13486" data-name="Tracé 13486" class="cls-1" d="M50.55,3a2.57,2.57,0,0,1,.65-.2c-.11.26-.15.61-.48.66-.07,0-.24-.13-.33-.16S50.5,3.12,50.55,3Z"/><path id="Tracé_13487" data-name="Tracé 13487" class="cls-1" d="M55.39,2.81a1.59,1.59,0,0,0,.22.13,7.39,7.39,0,0,0,.15,1.15h.39c.22,0,.51.06.66-.18,0,.07-.05.2-.07.26a6,6,0,0,0-.93.65l-.3,0c-.16.28-.5.35-.77.48A6,6,0,0,0,53.51,6a1.09,1.09,0,0,0,.61.13,2.59,2.59,0,0,1-.61.48c-.42,0-.76.32-1.07.56l-.24-.11a.5.5,0,0,1-.46.37L52,7.6l-.19.11a.61.61,0,0,0-.42-.19c-.17-.22-.41.06-.13.17l-.13,0a4.93,4.93,0,0,0-1.2.31c0,.26-.06.54-.1.8v0l-.35.09c.08-.09.22-.28.32-.37h-.56c0,.28-.31.39-.5.54s-.57.41-.85.63c0-.13-.22-.3-.32-.11a2.9,2.9,0,0,0-.25.57l.33,0c0,.11-.06.2-.08.31a1.45,1.45,0,0,0-.09-.25l-.24.09v-.2h-.16c0,.44-.54.63-.45,1.07.19-.11.52-.07.56-.35l.2.07c0-.07.07-.22.09-.3H48a2.6,2.6,0,0,0,.2-.3l.07.2c-.15.1-.3.17-.44.26s-.13.15-.17.2l-.3,0-.5.27c-.07.13-.17.24-.24.37l-.31-.07c0-.2.09-.43.13-.63a.74.74,0,0,0-.65.54c0-.06,0-.17,0-.22-.26.2-.54.38-.82.57l-.14-.22c0,.09,0,.26,0,.35l.59-.13h.34v.24a3.81,3.81,0,0,0-.85.44,3.55,3.55,0,0,1,0-.46l-.2.15-.16.46-.63,0a2.05,2.05,0,0,1-.61.6l-.26-.08c.27-.26.07-.7.42-.92,0,.09,0,.27,0,.37a.75.75,0,0,0,.41-.24c.16,0,.39.18.52,0a2,2,0,0,0,.05-.54c.06-.09.13-.19.19-.3s.2-.08.26-.09a2.09,2.09,0,0,1,.22-.2,1.4,1.4,0,0,0,.63-1,2.85,2.85,0,0,1-.48-.13,1.73,1.73,0,0,0,0,.32l-.2-.06c0-.28-.35-.3-.33,0a4,4,0,0,1-.41-.22,3.35,3.35,0,0,0,.67-.52l.67-.14a3.11,3.11,0,0,0,.3.35c0-.17.09-.33.13-.48h.14c.28,0,.56.09.84.13a1.66,1.66,0,0,1,.11-.24,1.2,1.2,0,0,1,1-.41,4.83,4.83,0,0,0-.32.59,1.76,1.76,0,0,0,.63-.52l-.31-.07-.69-.17a2.85,2.85,0,0,1-.16-.3,2.13,2.13,0,0,1,1.12-.48c.08.11.13.22.2.33.12-.31.23-.62.36-.94a3.48,3.48,0,0,0,.26.3.75.75,0,0,1,.2-.15c0,.15,0,.32,0,.46l.17-.42.55.31A3,3,0,0,1,50,6.63a1.38,1.38,0,0,1,.35.48c0-.09,0-.17,0-.26a1.92,1.92,0,0,0,1.37-.26,2.82,2.82,0,0,0-1,.07,1.32,1.32,0,0,0,0-1.22l.63-.2L51.59,5l.72.13c.18-.11.37-.24.57-.35l.45.14c0-.24,0-.5,0-.74l.26,0c-.09-.15-.16-.32-.26-.46h.32a2.71,2.71,0,0,1,.13-.3c0,.14.09.3.15.46a.51.51,0,0,1,.2,0c0-.12,0-.23,0-.34a2.42,2.42,0,0,0,.89,0l.44.11A7.18,7.18,0,0,0,55.39,2.81Z"/><path id="Tracé_13489" data-name="Tracé 13489" class="cls-1" d="M51.91,3.5a.65.65,0,0,1,.87-.26.69.69,0,0,1-.1.19Z"/><path id="Tracé_13490" data-name="Tracé 13490" class="cls-1" d="M44.33,3.44a.82.82,0,0,1,.45.43V3.56a3.38,3.38,0,0,1,.44.18,2.81,2.81,0,0,1-1.65.57s0-.07,0-.09a5.35,5.35,0,0,1,.56-.07V4.06A1.14,1.14,0,0,0,44.33,3.44Z"/><path id="Tracé_13491" data-name="Tracé 13491" class="cls-1" d="M51.11,3.85c.3,0,.48-.26.76-.33a1.31,1.31,0,0,1-1,.48,1.46,1.46,0,0,0-.16-.19Z"/><path id="Tracé_13492" data-name="Tracé 13492" class="cls-1" d="M42.7,4.33s.11-.13.15-.16v.42l-.41-.09.06.28-.37,0C42.05,4.41,42.44,4.33,42.7,4.33Z"/><path id="Tracé_13493" data-name="Tracé 13493" class="cls-1" d="M49.78,4.31c.18,0,.07.32-.08.32S49.65,4.31,49.78,4.31Z"/><path id="Tracé_13494" data-name="Tracé 13494" class="cls-1" d="M48.35,4.5l.33-.15a1.54,1.54,0,0,1,.17.19l-.54.33V4.76A2.34,2.34,0,0,0,48.35,4.5Z"/><path id="Tracé_13495" data-name="Tracé 13495" class="cls-1" d="M41.07,5.2c0-.31.5-.37.76-.4a2.61,2.61,0,0,1-.19.27l.41,0a1.27,1.27,0,0,0-.83.3A.8.8,0,0,0,41.07,5.2Z"/><path id="Tracé_13496" data-name="Tracé 13496" class="cls-1" d="M47.18,4.87c.09-.13.47-.07.32.13S47,5.07,47.18,4.87Z"/><path id="Tracé_13497" data-name="Tracé 13497" class="cls-1" d="M48.81,4.72a1.14,1.14,0,0,1,1.06.6,3.43,3.43,0,0,0-.58.42,2.37,2.37,0,0,0,.13-.54C49.24,5,49,4.89,48.81,4.72Z"/><path id="Tracé_13498" data-name="Tracé 13498" class="cls-1" d="M48.53,4.94c.17,0,.19.12.08.28C48.46,5.18,48.42,5.09,48.53,4.94Z"/><path id="Tracé_13499" data-name="Tracé 13499" class="cls-1" d="M49.89,5.31a3.31,3.31,0,0,0,.85-.3c0,.26-.28.39-.48.52,0,.11.05.24.07.35L50,5.77c-.15.13-.3.24-.43.37l0,0-.23.15a1.13,1.13,0,0,1,0,.26,9,9,0,0,1-1.43,1.11l-.17-.24.06.67H47.2c.06-.2.1-.38.17-.59a10.66,10.66,0,0,1-1.24,1.08c-.35.35-.74.68-1.11,1a3.35,3.35,0,0,1-.67.52l-.11.45a3.23,3.23,0,0,0-1,1.09c-.09.22-.35.22-.56.3,0-.09,0-.28,0-.37a2.06,2.06,0,0,1,.13-.69l.33-.09a2.87,2.87,0,0,1,.28-.43.86.86,0,0,0,.13-.14c.29-.34.6-.66.92-1a3,3,0,0,0,.69-.59l-.56,0,.32.17a3.22,3.22,0,0,0-.61.16.92.92,0,0,0,.28-.53c.18.33.59.11.68-.15l.44,0c.24-.24.5-.48.76-.7A4.24,4.24,0,0,0,47.37,7a12.94,12.94,0,0,0,1.8-1.13.45.45,0,0,0,.13-.11C49.49,5.59,49.68,5.45,49.89,5.31Z"/><path id="Tracé_13500" data-name="Tracé 13500" class="cls-1" d="M40.53,5.48c0-.31.34-.24.56-.28a.81.81,0,0,0,.18.19.22.22,0,0,1-.09.07,4,4,0,0,0-.94,1c-.22-.08-.5-.19-.7,0a2.62,2.62,0,0,1-1.34.64c-.4.56-1.13.63-1.66,1l-.19-.26.41-.27c.55-.26,1-.69,1.55-1a13.28,13.28,0,0,1,1.6-.92c.09.11.2.2.3.31-.1-.13-.17-.24-.26-.37A.61.61,0,0,1,40.53,5.48Z"/><path id="Tracé_13501" data-name="Tracé 13501" class="cls-1" d="M48.05,5.28c.43-.09,0,.5-.13.15C48,5.37,48,5.32,48.05,5.28Z"/><path id="Tracé_13502" data-name="Tracé 13502" class="cls-1" d="M41.22,5.74c.28-.11.55-.24.83-.33-.15.16-.28.33-.42.5l.33.16a1,1,0,0,1,.78-.46l-.22.67a4,4,0,0,0-.49,0,2.35,2.35,0,0,1,.19.25,1,1,0,0,0-.78.83,4.22,4.22,0,0,1,.45.18c0,.11,0,.24-.06.36l-.26-.17c-.09.15-.16.3-.26.44a2.1,2.1,0,0,1-.31-1,4.21,4.21,0,0,1-.5,0v.26a1.33,1.33,0,0,0-.24.11c-.1.18-.17.37-.26.56L39.65,8c-.08.07-.13.15-.2.22A1.27,1.27,0,0,0,38,8.15a1,1,0,0,1,.09.72c-.24,0-.52-.09-.74.06.13.31.46.46.74.63-.24,0-.48,0-.7,0,.09.17.19.33.28.52a1.83,1.83,0,0,0-.76-.24c-.22,0-.16.31-.22.46.15-.07.3-.17.44-.24a.62.62,0,0,1-.57.44c-.09.17-.13.43-.37.45s-.3-.13-.44-.19,0-.16,0-.24-.24-.13-.37-.18l.27-.24.56-.15c0-.09,0-.3,0-.41h-.46a1.36,1.36,0,0,1-.11-.2c-.06-.11-.1-.2-.15-.31.3-.28.68-.43.91-.78a1.7,1.7,0,0,0,0-.22s0-.11,0-.15a2.48,2.48,0,0,1,.19.26c.53-.39,1.27-.44,1.66-1a2.52,2.52,0,0,0,1.34-.65c.2-.18.46-.07.7,0a4.41,4.41,0,0,1,.94-.94A1,1,0,0,1,41.22,5.74Z"/><path id="Tracé_13503" data-name="Tracé 13503" class="cls-1" d="M14.53,5.89a6.77,6.77,0,0,0,1.35-.11,1.26,1.26,0,0,1,.91.15c.2.09.44.16.65.25l.15.08c-.69,0-1.39,0-2.08,0,.33,0,.65-.09,1-.16-.2-.19-.48-.09-.72-.08-.43.08-.85,0-1.28,0A.57.57,0,0,1,14.53,5.89Z"/><path id="Tracé_13504" data-name="Tracé 13504" class="cls-1" d="M47.05,6l.23-.33a1,1,0,0,0,0,.3.83.83,0,0,0-.33.41l-.36.17c.1-.17.17-.32.26-.47A1.69,1.69,0,0,0,47.05,6Z"/><path id="Tracé_13505" data-name="Tracé 13505" class="cls-1" d="M47.61,5.7l.11,0c0,.18,0,.37,0,.55l-.28-.15A2.87,2.87,0,0,1,47.61,5.7Z"/><path id="Tracé_13506" data-name="Tracé 13506" class="cls-1" d="M48.59,5.72l.65,0-.06.16A14,14,0,0,1,47.38,7s0-.15,0-.2c.39-.26.8-.48,1.18-.72Z"/><path id="Tracé_13507" data-name="Tracé 13507" class="cls-1" d="M16.79,5.93A3.23,3.23,0,0,1,18,6c.37,0,.78.06,1,.45-.3,0-.59.09-.88.14,0-.09.05-.2.07-.3a.31.31,0,0,1-.07-.09c-.15.13-.32.22-.5.09l-.15-.07C17.22,6.09,17,6,16.79,5.93Z"/><path id="Tracé_13508" data-name="Tracé 13508" class="cls-1" d="M18.07,6.18l.07.1c0,.09-.05.2-.07.3a1.94,1.94,0,0,0-.07.33c.14.06.3.09.42.15A3.2,3.2,0,0,0,19,8.6l-.63.4a4.86,4.86,0,0,1,.68.82,1.85,1.85,0,0,0,.06,1.09A1.89,1.89,0,0,1,19,12.06l-.57.11c.09.09.16.2.26.3-.11.2-.2.41-.32.61l.15.17-.43.83-.16.06a2.58,2.58,0,0,0,0-.39,1.36,1.36,0,0,0-.3-.13,2.39,2.39,0,0,1-1.09.18,3.86,3.86,0,0,1-1,.22,5.12,5.12,0,0,1-1.44.39l-.15.23h-.46c-.35.18-.65.44-1,.63a8.49,8.49,0,0,0-1.34.61c-.27.2-.64.2-.92.4a5.4,5.4,0,0,1-1.2.76,12.19,12.19,0,0,0-1.28.7c-.41.13-.82.29-1.22.46l-.17-.27a1.7,1.7,0,0,1,.93-.52l.09-.17A2.13,2.13,0,0,0,8,17a4.05,4.05,0,0,0,.12-.5l.13.06a3.7,3.7,0,0,0,.48.09l.07-.22a3.74,3.74,0,0,1,1.57-.58c.06-.16.1-.33.15-.5a2.61,2.61,0,0,0,.3.2c.06-.16.11-.35.17-.51s.24-.19.35-.28a3.81,3.81,0,0,0-.07-.47l.11,0c.07.15.13.32.2.46.54-.11.92-.63,1.5-.51a4.69,4.69,0,0,1,1.87-.71,1.87,1.87,0,0,1,.7.08,3.11,3.11,0,0,0,.61-1.15c.17-.61.7-1,1-1.57-.24-.19-.48-.35-.74-.52l.43-.22a1.37,1.37,0,0,0-.59-.48,1.87,1.87,0,0,1,.77-.89,1.76,1.76,0,0,0-.14-1,2.53,2.53,0,0,1,.13-.22c-.26-.15-.78-.41-.49-.76l-.14-.15a3.45,3.45,0,0,0-1.56.2A7,7,0,0,0,12.12,8L11.6,8c.11.17.2.33.32.5a2.36,2.36,0,0,0,.37,0c-.15.23-.28.45-.43.69H11.6c0,.09,0,.18,0,.3h-.37a4.4,4.4,0,0,1-.57,1.07l0,0h-.39c-.07.15-.13.3-.2.43H9.55c-.05.13-.11.24-.16.37l-.43,0c-.19.18-.39.44-.69.31a1.43,1.43,0,0,1-1.5-.52,1.29,1.29,0,0,0,.75-.66c-.67.31-1.32.66-2,.94,0-.35.42-.41.66-.57A34.32,34.32,0,0,1,9.79,8.34a2.66,2.66,0,0,0,1-.45,8.33,8.33,0,0,1,1.56-.83l-.08-.2A1.58,1.58,0,0,0,12,6.81a.17.17,0,0,1,0-.1.6.6,0,0,0,.19.06c0,.07.11.2.15.28l.3-.17c.3,0,.57-.2.87-.28.63-.18,1.31-.18,2-.35s1.39,0,2.07-.06C17.76,6.41,17.92,6.32,18.07,6.18Z"/><path id="Tracé_13509" data-name="Tracé 13509" class="cls-1" d="M49.53,6.17l0,0Z"/><path id="Tracé_13511" data-name="Tracé 13511" class="cls-1" d="M18.94,6.43A6.83,6.83,0,0,1,20.52,7a1.58,1.58,0,0,1,.5.39l-.76.28c.22.08.43.16.65.26a1.18,1.18,0,0,1-.75-.17l.12-.5c-.2.08-.39.13-.58.2l.37-.33c-.22-.11-.44-.22-.65-.35,0,.15,0,.29,0,.44-.11-.15-.09-.5-.33-.5s-.31.35-.31.56c.09.37.52.61.46,1l.2.17c-.15.32-.3.63-.44,1l.22.28c.05.43.24.84.31,1.26l.43.11-.15.19a2.74,2.74,0,0,1-.39.09,1.93,1.93,0,0,1-.33,1.07,6.81,6.81,0,0,1,.42.56l-.59.42c0,.12,0,.2,0,.32l-.44.5a1.55,1.55,0,0,0-.73.35l.06-.39.15,0,.16-.06.43-.83-.15-.17c.11-.2.2-.41.32-.61l-.26-.3.57-.11a1.89,1.89,0,0,0,.06-1.15,2,2,0,0,1-.06-1.09A4.12,4.12,0,0,0,18.37,9c.2-.14.42-.27.63-.4a3,3,0,0,1-.56-1.54C18.29,7,18.14,7,18,6.9s.06-.22.08-.33C18.37,6.52,18.65,6.46,18.94,6.43Z"/><path id="Tracé_13513" data-name="Tracé 13513" class="cls-1" d="M45.89,6.87c.11-.2.22-.41.35-.61a.42.42,0,0,1,.16.43,2.65,2.65,0,0,1-.55.37c-.41.18-.52.66-.91.87V7.46A1.7,1.7,0,0,1,45.89,6.87Z"/><path id="Tracé_13515" data-name="Tracé 13515" class="cls-1" d="M14.83,6.91a3.32,3.32,0,0,1,1.56-.2l.14.14c-.3.36.25.62.49.76,0,.08-.1.15-.13.23a1.91,1.91,0,0,1,.14,1,2,2,0,0,0-.77.89,1.38,1.38,0,0,1,.59.48l-.43.23.74.51c-.24.58-.8,1-1,1.58a3.19,3.19,0,0,1-.61,1.15,1.87,1.87,0,0,0-.7-.08,5.72,5.72,0,0,0-1.87.7c-.57-.11-1,.41-1.5.52a3.76,3.76,0,0,0-.2-.46,1.7,1.7,0,0,0,.31.06c0-.15,0-.3,0-.45a3.39,3.39,0,0,1,.39-.18l-.46-.17.35-.46c.18.13.37.24.56.37,0-.13,0-.26,0-.37.13.05.26.11.37.14.24-.18.46,0,.65.13l.37-.11a.69.69,0,0,0,.05.13,1.41,1.41,0,0,1,.52-.22c0-.07,0-.19.06-.26.24,0,.46,0,.7,0a1.43,1.43,0,0,0,0-1.39l-.35.17c.09-.34.22-.69.33-1a4,4,0,0,0-.32-.26c.12-.06.23-.09.34-.15a5.29,5.29,0,0,1,.4-.74c0-.13-.13-.26-.07-.41s.41-.24.61-.31c0-.22,0-.45,0-.65-.22-.11-.53-.15-.57-.45h.37a1.43,1.43,0,0,1,0-.22l-.48.11c0-.09,0-.3,0-.38l.48-.1s-.07-.13-.11-.18a2.15,2.15,0,0,1-1,.07c0,.15,0,.28,0,.43-.3-.26-.6,0-.86.2.08.13.13.24.2.37a3.49,3.49,0,0,0-.44-.2L13.46,8c0-.07-.09-.2-.13-.28a2.37,2.37,0,0,0-.61.37,1.24,1.24,0,0,0,0,.47c-.13.11-.26.2-.41.31,0,.09,0,.19,0,.28l-.22.28a.71.71,0,0,1,.35.24,4.63,4.63,0,0,1-.31.46l-.3-.17c0,.13,0,.26,0,.39l-.28.19a1,1,0,0,0-1.17,0A4.82,4.82,0,0,0,11,9.54h.37c0-.09,0-.19,0-.3h.26a8,8,0,0,0,.43-.69l-.37,0c-.11-.16-.2-.33-.32-.5l.52,0A8.71,8.71,0,0,1,14.83,6.91Z"/><path id="Tracé_13516" data-name="Tracé 13516" class="cls-1" d="M18.74,7.26c0-.2,0-.61.31-.56s.23.36.34.5c0-.14,0-.3,0-.44.22.11.43.22.64.35l-.37.34c.19-.08.39-.13.58-.21l-.11.5a1,1,0,0,0,.74.17l-.65-.26L21,7.38l.07,0c.32.35.76.55,1,1v.07c-.09.28.13.48.3.69,0-.08.06-.2.08-.26l.2.31.33-.05a4.51,4.51,0,0,0,.87,1.44,10.39,10.39,0,0,1-.07-1.37,2.7,2.7,0,0,1-.37-.74l.39.44a.78.78,0,0,1,.07.6.89.89,0,0,1,.37.64L23.87,10a2.65,2.65,0,0,0,.33.65,2.64,2.64,0,0,0-.07.3,1.92,1.92,0,0,1,.31.11c-.11.06-.22.09-.31.15l-.08.22.39.06a1.13,1.13,0,0,1-.59.2l-.17.33-.28.06a1,1,0,0,1,0,.18h.33a3.11,3.11,0,0,0,0,.32l.52.22q-.07.33-.18.66l.33.06a.83.83,0,0,0,.44.63l-.2.31a4.72,4.72,0,0,0,1-.12,2.44,2.44,0,0,1,.25.7,1,1,0,0,0-.6-.3l-.37-.08-.16.17c-.58-.06-1.06.28-1.62.35a1.9,1.9,0,0,0-.61.2,1.31,1.31,0,0,1,0,.28c-.54.11-.8.65-1.28.87s-.84.22-1.15.54l.43.33a6.86,6.86,0,0,1-1.34.31,2.14,2.14,0,0,0,.32.2v.3c-.24-.13-.5-.26-.73-.4,0-.28-.14-.58,0-.84-.28-.09-.69-.18-.84.17a1.7,1.7,0,0,1-1.07.74,4.67,4.67,0,0,0-.08-.52v0a.75.75,0,0,1,.16-.15,4.68,4.68,0,0,1,.54-1.63,4.42,4.42,0,0,1,.41-1,1.64,1.64,0,0,1,.72-.36l.44-.5c0-.11,0-.2,0-.31A5.9,5.9,0,0,0,19.5,13c-.15-.18-.3-.37-.43-.55a1.74,1.74,0,0,0,.34-1.08,2.34,2.34,0,0,1,.38-.09s.12-.13.15-.18L19.52,11a9.7,9.7,0,0,1-.32-1.26L19,9.44l.44-1-.2-.17C19.26,7.87,18.83,7.63,18.74,7.26Z"/><path id="Tracé_13517" data-name="Tracé 13517" class="cls-1" d="M10.57,7.22c.06-.13.09-.28.15-.4l.37.16a4.17,4.17,0,0,0,0,.5l-.48,0,0-.15a.3.3,0,0,0,.33-.24Z"/><path id="Tracé_13519" data-name="Tracé 13519" class="cls-1" d="M14.85,7.15a2.16,2.16,0,0,0,1-.08l.11.19c-.17,0-.34,0-.48.09s0,.3,0,.39L16,7.63a1.43,1.43,0,0,1,0,.22h-.38c0,.3.36.33.58.44,0,.23,0,.45,0,.65-.22.08-.54,0-.61.32s0,.26.07.4a4.48,4.48,0,0,0-.41.74l-.33.15.31.26c-.11.33-.24.67-.33,1l.35-.17a1.43,1.43,0,0,1,0,1.39l-.7,0c0,.07,0,.2-.05.25a1.62,1.62,0,0,0-.52.23s0-.1-.06-.13l-.37.11c-.18-.19-.41-.32-.65-.13l-.37-.15c0,.13,0,.26,0,.37L12,13.2l-.36.46.47.17c-.13.05-.26.13-.39.18s0,.3,0,.45a1.65,1.65,0,0,0-.32-.06l-.11,0a.35.35,0,0,0-.14-.06,6.47,6.47,0,0,1-.15-.74l.66-.11a2.06,2.06,0,0,1-.59-.72c.37.11.76.27,1.11,0l.73.36.44-.1a2,2,0,0,1-.26-.24,2.17,2.17,0,0,0-.28-.81c-.09.11-.2.22-.3.35L12.11,12c-.13.11-.26.24-.37.35a1.38,1.38,0,0,1,.14.24l-.4.07-.13-.18.3-.35a3.27,3.27,0,0,0-.69-.65,5.9,5.9,0,0,0-.59-.06l.31-.07c0-.15,0-.3,0-.45.14.11.3.2.46.32,0-.2,0-.41,0-.61h-.52l0,0a1,1,0,0,1,1.16-.06,1.67,1.67,0,0,0,.28-.18c0-.13,0-.26,0-.39l.3.17a3.88,3.88,0,0,0,.32-.47,1.21,1.21,0,0,0-.35-.24l.22-.27c0-.1,0-.19,0-.28s.26-.2.41-.32a1.77,1.77,0,0,1,0-.46,2.12,2.12,0,0,1,.61-.37c0,.07.09.2.13.28a1.19,1.19,0,0,1,.15-.09l.44.2-.2-.37c.24-.17.56-.45.85-.2C14.81,7.43,14.83,7.3,14.85,7.15Z"/><path id="Tracé_13521" data-name="Tracé 13521" class="cls-1" d="M9.13,7.8a1.77,1.77,0,0,1,1.33-.65c0,.15,0,.3,0,.44-.09-.11-.16-.22-.26-.33,0,.41-.55.28-.83.39A1.07,1.07,0,0,0,9.13,7.8Z"/><path id="Tracé_13522" data-name="Tracé 13522" class="cls-1" d="M42.59,7.35l.33-.11c0,.09.06.18.08.28l.2.09c0-.13,0-.26,0-.41a1.46,1.46,0,0,0,1.17.2,1.21,1.21,0,0,0,.2.19l-.1,0a.9.9,0,0,0,0,.56l.2.28-.67,0c-.2.28-.39.58-.61.84a.62.62,0,0,0-.17.11l-.7.16v.6a1.18,1.18,0,0,0,0,.26,11.16,11.16,0,0,0-.91,1c.5-.28.91-.87,1.56-.66a3.37,3.37,0,0,0-.34.09,2.28,2.28,0,0,0-.13.68,1,1,0,0,1-.3,0c0-.07,0-.2,0-.25-.13.11-.24.22-.37.31a2.23,2.23,0,0,1-.37,0,5.73,5.73,0,0,1-.3.61l-.33.15v0a1.55,1.55,0,0,0-.06.31c-.11.15-.31.41-.05.5a2.2,2.2,0,0,1,.77-1l.34-.08-.08-.31.08,0a2.19,2.19,0,0,1,.35.13c0,.07-.07.2-.09.27l.26.06c-.13.17-.43.17-.56.37-.3.22-.48.72-.92.59l-.12.45a1.66,1.66,0,0,0-.18-.24c0,.16.11.46-.2.42s-.22-.31-.28-.48a1.71,1.71,0,0,1,.2-.18l-.26.13c0,.1,0,.21,0,.31-.42-.07,0,.19.06.3a1.2,1.2,0,0,0-.5.52,1.54,1.54,0,0,0-.3,0,3,3,0,0,1-1,.94c-.24.17,0,.48-.14.7a7,7,0,0,1-.61.5,1.33,1.33,0,0,0,.14.19s0,.07,0,.09a1.24,1.24,0,0,1-.19-.26c-.19-.14-.39-.27-.59-.39a5.08,5.08,0,0,0-.15.52l-.37-.13c0,.19.08.37.11.58s-.24.52-.35.75l-.59.1a.37.37,0,0,1,0,.11l-.07.24a.36.36,0,0,0,.31.13c0,.09-.07.17-.11.26l-.22.09s0,.13-.06.17a1.8,1.8,0,0,0,0-.19l0-.07,0-.05-.24-.13A2.27,2.27,0,0,1,34.59,20l-.3-.17A2.7,2.7,0,0,0,34.05,21L33.63,21c-.1.19-.17.39-.26.57l-.43-.14a2.64,2.64,0,0,1,.07.3c-.27.13-.53.3-.53.63l.16.05-.4.19-.08.31-.07-.05-.22-.17-.48,0c0,.14,0,.3,0,.44-.26.26-.45.58-.69.85a6.21,6.21,0,0,1-.74.34,2.21,2.21,0,0,1,0,.37l0,.09a1.11,1.11,0,0,0-.19.09,2.86,2.86,0,0,0-.74.65c.06.13.09.24.15.37-.22.26-.46.52-.83.44-.2.41-.73.52-1,.89a2.22,2.22,0,0,1-.65.5c-.11.5-.65.7-.95,1.08s-.74.7-1.24.85c0,.07,0,.22,0,.3a4.1,4.1,0,0,0-1.05.7,2,2,0,0,0-.59.15,6.6,6.6,0,0,0-.7.37.77.77,0,0,1-.39.09l-.69-.13.37-.19c.17,0,.34.12.48,0,.67-.38,1.54-.5,2-1.18a7.48,7.48,0,0,0-1.63.8c0-.11-.06-.22-.1-.33a4.47,4.47,0,0,0,.63-.6L23,30a3.27,3.27,0,0,1,.35-.3c.2,0,.41-.06.61-.09.76-.34,1.1-1.43,2-1.45a1.43,1.43,0,0,0-.07-.28c.16-.15.33-.28.48-.42a3.35,3.35,0,0,0-.37.09,2.1,2.1,0,0,0,.2-.89,1.54,1.54,0,0,0-.52.43c0-.12-.06-.2-.09-.3l.52-.17c-.19-.32-.58-.22-.87-.24l-.32.31c.08.1.13.2.2.3a1.25,1.25,0,0,0-1.28,0c-.3-.22-.59-.07-.88,0a3.69,3.69,0,0,1-1.1-.2,3.08,3.08,0,0,1-.68.57,3.26,3.26,0,0,1,.15-.44h.33a2,2,0,0,0-.13-1.09c-.17-.43-.69-.41-1.06-.41l-.46.59a.55.55,0,0,1-.44-.55l-.23.33-.53,0c.3.2.63.32.94.5A4.54,4.54,0,0,1,18.36,26a.6.6,0,0,1-.3-.11c0-.1.08-.2.13-.3-.05-.37,0-.77-.24-1.09-.09.13-.18.24-.28.37a2.76,2.76,0,0,0-.8.37l-.48-.07v-.5l-.55.24-.59-.19c.16-.09.31-.2.48-.3l-.35-.09L16,24.1l.35.07c0-.07.07-.22.09-.27l-.61-.08-.06-.65A2.25,2.25,0,0,0,15,24.66a5.6,5.6,0,0,0-.66-.63,1.71,1.71,0,0,0-.22.25c0-.14,0-.3,0-.42l.3,0c0-.2-.3-.41-.15-.63.23-.41.17-.87.39-1.28.32-.8.7-1.56,1.06-2.33.09-.61.5-1.13.65-1.73a2.23,2.23,0,0,1,.3-.57c0,.17.05.35.07.52a1.7,1.7,0,0,0,1.07-.74c.15-.33.56-.26.84-.17-.13.26.05.56,0,.83.24.15.48.28.72.41v-.3l-.32-.2a8.69,8.69,0,0,0,1.34-.31L20,17c.31-.31.8-.3,1.15-.53s.74-.76,1.28-.87a1.29,1.29,0,0,1,0-.28,1.51,1.51,0,0,1,.61-.2c.56-.08,1-.43,1.62-.35l.16-.17.37.07-.39.06a2.2,2.2,0,0,0,.28.18,2.34,2.34,0,0,0,.47.73,1.06,1.06,0,0,1-.12.2c-.35-.12-.8-.19-1,.18a5.84,5.84,0,0,0,.39.48,1.9,1.9,0,0,1-.39.11c.5,0,.85-.37,1.24-.61.07.2.13.39.2.6-.13.24-.33.5-.22.8a1.7,1.7,0,0,1,0,1.09l-.07-.2a2.75,2.75,0,0,0-.26.22l-.28-.2v.46a2.29,2.29,0,0,1-.37,0l.2.22-.59.16c0-.13,0-.27,0-.4q-.33.07-.66.18c-.28-.07-.56-.15-.83-.24l-.13.08.44.09c-.22.22-.56.18-.85.22q-.06.39-.15.78a8.1,8.1,0,0,0,.7.85,4.59,4.59,0,0,1-.44.33c0-.09-.12-.26-.15-.35,0,.24,0,.59-.32.67-.39-.13-.3-.58-.33-.89-.32-.06-.63,0-.74.3l.5,0-.3.3-.22-.1a.9.9,0,0,0-.24.12l.55.31-.42.22a1.33,1.33,0,0,0,.88.69l.3-.3c-.09-.2-.16-.41-.25-.61a5.53,5.53,0,0,1,1.07.16,2.78,2.78,0,0,1-.56.17c0,.09,0,.2-.05.31a.64.64,0,0,1,.4.11,1.66,1.66,0,0,0,.13-.14c0,.05.06.14.08.2s-.19.2-.28.31c.24,0,.54,0,.72.17a1.9,1.9,0,0,0-.76.39c0-.12-.09-.25-.13-.37l-.39.31h-.38c.07.11.16.2.24.31a.5.5,0,0,0-.41.49,1.72,1.72,0,0,1,.8-.2,1.37,1.37,0,0,1,.85-.54,5.91,5.91,0,0,1-.48.67c.41.09.48.5.54.85l.5.15a2.14,2.14,0,0,0,.5-.58l.28,0a2.32,2.32,0,0,1,.25-.59c.34-.13.62.19.84.37.09,0,.18-.05.28-.09l.13.09c0-.09,0-.26,0-.35l.45.11c-.11.11-.2.22-.32.33a3.05,3.05,0,0,0,.43,0c0-.06,0-.19.06-.26a1.53,1.53,0,0,1,.3,0l.16-.3-.26-.33a2.17,2.17,0,0,1-1.55.33c0-.05.13-.13.16-.18a2.8,2.8,0,0,0,1.41-.61V23l.37-.17c0-.13,0-.24.06-.35a1.42,1.42,0,0,0-.33-.11,1.83,1.83,0,0,1-.13-.24,1.76,1.76,0,0,0-1.13-.1,1.63,1.63,0,0,1,0-.31,2.76,2.76,0,0,1,.65-.44v.37l.52.26.28-.25a10.28,10.28,0,0,1,.81.67,3.64,3.64,0,0,1,.15.8l-.39,0s0,.14,0,.2l-.36.05c.06.09.13.19.19.3s-.1.15-.15.22l.37.41c0-.18-.07-.35-.09-.54.13.08.25.17.37.26a2,2,0,0,1,.5-.66,3.79,3.79,0,0,1-.2-.34c.24-.05.48-.13.72-.2a3.55,3.55,0,0,1-.44-.35,2.8,2.8,0,0,1,0-.41,1.36,1.36,0,0,0,.24.24l.13-.11.11.28c.07-.17.33-.3.24-.5a4.54,4.54,0,0,0-.48-.39.58.58,0,0,0,.11-.15l-.61-.55-.15.09a1.8,1.8,0,0,1-.2-.19,13.62,13.62,0,0,1-1.28.86c0-.11,0-.2,0-.32a5,5,0,0,0-1.3-.87c-.13-.21-.27-.41-.42-.61a1.81,1.81,0,0,0,.57-1.13l.3-.13a2.07,2.07,0,0,0-.09.32l.13.07-.17.24.06.33a2,2,0,0,0-.26.17,1.19,1.19,0,0,0,.09.15c0,.1-.08.2-.13.3l.54.13a5,5,0,0,1,.64-.26l.15-.17-.39.09a1.61,1.61,0,0,0,.15-.81.8.8,0,0,1,.2-.07c0-.1.09-.17.13-.26a1.33,1.33,0,0,0,.24-.11c.13-.12.26-.2.39-.32,0,.43-.26.89,0,1.32a6.71,6.71,0,0,0-.76-.13c.28.16.58.44.93.4.17-.14.15-.4.22-.59l-.46-.31.39-.08-.32-.2a7.81,7.81,0,0,1,1.41-.48c.5-.07.87-.48,1.37-.54l-.22-.27A5.18,5.18,0,0,0,31,17.16c0-.22,0-.44,0-.67l-.69.34a2,2,0,0,0-.07-.19,1.75,1.75,0,0,1-.24-.11c0-.05,0-.17,0-.24a4.51,4.51,0,0,0,.53-.07L30.39,16a1.43,1.43,0,0,1,1.09.15.78.78,0,0,1,0,.22,4.65,4.65,0,0,1,.56.34,4,4,0,0,0,0,.5c.3-.39.54-.8.82-1.2l.42-.08c0-.13,0-.26,0-.4a1.89,1.89,0,0,0-.74.66c-.11.23-.35.26-.58.32,0-.32,0-.65.08-1,.09-.13.2-.25.3-.37q-.31-.06-.63-.09c.24-.7,1-.91,1.63-1.28s.81-.81,1.33-1.11a3.24,3.24,0,0,0,.17.32A1.24,1.24,0,0,0,36,13l-.25-.24.23-.26a2.63,2.63,0,0,0,.2.33,2,2,0,0,1,.07-.26c-.31-.35,0-.74.15-1.09a7.73,7.73,0,0,0,.57.58,4,4,0,0,1,.84-.24c0-.19,0-.39.09-.58-.13,0-.26-.06-.39-.07l.44-.28c.06.11.1.24.15.35.45-.44,1.22-.52,1.43-1.17l.8.08a1.64,1.64,0,0,1,.66-1c.2,0,.49.13.6-.11a11.78,11.78,0,0,1,.57-1.12l.63-.11A2.35,2.35,0,0,1,42.59,7.35Z"/><path id="Tracé_13523" data-name="Tracé 13523" class="cls-1" d="M48.66,7.37c.19-.13.36.19.19.32S48.5,7.49,48.66,7.37Z"/><path id="Tracé_13524" data-name="Tracé 13524" class="cls-1" d="M51.26,7.72c-.28-.09-.06-.39.13-.17A1.92,1.92,0,0,0,51.26,7.72Z"/><path id="Tracé_13525" data-name="Tracé 13525" class="cls-1" d="M8.15,8a1.83,1.83,0,0,1,.92-.27l-.2.37a1,1,0,0,0-.94.38,2.3,2.3,0,0,0-.52.26,3.09,3.09,0,0,0-.85.37L6.37,9A14.76,14.76,0,0,1,8.15,8Z"/><path id="Tracé_13526" data-name="Tracé 13526" class="cls-1" d="M44.43,8.18a.94.94,0,0,1,0-.55l.38.44A2.08,2.08,0,0,1,44.43,8.18Z"/><path id="Tracé_13527" data-name="Tracé 13527" class="cls-1" d="M45.5,7.7c.2-.09.33.23.09.26S45.26,7.74,45.5,7.7Z"/><path id="Tracé_13528" data-name="Tracé 13528" class="cls-1" d="M46.68,7.7c.15.1.15.17,0,.24S46.51,7.78,46.68,7.7Z"/><path id="Tracé_13529" data-name="Tracé 13529" class="cls-1" d="M49.92,8.05a6.22,6.22,0,0,1,1.2-.31L51,8c-.28.09-.65.11-.76.45l-.23,0s0,.09,0,.13l.37-.09a1.4,1.4,0,0,1-.52.42C49.87,8.59,49.89,8.31,49.92,8.05Z"/><path id="Tracé_13530" data-name="Tracé 13530" class="cls-1" d="M34.52,8.87C35.24,8.8,35.66,8,36.37,8a.91.91,0,0,0,0,.23c-.22.35-.61.5-.9.77l-.17.37a3.22,3.22,0,0,0-.67.2l-.37.3c-.25.12-.53.19-.8.3.06.08.12.13.17.2a1.1,1.1,0,0,1,.67,0c-.13,0-.34.32-.09.32l.22-.08c0,.06,0,.15,0,.2a2.75,2.75,0,0,1-.22.26c0-.07,0-.2,0-.27s-.2.07-.28.09v.3a1.18,1.18,0,0,0-.18.13c-.52,0-.76.51-1,.92a3.6,3.6,0,0,0-.82.5,1.19,1.19,0,0,0-.15-.18,2.16,2.16,0,0,1-.81,1l-.6-.13c.17-.13.32-.28.47-.41l.39-.11a1.26,1.26,0,0,1-.13-.26c.07-.35.37-.72.2-1.09a3.36,3.36,0,0,0-.43.2,1.29,1.29,0,0,1,0,.19l0-.15c0-.08,0-.2,0-.28l.28,0a2.17,2.17,0,0,0,.15-.35c.16,0,.38,0,.48-.17.22-.35.65-.46.89-.8.16,0,.31-.09.48-.13a2.37,2.37,0,0,0,.26-.53l.16.09a5.1,5.1,0,0,1,.69-.45A.77.77,0,0,0,34.52,8.87Z"/><path id="Tracé_13531" data-name="Tracé 13531" class="cls-1" d="M172,9.26A14,14,0,0,1,178.61,8a16.21,16.21,0,0,1,9.32,2.44,2.68,2.68,0,0,1-.49.62c-.51.55-1,1.12-1.57,1.64a14.67,14.67,0,0,0-7.48-1.76,12.3,12.3,0,0,0-4.26.58c-.61.24-1.28.74-1.22,1.46s.59,1.13,1.16,1.3a27.54,27.54,0,0,0,4.52.58c1.45.09,2.89.22,4.32.44a11.33,11.33,0,0,1,4,1.26A3.78,3.78,0,0,1,188.74,19a5.19,5.19,0,0,1-.54,3.74,5.58,5.58,0,0,1-2.45,2.11A15.7,15.7,0,0,1,179.44,26c-3.76,0-7.72-.69-10.8-3,.56-.84,1.19-1.61,1.8-2.39a16.23,16.23,0,0,0,11,2.31,6.61,6.61,0,0,0,2.91-1,2,2,0,0,0,.87-1.72,1.85,1.85,0,0,0-1.15-1.44,8.3,8.3,0,0,0-2.91-.63c-1.8-.13-3.61-.15-5.4-.3a12.72,12.72,0,0,1-4.13-.93,4,4,0,0,1-2-1.83,4.39,4.39,0,0,1-.24-2.7A4.8,4.8,0,0,1,172,9.26Z"/><path id="Tracé_13532" data-name="Tracé 13532" class="cls-1" d="M46.83,8.18c.15.08.28.17.43.24a8.32,8.32,0,0,1-1,1h-.15l-.32,0C46.16,9,46.44,8.55,46.83,8.18Z"/><path id="Tracé_13533" data-name="Tracé 13533" class="cls-1" d="M49.52,8.24c.16-.17.25.13.13.22S49.37,8.33,49.52,8.24Z"/><path id="Tracé_13534" data-name="Tracé 13534" class="cls-1" d="M22.35,9.07c-.15-.2-.39-.4-.3-.68a1.45,1.45,0,0,1,.37.41Z"/><path id="Tracé_13535" data-name="Tracé 13535" class="cls-1" d="M59.33,25.6c0-5.73,0-11.47,0-17.19h5c3.89,4.74,7.74,9.52,11.65,14.26,0-4.76,0-9.5,0-14.26h3.37V25.6h-5c-.2-.12-.31-.34-.48-.5L64.59,13.65c-.65-.78-1.24-1.57-1.91-2.31,0,4.76,0,9.52,0,14.26C61.57,25.6,60.44,25.57,59.33,25.6Z"/><path id="Tracé_13536" data-name="Tracé 13536" class="cls-1" d="M104,8.41c6.59,0,13.18,0,19.77,0,0,1,0,2,0,3.05h-8.2c0,4.7,0,9.43,0,14.13h-3.32c0-4.17,0-8.33,0-12.5a9.87,9.87,0,0,0,0-1.63q-4.08,0-8.19,0C104,10.42,104,9.41,104,8.41Z"/><path id="Tracé_13537" data-name="Tracé 13537" class="cls-1" d="M127.48,8.39h3.37V25.57h-2.48a2.33,2.33,0,0,1-.91-.07C127.5,19.82,127.46,14.11,127.48,8.39Z"/><path id="Tracé_13538" data-name="Tracé 13538" class="cls-1" d="M134.89,8.39h4.22l5.5,5.44a7.11,7.11,0,0,0,1.07,1c2.17-2.13,4.32-4.3,6.48-6.42,1.41,0,2.82,0,4.23,0-2.69,2.68-5.43,5.3-8.12,8-.14.17-.37.3-.46.5,1.59,1.63,3.26,3.17,4.87,4.76,1,1,2.1,2.05,3.15,3.07a5,5,0,0,1,.8.85c-1.39,0-2.8,0-4.18,0-2.19-2.18-4.41-4.33-6.62-6.5a.25.25,0,0,0-.34-.07l0,0c-1.9,1.85-3.8,3.74-5.68,5.61-.35.3-.63.67-1,.94-1.39,0-2.8,0-4.19,0,1.65-1.66,3.36-3.27,5-4.92,1.3-1.28,2.6-2.54,3.89-3.8C140.63,14,137.74,11.24,134.89,8.39Z"/><path id="Tracé_13539" data-name="Tracé 13539" class="cls-1" d="M161.11,9.54a4,4,0,0,1,.07-1.15c1.11,0,2.2,0,3.32,0V25.59c-1.09,0-2.2,0-3.3,0a.84.84,0,0,1-.08-.41Q161.11,17.37,161.11,9.54Z"/><path id="Tracé_13540" data-name="Tracé 13540" class="cls-1" d="M44.61,8.76l.55,0a2.39,2.39,0,0,1-.68.59l-.28,0,.24-.26-.15,0,.61-.16Z"/><path id="Tracé_13541" data-name="Tracé 13541" class="cls-1" d="M48.22,8.85l.31.07a1.76,1.76,0,0,1-.63.52C48,9.26,48.11,9.05,48.22,8.85Z"/><path id="Tracé_13542" data-name="Tracé 13542" class="cls-1" d="M5.5,9.67a1.15,1.15,0,0,1,.78-.58,1,1,0,0,1-.08.39,2.3,2.3,0,0,0-.37,0c0,.11-.07.24-.11.35l-.22,0c-.15.11-.3.24-.43.35,0-.09,0-.26,0-.35A2.54,2.54,0,0,1,5.5,9.67Z"/><path id="Tracé_13543" data-name="Tracé 13543" class="cls-1" d="M17,9a.91.91,0,0,1,.42.4,1.08,1.08,0,0,1-.77,0Z"/><path id="Tracé_13544" data-name="Tracé 13544" class="cls-1" d="M35.68,9.48c0-.05,0-.13,0-.18l.11.2h.15l-.23.55-.27.24c0-.18-.06-.39-.08-.57Z"/><path id="Tracé_13545" data-name="Tracé 13545" class="cls-1" d="M36.24,9.85c.07-.24.18-.61.52-.52C37,9.65,36.5,9.85,36.24,9.85Z"/><path id="Tracé_13546" data-name="Tracé 13546" class="cls-1" d="M48.66,9.24a.63.63,0,0,0,.49.24l-.08.17c-.11-.08-.22-.13-.33-.2-.06.16-.11.35-.17.52h-.33a1.33,1.33,0,0,1,.33-.38A2.37,2.37,0,0,0,48.66,9.24Z"/><path id="Tracé_13547" data-name="Tracé 13547" class="cls-1" d="M42.48,9.65l.7-.17a2,2,0,0,1-.7.76A5.8,5.8,0,0,1,42.48,9.65Z"/><path id="Tracé_13548" data-name="Tracé 13548" class="cls-1" d="M35.89,9.5h.31c0,.09,0,.3,0,.4l-.56.15C35.76,9.87,35.81,9.68,35.89,9.5Z"/><path id="Tracé_13549" data-name="Tracé 13549" class="cls-1" d="M48.78,10.2A5.82,5.82,0,0,1,50,9.54c-.52.33-1,.68-1.56,1v-.32A1.45,1.45,0,0,0,48.78,10.2Z"/><path id="Tracé_13550" data-name="Tracé 13550" class="cls-1" d="M34.29,9.85c.13-.09.24-.2.37-.3.08.11.15.24.23.35a8.52,8.52,0,0,1-.84.2A2,2,0,0,0,34.29,9.85Z"/><path id="Tracé_13551" data-name="Tracé 13551" class="cls-1" d="M23.87,10l.33.07a8.46,8.46,0,0,1,.48,1.17,1,1,0,0,0,.48-.06,1.71,1.71,0,0,0-.3.5l-.24-.24c-.07.3.2.49.36.7,0,.23-.1.5.11.67l.35.26H25c.19.43.33.85.5,1.28a3.06,3.06,0,0,1-1,.13,3.45,3.45,0,0,1,.2-.32.81.81,0,0,1-.44-.63l-.34,0c.08-.23.13-.45.19-.67-.17-.07-.33-.15-.52-.22,0-.11,0-.21,0-.32h-.34s0-.14.06-.18l.28-.06.16-.33a1,1,0,0,0,.6-.2L24,11.44l.07-.22a3.13,3.13,0,0,0,.32-.15A1.21,1.21,0,0,1,24.1,11c0-.09.06-.2.08-.3A5,5,0,0,1,23.87,10Z"/><path id="Tracé_13552" data-name="Tracé 13552" class="cls-1" d="M43.18,10.07a.27.27,0,0,1,.35.13.19.19,0,0,1,0,.07.93.93,0,0,1-.13.15C43.26,10.41,43.07,10.22,43.18,10.07Z"/><path id="Tracé_13553" data-name="Tracé 13553" class="cls-1" d="M44.24,10.63l.11-.44c.13.07.28.14.41.22a1.22,1.22,0,0,1,.33,0,1,1,0,0,1,.2.05c0-.11,0-.2,0-.31a2.62,2.62,0,0,1,.48.13,1.32,1.32,0,0,1-.63,1c0-.07,0-.24.06-.31-.43-.1-.61.33-.93.5a3.2,3.2,0,0,1-.44,0,5.6,5.6,0,0,1-.56.63c-.22.08-.44.19-.66.26a1.78,1.78,0,0,1-.22-.26c-.12,0-.23-.09-.36-.13h0l.34-.08s0-.18,0-.24a1.51,1.51,0,0,1,.3,0c0,.09,0,.28,0,.37.19-.07.45-.07.56-.3A3.23,3.23,0,0,1,44.24,10.63Z"/><path id="Tracé_13554" data-name="Tracé 13554" class="cls-1" d="M44.76,10.39c0-.28.35-.26.33,0Z"/><path id="Tracé_13555" data-name="Tracé 13555" class="cls-1" d="M4,10.61a2.2,2.2,0,0,1,.85-.39C4.74,10.57,4.29,10.46,4,10.61Z"/><path id="Tracé_13556" data-name="Tracé 13556" class="cls-1" d="M33.37,10.39a2.62,2.62,0,0,1,.59.33c-.15,0-.3.1-.44,0A2.17,2.17,0,0,1,33.37,10.39Z"/><path id="Tracé_13557" data-name="Tracé 13557" class="cls-1" d="M34.24,10.67c-.26,0-.06-.3.09-.32s.11.19.15.24Z"/><path id="Tracé_13558" data-name="Tracé 13558" class="cls-1" d="M5.48,11.5a21.49,21.49,0,0,0,2-.95,1.28,1.28,0,0,1-.74.67,1.44,1.44,0,0,0,1.5.52c.3.13.5-.13.68-.31a3,3,0,0,1,.43,0c.05-.13.11-.24.17-.37l.46,0c.07-.14.13-.3.2-.42h.91a6,6,0,0,0,0,.61c-.15-.11-.32-.2-.46-.32,0,.15,0,.3,0,.45l-.31.07a5.9,5.9,0,0,1,.59.06,3.55,3.55,0,0,1,.69.65l-.3.35a1.18,1.18,0,0,0,.13.18c.13,0,.28,0,.4-.07a1.88,1.88,0,0,1-.14-.24c.13-.11.25-.24.37-.35l.42.31.3-.35a2,2,0,0,1,.28.82c.09.07.17.16.26.24-.15,0-.3,0-.44.09-.25-.13-.49-.24-.73-.35-.33.28-.74.09-1.11,0a2.06,2.06,0,0,0,.59.72l-.66.11a6.47,6.47,0,0,0,.15.74.35.35,0,0,0,.14.06c0,.15.06.31.08.46l-.35.28c-.06.17-.12.35-.17.52l-.3-.2c-.06.17-.09.33-.15.5a3.81,3.81,0,0,0-1.57.57c0,.08-.06.15-.08.22a4,4,0,0,0-.48-.09l-.13-.05a5,5,0,0,1-.11.5,2.13,2.13,0,0,1-.55.2l-.1.16A1.81,1.81,0,0,0,6.4,18c0,.08.13.2.16.28a2.18,2.18,0,0,1-.85.31c-.18,0-.43,0-.56.17,0-.33-.31-.31-.51-.2-.47.22-.89-.28-1.37-.18a4.55,4.55,0,0,0,.4.35l-.44.18c-.15-.07-.3-.15-.43-.2l.37-.22a1.82,1.82,0,0,1-.8-.3l.84.07c-.1-.46.4-.63.76-.68.09.15.2.28.3.42.13-.11.26-.22.37-.33l.37.11a2.4,2.4,0,0,0,0-.28l-.8-.61a5.14,5.14,0,0,1,.41-.4,2.62,2.62,0,0,0,.87,1.13,1.8,1.8,0,0,0-.46.53c.28,0,.53-.13.8-.2a2.92,2.92,0,0,0-.13-.42c-.41-.13-.45-.52-.47-.89a1.74,1.74,0,0,1-.61-.43,4,4,0,0,1,1,0,1.79,1.79,0,0,0,.22-.3,1.55,1.55,0,0,1,.24.19,3,3,0,0,0-.09-.32,1.59,1.59,0,0,0,.2-.24c-.44-.13-1.07,0-1.33-.5a2.83,2.83,0,0,1,0-.77,4,4,0,0,1-.92,0l.38-.15a2.24,2.24,0,0,0-.83-.34c.07.17.17.34.24.49a3.91,3.91,0,0,0-.57.31,3.15,3.15,0,0,0,.24.3,2.41,2.41,0,0,1-.85-.08,3.26,3.26,0,0,1-.8.43,2.2,2.2,0,0,0,1,.5,1.4,1.4,0,0,1-1,.17,6.84,6.84,0,0,1-.47.72,2.53,2.53,0,0,0,.19.48,2.8,2.8,0,0,0,.57.22c-.07.15-.14.3-.2.45a1.6,1.6,0,0,1-.68-1.65,5,5,0,0,1,2.09-2.43c.43-.3.78-.87,1.37-.72,0-.15-.06-.3-.08-.46.15,0,.3.06.45.07A2.79,2.79,0,0,1,5.48,11.5Z"/><path id="Tracé_13559" data-name="Tracé 13559" class="cls-1" d="M3.4,10.61H4a2,2,0,0,1-.78.43A1.1,1.1,0,0,1,3.4,10.61Z"/><path id="Tracé_13560" data-name="Tracé 13560" class="cls-1" d="M40.81,11.22a5.08,5.08,0,0,1,.85-.61,1.65,1.65,0,0,0-.18.61A1,1,0,0,1,40.81,11.22Z"/><path id="Tracé_13561" data-name="Tracé 13561" class="cls-1" d="M31.9,11.31a1.5,1.5,0,0,0,1-.53c0,.07.09.24.13.31a.41.41,0,0,0,.5-.22,3.52,3.52,0,0,0-.28.59L33,11.33a3.7,3.7,0,0,0-.25.43c-.12,0-.24.05-.36.09a2.7,2.7,0,0,0,.06-.41l-.44.39C32,11.67,31.94,11.5,31.9,11.31Z"/><path id="Tracé_13562" data-name="Tracé 13562" class="cls-1" d="M34.05,10.87l.28-.09c0,.07,0,.2,0,.27s0,.36,0,.54a1.36,1.36,0,0,1-.2.11c-.07-.13-.14-.26-.2-.4l.19-.13A1.53,1.53,0,0,1,34.05,10.87Z"/><path id="Tracé_13563" data-name="Tracé 13563" class="cls-1" d="M45.72,11.5a.82.82,0,0,1,.65-.54c0,.2-.08.43-.13.63l.31.08a2.13,2.13,0,0,0-.83.4v-.24h-.33A2.06,2.06,0,0,0,45.72,11.5Z"/><path id="Tracé_13564" data-name="Tracé 13564" class="cls-1" d="M44.89,11.85c.28-.19.55-.37.81-.57,0,.05,0,.16,0,.22a3.61,3.61,0,0,1-.33.35l-.6.13c0-.09,0-.26,0-.35Z"/><path id="Tracé_13565" data-name="Tracé 13565" class="cls-1" d="M84.59,21.54c2.39-4.37,4.76-8.78,7.17-13.15,1.39,0,2.78,0,4.18,0,3.08,5.74,6.24,11.42,9.32,17.16-1.22,0-2.47.06-3.67,0-.69-1.19-1.32-2.41-2-3.63-1.6,0-3.19,0-4.76,0-1.06,0-2.13,0-3.19,0-.44,0-.89,0-1.33,0-.76,0-1.52,0-2.28,0-.65,1.22-1.3,2.44-2,3.65H82.44C83.11,24.2,83.89,22.89,84.59,21.54Zm5.2-2.73c2.7,0,5.41,0,8.11,0-1.35-2.5-2.7-5-4-7.5-1.4,2.48-2.72,5-4.09,7.52Z"/><path id="Tracé_13566" data-name="Tracé 13566" class="cls-1" d="M42,11.68l.37-.31c0,.07,0,.2,0,.26s0,.18,0,.24l-.34.07Z"/><path id="Tracé_13567" data-name="Tracé 13567" class="cls-1" d="M4.59,11.93a1.69,1.69,0,0,0,.78-.56l.11.13a2.48,2.48,0,0,0-.43,1c-.15,0-.3-.06-.44-.07,0,.14,0,.3.07.46-.59-.15-.94.43-1.37.72A5,5,0,0,0,1.22,16a1.58,1.58,0,0,0,.68,1.64c.15.15.32.3.47.43a1.63,1.63,0,0,0,.8.3l-.37.22a1.53,1.53,0,0,0-.63-.11l0-.2v.3a1.15,1.15,0,0,1-.58-.57,3.28,3.28,0,0,1-.31.2.9.9,0,0,1,0-.28c-.26,0-.54-.13-.56-.43a1.33,1.33,0,0,1-.28,0A4,4,0,0,0,.31,17H0a3.17,3.17,0,0,0,.54-.36c0-.09,0-.25,0-.35s.16-.12.24-.18a11.45,11.45,0,0,1,.68-1.24,1.23,1.23,0,0,0,.47-.73l.51-.27c0-.06.1-.19.13-.25a1.56,1.56,0,0,0,.28-.16c.13-.08.26-.19.39-.28l.19-.35c.3,0,.44-.26.63-.46l.22,0A4.59,4.59,0,0,0,4.59,11.93Z"/><path id="Tracé_13568" data-name="Tracé 13568" class="cls-1" d="M31,11.7l.42-.2c.17.37-.11.74-.2,1.1a1.26,1.26,0,0,1,.13.26L31,13c-.15.13-.3.27-.47.4l-.35.23L30,13.3l.39-.23a.86.86,0,0,0,.45-.5c0-.05,0-.14.05-.18s.08-.33.11-.5S31,11.74,31,11.7Z"/><path id="Tracé_13569" data-name="Tracé 13569" class="cls-1" d="M41.66,11.7l.37,0V12l-.07,0-.2,0a1.1,1.1,0,0,1-.39.68L41,12.52v0l.33-.15A5.37,5.37,0,0,1,41.66,11.7Z"/><path id="Tracé_13570" data-name="Tracé 13570" class="cls-1" d="M30,12.41c.23-.34.45-.82.95-.69l0,.15a2.78,2.78,0,0,1-.11.5,1.17,1.17,0,0,0,0-.26c-.48.52-1.18.78-1.65,1.32-.74.59-1.45,1.22-2.13,1.88l-.42.06c0,.11-.08.21-.13.32l-.17.07-.18.24c-.12-.41.25-.61.5-.85l.22-.11a13,13,0,0,1,1.22-1.12c.2-.42.68-.53,1-.83C29.53,13,29.53,12.32,30,12.41Z"/><path id="Tracé_13571" data-name="Tracé 13571" class="cls-1" d="M24.24,11.87c.2-.07.44.39.2.46A.36.36,0,0,1,24.24,11.87Z"/><path id="Tracé_13572" data-name="Tracé 13572" class="cls-1" d="M41.74,11.87a.66.66,0,0,0,.2.06c0,.07.05.24.07.31l-.33.08a2.1,2.1,0,0,0-.78,1c-.26-.1-.06-.35.06-.5a3.06,3.06,0,0,0,0-.32l.33.06A1,1,0,0,0,41.74,11.87Z"/><path id="Tracé_13573" data-name="Tracé 13573" class="cls-1" d="M44.29,12.05l.17-.22c0,.18,0,.36-.05.54s-.36,0-.52,0l.13-.28C44.09,12.09,44.22,12.05,44.29,12.05Z"/><path id="Tracé_13574" data-name="Tracé 13574" class="cls-1" d="M10.29,12.11c.23.09.43.19.63.28l.06.46a4.18,4.18,0,0,1-.69-.2A4.86,4.86,0,0,0,10.29,12.11Z"/><path id="Tracé_13575" data-name="Tracé 13575" class="cls-1" d="M44.53,12.68c0-.15.11-.31.17-.46a1,1,0,0,1,.06.58c-.93.22-1.56,1-2.37,1.52-1,.53-1.76,1.55-2.8,2.07.16-.3.5-.56.39-1a1.6,1.6,0,0,1,.64-.2c-.07-.59.6-.74,1-1a4,4,0,0,1,.11-.41.58.58,0,0,1,.18.3c.35-.26,1-.58.78-1.13l.15-.11c0,.1.07.21.11.31l.07,0,.26.07a1.72,1.72,0,0,0,.61-.59Z"/><path id="Tracé_13576" data-name="Tracé 13576" class="cls-1" d="M20.05,12.87c.2-.06.28,0,.2.2S20,13.08,20.05,12.87Z"/><path id="Tracé_13577" data-name="Tracé 13577" class="cls-1" d="M29.53,13.52l.49,0c-.11.28-.45.28-.69.39a2.71,2.71,0,0,0-.35.41c-.31.09-.48.44-.83.48.14-.31.5-.35.77-.48,0-.07,0-.24,0-.31C29.24,14.07,29.37,13.74,29.53,13.52Z"/><path id="Tracé_13578" data-name="Tracé 13578" class="cls-1" d="M1.9,14.2a.94.94,0,0,1,.91-.68l-.28.16a1.83,1.83,0,0,1-.13.24A4.68,4.68,0,0,1,1.9,14.2Z"/><path id="Tracé_13579" data-name="Tracé 13579" class="cls-1" d="M3.59,13.68a2.36,2.36,0,0,1,.84.34L4,14.17a3.15,3.15,0,0,0,.92,0,2.92,2.92,0,0,0,0,.78c.28.46.89.37,1.34.5a1.16,1.16,0,0,0-.2.24,2.29,2.29,0,0,0,.09.31A1.5,1.5,0,0,1,6,15.8a2.61,2.61,0,0,0-.23.3,4.44,4.44,0,0,0-1,0,1.88,1.88,0,0,0,.61.43c0,.37.07.76.46.89,0,.14.08.28.13.42a7.79,7.79,0,0,1-.8.2,1.56,1.56,0,0,1,.46-.53,2.7,2.7,0,0,1-.87-1.13c-.13.13-.26.28-.4.41l.8.61c0,.09,0,.18,0,.28l-.37-.12-.37.34c-.09-.15-.2-.28-.3-.43-.37.06-.85.2-.76.69a5.83,5.83,0,0,0-.83-.08c-.17-.15-.32-.3-.47-.42a3,3,0,0,0,.2-.45c-.18-.07-.38-.13-.57-.22a2.15,2.15,0,0,1-.18-.48,5.48,5.48,0,0,0,.46-.72,1.4,1.4,0,0,0,1-.17,2.2,2.2,0,0,1-1-.5,2.69,2.69,0,0,0,.8-.43,2.7,2.7,0,0,0,.85.08,1.76,1.76,0,0,0-.24-.3,2.68,2.68,0,0,1,.57-.32A2.69,2.69,0,0,1,3.59,13.68Z"/><path id="Tracé_13580" data-name="Tracé 13580" class="cls-1" d="M6.89,13.81c.07.12.16.2.24.32l.44.06-.33.3a1.21,1.21,0,0,0,.7.13,1.76,1.76,0,0,0-.33.07c0,.09,0,.2,0,.3-.16.07-.35.18-.52,0l.06-.41A.88.88,0,0,1,6.89,13.81Z"/><path id="Tracé_13581" data-name="Tracé 13581" class="cls-1" d="M28.85,14.87a5.07,5.07,0,0,1,.37-.44c0,.3-.33.44-.5.68a.78.78,0,0,0-.22,0,1.27,1.27,0,0,1,0-.28A.86.86,0,0,1,28.85,14.87Z"/><path id="Tracé_13582" data-name="Tracé 13582" class="cls-1" d="M27.65,15.07c.16-.05.22,0,.16.17S27.57,15.24,27.65,15.07Z"/><path id="Tracé_13583" data-name="Tracé 13583" class="cls-1" d="M28.13,15.05c.3-.11.24.43,0,.37S27.94,15.09,28.13,15.05Z"/><path id="Tracé_13584" data-name="Tracé 13584" class="cls-1" d="M6.26,15.18c.14-.09.24-.07.3.1C6.4,15.37,6.29,15.33,6.26,15.18Z"/><path id="Tracé_13585" data-name="Tracé 13585" class="cls-1" d="M22.39,16l.75.28a.89.89,0,0,1,.39-.19,1,1,0,0,1,0,.63,2.56,2.56,0,0,0,.11.24l-.24.11c0-.05,0-.18,0-.26l-.44,0,.38-.08a3.06,3.06,0,0,0-.64-.35l-.23.22C22.46,16.42,22.42,16.22,22.39,16Z"/><path id="Tracé_13586" data-name="Tracé 13586" class="cls-1" d="M39.09,16.31l.35.11-2.13,1.8c.11-.25.23-.51.32-.77H38c.06-.13.12-.24.17-.37l.28,0a4.8,4.8,0,0,1,.54-.32A3.49,3.49,0,0,1,39.09,16.31Z"/><path id="Tracé_13587" data-name="Tracé 13587" class="cls-1" d="M37,16.42c.2.12.4.25.59.39a1.42,1.42,0,0,0-.65.47c.06.12.12.25.19.37-.32-.06-.41.24-.54.44a.8.8,0,0,1,0,.82l-.46,0a1.3,1.3,0,0,1-.39.85,3.67,3.67,0,0,0-1,1c0-.15,0-.28,0-.43a.56.56,0,0,0-.44.37l.28.19c-.36.33-.69.68-1.06,1a2.83,2.83,0,0,1-.2-.28.8.8,0,0,0-.06.48c0,.1-.13.2-.18.3l-.35,0-.17-.05c0-.34.26-.5.54-.63,0-.1-.06-.2-.08-.3l.43.14c.09-.2.17-.39.26-.57l.43.05a2.55,2.55,0,0,1,.24-1.18l.3.17a2.32,2.32,0,0,0,.57-1.24,1.83,1.83,0,0,1,.24.13l0,.05-.13.11c0,.19.09.43-.15.52a2.83,2.83,0,0,1-.11.31.34.34,0,0,0-.09.45,3.93,3.93,0,0,0,.52-.8l.16.11c0-.15-.07-.3-.11-.43s0-.12.06-.16a1,1,0,0,0,.22-.09l.11-.26c.13-.19-.09-.34-.24-.37l-.06-.12.6-.09c.13-.26.24-.52.35-.76s-.08-.37-.11-.57l.37.13A2.31,2.31,0,0,1,37,16.42Z"/><path id="Tracé_13588" data-name="Tracé 13588" class="cls-1" d="M37.05,18.13c.24,0,.11.56-.13.44a.33.33,0,0,1,.13-.44Z"/><path id="Tracé_13589" data-name="Tracé 13589" class="cls-1" d="M3.28,18.32c.48-.1.88.38,1.37.18.22-.11.53-.13.51.2a1.74,1.74,0,0,0-.77.24c-.39,0-.76-.07-1.15-.07l.44-.19Z"/><path id="Tracé_13590" data-name="Tracé 13590" class="cls-1" d="M25,18.41l.28.2.26-.22a1.18,1.18,0,0,0,.07.2h0l-.3.13a1.75,1.75,0,0,1-.58,1.13,6.14,6.14,0,0,1,.43.61,5.47,5.47,0,0,1,1.3.87c0,.1,0,.2,0,.32a10.15,10.15,0,0,0,1.28-.85,1.71,1.71,0,0,1,.2.18l.15-.09.61.56a.76.76,0,0,0-.11.14A4.54,4.54,0,0,1,29,22c.09.2-.15.34-.24.5l-.11-.28-.13.12a2.72,2.72,0,0,0-.24-.24,2.67,2.67,0,0,0,0,.4,2.94,2.94,0,0,0,.44.35A6.44,6.44,0,0,1,28,23a3.79,3.79,0,0,1,.2.34,1.71,1.71,0,0,0-.5.66l-.37-.26c0,.19.07.36.09.54-.13-.13-.24-.26-.37-.41a1.7,1.7,0,0,0,.15-.22,1.53,1.53,0,0,1-.19-.3l.35-.06s0-.14.06-.2l.39.06a3.64,3.64,0,0,0-.15-.8,8.73,8.73,0,0,0-.81-.67L26.6,22l-.52-.25v-.37a5.7,5.7,0,0,0-.65.44,1.17,1.17,0,0,1,0,.32,1.75,1.75,0,0,1,1.13.09,1.08,1.08,0,0,1,.13.24,1.93,1.93,0,0,0,.34.11l-.06.35-.37.17v-.28a2.81,2.81,0,0,1-1.4.61,1,1,0,0,0-.17.19,2.29,2.29,0,0,0,1.55-.34,2.78,2.78,0,0,1,.26.34l-.16.3-.3,0c0,.05,0,.18-.06.26a2.1,2.1,0,0,0-.43,0c.12-.12.2-.23.32-.34l-.45-.11c0,.09,0,.26,0,.35a.6.6,0,0,1-.13-.09L25.3,24c-.22-.18-.5-.5-.84-.37a1.59,1.59,0,0,0-.25.6l-.28,0a2.79,2.79,0,0,1-.5.58l-.5-.15c-.08-.35-.13-.76-.54-.85a3.43,3.43,0,0,0,.48-.67,1.27,1.27,0,0,0-.85.54,2.19,2.19,0,0,0-.8.2.52.52,0,0,1,.41-.49c-.08-.11-.17-.2-.24-.31h.39l.38-.31c0,.13.1.23.13.36a2.46,2.46,0,0,1,.76-.38c-.18-.19-.48-.15-.72-.17.09-.11.19-.2.28-.31l-.08-.21a.93.93,0,0,1-.13.15.49.49,0,0,0-.4-.11c0-.11,0-.2.05-.31a3.62,3.62,0,0,0,.56-.17,4.86,4.86,0,0,0-1.07-.16c.07.2.16.4.25.61a4.23,4.23,0,0,1-.3.3,1.31,1.31,0,0,1-.88-.69l.42-.22c-.18-.11-.37-.2-.55-.32a1.28,1.28,0,0,0,.24-.11l.22.1a2.83,2.83,0,0,1,.3-.3l-.5,0c.11-.34.43-.35.74-.3,0,.31-.06.76.33.89.32-.08.28-.41.32-.67,0,.09.11.26.15.35a2,2,0,0,0,.44-.33c-.24-.28-.48-.56-.7-.85.06-.26.09-.52.15-.78.28-.06.63,0,.85-.22a3.58,3.58,0,0,1-.45-.09l.13-.08.84.24.66-.18c0,.13,0,.26,0,.4l.59-.16-.2-.22a2.29,2.29,0,0,1,.37,0A3.15,3.15,0,0,0,25,18.41Z"/><path id="Tracé_13591" data-name="Tracé 13591" class="cls-1" d="M35.66,18.33c.15.06.37.19.24.37a.31.31,0,0,1-.31-.13A1.68,1.68,0,0,0,35.66,18.33Z"/><path id="Tracé_13592" data-name="Tracé 13592" class="cls-1" d="M18.48,18.59a1.19,1.19,0,0,0,.18.15,1.15,1.15,0,0,0,.1.89l-.3,0c-.2.15-.2.52-.48.56a.35.35,0,0,1-.06-.41c.09-.24.07-.52.26-.7a3.22,3.22,0,0,0,.28.24C18.46,19.07,18.48,18.83,18.48,18.59Z"/><path id="Tracé_13593" data-name="Tracé 13593" class="cls-1" d="M35.28,19.07a.63.63,0,0,0,.13-.11l0,.08a1.42,1.42,0,0,0,.08.18c0,.15.07.3.11.43l-.17-.11a3.79,3.79,0,0,1-.52.8.37.37,0,0,1,.09-.45,3.21,3.21,0,0,1,.12-.31C35.37,19.5,35.28,19.26,35.28,19.07Z"/><path id="Tracé_13594" data-name="Tracé 13594" class="cls-1" d="M17,19.09a2.49,2.49,0,0,1,.8.17l-.2.11c.05.11.13.2.18.31a5.3,5.3,0,0,1-.91.86v-.8a3.45,3.45,0,0,0,.26-.28A1.63,1.63,0,0,0,17,19.09Z"/><path id="Tracé_13595" data-name="Tracé 13595" class="cls-1" d="M22.46,19.2l.72.1a.48.48,0,0,1-.39.35c0,.05,0,.18-.05.24a1.11,1.11,0,0,0-.43-.15A1.74,1.74,0,0,1,22.46,19.2Z"/><path id="Tracé_13598" data-name="Tracé 13598" class="cls-1" d="M31.4,22.72l.49,0,.22.17c-.37.26-.26.85-.7,1.09-.06-.11-.09-.2-.15-.31a.74.74,0,0,0,.13-.48A2.06,2.06,0,0,1,31.4,22.72Z"/><path id="Tracé_13599" data-name="Tracé 13599" class="cls-1" d="M14.46,23.82c.06-.34,0-.95.46-1C14.85,23.17,14.92,23.84,14.46,23.82Z"/><path id="Tracé_13600" data-name="Tracé 13600" class="cls-1" d="M14.94,24.7a2.3,2.3,0,0,1,.76-1.48c0,.23,0,.43.06.65l.61.07a2.91,2.91,0,0,1-.1.28,2.17,2.17,0,0,1-.35-.07l-.61.26.35.09c-.16.09-.31.2-.48.3l.59.19.56-.25v.5l.48.08a2.65,2.65,0,0,1,.8-.37c.09-.13.19-.24.28-.37.26.31.18.72.24,1.09,0,.09-.09.19-.13.3s.18.09.3.11a4.53,4.53,0,0,0,1.41.28c-.3-.19-.65-.3-.95-.5a4.87,4.87,0,0,1,.54,0l.22-.34a.6.6,0,0,0,.44.56c.15-.2.32-.39.47-.59.37,0,.89,0,1.05.4a1.67,1.67,0,0,1,.13,1.1h-.33c-.06.14-.09.3-.15.44a2.36,2.36,0,0,0,.69-.57,3.68,3.68,0,0,0,1.09.2c.3-.13.59-.26.89,0a1.21,1.21,0,0,1,1.27,0c-.07-.09-.13-.2-.2-.3l.32-.31c.31,0,.68-.08.87.24l-.52.16c0,.1.06.2.09.3a1.19,1.19,0,0,1,.52-.42,1.62,1.62,0,0,1-.2.89c.13,0,.26-.06.37-.1-.16.15-.33.28-.48.43a2.29,2.29,0,0,0,.07.28c-.92,0-1.25,1.11-2,1.44a4.31,4.31,0,0,1-.61.1l-.36.3-.16-.34a4.47,4.47,0,0,1-.63.6c0,.11.05.22.09.33a5.73,5.73,0,0,1-.83.39,2.12,2.12,0,0,0-.37.18,6.83,6.83,0,0,0,.68.13c-.18.09-.39.19-.57.3s-.2.08-.28.09l.31.32a3.81,3.81,0,0,0-1,.13.44.44,0,0,1-.42.24L19.67,32c.11-.13.2-.28.3-.41-.31-.22-.87-.18-.94-.64a3.4,3.4,0,0,0-.45,0c-.22,0-.46-.07-.7-.09-.33-.31-.7-.57-1-.89l.2-.39.46.36a2.55,2.55,0,0,0,0-.39l.32-.23a8,8,0,0,0-.74-.44l-.25.15.28.5c-.37,0-.55-.26-.72-.54a.77.77,0,0,0-.44.7c-.13-.17-.28-.33-.41-.48a2.32,2.32,0,0,1,0-.46c-.25.09-.47.2-.7.3a1.35,1.35,0,0,0-.34-.11c-.28,0-.31.33-.4.55.11-.07.22-.15.35-.22a2.8,2.8,0,0,0,.28.31,2.28,2.28,0,0,1-.8.26,1.9,1.9,0,0,1-.3-.72c0-.35.33-.56.51-.83a1,1,0,0,0,.37.5c.19-.26.26-.65.56-.8.28.16.33.53.67.64,0-.24,0-.5,0-.74l-.24-.16c0-.1,0-.2,0-.3-.11.05-.2.13-.32.18s0,.17-.05.24-.32.06-.47.09a2.2,2.2,0,0,1-.27.26v-.63a2.36,2.36,0,0,0-.75.58l-.14,0,.16-.55.34-.19-.74-.67c0-.22.05-.44.07-.68a3.07,3.07,0,0,1,.35-.24,1.1,1.1,0,0,1-.18-.63,1.82,1.82,0,0,1,.63.22,2.33,2.33,0,0,0,.05-.28c-.48.11-.33-.52-.22-.78.07-.09.15-.16.22-.26A4.3,4.3,0,0,1,14.94,24.7Z"/><path id="Tracé_13601" data-name="Tracé 13601" class="cls-1" d="M30.68,24c.24-.28.43-.59.69-.85a.69.69,0,0,1-.13.48c-.12.14-.24.28-.37.41Z"/><path id="Tracé_13602" data-name="Tracé 13602" class="cls-1" d="M30.89,24c.13-.13.24-.28.37-.41,0,.09.09.2.14.31a3.46,3.46,0,0,1-1.4.78,2.21,2.21,0,0,1,0-.37c.26-.11.5-.2.74-.33C30.72,24,30.83,24,30.89,24Z"/><path id="Tracé_13603" data-name="Tracé 13603" class="cls-1" d="M19.44,24.24l.58.17a2.24,2.24,0,0,1-.13.27Z"/><path id="Tracé_13604" data-name="Tracé 13604" class="cls-1" d="M29.05,25.58a1.85,1.85,0,0,1,.74-.65,1.5,1.5,0,0,0-.18.24c.05.09.12.19.18.28-.13.22-.39.33-.57.5A3,3,0,0,1,29.05,25.58Z"/><path id="Tracé_13605" data-name="Tracé 13605" class="cls-1" d="M15.76,25.46h.31l.13.47c-.11.22-.37.3-.57.4l.31.19c.09-.08.17-.13.26-.2l.2.11c0,.17,0,.41-.17.48l-.37-.06c.1,0,.28-.13.37-.16a8.08,8.08,0,0,0-.85-.2c0-.11.09-.22.13-.34s-.22-.07-.31-.09A2.58,2.58,0,0,1,16,25.9C15.92,25.76,15.83,25.61,15.76,25.46Z"/><path id="Tracé_13607" data-name="Tracé 13607" class="cls-1" d="M13.9,26.31c-.22-.14.08-.5.28-.48A.48.48,0,0,1,13.9,26.31Z"/><path id="Tracé_13608" data-name="Tracé 13608" class="cls-1" d="M13.33,26.72c.26.22.5.44.74.67a2.11,2.11,0,0,0-.33.18l-.17.56,0,0c0-.06-.13-.15-.16-.2s.13-.34.18-.52l-.22.15c0,.09-.08.26-.09.35-.06-.11-.1-.22-.15-.33a2.36,2.36,0,0,1-.08-.45c.08,0,.23.08.28.11A2.74,2.74,0,0,0,13.33,26.72Z"/><path id="Tracé_13609" data-name="Tracé 13609" class="cls-1" d="M15.26,27.61a2.29,2.29,0,0,1,.31-.18,1.51,1.51,0,0,0,0,.3l.24.16c0,.24,0,.5,0,.74-.31-.11-.39-.48-.67-.65-.3.15-.37.54-.55.8a1.15,1.15,0,0,1-.37-.5c-.19.26-.5.49-.52.84a2,2,0,0,0,.3.72l.52.46-.5-.05c.05.13.13.26.18.37a.61.61,0,0,1-.61-.58l.33.15a9.34,9.34,0,0,1-.53-1.54l.3,0c-.26-.11-.17-.35-.15-.58l0,0,.14,0a2.2,2.2,0,0,1,.75-.57v.63a3.31,3.31,0,0,1,.27-.26c.15,0,.32-.06.47-.09A1.17,1.17,0,0,1,15.26,27.61Z"/><path id="Tracé_13610" data-name="Tracé 13610" class="cls-1" d="M13.11,27.57a3.49,3.49,0,0,0,.15.34c.09.24-.12.48-.17.72-.22.54.2,1.06.06,1.61-.12-.33-.23-.65-.36-1C12.92,28.72,12.72,28.07,13.11,27.57Z"/><path id="Tracé_13611" data-name="Tracé 13611" class="cls-1" d="M14.89,29c.24-.09.46-.2.7-.3,0,.15,0,.31,0,.46l.41.48a.77.77,0,0,1,.44-.7c.15.28.35.57.72.54l-.28-.5.24-.15.75.44-.32.23a2.48,2.48,0,0,0,0,.38l-.46-.35c-.08.13-.13.26-.2.39.33.32.7.58,1,.89a4.06,4.06,0,0,1,.7.09l.45,0c.07.46.63.42.94.64l-.3.41-.09.11a2.4,2.4,0,0,0-.92.15c0-.22-.06-.46-.08-.69l.36-.22-.6-.09a1.56,1.56,0,0,1-.09.74L18,31.74a5.13,5.13,0,0,0-.42.33c-.24.06-.65-.09-.73.24a1.92,1.92,0,0,0-.22-.18c-.43-.06-1,.16-1.28-.2l.15-.28s0-.11.08-.17a1.45,1.45,0,0,1-.36,0,2,2,0,0,0-.57-.37c-.11-.2-.2-.44-.45-.48-.07-.13-.13-.26-.18-.37l.5.06c-.17-.15-.35-.3-.52-.47a2.26,2.26,0,0,0,.8-.25,2.21,2.21,0,0,0-.28-.32c-.11.07-.22.15-.35.22.07-.2.13-.52.41-.55Z"/><path id="Tracé_13612" data-name="Tracé 13612" class="cls-1" d="M22.28,30.59a8.14,8.14,0,0,1,1.62-.8c-.44.69-1.33.8-2,1.19-.15.11-.33,0-.48,0C21.72,30.85,22,30.74,22.28,30.59Z"/><path id="Tracé_13613" data-name="Tracé 13613" class="cls-1" d="M14.68,30c.28,0,.61-.13.76.16l-.35.06a1,1,0,0,1-.32.5C14.46,30.61,14.66,30.26,14.68,30Z"/><path id="Tracé_13614" data-name="Tracé 13614" class="cls-1" d="M22.13,31.2c.24-.13.46-.26.7-.37a2.69,2.69,0,0,1-.24.48C22.42,31.37,22.28,31.26,22.13,31.2Z"/><path id="Tracé_13615" data-name="Tracé 13615" class="cls-1" d="M13.89,31.19a2,2,0,0,1,.09.35l.2-.08c.05.36.5.13.74.15a3.66,3.66,0,0,1-.46-.18,5.21,5.21,0,0,1,1,.2c0,.07-.11.2-.15.27a1.47,1.47,0,0,1-.13.1l-.05.13a4.06,4.06,0,0,1-1.32-.41A5.24,5.24,0,0,0,13.89,31.19Z"/><path id="Tracé_13616" data-name="Tracé 13616" class="cls-1" d="M18.37,31.2c.2,0,.39.06.59.1-.11.07-.24.14-.35.22s.05.46.07.68l0,.09c-.39.1-.78.17-1.17.28v-.38h.63a.59.59,0,0,1,0-.14l-.61,0L18,31.7l.28.23A1.79,1.79,0,0,0,18.37,31.2Z"/></g></svg>