<svg id="Calque_1" data-name="Calque 1" xmlns="http://www.w3.org/2000/svg" viewBox="0 0 129.21 27.07"><defs><style>.cls-1{fill:#959595;}</style></defs><g id="Groupe_24961" data-name="Groupe 24961"><path id="Tracé_26920" data-name="Tracé 26920" class="cls-1" d="M65.63,27a2.91,2.91,0,0,1-2.77-2.84V12.41h5.62V24.15A2.91,2.91,0,0,1,65.64,27m54-13.44,8.73-8.7a2.81,2.81,0,1,0-3.92-4l0,0-8.75,8.71L106.91.87a2.81,2.81,0,0,0-4,4l8.73,8.7L103,22.22a2.8,2.8,0,0,0,3.91,4l0,0,8.72-8.68,8.71,8.68a2.81,2.81,0,0,0,4-4Zm-45,13.52a2.8,2.8,0,0,1-2.8-2.8V2.87a2.81,2.81,0,0,1,5.61,0V17.49L94.05.88a2.81,2.81,0,0,1,4,0,2.84,2.84,0,0,1,.83,2v21.4a2.81,2.81,0,0,1-5.61,0V9.64L76.62,26.25a2.8,2.8,0,0,1-2,.82M65.63,0a2.92,2.92,0,0,0-2.77,2.84v7.31h5.62V2.84A2.92,2.92,0,0,0,65.64,0M37.21,0l-.77,1.44-6,10.84-.77,1.37.77,1.37,6,10.49.8,1.44H52.85l.77-1.58,4.46-9,2-4.07H55.55l-11.4,0a2.81,2.81,0,0,0,0,5.61h0L51,18l-1.68,3.4H40.51l-4.39-7.72,4.42-8h9.4l2.19,4.5h5.65L54.22,1.61,53.45,0H37.21m-13,27a2.81,2.81,0,0,1-2-.83L5.61,9.59V24.21a2.81,2.81,0,0,1-5.61,0V2.81a2.81,2.81,0,0,1,4.79-2L21.4,17.44V2.81a2.81,2.81,0,0,1,5.61,0h0v21.4A2.79,2.79,0,0,1,24.22,27h0"/></g></svg>