<svg id="Calque_1" data-name="Calque 1" xmlns="http://www.w3.org/2000/svg" viewBox="0 0 88.15 66.93"><defs><style>.cls-1{fill:#959595;}</style></defs><g id="Groupe_22834" data-name="Groupe 22834"><path id="path4061" class="cls-1" d="M88.15,28.72H56.08V20.51H88.15Z"/><path id="path4103" class="cls-1" d="M84,28.72H56.08V8.19H84Z"/><path id="path4089" class="cls-1" d="M72.45,28.72H56.08V0H72.45Z"/><path id="path4075" class="cls-1" d="M75.68,28.72H56.08V3.2h19.6Z"/><path id="path4688" class="cls-1" d="M56.08,3.2V28.72H72.45V3.2Z"/><path id="path4119" class="cls-1" d="M39.65,28.72H56.08v4.11H39.65Z"/><path id="path4698" class="cls-1" d="M56.08,8.19V28.72H75.7V8.19Z"/><path id="path4693" class="cls-1" d="M56.08,8.19V28.72H72.45V8.19Z"/><path id="path4117" class="cls-1" d="M66.31,28.72H56.05V16.4H66.31Z"/><path id="path4713" class="cls-1" d="M56.08,20.53v8.21H84V20.53Z"/><path id="path4708" class="cls-1" d="M56.08,20.53v8.21H75.7V20.53Z"/><path id="path4703" class="cls-1" d="M56.08,20.53v8.21H72.45V20.53Z"/><path id="path4625" class="cls-1" d="M56.08,20.53v8.21H66.33V20.53Z"/><g id="g2925"><path id="path2850" class="cls-1" d="M59.66,44.19c-2.8.5-4.29,2.62-4.29,6.27s2,6.2,4.92,6.2c1.43,0,2.67-.5,5.29-1.79v3.05a15.85,15.85,0,0,1-7.51,1.86c-2.8,0-4.79-.68-6.32-2.37a8.5,8.5,0,0,1-2.5-6.14c0-5.29,4-9,9.75-9,3.78,0,6.45,1.79,6.45,4.36a2.81,2.81,0,0,1-2.76,2.86H62.4a5.29,5.29,0,0,1-2.72-.88"/><path id="path2852" class="cls-1" d="M45.67,51.26c2.55-3.17,3.48-4.46,3.48-6a2.92,2.92,0,0,0-2.92-2.92h0a3.43,3.43,0,0,0-2.37,1.06V49.9l-4.16,5.59V42.82h-4L29.1,53.68V42.82H26.86l-6,1.36v1.57l3.3.3V59.52h4.15l6.33-10.43V59.52h4.66"/><path id="path2862" class="cls-1" d="M8.24,57.41h.93c3.35,0,5.22-2,5.22-6.15,0-3.42-1.49-5.29-4.29-5.29a9,9,0,0,0-1.86.26V57.41Zm0,7.33,2.72.63v1.56H.23V65.37l2.49-.63V46H0V44.44l6.52-2H8.26v2.24c3.05-1.86,4.11-2.17,5.72-2.17,3.6,0,6.33,3.35,6.33,8,0,5.35-3.66,9-9.25,9-.63,0-1.69-.05-2.8-.13"/></g></g></svg>