<svg id="Calque_1" data-name="Calque 1" xmlns="http://www.w3.org/2000/svg" viewBox="0 0 166.06 39.08"><defs><style>.cls-1{fill:#959595;}</style></defs><g id="Groupe_24958" data-name="Groupe 24958"><path id="Tracé_26916" data-name="Tracé 26916" class="cls-1" d="M43.3,19.42a14.25,14.25,0,0,1,.47,2.75c0,3.8-4.28,5.91-9.89,5.91-12.7,0-23.81-7.43-23.81-12.35a4.88,4.88,0,0,1,.4-2C5.91,14,0,14.8,0,20c0,8.55,20.24,19.08,36.27,19.08,12.29,0,15.39-5.56,15.39-9.95,0-3.45-3-7.37-8.36-9.71m-8.84,3.1c3.4,0,8.31-.7,8.31-4.74a4.18,4.18,0,0,0-.08-.93l-2-8.78c-.47-1.93-.88-2.81-4.27-4.5C33.76,2.22,28,0,26.33,0s-2,2.05-3.92,2.05S19.26.52,17.56.52s-2.69,1.12-3.51,3.4c0,0-2.28,6.43-2.58,7.37a1.57,1.57,0,0,0-.06.53c0,2.5,9.85,10.71,23.06,10.71"/><path id="Tracé_26917" data-name="Tracé 26917" class="cls-1" d="M61.21,29.64h4.91V22.36h3.74l3.77,7.28h5.48l-4.4-8A6.06,6.06,0,0,0,78.48,16c0-3.6-2.83-6.37-7.06-6.37H61.21ZM71,13.86a2.27,2.27,0,1,1,.53,4.51,2.35,2.35,0,0,1-.53,0H66.12V13.86Zm8,8.25a7.93,7.93,0,0,0,8,7.82h.19a9,9,0,0,0,6.31-2.29l-3-2.71a4.1,4.1,0,0,1-3,1.15,3.91,3.91,0,0,1-3.71-2.4H94.43V22.53c0-4.79-3.22-8.24-7.62-8.24a7.74,7.74,0,0,0-7.87,7.63v.19m7.79-4.06a3.34,3.34,0,0,1,3.16,2.4h-6.3a3.13,3.13,0,0,1,3.13-2.4m21,11.59h4.57v-21l-4.62,1v5.68a7.78,7.78,0,1,0-4,14.5,6.8,6.8,0,0,0,4-1.31Zm-7.22-7.56a3.83,3.83,0,0,1,3.82-3.83h.15a4.74,4.74,0,0,1,3.2,1.17V24.7a4.37,4.37,0,0,1-3.2,1.2,3.84,3.84,0,0,1-4-3.71v-.11m18.71,7.56h4.91V21.82h8.22v7.82h4.91v-20h-4.91v7.68h-8.22V9.66h-4.91Zm25.09.26a7,7,0,0,0,4.17-1.17v.91H153V20c0-3.68-2.48-5.71-6.62-5.71a16.73,16.73,0,0,0-7.05,1.66l1.66,3.4a12.1,12.1,0,0,1,4.57-1.2c1.91,0,2.88.74,2.88,2.25v.74a13.66,13.66,0,0,0-3.43-.43c-3.88,0-6.22,1.63-6.22,4.54,0,2.66,2.11,4.68,5.48,4.68m-1.41-4.77c0-1,1-1.48,2.51-1.48a11.43,11.43,0,0,1,2.74.35v1.94a5.77,5.77,0,0,1-2.88.71c-1.49,0-2.37-.57-2.37-1.52m14.37-.08c0,3.23,1.94,4.79,5.48,4.79a13.6,13.6,0,0,0,3.23-.45V25.65a6.74,6.74,0,0,1-2.09.31c-1.45,0-2-.45-2-1.82V18.4h4.23V14.55h-4.23V9.67l-4.62,1v3.88h-3.05V18.4h3.05Z"/></g></svg>