<svg id="Calque_1" data-name="Calque 1" xmlns="http://www.w3.org/2000/svg" viewBox="0 0 146.11 52.23"><defs><style>.cls-1{fill:#959595;}</style></defs><g id="Groupe_22848" data-name="Groupe 22848"><path id="Tracé_24083" data-name="Tracé 24083" class="cls-1" d="M47.16,32.08v5a.29.29,0,0,1-.14.24,12.24,12.24,0,0,1-6.37,2.73,12.71,12.71,0,0,1-8.28-1.88,14.64,14.64,0,0,1-5.17-5.54A13.32,13.32,0,0,1,25.69,26a13.73,13.73,0,0,1,1.21-5.72,13.43,13.43,0,0,1,9.58-7.84,15,15,0,0,1,8.07.37,13.07,13.07,0,0,1,7.28,6,14.72,14.72,0,0,1,1.86,5.71,23.89,23.89,0,0,1,.18,3.05V51.9c0,.26,0,.33-.32.33-1.4,0-2.8,0-4.19,0-.21,0-.27,0-.27-.26q0-12,0-23.91a14.07,14.07,0,0,0-1-5.6,8.59,8.59,0,0,0-6-5.35A9.19,9.19,0,0,0,30.9,23.79c-.06.23-.11.47-.15.71a9.31,9.31,0,0,0,4.88,10,9.81,9.81,0,0,0,7.5.36,11.14,11.14,0,0,0,2.76-1.73C46.31,32.81,46.71,32.46,47.16,32.08Z"/><path id="Tracé_24084" data-name="Tracé 24084" class="cls-1" d="M139.37,20.14c-.49-.43-1-.83-1.42-1.2a9.14,9.14,0,0,0-4.42-2.05,9,9,0,0,0-7.76,2.25,8.86,8.86,0,0,0-2.87,6,9.46,9.46,0,0,0,1.23,5.84,8.84,8.84,0,0,0,5.75,4.24,10.41,10.41,0,0,0,4.16,0,7.72,7.72,0,0,0,3.78-1.73,8.85,8.85,0,0,0,2-2.75,13.79,13.79,0,0,0,1.44-5.34c0-.6,0-1.2,0-1.8V.29c0-.25.07-.29.3-.29h4.19c.24,0,.28.08.28.29v19.5c0,1.73,0,3.46,0,5.19a17.33,17.33,0,0,1-1.18,6.6,13.45,13.45,0,0,1-6.49,7.14,12.82,12.82,0,0,1-4.62,1.3,15.43,15.43,0,0,1-6-.48,13.7,13.7,0,0,1-7.4-5.4A13.37,13.37,0,0,1,118.06,28,15.58,15.58,0,0,1,118,24a12.72,12.72,0,0,1,2.22-5.82A14.23,14.23,0,0,1,126.75,13a12.94,12.94,0,0,1,5.84-.83,11.82,11.82,0,0,1,6.65,2.73.32.32,0,0,1,.16.28c0,1.62,0,3.24,0,4.86A.61.61,0,0,0,139.37,20.14Z"/><path id="Tracé_24085" data-name="Tracé 24085" class="cls-1" d="M107.61,32.2a.46.46,0,0,1,0,.26V37a.39.39,0,0,1-.13.32,11.09,11.09,0,0,1-5.09,2.56,15.13,15.13,0,0,1-5,0,13.7,13.7,0,0,1-10.36-8.53,14.38,14.38,0,0,1-.88-4.3,14.81,14.81,0,0,1,.41-4.55,13.47,13.47,0,0,1,3.62-6.23,13.89,13.89,0,0,1,4-2.87,13.41,13.41,0,0,1,4.89-1.27,15.21,15.21,0,0,1,4.31.25,13.25,13.25,0,0,1,9.46,7.47,14.59,14.59,0,0,1,1.46,6.43c0,4.33,0,8.67,0,13,0,.19,0,.23-.24.23q-2.13,0-4.26,0c-.23,0-.27-.06-.27-.27V27.69a13.63,13.63,0,0,0-1-5.42,9,9,0,0,0-4-4.47,8.69,8.69,0,0,0-3.31-.94,9,9,0,0,0-3.76.36,9.5,9.5,0,0,0-5.92,12.05,7.85,7.85,0,0,0,.32.8,8.89,8.89,0,0,0,6.74,5.19,9.37,9.37,0,0,0,7.09-1.64,18.64,18.64,0,0,0,1.72-1.32Z"/><path id="Tracé_24086" data-name="Tracé 24086" class="cls-1" d="M82.48,21c0,2.66,0,5.32,0,8a11.69,11.69,0,0,1-1.9,6.28,10.46,10.46,0,0,1-7.22,4.69,13.55,13.55,0,0,1-6.6-.4,10.35,10.35,0,0,1-6.12-5.17,12.35,12.35,0,0,1-1.4-5.45c-.09-2,0-4.05,0-6.08,0-3.29,0-6.58,0-9.87,0-.22.07-.26.27-.26h4.27c.2,0,.24.06.24.25Q63.93,20,64,27a11.36,11.36,0,0,0,.81,4.5A5.93,5.93,0,0,0,70,35.37a6.74,6.74,0,0,0,4.69-1.16,6.63,6.63,0,0,0,2.81-4.47,18.16,18.16,0,0,0,.25-3V13c0-.23.05-.29.28-.29h4.22c.2,0,.26,0,.26.26,0,2.67,0,5.35,0,8Z"/><path id="Tracé_24087" data-name="Tracé 24087" class="cls-1" d="M8,39.56H1.32c-.19,0-.25-.05-.24-.25q0-1.83,0-3.66c0-.21.06-.24.25-.24H12a27.45,27.45,0,0,0,3.14-.1A4.28,4.28,0,0,0,17,34.58a1.91,1.91,0,0,0,.72-1.4,2.82,2.82,0,0,0-.81-2.71,4.32,4.32,0,0,0-1.49-.84L5.09,26a10.71,10.71,0,0,1-2.74-1.39A5.23,5.23,0,0,1,.18,21.24a8.31,8.31,0,0,1,0-3.58,5.59,5.59,0,0,1,3.31-3.9,12.41,12.41,0,0,1,4.06-1,30.41,30.41,0,0,1,3.44-.1h9.36c.21,0,.28,0,.27.27,0,1.21,0,2.43,0,3.64,0,.2,0,.24-.25.24H9.55a8.29,8.29,0,0,0-2.8.35,2.67,2.67,0,0,0-.48,4.93,15.91,15.91,0,0,0,2.32.9c2.13.77,4.28,1.52,6.42,2.28a39.8,39.8,0,0,1,3.81,1.45,9.39,9.39,0,0,1,2,1.28,5.06,5.06,0,0,1,1.72,3.17,8.39,8.39,0,0,1-.23,3.89,5.76,5.76,0,0,1-3.69,3.74,12.37,12.37,0,0,1-4.38.74c-2.07,0-4.14,0-6.21,0Z"/></g></svg>