<svg id="Calque_1" data-name="Calque 1" xmlns="http://www.w3.org/2000/svg" viewBox="0 0 93.59 65.24"><defs><style>.cls-1{fill:#959595;}</style></defs><path id="Tracé_20109" data-name="Tracé 20109" class="cls-1" d="M44.77.26h0A20.11,20.11,0,0,0,41,.94l-.08,0-.09,0h0l0,.1C40.06,3.57,36.63,6.27,35,7.57l-.69.55-.59.5A40.65,40.65,0,0,0,30,12.06a24.38,24.38,0,0,0-3.12,4.1,12.75,12.75,0,0,0-1.52,4.39,14.61,14.61,0,0,0-.2,2.38c0,.31,0,.6,0,.88l0,.27A8.56,8.56,0,0,0,25.53,26h0l0-.16.24-.86.07-.23.31-1a14.62,14.62,0,0,1,3.08-5.13,34.34,34.34,0,0,1,9.17-6.83,35.15,35.15,0,0,0,6.67-4.53A16.77,16.77,0,0,0,49.54.81l.19-.44s-.13,0-.13,0A21.09,21.09,0,0,0,44.77.25Z"/><path id="Tracé_20110" data-name="Tracé 20110" class="cls-1" d="M50.42,10.74h0a42.57,42.57,0,0,0-15.14,5.79c-5.18,3.35-7.86,6.74-9,11.33a1.17,1.17,0,0,0,0,.37,7.76,7.76,0,0,0,.92,3,13.34,13.34,0,0,0,1,1.67l.06.09,0-.16a10.76,10.76,0,0,1,.51-1.93c.65-1.74,2.16-5.8,9.1-9.14A43.14,43.14,0,0,1,51.74,18a75.3,75.3,0,0,1,16.16-.47H68v0a21.11,21.11,0,0,0-2.26-6.14l-.66-1.14L64.87,10l-.06-.09-.06,0-.21,0a35.75,35.75,0,0,0-3.65-.14,53.5,53.5,0,0,0-10.48,1.1ZM68,17.57h0Z"/><path id="Tracé_20111" data-name="Tracé 20111" class="cls-1" d="M.86,53.18a3.31,3.31,0,0,0,1,2.51c.72.72,1.38,1,3.36,1.92,2.58,1.15,3.82,1.79,3.82,3.65a3.16,3.16,0,0,1-3.21,3.1h-.2a5.83,5.83,0,0,1-3.5-1.06A4.19,4.19,0,0,1,.69,60.72s-.07-.27-.07-.27c-.43,0-.46.26-.46.34,0,.67.23,2.77.37,3.8a.94.94,0,0,0,.07.3H.7l.19-.08.41-.14.73.08a22.32,22.32,0,0,0,3.37.29A6.55,6.55,0,0,0,9.66,64a3.93,3.93,0,0,0,1.57-3.18c0-2.71-2.26-3.7-4.26-4.57l-.11-.05c-2.9-1.27-4.1-1.8-4.1-3.74a2.85,2.85,0,0,1,2.79-2.9h.33a4.34,4.34,0,0,1,2.52.71,3.78,3.78,0,0,1,1.41,2.18l.13.34c.18,0,.4,0,.4-.17l-.1-1.12,0-.21c0-.64-.05-1.27,0-1.91v-.26a.64.64,0,0,1-.2,0l-.3.11-.49-.06-.83-.1C7.65,49,6.81,49,6.18,49,2.89,49,.86,50.57.86,53.17Z"/><path id="Tracé_20112" data-name="Tracé 20112" class="cls-1" d="M25.46,54.51c-.05,0-.07.17-.07.17v.14h.18c.41,0,1.34.06,1.34.94a7.15,7.15,0,0,1-.63,2l0,.08-2.13,4.74a.17.17,0,0,1-.21.09.18.18,0,0,1-.09-.1c-.35-1-2.14-6.35-2.14-6.86,0-.75.56-.79,1.34-.84l.18,0h0s0-.17,0-.17v-.15h-.1l-2.26,0-2.4,0c-.13,0-.14,0-.14.19l0,.11c.5.08.7.11,1,.41a13.05,13.05,0,0,1,1.05,2.35.13.13,0,0,1,0,.12l-2.37,5a.17.17,0,0,1-.22.08.24.24,0,0,1-.08-.09l-1.23-3.16-.4-1L16,58.22a11.5,11.5,0,0,1-.72-2.43c0-.57.35-.84,1.17-.92l.18,0v0c0-.05,0-.13,0-.13l0-.16-2.4,0-2,0h-.11s0,.1,0,.1c0,.19,0,.19.2.29s.52.46.94,1.32c.92,2,2.35,5.77,3.23,8.3,0,0,.16.38.16.38s.82-.13.82-.13l.08,0h0a1.71,1.71,0,0,1,.07-.18c.81-1.83,1.19-2.64,2.86-5.88a.16.16,0,0,1,.22-.07.24.24,0,0,1,.08.09c.94,2.65,1.59,4.73,1.85,5.7a2.6,2.6,0,0,0,.16.47l.64-.09a.37.37,0,0,0,.37-.25l.63-1.43.22-.46c.77-1.67,1.64-3.56,2.22-4.64.74-1.4,1.58-2.86,2.17-3.14.14-.09.16-.09.16-.26l0-.11h-.63l-1.07,0-1.45,0h-.53Z"/><path id="Tracé_20113" data-name="Tracé 20113" class="cls-1" d="M31.83,49.4a1.27,1.27,0,0,0,1.09,1.09A1.15,1.15,0,1,0,33,48.2h0a1.37,1.37,0,0,0-1.16,1.2Zm1.28,4.92L31.62,55l-1.14.53h0l-.07,0c-.17.08-.19.1-.19.24v.13l.27.05c1.35.17,1.35.65,1.35,3.27a22.49,22.49,0,0,1-.21,4.18c-.19.6-.54.85-1.42,1-.27.06-.27.06-.27.24v.12l1,0,1.9,0,2.09,0,.61,0h.1s0-.18,0-.18l0-.15-.23,0c-1-.05-1.58-.13-1.73-1a33.2,33.2,0,0,1-.12-4.11l.07-3.61s.1-1.53.1-1.53-.09-.06-.09-.06a1.34,1.34,0,0,0-.56.16Z"/><path id="Tracé_20114" data-name="Tracé 20114" class="cls-1" d="M37.36,57.13c0,1.7,1.49,2.4,2.81,3,1.58.74,2.62,1.32,2.62,2.52a1.87,1.87,0,0,1-1.88,1.86l-.26,0a3.27,3.27,0,0,1-3.26-2.4l-.1-.31c-.22,0-.33,0-.33.1l0,.54.06,1,0,.81v.42l0,.16.18,0,.18,0,.26,0,.36,0A12.26,12.26,0,0,0,40.3,65c.72,0,4.3-.14,4.3-2.89,0-1.79-1.64-2.55-3-3.16-1.91-.9-2.7-1.37-2.7-2.45a1.66,1.66,0,0,1,1.62-1.7h.27a2.9,2.9,0,0,1,2.72,1.9l.11.23h0a1,1,0,0,0,.35,0h0v-.1l-.12-1.5,0-.6s-.05-.3-.05-.3a.59.59,0,0,1-.19.05l-.18,0-.4,0a14.78,14.78,0,0,0-1.75-.16c-3.73,0-3.92,2.35-3.92,2.82Z"/><path id="Tracé_20115" data-name="Tracé 20115" class="cls-1" d="M46.67,57.13c0,1.7,1.5,2.4,2.81,3,1.59.74,2.62,1.32,2.62,2.52a1.85,1.85,0,0,1-1.87,1.86l-.27,0a3.27,3.27,0,0,1-3.26-2.4l-.1-.31c-.22,0-.33,0-.33.1l0,.54.06,1v1.23l0,.16.19,0,.18,0,.26,0,.35,0a12.37,12.37,0,0,0,2.27.21c.71,0,4.3-.14,4.3-2.89,0-1.79-1.65-2.55-3-3.16-1.92-.9-2.7-1.37-2.7-2.45a1.65,1.65,0,0,1,1.62-1.7h.26a2.91,2.91,0,0,1,2.73,1.9s.1.23.1.23h0a1.17,1.17,0,0,0,.36,0h0v-.1l-.12-1.5-.06-.6s0-.3,0-.3a.61.61,0,0,1-.18.05l-.19,0-.4,0a14.42,14.42,0,0,0-1.74-.16c-3.73,0-3.92,2.35-3.92,2.82Z"/><path id="Tracé_20116" data-name="Tracé 20116" class="cls-1" d="M61.22,49.22l-1.87.06-3-.1h-.11v0c0,.06,0,.18,0,.18v.07a1.86,1.86,0,0,0,.48.09c1.41.23,1.54.84,1.54,2.54v3.63c0,2.07,0,5.19-.15,6.75-.1.82-.21,1.83-1.83,2l-.27,0v0s0,.17,0,.17l0,.15.12,0,.3,0c.57,0,1.9-.11,5.34-.11s4.65.08,5.2.11l.43,0c.11,0,.15-.07.29-.57a17.22,17.22,0,0,0,.68-3.43s0-.11-.39-.11a1.63,1.63,0,0,0-.13.39,3.94,3.94,0,0,1-1.49,2.27c-.92.54-2.68.54-4.24.54-1,0-1.58,0-1.73-.75a44,44,0,0,1-.2-5.74,63.58,63.58,0,0,1,.23-6.62c.17-1,.78-1.2,1.84-1.28l.29-.05,0-.21c0-.1,0-.12-.12-.12l-1.28,0Z"/><path id="Tracé_20117" data-name="Tracé 20117" class="cls-1" d="M71.55,49.4a1.29,1.29,0,0,0,1.1,1.09,1.15,1.15,0,0,0,.07-2.29,1.39,1.39,0,0,0-1.17,1.2Zm1.29,4.92-1.5.68-1.14.53h0l-.07,0c-.17.08-.18.1-.18.24v.13l.27.05c1.35.17,1.35.65,1.35,3.27a23.38,23.38,0,0,1-.2,4.18c-.2.6-.54.85-1.43,1-.27.06-.27.06-.27.24v.12l1,0,1.9,0,2.09,0,.62,0h.1s0-.18,0-.18l0-.15-.23,0c-1-.05-1.58-.13-1.73-1a31.36,31.36,0,0,1-.12-4.11l.07-3.63.1-1.51s-.09-.06-.09-.06a1.34,1.34,0,0,0-.56.16Z"/><path id="Tracé_20118" data-name="Tracé 20118" class="cls-1" d="M79.63,49.92h0c-1.1,1.41-1.12,2.38-1.17,4.51a.15.15,0,0,1-.1.14l-1.35.6a1.15,1.15,0,0,0,0,.26v.12l1.29,0a.15.15,0,0,1,.11,0,.17.17,0,0,1,.05.12l-.05,6.81c0,1.41-.22,1.79-1.41,2l-.18,0h0s0,.16,0,.16l0,.19s.72,0,.72,0l1.55,0,2.51,0,.87,0c.34,0,.34,0,.34-.24v-.16l-.19,0c-1.74,0-2.3-.24-2.35-1.76l0-7a.17.17,0,0,1,.16-.16h3.4c.17,0,.17,0,.17-.46v-.14l0-.35-3.55,0a.17.17,0,0,1-.17-.16c0-3.88.13-5.74,3-5.74a3.31,3.31,0,0,1,2.34.74l.2.17c.12.11.24.21.3.21s1.19-.46,1.19-.91-1-1.44-2.8-1.44a6.25,6.25,0,0,0-4.78,2.49Z"/><path id="Tracé_20119" data-name="Tracé 20119" class="cls-1" d="M84.77,60.21c0,1.13.3,4.82,4.2,4.82a6.85,6.85,0,0,0,4.22-1.56c.22-.17.25-.23.25-.33l0-.2,0-.08a5.66,5.66,0,0,1-3.2,1.07c-3,0-3.49-3-3.54-4.33h0a.16.16,0,0,1,.13-.16c1.8-.36,4.17-.83,6.63-1.21v0a6.5,6.5,0,0,0-.2-1.17,3.6,3.6,0,0,0-3.55-2.7c-2.4,0-4.87,2.2-4.87,5.9Zm1.89-1.28a.16.16,0,0,1-.06-.12c0-2,.76-3.92,2.34-3.92a2.7,2.7,0,0,1,2.39,2.49c0,.4-.28.62-1,.81-1.82.45-2.46.6-3.52.78a.18.18,0,0,1-.13,0Z"/><path id="Tracé_20120" data-name="Tracé 20120" class="cls-1" d="M49.63.2A21.54,21.54,0,0,0,44.75.09a22.39,22.39,0,0,0-3.81.69.65.65,0,0,0-.23.09.31.31,0,0,0-.09.18c-.82,2.85-5.33,6-6.44,7a47.6,47.6,0,0,0-4.34,3.94,24.32,24.32,0,0,0-3.15,4.14,13,13,0,0,0-1.54,4.44,14,14,0,0,0-.17,3.3h0s0,.2,0,.28A8.34,8.34,0,0,0,25.38,26c0,.11.07.24.16.24s.11-.16.14-.26.16-.61.28-1,.23-.76.38-1.23a14.45,14.45,0,0,1,3.05-5.07c5.27-5.79,11-7,15.83-11.35A17.42,17.42,0,0,0,49.84.54c0-.09.09-.16,0-.23s-.14-.08-.25-.1Z"/><path id="Tracé_20121" data-name="Tracé 20121" class="cls-1" d="M68.13,17.5a21.35,21.35,0,0,0-2.28-6.19c-.2-.41-.61-1-.84-1.43a.41.41,0,0,0-.15-.17c-.08-.09-.32-.09-.32-.09a35.18,35.18,0,0,0-3.65-.14h0a53.62,53.62,0,0,0-10.5,1.1,42.73,42.73,0,0,0-15.2,5.82c-4.48,2.9-7.77,6.18-9,11.43a6.59,6.59,0,0,0,.9,3.49,17,17,0,0,0,1.09,1.83c.05.07.11.15.17.12s.05-.06.06-.15A11.91,11.91,0,0,1,28.93,31c.69-1.86,2.27-5.8,9-9a43.42,43.42,0,0,1,13.82-3.73,74.38,74.38,0,0,1,16.13-.47c.1,0,.21,0,.24,0a.34.34,0,0,0,0-.2Z"/><g id="Groupe_19244" data-name="Groupe 19244"><path id="Tracé_20122" data-name="Tracé 20122" class="cls-1" d="M68.43,19.38a.4.4,0,0,0-.1-.26.32.32,0,0,0-.19-.07c-1.33-.11-2.79-.15-4.45-.13C54.3,19,42.32,21.41,37,26.6A9.41,9.41,0,0,0,34.24,36a9.65,9.65,0,0,0,7,7,6.29,6.29,0,0,0,2,.25s.16,0,.18-.07S43.3,43,43.3,43s-.42-.36-.66-.61a5.73,5.73,0,0,1-.57-.73,8.6,8.6,0,0,1-1-2.28,5.84,5.84,0,0,1,1.63-5.8C45.36,30.83,51.2,29,61.42,29l5.64.1a.38.38,0,0,0,.24-.06s0,0,.11-.21a22.28,22.28,0,0,0,1-4.83A24,24,0,0,0,68.43,19.38Zm-1.88,5.55H64.31v2.25h-2V24.93H60.1V23h2.25V20.72h2V23h2.25Z"/></g><path id="Tracé_20123" data-name="Tracé 20123" class="cls-1" d="M9.76,64.09a6.79,6.79,0,0,1-4.35,1.13,35.27,35.27,0,0,1-4.11-.38c-.3,0-.33.23-.6.23S.43,65,.38,64.62C.22,63.57,0,61.46,0,60.79c0-.23.15-.5.6-.5.17,0,.2.15.25.4a4,4,0,0,0,1.4,2.48,5.72,5.72,0,0,0,3.4,1,3,3,0,0,0,3.24-2.71c0-.07,0-.14,0-.22,0-1.75-1.16-2.35-3.73-3.5a10,10,0,0,1-3.4-1.95A3.49,3.49,0,0,1,.7,53.18c0-2.55,1.9-4.38,5.48-4.38a21.06,21.06,0,0,1,2.2.13l1.3.15a.55.55,0,0,0,.25-.1.54.54,0,0,1,.25,0c.15,0,.17.1.17.25,0,.69,0,1.37,0,2,0,.5.13,1.23.13,1.36s-.33.32-.56.32-.17-.07-.3-.45a3.56,3.56,0,0,0-1.35-2.1,4.26,4.26,0,0,0-2.43-.68,2.7,2.7,0,0,0-2.94,2.44,2.81,2.81,0,0,0,0,.29c0,1.86,1.18,2.36,4.08,3.63,2,.88,4.38,1.9,4.38,4.73a4.09,4.09,0,0,1-1.62,3.3Z"/><path id="Tracé_20124" data-name="Tracé 20124" class="cls-1" d="M29.06,55c-.57.28-1.47,1.9-2.1,3.08s-1.62,3.36-2.42,5.08c-.18.43-.55,1.28-.63,1.43a.54.54,0,0,1-.5.35l-.63.08c-.17,0-.2,0-.35-.58-.3-1.1-1-3.23-1.85-5.68-1.7,3.3-2.08,4.1-2.85,5.86-.1.27-.1.27-.28.3l-.88.12c-.1,0-.12-.07-.27-.47-.85-2.46-2.3-6.29-3.23-8.29-.37-.78-.6-1.13-.83-1.23s-.32-.15-.32-.45.05-.27.28-.27l2,0,2.46,0c.1,0,.12.15.12.32s0,.33-.32.35c-.8.08-1,.33-1,.75a14.25,14.25,0,0,0,.8,2.63c.4,1,.8,2.1,1.63,4.18.45-.92,1.85-3.83,2.37-5a13.52,13.52,0,0,0-1-2.3c-.23-.25-.38-.28-.85-.35-.15,0-.18-.13-.18-.28s.05-.35.3-.35l2.4,0,2.26,0c.25,0,.27.1.27.32s0,.33-.32.38c-.78,0-1.2.07-1.2.68,0,.45,1.65,5.45,2.12,6.8.75-1.62,1.63-3.53,2.13-4.73a7.77,7.77,0,0,0,.65-2.05c0-.65-.6-.75-1.17-.77-.33,0-.36,0-.36-.3s0-.33.23-.33,1.18,0,2,0c.6,0,1.32,0,1.65,0,.17,0,.22.1.22.28s-.07.3-.25.4Z"/><path id="Tracé_20125" data-name="Tracé 20125" class="cls-1" d="M35.57,65c-.35,0-1.48,0-2.7,0-1,0-2.38,0-2.85,0-.18,0-.23,0-.23-.28s.05-.32.4-.4c.83-.15,1.13-.35,1.3-.9a22.83,22.83,0,0,0,.2-4.13c0-2.6,0-2.95-1.2-3.1-.4-.08-.42-.08-.42-.35s.12-.3.35-.43c.47-.2,2-1,2.63-1.2a1.47,1.47,0,0,1,.62-.17c.18,0,.25.07.25.22,0,.35-.07,1.1-.1,1.5,0,.58-.07,1.7-.07,3.63,0,.78,0,3.53.12,4.08.13.7.6.78,1.58.83.35,0,.4.07.4.35s-.08.35-.28.35ZM32.92,50.65a1.43,1.43,0,0,1-1.25-1.25A1.54,1.54,0,0,1,33,48a1.3,1.3,0,1,1-.07,2.6Z"/><path id="Tracé_20126" data-name="Tracé 20126" class="cls-1" d="M40.3,65.19A14.27,14.27,0,0,1,38,65c-.23,0-.43-.08-.53-.08s-.25,0-.35,0-.2-.13-.2-.33,0-.7,0-1.22-.1-1.28-.1-1.5.2-.25.48-.25.17,0,.27.42a3.1,3.1,0,0,0,3.1,2.28c1.6,0,2-1.05,2-1.68,0-1.07-.88-1.6-2.53-2.37-1.4-.65-2.9-1.38-2.9-3.16,0-1.15.8-3,4.08-3a21.53,21.53,0,0,1,2.15.2c.08,0,.25-.05.35-.05s.18.05.23.43c.05.57.17,1.7.17,2.1,0,.22,0,.3-.5.3-.12,0-.17-.05-.27-.33A2.81,2.81,0,0,0,40.83,55a1.51,1.51,0,0,0-1.71,1.26,2.45,2.45,0,0,0,0,.27c0,1,.68,1.4,2.6,2.3,1.35.63,3.06,1.43,3.06,3.3,0,2.6-3,3.05-4.46,3.05Z"/><path id="Tracé_20127" data-name="Tracé 20127" class="cls-1" d="M49.61,65.19A14.37,14.37,0,0,1,47.26,65c-.22,0-.42-.08-.52-.08s-.25,0-.35,0-.2-.13-.2-.33,0-.7,0-1.22-.1-1.28-.1-1.5.2-.25.48-.25.17,0,.27.42A3.1,3.1,0,0,0,50,64.34c1.6,0,2-1.05,2-1.68,0-1.07-.88-1.6-2.53-2.37-1.4-.65-2.9-1.38-2.9-3.16,0-1.15.8-3,4.08-3a21.53,21.53,0,0,1,2.15.2c.08,0,.25-.05.35-.05s.18.05.23.43c0,.57.17,1.7.17,2.1,0,.22-.05.3-.5.3-.12,0-.17-.05-.27-.33A2.81,2.81,0,0,0,50.14,55a1.5,1.5,0,0,0-1.71,1.26,1.23,1.23,0,0,0,0,.27c0,1,.68,1.4,2.6,2.3,1.35.63,3.06,1.43,3.06,3.3,0,2.6-3,3.05-4.46,3.05Z"/><path id="Tracé_20128" data-name="Tracé 20128" class="cls-1" d="M67.91,64.29c-.15.53-.2.73-.45.73-.52,0-.95-.13-5.63-.13-4.33,0-5.33.13-5.63.13s-.3-.08-.3-.33,0-.35.42-.4c1.45-.12,1.58-1,1.68-1.83.15-1.55.15-4.68.15-6.73V52.1c0-1.68-.13-2.18-1.4-2.38-.58-.07-.63-.1-.63-.32s.05-.38.28-.38c.78,0,2.23.1,3,.1.93,0,2.53-.1,3.16-.1a.24.24,0,0,1,.27.2.11.11,0,0,1,0,.08c0,.35,0,.37-.45.42-1.1.08-1.55.33-1.7,1.15a63,63,0,0,0-.22,6.59,43.6,43.6,0,0,0,.2,5.71c.12.6.52.62,1.57.62,1.56,0,3.28,0,4.16-.52a3.68,3.68,0,0,0,1.4-2.13c.1-.35.15-.55.3-.55.48,0,.55.1.55.27a15.91,15.91,0,0,1-.68,3.43Z"/><path id="Tracé_20129" data-name="Tracé 20129" class="cls-1" d="M75.3,65c-.35,0-1.48,0-2.7,0-1,0-2.38,0-2.86,0-.17,0-.22,0-.22-.28s0-.32.4-.4c.83-.15,1.13-.35,1.3-.9a22.83,22.83,0,0,0,.2-4.13c0-2.6,0-2.95-1.2-3.1-.4-.08-.43-.08-.43-.35s.13-.3.35-.43c.48-.2,2-1,2.63-1.2A1.52,1.52,0,0,1,73.4,54c.17,0,.25.07.25.22,0,.35-.08,1.1-.1,1.5,0,.58-.08,1.7-.08,3.63a40.42,40.42,0,0,0,.13,4.08c.12.7.6.78,1.58.83.35,0,.4.07.4.35s-.08.35-.28.35ZM72.64,50.65a1.44,1.44,0,0,1-1.25-1.25A1.55,1.55,0,0,1,72.72,48a1.3,1.3,0,1,1-.08,2.6Z"/><path id="Tracé_20130" data-name="Tracé 20130" class="cls-1" d="M86,50c-.15,0-.3-.18-.6-.43a3.14,3.14,0,0,0-2.23-.7c-2.7,0-2.82,1.65-2.82,5.58h3.5c.25,0,.22.08.22.63s0,.63-.32.63h-3.4c0,2.32,0,5.48,0,7s.52,1.6,2.2,1.6c.32,0,.35.07.35.35s0,.4-.5.4-2.2,0-3.38,0c-.86,0-1.9,0-2.3,0-.13,0-.15-.15-.15-.33s0-.32.32-.37c1-.15,1.23-.4,1.28-1.8,0-1.65,0-5,0-6.81H77c-.15,0-.15,0-.15-.25s0-.33.12-.4l1.36-.6c0-2.18.07-3.15,1.2-4.61a6.39,6.39,0,0,1,4.9-2.55c1.88,0,3,.9,3,1.6S86.21,50,86,50Z"/><path id="Tracé_20131" data-name="Tracé 20131" class="cls-1" d="M93.3,63.59A7,7,0,0,1,89,65.19c-3.6,0-4.36-3.08-4.36-5,0-3.91,2.65-6.06,5-6.06A3.77,3.77,0,0,1,93.34,57c.15.6.28,1.35.15,1.38-2.25.35-4.48.77-6.71,1.22.08,1.76.76,4.18,3.38,4.18a5.36,5.36,0,0,0,3.2-1.1c.08-.07.13-.1.15,0l.08.48c0,.17-.08.27-.3.45Zm-4.36-8.54c-1.47,0-2.15,1.9-2.18,3.76,1.06-.18,1.7-.33,3.51-.78.77-.2.9-.4.9-.65A2.56,2.56,0,0,0,88.94,55.05Z"/></svg>