<svg id="Calque_1" data-name="Calque 1" xmlns="http://www.w3.org/2000/svg" viewBox="0 0 144.76 48.97"><defs><style>.cls-1{fill:#959595;}</style></defs><g id="Groupe_24956" data-name="Groupe 24956"><path id="Tracé_26905" data-name="Tracé 26905" class="cls-1" d="M42,33.08a18.51,18.51,0,0,1-7.28,14.13,6.75,6.75,0,0,1-3,1,20.69,20.69,0,0,1-15.34-2.34,15,15,0,0,1-5.07-5Q7.93,35.44,4.58,30c-.74-1.21-.52-2,.76-2.66s2.79-1.51,4.19-2.26a1.79,1.79,0,0,1,2.5.4l0,0c.53.84.21,1.74-.86,2.33-.83.46-1.66.93-2.51,1.36-.39.2-.47.36-.23.74,2,3.24,3.93,6.51,6,9.7C16.65,43,20,44.72,24.07,45.38a18,18,0,0,0,8-.53,2,2,0,0,0,.79-.36c3.94-3.46,6.07-7.64,5.64-12.8a10.86,10.86,0,0,0-1.7-4.86q-2.79-4.48-5.54-9a1.55,1.55,0,0,1,.1-2.12,1.75,1.75,0,0,1,2.47,0,1.87,1.87,0,0,1,.33.45c1.32,2.13,2.63,4.26,3.92,6.41a38.78,38.78,0,0,1,2.74,4.71A14.41,14.41,0,0,1,42,33.08"/><path id="Tracé_26906" data-name="Tracé 26906" class="cls-1" d="M26.34,38.57a7.29,7.29,0,0,1-6.12-3.65c-2.73-4.4-5.42-8.81-8.13-13.23Q6.25,12.21.43,2.72A2,2,0,0,1,0,1.42,1.61,1.61,0,0,1,1.31.06a1.62,1.62,0,0,1,1.8.69c.51.74,1,1.52,1.43,2.29L22.88,32.88a6.06,6.06,0,0,0,1.23,1.57,3.43,3.43,0,0,0,3.15.8,1.72,1.72,0,0,1,2.14,1,1.61,1.61,0,0,1-1.08,2l-.21,0a6.63,6.63,0,0,1-1.77.24"/><path id="Tracé_26907" data-name="Tracé 26907" class="cls-1" d="M26.5,43.74c-4.74-.12-8.43-2-10.9-5.83-1.29-2-2.46-4-3.68-6.06a1.59,1.59,0,0,1,.28-2.22,1.4,1.4,0,0,1,.24-.15,1.76,1.76,0,0,1,2.39.73.21.21,0,0,1,0,.06q1.62,2.67,3.22,5.34c2.48,4.12,6.5,5.74,11.38,4.57.21,0,.43-.12.64-.16a1.7,1.7,0,0,1,2.08,1.13,1.57,1.57,0,0,1-1.12,1.92h0a16,16,0,0,1-4.55.66"/><path id="Tracé_26908" data-name="Tracé 26908" class="cls-1" d="M28.23,17.86a1.49,1.49,0,0,1-.86,1.21c-1.49.82-3,1.65-4.5,2.44A1.65,1.65,0,0,1,20.6,21l0-.05q-2.79-4.52-5.57-9a1.53,1.53,0,0,1,.38-2.13l.19-.11a1.73,1.73,0,0,1,2.37.64l0,.06c1.46,2.35,2.91,4.7,4.32,7.07.3.49.52.53,1,.24a24.15,24.15,0,0,1,2.45-1.32A1.7,1.7,0,0,1,28,17a1.79,1.79,0,0,1,.19.85"/><path id="Tracé_26909" data-name="Tracé 26909" class="cls-1" d="M135.45,38.56c-2.5,0-4.25-1.57-4.26-3.82a4.3,4.3,0,0,1,8.57,0c0,2.2-1.84,3.8-4.31,3.8m9.27-10.86c0-.4-.18-.46-.53-.45-1,0-2.09,0-3.13,0-1.26,0-1.26,0-1.45,1.17A10.47,10.47,0,0,0,133.38,27a7.51,7.51,0,0,0-5.62,2.88,8.1,8.1,0,0,0,0,9.76,7.45,7.45,0,0,0,5.64,2.83,9.82,9.82,0,0,0,6.29-1.69,3.4,3.4,0,0,1-2.94,3.8l-.18,0a11.45,11.45,0,0,1-7.34-1.1c-.38-.19-.53-.16-.69.22-.39,1-.79,1.91-1.26,2.83-.25.5-.09.65.38.86a17.75,17.75,0,0,0,9.44,1.3c4.85-.55,7.2-2.78,7.48-7.37s0-9.08.1-13.62"/><path id="Tracé_26910" data-name="Tracé 26910" class="cls-1" d="M109.59,37.76a4.23,4.23,0,0,1-5.68,1.91A4.17,4.17,0,0,1,102.16,38a4.79,4.79,0,0,1-.35-4.32,4.17,4.17,0,0,1,4.7-2.73,4.35,4.35,0,0,1,3.55,4,2.94,2.94,0,0,1,0,.42,4.42,4.42,0,0,1-.47,2.37m4.83-16.49c-1.24,0-2.48,0-3.72,0-.54,0-.71.1-.7.64,0,2.14,0,4.28,0,6.55l-.62-.34c-3.8-2.11-8.62-1.39-11.06,1.7a9.1,9.1,0,0,0-1.63,7.79c1.36,7,8.84,7.93,12.92,5a.36.36,0,0,1,.38-.12,3.85,3.85,0,0,1,0,.59c-.1.58.14.75.76.73,1.24-.05,2.48,0,3.72,0,.43,0,.54-.11.53-.51q0-10.76,0-21.52c0-.45-.15-.54-.59-.53"/><path id="Tracé_26911" data-name="Tracé 26911" class="cls-1" d="M80.12,27.24c-1.34,0-2.68,0-4,0a.7.7,0,0,0-.81.58h0Q73.64,32.71,72,37.59c-.08.24-.06.55-.38.72-.08-.23-.16-.43-.23-.63l-3.51-9.86c-.1-.27-.1-.59-.58-.58-1.61,0-3.22,0-4.91,0l.35.9,6.39,15.33a.7.7,0,0,1-.17.88,1.88,1.88,0,0,1-1.6.59,4,4,0,0,1-1.62-.47c-.26-.15-.37-.1-.5.15-.44.91-.88,1.82-1.35,2.72-.15.28-.07.4.18.55,3.58,2.12,7.64,1,9.39-2.56.1-.21.2-.42.29-.64l6.8-17c.21-.51,0-.47-.4-.47"/><path id="Tracé_26912" data-name="Tracé 26912" class="cls-1" d="M59.44,35a47.66,47.66,0,0,0-5-1.93,3.71,3.71,0,0,1-1.17-.6,1,1,0,0,1-.2-1.34.92.92,0,0,1,.52-.36A3.12,3.12,0,0,1,55,30.65,9.7,9.7,0,0,1,59,32c.37.2.54.15.73-.2.43-.79.87-1.57,1.37-2.32.29-.44.14-.62-.27-.85a11.87,11.87,0,0,0-7.42-1.48,5.93,5.93,0,0,0-4.09,2.2A4.51,4.51,0,0,0,50,35.64a4.89,4.89,0,0,0,.6.41,17.09,17.09,0,0,0,4.32,1.63,7.63,7.63,0,0,1,1.6.57c.46.26.82.6.72,1.18s-.5.82-1,1A4.39,4.39,0,0,1,55,40.5a9.37,9.37,0,0,1-4.82-1.66c-.45-.29-.63-.22-.89.18a23.2,23.2,0,0,1-1.45,2.11c-.33.42-.2.6.2.86a12.61,12.61,0,0,0,7.17,2.13A7.58,7.58,0,0,0,59.54,43c2.87-1.72,3.15-6.34-.1-8"/><path id="Tracé_26913" data-name="Tracé 26913" class="cls-1" d="M92.39,35a47.42,47.42,0,0,0-4.6-1.77,4.5,4.5,0,0,1-1.52-.71A1,1,0,0,1,86,31.19a1,1,0,0,1,.59-.39A3.11,3.11,0,0,1,88,30.66a9.65,9.65,0,0,1,4,1.27c.4.22.57.18.78-.21a22.14,22.14,0,0,1,1.33-2.25c.33-.47.17-.65-.27-.9A12.12,12.12,0,0,0,87.86,27c-.45,0-.89,0-1.34.08a5.57,5.57,0,0,0-5.12,4.28c-.41,2.36.77,4.2,3.44,5.34a31,31,0,0,0,3.23,1,5.68,5.68,0,0,1,1.64.65,1,1,0,0,1,.53,1.07,1.11,1.11,0,0,1-.84.89A4.08,4.08,0,0,1,88,40.5a9.19,9.19,0,0,1-4.83-1.63c-.52-.33-.71-.22-1,.22-.43.69-.89,1.35-1.38,2-.3.39-.34.6.14.91a12.63,12.63,0,0,0,5.18,2,9.6,9.6,0,0,0,6.19-.84c3.08-1.71,3.4-6.48.06-8.13"/><path id="Tracé_26914" data-name="Tracé 26914" class="cls-1" d="M122.66,27.24c-1.29,0-2.58,0-3.87,0-.52,0-.66.14-.66.63,0,2.55,0,5.12,0,7.68s0,5.12,0,7.68c0,.5.15.63.67.62,1.29,0,2.57,0,3.86,0,.39,0,.5-.12.5-.48q0-7.83,0-15.65c0-.37-.12-.47-.5-.47"/><path id="Tracé_26915" data-name="Tracé 26915" class="cls-1" d="M123.31,21.7c0-.34-.12-.45-.47-.44-.72,0-1.44,0-2.16,0s-1.49,0-2.23,0c-.32,0-.44.09-.44.4q0,1.68,0,3.36c0,.34.12.43.47.43q2.16,0,4.32,0c.37,0,.52-.08.51-.46,0-1.09,0-2.19,0-3.29"/></g></svg>