<svg id="Calque_1" data-name="Calque 1" xmlns="http://www.w3.org/2000/svg" viewBox="0 0 167.03 40.08"><defs><style>.cls-1{fill:#959595;}</style></defs><g id="Composant_130" data-name="Composant 130"><path id="Tracé_26585" data-name="Tracé 26585" class="cls-1" d="M54.62,13H48.69V9.41h15.9V13H58.65V30.68h-4"/><path id="Tracé_26586" data-name="Tracé 26586" class="cls-1" d="M153.91,30.68V19.82c0-.83-.35-1.24-1.24-1.24a10.81,10.81,0,0,0-4,1.33V30.68h-3.9V15.12h3l.39,1.34a15.57,15.57,0,0,1,6.23-1.66,3,3,0,0,1,2.94,1.67,15.24,15.24,0,0,1,6.27-1.67c2.58,0,3.51,1.82,3.51,4.6V30.68h-3.9V19.82c0-.83-.35-1.24-1.24-1.24a10.35,10.35,0,0,0-4,1.33V30.68Zm-10.69-12.3a30.66,30.66,0,0,0-4.13,2.27v10H135.2V15.12h3.28l.26,1.73a17.22,17.22,0,0,1,4.09-2.05Zm-16.81-.26c-2.07,0-2.87.93-2.87,2.68V25c0,1.76.8,2.67,2.87,2.67s2.88-.93,2.88-2.67V20.81c0-1.76-.8-2.69-2.88-2.69m0,12.88c-5.34,0-6.76-2.94-6.76-6.14V20.94c0-3.2,1.43-6.14,6.76-6.14s6.77,2.94,6.77,6.14v3.92c0,3.2-1.44,6.14-6.77,6.14m-7.59-19.42a10.61,10.61,0,0,0-2.24-.25c-1.53,0-1.76.66-1.76,1.84v1.95h4l-.22,3.1h-3.73V30.68h-3.9V18.22h-2.49v-3.1h2.49V13c0-3.22,1.5-4.82,4.95-4.82a12.57,12.57,0,0,1,3.34.45ZM103,24.8h-2.87c-1.28,0-1.63.35-1.63,1.53s.35,1.56,1.56,1.56a6.09,6.09,0,0,0,2.94-.8Zm3.89,5.88h-3.19l-.29-1.06A8.42,8.42,0,0,1,98.74,31c-2.84,0-4.06-2-4.06-4.63,0-3.16,1.37-4.38,4.54-4.38H103V20.36c0-1.72-.48-2.33-3-2.33a22.23,22.23,0,0,0-4.31.48l-.48-3a20.54,20.54,0,0,1,5.34-.74c4.88,0,6.33,1.73,6.33,5.62Zm-13-12.3a30.54,30.54,0,0,0-4.12,2.27v10h-3.9V15.12h3.29l.25,1.73a17.41,17.41,0,0,1,4.09-2.05Zm-9.51,0a30.77,30.77,0,0,0-4.14,2.27v10H76.27V15.12h3.28l.26,1.73A17.41,17.41,0,0,1,83.9,14.8Zm-19.07,2.9h5v-.79c0-1.47-.45-2.49-2.36-2.49s-2.59,1-2.59,2.49Zm3,6.52A16,16,0,0,0,73,27.07L73.63,30a16.67,16.67,0,0,1-5.72,1c-4.88,0-6.58-2.27-6.58-6v-4.1c0-3.29,1.47-6.07,6.45-6.07s6.1,2.91,6.1,6.26v3.34H65.2v.8c0,1.86.7,2.59,3.06,2.59"/><path id="Tracé_26587" data-name="Tracé 26587" class="cls-1" d="M24.31,26l11-6.32V7.06l-11,6.34"/><path id="Tracé_26588" data-name="Tracé 26588" class="cls-1" d="M12.15,7.06l11,6.33V26l-11-6.33"/><path id="Tracé_26589" data-name="Tracé 26589" class="cls-1" d="M12.15,33.76l11,6.32V27.43l-11-6.33M0,12.65,11,19V6.33L0,0"/></g></svg>