<svg id="Calque_1" data-name="Calque 1" xmlns="http://www.w3.org/2000/svg" viewBox="0 0 146.87 22.49"><defs><style>.cls-1{fill:#959595;}</style></defs><g id="Groupe_24954" data-name="Groupe 24954"><path id="Tracé_26897" data-name="Tracé 26897" class="cls-1" d="M11.32,14.69c1.1-2.59,2.15-5,3.19-7.51.44-1,.85-2,1.32-3A7.13,7.13,0,0,1,27.43,2.2c.61.61.9.45,1.42,0A9,9,0,0,1,37.56.5a5.6,5.6,0,0,1,2.69,1.7c.5.61.78.49,1.34,0C44.39,0,47.51-.7,50.87.74a6.67,6.67,0,0,1,4.26,6.43c.06,4,0,7.92,0,11.89a3.13,3.13,0,0,1-2.84,3.39,3.26,3.26,0,0,1-.7,0,3.08,3.08,0,0,1-2.76-3.35c0-3.26,0-6.51,0-9.77,0-.26,0-.52,0-.79a3,3,0,0,0-2.72-3,3.17,3.17,0,0,0-3.63,2.19,5.31,5.31,0,0,0-.14,1.48v9.69A3.2,3.2,0,0,1,40,22.34a3,3,0,0,1-3.81-2,3.1,3.1,0,0,1-.11-.51,8.51,8.51,0,0,1-.1-1.33c0-3.26,0-6.51,0-9.77a2.89,2.89,0,0,0-1.66-2.89,3.39,3.39,0,0,0-3.64.35,3.27,3.27,0,0,0-1.19,2.86c0,3.36,0,6.72,0,10.08a3,3,0,0,1-2.78,3.28,2.26,2.26,0,0,1-.52,0c-1.78,0-3-1.39-3-3.45,0-3.94,0-7.88,0-11.81V6.54a.88.88,0,0,0-.66-1,.85.85,0,0,0-1.08.55h0q-1,2.1-1.93,4.22c-1.32,2.88-2.64,5.77-4,8.64a12,12,0,0,1-1,1.77,3.91,3.91,0,0,1-5.44,1,3.84,3.84,0,0,1-1-1A18.84,18.84,0,0,1,6.3,17.36L.42,4.57a3,3,0,0,1,1-4.06A2.31,2.31,0,0,1,1.79.33a3,3,0,0,1,4,1.42c.06.14.11.28.16.42L11,13.9c.09.21.2.42.37.78"/><path id="Tracé_26898" data-name="Tracé 26898" class="cls-1" d="M71.92,5.9c-.8,2.3-1.6,4.58-2.4,6.87q-1.41,4-2.81,8c-.36,1-.87,1.44-1.72,1.47a1.84,1.84,0,0,1-1.88-1.38q-3.27-9.06-6.5-18.13A1.53,1.53,0,0,1,57.29.67l.17-.08a1.65,1.65,0,0,1,2.14.91,2.76,2.76,0,0,1,.08.27Q62.17,8.9,64.61,16c.11.32.23.63.4,1.1.79-2.29,1.54-4.43,2.28-6.57l3-8.61c.4-1.14.8-1.45,1.77-1.44S73.44.89,73.83,2l4.83,14c.11.32.23.64.39,1.09.84-2.39,1.63-4.66,2.43-6.93L84.4,1.82A1.64,1.64,0,0,1,85.64.53a1.53,1.53,0,0,1,1.8,2.07c-.52,1.56-1.12,3.11-1.67,4.66Q83.37,13.92,81,20.57c0,.12-.09.25-.14.37A1.87,1.87,0,0,1,79,22.25a1.77,1.77,0,0,1-1.71-1.38c-.76-2.17-1.51-4.36-2.26-6.53q-1.36-3.94-2.74-7.87c-.06-.19,0-.43-.35-.56"/><path id="Tracé_26899" data-name="Tracé 26899" class="cls-1" d="M97.13,11.24a8.15,8.15,0,0,0-4.67,1.17,3.89,3.89,0,0,0-.17,6.28,6.47,6.47,0,0,0,5.39,1c2.52-.48,4.52-1.68,5.3-4.32a11.16,11.16,0,0,0,.16-2.58.71.71,0,0,0-.55-.85l-.11,0a25.42,25.42,0,0,0-5.35-.72m6,7.67a9.23,9.23,0,0,1-5.26,3.26c-3.14.62-6.1.27-8.5-2.05a6.3,6.3,0,0,1,0-8.9,6.57,6.57,0,0,1,1.18-.92,10.69,10.69,0,0,1,5-1.39,21.23,21.23,0,0,1,6.87.67c.65.18.73,0,.73-.6a5.25,5.25,0,0,0-4.87-5.6h-.38a12,12,0,0,0-5.92.89,1.39,1.39,0,0,1-1.87-.62s0-.07,0-.1a1.33,1.33,0,0,1,.64-1.77l0,0A14.17,14.17,0,0,1,102,1.46c2.54,1.06,3.73,3.22,4,5.86a82.64,82.64,0,0,1,.14,8.33c0,1.63,0,3.26,0,4.89a1.56,1.56,0,0,1-1.35,1.73h0a1.48,1.48,0,0,1-1.7-1.23.82.82,0,0,1,0-.27c0-.55,0-1.1,0-1.87"/><path id="Tracé_26900" data-name="Tracé 26900" class="cls-1" d="M131.57,10.2h4.73c2.17,0,2.17,0,1.57-2.09-1.08-3.78-4.47-5.8-8-4.72C127,4.29,125.4,7,125,9.77c-.08.53.31.43.6.43,2,0,4,0,6,0m1.06,2.4c-2.34,0-4.68,0-7,0-.58,0-.72.16-.6.73.56,2.79,2,5,4.73,5.89a8,8,0,0,0,8.14-1.74,1.74,1.74,0,0,1,1.31-.62,1.33,1.33,0,0,1,1.2.88,1.37,1.37,0,0,1-.39,1.51,10.86,10.86,0,0,1-14.89.46,10.13,10.13,0,0,1-3.21-6.16,11.51,11.51,0,0,1,2.78-10A9.24,9.24,0,0,1,134.32.77c3.68,1,5.72,3.6,6.7,7.15a10.39,10.39,0,0,1,.36,2.88c0,1.3-.5,1.8-1.82,1.8h-6.93"/><path id="Tracé_26901" data-name="Tracé 26901" class="cls-1" d="M113.21,5.43a9.22,9.22,0,0,1,4.28-4.2,6.43,6.43,0,0,1,3-.72A1.48,1.48,0,0,1,122,1.86a1.54,1.54,0,0,1-1.19,1.83h0c-.38.1-.78.13-1.16.23a8.19,8.19,0,0,0-6.31,7.46c-.34,3-.08,6.07-.15,9.11a1.59,1.59,0,0,1-1.45,1.72,1.62,1.62,0,0,1-.49,0A1.52,1.52,0,0,1,110,20.51c0-2.31,0-4.62,0-6.92V2.33c0-1.13.62-1.88,1.55-1.88s1.62.72,1.63,1.89V5.17a2.46,2.46,0,0,0,0,.26"/><path id="Tracé_26902" data-name="Tracé 26902" class="cls-1" d="M144.27,1a2.1,2.1,0,0,0-2.12,2.07,2.18,2.18,0,0,0,2.12,2.19,2.23,2.23,0,0,0,2.09-2.15,2.11,2.11,0,0,0-2.1-2.1m2.6,2.1a2.62,2.62,0,0,1-5.24,0h0A2.6,2.6,0,0,1,144.17.44h.08A2.58,2.58,0,0,1,146.87,3a.66.66,0,0,1,0,.14"/><path id="Tracé_26903" data-name="Tracé 26903" class="cls-1" d="M144.77,2.61c-.08-.25-.28-.32-.54-.32s-.38.09-.38.36.15.35.4.34.46-.08.52-.38m-.72-.84c1.28,0,1.57.45,1,1.49-.14.28,0,.38.12.54s.18.35,0,.48-.35,0-.48-.14l-.3-.36c-.25-.28-.5-.51-.57.12,0,.22-.08.43-.36.4s-.24-.28-.25-.48c0-.37,0-.74,0-1.1-.06-.7.07-1.17.81-1"/><path id="Tracé_26904" data-name="Tracé 26904" class="cls-1" d="M144.77,2.61c-.06.3-.27.36-.52.38s-.39-.06-.39-.34.12-.37.37-.36.46.07.54.32"/></g></svg>